<svg width="800" height="730" viewBox="0 0 800 730" fill="none" xmlns="http://www.w3.org/2000/svg">
<mask id="mask0_865_118" style="mask-type:alpha" maskUnits="userSpaceOnUse" x="0" y="0" width="800" height="730">
<rect width="800" height="730" fill="#D9D9D9"/>
<rect x="0.5" y="0.5" width="799" height="729" stroke="white" stroke-opacity="0.35"/>
</mask>
<g mask="url(#mask0_865_118)">
<path d="M730.058 464.799C673.103 537.047 605.345 579.402 530.138 613.682C441.552 655.032 342.648 689.397 216.366 709.908C87.7029 728.311 -68.343 732.859 -326.18 665.93C-364.825 655.825 -413.265 640.139 -444.712 620.638C-467.713 606.399 -473.625 595.012 -477.955 584.699C-507.107 515.303 -517.16 446.69 -527.638 363.647C-531.024 337.707 -532.784 309.521 -514.161 287.98C-500.692 272.275 -478.857 261.513 -459.772 249.557C-300.174 146.784 -268.58 -56.7354 -195.268 -207.774C-124.14 -360.745 -23.5185 -474.313 206.281 -479.203C299.738 -481.391 419.012 -462.066 565.046 -409.686C618.92 -390.592 679.21 -365.336 725.371 -337.688C770.844 -310.456 795.814 -285.416 818.564 -261.748C862.674 -215.941 903.161 -170.922 898.631 -137.319C895.814 -114.06 875.002 -95.8321 858.174 -72.2146C840.9 -48.9908 827.608 -20.376 829.577 14.5789C832.777 62.4204 864.753 111.671 885.671 165.82C901.967 207.575 876.382 228.911 859 258.662C814.199 333.928 775.091 409.041 730.058 464.799Z" stroke="white" stroke-opacity="0.2" stroke-width="0.2444" stroke-miterlimit="10" stroke-linecap="round" stroke-linejoin="round" stroke-dasharray="0.04 14.23"/>
<path d="M-449.168 247.317C-297.685 141.327 -266.171 -58.5113 -194.11 -207.149C-124.103 -357.657 -25.2005 -469.513 196.766 -478.018C287.019 -481.657 401.864 -464.843 542.513 -415.975C594.41 -398.165 652.486 -374.409 697.291 -347.744C741.448 -321.461 766.153 -296.7 788.694 -273.258C832.381 -227.935 872.67 -183.235 869.767 -148.8C868.052 -124.985 848.968 -105.826 833.647 -81.5014C817.905 -57.549 805.927 -28.4317 808.65 6.65323C812.801 54.6697 844.603 103.493 865.781 157.351C882.252 198.88 857.734 220.503 841.121 250.264C798.385 325.5 760.257 399.708 716.087 454.69C660.212 525.893 593.412 567.428 519.566 601.264C432.566 642.058 335.759 676.282 213.378 698.08C88.7318 717.872 -61.4862 725.238 -307.575 666.062C-344.475 657.11 -390.728 642.921 -421.21 624.128C-443.513 610.399 -449.639 598.903 -454.235 588.449C-485.204 518.151 -497.957 448.128 -510.924 364.086C-515.082 337.835 -517.714 309.302 -500.496 287.128C-488.028 270.957 -467.306 259.67 -449.168 247.317Z" stroke="white" stroke-opacity="0.2" stroke-width="0.4108" stroke-miterlimit="10" stroke-linecap="round" stroke-linejoin="round" stroke-dasharray="0.04 14.2"/>
<path d="M-438.837 244.838C-295.183 135.878 -263.77 -60.2888 -192.954 -206.526C-124.069 -354.573 -26.8853 -464.716 187.441 -476.664C274.567 -481.685 385.105 -467.281 520.514 -421.793C570.483 -405.222 626.409 -382.911 669.886 -357.203C712.752 -331.848 737.184 -307.367 759.516 -284.16C802.765 -239.331 842.84 -194.969 841.485 -159.769C840.826 -135.441 823.399 -115.411 809.531 -90.4284C795.258 -65.8035 784.54 -36.226 787.982 -1.04899C793.038 47.0995 824.651 95.4791 846.056 149.026C862.681 190.31 839.196 212.193 823.328 241.942C782.596 317.094 745.431 390.383 702.122 444.585C647.32 514.738 581.484 555.457 508.991 588.845C423.571 629.076 328.834 663.136 210.26 686.134C89.5351 707.23 -55.0234 717.266 -289.747 665.508C-324.96 657.659 -369.093 644.9 -398.638 626.796C-420.26 613.563 -426.582 601.97 -431.432 591.387C-464.101 520.291 -479.41 448.985 -494.733 364.061C-499.619 337.538 -503.08 308.696 -487.209 285.939C-475.708 269.336 -456.058 257.559 -438.837 244.838Z" stroke="white" stroke-opacity="0.2" stroke-width="0.5773" stroke-miterlimit="10" stroke-linecap="round" stroke-linejoin="round" stroke-dasharray="0.04 14.17"/>
<path d="M-428.768 242.126C-292.667 130.444 -261.369 -62.0679 -191.796 -205.901C-124.036 -351.487 -28.5682 -459.916 178.31 -475.141C262.39 -481.476 368.735 -469.373 499.044 -427.142C547.138 -411.765 600.969 -390.847 643.148 -366.07C684.754 -341.615 708.908 -317.422 731.024 -294.453C773.817 -250.133 813.654 -206.128 813.78 -170.228C814.121 -145.432 798.29 -124.588 785.813 -98.9999C772.953 -73.7511 763.449 -43.7618 767.567 -8.52495C773.486 39.7154 804.889 87.6385 826.494 140.845C843.252 181.866 820.771 203.982 805.628 233.699C766.837 308.713 730.621 381.069 688.162 434.483C634.429 503.579 569.563 543.488 498.416 576.422C414.566 616.084 321.87 649.956 207.013 674.077C90.1133 696.39 -48.9536 708.95 -272.682 664.278C-306.263 657.482 -348.345 646.093 -376.978 628.658C-397.936 615.907 -404.441 604.231 -409.528 593.531C-443.785 521.736 -461.508 449.271 -479.054 363.585C-484.631 336.826 -488.872 307.713 -474.299 284.421C-463.718 267.421 -445.106 255.186 -428.768 242.126Z" stroke="white" stroke-opacity="0.2" stroke-width="0.7438" stroke-miterlimit="10" stroke-linecap="round" stroke-linejoin="round" stroke-dasharray="0.04 14.15"/>
<path d="M-418.958 239.185C-290.14 125.02 -258.976 -63.8505 -190.641 -205.276C-124.003 -348.403 -30.2505 -455.114 169.364 -473.451C250.472 -481.03 352.739 -471.132 478.089 -432.036C524.361 -417.805 576.151 -398.231 617.06 -374.362C657.432 -350.786 681.304 -326.882 703.195 -304.161C745.524 -260.361 785.099 -216.733 786.632 -180.195C786.901 -131.806 735.55 -88.3704 747.396 -15.7862C754.128 32.5067 785.307 79.9576 807.087 132.801C823.957 173.542 802.448 195.862 788.007 225.525C751.096 300.346 715.809 371.755 674.201 424.379C621.528 492.411 557.637 531.519 487.832 563.991C405.545 603.077 314.873 636.742 203.638 661.901C90.4665 685.348 -43.266 700.29 -256.369 662.379C-288.373 656.587 -328.476 646.511 -356.215 629.721C-376.525 617.435 -383.203 605.687 -388.506 594.886C-424.241 522.491 -444.239 448.991 -463.878 362.657C-470.099 335.695 -475.08 306.354 -461.749 282.576C-452.057 265.218 -434.443 252.557 -418.958 239.185Z" stroke="white" stroke-opacity="0.2" stroke-width="0.9103" stroke-miterlimit="10" stroke-linecap="round" stroke-linejoin="round" stroke-dasharray="0.04 14.12"/>
<path d="M-409.402 236.02C-287.595 119.608 -256.582 -65.6353 -189.482 -204.651C-123.969 -345.317 -31.9294 -450.312 160.608 -471.595C238.819 -480.352 337.12 -472.56 457.646 -436.474C502.145 -423.347 551.952 -405.069 591.621 -382.081C630.788 -359.355 654.371 -335.75 676.031 -313.277C717.882 -270.008 757.174 -226.778 760.042 -189.664C762.236 -140.409 714.526 -95.3018 727.471 -22.8259C734.972 25.476 765.915 72.4451 787.838 124.899C804.799 165.342 784.235 187.843 770.474 217.433C735.383 292.007 701.014 362.458 660.247 414.285C608.626 481.249 545.722 519.561 477.248 551.564C396.52 590.07 307.842 623.503 200.141 649.624C90.6068 674.123 -37.9492 691.308 -240.786 659.838C-271.266 655.004 -309.458 646.176 -336.325 630.016C-356.001 618.182 -362.836 606.375 -368.347 595.487C-405.45 522.588 -427.584 448.173 -449.189 361.304C-456.023 334.176 -461.696 304.645 -449.554 280.425C-440.713 262.73 -424.064 249.678 -409.402 236.02Z" stroke="white" stroke-opacity="0.2" stroke-width="1.0767" stroke-miterlimit="10" stroke-linecap="round" stroke-linejoin="round" stroke-dasharray="0.04 14.1"/>
<path d="M-400.096 232.631C-285.044 114.204 -254.192 -67.4229 -188.325 -204.027C-123.937 -342.234 -33.6078 -445.511 152.03 -469.581C227.421 -479.449 321.868 -473.663 437.705 -440.472C480.479 -428.406 528.36 -411.371 566.812 -389.242C604.799 -367.344 628.088 -344.04 649.51 -321.826C690.869 -279.1 729.859 -236.284 733.992 -198.657C738.013 -148.624 693.803 -101.97 707.784 -29.6579C716.012 18.6164 746.697 65.0853 768.738 117.128C785.771 157.254 766.12 179.91 753.017 209.411C719.685 283.685 686.218 353.161 646.288 404.188C595.713 470.078 533.802 507.602 466.652 539.13C387.471 577.044 300.871 610.358 196.646 637.408C90.6941 662.928 -32.8825 682.182 -225.938 656.653C-254.928 652.755 -291.293 645.093 -317.311 629.543C-336.374 618.146 -343.349 606.291 -349.048 595.33C-387.411 522.02 -411.549 446.813 -434.996 359.518C-442.4 332.256 -448.728 302.571 -437.721 277.957C-429.689 259.963 -413.965 246.549 -400.096 232.631Z" stroke="white" stroke-opacity="0.2" stroke-width="1.2432" stroke-miterlimit="10" stroke-linecap="round" stroke-linejoin="round" stroke-dasharray="0.04 14.07"/>
<path d="M-391.032 229.031C-282.475 108.814 -251.804 -69.2152 -187.167 -203.403C-123.903 -339.15 -35.2814 -440.703 143.634 -467.406C216.28 -478.322 306.977 -474.447 418.258 -444.03C459.359 -432.981 505.367 -417.142 542.63 -395.848C579.466 -374.755 602.455 -351.759 623.634 -329.807C664.484 -287.635 703.155 -245.249 708.486 -207.171C714.254 -156.429 673.625 -108.342 688.338 -36.2789C697.39 11.9338 727.659 57.8824 749.798 109.495C766.885 149.285 748.119 172.072 735.65 201.46C704.02 275.382 671.442 343.876 632.341 394.096C582.811 458.905 521.897 495.645 456.065 526.695C378.424 564.013 293.789 597.076 192.933 624.942C90.443 651.362 -28.2704 672.583 -211.786 652.841C-239.356 649.811 -273.94 643.279 -299.131 628.32C-317.593 617.345 -324.701 605.454 -330.575 594.431C-370.092 520.807 -396.104 444.922 -421.267 357.31C-429.202 329.95 -436.144 300.147 -426.221 275.183C-418.97 256.923 -404.143 243.179 -391.032 229.031Z" stroke="white" stroke-opacity="0.2" stroke-width="1.4097" stroke-miterlimit="10" stroke-linecap="round" stroke-linejoin="round" stroke-dasharray="0.04 14.04"/>
<path d="M-382.208 225.216C-279.896 103.436 -249.42 -71.0089 -186.011 -202.78C-123.873 -336.068 -36.9564 -435.898 135.416 -465.076C205.384 -476.974 292.445 -474.913 399.3 -447.159C438.774 -437.083 482.96 -422.395 519.063 -401.913C554.772 -381.601 577.455 -358.915 598.384 -337.233C638.719 -295.626 677.045 -253.689 683.507 -215.22C690.909 -163.867 653.533 -114.477 669.121 -42.6925C678.831 5.41124 708.797 50.8398 731.002 101.993C748.122 141.434 730.214 164.323 718.36 193.583C688.373 267.102 656.666 334.595 618.393 384.006C569.898 447.733 509.989 483.692 445.469 514.255C369.364 550.973 286.676 583.767 189.1 612.375C89.9838 639.618 -24.0146 662.673 -198.332 648.415C-224.529 646.211 -257.4 640.753 -281.783 626.366C-299.662 615.801 -306.882 603.886 -312.92 592.813C-353.492 518.964 -381.242 442.516 -408.003 354.695C-416.436 327.268 -423.947 297.385 -415.06 272.115C-408.554 253.616 -394.583 239.572 -382.208 225.216Z" stroke="white" stroke-opacity="0.2" stroke-width="1.5761" stroke-miterlimit="10" stroke-linecap="round" stroke-linejoin="round" stroke-dasharray="0.04 14.02"/>
<path d="M-373.618 221.197C-277.304 98.0687 -247.038 -72.8025 -184.853 -202.154C-123.84 -332.984 -38.6276 -431.087 127.37 -462.591C194.732 -475.409 278.259 -475.071 380.817 -449.862C418.711 -440.721 461.132 -427.133 496.097 -407.441C530.702 -387.889 553.079 -365.517 573.751 -344.107C613.556 -303.079 651.518 -261.611 659.045 -222.804C667.989 -170.928 633.733 -120.352 650.136 -48.9013C660.457 -0.941779 690.11 43.9514 712.353 94.6246C729.489 133.698 712.409 156.667 701.149 185.777C672.747 258.844 641.902 325.327 604.449 373.921C556.982 436.556 498.084 471.742 434.871 501.816C360.295 537.926 279.526 570.429 185.151 599.706C89.3248 627.696 -20.1066 652.457 -185.56 643.386C-210.436 641.963 -241.655 637.522 -265.252 623.689C-282.561 613.519 -289.886 601.59 -296.071 590.483C-337.593 516.5 -366.957 439.599 -395.2 351.674C-404.088 324.213 -412.133 294.283 -404.232 268.753C-398.435 250.048 -385.293 235.732 -373.618 221.197Z" stroke="white" stroke-opacity="0.2" stroke-width="1.7426" stroke-miterlimit="10" stroke-linecap="round" stroke-linejoin="round" stroke-dasharray="0.04 13.99"/>
<path d="M-365.256 216.974C-274.697 92.7123 -244.658 -74.6004 -183.696 -201.529C-123.808 -329.901 -40.2963 -426.277 119.497 -459.953C184.327 -473.632 264.42 -474.922 362.807 -452.152C399.166 -443.902 439.875 -431.372 473.729 -412.446C507.259 -393.631 529.321 -371.581 549.731 -350.448C588.992 -310.009 626.572 -269.023 635.098 -229.939C645.49 -177.618 614.222 -125.973 631.382 -54.9135C642.274 -7.13332 671.594 37.2097 693.856 87.3816C710.987 126.07 694.654 149.054 684.022 178.039C657.008 250.504 627.153 316.067 590.511 363.836C544.066 425.376 486.186 459.796 424.274 489.373C351.22 524.869 272.349 557.066 181.096 586.939C88.4744 615.602 -16.533 641.941 -173.45 637.769C-197.052 637.084 -226.683 633.606 -249.512 620.309C-266.266 610.522 -273.684 598.592 -280.002 587.461C-322.376 513.431 -353.232 436.189 -382.838 348.26C-392.151 320.795 -400.685 290.855 -393.723 265.105C-388.604 246.224 -376.253 231.666 -365.256 216.974Z" stroke="white" stroke-opacity="0.2" stroke-width="1.9091" stroke-miterlimit="10" stroke-linecap="round" stroke-linejoin="round" stroke-dasharray="0.03 13.96"/>
<path d="M-357.119 212.551C-272.081 87.3679 -242.283 -76.4031 -182.538 -200.904C-123.777 -326.82 -41.9672 -421.466 111.792 -457.169C174.157 -471.646 250.92 -474.477 345.258 -454.033C380.128 -446.635 419.17 -435.117 451.94 -416.936C484.418 -398.836 506.161 -377.11 526.301 -356.264C565.008 -316.419 602.186 -275.937 611.648 -236.634C623.397 -183.949 594.988 -131.351 612.841 -60.7321C624.264 -13.1707 653.242 30.6138 675.493 80.2598C692.6 118.548 677.035 141.559 666.964 170.365C641.412 242.269 612.404 306.808 576.571 353.752C531.145 414.191 474.289 447.849 413.668 476.924C342.131 511.803 265.139 543.671 176.927 574.073C87.427 603.334 -13.2942 631.129 -162.001 631.569C-184.379 631.58 -212.517 629.021 -234.559 616.235C-250.806 606.824 -258.272 594.896 -264.708 583.753C-307.835 509.761 -340.06 432.288 -370.918 344.455C-380.619 317.019 -389.606 287.102 -383.536 261.172C-379.058 242.146 -367.468 227.376 -357.119 212.551Z" stroke="white" stroke-opacity="0.2" stroke-width="2.0756" stroke-miterlimit="10" stroke-linecap="round" stroke-linejoin="round" stroke-dasharray="0.03 13.94"/>
<path d="M-349.204 207.935C-269.45 82.0308 -239.91 -78.2041 -181.382 -200.28C-123.748 -323.737 -43.6322 -416.651 104.249 -454.237C164.212 -469.451 237.749 -473.735 328.161 -455.51C361.584 -448.929 399.067 -438.391 430.719 -420.916C462.23 -403.524 483.59 -382.113 503.456 -361.554C541.598 -322.321 578.357 -282.355 588.69 -242.888C601.709 -189.918 576.029 -136.481 594.517 -66.3536C606.431 -19.0446 635.05 24.1665 657.268 73.2662C674.336 111.139 659.514 134.153 649.981 162.76C625.832 234.057 597.661 297.557 562.631 343.671C518.216 403.006 462.389 435.907 403.057 464.474C333.03 498.729 257.895 530.251 172.646 561.111C86.1877 590.902 -10.3851 620.029 -151.195 624.804C-172.391 625.467 -199.064 623.771 -220.376 611.481C-236.099 602.432 -243.63 590.522 -250.171 579.379C-293.958 505.511 -327.43 427.909 -359.428 340.273C-369.485 312.896 -378.888 283.035 -373.663 256.969C-369.789 237.825 -358.927 222.869 -349.204 207.935Z" stroke="white" stroke-opacity="0.2" stroke-width="2.242" stroke-miterlimit="10" stroke-linecap="round" stroke-linejoin="round" stroke-dasharray="0.03 13.91"/>
<path d="M-341.5 203.13C-266.809 76.7092 -237.539 -80.0086 -180.227 -199.655C-123.72 -320.656 -45.2984 -411.833 96.8714 -451.159C154.501 -467.054 224.906 -472.704 311.511 -456.593C343.533 -450.784 379.454 -441.177 410.068 -424.401C440.574 -407.685 461.605 -386.604 481.192 -366.34C518.756 -327.724 555.076 -288.293 566.219 -248.716C580.419 -195.54 557.346 -141.37 576.41 -71.7881C588.778 -24.7647 617.117 17.8313 639.184 66.3926C656.262 103.81 642.088 126.826 633.074 155.221C610.283 225.861 582.929 288.313 548.696 333.592C505.29 391.815 450.498 423.967 392.447 452.022C323.921 485.647 250.625 516.805 168.263 548.058C84.768 578.306 -7.79008 608.65 -141.01 617.485C-161.074 618.764 -186.33 617.876 -206.935 606.07C-222.148 597.368 -229.732 585.485 -236.367 574.353C-280.717 500.692 -315.326 423.066 -348.352 335.722C-358.731 308.433 -368.51 278.661 -364.088 252.498C-360.791 233.261 -350.628 218.149 -341.5 203.13Z" stroke="white" stroke-opacity="0.2" stroke-width="2.4085" stroke-miterlimit="10" stroke-linecap="round" stroke-linejoin="round" stroke-dasharray="0.03 13.88"/>
<path d="M-334.004 198.14C-263.886 71.603 -235.172 -81.8171 -179.066 -199.03C-123.688 -317.575 -46.9583 -407.017 89.6573 -447.941C145.018 -464.458 212.391 -471.388 295.301 -457.29C325.965 -452.217 360.372 -443.496 389.966 -427.397C419.497 -411.337 440.191 -390.587 459.491 -370.623C496.466 -332.636 532.331 -293.757 544.225 -254.121C559.518 -200.813 538.929 -146.023 558.515 -77.034C571.293 -30.3362 599.254 11.664 621.235 59.6383C638.241 96.6055 624.755 119.584 616.241 147.746C594.754 217.685 568.204 279.078 534.766 323.517C492.358 380.625 438.606 412.029 381.833 439.568C314.807 472.56 243.328 503.338 163.781 534.916C83.1751 565.556 -5.50312 596.997 -131.436 609.625C-150.411 611.477 -174.315 611.35 -194.224 600.008C-208.94 591.643 -216.567 579.796 -223.284 568.688C-268.109 495.316 -303.735 417.766 -337.686 330.809C-348.351 303.637 -358.476 273.986 -354.807 247.763C-352.056 228.466 -342.53 213.248 -334.004 198.14Z" stroke="white" stroke-opacity="0.2" stroke-width="2.575" stroke-miterlimit="10" stroke-linecap="round" stroke-linejoin="round" stroke-dasharray="0.03 13.86"/>
<path d="M-326.714 192.968C-261.2 66.3173 -232.806 -83.6272 -177.908 -198.406C-123.658 -314.493 -48.6131 -402.196 82.5979 -444.584C135.754 -461.668 200.188 -469.793 279.522 -457.603C308.87 -453.231 341.807 -445.353 370.411 -429.909C398.984 -414.486 419.339 -394.073 438.348 -374.415C474.721 -337.066 510.113 -298.753 522.698 -259.112C539.003 -205.748 520.777 -150.441 540.828 -82.0966C553.978 -35.7546 581.548 5.63362 603.416 53.0031C620.335 89.5044 607.509 112.422 599.478 140.336C579.24 209.53 553.49 269.851 520.838 313.446C479.427 369.433 426.723 400.096 371.219 427.112C305.686 459.464 236.003 489.843 159.198 521.684C81.3995 552.649 -3.52131 585.075 -122.463 601.235C-140.393 603.623 -162.994 604.207 -182.232 593.317C-196.462 585.275 -204.12 573.476 -210.906 562.402C-256.114 489.394 -292.648 412.022 -327.419 325.542C-338.34 298.514 -348.774 269.017 -345.818 242.773C-343.585 223.44 -334.694 208.118 -326.714 192.968Z" stroke="white" stroke-opacity="0.2" stroke-width="2.7415" stroke-miterlimit="10" stroke-linecap="round" stroke-linejoin="round" stroke-dasharray="0.03 13.83"/>
<path d="M-319.623 187.622C-258.503 61.0417 -230.439 -85.4392 -176.753 -197.779C-123.63 -311.412 -50.2729 -397.373 75.692 -441.086C126.711 -458.681 188.292 -467.922 264.162 -457.543C292.237 -453.833 323.75 -446.759 351.384 -431.951C379.024 -417.143 399.036 -397.073 417.746 -377.721C453.507 -341.022 488.408 -303.288 501.627 -263.696C518.859 -210.347 502.881 -154.63 523.342 -86.9783C536.826 -41.0265 563.992 -0.259431 585.729 46.4836C602.542 82.5069 590.358 105.34 582.785 132.988C563.753 201.394 538.779 260.631 506.912 303.378C466.489 358.24 414.838 388.169 360.602 414.658C296.554 446.366 228.653 476.33 154.518 508.372C79.4551 539.593 -1.83665 572.894 -114.075 592.332C-131.004 595.217 -152.358 596.464 -170.941 586.007C-184.7 578.279 -192.341 566.534 -199.22 555.508C-244.493 482.92 -282.069 405.832 -317.546 319.93C-328.693 293.076 -339.456 263.747 -337.113 237.537C-335.406 218.18 -327.079 202.791 -319.623 187.622Z" stroke="white" stroke-opacity="0.2" stroke-width="2.9079" stroke-miterlimit="10" stroke-linecap="round" stroke-linejoin="round" stroke-dasharray="0.03 13.8"/>
<path d="M-312.728 182.102C-255.793 55.7764 -228.079 -87.2507 -175.594 -197.154C-123.6 -308.33 -51.9261 -392.548 68.9375 -437.459C117.876 -455.509 176.701 -465.787 249.216 -457.119C276.056 -454.035 306.191 -447.726 332.88 -433.535C359.606 -419.324 379.27 -399.596 397.68 -380.562C432.818 -344.52 467.211 -307.382 481.006 -267.888C499.085 -214.627 485.237 -158.6 506.055 -91.6872C519.836 -46.1602 546.586 -6.02547 568.17 40.0728C584.86 75.6013 573.289 98.3316 566.161 125.698C548.281 193.268 524.078 251.413 492.988 293.308C453.548 347.039 402.958 376.238 349.979 402.194C287.413 433.253 221.272 462.786 149.741 494.967C77.346 526.384 -0.441041 560.451 -106.258 582.914C-122.228 586.26 -142.385 588.124 -160.331 578.088C-173.63 570.661 -181.282 558.983 -188.205 548.011C-233.686 475.934 -271.955 399.22 -308.053 313.976C-319.394 287.323 -330.396 258.205 -328.682 232.047C-327.436 212.711 -319.686 197.272 -312.728 182.102Z" stroke="white" stroke-opacity="0.2" stroke-width="3.0744" stroke-miterlimit="10" stroke-linecap="round" stroke-linejoin="round" stroke-dasharray="0.03 13.78"/>
<path d="M-306.022 176.415C-253.07 50.5218 -225.722 -89.0675 -174.438 -196.53C-123.573 -305.251 -53.5771 -387.721 62.3342 -433.699C109.251 -452.153 165.409 -463.385 234.68 -456.334C260.325 -453.842 289.126 -448.258 314.886 -434.663C340.72 -421.033 359.972 -401.643 378.137 -382.934C412.531 -347.543 446.513 -311.032 460.827 -271.685C479.674 -218.582 467.843 -162.347 488.965 -96.2202C503.005 -51.1496 529.327 -11.6584 550.736 33.7761C567.288 68.7958 556.307 91.4014 549.606 118.469C532.831 185.163 509.382 242.204 479.069 283.242C440.608 335.84 391.081 364.311 339.357 389.732C278.27 420.138 213.871 449.223 144.874 481.486C75.0719 513.034 0.674146 547.76 -98.997 573.007C-114.049 576.776 -133.062 579.214 -150.385 569.58C-163.24 562.443 -170.888 550.841 -177.842 539.938C-223.447 468.444 -262.306 392.2 -298.927 307.698C-310.431 281.27 -321.646 252.395 -320.516 226.326C-319.704 207.029 -312.504 191.563 -306.022 176.415Z" stroke="white" stroke-opacity="0.2" stroke-width="3.2409" stroke-miterlimit="10" stroke-linecap="round" stroke-linejoin="round" stroke-dasharray="0.03 13.75"/>
<path d="M-299.503 170.562C-250.337 45.2792 -223.367 -90.8853 -173.284 -195.908C-123.562 -302.186 -55.3834 -383.179 55.8744 -429.811C100.779 -448.722 154.41 -460.725 220.535 -455.2C245.025 -453.265 272.535 -448.369 297.392 -435.351C322.357 -422.282 341.252 -403.24 359.103 -384.858C392.851 -350.138 426.295 -314.258 441.075 -275.107C460.613 -222.232 450.685 -165.884 472.06 -100.589C486.33 -56.0068 512.209 -17.1698 533.419 27.5834C549.82 62.0787 539.407 84.5393 533.112 111.296C517.394 177.073 494.692 232.996 465.145 273.174C427.658 324.63 379.199 352.382 328.728 377.262C269.11 407.01 206.437 435.634 139.911 467.918C72.638 499.541 1.50946 534.824 -92.2852 562.617C-106.459 566.773 -124.378 569.741 -141.097 560.496C-153.516 553.64 -161.152 542.119 -168.131 531.296C-213.775 460.457 -253.122 384.774 -290.171 301.096C-301.81 274.923 -313.201 246.316 -312.62 220.371C-312.212 201.14 -305.53 185.669 -299.503 170.562Z" stroke="white" stroke-opacity="0.2" stroke-width="3.4074" stroke-miterlimit="10" stroke-linecap="round" stroke-linejoin="round" stroke-dasharray="0.03 13.73"/>
<path d="M-293.16 164.554C-247.59 40.0472 -221.01 -92.7042 -172.125 -195.281C-123.534 -299.105 -57.0391 -378.359 49.5602 -425.79C92.5583 -445.007 143.699 -457.807 206.786 -453.715C230.156 -452.304 256.418 -448.057 280.396 -435.598C304.511 -423.072 323.043 -404.383 340.578 -386.331C373.672 -352.291 406.56 -317.056 421.752 -278.145C441.904 -225.564 433.773 -169.201 455.351 -104.786C469.809 -60.7219 495.236 -22.5483 516.227 21.5025C532.457 55.4629 522.59 77.758 516.687 104.185C501.982 169.003 480.011 223.802 451.23 263.116C414.71 313.429 367.328 340.463 318.101 364.799C259.949 393.884 198.988 422.031 134.867 454.281C70.054 485.918 2.084 521.659 -86.0991 551.763C-99.4292 556.276 -116.305 559.726 -132.435 550.857C-144.432 544.27 -152.049 532.845 -159.032 522.107C-204.645 451.993 -244.381 376.956 -281.765 294.186C-293.511 268.288 -305.044 239.982 -304.978 214.193C-304.942 195.052 -298.756 179.598 -293.16 164.554Z" stroke="white" stroke-opacity="0.2" stroke-width="3.5738" stroke-miterlimit="10" stroke-linecap="round" stroke-linejoin="round" stroke-dasharray="0.03 13.7"/>
<path d="M-286.991 158.39C-244.832 34.8237 -218.655 -94.523 -170.967 -194.658C-123.505 -296.028 -58.6904 -373.543 43.3872 -421.652C84.5351 -441.125 133.268 -454.647 193.422 -451.897C215.711 -450.978 240.765 -447.343 263.881 -435.424C287.164 -423.422 305.334 -405.088 322.547 -387.373C354.978 -354.021 387.292 -319.444 402.844 -280.824C423.536 -228.601 417.098 -172.319 438.829 -108.82C453.442 -65.3048 478.406 -27.8064 499.159 15.5244C515.203 48.9338 505.859 71.0445 500.332 97.1291C486.592 160.949 465.343 214.612 437.321 253.054C401.768 302.221 355.464 328.541 307.477 352.331C250.788 380.75 191.518 408.404 129.742 440.564C67.3209 472.156 2.39451 508.254 -80.4279 540.448C-92.9589 545.28 -108.836 549.174 -124.395 540.664C-135.979 534.338 -143.566 523.014 -150.546 512.373C-196.046 443.051 -236.072 368.749 -273.702 286.965C-285.525 261.371 -297.175 233.389 -297.58 207.79C-297.898 188.762 -292.181 173.353 -286.991 158.39Z" stroke="white" stroke-opacity="0.2" stroke-width="3.7403" stroke-miterlimit="10" stroke-linecap="round" stroke-linejoin="round" stroke-dasharray="0.03 13.67"/>
<path d="M-280.994 152.075C-242.059 29.6131 -216.307 -96.3474 -169.809 -194.031C-123.48 -292.948 -60.3415 -368.72 37.3503 -417.388C76.7011 -437.068 123.106 -451.24 180.425 -449.745C201.671 -449.285 225.555 -446.228 247.829 -434.834C270.301 -423.34 288.105 -405.363 304.989 -387.986C336.746 -355.332 368.475 -321.427 384.337 -283.141C405.496 -231.344 400.645 -175.231 422.481 -112.697C437.217 -69.7601 461.704 -32.9476 482.2 9.64776C498.043 42.4921 489.201 64.4 484.031 90.1259C471.216 152.91 450.673 205.425 423.406 242.994C388.813 291.008 343.593 316.622 296.844 339.859C241.61 367.607 184.019 394.757 124.524 426.774C64.4385 458.267 2.45044 494.629 -75.2617 528.688C-87.0295 533.808 -101.953 538.103 -116.954 529.941C-128.139 523.865 -135.682 512.65 -142.653 502.117C-187.967 433.654 -228.184 360.169 -265.976 279.45C-277.853 254.182 -289.586 226.549 -290.426 201.175C-291.063 182.285 -285.798 166.94 -280.994 152.075Z" stroke="white" stroke-opacity="0.2" stroke-width="3.9068" stroke-miterlimit="10" stroke-linecap="round" stroke-linejoin="round" stroke-dasharray="0.03 13.65"/>
<path d="M-275.16 145.615C-239.278 24.4108 -213.957 -98.1704 -168.653 -193.408C-123.453 -289.872 -61.9869 -363.898 31.447 -413.007C69.0583 -432.844 113.219 -447.596 167.797 -447.271C188.034 -447.237 210.792 -444.722 232.243 -433.833C253.925 -422.831 271.355 -405.216 287.911 -388.181C318.983 -356.233 350.109 -323.014 366.229 -285.107C387.784 -233.798 384.418 -177.943 406.31 -116.415C421.138 -74.0863 445.136 -37.968 465.353 3.87153C480.982 36.1402 472.622 57.8229 467.792 83.1789C455.859 144.886 436.012 196.246 409.499 232.94C375.857 279.796 331.728 304.706 286.211 327.387C232.431 354.462 176.501 381.094 119.232 412.915C61.417 444.255 2.26286 480.786 -70.5832 516.496C-81.622 521.872 -95.6362 526.528 -110.097 518.701C-120.891 512.867 -128.383 501.77 -135.331 491.353C-180.384 423.813 -220.708 351.23 -258.568 271.65C-270.472 246.732 -282.259 219.476 -283.503 194.354C-284.445 175.621 -279.598 160.361 -275.16 145.615Z" stroke="white" stroke-opacity="0.2" stroke-width="4.0733" stroke-miterlimit="10" stroke-linecap="round" stroke-linejoin="round" stroke-dasharray="0.03 13.62"/>
<path d="M-269.486 139.013C-236.484 19.2206 -211.607 -99.9967 -167.494 -192.782C-123.429 -286.792 -63.6301 -359.071 25.6789 -408.506C61.6031 -428.458 103.595 -443.72 155.526 -444.479C174.787 -444.844 196.458 -442.835 217.106 -432.437C238.013 -421.908 255.07 -404.657 271.288 -387.973C301.67 -356.737 332.178 -324.217 348.51 -286.729C370.39 -235.97 368.41 -180.463 390.313 -119.982C405.197 -78.2873 428.7 -42.8751 448.619 -1.80685C464.022 29.8735 456.118 51.3155 451.615 76.2847C440.519 136.88 421.359 187.074 395.59 222.886C362.897 268.582 319.863 292.792 275.575 314.915C223.243 341.311 168.96 367.41 113.86 398.987C58.2548 430.12 1.83286 466.733 -66.3816 503.887C-76.725 509.486 -89.8834 514.468 -103.814 506.96C-114.227 501.357 -121.659 490.387 -128.576 480.095C-173.296 413.542 -213.634 341.938 -251.487 263.57C-263.388 239.024 -275.204 212.172 -276.815 187.333C-278.028 168.777 -273.577 153.624 -269.486 139.013Z" stroke="white" stroke-opacity="0.2" stroke-width="4.2397" stroke-miterlimit="10" stroke-linecap="round" stroke-linejoin="round" stroke-dasharray="0.03 13.59"/>
<path d="M-263.968 132.275C-233.677 14.0408 -209.263 -101.822 -166.334 -192.155C-123.401 -283.714 -65.2683 -354.238 20.0412 -403.891C54.3296 -423.908 94.2276 -439.612 143.608 -441.376C161.93 -442.104 182.546 -440.573 202.412 -430.645C222.564 -420.575 239.243 -403.691 255.12 -387.358C284.802 -356.844 314.678 -325.035 331.171 -288.013C353.312 -237.86 352.62 -182.788 374.489 -123.396C389.398 -82.3638 412.391 -47.6656 431.996 -7.38554C447.151 23.6917 439.69 44.8749 435.496 69.4452C425.196 128.89 406.713 177.909 381.688 212.837C349.941 257.366 308.004 280.882 264.941 302.44C214.053 328.155 161.403 353.708 108.414 384.991C54.964 415.867 1.17309 452.47 -62.637 490.866C-72.3186 496.66 -84.6564 501.924 -98.0764 494.727C-108.12 489.346 -115.483 478.51 -122.356 468.353C-166.682 402.847 -206.943 332.302 -244.706 255.215C-256.582 231.064 -268.398 204.638 -270.343 180.111C-271.809 161.759 -267.733 146.731 -263.968 132.275Z" stroke="white" stroke-opacity="0.2" stroke-width="4.4062" stroke-miterlimit="10" stroke-linecap="round" stroke-linejoin="round" stroke-dasharray="0.03 13.57"/>
<path d="M-258.601 125.403C-230.86 8.87056 -206.918 -103.652 -165.179 -191.531C-123.379 -280.639 -66.9068 -349.405 14.527 -399.166C47.2296 -419.206 85.1101 -435.288 132.028 -437.971C149.443 -439.04 169.045 -437.95 188.148 -428.477C207.563 -418.85 223.858 -402.336 239.388 -386.361C268.362 -356.575 297.591 -325.489 314.199 -288.972C336.531 -239.487 337.035 -184.933 358.826 -126.666C373.733 -86.3254 396.207 -52.3495 415.476 -12.8759C430.374 17.5891 423.33 38.4936 419.435 62.6526C409.89 120.91 392.072 168.746 367.784 202.785C336.977 246.145 296.145 268.97 254.302 289.962C204.853 314.991 153.824 339.989 102.891 370.93C51.5392 401.497 0.287149 438.009 -59.3459 477.448C-68.4033 483.408 -79.9622 488.921 -92.8795 482.021C-102.566 476.853 -109.85 466.158 -116.671 456.145C-160.528 391.745 -200.629 322.332 -238.223 246.6C-250.05 222.865 -261.841 196.886 -264.087 172.703C-265.781 154.571 -262.055 139.691 -258.601 125.403Z" stroke="white" stroke-opacity="0.2" stroke-width="4.5727" stroke-miterlimit="10" stroke-linecap="round" stroke-linejoin="round" stroke-dasharray="0.03 13.54"/>
<path d="M-253.375 118.404C-228.03 3.7105 -204.575 -105.482 -164.019 -190.906C-123.351 -277.56 -68.5358 -344.57 9.13879 -394.329C40.3029 -414.347 76.2427 -430.74 120.785 -434.27C137.325 -435.646 155.947 -434.97 174.303 -425.936C192.996 -416.737 208.908 -400.597 224.089 -384.98C252.343 -355.931 280.915 -325.582 297.592 -289.611C320.055 -240.85 321.66 -186.894 343.329 -129.79C358.202 -90.1665 380.145 -56.9229 399.063 -18.2698C413.691 11.5683 407.047 32.1801 403.43 55.9115C394.603 112.952 377.439 159.59 353.886 192.74C324.014 234.926 284.288 257.063 243.662 277.486C195.654 301.828 146.229 326.256 97.3035 356.809C47.9932 387.022 -0.814615 423.359 -56.4839 463.65C-64.9477 469.747 -75.7683 475.473 -88.1983 468.856C-97.5333 463.893 -104.732 453.35 -111.492 443.487C-154.819 380.252 -194.674 312.043 -232.025 237.73C-243.781 214.43 -255.518 188.926 -258.035 165.112C-259.937 147.219 -256.542 132.506 -253.375 118.404Z" stroke="white" stroke-opacity="0.2" stroke-width="4.7392" stroke-miterlimit="10" stroke-linecap="round" stroke-linejoin="round" stroke-dasharray="0.03 13.51"/>
<path d="M-248.291 111.28C-225.189 -1.43972 -202.233 -107.315 -162.863 -190.282C-123.326 -274.481 -70.1674 -339.732 3.86995 -389.387C33.5466 -409.342 67.6124 -425.984 109.867 -430.285C125.562 -431.943 143.241 -431.645 160.865 -423.035C178.855 -414.249 194.378 -398.483 209.203 -383.232C236.734 -354.924 264.629 -325.325 281.335 -289.938C303.861 -241.958 306.479 -188.677 327.987 -132.778C342.796 -93.895 364.2 -61.3947 382.745 -23.5777C397.091 5.62362 390.828 25.9236 387.479 49.2169C379.33 105.002 362.811 150.439 339.988 182.692C311.046 223.702 272.434 245.155 233.02 265.006C137.647 310.34 47.5571 365.592 -54.0447 449.477C-61.9456 455.685 -72.0684 461.587 -84.0252 455.244C-93.0195 450.478 -100.125 440.092 -106.812 430.389C-149.541 368.373 -189.079 301.44 -226.111 228.613C-237.771 205.769 -249.43 180.76 -252.186 157.343C-254.271 139.712 -251.188 125.18 -248.291 111.28Z" stroke="white" stroke-opacity="0.2" stroke-width="4.9056" stroke-miterlimit="10" stroke-linecap="round" stroke-linejoin="round" stroke-dasharray="0.03 13.49"/>
<path d="M-243.342 104.038C-222.337 -6.57803 -199.897 -109.147 -161.705 -189.657C-123.304 -271.408 -71.7933 -334.891 -1.28075 -384.341C26.9556 -404.188 59.2177 -421.02 99.2659 -426.016C114.149 -427.927 130.919 -427.978 147.828 -419.778C165.131 -411.391 180.265 -396.003 194.73 -381.121C221.527 -353.565 248.738 -324.724 265.425 -289.959C287.956 -242.812 291.498 -190.288 312.799 -135.628C327.514 -97.5125 348.368 -65.7635 366.529 -28.7965C380.575 -0.243934 374.676 19.7283 371.578 42.5701C364.071 97.0701 348.187 141.294 326.091 172.649C298.075 212.477 260.577 233.254 222.375 252.527C130.067 296.656 42.6886 350.268 -52.0155 434.946C-59.384 441.235 -68.8452 447.282 -80.3411 441.202C-89.0023 436.627 -96.008 426.404 -102.613 416.868C-144.689 356.127 -183.826 290.537 -220.469 219.258C-232.013 196.89 -243.569 172.396 -246.536 149.402C-248.78 132.05 -245.983 117.721 -243.342 104.038Z" stroke="white" stroke-opacity="0.2" stroke-width="5.0721" stroke-miterlimit="10" stroke-linecap="round" stroke-linejoin="round" stroke-dasharray="0.03 13.46"/>
<path d="M-238.526 96.6792C-219.476 -11.7074 -197.558 -110.981 -160.549 -189.031C-123.282 -268.329 -73.4158 -330.044 -6.31323 -379.19C20.527 -398.892 51.0523 -415.853 88.9772 -421.471C103.076 -423.611 118.97 -423.981 135.183 -416.179C151.814 -408.174 166.555 -393.168 180.656 -378.658C206.712 -351.859 233.226 -323.789 249.853 -289.686C272.325 -243.427 276.71 -191.731 297.765 -138.344C312.36 -101.021 332.657 -70.0297 350.411 -33.9331C364.151 -6.0385 358.596 13.5911 355.734 35.9688C348.83 89.1467 333.57 132.15 312.199 162.605C285.105 201.249 248.732 221.349 211.735 240.044C122.475 282.949 37.8137 334.926 -50.3724 420.065C-57.2381 426.412 -66.0745 432.568 -77.1213 426.741C-85.4572 422.346 -92.3529 412.295 -98.8698 402.935C-140.229 343.521 -178.894 279.341 -215.079 209.67C-226.483 187.797 -237.916 163.842 -241.064 141.293C-243.453 124.239 -240.929 110.13 -238.526 96.6792Z" stroke="white" stroke-opacity="0.2" stroke-width="5.2386" stroke-miterlimit="10" stroke-linecap="round" stroke-linejoin="round" stroke-dasharray="0.03 13.43"/>
<path d="M-233.833 89.2093C-216.6 -16.8273 -195.22 -112.818 -159.391 -188.407C-123.257 -265.255 -75.0348 -325.196 -11.238 -373.942C14.2508 -393.458 43.1065 -410.486 78.988 -416.662C92.3329 -419.002 107.381 -419.665 122.912 -412.242C138.89 -404.609 153.232 -389.987 166.966 -375.853C192.275 -349.817 218.074 -322.531 234.602 -289.122C256.961 -243.799 262.102 -193.009 282.875 -140.932C297.324 -104.426 317.05 -74.2014 334.385 -38.9837C347.802 -11.7604 342.574 7.50835 339.939 29.4134C333.606 81.2398 318.961 123.017 298.306 152.564C272.133 190.02 236.881 209.447 201.088 227.562C114.856 269.227 32.9195 319.578 -49.1132 404.851C-55.5019 411.229 -63.7514 417.467 -74.3591 411.882C-82.3842 407.662 -89.1577 397.789 -95.5779 388.608C-136.163 330.574 -174.284 267.865 -209.945 199.863C-221.191 178.503 -232.474 155.104 -235.777 133.029C-238.289 116.287 -236.014 102.416 -233.833 89.2093Z" stroke="white" stroke-opacity="0.2" stroke-width="5.405" stroke-miterlimit="10" stroke-linecap="round" stroke-linejoin="round" stroke-dasharray="0.03 13.41"/>
<path d="M-229.26 81.634C-213.711 -21.9345 -192.884 -114.653 -158.233 -187.78C-123.233 -262.18 -76.6517 -320.342 -16.0505 -368.595C8.13345 -387.884 35.3791 -404.93 69.2904 -411.592C81.912 -414.111 96.1455 -415.035 111.013 -407.979C126.346 -400.702 140.293 -386.468 153.654 -372.711C178.205 -347.447 203.282 -320.951 219.67 -288.274C241.86 -243.94 247.675 -194.125 268.128 -143.39C282.405 -107.723 301.55 -78.2754 318.45 -43.9527C331.533 -17.4098 326.615 1.48463 324.19 22.9024C318.391 73.3497 304.352 113.886 284.413 142.527C259.153 178.791 225.03 197.547 190.439 215.079C107.216 255.489 28.0083 304.218 -48.2215 389.311C-54.1638 395.7 -61.8605 401.984 -72.0386 396.633C-79.7555 392.58 -86.4054 382.891 -92.7206 373.901C-132.479 317.294 -169.984 256.12 -205.057 189.842C-216.124 169.012 -227.238 146.19 -230.669 124.611C-233.277 108.199 -231.232 94.5818 -229.26 81.634Z" stroke="white" stroke-opacity="0.2" stroke-width="5.5715" stroke-miterlimit="10" stroke-linecap="round" stroke-linejoin="round" stroke-dasharray="0.03 13.38"/>
<path d="M-224.802 73.9569C-210.816 -27.0338 -190.551 -116.49 -157.076 -187.156C-123.214 -259.104 -78.2614 -315.487 -20.7557 -363.154C2.16107 -382.182 27.8643 -399.186 59.8825 -406.267C71.8033 -408.939 85.2568 -410.1 99.4718 -403.398C114.181 -396.466 127.723 -382.62 140.71 -369.246C164.501 -344.758 188.841 -319.065 205.051 -287.152C227.016 -243.855 233.431 -195.083 253.523 -145.724C267.6 -110.919 286.16 -82.255 302.606 -48.8428C315.347 -22.9901 310.719 -4.48749 308.496 16.4345C303.201 65.4691 289.756 104.762 270.528 132.489C246.177 167.557 213.187 185.65 179.797 202.595C99.5669 241.735 23.0975 288.849 -47.6738 373.463C-53.1933 379.835 -60.3662 386.139 -70.1305 381.012C-77.5467 377.118 -84.0655 367.621 -90.2663 358.828C-129.144 303.696 -165.966 244.114 -200.391 179.615C-211.258 159.331 -222.18 137.107 -225.715 116.045C-228.416 99.9795 -226.585 86.6315 -224.802 73.9569Z" stroke="white" stroke-opacity="0.2" stroke-width="5.738" stroke-miterlimit="10" stroke-linecap="round" stroke-linejoin="round" stroke-dasharray="0.03 13.36"/>
<path d="M-220.454 66.1828C-207.907 -32.1212 -188.217 -118.329 -155.916 -186.531C-123.188 -256.031 -79.8666 -310.627 -25.354 -357.621C-3.66139 -376.35 20.5565 -393.26 50.7523 -400.697C62.0023 -403.497 74.6989 -404.869 88.2808 -398.511C102.379 -391.909 115.516 -378.455 128.124 -365.467C151.142 -341.76 174.737 -316.881 190.732 -285.766C212.422 -243.553 219.356 -195.89 239.053 -147.94C252.907 -114.02 270.87 -86.1447 286.85 -53.6549C299.233 -28.5037 294.885 -10.4034 292.847 10.008C288.019 57.6038 275.162 95.642 256.643 122.456C233.197 156.324 201.347 173.754 169.148 190.111C91.8947 227.964 18.1689 273.47 -47.4695 357.314C-52.5927 363.649 -59.2769 369.945 -68.6334 365.03C-75.7595 361.293 -82.1371 351.992 -88.2194 343.401C-126.164 289.79 -162.238 231.857 -195.954 169.19C-206.606 149.471 -217.317 127.858 -220.927 107.337C-223.694 91.6339 -222.06 78.5708 -220.454 66.1828Z" stroke="white" stroke-opacity="0.2" stroke-width="5.9045" stroke-miterlimit="10" stroke-linecap="round" stroke-linejoin="round" stroke-dasharray="0.03 13.33"/>
<path d="M-216.213 58.3131C-204.99 -37.2001 -185.886 -120.168 -154.758 -185.905C-123.167 -252.955 -81.4701 -305.765 -29.8522 -351.997C-9.34372 -370.392 13.4471 -387.157 41.8935 -394.889C52.4968 -397.795 64.4687 -399.353 77.4283 -393.323C90.9278 -387.043 103.656 -373.982 115.88 -361.382C138.124 -338.466 160.961 -314.407 176.702 -284.124C198.06 -243.038 205.443 -196.551 224.714 -150.04C238.32 -117.024 255.678 -89.9499 271.175 -58.3952C283.192 -33.9554 279.104 -16.2736 277.24 3.61951C272.852 49.7477 260.572 86.526 242.759 112.421C220.217 145.087 189.502 161.859 158.5 177.624C84.207 214.177 13.232 258.083 -47.5857 340.878C-52.3397 347.152 -58.5641 353.416 -67.5239 348.706C-74.3653 345.113 -80.5971 336.016 -86.5497 327.635C-123.511 275.59 -158.778 219.361 -191.727 158.576C-202.144 139.436 -212.624 118.454 -216.288 98.4937C-219.108 83.1702 -217.654 70.4055 -216.213 58.3131Z" stroke="white" stroke-opacity="0.2" stroke-width="6.071" stroke-miterlimit="10" stroke-linecap="round" stroke-linejoin="round" stroke-dasharray="0.03 13.3"/>
<path d="M-212.071 50.3579C-202.056 -42.2696 -183.555 -122.009 -153.601 -185.279C-123.147 -249.88 -83.0683 -300.898 -34.255 -346.287C-14.89 -364.314 6.52927 -380.884 33.2916 -388.85C43.2764 -391.84 54.5504 -393.559 66.903 -387.845C79.8177 -381.87 92.134 -369.205 103.972 -356.999C125.434 -334.878 147.502 -311.651 162.959 -282.229C183.938 -242.315 191.7 -197.068 210.506 -152.026C223.84 -119.935 240.585 -93.6684 255.589 -63.0615C267.228 -39.3393 263.383 -22.0909 261.683 -2.72792C257.703 41.9067 245.993 77.4161 228.88 102.392C207.237 133.851 177.666 149.966 147.852 165.139C76.5066 200.379 8.29091 242.689 -48.011 324.17C-52.4164 330.363 -58.2123 336.566 -66.7842 332.053C-73.3491 328.603 -79.4279 319.714 -85.2467 311.548C-121.18 261.109 -155.575 206.639 -187.705 147.784C-197.872 129.237 -208.103 108.901 -211.799 89.523C-214.65 74.5915 -213.364 62.1378 -212.071 50.3579Z" stroke="white" stroke-opacity="0.2" stroke-width="6.2374" stroke-miterlimit="10" stroke-linecap="round" stroke-linejoin="round" stroke-dasharray="0.03 13.28"/>
<path d="M-208.026 42.3149C-199.116 -47.3298 -181.225 -123.85 -152.443 -184.655C-123.126 -246.81 -84.6634 -296.027 -38.5594 -340.492C-20.3032 -358.12 -0.197808 -374.445 24.9464 -382.586C34.3311 -385.641 44.9359 -387.496 56.6938 -382.088C69.0366 -376.41 80.9409 -364.145 92.3893 -352.333C113.062 -331.012 134.35 -308.626 149.486 -280.093C170.039 -241.395 178.106 -197.444 196.417 -153.904C209.458 -122.757 225.581 -97.3052 240.074 -67.6595C251.324 -44.6676 247.713 -27.863 246.164 -9.04082C242.562 34.0742 231.411 68.3069 214.997 92.3578C194.249 122.608 165.823 138.07 137.201 152.649C68.7866 186.565 3.33694 227.282 -48.7395 307.192C-52.8158 313.287 -58.2116 319.402 -66.4074 315.079C-72.7022 311.764 -78.6186 303.091 -84.2947 295.148C-119.154 246.355 -152.624 193.692 -183.88 136.814C-193.78 118.876 -203.741 99.2033 -207.45 80.4244C-210.319 65.9018 -209.181 53.7768 -208.026 42.3149Z" stroke="white" stroke-opacity="0.2" stroke-width="6.4039" stroke-miterlimit="10" stroke-linecap="round" stroke-linejoin="round" stroke-dasharray="0.03 13.25"/>
<path d="M-204.07 34.1938C-196.163 -52.3804 -178.898 -125.693 -151.287 -184.031C-123.107 -243.736 -86.254 -291.152 -42.7726 -334.614C-25.5898 -351.809 -6.74591 -367.842 16.8456 -376.103C25.6578 -379.2 35.6174 -381.17 46.7918 -376.055C58.5751 -370.664 70.0614 -358.799 81.117 -347.385C100.995 -326.87 121.497 -305.333 136.277 -277.722C156.356 -240.282 164.665 -197.687 182.45 -155.672C195.175 -125.492 210.666 -100.859 224.638 -72.1872C235.491 -49.932 232.094 -33.5875 230.685 -15.3117C227.433 26.2556 216.835 59.2046 201.116 82.3294C181.259 111.368 153.984 126.181 126.548 140.163C61.0519 172.742 -1.62591 211.877 -49.7496 289.972C-53.5215 295.949 -58.5416 301.952 -66.3702 297.811C-72.399 294.626 -78.152 286.174 -83.6796 278.455C-117.419 231.35 -149.912 180.541 -180.244 125.684C-189.863 108.369 -199.538 89.3745 -203.233 71.214C-206.103 57.1115 -205.099 45.3228 -204.07 34.1938Z" stroke="white" stroke-opacity="0.2" stroke-width="6.5704" stroke-miterlimit="10" stroke-linecap="round" stroke-linejoin="round" stroke-dasharray="0.03 13.22"/>
<path d="M-200.199 25.9969C-193.199 -57.4209 -176.569 -127.536 -150.127 -183.403C-123.084 -240.662 -87.8369 -286.274 -46.891 -328.654C-30.7457 -345.385 -13.1138 -361.082 8.98323 -369.409C17.2459 -372.529 26.583 -374.589 37.1904 -369.757C48.4277 -364.641 59.4949 -353.18 70.1557 -342.167C89.2304 -322.465 108.933 -301.784 123.33 -275.12C142.894 -238.975 151.377 -197.795 168.603 -157.335C180.99 -128.139 195.845 -104.333 209.278 -76.6481C219.724 -55.1386 216.53 -39.2646 215.252 -21.5472C212.322 18.4498 202.268 50.1094 187.241 72.3039C168.271 100.127 142.15 114.292 115.897 127.676C53.3091 158.907 -6.59096 196.465 -51.0269 272.512C-54.5173 278.352 -59.1878 284.221 -66.6545 280.255C-72.4246 277.192 -78.0039 268.967 -83.3771 261.483C-115.956 216.101 -147.418 167.192 -176.777 114.399C-186.097 97.7192 -195.472 79.4178 -199.137 61.8932C-201.999 48.22 -201.118 36.7831 -200.199 25.9969Z" stroke="white" stroke-opacity="0.2" stroke-width="6.7368" stroke-miterlimit="10" stroke-linecap="round" stroke-linejoin="round" stroke-dasharray="0.03 13.2"/>
<path d="M-196.409 17.7276C-190.23 -62.4516 -174.243 -129.378 -148.971 -182.78C-123.067 -237.59 -89.4195 -281.393 -50.9261 -322.621C-35.7818 -338.856 -19.3138 -354.175 1.35239 -362.514C9.08205 -365.637 17.8277 -367.767 27.8746 -363.21C38.5754 -358.357 49.2228 -347.302 59.4831 -336.693C77.752 -317.805 96.6473 -297.991 110.628 -272.304C129.629 -237.492 138.228 -197.781 154.867 -158.903C166.896 -130.708 181.107 -107.738 193.992 -81.047C204.019 -60.2911 201.014 -44.9017 199.857 -27.7518C197.223 10.6519 187.703 41.0136 173.365 62.2778C155.281 88.8823 130.313 102.402 105.245 115.187C45.5492 145.06 -11.563 181.048 -52.5586 254.824C-55.7828 260.51 -60.1315 266.222 -67.2439 262.425C-72.7586 259.482 -78.1631 251.487 -83.3754 244.241C-114.755 200.621 -145.135 153.653 -173.478 102.964C-182.487 86.9305 -191.544 69.3354 -195.162 52.4636C-198 39.2372 -197.226 28.162 -196.409 17.7276Z" stroke="white" stroke-opacity="0.2" stroke-width="6.9033" stroke-miterlimit="10" stroke-linecap="round" stroke-linejoin="round" stroke-dasharray="0.03 13.17"/>
<path d="M-192.696 9.39246C-187.247 -67.473 -171.915 -131.225 -147.812 -182.152C-123.046 -234.515 -90.9969 -276.503 -54.8747 -316.51C-40.6996 -332.222 -25.3458 -347.118 -6.05861 -355.421C1.16333 -358.529 9.33575 -360.709 18.8374 -356.414C29.0123 -351.815 39.2382 -341.166 49.0951 -330.964C66.5511 -312.899 84.6311 -293.957 98.1657 -269.27C116.565 -235.83 125.216 -197.638 141.24 -160.367C152.89 -133.192 166.449 -111.059 178.774 -85.379C188.375 -65.3829 185.546 -50.4915 184.497 -33.9168C182.137 2.87227 173.143 31.9264 159.491 52.2561C142.286 77.6397 118.476 90.5169 94.5935 102.703C37.7819 131.205 -16.5397 165.63 -54.3345 236.926C-57.3132 242.442 -61.3604 247.978 -68.1279 244.343C-73.3956 241.511 -78.616 233.758 -83.6639 226.752C-113.804 184.926 -143.059 139.941 -170.341 91.3937C-179.025 76.0189 -187.751 59.1441 -191.302 42.9413C-194.099 30.1667 -193.42 19.4658 -192.696 9.39246Z" stroke="white" stroke-opacity="0.2" stroke-width="7.0698" stroke-miterlimit="10" stroke-linecap="round" stroke-linejoin="round" stroke-dasharray="0.03 13.14"/>
<path d="M-189.053 0.994373C-184.251 -72.4848 -169.59 -133.068 -146.654 -181.527C-123.028 -231.443 -92.5658 -271.611 -58.7418 -310.326C-45.5064 -325.487 -31.221 -339.922 -13.2552 -348.14C-6.52327 -351.215 1.1001 -353.425 10.0636 -349.384C19.7273 -345.03 29.5252 -334.792 38.9769 -324.997C55.6182 -307.76 72.8728 -289.697 85.9339 -266.037C103.69 -234.003 112.339 -197.381 127.719 -161.745C138.974 -135.603 151.873 -114.318 163.623 -89.6572C172.789 -70.4308 170.123 -56.0444 169.175 -40.0547C167.058 -4.90615 158.632 22.9071 145.619 42.2313C129.342 66.4788 106.645 78.6274 83.9425 90.213C30.0016 117.338 -21.5221 150.203 -56.3364 218.821C-59.0872 224.151 -62.8561 229.492 -69.2823 226.012C-74.31 223.293 -79.3398 215.776 -84.2173 209.02C-113.084 169.018 -141.169 126.058 -167.35 79.6875C-175.697 64.9847 -184.076 48.8393 -187.543 33.3202C-190.29 21.0129 -189.698 10.6983 -189.053 0.994373Z" stroke="white" stroke-opacity="0.2" stroke-width="7.2363" stroke-miterlimit="10" stroke-linecap="round" stroke-linejoin="round" stroke-dasharray="0.03 13.12"/>
<path d="M-185.476 -7.46324C-181.247 -77.4908 -167.265 -134.915 -145.495 -180.903C-123.01 -228.374 -94.134 -266.717 -62.5286 -304.075C-50.203 -318.658 -36.9389 -332.592 -20.2472 -340.679C-13.983 -343.702 -6.88925 -345.924 1.5514 -342.129C10.708 -338.01 20.0804 -328.184 29.125 -318.801C44.9381 -302.395 61.338 -285.197 73.9249 -262.609C90.9663 -231.982 99.5923 -197.01 114.304 -163.031C125.144 -137.942 137.375 -117.511 148.544 -93.8775C157.266 -75.4292 154.751 -61.559 153.893 -46.1635C152.002 -12.6731 144.081 13.8261 131.752 32.2067C116.353 55.2276 94.8176 66.7389 73.2941 77.7201C22.2156 103.459 -26.5033 134.771 -58.5515 200.525C-61.0885 205.658 -64.5997 210.779 -70.6957 207.451C-75.484 204.837 -80.3219 197.567 -85.0209 191.062C-112.582 152.918 -139.451 112.014 -164.495 67.8564C-172.493 53.8341 -180.51 38.4336 -183.879 23.6123C-186.568 11.7849 -186.048 1.86207 -185.476 -7.46324Z" stroke="white" stroke-opacity="0.2" stroke-width="7.4027" stroke-miterlimit="10" stroke-linecap="round" stroke-linejoin="round" stroke-dasharray="0.03 13.09"/>
<path d="M-181.961 -15.9727C-178.234 -82.484 -164.94 -136.759 -144.34 -180.277C-122.992 -225.303 -95.6954 -261.815 -66.2428 -297.756C-54.7945 -311.735 -42.5161 -325.13 -27.041 -333.042C-21.2297 -335.999 -14.6432 -338.212 -6.71952 -334.652C1.94408 -330.762 10.8862 -321.347 19.5185 -312.378C34.5081 -296.809 50.0651 -280.502 62.126 -258.989C78.4522 -229.832 86.9654 -196.525 100.983 -164.227C111.389 -140.203 122.948 -120.63 133.52 -98.0387C141.792 -80.3713 139.415 -67.0322 138.64 -52.2358C136.947 -20.4253 129.537 4.75012 117.882 22.1898C103.356 43.9841 82.9872 54.8567 62.6407 65.2342C14.4152 89.5798 -31.4905 119.344 -60.971 182.057C-63.3137 186.976 -66.586 191.864 -72.353 188.681C-76.9066 186.168 -81.5457 179.149 -86.0649 172.902C-112.284 136.643 -137.862 97.7814 -161.773 55.9178C-169.397 42.569 -177.058 27.9394 -180.309 13.83C-182.927 2.48455 -182.468 -7.03234 -181.961 -15.9727Z" stroke="white" stroke-opacity="0.2" stroke-width="7.5692" stroke-miterlimit="10" stroke-linecap="round" stroke-linejoin="round" stroke-dasharray="0.03 13.06"/>
<path d="M-178.5 -24.5315C-175.21 -87.4681 -162.616 -138.606 -143.18 -179.651C-122.973 -222.231 -97.253 -256.91 -69.8784 -291.367C-59.2809 -304.716 -47.945 -317.539 -33.6445 -325.232C-28.265 -328.11 -22.1681 -330.297 -14.7502 -326.965C-6.56952 -323.294 1.94046 -314.295 10.1581 -305.74C24.3149 -291.01 39.0248 -275.602 50.5344 -255.187C66.1066 -227.532 74.4588 -195.933 87.7575 -165.34C97.7136 -142.397 108.593 -123.689 118.558 -102.146C126.368 -85.2677 124.122 -72.4673 123.418 -58.2792C121.907 -28.1669 114.993 -4.32089 104.015 12.1737C90.3559 32.7344 71.1554 42.9752 51.9882 52.7483C6.60919 75.6914 -36.4792 103.918 -63.5746 163.426C-65.7365 168.119 -68.7899 172.756 -74.2356 169.713C-78.5634 167.297 -82.9953 160.534 -87.3289 154.545C-112.18 120.201 -136.468 83.4601 -159.169 43.8709C-166.424 31.223 -173.698 17.3572 -176.824 3.97091C-179.359 -6.88126 -178.954 -15.9845 -178.5 -24.5315Z" stroke="white" stroke-opacity="0.2" stroke-width="7.7357" stroke-miterlimit="10" stroke-linecap="round" stroke-linejoin="round" stroke-dasharray="0.03 13.04"/>
<path d="M-175.091 -33.1378C-172.176 -92.447 -160.292 -140.455 -142.022 -179.026C-122.956 -219.163 -98.8027 -252.001 -73.4454 -284.921C-63.674 -297.616 -53.2405 -309.834 -40.0681 -317.268C-35.105 -320.048 -29.4782 -322.192 -22.556 -319.083C-14.8506 -315.619 -6.77696 -307.041 1.02779 -298.904C14.3463 -285.02 28.2026 -270.517 39.1392 -251.216C53.9267 -225.092 62.0674 -195.242 74.6264 -166.374C84.1151 -144.524 94.3069 -126.687 103.658 -106.205C111.002 -90.123 108.871 -77.8712 108.236 -64.2991C106.882 -35.9011 100.46 -13.3916 90.1525 2.15439C77.3599 21.4843 59.3326 31.0905 41.3407 40.2592C-1.19723 61.7928 -41.4678 88.4853 -66.3483 144.633C-68.343 149.088 -71.1939 153.461 -76.3231 150.553C-80.4273 148.23 -84.6492 141.725 -88.7942 136.002C-112.247 103.597 -135.213 69.0076 -156.675 31.721C-163.551 19.7816 -170.428 6.68967 -173.416 -5.96161C-175.857 -16.3065 -175.496 -24.9918 -175.091 -33.1378Z" stroke="white" stroke-opacity="0.2" stroke-width="7.9022" stroke-miterlimit="10" stroke-linecap="round" stroke-linejoin="round" stroke-dasharray="0.03 13.01"/>
<path d="M-171.727 -41.7825C-169.136 -97.4144 -157.969 -142.3 -140.864 -178.4C-122.939 -216.09 -100.349 -247.086 -76.9466 -278.413C-67.9713 -290.432 -58.4048 -302.01 -46.3164 -309.148C-41.755 -311.816 -36.5806 -313.905 -30.1471 -311.006C-22.91 -307.747 -15.2696 -299.587 -7.88534 -291.87C4.5908 -278.836 17.5871 -265.241 27.9253 -247.079C41.8963 -222.514 49.7777 -194.452 61.5737 -167.33C70.5853 -146.591 80.0823 -129.627 88.8077 -110.213C95.6782 -94.9317 93.6535 -83.2432 93.0737 -70.2907C91.8633 -43.6259 85.9227 -22.4564 76.2841 -7.86182C64.3563 10.2316 47.5015 19.2096 30.6859 27.7711C-9.02253 47.8937 -46.464 73.0548 -69.288 125.705C-71.1273 129.91 -73.7912 134 -78.6096 131.227C-82.4949 128.994 -86.5027 122.753 -90.4532 117.297C-112.484 86.8536 -134.096 54.4402 -154.287 19.4835C-160.772 8.26043 -167.247 -4.04725 -170.079 -15.955C-172.42 -25.7863 -172.093 -34.0432 -171.727 -41.7825Z" stroke="white" stroke-opacity="0.2" stroke-width="8.0686" stroke-miterlimit="10" stroke-linecap="round" stroke-linejoin="round" stroke-dasharray="0.03 12.98"/>
<path d="M-168.405 -50.4644C-166.082 -102.376 -155.645 -144.147 -139.706 -177.774C-122.925 -213.022 -101.89 -242.165 -80.3797 -271.846C-72.1787 -283.168 -63.4467 -294.076 -52.3999 -300.881C-48.2243 -303.427 -43.4859 -305.441 -37.5317 -302.749C-30.7522 -299.686 -23.5527 -291.945 -16.5868 -284.653C-4.95298 -272.471 7.17399 -259.791 16.8943 -242.784C30.0201 -219.802 37.5992 -193.569 48.6131 -168.213C57.1261 -148.591 65.9257 -132.508 74.0146 -114.174C80.4046 -99.6997 78.4775 -88.5781 77.9473 -76.2556C76.8616 -51.3396 71.395 -31.5199 62.4243 -17.8754C51.3559 -1.02044 35.6725 7.32719 20.0362 15.2843C-16.8452 33.9868 -51.4518 57.6222 -72.3699 106.646C-74.0672 110.595 -76.5584 114.388 -81.0718 111.744C-84.7373 109.598 -88.5273 103.626 -92.2804 98.4395C-112.865 69.9826 -133.092 39.7728 -151.99 7.16643C-158.075 -3.33328 -164.139 -14.8483 -166.808 -26.0013C-169.038 -35.3168 -168.734 -43.1361 -168.405 -50.4644Z" stroke="white" stroke-opacity="0.2" stroke-width="8.2351" stroke-miterlimit="10" stroke-linecap="round" stroke-linejoin="round" stroke-dasharray="0.03 12.96"/>
<path d="M-165.118 -59.1781C-163.027 -107.326 -153.323 -145.994 -138.546 -177.149C-122.91 -209.954 -103.427 -237.242 -83.7533 -265.228C-76.2988 -275.83 -68.387 -286.078 -58.3255 -292.477C-54.5276 -294.9 -50.2021 -296.811 -44.7196 -294.32C-38.3918 -291.446 -31.6297 -284.129 -25.0901 -277.257C-14.3057 -265.934 -3.05237 -254.174 6.03072 -238.34C18.2817 -216.97 25.5162 -192.596 35.7257 -169.027C43.7276 -150.537 51.823 -135.339 59.2705 -118.091C65.1725 -104.426 63.3341 -93.8848 62.8437 -82.198C61.8667 -59.047 56.8682 -40.5778 48.5618 -27.8896C38.3522 -12.2767 23.8467 -4.55516 9.38619 2.79608C-24.6729 20.0751 -56.4468 42.1902 -75.5847 87.4702C-77.1494 91.1501 -79.4837 94.6341 -83.6935 92.1175C-87.1437 90.0544 -90.7158 84.3525 -94.2657 79.4412C-113.381 52.9893 -132.202 25.0034 -149.779 -5.2301C-155.458 -14.9994 -161.099 -25.7154 -163.593 -36.1038C-165.705 -44.8909 -165.42 -52.2663 -165.118 -59.1781Z" stroke="white" stroke-opacity="0.2" stroke-width="8.4016" stroke-miterlimit="10" stroke-linecap="round" stroke-linejoin="round" stroke-dasharray="0.03 12.93"/>
<path d="M-161.863 -67.9203C-159.958 -112.274 -150.998 -147.842 -137.389 -176.524C-122.895 -206.886 -104.955 -232.31 -87.0653 -258.554C-80.3415 -268.415 -73.196 -277.94 -64.1025 -283.939C-60.6628 -286.213 -56.7396 -288.021 -51.7247 -285.726C-45.8398 -283.034 -39.5221 -276.143 -33.4043 -269.697C-23.4729 -259.234 -13.0995 -248.399 -4.67372 -233.754C6.67487 -214.018 13.5265 -191.535 22.9174 -169.773C30.3982 -152.425 37.7804 -138.116 44.5766 -121.965C49.9829 -109.116 48.2249 -99.1646 47.7694 -88.1169C46.8818 -66.7436 42.3478 -49.6362 34.701 -37.9029C25.3485 -23.5327 12.0221 -16.4353 -1.26437 -9.69055C-32.5064 6.16275 -61.4418 26.7585 -78.9189 68.1908C-80.36 71.5939 -82.5495 74.7591 -86.4586 72.3667C-89.6971 70.3856 -93.0434 64.9582 -96.3887 60.3242C-114.016 35.8998 -131.399 10.1549 -147.635 -17.6847C-152.903 -26.7181 -158.11 -36.6286 -160.425 -46.2433C-162.414 -54.5013 -162.142 -61.43 -161.863 -67.9203Z" stroke="white" stroke-opacity="0.2" stroke-width="8.568" stroke-miterlimit="10" stroke-linecap="round" stroke-linejoin="round" stroke-dasharray="0.03 12.91"/>
<path d="M-158.633 -76.6847C-156.881 -117.21 -148.676 -149.69 -136.229 -175.898C-122.878 -203.816 -106.481 -227.375 -90.3202 -251.83C-84.3041 -260.935 -77.8978 -269.708 -69.7352 -275.275C-66.6394 -277.388 -63.1097 -279.079 -58.5541 -276.976C-53.1062 -274.46 -47.2325 -267.996 -41.5393 -261.975C-32.4622 -252.378 -22.9746 -242.469 -15.2255 -229.031C-4.80293 -210.951 1.62704 -190.39 10.1804 -170.453C17.1279 -154.253 23.7934 -140.838 29.9264 -125.796C34.8341 -113.765 33.146 -104.413 32.7213 -94.0095C31.9107 -74.4285 27.8306 -58.6871 20.8428 -47.9122C12.3421 -34.787 0.196394 -28.3128 -11.9137 -22.1753C-40.341 -7.7519 -66.4397 11.3237 -82.3532 48.8204C-83.6829 51.9417 -85.7374 54.7712 -89.3492 52.5018C-92.3789 50.5998 -95.4967 45.4513 -98.6359 41.0953C-114.757 18.7166 -130.687 -4.76778 -145.558 -30.1973C-150.411 -38.4883 -155.175 -47.5871 -157.302 -56.424C-159.159 -64.1444 -158.899 -70.6214 -158.633 -76.6847Z" stroke="white" stroke-opacity="0.2" stroke-width="8.7345" stroke-miterlimit="10" stroke-linecap="round" stroke-linejoin="round" stroke-dasharray="0.03 12.88"/>
<path d="M-155.427 -85.4676C-153.802 -122.14 -146.355 -151.536 -135.071 -175.271C-122.864 -200.747 -107.999 -222.429 -93.5199 -245.057C-88.1903 -253.384 -82.4997 -261.382 -75.235 -266.491C-72.4739 -268.436 -69.3189 -269.997 -65.2167 -268.08C-60.1981 -265.733 -54.77 -259.697 -49.5051 -254.107C-41.2874 -245.38 -32.6875 -236.401 -25.6322 -224.183C-16.1585 -207.779 -10.1884 -189.166 -2.48566 -171.073C3.91321 -156.033 9.85615 -143.519 15.3242 -129.591C19.7244 -118.382 18.1026 -109.635 17.697 -99.8869C16.9528 -82.1074 13.3148 -67.7384 6.98664 -57.9234C-0.664639 -46.0472 -11.6248 -40.1928 -22.5609 -34.6618C-48.1788 -21.6704 -71.4407 -4.11503 -85.8813 29.3674C-87.1061 32.1978 -89.0361 34.6874 -92.3531 32.5366C-95.174 30.7089 -98.0618 25.8447 -100.988 21.771C-115.586 1.45357 -130.04 -19.7568 -143.537 -42.7608C-147.963 -50.3067 -152.286 -58.5874 -154.216 -66.6379C-155.937 -73.8165 -155.677 -79.8335 -155.427 -85.4676Z" stroke="white" stroke-opacity="0.2" stroke-width="8.901" stroke-miterlimit="10" stroke-linecap="round" stroke-linejoin="round" stroke-dasharray="0.03 12.85"/>
<path d="M-152.234 -94.2651C-150.715 -127.067 -144.033 -153.384 -133.913 -174.646C-122.85 -197.678 -109.513 -217.481 -96.6713 -238.239C-92.0099 -245.772 -87.0055 -252.977 -80.6105 -257.598C-78.1715 -259.361 -75.38 -260.784 -71.7265 -259.049C-67.1314 -256.866 -62.1532 -251.263 -57.3176 -246.1C-49.9635 -238.247 -42.2559 -230.203 -35.9056 -219.218C-27.4056 -204.514 -21.9265 -187.868 -15.0891 -171.638C-9.24589 -157.761 -4.03212 -146.151 0.760892 -133.349C4.64844 -122.963 3.08412 -114.835 2.69294 -105.741C2.00382 -89.7756 -1.19607 -76.7839 -6.86939 -67.9322C-13.673 -57.3058 -23.4494 -52.0719 -33.2079 -47.1461C-56.0176 -35.5888 -76.4498 -19.5564 -89.4871 9.84639C-90.6135 12.3816 -92.4301 14.5187 -95.4516 12.4901C-98.0691 10.7345 -100.719 6.15617 -103.436 2.36677C-116.5 -15.874 -129.461 -34.7999 -141.563 -55.3656C-145.56 -62.1601 -149.43 -69.6186 -151.158 -76.8778C-152.737 -83.5097 -152.477 -89.0653 -152.234 -94.2651Z" stroke="white" stroke-opacity="0.2" stroke-width="9.0675" stroke-miterlimit="10" stroke-linecap="round" stroke-linejoin="round" stroke-dasharray="0.03 12.83"/>
<path d="M-149.056 -103.074C-147.624 -131.987 -141.708 -155.232 -132.756 -174.019C-122.836 -194.613 -111.022 -212.526 -99.7728 -231.38C-95.762 -238.102 -91.4202 -244.492 -85.8695 -248.6C-83.7439 -250.178 -81.3046 -251.445 -78.0917 -249.887C-73.9153 -247.865 -69.3851 -242.694 -64.9818 -237.962C-58.492 -230.987 -51.6833 -223.877 -46.0562 -214.14C-38.547 -201.149 -33.5975 -186.496 -27.6344 -172.147C-22.3593 -159.443 -17.8797 -148.739 -13.7659 -137.071C-10.394 -127.513 -11.9093 -120.008 -12.2903 -111.578C-12.9301 -97.4325 -15.7049 -85.8313 -20.7244 -77.9402C-26.6816 -68.5657 -35.2725 -63.9516 -43.8557 -59.6301C-63.8566 -49.5084 -81.4721 -35.0124 -93.1543 -9.7314C-94.1904 -7.49142 -95.8962 -5.72085 -98.6298 -7.62875C-101.045 -9.31426 -103.458 -13.6004 -105.958 -17.1076C-117.475 -33.2569 -128.928 -49.8857 -139.625 -68.0041C-143.19 -74.0442 -146.605 -80.6776 -148.125 -87.1413C-149.559 -93.2209 -149.291 -98.3087 -149.056 -103.074Z" stroke="white" stroke-opacity="0.2" stroke-width="9.2339" stroke-miterlimit="10" stroke-linecap="round" stroke-linejoin="round" stroke-dasharray="0.03 12.8"/>
</g>
</svg>
