<svg width="60" height="60" viewBox="0 0 60 60" fill="none" xmlns="http://www.w3.org/2000/svg">
<path d="M5.10547 17.0237L4.11328 16.0198L6.54492 13.5573L4.11328 11.0949L5.10742 10.0889L8.5332 13.5573L5.10547 17.0237ZM4.60938 2.68775C4.07031 2.68775 3.63281 3.13043 3.63281 3.67589C3.63281 4.22134 4.07031 4.66403 4.60938 4.66403C5.14844 4.66403 5.58594 4.22134 5.58594 3.67589C5.58594 3.13043 5.14844 2.68775 4.60938 2.68775ZM9.49219 3.67589C9.49219 4.22134 9.05469 4.66403 8.51562 4.66403C7.97656 4.66403 7.53906 4.22134 7.53906 3.67589C7.53906 3.13043 7.97656 2.68775 8.51562 2.68775C9.05469 2.68775 9.49219 3.13043 9.49219 3.67589ZM13.3984 3.67589C13.3984 4.22134 12.9609 4.66403 12.4219 4.66403C11.8828 4.66403 11.4453 4.22134 11.4453 3.67589C11.4453 3.13043 11.8828 2.68775 12.4219 2.68775C12.9609 2.68775 13.3984 3.13043 13.3984 3.67589ZM34.8828 11.581C34.8828 12.1265 34.4453 12.5692 33.9062 12.5692C33.3672 12.5692 32.9297 12.1265 32.9297 11.581C32.9297 11.0356 33.3672 10.5929 33.9062 10.5929C34.4453 10.5929 34.8828 11.0356 34.8828 11.581ZM38.7891 11.581C38.7891 12.1265 38.3516 12.5692 37.8125 12.5692C37.2734 12.5692 36.8359 12.1265 36.8359 11.581C36.8359 11.0356 37.2734 10.5929 37.8125 10.5929C38.3516 10.5929 38.7891 11.0356 38.7891 11.581ZM42.6953 11.581C42.6953 12.1265 42.2578 12.5692 41.7188 12.5692C41.1797 12.5692 40.7422 12.1265 40.7422 11.581C40.7422 11.0356 41.1797 10.5929 41.7188 10.5929C42.2578 10.5929 42.6953 11.0356 42.6953 11.581ZM9.49219 47.1541C9.49219 47.6996 9.05469 48.1423 8.51562 48.1423C7.97656 48.1423 7.53906 47.6996 7.53906 47.1541C7.53906 46.6087 7.97656 46.166 8.51562 46.166C9.05469 46.166 9.49219 46.6087 9.49219 47.1541ZM24.1406 27.1146H0.703125C0.314453 27.1146 0 26.7964 0 26.4032V0.711462C0 0.318182 0.314453 0 0.703125 0H24.1406C24.5293 0 24.8437 0.318182 24.8437 0.711462V26.4032C24.8437 26.7964 24.5293 27.1146 24.1406 27.1146ZM23.4375 7.35178H1.40625V25.6917H23.4375V7.35178ZM23.4375 1.42292H1.40625V5.93083H23.4375V1.42292ZM60 8.6166V42.2134C60 42.6067 59.6855 42.9249 59.2969 42.9249H37.209C36.6211 43.8557 35.8613 44.6739 34.959 45.3261C40.5742 47.4012 44.3711 52.7925 44.3711 58.9664L44.375 59.996L42.9668 60L42.9629 58.9684C42.9629 52.8854 38.8809 47.6462 33.0352 46.2213C32.7422 46.1522 32.5273 45.8992 32.5 45.5968C32.4727 45.2945 32.6367 45.0059 32.9121 44.8834C35.4805 43.7134 37.1406 41.1285 37.1406 38.2945C37.1406 34.3083 33.9375 31.0672 30 31.0672C26.0586 31.0672 22.8516 34.3083 22.8516 38.2945C22.8516 41.1285 24.5117 43.7134 27.082 44.8834C27.3574 45.0059 27.5215 45.2945 27.4941 45.5968C27.4668 45.8992 27.25 46.1522 26.959 46.2213C21.1133 47.6462 17.0293 52.8854 17.0293 58.9664L17.0312 59.996L15.625 60L15.623 58.9684C15.623 52.7925 19.418 47.3992 25.0352 45.3261C22.8125 43.7213 21.4453 41.1087 21.4453 38.2925C21.4453 33.7628 24.9062 30.0356 29.2969 29.6719V8.6166C29.2969 8.22332 29.6113 7.90514 30 7.90514H59.2969C59.6855 7.90514 60 8.22332 60 8.6166ZM58.5937 15.2569H30.7031V29.6739C35.0898 30.0375 38.5488 33.7648 38.5488 38.2945C38.5488 39.413 38.334 40.498 37.9336 41.502H58.5937V15.2569ZM58.5937 9.32806H30.7031V13.834H58.5937V9.32806ZM41.7188 21.7391H33.9062V23.1621H41.7188V21.7391ZM44.9219 33.3202C44.9219 30.2036 47.4277 27.668 50.5078 27.668C53.5879 27.668 56.0938 30.2036 56.0938 33.3202C56.0938 36.4368 53.5879 38.9723 50.5078 38.9723C47.4277 38.9723 44.9219 36.4368 44.9219 33.3202ZM53.9102 30.8814L51.209 33.6146L51.2012 37.4783C53.1738 37.1403 54.6855 35.4111 54.6855 33.3202C54.6875 32.4111 54.3945 31.5711 53.9102 30.8814ZM46.3281 33.3202C46.3281 35.4051 47.8301 37.1304 49.793 37.4763L49.8047 33.0237L52.9141 29.8755C52.2324 29.3854 51.4043 29.0909 50.5059 29.0909C48.2031 29.0909 46.3281 30.9881 46.3281 33.3202ZM14.375 17.7866H8.51562V19.2095H14.375V17.7866ZM5.58594 40.9486H11.4453V39.5257H5.58594V40.9486ZM5.58594 36.996H11.4453V35.5731H5.58594V36.996ZM41.7188 25.6917H33.9062V27.1146H41.7188V25.6917ZM55.3906 21.7391H47.5781V23.1621H55.3906V21.7391ZM55.3906 17.7866H47.5781V19.2095H55.3906V17.7866ZM41.7188 17.7866H33.9062V19.2095H41.7188V17.7866ZM15.0781 33.4862V48.9644C15.0781 49.9941 14.252 50.83 13.2344 50.83H3.79688C2.7793 50.83 1.95312 49.9921 1.95312 48.9644V33.4862C1.95312 32.4565 2.7793 31.6206 3.79688 31.6206H13.2344C14.252 31.6206 15.0781 32.4565 15.0781 33.4862ZM13.6719 44.9012H3.35937V48.9644C3.35937 49.2075 3.55664 49.4071 3.79688 49.4071H13.2344C13.4766 49.4071 13.6719 49.2075 13.6719 48.9644V44.9012ZM13.6719 33.4862C13.6719 33.2431 13.4746 33.0435 13.2344 33.0435H3.79688C3.55469 33.0435 3.35937 33.2431 3.35937 33.4862V43.4783H13.6719V33.4862Z" fill="#151516"/>
</svg>
