<svg width="66" height="60" viewBox="0 0 66 60" fill="none" xmlns="http://www.w3.org/2000/svg">
<path d="M65.2266 0H37.2969C36.8693 0 36.5234 0.34062 36.5234 0.761636V17.6869C36.5234 18.1079 36.8693 18.4485 37.2969 18.4485H65.2266C65.6541 18.4485 66 18.1079 66 17.6869V0.761636C66 0.34062 65.6541 0 65.2266 0ZM64.4531 4.14034C63.1318 3.84626 62.0941 2.82228 61.7955 1.52327H64.4531V4.14034ZM60.2336 16.9252H42.2898C41.9525 14.7842 40.2445 13.1023 38.0703 12.7701V5.6763C40.2445 5.34415 41.9525 3.6622 42.2898 1.52116H60.2336C60.5709 3.6622 62.2789 5.34415 64.4531 5.6763V12.7701C62.2789 13.1023 60.5709 14.7863 60.2336 16.9252ZM40.7279 1.52327C40.4293 2.8244 39.3916 3.84838 38.0703 4.14034V1.52327H40.7279ZM38.0703 14.3082C39.3916 14.6023 40.4293 15.6262 40.7279 16.9252H38.0703V14.3082ZM61.7955 16.9252C62.0941 15.6241 63.1318 14.6001 64.4531 14.3082V16.9252H61.7955ZM37.2969 21.1566H65.2266V22.6798H37.2969V21.1566ZM37.2969 25.3879H65.2266V26.9111H37.2969V25.3879ZM51.2553 4.23131C48.458 4.23131 46.185 6.47179 46.185 9.22426C46.185 11.9767 48.4602 14.2172 51.2553 14.2172C54.0504 14.2172 56.3256 11.9767 56.3256 9.22426C56.3256 6.47179 54.0525 4.23131 51.2553 4.23131ZM51.2553 12.6939C49.3131 12.6939 47.7318 11.1368 47.7318 9.22426C47.7318 7.31171 49.3109 5.75458 51.2553 5.75458C53.1996 5.75458 54.7787 7.31171 54.7787 9.22426C54.7787 11.1368 53.1975 12.6939 51.2553 12.6939ZM14.4375 30.3808H12.8906V13.4746C12.8906 10.7116 15.1658 8.46262 17.9609 8.46262H28.9846L23.8605 3.41467L24.9541 2.3378L31.9451 9.22426L24.967 16.1128L23.8713 15.036L28.9867 9.9859H17.9609C16.0187 9.9859 14.4375 11.5515 14.4375 13.4746V30.3808ZM51.5625 34.6121H53.1115V43.0748C53.1115 45.8293 50.8363 48.0677 48.0412 48.0677H32.7229L37.8469 53.1135L36.7512 54.1925L29.758 47.3061L36.749 40.4196L37.8447 41.4986L32.7207 46.5444H48.0391C49.9813 46.5444 51.5625 44.9894 51.5625 43.0748V34.6121ZM27.3281 60H25.7812C25.7812 54.6284 22.0838 49.8999 16.7879 48.5014C16.4807 48.421 16.2551 48.165 16.2207 47.8519C16.1842 47.543 16.3432 47.2426 16.6246 47.0945C18.685 46.0049 19.9676 43.9041 19.9676 41.6065C19.9676 38.1685 17.1338 35.3738 13.6512 35.3738C10.1686 35.3738 7.33477 38.1685 7.33477 41.6065C7.33477 43.9041 8.61524 46.0071 10.6777 47.0945C10.957 47.2405 11.1182 47.543 11.0816 47.8519C11.0451 48.1629 10.8195 48.421 10.5145 48.5014C5.23359 49.8956 1.54688 54.622 1.54688 60H0C0 54.4676 3.45899 49.5444 8.58516 47.5282C6.82988 46.0726 5.78574 43.9189 5.78574 41.6065C5.78574 37.3307 9.31348 33.8484 13.649 33.8484C17.9846 33.8484 21.5123 37.3307 21.5123 41.6065C21.5123 43.9189 20.4703 46.0726 18.715 47.5282C23.8584 49.5465 27.3281 54.4718 27.3281 60Z" fill="url(#paint0_linear_277_18907)"/>
<defs>
<linearGradient id="paint0_linear_277_18907" x1="33" y1="0" x2="33" y2="60" gradientUnits="userSpaceOnUse">
<stop stop-color="#3801A0"/>
<stop offset="0.495192" stop-color="#730C7D"/>
<stop offset="1" stop-color="#E7204B"/>
</linearGradient>
</defs>
</svg>
