<svg width="60" height="60" viewBox="0 0 60 60" fill="none" xmlns="http://www.w3.org/2000/svg">
<path d="M60 60H58.5937C58.5937 47.2885 49.2637 35.8261 36.4082 32.7431C36.1152 32.6719 35.8984 32.421 35.8711 32.1166C35.8418 31.8142 36.0098 31.5257 36.2852 31.4012C41.873 28.8854 45.4844 23.2668 45.4844 17.0909C45.4844 8.45257 38.5391 1.4249 30.0019 1.4249C21.4629 1.4249 14.5176 8.45257 14.5176 17.0909C14.5176 23.2668 18.1289 28.8854 23.7187 31.4012C23.9941 31.5257 24.1602 31.8142 24.1328 32.1166C24.1055 32.421 23.8887 32.6719 23.5957 32.7431C10.7363 35.8261 1.40625 47.2885 1.40625 60H0C0 47.2332 8.93359 35.668 21.4883 31.8419C16.3437 28.8004 13.1074 23.1957 13.1074 17.0889C13.1074 7.66601 20.6836 0 29.998 0C39.3105 0 46.8867 7.66601 46.8867 17.0889C46.8867 23.1957 43.6523 28.8004 38.5078 31.8419C51.0664 35.668 60 47.2332 60 60ZM30 58.7352C29.8125 58.7352 29.6348 58.6601 29.502 58.5277L21.7637 50.6917C20.7656 49.6798 20.2129 48.3379 20.207 46.9071C20.2012 45.4624 20.7539 44.1008 21.7656 43.0771C22.7676 42.0632 24.0996 41.504 25.5176 41.5H25.5254C26.9492 41.5 28.2852 42.0593 29.2891 43.0771L30 43.8004L30.7129 43.0791C32.7168 41.0494 36.2305 41.0474 38.2363 43.081C39.2656 44.1206 39.8203 45.5079 39.7949 46.9822C39.7676 48.3874 39.2148 49.7036 38.2344 50.6937L30.498 58.5296C30.3652 58.6601 30.1875 58.7352 30 58.7352ZM25.5254 42.9249H25.5195C24.4766 42.9269 23.4961 43.3379 22.7598 44.085C22.0156 44.8379 21.6074 45.8379 21.6133 46.9012C21.6172 47.9526 22.0254 48.9407 22.7598 49.6838L30 57.0158L37.2402 49.6838C37.9609 48.9565 38.3691 47.9881 38.3867 46.9545C38.4062 45.8696 38 44.8518 37.2402 44.085C35.7637 42.587 33.1836 42.5889 31.707 44.083L30.4961 45.3083C30.2207 45.587 29.7773 45.587 29.502 45.3083L28.293 44.085C27.5547 43.336 26.5723 42.9249 25.5254 42.9249Z" fill="#151516"/>
</svg>
