<svg width="61" height="60" viewBox="0 0 61 60" fill="none" xmlns="http://www.w3.org/2000/svg">
<path d="M27.2435 59.2706V26.8546C27.2435 26.4515 26.9238 26.1253 26.5286 26.1253H0.714844C0.319694 26.1253 0 26.4515 0 26.8546V59.2706C0 59.6738 0.319694 60 0.714844 60H26.5286C26.9238 60 27.2435 59.6738 27.2435 59.2706ZM1.42969 27.584H25.8138V58.5413H1.42969V27.584ZM61 57.2446V51.1666C61 50.7635 60.6803 50.4373 60.2852 50.4373H42.4141C42.0189 50.4373 41.6992 50.7635 41.6992 51.1666V57.2446C41.6992 57.6478 42.0189 57.974 42.4141 57.974H60.2852C60.6803 57.974 61 57.6478 61 57.2446ZM43.1289 51.896H59.5683V56.5132H43.1289V51.896ZM22.5573 50.4373H4.6862V51.898H22.5573V50.4373ZM49.0859 45.0886V39.0106C49.0859 38.6075 48.7662 38.2813 48.3711 38.2813H34.4714C34.0762 38.2813 33.7565 38.6075 33.7565 39.0106V45.0886C33.7565 45.4918 34.0762 45.818 34.4714 45.818H48.3711C48.7662 45.818 49.0859 45.4918 49.0859 45.0886ZM35.1862 39.74H47.6543V44.3572H35.1862V39.74ZM22.5573 42.3333H4.6862V43.794H22.5573V42.3333ZM22.5573 34.2313H4.6862V35.692H22.5573V34.2313ZM61 32.9326V26.8546C61 26.4515 60.6803 26.1253 60.2852 26.1253H42.4141C42.0189 26.1253 41.6992 26.4515 41.6992 26.8546V32.9326C41.6992 33.3358 42.0189 33.662 42.4141 33.662H60.2852C60.6803 33.662 61 33.3358 61 32.9326ZM43.1289 27.584H59.5683V32.2033H43.1289V27.584ZM61 20.7766V14.6986C61 14.2955 60.6803 13.9693 60.2852 13.9693H42.4141C42.0189 13.9693 41.6992 14.2955 41.6992 14.6986V20.7766C41.6992 21.1798 42.0189 21.506 42.4141 21.506H60.2852C60.6803 21.506 61 21.1798 61 20.7766ZM43.1289 15.428H59.5683V20.0473H43.1289V15.428ZM27.5394 6.59463L21.076 13.1872L20.0653 12.156L24.8011 7.32197H8.65755C6.8625 7.32399 5.40104 8.81513 5.40104 10.6466V20.7766H3.97135V10.6466C3.97135 8.01081 6.07419 5.86527 8.65755 5.86527H24.8031L20.0673 1.03123L21.078 0L27.5394 6.59463ZM49.0859 8.62063V2.54263C49.0859 2.13946 48.7662 1.81327 48.3711 1.81327H34.4714C34.0762 1.81327 33.7565 2.13946 33.7565 2.54263V8.62063C33.7565 9.02381 34.0762 9.34999 34.4714 9.34999H48.3711C48.7662 9.34999 49.0859 9.02381 49.0859 8.62063ZM35.1862 3.27199H47.6543V7.89127H35.1862V3.27199Z" fill="url(#paint0_linear_277_18905)"/>
<defs>
<linearGradient id="paint0_linear_277_18905" x1="30.5" y1="0" x2="30.5" y2="60" gradientUnits="userSpaceOnUse">
<stop stop-color="#3801A0"/>
<stop offset="0.495192" stop-color="#730C7D"/>
<stop offset="1" stop-color="#E7204B"/>
</linearGradient>
</defs>
</svg>
