<svg width="62" height="60" viewBox="0 0 62 60" fill="none" xmlns="http://www.w3.org/2000/svg">
<path d="M30.9999 60C25.7424 60 20.721 58.5626 16.4807 55.8452L17.2658 54.6238C21.272 57.1898 26.0209 58.5444 31.0019 58.5444C35.8537 58.5444 40.7338 57.1514 44.7421 54.6198L45.5191 55.8493C41.2788 58.5262 36.1242 60 30.9999 60ZM55.2187 51.9246C51.4789 51.9246 48.4374 48.8802 48.4374 45.1413C48.4374 41.4024 51.4809 38.358 55.2187 38.358C58.9565 38.358 62 41.4024 62 45.1413C62 48.8802 58.9585 51.9246 55.2187 51.9246ZM55.2187 39.8116C52.2802 39.8116 49.8906 42.2019 49.8906 45.1413C49.8906 48.0808 52.2802 50.4711 55.2187 50.4711C58.1573 50.4711 60.5469 48.0808 60.5469 45.1413C60.5469 42.2019 58.1573 39.8116 55.2187 39.8116ZM14.854 51.9246H0.726314C0.465962 51.9246 0.225792 51.7853 0.0966246 51.5592C-0.0325426 51.3331 -0.0325426 51.0545 0.0986428 50.8304L7.16247 38.7174C7.42283 38.2712 8.15746 38.2712 8.41782 38.7174L15.4816 50.8304C15.6128 51.0545 15.6128 51.3331 15.4837 51.5592C15.3545 51.7853 15.1143 51.9246 14.854 51.9246ZM1.99175 50.4711H13.5885L7.79014 40.5283L1.99175 50.4711ZM41.8176 45.1413H40.3645V41.7436C40.3645 37.3829 37.4058 33.6359 33.1695 32.6326C32.8667 32.5619 32.6427 32.3035 32.6145 31.9946C32.5862 31.6837 32.7578 31.389 33.0423 31.2618C34.8567 30.4542 36.0273 28.6514 36.0273 26.6689C36.0273 23.897 33.7729 21.642 31.0019 21.642C28.2308 21.642 25.9765 23.897 25.9765 26.6689C25.9765 28.6514 27.1491 30.4542 28.9635 31.2618C29.248 31.389 29.4196 31.6837 29.3913 31.9926C29.3631 32.3035 29.1391 32.5619 28.8363 32.6326C24.598 33.638 21.6393 37.3829 21.6393 41.7436V45.1413H20.1862V41.7436C20.1862 37.2598 22.8946 33.3412 26.9412 31.714C25.4376 30.5007 24.5254 28.6555 24.5254 26.6689C24.5254 23.0956 27.4316 20.1884 31.0039 20.1884C34.5782 20.1884 37.4845 23.0956 37.4845 26.6689C37.4845 28.6555 36.5722 30.5007 35.0686 31.714C39.1152 33.3412 41.8237 37.2618 41.8237 41.7436V45.1413H41.8176ZM57.8848 35.1016L56.4337 34.9906C56.4841 34.3425 56.5084 33.6864 56.5084 33.0262C56.5084 23.5215 51.2468 14.8708 42.7723 10.4536L43.4423 9.16353C52.4013 13.8351 57.9635 22.9785 57.9635 33.0283C57.9635 33.7288 57.9373 34.4172 57.8848 35.1016ZM4.11493 35.1016C4.06246 34.4172 4.03622 33.7288 4.03622 33.0283C4.03622 22.9341 9.59849 13.7645 18.5534 9.09489L19.2255 10.3849C10.7529 14.8022 5.48935 23.4791 5.48935 33.0283C5.48935 33.6884 5.51559 34.3425 5.56403 34.9926L4.11493 35.1016ZM37.0546 13.5666H24.9452C24.5435 13.5666 24.2186 13.2416 24.2186 12.8398V0.726783C24.2186 0.325034 24.5435 0 24.9452 0H37.0546C37.4562 0 37.7812 0.325034 37.7812 0.726783V12.8398C37.7812 13.2416 37.4562 13.5666 37.0546 13.5666ZM25.6717 12.1131H36.328V1.45357H25.6717V12.1131Z" fill="#151516"/>
</svg>
