<svg width="42" height="32" viewBox="0 0 42 32" fill="none" xmlns="http://www.w3.org/2000/svg">
<path d="M33 31.5C30.0833 31.5 27.6667 30.5417 25.75 28.625C23.9167 26.7083 23 23.9583 23 20.375C23 16.5417 24.0833 12.75 26.25 9.00001C28.5 5.25001 31.625 2.33334 35.625 0.25L38.5 4.625C34.1667 7.625 31.5833 11.4167 30.75 16C31.5 15.6667 32.375 15.5 33.375 15.5C35.7083 15.5 37.625 16.25 39.125 17.75C40.625 19.25 41.375 21.1667 41.375 23.5C41.375 25.8333 40.5833 27.75 39 29.25C37.4167 30.75 35.4167 31.5 33 31.5ZM10 31.5C7.08333 31.5 4.66667 30.5417 2.75 28.625C0.916667 26.7083 0 23.9583 0 20.375C0 16.5417 1.08333 12.75 3.25 9.00001C5.5 5.25001 8.625 2.33334 12.625 0.25L15.5 4.625C11.1667 7.625 8.58333 11.4167 7.75 16C8.5 15.6667 9.375 15.5 10.375 15.5C12.7083 15.5 14.625 16.25 16.125 17.75C17.625 19.25 18.375 21.1667 18.375 23.5C18.375 25.8333 17.5833 27.75 16 29.25C14.4167 30.75 12.4167 31.5 10 31.5Z" fill="black"/>
</svg>
