<svg width="240" height="260" viewBox="0 0 240 260" fill="none" xmlns="http://www.w3.org/2000/svg">
<path d="M41.9344 194.757C41.2823 194.274 40.6807 193.841 40.0946 193.392C37.7679 191.606 35.6948 189.593 33.908 187.321C33.2616 186.499 32.6658 185.644 32.1172 184.761C31.2869 183.425 30.6725 181.986 30.1674 180.498C29.9339 179.81 29.6631 179.136 29.431 178.447C28.7602 176.459 28.6491 174.384 28.8394 172.26C29.0806 169.568 29.9642 167.031 31.4696 164.637C31.502 164.586 31.5324 164.533 31.5669 164.483C31.7719 164.181 31.7913 164.174 32.1329 164.259C33.5452 164.612 34.9883 164.851 36.464 164.954C39.2102 165.144 41.943 164.892 44.6451 164.056C46.075 163.614 47.3963 162.962 48.5426 161.993C49.3816 161.283 50.0516 160.464 50.4713 159.494C51.0198 158.223 51.0525 156.995 50.279 155.884C49.6931 155.044 48.8152 154.551 47.7792 154.273C46.1944 153.847 44.5625 153.896 42.9107 154.229C41.1439 154.586 39.4739 155.217 37.8724 156.075C35.232 157.489 33.0824 159.398 31.2887 161.686C30.9694 162.094 30.9643 162.114 30.478 161.995C29.097 161.656 27.7177 161.313 26.3455 160.949C23.9063 160.303 21.5171 159.539 19.1814 158.655C18.6505 158.455 18.1303 158.232 17.6037 158.023C17.4725 157.97 17.3514 157.886 17.1354 157.89C17.2692 158.07 17.4228 158.156 17.5651 158.247C20.2045 159.929 22.9871 161.382 26.0231 162.426C27.1139 162.801 28.2196 163.146 29.3211 163.498C29.879 163.677 29.884 163.674 29.5738 164.179C27.7596 167.131 26.8911 170.261 26.7638 173.545C26.6701 175.96 27.083 178.252 27.9934 180.433C28.658 182.026 29.4978 183.525 30.4793 184.955C32.665 188.138 35.5391 190.689 38.7514 192.934C39.6477 193.56 40.5238 194.215 41.5527 194.667C41.6443 194.707 41.7224 194.783 41.9344 194.757ZM38.6297 157.668C39.2599 157.302 40.1983 156.891 41.1662 156.552C42.7756 155.989 44.4103 155.663 46.0841 155.826C46.7459 155.891 47.3781 156.042 47.9344 156.365C48.7842 156.86 49.0675 157.598 48.7814 158.544C48.5501 159.309 48.0696 159.938 47.4598 160.494C46.6494 161.233 45.6985 161.749 44.6653 162.122C42.8065 162.795 40.8925 163.081 38.9604 163.176C37.0408 163.271 35.1681 163.076 33.3355 162.681C32.9419 162.596 32.9372 162.568 33.1965 162.231C33.2054 162.219 33.2159 162.207 33.226 162.195C34.671 160.455 36.3538 158.962 38.6297 157.668Z" fill="#C8BCEA"/>
<path d="M19.4065 165.446L21.8967 158.443L21.9311 158.345L22.0025 158.268L27.5676 152.263L5.09568 150.903L19.4065 165.446Z" fill="white" stroke="#652AC1"/>
<path d="M22.0479 159.558L25.2927 159.894L23.1975 157.844L10.0463 153.102L22.0479 159.558Z" fill="#CECEF4" stroke="#652AC1"/>
<path d="M62.4033 76.5239H177.598C179.487 76.524 181.024 78.0695 181.024 79.9858V154.315H58.9756V79.9858C58.9757 78.0695 60.5144 76.5239 62.4033 76.5239Z" fill="white" stroke="#652EFF"/>
<path d="M187.568 150.147C187.358 153.953 184.762 156.814 181.765 156.814H58.2363C55.2385 156.814 52.6432 153.954 52.4326 150.147H187.568Z" fill="white" stroke="#652EFF"/>
<path opacity="0.2" d="M108.535 152.557H131.466C131.824 152.557 132.122 152.852 132.122 153.224C132.122 153.597 131.825 153.891 131.466 153.891H108.535C108.177 153.891 107.879 153.597 107.879 153.224C107.879 152.852 108.177 152.558 108.535 152.557Z" fill="white" stroke="#652EFF"/>
<g opacity="0.2">
<path d="M79.2793 152.136C79.8695 152.136 80.3555 152.62 80.3555 153.225C80.3554 153.83 79.8694 154.314 79.2793 154.314C78.6894 154.313 78.2042 153.83 78.2041 153.225C78.2041 152.62 78.6893 152.136 79.2793 152.136Z" fill="white" stroke="#652EFF"/>
<path d="M72.1499 152.136C72.7401 152.136 73.2261 152.62 73.2261 153.225C73.226 153.83 72.74 154.314 72.1499 154.314C71.56 154.313 71.0748 153.83 71.0747 153.225C71.0747 152.62 71.5599 152.136 72.1499 152.136Z" fill="white" stroke="#652EFF"/>
<path d="M65.0195 152.136C65.6097 152.136 66.0957 152.62 66.0957 153.225C66.0956 153.83 65.6097 154.314 65.0195 154.314C64.4296 154.313 63.9444 153.83 63.9443 153.225C63.9443 152.62 64.4295 152.136 65.0195 152.136Z" fill="white" stroke="#652EFF"/>
</g>
<path d="M177.455 82.603H62.5449V146.248H177.455V82.603Z" fill="white"/>
<path opacity="0.6" d="M120 81.3724C121.133 81.3724 122.05 80.4469 122.05 79.3053C122.05 78.1637 121.133 77.2383 120 77.2383C118.868 77.2383 117.95 78.1637 117.95 79.3053C117.95 80.4469 118.868 81.3724 120 81.3724Z" fill="#AE62FF"/>
<g opacity="0.24">
<path d="M171.89 82.603V146.248" stroke="#AE62FF" stroke-width="0.5" stroke-miterlimit="10"/>
<path d="M165.785 82.603V146.248" stroke="#AE62FF" stroke-width="0.5" stroke-miterlimit="10"/>
<path d="M159.681 82.603V146.248" stroke="#AE62FF" stroke-width="0.5" stroke-miterlimit="10"/>
<path d="M153.576 82.603V146.248" stroke="#AE62FF" stroke-width="0.5" stroke-miterlimit="10"/>
<path d="M147.471 82.603V146.248" stroke="#AE62FF" stroke-width="0.5" stroke-miterlimit="10"/>
<path d="M141.367 82.603V146.248" stroke="#AE62FF" stroke-width="0.5" stroke-miterlimit="10"/>
<path d="M135.261 82.603V146.248" stroke="#AE62FF" stroke-width="0.5" stroke-miterlimit="10"/>
<path d="M129.158 82.603V146.248" stroke="#AE62FF" stroke-width="0.5" stroke-miterlimit="10"/>
<path d="M123.052 82.603V146.248" stroke="#AE62FF" stroke-width="0.5" stroke-miterlimit="10"/>
<path d="M116.948 82.603V146.248" stroke="#AE62FF" stroke-width="0.5" stroke-miterlimit="10"/>
<path d="M110.843 82.603V146.248" stroke="#AE62FF" stroke-width="0.5" stroke-miterlimit="10"/>
<path d="M104.739 82.603V146.248" stroke="#AE62FF" stroke-width="0.5" stroke-miterlimit="10"/>
<path d="M98.6338 82.603V146.248" stroke="#AE62FF" stroke-width="0.5" stroke-miterlimit="10"/>
<path d="M92.5293 82.603V146.248" stroke="#AE62FF" stroke-width="0.5" stroke-miterlimit="10"/>
<path d="M86.4248 82.603V146.248" stroke="#AE62FF" stroke-width="0.5" stroke-miterlimit="10"/>
<path d="M80.3213 82.603V146.248" stroke="#AE62FF" stroke-width="0.5" stroke-miterlimit="10"/>
<path d="M74.2158 82.603V146.248" stroke="#AE62FF" stroke-width="0.5" stroke-miterlimit="10"/>
<path d="M68.1113 82.603V146.248" stroke="#AE62FF" stroke-width="0.5" stroke-miterlimit="10"/>
<path d="M177.374 140.91H62.6279" stroke="#AE62FF" stroke-width="0.5" stroke-miterlimit="10"/>
<path d="M177.374 135.024H62.6279" stroke="#AE62FF" stroke-width="0.5" stroke-miterlimit="10"/>
<path d="M177.374 129.138H62.6279" stroke="#AE62FF" stroke-width="0.5" stroke-miterlimit="10"/>
<path d="M177.374 123.254H62.6279" stroke="#AE62FF" stroke-width="0.5" stroke-miterlimit="10"/>
<path d="M177.374 117.368H62.6279" stroke="#AE62FF" stroke-width="0.5" stroke-miterlimit="10"/>
<path d="M177.374 111.483H62.6279" stroke="#AE62FF" stroke-width="0.5" stroke-miterlimit="10"/>
<path d="M177.374 105.597H62.6279" stroke="#AE62FF" stroke-width="0.5" stroke-miterlimit="10"/>
<path d="M177.374 99.7117H62.6279" stroke="#AE62FF" stroke-width="0.5" stroke-miterlimit="10"/>
<path d="M177.374 93.8267H62.6279" stroke="#AE62FF" stroke-width="0.5" stroke-miterlimit="10"/>
<path d="M177.374 87.9414H62.6279" stroke="#AE62FF" stroke-width="0.5" stroke-miterlimit="10"/>
</g>
<path d="M159.68 87.9412H80.3203V93.827H159.68V87.9412Z" stroke="#D9CDFC" stroke-miterlimit="10"/>
<path d="M159.68 135.024H80.3213V140.91H159.68V135.024Z" stroke="#D9CDFC" stroke-miterlimit="10"/>
<path d="M159.68 93.8264H80.3203V117.368H159.68V93.8264Z" stroke="#D9CDFC" stroke-miterlimit="10"/>
<path d="M159.679 117.368H135.263V135.024H159.679V117.368Z" stroke="#D9CDFC" stroke-miterlimit="10"/>
<path d="M135.264 117.368H104.739V135.024H135.264V117.368Z" stroke="#D9CDFC" stroke-miterlimit="10"/>
<path d="M104.739 117.368H80.3203V135.024H104.739V117.368Z" stroke="#D9CDFC" stroke-miterlimit="10"/>
<path d="M135.284 124.825H120.642V125.87H135.284V124.825Z" fill="#D9CDFC"/>
<path d="M138.823 124.825H136.139V125.87H138.823V124.825Z" fill="#D9CDFC"/>
<path d="M147.487 124.825H140.714V125.87H147.487V124.825Z" fill="#D9CDFC"/>
<path d="M125.278 122.887H120.642V123.933H125.278V122.887Z" fill="#D9CDFC"/>
<path d="M145.595 122.887H126.499V123.933H145.595V122.887Z" fill="#D9CDFC"/>
<path d="M152.55 122.887H146.876V123.933H152.55V122.887Z" fill="#D9CDFC"/>
<path d="M128.329 120.949H120.642V121.995H128.329V120.949Z" fill="#D9CDFC"/>
<path d="M132.112 120.949H129.244V121.995H132.112V120.949Z" fill="#D9CDFC"/>
<path d="M138.456 120.949H132.965V121.995H138.456V120.949Z" fill="#D9CDFC"/>
<path d="M118.95 121.795C119.168 121.795 119.345 121.617 119.345 121.397C119.345 121.177 119.168 120.999 118.95 120.999C118.732 120.999 118.555 121.177 118.555 121.397C118.555 121.617 118.732 121.795 118.95 121.795Z" fill="#F0F6FA"/>
<path d="M118.95 123.816C119.168 123.816 119.345 123.638 119.345 123.418C119.345 123.198 119.168 123.02 118.95 123.02C118.732 123.02 118.555 123.198 118.555 123.418C118.555 123.638 118.732 123.816 118.95 123.816Z" fill="#F0F6FA"/>
<path d="M118.95 125.837C119.168 125.837 119.345 125.659 119.345 125.439C119.345 125.219 119.168 125.041 118.95 125.041C118.732 125.041 118.555 125.219 118.555 125.439C118.555 125.659 118.732 125.837 118.95 125.837Z" fill="#F0F6FA"/>
<path d="M129.183 132.273H120.642V133.319H129.183V132.273Z" fill="#D9CDFC"/>
<path d="M141.629 132.273H130.282V133.319H141.629V132.273Z" fill="#D9CDFC"/>
<path d="M147.853 132.273H142.972V133.319H147.853V132.273Z" fill="#D9CDFC"/>
<path d="M127.841 130.397H120.642V131.443H127.841V130.397Z" fill="#D9CDFC"/>
<path d="M137.515 130.397H128.851V131.443H137.515V130.397Z" fill="#D9CDFC"/>
<path d="M143.52 130.397H138.456V131.443H143.52V130.397Z" fill="#D9CDFC"/>
<path d="M123.143 128.521H120.642V129.566H123.143V128.521Z" fill="#D9CDFC"/>
<path d="M131.257 128.521H124.119V129.566H131.257V128.521Z" fill="#D9CDFC"/>
<path d="M118.95 129.314C119.168 129.314 119.345 129.136 119.345 128.916C119.345 128.696 119.168 128.518 118.95 128.518C118.732 128.518 118.555 128.696 118.555 128.916C118.555 129.136 118.732 129.314 118.95 129.314Z" fill="#D9CDFC"/>
<path d="M118.95 131.335C119.168 131.335 119.345 131.157 119.345 130.937C119.345 130.717 119.168 130.539 118.95 130.539C118.732 130.539 118.555 130.717 118.555 130.937C118.555 131.157 118.732 131.335 118.95 131.335Z" fill="#D9CDFC"/>
<path d="M118.95 133.356C119.168 133.356 119.345 133.177 119.345 132.958C119.345 132.738 119.168 132.56 118.95 132.56C118.732 132.56 118.555 132.738 118.555 132.958C118.555 133.177 118.732 133.356 118.95 133.356Z" fill="#D9CDFC"/>
<path d="M93.3224 99.7385H86.0112V100.785H93.3224V99.7385Z" fill="#D9CDFC"/>
<path d="M95.0882 99.7385H93.748V100.785H95.0882V99.7385Z" fill="#D9CDFC"/>
<path d="M99.4141 99.7385H96.0332V100.785H99.4141V99.7385Z" fill="#D9CDFC"/>
<path d="M88.3263 97.8005H86.0112V98.8466H88.3263V97.8005Z" fill="#D9CDFC"/>
<path d="M98.4693 97.8005H88.9346V98.8466H98.4693V97.8005Z" fill="#D9CDFC"/>
<path d="M101.942 97.8005H99.1099V98.8466H101.942V97.8005Z" fill="#D9CDFC"/>
<path d="M89.8494 95.8625H86.0112V96.9086H89.8494V95.8625Z" fill="#D9CDFC"/>
<path d="M91.7373 95.8625H90.3057V96.9086H91.7373V95.8625Z" fill="#D9CDFC"/>
<path d="M94.9053 95.8625H92.1636V96.9086H94.9053V95.8625Z" fill="#D9CDFC"/>
<path d="M84.3191 96.7095C84.5371 96.7095 84.7139 96.5312 84.7139 96.3114C84.7139 96.0916 84.5371 95.9133 84.3191 95.9133C84.1011 95.9133 83.9243 96.0916 83.9243 96.3114C83.9243 96.5312 84.1011 96.7095 84.3191 96.7095Z" fill="#F0F6FA"/>
<path d="M84.3191 98.7304C84.5371 98.7304 84.7139 98.5522 84.7139 98.3324C84.7139 98.1125 84.5371 97.9343 84.3191 97.9343C84.1011 97.9343 83.9243 98.1125 83.9243 98.3324C83.9243 98.5522 84.1011 98.7304 84.3191 98.7304Z" fill="#F0F6FA"/>
<path d="M84.3191 100.751C84.5371 100.751 84.7139 100.572 84.7139 100.353C84.7139 100.133 84.5371 99.9546 84.3191 99.9546C84.1011 99.9546 83.9243 100.133 83.9243 100.353C83.9243 100.572 84.1011 100.751 84.3191 100.751Z" fill="#F0F6FA"/>
<path d="M116.383 219.511V233.509H27.6045V219.511H116.383Z" fill="white" stroke="#652EFF"/>
<path opacity="0.45" d="M37.3311 223.764C39.0408 223.764 40.4336 225.163 40.4336 226.897C40.4334 228.631 39.0407 230.029 37.3311 230.029C35.6215 230.028 34.2287 228.63 34.2285 226.897C34.2285 225.163 35.6214 223.764 37.3311 223.764Z" fill="white" stroke="#652AC1"/>
<path opacity="0.45" d="M47.2612 223.764C48.971 223.764 50.3638 225.163 50.3638 226.897C50.3636 228.631 48.9709 230.029 47.2612 230.029C45.5517 230.028 44.1588 228.63 44.1587 226.897C44.1587 225.163 45.5516 223.764 47.2612 223.764Z" fill="white" stroke="#652AC1"/>
<path opacity="0.45" d="M57.1924 223.764C58.9021 223.764 60.2949 225.163 60.2949 226.897C60.2948 228.631 58.902 230.029 57.1924 230.029C55.4828 230.028 54.09 228.63 54.0898 226.897C54.0898 225.163 55.4828 223.764 57.1924 223.764Z" fill="white" stroke="#652AC1"/>
<path d="M98.8952 226.732H95.1284V230.53H98.8952V226.732Z" fill="#AE62FF"/>
<path d="M104.688 226.732H100.921V230.53H104.688V226.732Z" fill="#AE62FF"/>
<path d="M110.481 226.732H106.714V230.53H110.481V226.732Z" fill="#AE62FF"/>
<path opacity="0.6" d="M110.6 223.535C110.6 223.668 110.494 223.776 110.362 223.776H95.3668C95.2352 223.776 95.1284 223.668 95.1284 223.535C95.1284 223.403 95.2352 223.295 95.3668 223.295H110.362C110.494 223.295 110.6 223.403 110.6 223.535Z" fill="#AE62FF"/>
<path opacity="0.6" d="M110.6 224.715C110.6 224.848 110.494 224.955 110.362 224.955H95.3668C95.2352 224.955 95.1284 224.847 95.1284 224.715C95.1284 224.582 95.2352 224.475 95.3668 224.475H110.362C110.494 224.475 110.6 224.582 110.6 224.715Z" fill="#AE62FF"/>
<path d="M116.383 202.758V216.756H27.6045V202.758H116.383Z" fill="white" stroke="#652EFF"/>
<path opacity="0.45" d="M37.3311 207.011C39.0408 207.011 40.4336 208.41 40.4336 210.144C40.4334 211.878 39.0407 213.276 37.3311 213.276C35.6215 213.276 34.2287 211.878 34.2285 210.144C34.2285 208.41 35.6214 207.011 37.3311 207.011Z" fill="white" stroke="#652AC1"/>
<path opacity="0.45" d="M47.2612 207.011C48.971 207.011 50.3638 208.41 50.3638 210.144C50.3636 211.878 48.9709 213.276 47.2612 213.276C45.5517 213.276 44.1588 211.878 44.1587 210.144C44.1587 208.41 45.5516 207.011 47.2612 207.011Z" fill="white" stroke="#652AC1"/>
<path opacity="0.45" d="M57.1924 207.011C58.9021 207.011 60.2949 208.41 60.2949 210.144C60.2948 211.878 58.902 213.276 57.1924 213.276C55.4828 213.276 54.09 211.878 54.0898 210.144C54.0898 208.41 55.4828 207.011 57.1924 207.011Z" fill="white" stroke="#652AC1"/>
<path d="M98.8952 209.979H95.1284V213.777H98.8952V209.979Z" fill="#AE62FF"/>
<path d="M104.688 209.979H100.921V213.777H104.688V209.979Z" fill="#AE62FF"/>
<path d="M110.481 209.979H106.714V213.777H110.481V209.979Z" fill="#AE62FF"/>
<path opacity="0.6" d="M110.6 206.783C110.6 206.916 110.494 207.023 110.362 207.023H95.3668C95.2352 207.023 95.1284 206.915 95.1284 206.783C95.1284 206.65 95.2352 206.543 95.3668 206.543H110.362C110.494 206.542 110.6 206.65 110.6 206.783Z" fill="#AE62FF"/>
<path opacity="0.6" d="M110.6 207.962C110.6 208.095 110.494 208.202 110.362 208.202H95.3668C95.2352 208.202 95.1284 208.094 95.1284 207.962C95.1284 207.829 95.2352 207.722 95.3668 207.722H110.362C110.494 207.722 110.6 207.829 110.6 207.962Z" fill="#AE62FF"/>
<path d="M116.383 185.075V199.073H27.6045V185.075H116.383Z" fill="white" stroke="#652EFF"/>
<path opacity="0.45" d="M37.3311 189.328C39.0408 189.328 40.4336 190.727 40.4336 192.46C40.4334 194.194 39.0407 195.592 37.3311 195.592C35.6215 195.592 34.2287 194.194 34.2285 192.46C34.2285 190.727 35.6214 189.328 37.3311 189.328Z" fill="white" stroke="#652AC1"/>
<path opacity="0.45" d="M47.2612 189.328C48.971 189.328 50.3638 190.727 50.3638 192.46C50.3636 194.194 48.9709 195.592 47.2612 195.592C45.5517 195.592 44.1588 194.194 44.1587 192.46C44.1587 190.727 45.5516 189.328 47.2612 189.328Z" fill="white" stroke="#652AC1"/>
<path opacity="0.45" d="M57.1924 189.328C58.9021 189.328 60.2949 190.727 60.2949 192.46C60.2948 194.194 58.902 195.592 57.1924 195.592C55.4828 195.592 54.09 194.194 54.0898 192.46C54.0898 190.727 55.4828 189.328 57.1924 189.328Z" fill="white" stroke="#652AC1"/>
<path d="M98.8952 192.296H95.1284V196.094H98.8952V192.296Z" fill="#AE62FF"/>
<path d="M104.688 192.296H100.921V196.094H104.688V192.296Z" fill="#AE62FF"/>
<path d="M110.481 192.296H106.714V196.094H110.481V192.296Z" fill="#AE62FF"/>
<path opacity="0.6" d="M110.6 189.099C110.6 189.233 110.494 189.34 110.362 189.34H95.3668C95.2352 189.34 95.1284 189.232 95.1284 189.099C95.1284 188.967 95.2352 188.86 95.3668 188.86H110.362C110.494 188.859 110.6 188.967 110.6 189.099Z" fill="#AE62FF"/>
<path opacity="0.6" d="M110.6 190.279C110.6 190.412 110.494 190.519 110.362 190.519H95.3668C95.2352 190.519 95.1284 190.411 95.1284 190.279C95.1284 190.146 95.2352 190.039 95.3668 190.039H110.362C110.494 190.039 110.6 190.146 110.6 190.279Z" fill="#AE62FF"/>
<path d="M138.739 99.8196C139.558 99.8196 140.223 99.1499 140.223 98.3237C140.223 97.4976 139.558 96.8279 138.739 96.8279C137.92 96.8279 137.255 97.4976 137.255 98.3237C137.255 99.1499 137.92 99.8196 138.739 99.8196Z" fill="#5800B5"/>
<path d="M98.7629 111.799C99.5822 111.799 100.246 111.129 100.246 110.303C100.246 109.477 99.5822 108.807 98.7629 108.807C97.9435 108.807 97.2793 109.477 97.2793 110.303C97.2793 111.129 97.9435 111.799 98.7629 111.799Z" fill="#5800B5"/>
<path d="M169.742 78.7278V39.9407" stroke="#652EFF" stroke-width="1.5" stroke-linecap="round" stroke-linejoin="round" stroke-dasharray="1.03 4.11"/>
<path d="M169.742 38.717V38.4202" stroke="#652EFF" stroke-width="1.5" stroke-linecap="round" stroke-linejoin="round"/>
<path d="M114.451 13.5894H114.746" stroke="#652EFF" stroke-width="1.5" stroke-linecap="round" stroke-linejoin="round"/>
<path d="M117.073 13.5894H168.282" stroke="#652EFF" stroke-width="1.5" stroke-linecap="round" stroke-linejoin="round" stroke-dasharray="0.99 3.94"/>
<path d="M169.446 13.5894H169.741V13.8862" stroke="#652EFF" stroke-width="1.5" stroke-linecap="round" stroke-linejoin="round"/>
<path d="M169.742 16.3674V30.6303" stroke="#652EFF" stroke-width="1.5" stroke-linecap="round" stroke-linejoin="round" stroke-dasharray="1.04 4.17"/>
<path d="M169.742 31.8708V32.1677" stroke="#652EFF" stroke-width="1.5" stroke-linecap="round" stroke-linejoin="round"/>
<path d="M138.739 98.3237H139.034" stroke="#652EFF" stroke-width="1.5" stroke-linecap="round" stroke-linejoin="round"/>
<path d="M141.405 98.3237H208.38" stroke="#652EFF" stroke-width="1.5" stroke-linecap="round" stroke-linejoin="round" stroke-dasharray="1 4.02"/>
<path d="M209.565 98.3237H209.86V98.6206" stroke="#652EFF" stroke-width="1.5" stroke-linecap="round" stroke-linejoin="round"/>
<path d="M209.86 101.207V172.895" stroke="#652EFF" stroke-width="1.5" stroke-linecap="round" stroke-linejoin="round" stroke-dasharray="1.09 4.34"/>
<path d="M177.014 245.516H177.309" stroke="#652EFF" stroke-width="1.5" stroke-linecap="round" stroke-linejoin="round"/>
<path d="M179.609 245.516H189.955" stroke="#652EFF" stroke-width="1.5" stroke-linecap="round" stroke-linejoin="round" stroke-dasharray="0.97 3.9"/>
<path d="M191.104 245.516H191.399V245.219" stroke="#652EFF" stroke-width="1.5" stroke-linecap="round" stroke-linejoin="round"/>
<path d="M191.399 242.713V201.568" stroke="#652EFF" stroke-width="1.5" stroke-linecap="round" stroke-linejoin="round" stroke-dasharray="1.05 4.21"/>
<path d="M191.399 220.791V220.494" stroke="#652EFF" stroke-width="1.5" stroke-linecap="round" stroke-linejoin="round"/>
<path d="M99.4855 138.224H99.1904" stroke="#652EFF" stroke-width="1.5" stroke-linecap="round" stroke-linejoin="round"/>
<path d="M96.8502 138.224H77.5376" stroke="#652EFF" stroke-width="1.5" stroke-linecap="round" stroke-linejoin="round" stroke-dasharray="0.99 3.97"/>
<path d="M76.3668 138.224H76.0718V138.521" stroke="#652EFF" stroke-width="1.5" stroke-linecap="round" stroke-linejoin="round"/>
<path d="M76.0718 141.029V184.584V164.851" stroke="#652EFF" stroke-width="1.5" stroke-linecap="round" stroke-linejoin="round" stroke-dasharray="1.05 4.21"/>
<path d="M76.0718 166.104V166.401" stroke="#652EFF" stroke-width="1.5" stroke-linecap="round" stroke-linejoin="round"/>
<path d="M127.895 246.706H127.6" stroke="#652EFF" stroke-width="1.5" stroke-linecap="round" stroke-linejoin="round"/>
<path d="M125.298 246.706H77.5186" stroke="#652EFF" stroke-width="1.5" stroke-linecap="round" stroke-linejoin="round" stroke-dasharray="0.98 3.9"/>
<path d="M76.3668 246.705H76.0718V246.408" stroke="#652EFF" stroke-width="1.5" stroke-linecap="round" stroke-linejoin="round"/>
<path d="M76.0718 243.891V235.708" stroke="#652EFF" stroke-width="1.5" stroke-linecap="round" stroke-linejoin="round" stroke-dasharray="1.06 4.23"/>
<path d="M76.0718 234.449V234.152" stroke="#652EFF" stroke-width="1.5" stroke-linecap="round" stroke-linejoin="round"/>
<path d="M40.2837 94.2708V94.5676" stroke="#652EFF" stroke-width="1.5" stroke-linecap="round" stroke-linejoin="round"/>
<path d="M40.2837 78.2136V104.171" stroke="#652EFF" stroke-width="1.5" stroke-linecap="round" stroke-linejoin="round" stroke-dasharray="0.95 3.8"/>
<path d="M40.2837 105.3V105.597H40.5788" stroke="#652EFF" stroke-width="1.5" stroke-linecap="round" stroke-linejoin="round"/>
<path d="M42.9365 105.598H106.607" stroke="#652EFF" stroke-width="1.5" stroke-linecap="round" stroke-linejoin="round" stroke-dasharray="1 4"/>
<path d="M107.786 105.598H108.081" stroke="#652EFF" stroke-width="1.5" stroke-linecap="round" stroke-linejoin="round"/>
<path d="M40.2847 48.9274V48.6306" stroke="#652EFF" stroke-width="1.5" stroke-linecap="round" stroke-linejoin="round"/>
<path d="M40.2847 46.2643V14.9182" stroke="#652EFF" stroke-width="1.5" stroke-linecap="round" stroke-linejoin="round" stroke-dasharray="0.99 3.98"/>
<path d="M40.2847 13.7351V13.4382H40.5797" stroke="#652EFF" stroke-width="1.5" stroke-linecap="round" stroke-linejoin="round"/>
<path d="M42.9907 13.4382H62.8893" stroke="#652EFF" stroke-width="1.5" stroke-linecap="round" stroke-linejoin="round" stroke-dasharray="1.02 4.09"/>
<path d="M64.0962 13.4382H64.3913" stroke="#652EFF" stroke-width="1.5" stroke-linecap="round" stroke-linejoin="round"/>
<path d="M180.112 235.288V259.5H124.395V235.288H180.112Z" fill="white" stroke="#652EFF"/>
<path d="M117.134 0.5V24.7119H61.4175V0.5H117.134Z" fill="white" stroke="#652EFF"/>
<path d="M74.2761 14.0059H70.7524V15.2643H74.2761V14.0059Z" fill="#D9CDFC"/>
<path d="M80.0021 18.8909H70.7524V20.1493H80.0021V18.8909Z" fill="#D9CDFC"/>
<path d="M95.9314 18.8909H81.3965V20.1493H95.9314V18.8909Z" fill="#D9CDFC"/>
<path d="M109.806 18.8909H97.4731V20.1493H109.806V18.8909Z" fill="#D9CDFC"/>
<path d="M76.7718 16.4485H70.7524V17.7069H76.7718V16.4485Z" fill="#D9CDFC"/>
<path d="M89.6181 16.4485H78.313V17.7069H89.6181V16.4485Z" fill="#D9CDFC"/>
<path d="M97.7667 16.4485H91.0864V17.7069H97.7667V16.4485Z" fill="#D9CDFC"/>
<path d="M84.1116 14.0059H75.4497V15.2643H84.1116V14.0059Z" fill="#D9CDFC"/>
<path d="M90.8664 9.76221H70.7524V11.02H90.8664V9.76221Z" fill="#D9CDFC"/>
<path d="M96.9588 9.76221H92.4077V11.02H96.9588V9.76221Z" fill="#D9CDFC"/>
<path d="M76.7718 7.4126H70.7524V8.67103H76.7718V7.4126Z" fill="#D9CDFC"/>
<path d="M102.171 7.4126H78.313V8.67103H102.171V7.4126Z" fill="#D9CDFC"/>
<path d="M113.183 7.4126H102.905V8.67103H113.183V7.4126Z" fill="#D9CDFC"/>
<path d="M79.5613 5.06226H70.7524V6.32069H79.5613V5.06226Z" fill="#D9CDFC"/>
<path d="M84.8463 5.06226H81.1025V6.32069H84.8463V5.06226Z" fill="#D9CDFC"/>
<path d="M93.9488 5.06226H85.8003V6.32069H93.9488V5.06226Z" fill="#D9CDFC"/>
<path d="M65.8457 6.0793C66.108 6.0793 66.3207 5.86485 66.3207 5.60031C66.3207 5.33578 66.108 5.12134 65.8457 5.12134C65.5833 5.12134 65.3706 5.33578 65.3706 5.60031C65.3706 5.86485 65.5833 6.0793 65.8457 6.0793Z" fill="#D9CDFC"/>
<path d="M65.8457 8.51069C66.108 8.51069 66.3207 8.29624 66.3207 8.03171C66.3207 7.76718 66.108 7.55273 65.8457 7.55273C65.5833 7.55273 65.3706 7.76718 65.3706 8.03171C65.3706 8.29624 65.5833 8.51069 65.8457 8.51069Z" fill="#D9CDFC"/>
<path d="M65.8457 10.9416C66.108 10.9416 66.3207 10.7272 66.3207 10.4626C66.3207 10.1981 66.108 9.98364 65.8457 9.98364C65.5833 9.98364 65.3706 10.1981 65.3706 10.4626C65.3706 10.7272 65.5833 10.9416 65.8457 10.9416Z" fill="#D9CDFC"/>
<path d="M65.8457 15.125C66.108 15.125 66.3207 14.9105 66.3207 14.646C66.3207 14.3814 66.108 14.167 65.8457 14.167C65.5833 14.167 65.3706 14.3814 65.3706 14.646C65.3706 14.9105 65.5833 15.125 65.8457 15.125Z" fill="#D9CDFC"/>
<path d="M65.8457 17.5561C66.108 17.5561 66.3207 17.3417 66.3207 17.0771C66.3207 16.8126 66.108 16.5981 65.8457 16.5981C65.5833 16.5981 65.3706 16.8126 65.3706 17.0771C65.3706 17.3417 65.5833 17.5561 65.8457 17.5561Z" fill="#D9CDFC"/>
<path d="M65.8457 19.9875C66.108 19.9875 66.3207 19.773 66.3207 19.5085C66.3207 19.244 66.108 19.0295 65.8457 19.0295C65.5833 19.0295 65.3706 19.244 65.3706 19.5085C65.3706 19.773 65.5833 19.9875 65.8457 19.9875Z" fill="#D9CDFC"/>
<g opacity="0.5">
<path d="M153.365 244.594H135.747V245.852H153.365V244.594Z" fill="#D9CDFC"/>
<path d="M157.623 244.594H154.393V245.852H157.623V244.594Z" fill="#D9CDFC"/>
<path d="M168.047 244.594H159.899V245.852H168.047V244.594Z" fill="#D9CDFC"/>
<path d="M141.326 242.262H135.747V243.52H141.326V242.262Z" fill="#D9CDFC"/>
<path d="M165.772 242.262H142.795V243.52H165.772V242.262Z" fill="#D9CDFC"/>
<path d="M174.14 242.262H167.313V243.52H174.14V242.262Z" fill="#D9CDFC"/>
<path d="M144.996 239.931H135.747V241.189H144.996V239.931Z" fill="#D9CDFC"/>
<path d="M149.548 239.931H146.098V241.189H149.548V239.931Z" fill="#D9CDFC"/>
<path d="M157.183 239.931H150.576V241.189H157.183V239.931Z" fill="#D9CDFC"/>
<path d="M130.842 240.949C131.104 240.949 131.317 240.735 131.317 240.47C131.317 240.206 131.104 239.991 130.842 239.991C130.579 239.991 130.367 240.206 130.367 240.47C130.367 240.735 130.579 240.949 130.842 240.949Z" fill="#D9CDFC"/>
<path d="M130.842 243.381C131.104 243.381 131.317 243.166 131.317 242.902C131.317 242.637 131.104 242.423 130.842 242.423C130.579 242.423 130.367 242.637 130.367 242.902C130.367 243.166 130.579 243.381 130.842 243.381Z" fill="#D9CDFC"/>
<path d="M130.842 245.812C131.104 245.812 131.317 245.597 131.317 245.333C131.317 245.068 131.104 244.854 130.842 244.854C130.579 244.854 130.367 245.068 130.367 245.333C130.367 245.597 130.579 245.812 130.842 245.812Z" fill="#D9CDFC"/>
<path d="M146.024 253.556H135.747V254.814H146.024V253.556Z" fill="#D9CDFC"/>
<path d="M161 253.556H147.346V254.814H161V253.556Z" fill="#D9CDFC"/>
<path d="M168.488 253.556H162.616V254.814H168.488V253.556Z" fill="#D9CDFC"/>
<path d="M144.41 251.298H135.747V252.556H144.41V251.298Z" fill="#D9CDFC"/>
<path d="M156.05 251.298H145.625V252.556H156.05V251.298Z" fill="#D9CDFC"/>
<path d="M163.275 251.298H157.183V252.556H163.275V251.298Z" fill="#D9CDFC"/>
<path d="M138.757 249.04H135.747V250.299H138.757V249.04Z" fill="#D9CDFC"/>
<path d="M148.52 249.04H139.931V250.299H148.52V249.04Z" fill="#D9CDFC"/>
<path d="M130.842 249.996C131.104 249.996 131.317 249.781 131.317 249.517C131.317 249.252 131.104 249.038 130.842 249.038C130.579 249.038 130.367 249.252 130.367 249.517C130.367 249.781 130.579 249.996 130.842 249.996Z" fill="#D9CDFC"/>
<path d="M130.842 252.427C131.104 252.427 131.317 252.213 131.317 251.948C131.317 251.683 131.104 251.469 130.842 251.469C130.579 251.469 130.367 251.683 130.367 251.948C130.367 252.213 130.579 252.427 130.842 252.427Z" fill="#D9CDFC"/>
<path d="M130.842 254.858C131.104 254.858 131.317 254.643 131.317 254.379C131.317 254.114 131.104 253.9 130.842 253.9C130.579 253.9 130.367 254.114 130.367 254.379C130.367 254.643 130.579 254.858 130.842 254.858Z" fill="#D9CDFC"/>
</g>
<path d="M239.5 171.141V200.881H150.722V171.141H239.5Z" fill="white" stroke="#652EFF"/>
<g opacity="0.45">
<path opacity="0.6" d="M233.526 193.17C233.526 193.304 233.419 193.411 233.288 193.411H209.706C209.574 193.411 209.467 193.303 209.467 193.17C209.467 193.038 209.574 192.93 209.706 192.93H233.288C233.419 192.929 233.526 193.038 233.526 193.17Z" fill="#D9CDFC"/>
<path opacity="0.6" d="M233.526 194.898C233.526 195.031 233.419 195.138 233.288 195.138H209.706C209.574 195.138 209.467 195.03 209.467 194.898C209.467 194.765 209.574 194.658 209.706 194.658H233.288C233.419 194.658 233.526 194.765 233.526 194.898Z" fill="#D9CDFC"/>
<path opacity="0.6" d="M225.396 196.626C225.396 196.759 225.289 196.866 225.158 196.866H209.706C209.574 196.866 209.467 196.758 209.467 196.626C209.467 196.493 209.574 196.386 209.706 196.386H225.158C225.29 196.386 225.396 196.494 225.396 196.626Z" fill="#D9CDFC"/>
<path d="M233.465 175.156H209.467V191.027H233.465V175.156Z" fill="#D9CDFC"/>
<path opacity="0.6" d="M207.116 193.17C207.116 193.304 207.009 193.411 206.878 193.411H183.295C183.164 193.411 183.058 193.303 183.058 193.17C183.058 193.038 183.164 192.93 183.295 192.93H206.878C207.009 192.929 207.116 193.038 207.116 193.17Z" fill="#D9CDFC"/>
<path opacity="0.6" d="M207.116 194.898C207.116 195.031 207.009 195.138 206.878 195.138H183.295C183.164 195.138 183.058 195.03 183.058 194.898C183.058 194.765 183.164 194.658 183.295 194.658H206.878C207.009 194.658 207.116 194.765 207.116 194.898Z" fill="#D9CDFC"/>
<path opacity="0.6" d="M198.985 196.626C198.985 196.759 198.878 196.866 198.747 196.866H183.294C183.163 196.866 183.057 196.758 183.057 196.626C183.057 196.493 183.163 196.386 183.294 196.386H198.747C198.879 196.386 198.985 196.494 198.985 196.626Z" fill="#D9CDFC"/>
<path d="M207.054 175.156H183.057V191.027H207.054V175.156Z" fill="#D9CDFC"/>
<path d="M180.674 175.194H156.677V191.065H180.674V175.194Z" fill="#652EFF"/>
<path d="M179.63 176.112H157.724V190.146H179.63V176.112Z" fill="white"/>
<path d="M180.674 193.653C180.674 194.077 180.334 194.421 179.914 194.421H157.438C157.018 194.421 156.677 194.077 156.677 193.653C156.677 193.229 157.018 192.886 157.438 192.886H179.914C180.334 192.886 180.674 193.229 180.674 193.653Z" fill="#652EFF"/>
<path d="M168.812 186.457C170.635 186.457 172.112 184.967 172.112 183.129C172.112 181.292 170.635 179.802 168.812 179.802C166.99 179.802 165.512 181.292 165.512 183.129C165.512 184.967 166.99 186.457 168.812 186.457Z" fill="#652EFF"/>
<path d="M167.832 181.693V184.565L170.519 183.129L167.832 181.693Z" fill="white"/>
</g>
<path d="M89.79 51.5745V80.3245H0.5V51.5745H89.79Z" fill="white" stroke="#652EFF"/>
<path d="M5.47607 66.2011L7.12726 67.8986V64.5029L5.47607 66.2011Z" fill="#AE62FF"/>
<path d="M45.7379 55.6089H9.42725V76.7935H45.7379V55.6089Z" fill="#D9CDFC"/>
<path d="M51.8671 73.6116H48.6338V76.7931H51.8671V73.6116Z" fill="#AE62FF"/>
<path d="M84.3206 66.2011L82.6694 67.8986V64.5029L84.3206 66.2011Z" fill="#AE62FF"/>
<path opacity="0.6" d="M77.1571 60.1745C77.1571 60.3071 77.0503 60.4148 76.9187 60.4148H48.8722C48.7406 60.4148 48.6338 60.3071 48.6338 60.1745C48.6338 60.0418 48.7406 59.9341 48.8722 59.9341H76.9187C77.0503 59.9341 77.1571 60.0418 77.1571 60.1745Z" fill="#D9CDFC"/>
<path opacity="0.6" d="M77.1571 61.9023C77.1571 62.0349 77.0503 62.1426 76.9187 62.1426H48.8722C48.7406 62.1426 48.6338 62.0349 48.6338 61.9023C48.6338 61.7696 48.7406 61.6619 48.8722 61.6619H76.9187C77.0503 61.6613 77.1571 61.7696 77.1571 61.9023Z" fill="#D9CDFC"/>
<path opacity="0.6" d="M77.1571 63.6303C77.1571 63.763 77.0503 63.8707 76.9187 63.8707H48.8722C48.7406 63.8707 48.6338 63.763 48.6338 63.6303C48.6338 63.4976 48.7406 63.3899 48.8722 63.3899H76.9187C77.0503 63.3893 77.1571 63.497 77.1571 63.6303Z" fill="#D9CDFC"/>
<path opacity="0.6" d="M77.1571 65.3576C77.1571 65.4903 77.0503 65.598 76.9187 65.598H48.8722C48.7406 65.598 48.6338 65.4903 48.6338 65.3576C48.6338 65.2249 48.7406 65.1172 48.8722 65.1172H76.9187C77.0503 65.1172 77.1571 65.2249 77.1571 65.3576Z" fill="#D9CDFC"/>
<path opacity="0.6" d="M77.1571 67.0854C77.1571 67.218 77.0503 67.3257 76.9187 67.3257H48.8722C48.7406 67.3257 48.6338 67.218 48.6338 67.0854C48.6338 66.9527 48.7406 66.845 48.8722 66.845H76.9187C77.0503 66.845 77.1571 66.9527 77.1571 67.0854Z" fill="#D9CDFC"/>
<path opacity="0.6" d="M67.6108 68.8134C67.6108 68.9461 67.504 69.0538 67.3724 69.0538H48.8712C48.7396 69.0538 48.6328 68.9461 48.6328 68.8134C48.6328 68.6807 48.7396 68.573 48.8712 68.573H67.3724C67.5046 68.573 67.6108 68.6807 67.6108 68.8134Z" fill="#D9CDFC"/>
<path d="M77.1571 56.693C77.1571 57.2916 76.6756 57.7771 76.0819 57.7771H49.709C49.1153 57.7771 48.6338 57.2916 48.6338 56.693C48.6338 56.0944 49.1153 55.6089 49.709 55.6089H76.0819C76.6756 55.6089 77.1571 56.0944 77.1571 56.693Z" fill="#D9CDFC"/>
<path d="M68.6651 73.6116H53.1807V76.7931H68.6651V73.6116Z" fill="#AE62FF"/>
<path d="M211.782 42.0425V50.3286H123.003V42.0425H211.782Z" fill="white" stroke="#652EFF"/>
<path d="M131.353 47.4373C131.353 47.9859 130.912 48.4309 130.367 48.4309H127.885C127.34 48.4309 126.899 47.9859 126.899 47.4373V44.9341C126.899 44.3855 127.34 43.9404 127.885 43.9404H130.367C130.912 43.9404 131.353 44.3855 131.353 44.9341V47.4373Z" fill="#D9CDFC"/>
<path opacity="0.6" d="M148.889 45.5516C148.889 45.6602 148.802 45.7481 148.693 45.7481H132.949C132.841 45.7481 132.753 45.6602 132.753 45.5516C132.753 45.4429 132.841 45.3545 132.949 45.3545H148.693C148.802 45.3551 148.889 45.4429 148.889 45.5516Z" fill="#D9CDFC"/>
<path opacity="0.6" d="M143.174 46.8181C143.174 46.9267 143.087 47.0152 142.979 47.0152H132.95C132.842 47.0152 132.754 46.9273 132.754 46.8181C132.754 46.7094 132.842 46.6216 132.95 46.6216H142.979C143.086 46.6216 143.174 46.71 143.174 46.8181Z" fill="#D9CDFC"/>
<path d="M194.275 48.1267C195.17 48.1267 195.895 47.3951 195.895 46.4928C195.895 45.5904 195.17 44.8589 194.275 44.8589C193.38 44.8589 192.654 45.5904 192.654 46.4928C192.654 47.3951 193.38 48.1267 194.275 48.1267Z" fill="#D9CDFC"/>
<path d="M199.267 48.1274C200.162 48.1274 200.888 47.3956 200.888 46.4929C200.888 45.5902 200.162 44.8584 199.267 44.8584C198.371 44.8584 197.646 45.5902 197.646 46.4929C197.646 47.3956 198.371 48.1274 199.267 48.1274Z" fill="#D9CDFC"/>
<path d="M204.259 48.1274C205.154 48.1274 205.88 47.3956 205.88 46.4929C205.88 45.5902 205.154 44.8584 204.259 44.8584C203.363 44.8584 202.638 45.5902 202.638 46.4929C202.638 47.3956 203.363 48.1274 204.259 48.1274Z" fill="#D9CDFC"/>
<path d="M211.782 54.1416V62.4277H123.003V54.1416H211.782Z" fill="white" stroke="#652EFF"/>
<path d="M131.353 59.5364C131.353 60.085 130.912 60.5301 130.367 60.5301H127.885C127.34 60.5301 126.899 60.085 126.899 59.5364V57.0332C126.899 56.4846 127.34 56.0396 127.885 56.0396H130.367C130.912 56.0396 131.353 56.4846 131.353 57.0332V59.5364Z" fill="#D9CDFC"/>
<path opacity="0.6" d="M148.889 57.6509C148.889 57.7596 148.802 57.8474 148.693 57.8474H132.949C132.841 57.8474 132.753 57.7596 132.753 57.6509C132.753 57.5423 132.841 57.4539 132.949 57.4539H148.693C148.802 57.4545 148.889 57.5423 148.889 57.6509Z" fill="#D9CDFC"/>
<path opacity="0.6" d="M143.174 58.9172C143.174 59.0258 143.087 59.1143 142.979 59.1143H132.95C132.842 59.1143 132.754 59.0264 132.754 58.9172C132.754 58.8086 132.842 58.7207 132.95 58.7207H142.979C143.086 58.7207 143.174 58.8092 143.174 58.9172Z" fill="#D9CDFC"/>
<path d="M194.275 60.2263C195.17 60.2263 195.895 59.4948 195.895 58.5924C195.895 57.69 195.17 56.9585 194.275 56.9585C193.38 56.9585 192.654 57.69 192.654 58.5924C192.654 59.4948 193.38 60.2263 194.275 60.2263Z" fill="#D9CDFC"/>
<path d="M199.267 60.2267C200.162 60.2267 200.888 59.4949 200.888 58.5923C200.888 57.6896 200.162 56.9578 199.267 56.9578C198.371 56.9578 197.646 57.6896 197.646 58.5923C197.646 59.4949 198.371 60.2267 199.267 60.2267Z" fill="#D9CDFC"/>
<path d="M204.259 60.2267C205.154 60.2267 205.88 59.4949 205.88 58.5923C205.88 57.6896 205.154 56.9578 204.259 56.9578C203.363 56.9578 202.638 57.6896 202.638 58.5923C202.638 59.4949 203.363 60.2267 204.259 60.2267Z" fill="#D9CDFC"/>
<path d="M211.782 30.874V39.1602H123.003V30.874H211.782Z" fill="white" stroke="#652EFF"/>
<path d="M131.353 36.2688C131.353 36.8174 130.912 37.2625 130.367 37.2625H127.885C127.34 37.2625 126.899 36.8174 126.899 36.2688V33.7656C126.899 33.217 127.34 32.772 127.885 32.772H130.367C130.912 32.772 131.353 33.217 131.353 33.7656V36.2688Z" fill="#D9CDFC"/>
<path opacity="0.6" d="M148.889 34.3834C148.889 34.492 148.802 34.5799 148.693 34.5799H132.949C132.841 34.5799 132.753 34.492 132.753 34.3834C132.753 34.2747 132.841 34.1863 132.949 34.1863H148.693C148.802 34.1869 148.889 34.2747 148.889 34.3834Z" fill="#D9CDFC"/>
<path opacity="0.6" d="M143.174 35.6496C143.174 35.7583 143.087 35.8467 142.979 35.8467H132.95C132.842 35.8467 132.754 35.7589 132.754 35.6496C132.754 35.541 132.842 35.4531 132.95 35.4531H142.979C143.086 35.4531 143.174 35.5416 143.174 35.6496Z" fill="#D9CDFC"/>
<path d="M194.275 36.9587C195.17 36.9587 195.895 36.2272 195.895 35.3248C195.895 34.4224 195.17 33.6909 194.275 33.6909C193.38 33.6909 192.654 34.4224 192.654 35.3248C192.654 36.2272 193.38 36.9587 194.275 36.9587Z" fill="#D9CDFC"/>
<path d="M199.267 36.9591C200.162 36.9591 200.888 36.2274 200.888 35.3247C200.888 34.422 200.162 33.6902 199.267 33.6902C198.371 33.6902 197.646 34.422 197.646 35.3247C197.646 36.2274 198.371 36.9591 199.267 36.9591Z" fill="#D9CDFC"/>
<path d="M204.259 36.9591C205.154 36.9591 205.88 36.2274 205.88 35.3247C205.88 34.422 205.154 33.6902 204.259 33.6902C203.363 33.6902 202.638 34.422 202.638 35.3247C202.638 36.2274 203.363 36.9591 204.259 36.9591Z" fill="#D9CDFC"/>
<path opacity="0.35" d="M199.26 223.714C199.287 223.542 199.355 223.379 199.461 223.234C199.636 222.996 199.893 222.84 200.184 222.796L202.708 222.413C202.774 221.021 203.105 219.678 203.694 218.416L201.639 216.891C201.15 216.528 201.045 215.833 201.407 215.34L202.584 213.736C202.758 213.497 203.015 213.341 203.306 213.297C203.598 213.253 203.889 213.325 204.126 213.502L206.18 215.026C207.205 214.089 208.383 213.374 209.685 212.9L209.305 210.361C209.261 210.068 209.332 209.775 209.507 209.537C209.682 209.298 209.939 209.143 210.231 209.098L212.19 208.801C212.792 208.71 213.355 209.128 213.445 209.732L213.826 212.271C215.21 212.337 216.545 212.67 217.8 213.262L219.315 211.196C219.676 210.704 220.369 210.598 220.858 210.962L222.453 212.145C222.942 212.509 223.046 213.205 222.685 213.697L221.17 215.763C222.102 216.794 222.812 217.979 223.284 219.29L225.807 218.907C226.099 218.863 226.39 218.935 226.627 219.111C226.864 219.287 227.019 219.545 227.063 219.838L227.358 221.81C227.403 222.102 227.331 222.396 227.156 222.634C226.981 222.873 226.724 223.028 226.432 223.073L223.909 223.456C223.842 224.848 223.511 226.191 222.923 227.453L224.977 228.977C225.467 229.341 225.571 230.037 225.21 230.529L224.033 232.134C223.858 232.372 223.602 232.528 223.31 232.572C223.019 232.616 222.728 232.544 222.491 232.368L220.437 230.843C219.412 231.781 218.233 232.495 216.931 232.969L217.312 235.508C217.356 235.801 217.284 236.094 217.109 236.332C216.934 236.571 216.677 236.727 216.386 236.771L214.426 237.068C213.825 237.16 213.262 236.742 213.171 236.137L212.79 233.598C211.407 233.532 210.072 233.199 208.817 232.607L207.301 234.673C206.941 235.165 206.248 235.271 205.759 234.908L204.164 233.724C203.675 233.361 203.57 232.665 203.932 232.172L205.447 230.106C204.515 229.075 203.805 227.89 203.333 226.579L200.81 226.962C200.208 227.054 199.645 226.636 199.554 226.031L199.259 224.06C199.241 223.943 199.241 223.827 199.26 223.714ZM203.059 222.599C203.046 222.675 202.986 222.736 202.908 222.748L200.238 223.154C200.042 223.183 199.868 223.289 199.75 223.449C199.633 223.611 199.584 223.808 199.613 224.006L199.909 225.977C199.97 226.385 200.35 226.667 200.755 226.605L203.425 226.2C203.511 226.187 203.593 226.237 203.622 226.319C204.093 227.686 204.829 228.914 205.81 229.97C205.868 230.033 205.875 230.131 205.823 230.2L204.22 232.387C203.977 232.719 204.047 233.188 204.377 233.433L205.971 234.617C206.301 234.861 206.768 234.791 207.012 234.459L208.616 232.273C208.666 232.203 208.76 232.179 208.838 232.218C210.131 232.849 211.515 233.195 212.951 233.243C213.038 233.246 213.11 233.311 213.123 233.397L213.526 236.083C213.587 236.491 213.967 236.773 214.372 236.711L216.332 236.414C216.528 236.384 216.702 236.279 216.82 236.118C216.937 235.957 216.986 235.76 216.957 235.562L216.554 232.876C216.54 232.79 216.591 232.707 216.672 232.678C218.03 232.205 219.251 231.465 220.301 230.477C220.364 230.418 220.461 230.412 220.531 230.464L222.704 232.077C222.864 232.196 223.06 232.245 223.256 232.215C223.453 232.185 223.626 232.08 223.744 231.919L224.921 230.315C225.163 229.983 225.093 229.513 224.764 229.268L222.59 227.655C222.521 227.603 222.497 227.51 222.536 227.431C223.163 226.13 223.506 224.738 223.555 223.294C223.556 223.207 223.622 223.134 223.708 223.121L226.378 222.716C226.575 222.686 226.748 222.581 226.866 222.42C226.984 222.259 227.032 222.062 227.003 221.864L226.707 219.893C226.677 219.695 226.573 219.521 226.413 219.402C226.254 219.284 226.057 219.235 225.861 219.265L223.191 219.67C223.106 219.683 223.023 219.633 222.994 219.55C222.524 218.184 221.787 216.956 220.806 215.9C220.747 215.837 220.741 215.74 220.793 215.67L222.397 213.483C222.639 213.152 222.569 212.682 222.24 212.437L220.645 211.253C220.315 211.008 219.848 211.079 219.604 211.411L218.001 213.597C217.95 213.667 217.856 213.69 217.778 213.652C216.485 213.02 215.101 212.675 213.665 212.626C213.578 212.623 213.506 212.558 213.494 212.473L213.091 209.787C213.029 209.379 212.649 209.097 212.244 209.158L210.284 209.456C210.088 209.486 209.915 209.591 209.796 209.752C209.678 209.913 209.63 210.11 209.659 210.307L210.063 212.993C210.076 213.079 210.026 213.163 209.944 213.191C208.586 213.664 207.365 214.405 206.315 215.392C206.252 215.452 206.156 215.457 206.086 215.405L203.913 213.792C203.753 213.674 203.557 213.625 203.36 213.655C203.164 213.684 202.99 213.79 202.872 213.95L201.696 215.555C201.453 215.887 201.522 216.356 201.852 216.601L204.026 218.214C204.096 218.266 204.119 218.36 204.081 218.439C203.453 219.739 203.11 221.131 203.061 222.576C203.061 222.583 203.06 222.591 203.059 222.599ZM207.842 222.031C207.979 221.186 208.311 220.361 208.85 219.626C210.664 217.153 214.139 216.626 216.597 218.45C219.055 220.274 219.58 223.771 217.766 226.243C215.953 228.716 212.477 229.243 210.019 227.419C208.292 226.137 207.519 224.029 207.842 222.031ZM209.139 219.84C207.443 222.153 207.934 225.423 210.232 227.128C212.531 228.834 215.781 228.341 217.478 226.028C219.173 223.716 218.683 220.447 216.384 218.74C214.085 217.035 210.836 217.528 209.139 219.84Z" fill="#5800B5"/>
<path opacity="0.35" d="M131.996 216.881C132.01 216.789 132.047 216.702 132.103 216.625C132.196 216.498 132.334 216.415 132.489 216.391L133.836 216.187C133.871 215.444 134.048 214.728 134.362 214.054L133.265 213.241C133.004 213.047 132.948 212.676 133.141 212.413L133.769 211.556C133.862 211.429 134 211.346 134.155 211.322C134.31 211.299 134.466 211.338 134.592 211.432L135.689 212.245C136.235 211.745 136.864 211.364 137.559 211.11L137.356 209.756C137.332 209.599 137.371 209.443 137.464 209.316C137.557 209.188 137.695 209.105 137.85 209.082L138.896 208.923C139.217 208.874 139.517 209.097 139.566 209.42L139.769 210.775C140.507 210.81 141.22 210.988 141.889 211.304L142.698 210.201C142.891 209.939 143.26 209.882 143.521 210.076L144.372 210.708C144.633 210.902 144.689 211.273 144.496 211.536L143.688 212.639C144.185 213.189 144.564 213.821 144.816 214.52L146.162 214.316C146.318 214.292 146.473 214.331 146.6 214.425C146.726 214.519 146.809 214.657 146.832 214.813L146.99 215.865C147.014 216.021 146.975 216.178 146.882 216.305C146.788 216.432 146.651 216.515 146.496 216.539L145.149 216.743C145.113 217.486 144.937 218.203 144.623 218.876L145.719 219.69C145.981 219.884 146.036 220.256 145.843 220.518L145.216 221.374C145.122 221.501 144.985 221.585 144.83 221.608C144.675 221.632 144.519 221.593 144.393 221.499L143.296 220.685C142.749 221.186 142.12 221.567 141.426 221.82L141.629 223.175C141.653 223.331 141.614 223.488 141.521 223.615C141.427 223.742 141.29 223.825 141.135 223.849L140.089 224.008C139.768 224.056 139.467 223.833 139.419 223.511L139.216 222.156C138.478 222.12 137.765 221.943 137.096 221.627L136.287 222.73C136.094 222.992 135.725 223.048 135.464 222.855L134.613 222.223C134.352 222.029 134.296 221.658 134.489 221.395L135.297 220.292C134.8 219.742 134.421 219.11 134.169 218.41L132.823 218.615C132.502 218.663 132.201 218.44 132.153 218.118L131.995 217.066C131.985 217.003 131.986 216.941 131.996 216.881ZM134.023 216.286C134.016 216.327 133.984 216.359 133.943 216.366L132.518 216.582C132.413 216.598 132.32 216.654 132.257 216.74C132.195 216.826 132.169 216.931 132.184 217.037L132.342 218.089C132.375 218.306 132.578 218.457 132.794 218.424L134.218 218.208C134.264 218.201 134.308 218.228 134.323 218.272C134.575 219.001 134.967 219.656 135.491 220.22C135.522 220.253 135.526 220.306 135.498 220.343L134.642 221.509C134.513 221.686 134.55 221.937 134.726 222.068L135.577 222.699C135.753 222.83 136.002 222.792 136.132 222.615L136.988 221.448C137.015 221.411 137.065 221.399 137.107 221.419C137.797 221.756 138.536 221.94 139.302 221.966C139.348 221.968 139.387 222.003 139.393 222.048L139.608 223.482C139.641 223.699 139.844 223.85 140.06 223.817L141.106 223.658C141.211 223.642 141.303 223.586 141.366 223.5C141.429 223.415 141.455 223.309 141.439 223.204L141.224 221.77C141.217 221.725 141.244 221.68 141.288 221.665C142.012 221.413 142.664 221.017 143.224 220.49C143.258 220.459 143.309 220.456 143.346 220.483L144.506 221.344C144.591 221.407 144.696 221.434 144.801 221.418C144.906 221.401 144.998 221.346 145.061 221.26L145.689 220.404C145.818 220.226 145.781 219.976 145.605 219.845L144.446 218.984C144.408 218.957 144.396 218.907 144.416 218.865C144.751 218.171 144.934 217.428 144.961 216.657C144.961 216.611 144.996 216.572 145.042 216.565L146.467 216.349C146.572 216.333 146.664 216.277 146.727 216.191C146.79 216.105 146.816 216 146.8 215.894L146.643 214.842C146.627 214.737 146.571 214.644 146.486 214.58C146.4 214.517 146.296 214.491 146.191 214.507L144.766 214.723C144.721 214.73 144.676 214.703 144.661 214.659C144.41 213.931 144.017 213.275 143.494 212.711C143.462 212.678 143.458 212.626 143.487 212.588L144.342 211.422C144.472 211.245 144.434 210.994 144.259 210.863L143.407 210.232C143.231 210.101 142.982 210.139 142.852 210.316L141.996 211.482C141.969 211.52 141.919 211.532 141.878 211.512C141.188 211.175 140.449 210.99 139.683 210.964C139.637 210.963 139.598 210.928 139.591 210.882L139.376 209.449C139.343 209.231 139.141 209.081 138.925 209.114L137.879 209.273C137.774 209.289 137.681 209.345 137.618 209.43C137.555 209.516 137.53 209.622 137.545 209.727L137.76 211.16C137.767 211.206 137.741 211.251 137.697 211.266C136.972 211.518 136.321 211.914 135.761 212.44C135.727 212.472 135.676 212.475 135.638 212.448L134.478 211.587C134.393 211.523 134.289 211.497 134.184 211.513C134.079 211.529 133.986 211.585 133.923 211.671L133.295 212.527C133.166 212.705 133.203 212.955 133.379 213.086L134.539 213.947C134.576 213.974 134.589 214.024 134.568 214.066C134.233 214.76 134.05 215.503 134.024 216.274C134.024 216.278 134.024 216.282 134.023 216.286ZM136.575 215.983C136.648 215.532 136.826 215.092 137.113 214.7C138.081 213.38 139.936 213.099 141.247 214.072C142.559 215.046 142.839 216.911 141.871 218.231C140.903 219.55 139.049 219.832 137.737 218.858C136.815 218.174 136.403 217.049 136.575 215.983ZM137.268 214.814C136.363 216.048 136.624 217.793 137.851 218.703C139.078 219.613 140.812 219.35 141.717 218.116C142.622 216.882 142.36 215.138 141.134 214.227C139.907 213.317 138.173 213.58 137.268 214.814Z" fill="#5800B5"/>
<path opacity="0.35" d="M191.988 140.203C191.897 140.203 191.814 140.153 191.771 140.074L190.92 138.499L189.359 137.634C189.28 137.59 189.23 137.507 189.231 137.416C189.231 137.325 189.281 137.242 189.36 137.199L190.926 136.342L191.785 134.772C191.829 134.692 191.912 134.643 192.001 134.643C192.092 134.643 192.175 134.693 192.218 134.773L193.069 136.348L194.631 137.212C194.71 137.256 194.758 137.34 194.758 137.43C194.758 137.521 194.709 137.605 194.629 137.648L193.063 138.504L192.204 140.074C192.161 140.154 192.078 140.203 191.988 140.203ZM189.992 137.418L191.221 138.099C191.263 138.122 191.296 138.156 191.319 138.198L191.989 139.438L192.665 138.201C192.689 138.16 192.722 138.126 192.764 138.103L193.997 137.429L192.768 136.749C192.726 136.726 192.692 136.692 192.67 136.65L192 135.409L191.324 136.646C191.3 136.687 191.266 136.721 191.225 136.744L189.992 137.418Z" fill="#5800B5"/>
<path opacity="0.35" d="M20.2957 116.988H20.2952C20.2048 116.988 20.1219 116.938 20.079 116.859L19.2279 115.284L17.6664 114.419C17.5874 114.375 17.5386 114.292 17.5386 114.201C17.5386 114.11 17.5884 114.027 17.6674 113.983L19.2333 113.127L20.0928 111.557C20.1362 111.478 20.2191 111.428 20.309 111.428H20.3095C20.3998 111.428 20.4828 111.479 20.5257 111.558L21.3768 113.133L22.9382 113.998C23.0172 114.042 23.0661 114.125 23.0661 114.216C23.0661 114.307 23.0162 114.39 22.9372 114.433L21.3714 115.29L20.5119 116.86C20.4685 116.939 20.3855 116.988 20.2957 116.988ZM18.2998 114.203L19.529 114.884C19.57 114.907 19.6041 114.941 19.6268 114.983L20.2967 116.223L20.9735 114.986C20.9962 114.945 21.0302 114.911 21.0717 114.888L22.3049 114.214L21.0757 113.534C21.0347 113.511 21.0006 113.476 20.9779 113.435L20.308 112.194L19.6312 113.431C19.6085 113.472 19.5744 113.506 19.533 113.529L18.2998 114.203Z" fill="#5800B5"/>
<path opacity="0.35" d="M101.815 175.148C101.724 175.148 101.641 175.098 101.599 175.019L100.32 172.652L97.9741 171.353C97.8951 171.309 97.8462 171.226 97.8462 171.135C97.8462 171.044 97.896 170.961 97.975 170.917L100.328 169.631L101.619 167.271C101.663 167.192 101.746 167.143 101.835 167.143H101.836C101.927 167.143 102.009 167.193 102.052 167.272L103.331 169.64L105.677 170.939C105.756 170.983 105.805 171.066 105.805 171.157C105.804 171.248 105.755 171.331 105.676 171.374L103.322 172.661L102.031 175.02C101.989 175.099 101.906 175.148 101.815 175.148ZM98.6074 171.136L100.621 172.251C100.663 172.274 100.696 172.308 100.719 172.35L101.817 174.382L102.925 172.356C102.948 172.315 102.982 172.281 103.024 172.258L105.044 171.153L103.03 170.038C102.988 170.015 102.955 169.981 102.932 169.939L101.834 167.907L100.726 169.933C100.703 169.974 100.669 170.009 100.627 170.032L98.6074 171.136Z" fill="#5800B5"/>
<path opacity="0.35" d="M175.661 222.506C175.549 222.515 175.488 222.457 175.445 222.377L174.166 220.009L171.82 218.71C171.741 218.666 171.692 218.583 171.692 218.492C171.692 218.401 171.742 218.318 171.821 218.275L174.175 216.988L175.466 214.629C175.509 214.549 175.582 214.509 175.683 214.5C175.773 214.5 175.856 214.55 175.899 214.63L177.177 216.997L179.523 218.296C179.602 218.34 179.651 218.424 179.651 218.514C179.651 218.604 179.601 218.688 179.522 218.732L177.169 220.018L175.878 222.378C175.834 222.457 175.751 222.506 175.661 222.506ZM172.453 218.494L174.467 219.61C174.508 219.632 174.542 219.667 174.565 219.708L175.663 221.74L176.771 219.714C176.794 219.673 176.828 219.639 176.869 219.616L178.889 218.512L176.875 217.397C176.834 217.374 176.8 217.34 176.778 217.298L175.68 215.266L174.571 217.292C174.549 217.333 174.515 217.367 174.473 217.39L172.453 218.494Z" fill="#5800B5"/>
<path opacity="0.35" d="M206.765 84.5065C206.692 84.5025 206.592 84.4564 206.549 84.3769L205.695 82.7957L204.128 81.9282C204.049 81.8845 204 81.801 204 81.7102C204 81.6193 204.05 81.5359 204.129 81.4926L205.701 80.6335L206.563 79.0573C206.607 78.9779 206.689 78.9287 206.779 78.9287C206.87 78.9287 206.953 78.9789 206.996 79.0583L207.85 80.6395L209.417 81.5071C209.496 81.5508 209.545 81.6342 209.545 81.7251C209.545 81.8159 209.495 81.8994 209.416 81.9426L207.844 82.8017L206.982 84.3779C206.938 84.4574 206.855 84.5065 206.765 84.5065ZM204.761 81.7117L205.996 82.3955C206.037 82.4183 206.071 82.4526 206.094 82.4943L206.766 83.7403L207.446 82.4978C207.469 82.4565 207.503 82.4223 207.544 82.3994L208.783 81.7226L207.548 81.0388C207.507 81.0159 207.473 80.9817 207.45 80.9399L206.777 79.694L206.098 80.9365C206.075 80.9777 206.041 81.0119 205.999 81.0348L204.761 81.7117Z" fill="#5800B5"/>
<g opacity="0.35">
<path d="M52.8464 245.335C52.7102 245.335 52.5996 245.223 52.5996 245.086V243.534C52.5996 243.397 52.7102 243.286 52.8464 243.286C52.9827 243.286 53.0933 243.397 53.0933 243.534V245.086C53.0933 245.223 52.9832 245.335 52.8464 245.335Z" fill="#5800B5"/>
<path d="M52.8464 249.321C52.7102 249.321 52.5996 249.209 52.5996 249.072V247.521C52.5996 247.383 52.7102 247.272 52.8464 247.272C52.9827 247.272 53.0933 247.383 53.0933 247.521V249.072C53.0933 249.21 52.9832 249.321 52.8464 249.321Z" fill="#5800B5"/>
<path d="M55.5991 246.551H54.0559C53.9197 246.551 53.8091 246.44 53.8091 246.303C53.8091 246.166 53.9197 246.055 54.0559 246.055H55.5991C55.7353 246.055 55.8459 246.166 55.8459 246.303C55.8459 246.44 55.7358 246.551 55.5991 246.551Z" fill="#5800B5"/>
<path d="M51.6362 246.551H50.093C49.9568 246.551 49.8462 246.44 49.8462 246.303C49.8462 246.166 49.9568 246.055 50.093 246.055H51.6362C51.7725 246.055 51.8831 246.166 51.8831 246.303C51.8831 246.44 51.7725 246.551 51.6362 246.551Z" fill="#5800B5"/>
<path d="M50.8983 248.51C50.8351 248.51 50.7719 248.485 50.7236 248.437C50.6273 248.34 50.6273 248.183 50.7236 248.086L51.8146 246.989C51.9108 246.892 52.0673 246.892 52.1636 246.989C52.2598 247.085 52.2598 247.243 52.1636 247.34L51.0726 248.437C51.0247 248.485 50.9615 248.51 50.8983 248.51Z" fill="#5800B5"/>
<path d="M53.7006 245.691C53.6374 245.691 53.5742 245.667 53.5258 245.619C53.4295 245.522 53.4295 245.364 53.5258 245.268L54.6168 244.17C54.7131 244.073 54.8696 244.073 54.9658 244.17C55.0621 244.267 55.0621 244.424 54.9658 244.521L53.8748 245.619C53.8265 245.667 53.7638 245.691 53.7006 245.691Z" fill="#5800B5"/>
<path d="M51.9893 245.691C51.9261 245.691 51.8629 245.667 51.8146 245.619L50.7236 244.521C50.6273 244.425 50.6273 244.267 50.7236 244.17C50.8198 244.073 50.9763 244.073 51.0726 244.17L52.1636 245.268C52.2598 245.365 52.2598 245.522 52.1636 245.619C52.1157 245.668 52.0525 245.691 51.9893 245.691Z" fill="#5800B5"/>
<path d="M54.7916 248.51C54.7284 248.51 54.6652 248.485 54.6168 248.437L53.5258 247.34C53.4295 247.243 53.4295 247.085 53.5258 246.989C53.6221 246.892 53.7786 246.892 53.8748 246.989L54.9658 248.086C55.0621 248.183 55.0621 248.34 54.9658 248.437C54.9175 248.485 54.8548 248.51 54.7916 248.51Z" fill="#5800B5"/>
</g>
<g opacity="0.35">
<path d="M192.614 20.8355C192.477 20.8355 192.367 20.7243 192.367 20.5872V18.8193C192.367 18.6823 192.477 18.571 192.614 18.571C192.75 18.571 192.86 18.6823 192.86 18.8193V20.5872C192.86 20.7248 192.75 20.8355 192.614 20.8355Z" fill="#5800B5"/>
<path d="M192.613 25.3751C192.477 25.3751 192.366 25.2638 192.366 25.1268V23.3589C192.366 23.2218 192.477 23.1106 192.613 23.1106C192.749 23.1106 192.86 23.2218 192.86 23.3589V25.1268C192.86 25.2638 192.749 25.3751 192.613 25.3751Z" fill="#5800B5"/>
<path d="M191.235 22.2219H189.478C189.342 22.2219 189.231 22.1107 189.231 21.9736C189.231 21.8366 189.342 21.7253 189.478 21.7253H191.235C191.371 21.7253 191.482 21.8366 191.482 21.9736C191.482 22.1107 191.371 22.2219 191.235 22.2219Z" fill="#5800B5"/>
<path d="M195.746 22.2219H193.99C193.853 22.2219 193.743 22.1107 193.743 21.9736C193.743 21.8366 193.853 21.7253 193.99 21.7253H195.746C195.883 21.7253 195.993 21.8366 195.993 21.9736C195.993 22.1107 195.883 22.2219 195.746 22.2219Z" fill="#5800B5"/>
<path d="M194.827 24.4522C194.764 24.4522 194.701 24.4279 194.653 24.3797L193.41 23.1293C193.314 23.0325 193.314 22.875 193.41 22.7782C193.506 22.6814 193.663 22.6814 193.759 22.7782L195.002 24.0286C195.098 24.1255 195.098 24.2829 195.002 24.3797C194.954 24.4279 194.891 24.4522 194.827 24.4522Z" fill="#5800B5"/>
<path d="M191.636 21.2423C191.573 21.2423 191.51 21.2179 191.462 21.1698L190.219 19.9198C190.123 19.823 190.123 19.6656 190.219 19.5687C190.315 19.4719 190.472 19.4719 190.568 19.5687L191.811 20.8187C191.907 20.9155 191.907 21.0729 191.811 21.1698C191.763 21.2179 191.7 21.2423 191.636 21.2423Z" fill="#5800B5"/>
<path d="M193.586 21.2423C193.523 21.2423 193.459 21.2179 193.411 21.1698C193.315 21.0729 193.315 20.9155 193.411 20.8187L194.654 19.5687C194.75 19.4719 194.906 19.4719 195.003 19.5687C195.099 19.6656 195.099 19.823 195.003 19.9198L193.76 21.1698C193.712 21.2179 193.649 21.2423 193.586 21.2423Z" fill="#5800B5"/>
<path d="M190.397 24.4522C190.334 24.4522 190.27 24.4279 190.222 24.3797C190.126 24.2829 190.126 24.1255 190.222 24.0286L191.465 22.7782C191.561 22.6814 191.717 22.6814 191.814 22.7782C191.91 22.875 191.91 23.0325 191.814 23.1293L190.571 24.3797C190.523 24.4279 190.46 24.4522 190.397 24.4522Z" fill="#5800B5"/>
</g>
<g opacity="0.35">
<path d="M57.428 38.7649C57.2917 38.7649 57.1812 38.6537 57.1812 38.5166V36.4627C57.1812 36.3256 57.2917 36.2144 57.428 36.2144C57.5642 36.2144 57.6748 36.3256 57.6748 36.4627V38.5166C57.6748 38.6537 57.5642 38.7649 57.428 38.7649Z" fill="#5800B5"/>
<path d="M57.428 44.0393C57.2917 44.0393 57.1812 43.9281 57.1812 43.791V41.7371C57.1812 41.6 57.2917 41.4888 57.428 41.4888C57.5642 41.4888 57.6748 41.6 57.6748 41.7371V43.791C57.6748 43.9286 57.5642 44.0393 57.428 44.0393Z" fill="#5800B5"/>
<path d="M55.8272 40.3748H53.7854C53.6492 40.3748 53.5386 40.2635 53.5386 40.1265C53.5386 39.9894 53.6492 39.8782 53.7854 39.8782H55.8272C55.9634 39.8782 56.074 39.9894 56.074 40.1265C56.074 40.2635 55.9634 40.3748 55.8272 40.3748Z" fill="#5800B5"/>
<path d="M61.0703 40.3748H59.0281C58.8918 40.3748 58.7812 40.2635 58.7812 40.1265C58.7812 39.9894 58.8918 39.8782 59.0281 39.8782H61.0703C61.2066 39.8782 61.3172 39.9894 61.3172 40.1265C61.3172 40.2635 61.2066 40.3748 61.0703 40.3748Z" fill="#5800B5"/>
<path d="M60.0029 42.9656C59.9397 42.9656 59.8765 42.9413 59.8282 42.8931L58.3842 41.4406C58.2879 41.3437 58.2879 41.1863 58.3842 41.0895C58.4805 40.9926 58.637 40.9926 58.7332 41.0895L60.1772 42.542C60.2734 42.6389 60.2734 42.7963 60.1772 42.8931C60.1288 42.9413 60.0656 42.9656 60.0029 42.9656Z" fill="#5800B5"/>
<path d="M56.2954 39.2356C56.2322 39.2356 56.169 39.2113 56.1207 39.1631L54.6767 37.7106C54.5804 37.6138 54.5804 37.4563 54.6767 37.3595C54.773 37.2627 54.9294 37.2627 55.0257 37.3595L56.4697 38.812C56.5659 38.9089 56.5659 39.0663 56.4697 39.1631C56.4218 39.2113 56.3586 39.2356 56.2954 39.2356Z" fill="#5800B5"/>
<path d="M58.559 39.2356C58.4958 39.2356 58.4326 39.2113 58.3842 39.1631C58.2879 39.0663 58.2879 38.9089 58.3842 38.812L59.8282 37.3595C59.9244 37.2627 60.0809 37.2627 60.1772 37.3595C60.2734 37.4563 60.2734 37.6138 60.1772 37.7106L58.7332 39.1631C58.6853 39.2113 58.6222 39.2356 58.559 39.2356Z" fill="#5800B5"/>
<path d="M54.8514 42.9656C54.7883 42.9656 54.7251 42.9413 54.6767 42.8931C54.5804 42.7963 54.5804 42.6389 54.6767 42.542L56.1207 41.0895C56.2169 40.9926 56.3734 40.9926 56.4697 41.0895C56.5659 41.1863 56.5659 41.3437 56.4697 41.4406L55.0257 42.8931C54.9778 42.9413 54.9146 42.9656 54.8514 42.9656Z" fill="#5800B5"/>
</g>
<path d="M48.0707 28.0752H47.7303C46.7282 28.0752 46.2271 26.8569 46.9353 26.1445L47.176 25.9024C47.6152 25.4606 47.6152 24.7438 47.176 24.302L46.2683 23.389C45.8291 22.9472 45.1175 22.9472 44.6774 23.389L44.4368 23.632C43.7285 24.3435 42.5175 23.8395 42.5175 22.8313V22.4889C42.5175 21.8638 42.0139 21.3572 41.3933 21.3572H40.1101C39.4887 21.3572 38.985 21.8638 38.985 22.4889V22.8313C38.985 23.8395 37.774 24.3435 37.0658 23.632L36.8251 23.389C36.3859 22.9472 35.6742 22.9472 35.2342 23.389L34.3274 24.302C33.8874 24.7438 33.8874 25.4606 34.3274 25.9024L34.5681 26.1445C35.2763 26.8569 34.7744 28.0752 33.7731 28.0752H33.4318C32.8113 28.0752 32.3076 28.5818 32.3076 29.2069V30.4969C32.3076 31.1221 32.8113 31.6287 33.4318 31.6287H33.7731C34.7744 31.6287 35.2763 32.8469 34.5681 33.5594L34.3274 33.8015C33.8874 34.2433 33.8874 34.96 34.3274 35.4019L35.2342 36.3149C35.6742 36.7567 36.3859 36.7567 36.8251 36.3149L37.0658 36.0728C37.774 35.3604 38.985 35.8644 38.985 36.8726V37.2149C38.985 37.8401 39.4887 38.3467 40.1101 38.3467H41.3933C42.0139 38.3467 42.5175 37.8401 42.5175 37.2149V36.8726C42.5175 35.8644 43.7285 35.3604 44.4368 36.0728L44.6774 36.3149C45.1175 36.7567 45.8291 36.7567 46.2683 36.3149L47.176 35.4019C47.6152 34.96 47.6152 34.2433 47.176 33.8015L46.9353 33.5594C46.2271 32.8469 46.729 31.6287 47.7303 31.6287H48.0707C48.6921 31.6287 49.1958 31.1221 49.1958 30.4969V29.2069C49.1949 28.5818 48.6921 28.0752 48.0707 28.0752ZM40.7513 32.8772C39.0899 32.8772 37.7439 31.5232 37.7439 29.8519C37.7439 28.1807 39.0899 26.8267 40.7513 26.8267C42.4127 26.8267 43.7595 28.1807 43.7595 29.8519C43.7595 31.5232 42.4127 32.8772 40.7513 32.8772Z" fill="#642CFF"/>
<path d="M80.4936 166.907H80.2704C79.613 166.907 79.2843 166.108 79.7489 165.64L79.9067 165.481C80.1948 165.192 80.1948 164.721 79.9067 164.432L79.3114 163.833C79.0233 163.543 78.5565 163.543 78.2678 163.833L78.1099 163.992C77.6454 164.459 76.851 164.128 76.851 163.467V163.242C76.851 162.832 76.5206 162.5 76.1136 162.5H75.2719C74.8642 162.5 74.5339 162.832 74.5339 163.242V163.467C74.5339 164.128 73.7395 164.459 73.2749 163.992L73.1171 163.833C72.829 163.543 72.3622 163.543 72.0735 163.833L71.4787 164.432C71.19 164.721 71.19 165.192 71.4787 165.481L71.6366 165.64C72.1011 166.108 71.7719 166.907 71.1151 166.907H70.8912C70.4842 166.907 70.1538 167.239 70.1538 167.649V168.495C70.1538 168.905 70.4842 169.238 70.8912 169.238H71.1151C71.7719 169.238 72.1011 170.037 71.6366 170.504L71.4787 170.663C71.19 170.953 71.19 171.423 71.4787 171.713L72.0735 172.312C72.3622 172.601 72.829 172.601 73.1171 172.312L73.2749 172.153C73.7395 171.685 74.5339 172.016 74.5339 172.677V172.902C74.5339 173.312 74.8642 173.644 75.2719 173.644H76.1136C76.5206 173.644 76.851 173.312 76.851 172.902V172.677C76.851 172.016 77.6454 171.685 78.1099 172.153L78.2678 172.312C78.5565 172.601 79.0233 172.601 79.3114 172.312L79.9067 171.713C80.1948 171.423 80.1948 170.953 79.9067 170.663L79.7489 170.504C79.2843 170.037 79.6136 169.238 80.2704 169.238H80.4936C80.9012 169.238 81.2316 168.905 81.2316 168.495V167.649C81.2311 167.239 80.9012 166.907 80.4936 166.907ZM75.6924 170.057C74.6026 170.057 73.7198 169.168 73.7198 168.072C73.7198 166.976 74.6026 166.088 75.6924 166.088C76.7822 166.088 77.6657 166.976 77.6657 168.072C77.6657 169.168 76.7822 170.057 75.6924 170.057Z" fill="#642CFF"/>
<path d="M169.867 25.5715C172.658 25.5717 174.925 27.8487 174.925 30.6633C174.925 33.4777 172.658 35.754 169.867 35.7542C167.077 35.7542 164.809 33.4778 164.809 30.6633C164.809 27.8486 167.076 25.5715 169.867 25.5715Z" fill="white" stroke="#652EFF"/>
<path d="M169.868 33.1911C171.256 33.1911 172.381 32.0592 172.381 30.6629C172.381 29.2666 171.256 28.1348 169.868 28.1348C168.48 28.1348 167.354 29.2666 167.354 30.6629C167.354 32.0592 168.48 33.1911 169.868 33.1911Z" fill="#652EFF"/>
<path d="M181.867 93.3572C184.658 93.3574 186.925 95.6344 186.925 98.449C186.925 101.263 184.658 103.54 181.867 103.54C179.077 103.54 176.809 101.263 176.809 98.449C176.809 95.6343 179.076 93.3572 181.867 93.3572Z" fill="white" stroke="#652EFF"/>
<path d="M181.868 100.977C183.256 100.977 184.381 99.8451 184.381 98.4488C184.381 97.0525 183.256 95.9207 181.868 95.9207C180.48 95.9207 179.354 97.0525 179.354 98.4488C179.354 99.8451 180.48 100.977 181.868 100.977Z" fill="#652EFF"/>
<path d="M209.56 164.857C212.35 164.857 214.617 167.134 214.617 169.949C214.617 172.763 212.35 175.04 209.56 175.04C206.769 175.04 204.501 172.763 204.501 169.949C204.501 167.134 206.769 164.857 209.56 164.857Z" fill="white" stroke="#652EFF"/>
<path d="M209.56 172.477C210.948 172.477 212.073 171.345 212.073 169.949C212.073 168.553 210.948 167.421 209.56 167.421C208.172 167.421 207.047 168.553 207.047 169.949C207.047 171.345 208.172 172.477 209.56 172.477Z" fill="#652EFF"/>
<path d="M191.098 196.429C193.889 196.429 196.156 198.706 196.156 201.521C196.156 204.335 193.889 206.611 191.098 206.611C188.307 206.611 186.04 204.335 186.04 201.521C186.04 198.706 188.307 196.429 191.098 196.429Z" fill="white" stroke="#652EFF"/>
<path d="M191.099 204.048C192.487 204.048 193.612 202.917 193.612 201.52C193.612 200.124 192.487 198.992 191.099 198.992C189.711 198.992 188.585 200.124 188.585 201.52C188.585 202.917 189.711 204.048 191.099 204.048Z" fill="#652EFF"/>
<path d="M180.021 240.072C182.812 240.072 185.079 242.349 185.079 245.163C185.078 247.978 182.812 250.254 180.021 250.254C177.23 250.254 174.963 247.978 174.962 245.163C174.962 242.349 177.23 240.072 180.021 240.072Z" fill="white" stroke="#652EFF"/>
<path d="M180.022 247.691C181.41 247.691 182.535 246.559 182.535 245.163C182.535 243.767 181.41 242.635 180.022 242.635C178.634 242.635 177.508 243.767 177.508 245.163C177.508 246.559 178.634 247.691 180.022 247.691Z" fill="#652EFF"/>
<path d="M124.636 241C127.427 241 129.694 243.277 129.694 246.092C129.694 248.906 127.427 251.182 124.636 251.183C121.846 251.183 119.578 248.906 119.578 246.092C119.578 243.277 121.845 241 124.636 241Z" fill="white" stroke="#652EFF"/>
<path d="M124.637 248.62C126.025 248.62 127.15 247.488 127.15 246.091C127.15 244.695 126.025 243.563 124.637 243.563C123.249 243.563 122.124 244.695 122.124 246.091C122.124 247.488 123.249 248.62 124.637 248.62Z" fill="#652EFF"/>
<path d="M76.6362 227.072C79.4269 227.072 81.6938 229.349 81.6938 232.163C81.6936 234.978 79.4267 237.254 76.6362 237.254C73.8456 237.254 71.5779 234.978 71.5776 232.163C71.5776 229.349 73.8454 227.072 76.6362 227.072Z" fill="white" stroke="#652EFF"/>
<path d="M76.6372 234.691C78.0252 234.691 79.1504 233.559 79.1504 232.163C79.1504 230.767 78.0252 229.635 76.6372 229.635C75.2492 229.635 74.124 230.767 74.124 232.163C74.124 233.559 75.2492 234.691 76.6372 234.691Z" fill="#652EFF"/>
<path d="M60.021 100.786C62.8117 100.786 65.0786 103.063 65.0786 105.877C65.0784 108.692 62.8115 110.968 60.021 110.968C57.2303 110.968 54.9626 108.692 54.9624 105.877C54.9624 103.063 57.2302 100.786 60.021 100.786Z" fill="white" stroke="#652EFF"/>
<path d="M60.0215 108.405C61.4095 108.405 62.5347 107.273 62.5347 105.877C62.5347 104.481 61.4095 103.349 60.0215 103.349C58.6335 103.349 57.5083 104.481 57.5083 105.877C57.5083 107.273 58.6335 108.405 60.0215 108.405Z" fill="#652EFF"/>
<path d="M40.6362 74.7859C43.4269 74.7861 45.6938 77.0631 45.6938 79.8777C45.6936 82.6921 43.4267 84.9683 40.6362 84.9685C37.8456 84.9685 35.5779 82.6922 35.5776 79.8777C35.5776 77.063 37.8454 74.7859 40.6362 74.7859Z" fill="white" stroke="#652EFF"/>
<path d="M40.6372 82.4054C42.0252 82.4054 43.1504 81.2735 43.1504 79.8773C43.1504 78.481 42.0252 77.3491 40.6372 77.3491C39.2492 77.3491 38.124 78.481 38.124 79.8773C38.124 81.2735 39.2492 82.4054 40.6372 82.4054Z" fill="#652EFF"/>
<path d="M40.6362 46.9285C43.4269 46.9286 45.6938 49.2057 45.6938 52.0203C45.6936 54.8347 43.4267 57.1109 40.6362 57.1111C37.8456 57.1111 35.5779 54.8348 35.5776 52.0203C35.5776 49.2056 37.8454 46.9285 40.6362 46.9285Z" fill="white" stroke="#652EFF"/>
<path d="M40.6372 54.548C42.0252 54.548 43.1504 53.4161 43.1504 52.0198C43.1504 50.6236 42.0252 49.4917 40.6372 49.4917C39.2492 49.4917 38.124 50.6236 38.124 52.0198C38.124 53.4161 39.2492 54.548 40.6372 54.548Z" fill="#652EFF"/>
<path d="M60.9443 8.85718C63.735 8.85736 66.002 11.1344 66.002 13.949C66.0017 16.7634 63.7349 19.0396 60.9443 19.0398C58.1537 19.0398 55.886 16.7635 55.8857 13.949C55.8857 11.1343 58.1535 8.85718 60.9443 8.85718Z" fill="white" stroke="#652EFF"/>
<path d="M60.9448 16.4767C62.3329 16.4767 63.4581 15.3448 63.4581 13.9485C63.4581 12.5523 62.3329 11.4204 60.9448 11.4204C59.5568 11.4204 58.4316 12.5523 58.4316 13.9485C58.4316 15.3448 59.5568 16.4767 60.9448 16.4767Z" fill="#652EFF"/>
<path d="M117.252 8.85718C120.043 8.85736 122.31 11.1344 122.31 13.949C122.309 16.7634 120.042 19.0396 117.252 19.0398C114.461 19.0398 112.194 16.7635 112.193 13.949C112.193 11.1343 114.461 8.85718 117.252 8.85718Z" fill="white" stroke="#652EFF"/>
<path d="M117.252 16.4767C118.64 16.4767 119.766 15.3448 119.766 13.9485C119.766 12.5523 118.64 11.4204 117.252 11.4204C115.864 11.4204 114.739 12.5523 114.739 13.9485C114.739 15.3448 115.864 16.4767 117.252 16.4767Z" fill="#652EFF"/>
</svg>
