<svg width="266" height="275" viewBox="0 0 266 275" fill="none" xmlns="http://www.w3.org/2000/svg">
<path d="M78.6025 80.3719H203.396C205.469 80.372 207.151 82.0567 207.151 84.1385V164.224H74.8477V84.1385C74.8478 82.0567 76.5301 80.3719 78.6025 80.3719Z" fill="white" stroke="#652EFF"/>
<path d="M214.241 159.659C214.028 163.789 211.2 166.916 207.91 166.916H74.0879C70.7983 166.916 67.9696 163.789 67.7568 159.659H214.241Z" fill="white" stroke="#652EFF"/>
<path opacity="0.2" d="M128.579 162.254H153.42C153.834 162.254 154.173 162.591 154.173 163.011C154.173 163.43 153.835 163.768 153.42 163.768H128.579C128.164 163.768 127.826 163.43 127.826 163.011C127.826 162.592 128.165 162.254 128.579 162.254Z" fill="white" stroke="#652EFF"/>
<g opacity="0.2">
<path d="M96.8857 161.8C97.5512 161.8 98.0928 162.341 98.0928 163.011C98.0927 163.681 97.5512 164.222 96.8857 164.222C96.2203 164.222 95.6788 163.681 95.6787 163.011C95.6787 162.341 96.2202 161.8 96.8857 161.8Z" fill="white" stroke="#652EFF"/>
<path d="M89.1621 161.8C89.8276 161.8 90.3691 162.341 90.3691 163.011C90.3691 163.681 89.8275 164.222 89.1621 164.222C88.4966 164.222 87.9551 163.681 87.9551 163.011C87.9551 162.341 88.4966 161.8 89.1621 161.8Z" fill="white" stroke="#652EFF"/>
<path d="M81.4375 161.8C82.103 161.8 82.6445 162.341 82.6445 163.011C82.6445 163.681 82.1029 164.222 81.4375 164.222C80.772 164.222 80.2305 163.681 80.2305 163.011C80.2305 162.341 80.772 161.8 81.4375 161.8Z" fill="white" stroke="#652EFF"/>
</g>
<path d="M203.242 86.957H78.7559V155.498H203.242V86.957Z" fill="white"/>
<path opacity="0.6" d="M140.999 85.6318C142.226 85.6318 143.22 84.6352 143.22 83.4057C143.22 82.1763 142.226 81.1797 140.999 81.1797C139.773 81.1797 138.778 82.1763 138.778 83.4057C138.778 84.6352 139.773 85.6318 140.999 85.6318Z" fill="#AE62FF"/>
<g opacity="0.24">
<path d="M197.213 86.957V155.498" stroke="#AE62FF" stroke-width="0.5" stroke-miterlimit="10"/>
<path d="M190.6 86.957V155.498" stroke="#AE62FF" stroke-width="0.5" stroke-miterlimit="10"/>
<path d="M183.986 86.957V155.498" stroke="#AE62FF" stroke-width="0.5" stroke-miterlimit="10"/>
<path d="M177.373 86.957V155.498" stroke="#AE62FF" stroke-width="0.5" stroke-miterlimit="10"/>
<path d="M170.759 86.957V155.498" stroke="#AE62FF" stroke-width="0.5" stroke-miterlimit="10"/>
<path d="M164.146 86.957V155.498" stroke="#AE62FF" stroke-width="0.5" stroke-miterlimit="10"/>
<path d="M157.532 86.957V155.498" stroke="#AE62FF" stroke-width="0.5" stroke-miterlimit="10"/>
<path d="M150.92 86.957V155.498" stroke="#AE62FF" stroke-width="0.5" stroke-miterlimit="10"/>
<path d="M144.306 86.957V155.498" stroke="#AE62FF" stroke-width="0.5" stroke-miterlimit="10"/>
<path d="M137.692 86.957V155.498" stroke="#AE62FF" stroke-width="0.5" stroke-miterlimit="10"/>
<path d="M131.079 86.957V155.498" stroke="#AE62FF" stroke-width="0.5" stroke-miterlimit="10"/>
<path d="M124.467 86.957V155.498" stroke="#AE62FF" stroke-width="0.5" stroke-miterlimit="10"/>
<path d="M117.853 86.957V155.498" stroke="#AE62FF" stroke-width="0.5" stroke-miterlimit="10"/>
<path d="M111.239 86.957V155.498" stroke="#AE62FF" stroke-width="0.5" stroke-miterlimit="10"/>
<path d="M104.626 86.957V155.498" stroke="#AE62FF" stroke-width="0.5" stroke-miterlimit="10"/>
<path d="M98.0137 86.957V155.498" stroke="#AE62FF" stroke-width="0.5" stroke-miterlimit="10"/>
<path d="M91.3994 86.957V155.498" stroke="#AE62FF" stroke-width="0.5" stroke-miterlimit="10"/>
<path d="M84.7861 86.957V155.498" stroke="#AE62FF" stroke-width="0.5" stroke-miterlimit="10"/>
<path d="M203.154 149.749H78.8457" stroke="#AE62FF" stroke-width="0.5" stroke-miterlimit="10"/>
<path d="M203.154 143.411H78.8457" stroke="#AE62FF" stroke-width="0.5" stroke-miterlimit="10"/>
<path d="M203.154 137.072H78.8457" stroke="#AE62FF" stroke-width="0.5" stroke-miterlimit="10"/>
<path d="M203.154 130.735H78.8457" stroke="#AE62FF" stroke-width="0.5" stroke-miterlimit="10"/>
<path d="M203.154 124.396H78.8457" stroke="#AE62FF" stroke-width="0.5" stroke-miterlimit="10"/>
<path d="M203.154 118.059H78.8457" stroke="#AE62FF" stroke-width="0.5" stroke-miterlimit="10"/>
<path d="M203.154 111.72H78.8457" stroke="#AE62FF" stroke-width="0.5" stroke-miterlimit="10"/>
<path d="M203.154 105.382H78.8457" stroke="#AE62FF" stroke-width="0.5" stroke-miterlimit="10"/>
<path d="M203.154 99.0438H78.8457" stroke="#AE62FF" stroke-width="0.5" stroke-miterlimit="10"/>
<path d="M203.154 92.7059H78.8457" stroke="#AE62FF" stroke-width="0.5" stroke-miterlimit="10"/>
</g>
<path d="M183.986 92.7058H98.0127V99.0444H183.986V92.7058Z" stroke="#D9CDFC" stroke-miterlimit="10"/>
<path d="M183.985 143.411H98.0137V149.749H183.985V143.411Z" stroke="#D9CDFC" stroke-miterlimit="10"/>
<path d="M183.986 99.0438H98.0127V124.396H183.986V99.0438Z" stroke="#D9CDFC" stroke-miterlimit="10"/>
<path d="M183.985 124.396H157.534V143.41H183.985V124.396Z" stroke="#D9CDFC" stroke-miterlimit="10"/>
<path d="M157.535 124.396H124.466V143.41H157.535V124.396Z" stroke="#D9CDFC" stroke-miterlimit="10"/>
<path d="M124.466 124.396H98.0127V143.41H124.466V124.396Z" stroke="#D9CDFC" stroke-miterlimit="10"/>
<path d="M157.557 132.427H141.694V133.552H157.557V132.427Z" fill="#D9CDFC"/>
<path d="M161.391 132.427H158.482V133.552H161.391V132.427Z" fill="#D9CDFC"/>
<path d="M170.777 132.427H163.439V133.552H170.777V132.427Z" fill="#D9CDFC"/>
<path d="M146.717 130.34H141.694V131.466H146.717V130.34Z" fill="#D9CDFC"/>
<path d="M168.727 130.34H148.039V131.466H168.727V130.34Z" fill="#D9CDFC"/>
<path d="M176.262 130.34H170.115V131.466H176.262V130.34Z" fill="#D9CDFC"/>
<path d="M150.022 128.253H141.694V129.379H150.022V128.253Z" fill="#D9CDFC"/>
<path d="M154.12 128.253H151.014V129.379H154.12V128.253Z" fill="#D9CDFC"/>
<path d="M160.994 128.253H155.045V129.379H160.994V128.253Z" fill="#D9CDFC"/>
<path d="M139.861 129.164C140.098 129.164 140.289 128.972 140.289 128.736C140.289 128.499 140.098 128.307 139.861 128.307C139.625 128.307 139.434 128.499 139.434 128.736C139.434 128.972 139.625 129.164 139.861 129.164Z" fill="#F0F6FA"/>
<path d="M139.861 131.34C140.098 131.34 140.289 131.148 140.289 130.912C140.289 130.675 140.098 130.483 139.861 130.483C139.625 130.483 139.434 130.675 139.434 130.912C139.434 131.148 139.625 131.34 139.861 131.34Z" fill="#F0F6FA"/>
<path d="M139.861 133.517C140.098 133.517 140.289 133.325 140.289 133.088C140.289 132.851 140.098 132.659 139.861 132.659C139.625 132.659 139.434 132.851 139.434 133.088C139.434 133.325 139.625 133.517 139.861 133.517Z" fill="#F0F6FA"/>
<path d="M150.948 140.448H141.694V141.573H150.948V140.448Z" fill="#D9CDFC"/>
<path d="M164.431 140.448H152.138V141.573H164.431V140.448Z" fill="#D9CDFC"/>
<path d="M171.172 140.448H165.885V141.573H171.172V140.448Z" fill="#D9CDFC"/>
<path d="M149.493 138.427H141.694V139.553H149.493V138.427Z" fill="#D9CDFC"/>
<path d="M159.974 138.427H150.588V139.553H159.974V138.427Z" fill="#D9CDFC"/>
<path d="M166.479 138.427H160.993V139.553H166.479V138.427Z" fill="#D9CDFC"/>
<path d="M144.404 136.406H141.694V137.532H144.404V136.406Z" fill="#D9CDFC"/>
<path d="M153.194 136.406H145.461V137.532H153.194V136.406Z" fill="#D9CDFC"/>
<path d="M139.861 137.261C140.098 137.261 140.289 137.069 140.289 136.832C140.289 136.596 140.098 136.404 139.861 136.404C139.625 136.404 139.434 136.596 139.434 136.832C139.434 137.069 139.625 137.261 139.861 137.261Z" fill="#D9CDFC"/>
<path d="M139.861 139.437C140.098 139.437 140.289 139.245 140.289 139.009C140.289 138.772 140.098 138.58 139.861 138.58C139.625 138.58 139.434 138.772 139.434 139.009C139.434 139.245 139.625 139.437 139.861 139.437Z" fill="#D9CDFC"/>
<path d="M139.861 141.613C140.098 141.613 140.289 141.421 140.289 141.185C140.289 140.948 140.098 140.756 139.861 140.756C139.625 140.756 139.434 140.948 139.434 141.185C139.434 141.421 139.625 141.613 139.861 141.613Z" fill="#D9CDFC"/>
<path d="M112.098 105.411H104.178V106.537H112.098V105.411Z" fill="#D9CDFC"/>
<path d="M114.011 105.411H112.56V106.537H114.011V105.411Z" fill="#D9CDFC"/>
<path d="M118.698 105.411H115.035V106.537H118.698V105.411Z" fill="#D9CDFC"/>
<path d="M106.686 103.324H104.178V104.45H106.686V103.324Z" fill="#D9CDFC"/>
<path d="M117.674 103.324H107.345V104.45H117.674V103.324Z" fill="#D9CDFC"/>
<path d="M121.437 103.324H118.368V104.45H121.437V103.324Z" fill="#D9CDFC"/>
<path d="M108.336 101.237H104.178V102.363H108.336V101.237Z" fill="#D9CDFC"/>
<path d="M110.381 101.237H108.83V102.363H110.381V101.237Z" fill="#D9CDFC"/>
<path d="M113.813 101.237H110.843V102.363H113.813V101.237Z" fill="#D9CDFC"/>
<path d="M102.345 102.149C102.581 102.149 102.772 101.957 102.772 101.72C102.772 101.483 102.581 101.291 102.345 101.291C102.108 101.291 101.917 101.483 101.917 101.72C101.917 101.957 102.108 102.149 102.345 102.149Z" fill="#F0F6FA"/>
<path d="M102.345 104.325C102.581 104.325 102.772 104.133 102.772 103.896C102.772 103.66 102.581 103.468 102.345 103.468C102.108 103.468 101.917 103.66 101.917 103.896C101.917 104.133 102.108 104.325 102.345 104.325Z" fill="#F0F6FA"/>
<path d="M102.345 106.501C102.581 106.501 102.772 106.309 102.772 106.072C102.772 105.835 102.581 105.643 102.345 105.643C102.108 105.643 101.917 105.835 101.917 106.072C101.917 106.309 102.108 106.501 102.345 106.501Z" fill="#F0F6FA"/>
<path d="M137.122 234.358V249.51H40.8623V234.358H137.122Z" fill="white" stroke="#652EFF"/>
<path d="M51.4414 238.938C53.3196 238.938 54.8438 240.465 54.8438 242.35C54.8437 244.235 53.3195 245.762 51.4414 245.762C49.5631 245.762 48.0382 244.235 48.0381 242.35C48.0381 240.465 49.5631 238.938 51.4414 238.938Z" fill="white" stroke="#652AC1"/>
<path d="M62.1992 238.938C64.0774 238.938 65.6016 240.465 65.6016 242.35C65.6015 244.235 64.0773 245.762 62.1992 245.762C60.3209 245.762 58.796 244.235 58.7959 242.35C58.7959 240.465 60.3209 238.938 62.1992 238.938Z" fill="white" stroke="#652AC1"/>
<path d="M72.958 238.938C74.8362 238.938 76.3604 240.465 76.3604 242.35C76.3603 244.235 74.8361 245.762 72.958 245.762C71.0797 245.762 69.5548 244.235 69.5547 242.35C69.5547 240.465 71.0797 238.938 72.958 238.938Z" fill="white" stroke="#652AC1"/>
<path d="M118.135 242.173H114.055V246.263H118.135V242.173Z" fill="#AE62FF"/>
<path d="M124.411 242.173H120.33V246.263H124.411V242.173Z" fill="#AE62FF"/>
<path d="M130.687 242.173H126.605V246.263H130.687V242.173Z" fill="#AE62FF"/>
<path opacity="0.6" d="M130.816 238.73C130.816 238.874 130.7 238.989 130.558 238.989H114.313C114.17 238.989 114.055 238.873 114.055 238.73C114.055 238.587 114.17 238.472 114.313 238.472H130.558C130.7 238.471 130.816 238.587 130.816 238.73Z" fill="#AE62FF"/>
<path opacity="0.6" d="M130.816 240.001C130.816 240.144 130.7 240.259 130.558 240.259H114.313C114.17 240.259 114.055 240.143 114.055 240.001C114.055 239.857 114.17 239.742 114.313 239.742H130.558C130.7 239.742 130.816 239.857 130.816 240.001Z" fill="#AE62FF"/>
<path d="M137.122 216.316V231.469H40.8623V216.316H137.122Z" fill="white" stroke="#652EFF"/>
<path d="M51.4414 220.897C53.3196 220.897 54.8438 222.423 54.8438 224.309C54.8437 226.194 53.3195 227.721 51.4414 227.721C49.5631 227.721 48.0382 226.194 48.0381 224.309C48.0381 222.423 49.5631 220.897 51.4414 220.897Z" fill="white" stroke="#652AC1"/>
<path d="M62.1992 220.897C64.0774 220.897 65.6016 222.423 65.6016 224.309C65.6015 226.194 64.0773 227.721 62.1992 227.721C60.3209 227.721 58.796 226.194 58.7959 224.309C58.7959 222.423 60.3209 220.897 62.1992 220.897Z" fill="white" stroke="#652AC1"/>
<path d="M72.958 220.897C74.8362 220.897 76.3604 222.423 76.3604 224.309C76.3603 226.194 74.8361 227.721 72.958 227.721C71.0797 227.721 69.5548 226.194 69.5547 224.309C69.5547 222.423 71.0797 220.897 72.958 220.897Z" fill="white" stroke="#652AC1"/>
<path d="M118.135 224.131H114.055V228.221H118.135V224.131Z" fill="#AE62FF"/>
<path d="M124.411 224.131H120.33V228.221H124.411V224.131Z" fill="#AE62FF"/>
<path d="M130.687 224.131H126.605V228.221H130.687V224.131Z" fill="#AE62FF"/>
<path opacity="0.6" d="M130.816 220.689C130.816 220.833 130.7 220.948 130.558 220.948H114.313C114.17 220.948 114.055 220.832 114.055 220.689C114.055 220.546 114.17 220.431 114.313 220.431H130.558C130.7 220.43 130.816 220.546 130.816 220.689Z" fill="#AE62FF"/>
<path opacity="0.6" d="M130.816 221.96C130.816 222.103 130.7 222.218 130.558 222.218H114.313C114.17 222.218 114.055 222.102 114.055 221.96C114.055 221.816 114.17 221.701 114.313 221.701H130.558C130.7 221.701 130.816 221.816 130.816 221.96Z" fill="#AE62FF"/>
<path d="M137.122 197.273V212.425H40.8623V197.273H137.122Z" fill="white" stroke="#652EFF"/>
<path d="M51.4414 201.853C53.3196 201.853 54.8438 203.38 54.8438 205.265C54.8437 207.15 53.3195 208.677 51.4414 208.677C49.5631 208.677 48.0382 207.15 48.0381 205.265C48.0381 203.38 49.5631 201.853 51.4414 201.853Z" fill="white" stroke="#652AC1"/>
<path d="M62.1992 201.853C64.0774 201.853 65.6016 203.38 65.6016 205.265C65.6015 207.15 64.0773 208.677 62.1992 208.677C60.3209 208.677 58.796 207.15 58.7959 205.265C58.7959 203.38 60.3209 201.853 62.1992 201.853Z" fill="white" stroke="#652AC1"/>
<path d="M72.958 201.853C74.8362 201.853 76.3604 203.38 76.3604 205.265C76.3603 207.15 74.8361 208.677 72.958 208.677C71.0797 208.677 69.5548 207.15 69.5547 205.265C69.5547 203.38 71.0797 201.853 72.958 201.853Z" fill="white" stroke="#652AC1"/>
<path d="M118.135 205.088H114.055V209.178H118.135V205.088Z" fill="#AE62FF"/>
<path d="M124.411 205.088H120.33V209.178H124.411V205.088Z" fill="#AE62FF"/>
<path d="M130.687 205.088H126.605V209.178H130.687V205.088Z" fill="#AE62FF"/>
<path opacity="0.6" d="M130.816 201.645C130.816 201.789 130.7 201.904 130.558 201.904H114.313C114.17 201.904 114.055 201.788 114.055 201.645C114.055 201.503 114.17 201.387 114.313 201.387H130.558C130.7 201.387 130.816 201.503 130.816 201.645Z" fill="#AE62FF"/>
<path opacity="0.6" d="M130.816 202.916C130.816 203.059 130.7 203.174 130.558 203.174H114.313C114.17 203.174 114.055 203.058 114.055 202.916C114.055 202.772 114.17 202.657 114.313 202.657H130.558C130.7 202.657 130.816 202.772 130.816 202.916Z" fill="#AE62FF"/>
<path d="M161.3 105.498C162.187 105.498 162.907 104.777 162.907 103.887C162.907 102.997 162.187 102.276 161.3 102.276C160.412 102.276 159.692 102.997 159.692 103.887C159.692 104.777 160.412 105.498 161.3 105.498Z" fill="#5800B5"/>
<path d="M117.992 118.399C118.88 118.399 119.599 117.677 119.599 116.788C119.599 115.898 118.88 115.177 117.992 115.177C117.104 115.177 116.385 115.898 116.385 116.788C116.385 117.677 117.104 118.399 117.992 118.399Z" fill="#5800B5"/>
<path d="M194.886 82.7837V41.0129" stroke="#652EFF" stroke-width="1.5" stroke-linecap="round" stroke-linejoin="round" stroke-dasharray="1.03 4.11"/>
<path d="M194.886 39.6953V39.3756" stroke="#652EFF" stroke-width="1.5" stroke-linecap="round" stroke-linejoin="round"/>
<path d="M134.987 12.6348H135.307" stroke="#652EFF" stroke-width="1.5" stroke-linecap="round" stroke-linejoin="round"/>
<path d="M137.828 12.6348H193.305" stroke="#652EFF" stroke-width="1.5" stroke-linecap="round" stroke-linejoin="round" stroke-dasharray="0.99 3.94"/>
<path d="M194.565 12.6348H194.885V12.9544" stroke="#652EFF" stroke-width="1.5" stroke-linecap="round" stroke-linejoin="round"/>
<path d="M194.886 15.6266V30.9866" stroke="#652EFF" stroke-width="1.5" stroke-linecap="round" stroke-linejoin="round" stroke-dasharray="1.04 4.17"/>
<path d="M194.886 32.3225V32.6422" stroke="#652EFF" stroke-width="1.5" stroke-linecap="round" stroke-linejoin="round"/>
<path d="M161.3 103.887H161.619" stroke="#652EFF" stroke-width="1.5" stroke-linecap="round" stroke-linejoin="round"/>
<path d="M164.188 103.887H236.744" stroke="#652EFF" stroke-width="1.5" stroke-linecap="round" stroke-linejoin="round" stroke-dasharray="1 4.02"/>
<path d="M238.028 103.887H238.348V104.207" stroke="#652EFF" stroke-width="1.5" stroke-linecap="round" stroke-linejoin="round"/>
<path d="M238.348 106.991V184.195" stroke="#652EFF" stroke-width="1.5" stroke-linecap="round" stroke-linejoin="round" stroke-dasharray="1.09 4.34"/>
<path d="M202.764 262.402H203.083" stroke="#652EFF" stroke-width="1.5" stroke-linecap="round" stroke-linejoin="round"/>
<path d="M205.575 262.402H216.784" stroke="#652EFF" stroke-width="1.5" stroke-linecap="round" stroke-linejoin="round" stroke-dasharray="0.97 3.9"/>
<path d="M218.028 262.401H218.348V262.081" stroke="#652EFF" stroke-width="1.5" stroke-linecap="round" stroke-linejoin="round"/>
<path d="M218.348 259.383V215.073" stroke="#652EFF" stroke-width="1.5" stroke-linecap="round" stroke-linejoin="round" stroke-dasharray="1.05 4.21"/>
<path d="M218.348 235.774V235.455" stroke="#652EFF" stroke-width="1.5" stroke-linecap="round" stroke-linejoin="round"/>
<path d="M118.775 146.857H118.455" stroke="#652EFF" stroke-width="1.5" stroke-linecap="round" stroke-linejoin="round"/>
<path d="M115.92 146.857H94.998" stroke="#652EFF" stroke-width="1.5" stroke-linecap="round" stroke-linejoin="round" stroke-dasharray="0.99 3.97"/>
<path d="M93.7298 146.857H93.4102V147.176" stroke="#652EFF" stroke-width="1.5" stroke-linecap="round" stroke-linejoin="round"/>
<path d="M93.4102 149.877V196.783V175.532" stroke="#652EFF" stroke-width="1.5" stroke-linecap="round" stroke-linejoin="round" stroke-dasharray="1.05 4.21"/>
<path d="M93.4102 176.881V177.201" stroke="#652EFF" stroke-width="1.5" stroke-linecap="round" stroke-linejoin="round"/>
<path d="M149.552 263.683H149.232" stroke="#652EFF" stroke-width="1.5" stroke-linecap="round" stroke-linejoin="round"/>
<path d="M146.739 263.683H94.9775" stroke="#652EFF" stroke-width="1.5" stroke-linecap="round" stroke-linejoin="round" stroke-dasharray="0.98 3.9"/>
<path d="M93.7298 263.683H93.4102V263.363" stroke="#652EFF" stroke-width="1.5" stroke-linecap="round" stroke-linejoin="round"/>
<path d="M93.4102 260.652V251.84" stroke="#652EFF" stroke-width="1.5" stroke-linecap="round" stroke-linejoin="round" stroke-dasharray="1.06 4.23"/>
<path d="M93.4102 250.483V250.164" stroke="#652EFF" stroke-width="1.5" stroke-linecap="round" stroke-linejoin="round"/>
<path d="M54.6396 99.5225V99.8421" stroke="#652EFF" stroke-width="1.5" stroke-linecap="round" stroke-linejoin="round"/>
<path d="M54.6396 82.23V110.184" stroke="#652EFF" stroke-width="1.5" stroke-linecap="round" stroke-linejoin="round" stroke-dasharray="0.95 3.8"/>
<path d="M54.6396 111.4V111.72H54.9593" stroke="#652EFF" stroke-width="1.5" stroke-linecap="round" stroke-linejoin="round"/>
<path d="M57.5137 111.72H126.49" stroke="#652EFF" stroke-width="1.5" stroke-linecap="round" stroke-linejoin="round" stroke-dasharray="1 4"/>
<path d="M127.768 111.72H128.087" stroke="#652EFF" stroke-width="1.5" stroke-linecap="round" stroke-linejoin="round"/>
<path d="M54.6406 50.691V50.3713" stroke="#652EFF" stroke-width="1.5" stroke-linecap="round" stroke-linejoin="round"/>
<path d="M54.6406 47.823V14.0657" stroke="#652EFF" stroke-width="1.5" stroke-linecap="round" stroke-linejoin="round" stroke-dasharray="0.99 3.98"/>
<path d="M54.6406 12.7917V12.472H54.9603" stroke="#652EFF" stroke-width="1.5" stroke-linecap="round" stroke-linejoin="round"/>
<path d="M57.5723 12.472H79.1291" stroke="#652EFF" stroke-width="1.5" stroke-linecap="round" stroke-linejoin="round" stroke-dasharray="1.02 4.09"/>
<path d="M80.4365 12.472H80.7562" stroke="#652EFF" stroke-width="1.5" stroke-linecap="round" stroke-linejoin="round"/>
<path d="M206.162 248.348V274.5H145.719V248.348H206.162Z" fill="white" stroke="#652EFF"/>
<path d="M137.937 0.5V26.6514H77.4932V0.5H137.937Z" fill="white" stroke="#652EFF"/>
<path d="M91.4648 15.0833H87.6475V16.4385H91.4648V15.0833Z" fill="#D9CDFC"/>
<path d="M97.668 20.344H87.6475V21.6992H97.668V20.344Z" fill="#D9CDFC"/>
<path d="M114.925 20.344H99.1787V21.6992H114.925V20.344Z" fill="#D9CDFC"/>
<path d="M129.955 20.344H116.595V21.6992H129.955V20.344Z" fill="#D9CDFC"/>
<path d="M94.1684 17.7136H87.6475V19.0689H94.1684V17.7136Z" fill="#D9CDFC"/>
<path d="M108.085 17.7136H95.8379V19.0689H108.085V17.7136Z" fill="#D9CDFC"/>
<path d="M116.913 17.7136H109.676V19.0689H116.913V17.7136Z" fill="#D9CDFC"/>
<path d="M102.12 15.0833H92.7363V16.4385H102.12V15.0833Z" fill="#D9CDFC"/>
<path d="M109.438 10.5132H87.6475V11.8678H109.438V10.5132Z" fill="#D9CDFC"/>
<path d="M116.038 10.5132H111.107V11.8678H116.038V10.5132Z" fill="#D9CDFC"/>
<path d="M94.1684 7.98279H87.6475V9.33802H94.1684V7.98279Z" fill="#D9CDFC"/>
<path d="M121.684 7.98279H95.8379V9.33802H121.684V7.98279Z" fill="#D9CDFC"/>
<path d="M133.614 7.98279H122.479V9.33802H133.614V7.98279Z" fill="#D9CDFC"/>
<path d="M97.1904 5.45166H87.6475V6.8069H97.1904V5.45166Z" fill="#D9CDFC"/>
<path d="M102.916 5.45166H98.8604V6.8069H102.916V5.45166Z" fill="#D9CDFC"/>
<path d="M112.777 5.45166H103.949V6.8069H112.777V5.45166Z" fill="#D9CDFC"/>
<path d="M82.332 6.54679C82.6163 6.54679 82.8467 6.31584 82.8467 6.03096C82.8467 5.74607 82.6163 5.51514 82.332 5.51514C82.0478 5.51514 81.8174 5.74607 81.8174 6.03096C81.8174 6.31584 82.0478 6.54679 82.332 6.54679Z" fill="#D9CDFC"/>
<path d="M82.332 9.16507C82.6163 9.16507 82.8467 8.93412 82.8467 8.64924C82.8467 8.36436 82.6163 8.13342 82.332 8.13342C82.0478 8.13342 81.8174 8.36436 81.8174 8.64924C81.8174 8.93412 82.0478 9.16507 82.332 9.16507Z" fill="#D9CDFC"/>
<path d="M82.332 11.7832C82.6163 11.7832 82.8467 11.5523 82.8467 11.2674C82.8467 10.9825 82.6163 10.7516 82.332 10.7516C82.0478 10.7516 81.8174 10.9825 81.8174 11.2674C81.8174 11.5523 82.0478 11.7832 82.332 11.7832Z" fill="#D9CDFC"/>
<path d="M82.332 16.2885C82.6163 16.2885 82.8467 16.0575 82.8467 15.7727C82.8467 15.4878 82.6163 15.2568 82.332 15.2568C82.0478 15.2568 81.8174 15.4878 81.8174 15.7727C81.8174 16.0575 82.0478 16.2885 82.332 16.2885Z" fill="#D9CDFC"/>
<path d="M82.332 18.9066C82.6163 18.9066 82.8467 18.6757 82.8467 18.3908C82.8467 18.1059 82.6163 17.875 82.332 17.875C82.0478 17.875 81.8174 18.1059 81.8174 18.3908C81.8174 18.6757 82.0478 18.9066 82.332 18.9066Z" fill="#D9CDFC"/>
<path d="M82.332 21.5251C82.6163 21.5251 82.8467 21.2941 82.8467 21.0092C82.8467 20.7243 82.6163 20.4934 82.332 20.4934C82.0478 20.4934 81.8174 20.7243 81.8174 21.0092C81.8174 21.2941 82.0478 21.5251 82.332 21.5251Z" fill="#D9CDFC"/>
<path d="M177.144 258.408H158.059V259.763H177.144V258.408Z" fill="#D9CDFC"/>
<path d="M181.757 258.408H178.258V259.763H181.757V258.408Z" fill="#D9CDFC"/>
<path d="M193.05 258.408H184.223V259.763H193.05V258.408Z" fill="#D9CDFC"/>
<path d="M164.102 255.898H158.059V257.252H164.102V255.898Z" fill="#D9CDFC"/>
<path d="M190.585 255.898H165.693V257.252H190.585V255.898Z" fill="#D9CDFC"/>
<path d="M199.65 255.898H192.255V257.252H199.65V255.898Z" fill="#D9CDFC"/>
<path d="M168.078 253.387H158.059V254.742H168.078V253.387Z" fill="#D9CDFC"/>
<path d="M173.01 253.387H169.271V254.742H173.01V253.387Z" fill="#D9CDFC"/>
<path d="M181.281 253.387H174.123V254.742H181.281V253.387Z" fill="#D9CDFC"/>
<path d="M152.744 254.484C153.028 254.484 153.259 254.253 153.259 253.968C153.259 253.683 153.028 253.452 152.744 253.452C152.46 253.452 152.229 253.683 152.229 253.968C152.229 254.253 152.46 254.484 152.744 254.484Z" fill="#D9CDFC"/>
<path d="M152.744 257.102C153.028 257.102 153.259 256.871 153.259 256.586C153.259 256.301 153.028 256.07 152.744 256.07C152.46 256.07 152.229 256.301 152.229 256.586C152.229 256.871 152.46 257.102 152.744 257.102Z" fill="#D9CDFC"/>
<path d="M152.744 259.72C153.028 259.72 153.259 259.489 153.259 259.204C153.259 258.92 153.028 258.689 152.744 258.689C152.46 258.689 152.229 258.92 152.229 259.204C152.229 259.489 152.46 259.72 152.744 259.72Z" fill="#D9CDFC"/>
<path d="M169.192 268.06H158.059V269.414H169.192V268.06Z" fill="#D9CDFC"/>
<path d="M185.416 268.06H170.624V269.414H185.416V268.06Z" fill="#D9CDFC"/>
<path d="M193.528 268.06H187.166V269.414H193.528V268.06Z" fill="#D9CDFC"/>
<path d="M167.443 265.629H158.059V266.983H167.443V265.629Z" fill="#D9CDFC"/>
<path d="M180.052 265.629H168.76V266.983H180.052V265.629Z" fill="#D9CDFC"/>
<path d="M187.88 265.629H181.28V266.983H187.88V265.629Z" fill="#D9CDFC"/>
<path d="M161.319 263.197H158.059V264.552H161.319V263.197Z" fill="#D9CDFC"/>
<path d="M171.896 263.197H162.591V264.552H171.896V263.197Z" fill="#D9CDFC"/>
<path d="M152.744 264.226C153.028 264.226 153.259 263.995 153.259 263.71C153.259 263.425 153.028 263.194 152.744 263.194C152.46 263.194 152.229 263.425 152.229 263.71C152.229 263.995 152.46 264.226 152.744 264.226Z" fill="#D9CDFC"/>
<path d="M152.744 266.844C153.028 266.844 153.259 266.613 153.259 266.328C153.259 266.044 153.028 265.813 152.744 265.813C152.46 265.813 152.229 266.044 152.229 266.328C152.229 266.613 152.46 266.844 152.744 266.844Z" fill="#D9CDFC"/>
<path d="M152.744 269.462C153.028 269.462 153.259 269.231 153.259 268.946C153.259 268.661 153.028 268.43 152.744 268.43C152.46 268.43 152.229 268.661 152.229 268.946C152.229 269.231 152.46 269.462 152.744 269.462Z" fill="#D9CDFC"/>
<path d="M265.499 182.267V214.372H169.239V182.267H265.499Z" fill="white" stroke="#652EFF"/>
<path opacity="0.6" d="M258.985 206.03C258.985 206.173 258.869 206.288 258.728 206.288H233.18C233.037 206.288 232.922 206.172 232.922 206.03C232.922 205.887 233.038 205.771 233.18 205.771H258.728C258.869 205.77 258.985 205.887 258.985 206.03Z" fill="#D9CDFC"/>
<path opacity="0.6" d="M258.985 207.89C258.985 208.033 258.869 208.148 258.728 208.148H233.18C233.037 208.148 232.922 208.032 232.922 207.89C232.922 207.747 233.038 207.631 233.18 207.631H258.728C258.869 207.631 258.985 207.747 258.985 207.89Z" fill="#D9CDFC"/>
<path opacity="0.6" d="M250.178 209.751C250.178 209.894 250.062 210.009 249.92 210.009H233.18C233.037 210.009 232.922 209.893 232.922 209.751C232.922 209.608 233.038 209.492 233.18 209.492H249.92C250.063 209.492 250.178 209.608 250.178 209.751Z" fill="#D9CDFC"/>
<path d="M258.919 186.629H232.922V203.721H258.919V186.629Z" fill="#D9CDFC"/>
<path opacity="0.6" d="M230.375 206.03C230.375 206.173 230.259 206.288 230.117 206.288H204.569C204.427 206.288 204.312 206.172 204.312 206.03C204.312 205.887 204.427 205.771 204.569 205.771H230.117C230.259 205.77 230.375 205.887 230.375 206.03Z" fill="#D9CDFC"/>
<path opacity="0.6" d="M230.375 207.89C230.375 208.033 230.259 208.148 230.117 208.148H204.569C204.427 208.148 204.312 208.032 204.312 207.89C204.312 207.747 204.427 207.631 204.569 207.631H230.117C230.259 207.631 230.375 207.747 230.375 207.89Z" fill="#D9CDFC"/>
<path opacity="0.6" d="M221.566 209.751C221.566 209.894 221.45 210.009 221.308 210.009H204.568C204.426 210.009 204.311 209.893 204.311 209.751C204.311 209.608 204.426 209.492 204.568 209.492H221.308C221.451 209.492 221.566 209.608 221.566 209.751Z" fill="#D9CDFC"/>
<path d="M230.308 186.629H204.311V203.721H230.308V186.629Z" fill="#D9CDFC"/>
<path d="M201.73 186.67H175.732V203.762H201.73V186.67Z" fill="#652EFF"/>
<path d="M200.598 187.659H176.866V202.773H200.598V187.659Z" fill="white"/>
<path d="M201.73 206.549C201.73 207.006 201.361 207.376 200.906 207.376H176.557C176.102 207.376 175.732 207.006 175.732 206.549C175.732 206.093 176.102 205.723 176.557 205.723H200.906C201.361 205.723 201.73 206.093 201.73 206.549Z" fill="#652EFF"/>
<path d="M188.879 198.799C190.853 198.799 192.454 197.195 192.454 195.216C192.454 193.237 190.853 191.633 188.879 191.633C186.904 191.633 185.304 193.237 185.304 195.216C185.304 197.195 186.904 198.799 188.879 198.799Z" fill="#652EFF"/>
<path d="M187.816 193.67V196.763L190.728 195.216L187.816 193.67Z" fill="white"/>
<path d="M113.313 53.5034V84.5425H16.499V53.5034H113.313Z" fill="white" stroke="#652EFF"/>
<path d="M21.9316 69.2937L23.7204 71.1219V67.465L21.9316 69.2937Z" fill="#AE62FF"/>
<path d="M65.5485 57.8867H26.2119V80.7009H65.5485V57.8867Z" fill="#D9CDFC"/>
<path d="M72.1883 77.274H68.6855V80.7003H72.1883V77.274Z" fill="#AE62FF"/>
<path d="M107.346 69.2937L105.558 71.1219V67.465L107.346 69.2937Z" fill="#AE62FF"/>
<path opacity="0.6" d="M99.5858 62.8034C99.5858 62.9463 99.4701 63.0623 99.3276 63.0623H68.9438C68.8013 63.0623 68.6855 62.9463 68.6855 62.8034C68.6855 62.6605 68.8013 62.5446 68.9438 62.5446H99.3276C99.4701 62.5446 99.5858 62.6605 99.5858 62.8034Z" fill="#D9CDFC"/>
<path opacity="0.6" d="M99.5858 64.6642C99.5858 64.807 99.4701 64.923 99.3276 64.923H68.9438C68.8013 64.923 68.6855 64.807 68.6855 64.6642C68.6855 64.5213 68.8013 64.4053 68.9438 64.4053H99.3276C99.4701 64.4046 99.5858 64.5213 99.5858 64.6642Z" fill="#D9CDFC"/>
<path opacity="0.6" d="M99.5858 66.525C99.5858 66.6679 99.4701 66.7839 99.3276 66.7839H68.9438C68.8013 66.7839 68.6855 66.6679 68.6855 66.525C68.6855 66.3821 68.8013 66.2661 68.9438 66.2661H99.3276C99.4701 66.2655 99.5858 66.3815 99.5858 66.525Z" fill="#D9CDFC"/>
<path opacity="0.6" d="M99.5858 68.3852C99.5858 68.5281 99.4701 68.6441 99.3276 68.6441H68.9438C68.8013 68.6441 68.6855 68.5281 68.6855 68.3852C68.6855 68.2423 68.8013 68.1263 68.9438 68.1263H99.3276C99.4701 68.1263 99.5858 68.2423 99.5858 68.3852Z" fill="#D9CDFC"/>
<path opacity="0.6" d="M99.5858 70.2459C99.5858 70.3888 99.4701 70.5048 99.3276 70.5048H68.9438C68.8013 70.5048 68.6855 70.3888 68.6855 70.2459C68.6855 70.103 68.8013 69.9871 68.9438 69.9871H99.3276C99.4701 69.9871 99.5858 70.103 99.5858 70.2459Z" fill="#D9CDFC"/>
<path opacity="0.6" d="M89.2441 72.1068C89.2441 72.2497 89.1284 72.3656 88.9858 72.3656H68.9428C68.8003 72.3656 68.6846 72.2497 68.6846 72.1068C68.6846 71.9639 68.8003 71.8479 68.9428 71.8479H88.9858C89.129 71.8479 89.2441 71.9639 89.2441 72.1068Z" fill="#D9CDFC"/>
<path d="M99.5858 59.0542C99.5858 59.6988 99.0642 60.2217 98.421 60.2217H69.8504C69.2072 60.2217 68.6855 59.6988 68.6855 59.0542C68.6855 58.4096 69.2072 57.8867 69.8504 57.8867H98.421C99.0642 57.8867 99.5858 58.4096 99.5858 59.0542Z" fill="#D9CDFC"/>
<path d="M90.3861 77.274H73.6113V80.7003H90.3861V77.274Z" fill="#AE62FF"/>
<path d="M240.471 43.238V52.238H144.211V43.238H240.471Z" fill="white" stroke="#652EFF"/>
<path d="M153.298 49.0861C153.298 49.6769 152.82 50.1562 152.23 50.1562H149.541C148.951 50.1562 148.474 49.6769 148.474 49.0861V46.3904C148.474 45.7996 148.951 45.3203 149.541 45.3203H152.23C152.82 45.3203 153.298 45.7996 153.298 46.3904V49.0861Z" fill="#D9CDFC"/>
<path opacity="0.6" d="M172.295 47.0556C172.295 47.1726 172.201 47.2673 172.084 47.2673H155.027C154.91 47.2673 154.815 47.1726 154.815 47.0556C154.815 46.9386 154.91 46.8434 155.027 46.8434H172.084C172.201 46.844 172.295 46.9386 172.295 47.0556Z" fill="#D9CDFC"/>
<path opacity="0.6" d="M166.105 48.4194C166.105 48.5364 166.01 48.6316 165.893 48.6316H155.028C154.911 48.6316 154.816 48.537 154.816 48.4194C154.816 48.3024 154.911 48.2078 155.028 48.2078H165.893C166.009 48.2078 166.105 48.303 166.105 48.4194Z" fill="#D9CDFC"/>
<path d="M221.464 49.8288C222.433 49.8288 223.219 49.041 223.219 48.0693C223.219 47.0975 222.433 46.3097 221.464 46.3097C220.494 46.3097 219.708 47.0975 219.708 48.0693C219.708 49.041 220.494 49.8288 221.464 49.8288Z" fill="#D9CDFC"/>
<path d="M226.871 49.8295C227.841 49.8295 228.628 49.0414 228.628 48.0693C228.628 47.0972 227.841 46.3091 226.871 46.3091C225.901 46.3091 225.115 47.0972 225.115 48.0693C225.115 49.0414 225.901 49.8295 226.871 49.8295Z" fill="#D9CDFC"/>
<path d="M232.28 49.8295C233.25 49.8295 234.036 49.0414 234.036 48.0693C234.036 47.0972 233.25 46.3091 232.28 46.3091C231.31 46.3091 230.523 47.0972 230.523 48.0693C230.523 49.0414 231.31 49.8295 232.28 49.8295Z" fill="#D9CDFC"/>
<path d="M240.471 56.2678V65.2678H144.211V56.2678H240.471Z" fill="white" stroke="#652EFF"/>
<path d="M153.298 62.1161C153.298 62.7069 152.82 63.1861 152.23 63.1861H149.541C148.951 63.1861 148.474 62.7069 148.474 62.1161V59.4203C148.474 58.8295 148.951 58.3502 149.541 58.3502H152.23C152.82 58.3502 153.298 58.8295 153.298 59.4203V62.1161Z" fill="#D9CDFC"/>
<path opacity="0.6" d="M172.295 60.0854C172.295 60.2024 172.201 60.297 172.084 60.297H155.027C154.91 60.297 154.815 60.2024 154.815 60.0854C154.815 59.9684 154.91 59.8732 155.027 59.8732H172.084C172.201 59.8738 172.295 59.9684 172.295 60.0854Z" fill="#D9CDFC"/>
<path opacity="0.6" d="M166.105 61.4492C166.105 61.5662 166.01 61.6614 165.893 61.6614H155.028C154.911 61.6614 154.816 61.5668 154.816 61.4492C154.816 61.3322 154.911 61.2375 155.028 61.2375H165.893C166.009 61.2375 166.105 61.3328 166.105 61.4492Z" fill="#D9CDFC"/>
<path d="M221.464 62.8586C222.433 62.8586 223.219 62.0708 223.219 61.099C223.219 60.1273 222.433 59.3395 221.464 59.3395C220.494 59.3395 219.708 60.1273 219.708 61.099C219.708 62.0708 220.494 62.8586 221.464 62.8586Z" fill="#D9CDFC"/>
<path d="M226.871 62.8593C227.841 62.8593 228.628 62.0712 228.628 61.0991C228.628 60.1269 227.841 59.3389 226.871 59.3389C225.901 59.3389 225.115 60.1269 225.115 61.0991C225.115 62.0712 225.901 62.8593 226.871 62.8593Z" fill="#D9CDFC"/>
<path d="M232.28 62.8593C233.25 62.8593 234.036 62.0712 234.036 61.0991C234.036 60.1269 233.25 59.3389 232.28 59.3389C231.31 59.3389 230.523 60.1269 230.523 61.0991C230.523 62.0712 231.31 62.8593 232.28 62.8593Z" fill="#D9CDFC"/>
<path d="M240.471 31.2104V40.2104H144.211V31.2104H240.471Z" fill="white" stroke="#652EFF"/>
<path d="M153.298 37.0587C153.298 37.6495 152.82 38.1288 152.23 38.1288H149.541C148.951 38.1288 148.474 37.6495 148.474 37.0587V34.3629C148.474 33.7721 148.951 33.2928 149.541 33.2928H152.23C152.82 33.2928 153.298 33.7721 153.298 34.3629V37.0587Z" fill="#D9CDFC"/>
<path opacity="0.6" d="M172.295 35.028C172.295 35.145 172.201 35.2397 172.084 35.2397H155.027C154.91 35.2397 154.815 35.145 154.815 35.028C154.815 34.9111 154.91 34.8158 155.027 34.8158H172.084C172.201 34.8164 172.295 34.9111 172.295 35.028Z" fill="#D9CDFC"/>
<path opacity="0.6" d="M166.105 36.3918C166.105 36.5088 166.01 36.604 165.893 36.604H155.028C154.911 36.604 154.816 36.5094 154.816 36.3918C154.816 36.2748 154.911 36.1802 155.028 36.1802H165.893C166.009 36.1802 166.105 36.2754 166.105 36.3918Z" fill="#D9CDFC"/>
<path d="M221.464 37.8012C222.433 37.8012 223.219 37.0135 223.219 36.0417C223.219 35.0699 222.433 34.2821 221.464 34.2821C220.494 34.2821 219.708 35.0699 219.708 36.0417C219.708 37.0135 220.494 37.8012 221.464 37.8012Z" fill="#D9CDFC"/>
<path d="M226.871 37.8019C227.841 37.8019 228.628 37.0138 228.628 36.0417C228.628 35.0696 227.841 34.2815 226.871 34.2815C225.901 34.2815 225.115 35.0696 225.115 36.0417C225.115 37.0138 225.901 37.8019 226.871 37.8019Z" fill="#D9CDFC"/>
<path d="M232.28 37.8019C233.25 37.8019 234.036 37.0138 234.036 36.0417C234.036 35.0696 233.25 34.2815 232.28 34.2815C231.31 34.2815 230.523 35.0696 230.523 36.0417C230.523 37.0138 231.31 37.8019 232.28 37.8019Z" fill="#D9CDFC"/>
<path d="M226.864 238.923C226.894 238.737 226.967 238.561 227.082 238.406C227.272 238.149 227.55 237.982 227.865 237.934L230.6 237.522C230.671 236.023 231.029 234.576 231.667 233.217L229.442 231.575C228.911 231.184 228.798 230.435 229.19 229.905L230.465 228.177C230.654 227.92 230.932 227.752 231.248 227.705C231.563 227.657 231.878 227.735 232.135 227.925L234.361 229.567C235.471 228.557 236.747 227.787 238.158 227.277L237.746 224.543C237.698 224.227 237.776 223.911 237.965 223.655C238.155 223.398 238.433 223.23 238.749 223.183L240.872 222.862C241.524 222.764 242.134 223.214 242.232 223.865L242.644 226.599C244.143 226.671 245.589 227.029 246.949 227.667L248.59 225.442C248.982 224.912 249.732 224.798 250.262 225.19L251.99 226.464C252.519 226.855 252.632 227.605 252.241 228.135L250.6 230.36C251.609 231.471 252.378 232.747 252.89 234.158L255.624 233.746C255.939 233.698 256.254 233.776 256.511 233.966C256.768 234.155 256.936 234.433 256.983 234.749L257.304 236.872C257.352 237.187 257.274 237.503 257.084 237.76C256.895 238.017 256.616 238.184 256.301 238.232L253.567 238.645C253.494 240.144 253.136 241.59 252.499 242.949L254.725 244.591C255.255 244.983 255.368 245.732 254.976 246.262L253.702 247.99C253.512 248.246 253.234 248.414 252.918 248.462C252.603 248.51 252.288 248.432 252.031 248.242L249.806 246.6C248.695 247.61 247.418 248.379 246.008 248.89L246.42 251.624C246.468 251.939 246.39 252.255 246.201 252.512C246.011 252.769 245.733 252.936 245.417 252.984L243.294 253.304C242.643 253.402 242.032 252.952 241.934 252.301L241.522 249.567C240.023 249.496 238.577 249.137 237.217 248.5L235.576 250.725C235.185 251.255 234.435 251.368 233.904 250.977L232.177 249.703C231.647 249.312 231.533 248.562 231.925 248.032L233.566 245.806C232.557 244.696 231.788 243.42 231.276 242.008L228.543 242.421C227.891 242.519 227.281 242.069 227.183 241.418L226.863 239.295C226.843 239.169 226.844 239.044 226.864 238.923ZM230.979 237.722C230.966 237.804 230.901 237.87 230.816 237.883L227.924 238.319C227.711 238.351 227.523 238.465 227.395 238.638C227.268 238.811 227.215 239.024 227.246 239.237L227.567 241.36C227.633 241.799 228.045 242.103 228.484 242.036L231.376 241.6C231.469 241.585 231.558 241.64 231.589 241.728C232.099 243.2 232.897 244.523 233.96 245.66C234.023 245.728 234.03 245.833 233.974 245.908L232.237 248.263C231.974 248.62 232.05 249.126 232.407 249.39L234.135 250.664C234.492 250.928 234.998 250.851 235.262 250.494L236.999 248.14C237.054 248.064 237.156 248.039 237.241 248.08C238.641 248.761 240.141 249.133 241.696 249.185C241.79 249.188 241.868 249.258 241.882 249.35L242.318 252.243C242.385 252.682 242.797 252.986 243.235 252.92L245.358 252.599C245.571 252.567 245.759 252.454 245.887 252.281C246.015 252.108 246.067 251.895 246.036 251.682L245.599 248.789C245.584 248.697 245.639 248.607 245.727 248.577C247.198 248.067 248.521 247.27 249.659 246.206C249.727 246.142 249.831 246.136 249.907 246.192L252.261 247.929C252.435 248.057 252.647 248.11 252.86 248.077C253.073 248.045 253.26 247.932 253.388 247.759L254.663 246.031C254.926 245.674 254.85 245.168 254.493 244.904L252.138 243.167C252.063 243.111 252.037 243.01 252.079 242.925C252.759 241.525 253.131 240.025 253.184 238.47C253.185 238.376 253.257 238.299 253.35 238.284L256.242 237.848C256.455 237.816 256.643 237.702 256.771 237.529C256.898 237.356 256.95 237.143 256.919 236.931L256.599 234.807C256.566 234.595 256.453 234.407 256.28 234.279C256.107 234.152 255.895 234.099 255.682 234.131L252.789 234.568C252.697 234.582 252.607 234.527 252.576 234.439C252.067 232.968 251.269 231.645 250.206 230.508C250.142 230.44 250.135 230.335 250.191 230.259L251.929 227.905C252.191 227.548 252.116 227.042 251.759 226.778L250.031 225.503C249.673 225.239 249.168 225.315 248.904 225.673L247.166 228.027C247.111 228.103 247.009 228.128 246.925 228.087C245.525 227.406 244.025 227.034 242.469 226.982C242.376 226.979 242.297 226.909 242.284 226.817L241.847 223.924C241.781 223.485 241.369 223.181 240.93 223.247L238.807 223.568C238.594 223.6 238.406 223.713 238.279 223.886C238.151 224.06 238.098 224.273 238.13 224.485L238.567 227.378C238.581 227.47 238.527 227.56 238.438 227.59C236.967 228.1 235.644 228.897 234.507 229.961C234.439 230.025 234.335 230.031 234.259 229.975L231.904 228.238C231.731 228.11 231.519 228.057 231.306 228.09C231.093 228.122 230.905 228.235 230.777 228.408L229.503 230.136C229.24 230.494 229.315 230.999 229.673 231.263L232.027 233C232.102 233.056 232.128 233.157 232.086 233.241C231.407 234.642 231.035 236.141 230.982 237.697C230.982 237.705 230.981 237.713 230.979 237.722ZM236.161 237.11C236.309 236.2 236.669 235.312 237.253 234.52C239.218 231.857 242.983 231.289 245.646 233.254C248.309 235.219 248.877 238.984 246.912 241.646C244.948 244.309 241.183 244.877 238.52 242.913C236.648 241.532 235.811 239.262 236.161 237.11ZM237.566 234.751C235.729 237.241 236.261 240.763 238.751 242.6C241.241 244.436 244.762 243.906 246.6 241.415C248.436 238.925 247.906 235.404 245.415 233.566C242.925 231.73 239.404 232.261 237.566 234.751Z" fill="#5800B5"/>
<path d="M153.994 231.564C154.01 231.465 154.05 231.371 154.111 231.289C154.212 231.152 154.36 231.062 154.529 231.037L155.988 230.817C156.026 230.017 156.217 229.245 156.558 228.52L155.37 227.643C155.087 227.435 155.026 227.035 155.236 226.752L155.916 225.83C156.017 225.693 156.165 225.603 156.334 225.578C156.502 225.552 156.67 225.594 156.807 225.695L157.995 226.572C158.587 226.033 159.268 225.622 160.021 225.35L159.801 223.89C159.776 223.722 159.817 223.554 159.919 223.417C160.02 223.28 160.168 223.19 160.337 223.165L161.469 222.994C161.817 222.941 162.143 223.182 162.195 223.529L162.415 224.988C163.215 225.026 163.987 225.218 164.712 225.558L165.588 224.37C165.797 224.087 166.197 224.027 166.48 224.236L167.402 224.916C167.685 225.125 167.745 225.525 167.537 225.807L166.661 226.995C167.199 227.588 167.61 228.269 167.883 229.022L169.342 228.802C169.51 228.776 169.678 228.818 169.815 228.919C169.952 229.02 170.042 229.169 170.067 229.337L170.238 230.47C170.264 230.638 170.222 230.807 170.121 230.944C170.02 231.081 169.871 231.17 169.703 231.196L168.244 231.416C168.205 232.216 168.014 232.988 167.674 233.713L168.862 234.589C169.145 234.798 169.205 235.198 168.996 235.481L168.316 236.403C168.215 236.54 168.066 236.629 167.898 236.655C167.73 236.68 167.562 236.639 167.424 236.537L166.237 235.661C165.644 236.2 164.963 236.611 164.21 236.883L164.43 238.342C164.456 238.51 164.414 238.679 164.313 238.816C164.212 238.953 164.063 239.042 163.895 239.068L162.762 239.239C162.414 239.291 162.089 239.051 162.037 238.703L161.816 237.245C161.017 237.206 160.245 237.015 159.519 236.675L158.643 237.862C158.435 238.145 158.034 238.206 157.751 237.997L156.83 237.317C156.547 237.108 156.486 236.708 156.695 236.425L157.571 235.237C157.032 234.645 156.622 233.964 156.349 233.211L154.89 233.431C154.543 233.483 154.217 233.243 154.165 232.896L153.994 231.763C153.983 231.696 153.984 231.629 153.994 231.564ZM156.191 230.923C156.183 230.967 156.148 231.002 156.104 231.009L154.56 231.242C154.446 231.259 154.346 231.32 154.278 231.412C154.21 231.505 154.182 231.618 154.199 231.732L154.37 232.865C154.405 233.099 154.625 233.261 154.859 233.226L156.402 232.993C156.452 232.985 156.5 233.014 156.516 233.061C156.788 233.847 157.214 234.553 157.781 235.159C157.815 235.196 157.819 235.252 157.789 235.292L156.862 236.548C156.721 236.739 156.762 237.009 156.952 237.15L157.874 237.83C158.065 237.97 158.335 237.93 158.476 237.739L159.403 236.483C159.432 236.442 159.487 236.429 159.532 236.451C160.279 236.814 161.079 237.013 161.909 237.041C161.959 237.042 162.001 237.079 162.009 237.129L162.241 238.672C162.277 238.907 162.497 239.069 162.731 239.033L163.864 238.862C163.977 238.845 164.078 238.785 164.146 238.693C164.214 238.6 164.242 238.487 164.225 238.373L163.992 236.829C163.984 236.78 164.013 236.732 164.061 236.716C164.845 236.444 165.551 236.019 166.159 235.451C166.195 235.417 166.251 235.414 166.291 235.443L167.547 236.37C167.64 236.439 167.753 236.467 167.867 236.449C167.98 236.432 168.08 236.372 168.149 236.28L168.829 235.357C168.969 235.167 168.929 234.897 168.738 234.756L167.482 233.829C167.442 233.799 167.428 233.746 167.45 233.7C167.813 232.953 168.011 232.153 168.04 231.323C168.04 231.273 168.078 231.231 168.128 231.223L169.671 230.991C169.785 230.973 169.885 230.913 169.954 230.821C170.022 230.728 170.05 230.615 170.033 230.501L169.862 229.368C169.845 229.255 169.784 229.154 169.692 229.086C169.6 229.018 169.486 228.99 169.373 229.007L167.829 229.24C167.78 229.248 167.732 229.219 167.715 229.172C167.443 228.387 167.018 227.681 166.45 227.074C166.416 227.037 166.412 226.982 166.443 226.941L167.37 225.685C167.51 225.494 167.47 225.224 167.279 225.083L166.357 224.403C166.166 224.262 165.896 224.303 165.756 224.494L164.829 225.75C164.799 225.79 164.745 225.804 164.7 225.782C163.952 225.419 163.152 225.22 162.322 225.192C162.272 225.19 162.23 225.153 162.223 225.104L161.99 223.56C161.955 223.326 161.735 223.164 161.501 223.199L160.368 223.37C160.254 223.387 160.154 223.448 160.086 223.54C160.017 223.633 159.989 223.747 160.006 223.86L160.239 225.403C160.247 225.453 160.218 225.501 160.171 225.517C159.386 225.789 158.68 226.214 158.073 226.782C158.037 226.816 157.981 226.819 157.941 226.789L156.684 225.862C156.592 225.794 156.478 225.766 156.365 225.783C156.251 225.8 156.151 225.861 156.083 225.953L155.403 226.875C155.262 227.066 155.302 227.336 155.493 227.477L156.75 228.404C156.79 228.433 156.803 228.487 156.781 228.533C156.419 229.28 156.22 230.08 156.192 230.91C156.192 230.915 156.191 230.919 156.191 230.923ZM158.956 230.597C159.035 230.111 159.227 229.637 159.539 229.215C160.587 227.794 162.596 227.491 164.017 228.539C165.438 229.588 165.742 231.597 164.693 233.018C163.644 234.439 161.635 234.742 160.214 233.693C159.216 232.957 158.769 231.745 158.956 230.597ZM159.706 229.338C158.725 230.667 159.009 232.546 160.338 233.526C161.666 234.507 163.546 234.223 164.526 232.894C165.506 231.566 165.223 229.687 163.894 228.706C162.565 227.726 160.686 228.009 159.706 229.338Z" fill="#5800B5"/>
<path d="M218.986 148.988C218.887 148.988 218.798 148.934 218.751 148.849L217.829 147.152L216.138 146.221C216.052 146.174 215.998 146.084 215.999 145.986C216 145.888 216.053 145.799 216.139 145.752L217.836 144.83L218.766 143.139C218.813 143.053 218.903 143 219 143C219.099 143 219.189 143.054 219.235 143.14L220.157 144.836L221.849 145.767C221.934 145.814 221.987 145.904 221.987 146.002C221.987 146.1 221.933 146.19 221.847 146.236L220.151 147.158L219.22 148.849C219.173 148.935 219.084 148.988 218.986 148.988ZM216.824 145.988L218.155 146.722C218.2 146.746 218.237 146.783 218.261 146.828L218.987 148.163L219.72 146.832C219.745 146.787 219.781 146.751 219.827 146.726L221.162 146L219.83 145.268C219.785 145.243 219.749 145.206 219.724 145.161L218.999 143.825L218.266 145.157C218.241 145.201 218.204 145.238 218.159 145.263L216.824 145.988Z" fill="#5800B5"/>
<path d="M32.9859 123.988H32.9853C32.8875 123.988 32.7976 123.934 32.7511 123.848L31.8291 122.152L30.1375 121.221C30.052 121.173 29.999 121.084 29.999 120.986C29.999 120.888 30.053 120.798 30.1386 120.752L31.835 119.83L32.7661 118.139C32.8131 118.053 32.903 118 33.0003 118H33.0009C33.0987 118 33.1886 118.054 33.2351 118.14L34.1571 119.836L35.8487 120.767C35.9342 120.814 35.9872 120.904 35.9872 121.002C35.9872 121.1 35.9332 121.19 35.8476 121.236L34.1512 122.158L33.2201 123.849C33.1731 123.935 33.0832 123.988 32.9859 123.988ZM30.8237 120.988L32.1553 121.721C32.1997 121.746 32.2366 121.783 32.2612 121.828L32.9869 123.163L33.7202 121.831C33.7448 121.787 33.7817 121.75 33.8266 121.725L35.1625 121L33.8309 120.267C33.7865 120.242 33.7496 120.206 33.725 120.161L32.9992 118.825L32.266 120.156C32.2414 120.201 32.2045 120.238 32.1596 120.262L30.8237 120.988Z" fill="#5800B5"/>
<path d="M121.299 186.621C121.2 186.621 121.11 186.567 121.064 186.482L119.679 183.933L117.138 182.534C117.052 182.487 116.999 182.397 116.999 182.299C116.999 182.201 117.053 182.112 117.139 182.065L119.688 180.68L121.086 178.139C121.134 178.053 121.223 178 121.321 178H121.321C121.42 178 121.509 178.054 121.556 178.14L122.941 180.689L125.483 182.088C125.568 182.135 125.622 182.225 125.621 182.323C125.621 182.421 125.567 182.51 125.481 182.557L122.932 183.942L121.533 186.484C121.487 186.568 121.397 186.621 121.299 186.621ZM117.824 182.301L120.005 183.501C120.05 183.526 120.086 183.563 120.111 183.608L121.3 185.796L122.501 183.614C122.526 183.57 122.563 183.533 122.608 183.508L124.796 182.319L122.614 181.118C122.569 181.093 122.533 181.056 122.509 181.011L121.319 178.823L120.119 181.005C120.093 181.049 120.057 181.086 120.012 181.111L117.824 182.301Z" fill="#5800B5"/>
<path d="M201.299 237.622C201.177 237.631 201.111 237.569 201.064 237.482L199.679 234.933L197.138 233.534C197.052 233.487 196.999 233.397 196.999 233.299C196.999 233.201 197.053 233.112 197.139 233.065L199.688 231.68L201.087 229.139C201.134 229.053 201.213 229.01 201.322 229C201.42 229 201.51 229.054 201.556 229.14L202.941 231.689L205.483 233.088C205.568 233.135 205.621 233.225 205.621 233.323C205.621 233.42 205.567 233.51 205.481 233.557L202.932 234.942L201.533 237.484C201.486 237.569 201.396 237.622 201.299 237.622ZM197.823 233.301L200.005 234.503C200.05 234.527 200.086 234.564 200.111 234.609L201.3 236.797L202.501 234.615C202.526 234.571 202.563 234.534 202.607 234.509L204.796 233.321L202.614 232.119C202.569 232.095 202.533 232.058 202.508 232.013L201.319 229.825L200.118 232.007C200.093 232.051 200.056 232.088 200.012 232.113L197.823 233.301Z" fill="#5800B5"/>
<path d="M234.995 89.0069C234.916 89.0026 234.807 88.9528 234.76 88.8673L233.835 87.1645L232.138 86.2302C232.052 86.1831 231.999 86.0933 231.999 85.9954C231.999 85.8975 232.053 85.8077 232.139 85.7612L233.841 84.836L234.776 83.1385C234.823 83.0529 234.913 83 235.01 83C235.108 83 235.198 83.054 235.245 83.1396L236.17 84.8424L237.867 85.7767C237.953 85.8237 238.006 85.9136 238.006 86.0115C238.006 86.1093 237.952 86.1992 237.866 86.2457L236.164 87.1709L235.229 88.8684C235.182 88.9539 235.092 89.0069 234.995 89.0069ZM232.823 85.997L234.161 86.7334C234.206 86.758 234.243 86.7949 234.267 86.8399L234.996 88.1817L235.732 86.8436C235.757 86.7992 235.794 86.7623 235.839 86.7377L237.181 86.0088L235.843 85.2724C235.798 85.2478 235.761 85.2109 235.737 85.1659L235.008 83.8241L234.271 85.1622C234.247 85.2066 234.21 85.2435 234.165 85.2681L232.823 85.997Z" fill="#5800B5"/>
<path d="M68.2479 262.206C68.1003 262.206 67.9805 262.087 67.9805 261.939V260.268C67.9805 260.12 68.1003 260 68.2479 260C68.3955 260 68.5153 260.12 68.5153 260.268V261.939C68.5153 262.087 68.396 262.206 68.2479 262.206Z" fill="#5800B5"/>
<path d="M68.2479 266.499C68.1003 266.499 67.9805 266.379 67.9805 266.232V264.56C67.9805 264.413 68.1003 264.293 68.2479 264.293C68.3955 264.293 68.5153 264.413 68.5153 264.56V266.232C68.5153 266.38 68.396 266.499 68.2479 266.499Z" fill="#5800B5"/>
<path d="M71.2312 263.517H69.5594C69.4118 263.517 69.292 263.397 69.292 263.249C69.292 263.102 69.4118 262.982 69.5594 262.982H71.2312C71.3788 262.982 71.4986 263.102 71.4986 263.249C71.4986 263.397 71.3793 263.517 71.2312 263.517Z" fill="#5800B5"/>
<path d="M66.9382 263.517H65.2664C65.1188 263.517 64.999 263.397 64.999 263.249C64.999 263.102 65.1188 262.982 65.2664 262.982H66.9382C67.0858 262.982 67.2056 263.102 67.2056 263.249C67.2056 263.397 67.0858 263.517 66.9382 263.517Z" fill="#5800B5"/>
<path d="M66.1406 265.626C66.0721 265.626 66.0037 265.6 65.9513 265.548C65.847 265.443 65.847 265.274 65.9513 265.17L67.1332 263.988C67.2375 263.883 67.407 263.883 67.5113 263.988C67.6156 264.092 67.6156 264.262 67.5113 264.366L66.3293 265.548C66.2775 265.6 66.209 265.626 66.1406 265.626Z" fill="#5800B5"/>
<path d="M69.1757 262.59C69.1073 262.59 69.0388 262.564 68.9864 262.512C68.8821 262.408 68.8821 262.238 68.9864 262.134L70.1683 260.952C70.2726 260.848 70.4422 260.848 70.5465 260.952C70.6507 261.057 70.6507 261.226 70.5465 261.33L69.3645 262.512C69.3121 262.565 69.2442 262.59 69.1757 262.59Z" fill="#5800B5"/>
<path d="M67.3225 262.59C67.254 262.59 67.1856 262.564 67.1332 262.512L65.9513 261.33C65.847 261.226 65.847 261.057 65.9513 260.952C66.0555 260.848 66.2251 260.848 66.3293 260.952L67.5113 262.134C67.6156 262.239 67.6156 262.408 67.5113 262.512C67.4594 262.565 67.3909 262.59 67.3225 262.59Z" fill="#5800B5"/>
<path d="M70.3577 265.626C70.2892 265.626 70.2207 265.6 70.1683 265.548L68.9864 264.366C68.8821 264.261 68.8821 264.092 68.9864 263.988C69.0907 263.883 69.2603 263.883 69.3645 263.988L70.5465 265.17C70.6507 265.274 70.6507 265.443 70.5465 265.548C70.494 265.6 70.4261 265.626 70.3577 265.626Z" fill="#5800B5"/>
<path d="M219.662 20.4383C219.514 20.4383 219.395 20.3185 219.395 20.1709V18.267C219.395 18.1194 219.514 17.9996 219.662 17.9996C219.81 17.9996 219.929 18.1194 219.929 18.267V20.1709C219.929 20.3191 219.81 20.4383 219.662 20.4383Z" fill="#5800B5"/>
<path d="M219.662 25.327C219.514 25.327 219.395 25.2072 219.395 25.0596V23.1557C219.395 23.0081 219.514 22.8883 219.662 22.8883C219.81 22.8883 219.929 23.0081 219.929 23.1557V25.0596C219.929 25.2072 219.81 25.327 219.662 25.327Z" fill="#5800B5"/>
<path d="M218.17 21.9313H216.266C216.119 21.9313 215.999 21.8115 215.999 21.6639C215.999 21.5163 216.119 21.3965 216.266 21.3965H218.17C218.317 21.3965 218.437 21.5163 218.437 21.6639C218.437 21.8115 218.317 21.9313 218.17 21.9313Z" fill="#5800B5"/>
<path d="M223.058 21.9314H221.155C221.007 21.9314 220.888 21.8116 220.888 21.664C220.888 21.5164 221.007 21.3966 221.155 21.3966H223.058C223.206 21.3966 223.326 21.5164 223.326 21.664C223.326 21.8116 223.206 21.9314 223.058 21.9314Z" fill="#5800B5"/>
<path d="M222.064 24.3332C221.995 24.3332 221.927 24.307 221.874 24.2551L220.528 22.9085C220.424 22.8042 220.424 22.6346 220.528 22.5304C220.633 22.4261 220.802 22.4261 220.907 22.5304L222.253 23.877C222.357 23.9813 222.357 24.1508 222.253 24.2551C222.201 24.307 222.132 24.3332 222.064 24.3332Z" fill="#5800B5"/>
<path d="M218.607 20.8761C218.538 20.8761 218.47 20.8499 218.417 20.798L217.071 19.4519C216.967 19.3476 216.967 19.1781 217.071 19.0738C217.176 18.9695 217.345 18.9695 217.449 19.0738L218.796 20.4199C218.9 20.5242 218.9 20.6937 218.796 20.798C218.744 20.8499 218.675 20.8761 218.607 20.8761Z" fill="#5800B5"/>
<path d="M220.718 20.8761C220.649 20.8761 220.581 20.8499 220.528 20.798C220.424 20.6937 220.424 20.5242 220.528 20.4199L221.874 19.0738C221.979 18.9695 222.148 18.9695 222.253 19.0738C222.357 19.1781 222.357 19.3476 222.253 19.4519L220.907 20.798C220.855 20.8499 220.786 20.8761 220.718 20.8761Z" fill="#5800B5"/>
<path d="M217.261 24.3332C217.192 24.3332 217.124 24.307 217.071 24.2551C216.967 24.1508 216.967 23.9813 217.071 23.877L218.417 22.5304C218.522 22.4261 218.691 22.4261 218.796 22.5304C218.9 22.6346 218.9 22.8042 218.796 22.9085L217.449 24.2551C217.397 24.307 217.329 24.3332 217.261 24.3332Z" fill="#5800B5"/>
<path d="M73.2127 39.7464C73.0651 39.7464 72.9453 39.6266 72.9453 39.479V37.267C72.9453 37.1194 73.0651 36.9996 73.2127 36.9996C73.3603 36.9996 73.4801 37.1194 73.4801 37.267V39.479C73.4801 39.6266 73.3603 39.7464 73.2127 39.7464Z" fill="#5800B5"/>
<path d="M73.2127 45.4268C73.0651 45.4268 72.9453 45.307 72.9453 45.1594V42.9475C72.9453 42.7998 73.0651 42.6801 73.2127 42.6801C73.3603 42.6801 73.4801 42.7998 73.4801 42.9475V45.1594C73.4801 45.3075 73.3603 45.4268 73.2127 45.4268Z" fill="#5800B5"/>
<path d="M71.4783 41.4804H69.2664C69.1188 41.4804 68.999 41.3606 68.999 41.213C68.999 41.0654 69.1188 40.9456 69.2664 40.9456H71.4783C71.6259 40.9456 71.7457 41.0654 71.7457 41.213C71.7457 41.3606 71.6259 41.4804 71.4783 41.4804Z" fill="#5800B5"/>
<path d="M77.1595 41.4804H74.9471C74.7995 41.4804 74.6797 41.3606 74.6797 41.213C74.6797 41.0654 74.7995 40.9456 74.9471 40.9456H77.1595C77.3072 40.9456 77.4269 41.0654 77.4269 41.213C77.4269 41.3606 77.3072 41.4804 77.1595 41.4804Z" fill="#5800B5"/>
<path d="M76.0037 44.2707C75.9352 44.2707 75.8668 44.2445 75.8144 44.1926L74.2501 42.6283C74.1458 42.524 74.1458 42.3545 74.2501 42.2502C74.3544 42.1459 74.5239 42.1459 74.6282 42.2502L76.1925 43.8145C76.2968 43.9188 76.2968 44.0883 76.1925 44.1926C76.1401 44.2445 76.0716 44.2707 76.0037 44.2707Z" fill="#5800B5"/>
<path d="M71.9871 40.2538C71.9187 40.2538 71.8502 40.2276 71.7978 40.1758L70.2335 38.6115C70.1292 38.5072 70.1292 38.3377 70.2335 38.2334C70.3378 38.1291 70.5073 38.1291 70.6116 38.2334L72.1759 39.7977C72.2802 39.9019 72.2802 40.0715 72.1759 40.1758C72.124 40.2276 72.0556 40.2538 71.9871 40.2538Z" fill="#5800B5"/>
<path d="M74.4394 40.2538C74.371 40.2538 74.3025 40.2276 74.2501 40.1758C74.1458 40.0715 74.1458 39.9019 74.2501 39.7977L75.8144 38.2334C75.9187 38.1291 76.0882 38.1291 76.1925 38.2334C76.2968 38.3377 76.2968 38.5072 76.1925 38.6115L74.6282 40.1758C74.5763 40.2276 74.5079 40.2538 74.4394 40.2538Z" fill="#5800B5"/>
<path d="M70.4228 44.2707C70.3544 44.2707 70.2859 44.2445 70.2335 44.1926C70.1292 44.0883 70.1292 43.9188 70.2335 43.8145L71.7978 42.2502C71.9021 42.1459 72.0716 42.1459 72.1759 42.2502C72.2802 42.3545 72.2802 42.524 72.1759 42.6283L70.6116 44.1926C70.5597 44.2445 70.4913 44.2707 70.4228 44.2707Z" fill="#5800B5"/>
<path d="M54.1328 197.102C53.2044 196.283 52.3477 195.547 51.5134 194.788C48.2012 191.771 45.2536 188.436 42.7174 184.737C41.8 183.398 40.9551 182.015 40.178 180.595C39.0019 178.446 38.1353 176.164 37.4253 173.821C37.0972 172.738 36.7155 171.671 36.3893 170.586C35.4466 167.455 35.3049 164.257 35.5946 161.021C35.9617 156.918 37.2462 153.128 39.4186 149.634C39.4654 149.559 39.5093 149.481 39.559 149.408C39.8546 148.969 39.8825 148.961 40.3702 149.133C42.3866 149.842 44.4482 150.38 46.5575 150.712C50.4826 151.331 54.3924 151.268 58.2631 150.307C60.3113 149.798 62.206 148.954 63.8532 147.603C65.0587 146.614 66.0235 145.437 66.6316 143.997C67.4265 142.112 67.4834 140.231 66.3866 138.435C65.5558 137.075 64.3046 136.215 62.8255 135.665C60.563 134.822 58.229 134.703 55.8643 135.019C53.3351 135.357 50.9418 136.127 48.6449 137.253C44.8577 139.11 41.7681 141.785 39.1843 145.083C38.7244 145.671 38.717 145.702 38.0226 145.461C36.0508 144.777 34.0813 144.086 32.1222 143.365C28.6397 142.083 25.2298 140.627 21.8972 138.994C21.1397 138.622 20.3978 138.22 19.6465 137.835C19.4594 137.739 19.287 137.596 18.978 137.576C19.1678 137.868 19.3868 138.018 19.5894 138.174C23.3496 141.069 27.3165 143.63 31.6489 145.593C33.2056 146.298 34.7837 146.959 36.3559 147.631C37.1522 147.971 37.1593 147.967 36.7116 148.705C34.093 153.02 32.8253 157.721 32.6161 162.746C32.4621 166.44 33.0335 170.008 34.3172 173.462C35.2544 175.986 36.4428 178.387 37.8344 180.698C40.9333 185.843 45.0219 190.099 49.5966 193.925C50.8731 194.993 52.1203 196.103 53.5878 196.919C53.7184 196.991 53.8295 197.117 54.1328 197.102ZM49.7145 139.789C50.6187 139.302 51.9639 138.782 53.3506 138.377C55.6567 137.703 57.9967 137.398 60.3888 137.847C61.3346 138.025 62.2372 138.331 63.0301 138.894C64.2411 139.754 64.6401 140.921 64.2231 142.339C63.8861 143.485 63.1938 144.393 62.3172 145.174C61.1523 146.212 59.7883 146.891 58.3079 147.341C55.6445 148.152 52.9052 148.365 50.1418 148.281C47.3962 148.198 44.72 147.677 42.1028 146.853C41.5408 146.676 41.5342 146.632 41.9078 146.146C41.9206 146.128 41.9357 146.112 41.9502 146.094C44.0309 143.595 46.4495 141.504 49.7145 139.789Z" fill="#C8BCEA"/>
<path d="M22.2541 149.884L25.9756 139.137L26.0105 139.037L26.0834 138.959L34.4767 129.992L1.2382 125.07L22.2541 149.884Z" fill="white" stroke="#652AC1"/>
<path d="M25.9616 140.981L31.2488 142.007L27.7318 137.999L6.02425 127.773L25.9616 140.981Z" fill="#CECEF4" stroke="#652AC1"/>
<path d="M63.0757 28.2348H62.707C61.6213 28.2348 61.0785 26.9228 61.8457 26.1556L62.1064 25.8949C62.5822 25.4191 62.5822 24.6472 62.1064 24.1714L61.1232 23.1881C60.6474 22.7123 59.8764 22.7123 59.3996 23.1881L59.1389 23.4498C58.3717 24.2161 57.0597 23.6732 57.0597 22.5875V22.2188C57.0597 21.5456 56.5141 21 55.8419 21H54.4517C53.7785 21 53.2329 21.5456 53.2329 22.2188V22.5875C53.2329 23.6732 51.9209 24.2161 51.1537 23.4498L50.893 23.1881C50.4172 22.7123 49.6462 22.7123 49.1695 23.1881L48.1872 24.1714C47.7104 24.6472 47.7104 25.4191 48.1872 25.8949L48.4479 26.1556C49.2151 26.9228 48.6713 28.2348 47.5866 28.2348H47.2169C46.5447 28.2348 45.999 28.7804 45.999 29.4536V30.8428C45.999 31.516 46.5447 32.0616 47.2169 32.0616H47.5866C48.6713 32.0616 49.2151 33.3736 48.4479 34.1408L48.1872 34.4015C47.7104 34.8773 47.7104 35.6492 48.1872 36.125L49.1695 37.1083C49.6462 37.5841 50.4172 37.5841 50.893 37.1083L51.1537 36.8476C51.9209 36.0803 53.2329 36.6232 53.2329 37.7089V38.0776C53.2329 38.7508 53.7785 39.2964 54.4517 39.2964H55.8419C56.5141 39.2964 57.0597 38.7508 57.0597 38.0776V37.7089C57.0597 36.6232 58.3717 36.0803 59.1389 36.8476L59.3996 37.1083C59.8764 37.5841 60.6474 37.5841 61.1232 37.1083L62.1064 36.125C62.5822 35.6492 62.5822 34.8773 62.1064 34.4015L61.8457 34.1408C61.0785 33.3736 61.6222 32.0616 62.707 32.0616H63.0757C63.7489 32.0616 64.2945 31.516 64.2945 30.8428V29.4536C64.2936 28.7804 63.7489 28.2348 63.0757 28.2348ZM55.1463 33.4062C53.3465 33.4062 51.8883 31.9481 51.8883 30.1482C51.8883 28.3484 53.3465 26.8902 55.1463 26.8902C56.9462 26.8902 58.4052 28.3484 58.4052 30.1482C58.4052 31.9481 56.9462 33.4062 55.1463 33.4062Z" fill="#642CFF"/>
<path d="M100.076 180.235H99.707C98.6213 180.235 98.0785 178.923 98.8457 178.156L99.1064 177.895C99.5822 177.419 99.5822 176.647 99.1064 176.171L98.1232 175.188C97.6474 174.712 96.8764 174.712 96.3996 175.188L96.1389 175.45C95.3717 176.216 94.0597 175.673 94.0597 174.588V174.219C94.0597 173.546 93.5141 173 92.8419 173H91.4517C90.7785 173 90.2329 173.546 90.2329 174.219V174.588C90.2329 175.673 88.9209 176.216 88.1537 175.45L87.893 175.188C87.4172 174.712 86.6462 174.712 86.1695 175.188L85.1872 176.171C84.7104 176.647 84.7104 177.419 85.1872 177.895L85.4479 178.156C86.2151 178.923 85.6713 180.235 84.5866 180.235H84.2169C83.5447 180.235 82.999 180.78 82.999 181.454V182.843C82.999 183.516 83.5447 184.062 84.2169 184.062H84.5866C85.6713 184.062 86.2151 185.374 85.4479 186.141L85.1872 186.402C84.7104 186.877 84.7104 187.649 85.1872 188.125L86.1695 189.108C86.6462 189.584 87.4172 189.584 87.893 189.108L88.1537 188.848C88.9209 188.08 90.2329 188.623 90.2329 189.709V190.078C90.2329 190.751 90.7785 191.296 91.4517 191.296H92.8419C93.5141 191.296 94.0597 190.751 94.0597 190.078V189.709C94.0597 188.623 95.3717 188.08 96.1389 188.848L96.3996 189.108C96.8764 189.584 97.6474 189.584 98.1232 189.108L99.1064 188.125C99.5822 187.649 99.5822 186.877 99.1064 186.402L98.8457 186.141C98.0785 185.374 98.6222 184.062 99.707 184.062H100.076C100.749 184.062 101.295 183.516 101.295 182.843V181.454C101.294 180.78 100.749 180.235 100.076 180.235ZM92.1463 185.406C90.3465 185.406 88.8883 183.948 88.8883 182.148C88.8883 180.348 90.3465 178.89 92.1463 178.89C93.9462 178.89 95.4052 180.348 95.4052 182.148C95.4052 183.948 93.9462 185.406 92.1463 185.406Z" fill="#642CFF"/>
</svg>
