<svg width="260" height="280" viewBox="0 0 260 280" fill="none" xmlns="http://www.w3.org/2000/svg">
<path d="M45.4007 209.823C44.6964 209.301 44.0466 208.834 43.4135 208.348C40.9004 206.42 38.6612 204.245 36.7312 201.791C36.033 200.903 35.3895 199.979 34.797 199.026C33.9002 197.583 33.2365 196.028 32.6909 194.421C32.4388 193.679 32.1462 192.95 31.8955 192.207C31.171 190.059 31.051 187.818 31.2565 185.524C31.517 182.616 32.4713 179.875 34.0974 177.29C34.1324 177.235 34.1652 177.177 34.2025 177.123C34.4239 176.797 34.4449 176.789 34.8139 176.882C36.3392 177.263 37.898 177.521 39.4919 177.631C42.4581 177.837 45.4099 177.565 48.3285 176.662C49.8729 176.184 51.3001 175.48 52.5383 174.434C53.4445 173.667 54.1682 172.783 54.6214 171.734C55.2139 170.362 55.2492 169.035 54.4137 167.836C53.7809 166.928 52.8327 166.395 51.7137 166.095C50.0019 165.635 48.2392 165.687 46.4551 166.048C44.5468 166.433 42.7429 167.115 41.0132 168.041C38.1612 169.569 35.8394 171.631 33.902 174.102C33.5571 174.543 33.5516 174.565 33.0263 174.436C31.5347 174.07 30.0449 173.699 28.5627 173.306C25.9281 172.608 23.3475 171.783 20.8246 170.829C20.2512 170.612 19.6893 170.372 19.1205 170.145C18.9788 170.089 18.8481 169.998 18.6147 170.002C18.7592 170.196 18.9251 170.289 19.0788 170.387C21.9297 172.204 24.9353 173.774 28.2145 174.901C29.3927 175.306 30.587 175.679 31.7767 176.06C32.3794 176.252 32.3848 176.25 32.0497 176.794C30.0901 179.983 29.1521 183.364 29.0146 186.911C28.9134 189.519 29.3594 191.996 30.3428 194.351C31.0606 196.071 31.9677 197.691 33.0278 199.235C35.3887 202.674 38.4931 205.429 41.9627 207.853C42.9309 208.53 43.8771 209.238 44.9885 209.726C45.0874 209.769 45.1717 209.851 45.4007 209.823ZM41.8311 169.763C42.5119 169.367 43.5254 168.923 44.5708 168.557C46.3092 167.948 48.0748 167.597 49.8828 167.773C50.5976 167.842 51.2804 168.005 51.8813 168.355C52.7992 168.889 53.1052 169.687 52.7961 170.709C52.5463 171.534 52.0273 172.214 51.3687 172.815C50.4933 173.613 49.4662 174.17 48.3503 174.573C46.3426 175.3 44.2752 175.609 42.1883 175.711C40.115 175.814 38.0922 175.604 36.1127 175.177C35.6877 175.085 35.6825 175.055 35.9626 174.691C35.9722 174.677 35.9835 174.665 35.9945 174.652C37.5553 172.772 39.3729 171.16 41.8311 169.763Z" fill="#C8BCEA"/>
<path d="M21.0833 178.237L23.7946 170.613L23.8299 170.514L23.9005 170.438L29.9692 163.889L5.50703 162.409L21.0833 178.237Z" fill="white" stroke="#652AC1"/>
<path d="M23.9106 171.843L27.5355 172.218L25.1843 169.918L10.4586 164.608L23.9106 171.843Z" fill="#CECEF4" stroke="#652AC1"/>
<path d="M67.6035 82.3719H192.397C194.47 82.372 196.152 84.0567 196.152 86.1385V166.224H63.8486V86.1385C63.8488 84.0567 65.531 82.3719 67.6035 82.3719Z" fill="white" stroke="#652EFF"/>
<path d="M203.242 161.659C203.029 165.789 200.201 168.916 196.911 168.916H63.0889C59.7993 168.916 56.9706 165.789 56.7578 161.659H203.242Z" fill="white" stroke="#652EFF"/>
<path opacity="0.2" d="M117.58 164.254H142.421C142.835 164.254 143.174 164.591 143.174 165.011C143.174 165.43 142.836 165.768 142.421 165.768H117.58C117.165 165.768 116.827 165.43 116.827 165.011C116.827 164.592 117.166 164.254 117.58 164.254Z" fill="white" stroke="#652EFF"/>
<g opacity="0.2">
<path d="M85.8867 163.8C86.5522 163.8 87.0938 164.341 87.0938 165.011C87.0937 165.681 86.5522 166.222 85.8867 166.222C85.2212 166.222 84.6797 165.681 84.6797 165.011C84.6797 164.341 85.2212 163.8 85.8867 163.8Z" fill="white" stroke="#652EFF"/>
<path d="M78.1631 163.8C78.8286 163.8 79.3701 164.341 79.3701 165.011C79.3701 165.681 78.8285 166.222 78.1631 166.222C77.4976 166.222 76.9561 165.681 76.9561 165.011C76.9561 164.341 77.4976 163.8 78.1631 163.8Z" fill="white" stroke="#652EFF"/>
<path d="M70.4385 163.8C71.1039 163.8 71.6455 164.341 71.6455 165.011C71.6455 165.681 71.1039 166.222 70.4385 166.222C69.773 166.222 69.2315 165.681 69.2314 165.011C69.2314 164.341 69.773 163.8 70.4385 163.8Z" fill="white" stroke="#652EFF"/>
</g>
<path d="M192.243 88.957H67.7568V157.498H192.243V88.957Z" fill="white"/>
<path opacity="0.6" d="M130 87.6318C131.227 87.6318 132.221 86.6352 132.221 85.4057C132.221 84.1763 131.227 83.1797 130 83.1797C128.774 83.1797 127.779 84.1763 127.779 85.4057C127.779 86.6352 128.774 87.6318 130 87.6318Z" fill="#AE62FF"/>
<g opacity="0.24">
<path d="M186.214 88.957V157.498" stroke="#AE62FF" stroke-width="0.5" stroke-miterlimit="10"/>
<path d="M179.601 88.957V157.498" stroke="#AE62FF" stroke-width="0.5" stroke-miterlimit="10"/>
<path d="M172.987 88.957V157.498" stroke="#AE62FF" stroke-width="0.5" stroke-miterlimit="10"/>
<path d="M166.374 88.957V157.498" stroke="#AE62FF" stroke-width="0.5" stroke-miterlimit="10"/>
<path d="M159.76 88.957V157.498" stroke="#AE62FF" stroke-width="0.5" stroke-miterlimit="10"/>
<path d="M153.147 88.957V157.498" stroke="#AE62FF" stroke-width="0.5" stroke-miterlimit="10"/>
<path d="M146.533 88.957V157.498" stroke="#AE62FF" stroke-width="0.5" stroke-miterlimit="10"/>
<path d="M139.921 88.957V157.498" stroke="#AE62FF" stroke-width="0.5" stroke-miterlimit="10"/>
<path d="M133.307 88.957V157.498" stroke="#AE62FF" stroke-width="0.5" stroke-miterlimit="10"/>
<path d="M126.693 88.957V157.498" stroke="#AE62FF" stroke-width="0.5" stroke-miterlimit="10"/>
<path d="M120.08 88.957V157.498" stroke="#AE62FF" stroke-width="0.5" stroke-miterlimit="10"/>
<path d="M113.468 88.957V157.498" stroke="#AE62FF" stroke-width="0.5" stroke-miterlimit="10"/>
<path d="M106.854 88.957V157.498" stroke="#AE62FF" stroke-width="0.5" stroke-miterlimit="10"/>
<path d="M100.24 88.957V157.498" stroke="#AE62FF" stroke-width="0.5" stroke-miterlimit="10"/>
<path d="M93.627 88.957V157.498" stroke="#AE62FF" stroke-width="0.5" stroke-miterlimit="10"/>
<path d="M87.0146 88.957V157.498" stroke="#AE62FF" stroke-width="0.5" stroke-miterlimit="10"/>
<path d="M80.4004 88.957V157.498" stroke="#AE62FF" stroke-width="0.5" stroke-miterlimit="10"/>
<path d="M73.7871 88.957V157.498" stroke="#AE62FF" stroke-width="0.5" stroke-miterlimit="10"/>
<path d="M192.155 151.749H67.8467" stroke="#AE62FF" stroke-width="0.5" stroke-miterlimit="10"/>
<path d="M192.155 145.411H67.8467" stroke="#AE62FF" stroke-width="0.5" stroke-miterlimit="10"/>
<path d="M192.155 139.072H67.8467" stroke="#AE62FF" stroke-width="0.5" stroke-miterlimit="10"/>
<path d="M192.155 132.735H67.8467" stroke="#AE62FF" stroke-width="0.5" stroke-miterlimit="10"/>
<path d="M192.155 126.396H67.8467" stroke="#AE62FF" stroke-width="0.5" stroke-miterlimit="10"/>
<path d="M192.155 120.059H67.8467" stroke="#AE62FF" stroke-width="0.5" stroke-miterlimit="10"/>
<path d="M192.155 113.72H67.8467" stroke="#AE62FF" stroke-width="0.5" stroke-miterlimit="10"/>
<path d="M192.155 107.382H67.8467" stroke="#AE62FF" stroke-width="0.5" stroke-miterlimit="10"/>
<path d="M192.155 101.044H67.8467" stroke="#AE62FF" stroke-width="0.5" stroke-miterlimit="10"/>
<path d="M192.155 94.7059H67.8467" stroke="#AE62FF" stroke-width="0.5" stroke-miterlimit="10"/>
</g>
<path d="M172.987 94.7058H87.0137V101.044H172.987V94.7058Z" stroke="#D9CDFC" stroke-miterlimit="10"/>
<path d="M172.986 145.411H87.0146V151.749H172.986V145.411Z" stroke="#D9CDFC" stroke-miterlimit="10"/>
<path d="M172.987 101.044H87.0137V126.396H172.987V101.044Z" stroke="#D9CDFC" stroke-miterlimit="10"/>
<path d="M172.986 126.396H146.535V145.41H172.986V126.396Z" stroke="#D9CDFC" stroke-miterlimit="10"/>
<path d="M146.536 126.396H113.467V145.41H146.536V126.396Z" stroke="#D9CDFC" stroke-miterlimit="10"/>
<path d="M113.467 126.396H87.0137V145.41H113.467V126.396Z" stroke="#D9CDFC" stroke-miterlimit="10"/>
<path d="M146.558 134.427H130.695V135.552H146.558V134.427Z" fill="#D9CDFC"/>
<path d="M150.392 134.427H147.483V135.552H150.392V134.427Z" fill="#D9CDFC"/>
<path d="M159.778 134.427H152.44V135.552H159.778V134.427Z" fill="#D9CDFC"/>
<path d="M135.718 132.34H130.695V133.466H135.718V132.34Z" fill="#D9CDFC"/>
<path d="M157.728 132.34H137.04V133.466H157.728V132.34Z" fill="#D9CDFC"/>
<path d="M165.263 132.34H159.116V133.466H165.263V132.34Z" fill="#D9CDFC"/>
<path d="M139.023 130.253H130.695V131.379H139.023V130.253Z" fill="#D9CDFC"/>
<path d="M143.121 130.253H140.015V131.379H143.121V130.253Z" fill="#D9CDFC"/>
<path d="M149.995 130.253H144.046V131.379H149.995V130.253Z" fill="#D9CDFC"/>
<path d="M128.862 131.164C129.098 131.164 129.29 130.972 129.29 130.736C129.29 130.499 129.098 130.307 128.862 130.307C128.626 130.307 128.435 130.499 128.435 130.736C128.435 130.972 128.626 131.164 128.862 131.164Z" fill="#F0F6FA"/>
<path d="M128.862 133.34C129.098 133.34 129.29 133.148 129.29 132.912C129.29 132.675 129.098 132.483 128.862 132.483C128.626 132.483 128.435 132.675 128.435 132.912C128.435 133.148 128.626 133.34 128.862 133.34Z" fill="#F0F6FA"/>
<path d="M128.862 135.517C129.098 135.517 129.29 135.325 129.29 135.088C129.29 134.851 129.098 134.659 128.862 134.659C128.626 134.659 128.435 134.851 128.435 135.088C128.435 135.325 128.626 135.517 128.862 135.517Z" fill="#F0F6FA"/>
<path d="M139.949 142.448H130.695V143.573H139.949V142.448Z" fill="#D9CDFC"/>
<path d="M153.432 142.448H141.139V143.573H153.432V142.448Z" fill="#D9CDFC"/>
<path d="M160.173 142.448H154.886V143.573H160.173V142.448Z" fill="#D9CDFC"/>
<path d="M138.494 140.427H130.695V141.553H138.494V140.427Z" fill="#D9CDFC"/>
<path d="M148.975 140.427H139.589V141.553H148.975V140.427Z" fill="#D9CDFC"/>
<path d="M155.48 140.427H149.994V141.553H155.48V140.427Z" fill="#D9CDFC"/>
<path d="M133.405 138.406H130.695V139.532H133.405V138.406Z" fill="#D9CDFC"/>
<path d="M142.195 138.406H134.462V139.532H142.195V138.406Z" fill="#D9CDFC"/>
<path d="M128.862 139.261C129.098 139.261 129.29 139.069 129.29 138.832C129.29 138.596 129.098 138.404 128.862 138.404C128.626 138.404 128.435 138.596 128.435 138.832C128.435 139.069 128.626 139.261 128.862 139.261Z" fill="#D9CDFC"/>
<path d="M128.862 141.437C129.098 141.437 129.29 141.245 129.29 141.009C129.29 140.772 129.098 140.58 128.862 140.58C128.626 140.58 128.435 140.772 128.435 141.009C128.435 141.245 128.626 141.437 128.862 141.437Z" fill="#D9CDFC"/>
<path d="M128.862 143.613C129.098 143.613 129.29 143.421 129.29 143.185C129.29 142.948 129.098 142.756 128.862 142.756C128.626 142.756 128.435 142.948 128.435 143.185C128.435 143.421 128.626 143.613 128.862 143.613Z" fill="#D9CDFC"/>
<path d="M101.099 107.411H93.1787V108.537H101.099V107.411Z" fill="#D9CDFC"/>
<path d="M103.012 107.411H101.561V108.537H103.012V107.411Z" fill="#D9CDFC"/>
<path d="M107.699 107.411H104.036V108.537H107.699V107.411Z" fill="#D9CDFC"/>
<path d="M95.6867 105.324H93.1787V106.45H95.6867V105.324Z" fill="#D9CDFC"/>
<path d="M106.675 105.324H96.3457V106.45H106.675V105.324Z" fill="#D9CDFC"/>
<path d="M110.438 105.324H107.369V106.45H110.438V105.324Z" fill="#D9CDFC"/>
<path d="M97.3368 103.237H93.1787V104.363H97.3368V103.237Z" fill="#D9CDFC"/>
<path d="M99.382 103.237H97.8311V104.363H99.382V103.237Z" fill="#D9CDFC"/>
<path d="M102.814 103.237H99.8438V104.363H102.814V103.237Z" fill="#D9CDFC"/>
<path d="M91.3457 104.149C91.5819 104.149 91.7734 103.957 91.7734 103.72C91.7734 103.483 91.5819 103.291 91.3457 103.291C91.1094 103.291 90.918 103.483 90.918 103.72C90.918 103.957 91.1094 104.149 91.3457 104.149Z" fill="#F0F6FA"/>
<path d="M91.3457 106.325C91.5819 106.325 91.7734 106.133 91.7734 105.896C91.7734 105.66 91.5819 105.468 91.3457 105.468C91.1094 105.468 90.918 105.66 90.918 105.896C90.918 106.133 91.1094 106.325 91.3457 106.325Z" fill="#F0F6FA"/>
<path d="M91.3457 108.501C91.5819 108.501 91.7734 108.309 91.7734 108.072C91.7734 107.835 91.5819 107.643 91.3457 107.643C91.1094 107.643 90.918 107.835 90.918 108.072C90.918 108.309 91.1094 108.501 91.3457 108.501Z" fill="#F0F6FA"/>
<path d="M126.123 236.358V251.51H29.8633V236.358H126.123Z" fill="white" stroke="#652EFF"/>
<path opacity="0.45" d="M40.4424 240.938C42.3206 240.938 43.8447 242.465 43.8447 244.35C43.8446 246.235 42.3205 247.762 40.4424 247.762C38.5641 247.762 37.0392 246.235 37.0391 244.35C37.0391 242.465 38.5641 240.938 40.4424 240.938Z" fill="white" stroke="#652AC1"/>
<path opacity="0.45" d="M51.2002 240.938C53.0784 240.938 54.6025 242.465 54.6025 244.35C54.6024 246.235 53.0783 247.762 51.2002 247.762C49.3219 247.762 47.797 246.235 47.7969 244.35C47.7969 242.465 49.3219 240.938 51.2002 240.938Z" fill="white" stroke="#652AC1"/>
<path opacity="0.45" d="M61.959 240.938C63.8372 240.938 65.3613 242.465 65.3613 244.35C65.3612 246.235 63.8371 247.762 61.959 247.762C60.0807 247.762 58.5558 246.235 58.5557 244.35C58.5557 242.465 60.0807 240.938 61.959 240.938Z" fill="white" stroke="#652AC1"/>
<path d="M107.136 244.173H103.056V248.263H107.136V244.173Z" fill="#AE62FF"/>
<path d="M113.412 244.173H109.331V248.263H113.412V244.173Z" fill="#AE62FF"/>
<path d="M119.688 244.173H115.606V248.263H119.688V244.173Z" fill="#AE62FF"/>
<path opacity="0.6" d="M119.817 240.73C119.817 240.874 119.701 240.989 119.559 240.989H103.314C103.171 240.989 103.056 240.873 103.056 240.73C103.056 240.587 103.171 240.472 103.314 240.472H119.559C119.701 240.471 119.817 240.587 119.817 240.73Z" fill="#AE62FF"/>
<path opacity="0.6" d="M119.817 242.001C119.817 242.144 119.701 242.259 119.559 242.259H103.314C103.171 242.259 103.056 242.143 103.056 242.001C103.056 241.857 103.171 241.742 103.314 241.742H119.559C119.701 241.742 119.817 241.857 119.817 242.001Z" fill="#AE62FF"/>
<path d="M126.123 218.316V233.469H29.8633V218.316H126.123Z" fill="white" stroke="#652EFF"/>
<path opacity="0.45" d="M40.4424 222.897C42.3206 222.897 43.8447 224.423 43.8447 226.309C43.8446 228.194 42.3205 229.721 40.4424 229.721C38.5641 229.721 37.0392 228.194 37.0391 226.309C37.0391 224.423 38.5641 222.897 40.4424 222.897Z" fill="white" stroke="#652AC1"/>
<path opacity="0.45" d="M51.2002 222.897C53.0784 222.897 54.6025 224.423 54.6025 226.309C54.6024 228.194 53.0783 229.721 51.2002 229.721C49.3219 229.721 47.797 228.194 47.7969 226.309C47.7969 224.423 49.3219 222.897 51.2002 222.897Z" fill="white" stroke="#652AC1"/>
<path opacity="0.45" d="M61.959 222.897C63.8372 222.897 65.3613 224.423 65.3613 226.309C65.3612 228.194 63.8371 229.721 61.959 229.721C60.0807 229.721 58.5558 228.194 58.5557 226.309C58.5557 224.423 60.0807 222.897 61.959 222.897Z" fill="white" stroke="#652AC1"/>
<path d="M107.136 226.131H103.056V230.221H107.136V226.131Z" fill="#AE62FF"/>
<path d="M113.412 226.131H109.331V230.221H113.412V226.131Z" fill="#AE62FF"/>
<path d="M119.688 226.131H115.606V230.221H119.688V226.131Z" fill="#AE62FF"/>
<path opacity="0.6" d="M119.817 222.689C119.817 222.833 119.701 222.948 119.559 222.948H103.314C103.171 222.948 103.056 222.832 103.056 222.689C103.056 222.546 103.171 222.431 103.314 222.431H119.559C119.701 222.43 119.817 222.546 119.817 222.689Z" fill="#AE62FF"/>
<path opacity="0.6" d="M119.817 223.96C119.817 224.103 119.701 224.218 119.559 224.218H103.314C103.171 224.218 103.056 224.102 103.056 223.96C103.056 223.816 103.171 223.701 103.314 223.701H119.559C119.701 223.701 119.817 223.816 119.817 223.96Z" fill="#AE62FF"/>
<path d="M126.123 199.273V214.425H29.8633V199.273H126.123Z" fill="white" stroke="#652EFF"/>
<path opacity="0.45" d="M40.4424 203.853C42.3206 203.853 43.8447 205.38 43.8447 207.265C43.8446 209.15 42.3205 210.677 40.4424 210.677C38.5641 210.677 37.0392 209.15 37.0391 207.265C37.0391 205.38 38.5641 203.853 40.4424 203.853Z" fill="white" stroke="#652AC1"/>
<path opacity="0.45" d="M51.2002 203.853C53.0784 203.853 54.6025 205.38 54.6025 207.265C54.6024 209.15 53.0783 210.677 51.2002 210.677C49.3219 210.677 47.797 209.15 47.7969 207.265C47.7969 205.38 49.3219 203.853 51.2002 203.853Z" fill="white" stroke="#652AC1"/>
<path opacity="0.45" d="M61.959 203.853C63.8372 203.853 65.3613 205.38 65.3613 207.265C65.3612 209.15 63.8371 210.677 61.959 210.677C60.0807 210.677 58.5558 209.15 58.5557 207.265C58.5557 205.38 60.0807 203.853 61.959 203.853Z" fill="white" stroke="#652AC1"/>
<path d="M107.136 207.088H103.056V211.178H107.136V207.088Z" fill="#AE62FF"/>
<path d="M113.412 207.088H109.331V211.178H113.412V207.088Z" fill="#AE62FF"/>
<path d="M119.688 207.088H115.606V211.178H119.688V207.088Z" fill="#AE62FF"/>
<path opacity="0.6" d="M119.817 203.645C119.817 203.789 119.701 203.904 119.559 203.904H103.314C103.171 203.904 103.056 203.788 103.056 203.645C103.056 203.503 103.171 203.387 103.314 203.387H119.559C119.701 203.387 119.817 203.503 119.817 203.645Z" fill="#AE62FF"/>
<path opacity="0.6" d="M119.817 204.916C119.817 205.059 119.701 205.174 119.559 205.174H103.314C103.171 205.174 103.056 205.058 103.056 204.916C103.056 204.772 103.171 204.657 103.314 204.657H119.559C119.701 204.657 119.817 204.772 119.817 204.916Z" fill="#AE62FF"/>
<path d="M150.301 107.498C151.188 107.498 151.908 106.777 151.908 105.887C151.908 104.997 151.188 104.276 150.301 104.276C149.413 104.276 148.693 104.997 148.693 105.887C148.693 106.777 149.413 107.498 150.301 107.498Z" fill="#5800B5"/>
<path d="M106.993 120.399C107.881 120.399 108.6 119.677 108.6 118.788C108.6 117.898 107.881 117.177 106.993 117.177C106.105 117.177 105.386 117.898 105.386 118.788C105.386 119.677 106.105 120.399 106.993 120.399Z" fill="#5800B5"/>
<path d="M183.887 84.7837V43.0129" stroke="#652EFF" stroke-width="1.5" stroke-linecap="round" stroke-linejoin="round" stroke-dasharray="1.03 4.11"/>
<path d="M183.887 41.6953V41.3756" stroke="#652EFF" stroke-width="1.5" stroke-linecap="round" stroke-linejoin="round"/>
<path d="M123.988 14.6348H124.308" stroke="#652EFF" stroke-width="1.5" stroke-linecap="round" stroke-linejoin="round"/>
<path d="M126.829 14.6348H182.306" stroke="#652EFF" stroke-width="1.5" stroke-linecap="round" stroke-linejoin="round" stroke-dasharray="0.99 3.94"/>
<path d="M183.566 14.6348H183.886V14.9544" stroke="#652EFF" stroke-width="1.5" stroke-linecap="round" stroke-linejoin="round"/>
<path d="M183.887 17.6266V32.9866" stroke="#652EFF" stroke-width="1.5" stroke-linecap="round" stroke-linejoin="round" stroke-dasharray="1.04 4.17"/>
<path d="M183.887 34.3225V34.6422" stroke="#652EFF" stroke-width="1.5" stroke-linecap="round" stroke-linejoin="round"/>
<path d="M150.301 105.887H150.62" stroke="#652EFF" stroke-width="1.5" stroke-linecap="round" stroke-linejoin="round"/>
<path d="M153.188 105.887H225.745" stroke="#652EFF" stroke-width="1.5" stroke-linecap="round" stroke-linejoin="round" stroke-dasharray="1 4.02"/>
<path d="M227.029 105.887H227.349V106.207" stroke="#652EFF" stroke-width="1.5" stroke-linecap="round" stroke-linejoin="round"/>
<path d="M227.349 108.991V186.195" stroke="#652EFF" stroke-width="1.5" stroke-linecap="round" stroke-linejoin="round" stroke-dasharray="1.09 4.34"/>
<path d="M191.765 264.402H192.084" stroke="#652EFF" stroke-width="1.5" stroke-linecap="round" stroke-linejoin="round"/>
<path d="M194.576 264.402H205.785" stroke="#652EFF" stroke-width="1.5" stroke-linecap="round" stroke-linejoin="round" stroke-dasharray="0.97 3.9"/>
<path d="M207.029 264.401H207.349V264.081" stroke="#652EFF" stroke-width="1.5" stroke-linecap="round" stroke-linejoin="round"/>
<path d="M207.349 261.383V217.073" stroke="#652EFF" stroke-width="1.5" stroke-linecap="round" stroke-linejoin="round" stroke-dasharray="1.05 4.21"/>
<path d="M207.349 237.774V237.455" stroke="#652EFF" stroke-width="1.5" stroke-linecap="round" stroke-linejoin="round"/>
<path d="M107.776 148.857H107.456" stroke="#652EFF" stroke-width="1.5" stroke-linecap="round" stroke-linejoin="round"/>
<path d="M104.921 148.857H83.999" stroke="#652EFF" stroke-width="1.5" stroke-linecap="round" stroke-linejoin="round" stroke-dasharray="0.99 3.97"/>
<path d="M82.7308 148.857H82.4111V149.176" stroke="#652EFF" stroke-width="1.5" stroke-linecap="round" stroke-linejoin="round"/>
<path d="M82.4111 151.877V198.783V177.532" stroke="#652EFF" stroke-width="1.5" stroke-linecap="round" stroke-linejoin="round" stroke-dasharray="1.05 4.21"/>
<path d="M82.4111 178.881V179.201" stroke="#652EFF" stroke-width="1.5" stroke-linecap="round" stroke-linejoin="round"/>
<path d="M138.553 265.683H138.233" stroke="#652EFF" stroke-width="1.5" stroke-linecap="round" stroke-linejoin="round"/>
<path d="M135.74 265.683H83.9785" stroke="#652EFF" stroke-width="1.5" stroke-linecap="round" stroke-linejoin="round" stroke-dasharray="0.98 3.9"/>
<path d="M82.7308 265.683H82.4111V265.363" stroke="#652EFF" stroke-width="1.5" stroke-linecap="round" stroke-linejoin="round"/>
<path d="M82.4111 262.652V253.84" stroke="#652EFF" stroke-width="1.5" stroke-linecap="round" stroke-linejoin="round" stroke-dasharray="1.06 4.23"/>
<path d="M82.4111 252.483V252.164" stroke="#652EFF" stroke-width="1.5" stroke-linecap="round" stroke-linejoin="round"/>
<path d="M43.6406 101.522V101.842" stroke="#652EFF" stroke-width="1.5" stroke-linecap="round" stroke-linejoin="round"/>
<path d="M43.6406 84.23V112.184" stroke="#652EFF" stroke-width="1.5" stroke-linecap="round" stroke-linejoin="round" stroke-dasharray="0.95 3.8"/>
<path d="M43.6406 113.4V113.72H43.9603" stroke="#652EFF" stroke-width="1.5" stroke-linecap="round" stroke-linejoin="round"/>
<path d="M46.5146 113.72H115.491" stroke="#652EFF" stroke-width="1.5" stroke-linecap="round" stroke-linejoin="round" stroke-dasharray="1 4"/>
<path d="M116.769 113.72H117.088" stroke="#652EFF" stroke-width="1.5" stroke-linecap="round" stroke-linejoin="round"/>
<path d="M43.6416 52.691V52.3713" stroke="#652EFF" stroke-width="1.5" stroke-linecap="round" stroke-linejoin="round"/>
<path d="M43.6416 49.823V16.0657" stroke="#652EFF" stroke-width="1.5" stroke-linecap="round" stroke-linejoin="round" stroke-dasharray="0.99 3.98"/>
<path d="M43.6416 14.7917V14.472H43.9613" stroke="#652EFF" stroke-width="1.5" stroke-linecap="round" stroke-linejoin="round"/>
<path d="M46.5732 14.472H68.1301" stroke="#652EFF" stroke-width="1.5" stroke-linecap="round" stroke-linejoin="round" stroke-dasharray="1.02 4.09"/>
<path d="M69.4375 14.472H69.7572" stroke="#652EFF" stroke-width="1.5" stroke-linecap="round" stroke-linejoin="round"/>
<path d="M195.163 253.348V279.5H134.72V253.348H195.163Z" fill="white" stroke="#652EFF"/>
<path d="M126.938 0.5V26.6514H66.4941V0.5H126.938Z" fill="white" stroke="#652EFF"/>
<path d="M80.4657 15.0833H76.6484V16.4385H80.4657V15.0833Z" fill="#D9CDFC"/>
<path d="M86.6689 20.344H76.6484V21.6992H86.6689V20.344Z" fill="#D9CDFC"/>
<path d="M103.926 20.344H88.1797V21.6992H103.926V20.344Z" fill="#D9CDFC"/>
<path d="M118.956 20.344H105.596V21.6992H118.956V20.344Z" fill="#D9CDFC"/>
<path d="M83.1694 17.7136H76.6484V19.0689H83.1694V17.7136Z" fill="#D9CDFC"/>
<path d="M97.0861 17.7136H84.8389V19.0689H97.0861V17.7136Z" fill="#D9CDFC"/>
<path d="M105.914 17.7136H98.6768V19.0689H105.914V17.7136Z" fill="#D9CDFC"/>
<path d="M91.1211 15.0833H81.7373V16.4385H91.1211V15.0833Z" fill="#D9CDFC"/>
<path d="M98.4386 10.5132H76.6484V11.8678H98.4386V10.5132Z" fill="#D9CDFC"/>
<path d="M105.039 10.5132H100.108V11.8678H105.039V10.5132Z" fill="#D9CDFC"/>
<path d="M83.1694 7.98279H76.6484V9.33802H83.1694V7.98279Z" fill="#D9CDFC"/>
<path d="M110.685 7.98279H84.8389V9.33802H110.685V7.98279Z" fill="#D9CDFC"/>
<path d="M122.615 7.98279H111.48V9.33802H122.615V7.98279Z" fill="#D9CDFC"/>
<path d="M86.1914 5.45166H76.6484V6.8069H86.1914V5.45166Z" fill="#D9CDFC"/>
<path d="M91.9171 5.45166H87.8613V6.8069H91.9171V5.45166Z" fill="#D9CDFC"/>
<path d="M101.778 5.45166H92.9502V6.8069H101.778V5.45166Z" fill="#D9CDFC"/>
<path d="M71.333 6.54679C71.6172 6.54679 71.8476 6.31584 71.8476 6.03096C71.8476 5.74607 71.6172 5.51514 71.333 5.51514C71.0488 5.51514 70.8184 5.74607 70.8184 6.03096C70.8184 6.31584 71.0488 6.54679 71.333 6.54679Z" fill="#D9CDFC"/>
<path d="M71.333 9.16507C71.6172 9.16507 71.8476 8.93412 71.8476 8.64924C71.8476 8.36436 71.6172 8.13342 71.333 8.13342C71.0488 8.13342 70.8184 8.36436 70.8184 8.64924C70.8184 8.93412 71.0488 9.16507 71.333 9.16507Z" fill="#D9CDFC"/>
<path d="M71.333 11.7832C71.6172 11.7832 71.8476 11.5523 71.8476 11.2674C71.8476 10.9825 71.6172 10.7516 71.333 10.7516C71.0488 10.7516 70.8184 10.9825 70.8184 11.2674C70.8184 11.5523 71.0488 11.7832 71.333 11.7832Z" fill="#D9CDFC"/>
<path d="M71.333 16.2885C71.6172 16.2885 71.8476 16.0575 71.8476 15.7727C71.8476 15.4878 71.6172 15.2568 71.333 15.2568C71.0488 15.2568 70.8184 15.4878 70.8184 15.7727C70.8184 16.0575 71.0488 16.2885 71.333 16.2885Z" fill="#D9CDFC"/>
<path d="M71.333 18.9066C71.6172 18.9066 71.8476 18.6757 71.8476 18.3908C71.8476 18.1059 71.6172 17.875 71.333 17.875C71.0488 17.875 70.8184 18.1059 70.8184 18.3908C70.8184 18.6757 71.0488 18.9066 71.333 18.9066Z" fill="#D9CDFC"/>
<path d="M71.333 21.5251C71.6172 21.5251 71.8476 21.2941 71.8476 21.0092C71.8476 20.7243 71.6172 20.4934 71.333 20.4934C71.0488 20.4934 70.8184 20.7243 70.8184 21.0092C70.8184 21.2941 71.0488 21.5251 71.333 21.5251Z" fill="#D9CDFC"/>
<g opacity="0.5">
<path d="M166.145 263.408H147.06V264.763H166.145V263.408Z" fill="#D9CDFC"/>
<path d="M170.758 263.408H167.259V264.763H170.758V263.408Z" fill="#D9CDFC"/>
<path d="M182.051 263.408H173.224V264.763H182.051V263.408Z" fill="#D9CDFC"/>
<path d="M153.103 260.898H147.06V262.252H153.103V260.898Z" fill="#D9CDFC"/>
<path d="M179.586 260.898H154.694V262.252H179.586V260.898Z" fill="#D9CDFC"/>
<path d="M188.651 260.898H181.256V262.252H188.651V260.898Z" fill="#D9CDFC"/>
<path d="M157.079 258.387H147.06V259.742H157.079V258.387Z" fill="#D9CDFC"/>
<path d="M162.011 258.387H158.272V259.742H162.011V258.387Z" fill="#D9CDFC"/>
<path d="M170.282 258.387H163.124V259.742H170.282V258.387Z" fill="#D9CDFC"/>
<path d="M141.745 259.484C142.029 259.484 142.26 259.253 142.26 258.968C142.26 258.683 142.029 258.452 141.745 258.452C141.461 258.452 141.23 258.683 141.23 258.968C141.23 259.253 141.461 259.484 141.745 259.484Z" fill="#D9CDFC"/>
<path d="M141.745 262.102C142.029 262.102 142.26 261.871 142.26 261.586C142.26 261.301 142.029 261.07 141.745 261.07C141.461 261.07 141.23 261.301 141.23 261.586C141.23 261.871 141.461 262.102 141.745 262.102Z" fill="#D9CDFC"/>
<path d="M141.745 264.72C142.029 264.72 142.26 264.489 142.26 264.204C142.26 263.92 142.029 263.689 141.745 263.689C141.461 263.689 141.23 263.92 141.23 264.204C141.23 264.489 141.461 264.72 141.745 264.72Z" fill="#D9CDFC"/>
<path d="M158.193 273.06H147.06V274.414H158.193V273.06Z" fill="#D9CDFC"/>
<path d="M174.417 273.06H159.625V274.414H174.417V273.06Z" fill="#D9CDFC"/>
<path d="M182.529 273.06H176.167V274.414H182.529V273.06Z" fill="#D9CDFC"/>
<path d="M156.444 270.629H147.06V271.983H156.444V270.629Z" fill="#D9CDFC"/>
<path d="M169.053 270.629H157.761V271.983H169.053V270.629Z" fill="#D9CDFC"/>
<path d="M176.881 270.629H170.281V271.983H176.881V270.629Z" fill="#D9CDFC"/>
<path d="M150.32 268.197H147.06V269.552H150.32V268.197Z" fill="#D9CDFC"/>
<path d="M160.897 268.197H151.592V269.552H160.897V268.197Z" fill="#D9CDFC"/>
<path d="M141.745 269.226C142.029 269.226 142.26 268.995 142.26 268.71C142.26 268.425 142.029 268.194 141.745 268.194C141.461 268.194 141.23 268.425 141.23 268.71C141.23 268.995 141.461 269.226 141.745 269.226Z" fill="#D9CDFC"/>
<path d="M141.745 271.844C142.029 271.844 142.26 271.613 142.26 271.328C142.26 271.044 142.029 270.813 141.745 270.813C141.461 270.813 141.23 271.044 141.23 271.328C141.23 271.613 141.461 271.844 141.745 271.844Z" fill="#D9CDFC"/>
<path d="M141.745 274.462C142.029 274.462 142.26 274.231 142.26 273.946C142.26 273.661 142.029 273.43 141.745 273.43C141.461 273.43 141.23 273.661 141.23 273.946C141.23 274.231 141.461 274.462 141.745 274.462Z" fill="#D9CDFC"/>
</g>
<path d="M259.5 184.267V216.372H163.24V184.267H259.5Z" fill="white" stroke="#652EFF"/>
<g opacity="0.45">
<path opacity="0.6" d="M252.986 208.03C252.986 208.173 252.87 208.288 252.728 208.288H227.181C227.038 208.288 226.923 208.172 226.923 208.03C226.923 207.887 227.039 207.771 227.181 207.771H252.728C252.87 207.77 252.986 207.887 252.986 208.03Z" fill="#D9CDFC"/>
<path opacity="0.6" d="M252.986 209.89C252.986 210.033 252.87 210.148 252.728 210.148H227.181C227.038 210.148 226.923 210.032 226.923 209.89C226.923 209.747 227.039 209.631 227.181 209.631H252.728C252.87 209.631 252.986 209.747 252.986 209.89Z" fill="#D9CDFC"/>
<path opacity="0.6" d="M244.179 211.751C244.179 211.894 244.063 212.009 243.921 212.009H227.181C227.038 212.009 226.923 211.893 226.923 211.751C226.923 211.608 227.039 211.492 227.181 211.492H243.921C244.064 211.492 244.179 211.608 244.179 211.751Z" fill="#D9CDFC"/>
<path d="M252.92 188.629H226.923V205.721H252.92V188.629Z" fill="#D9CDFC"/>
<path opacity="0.6" d="M224.376 208.03C224.376 208.173 224.26 208.288 224.118 208.288H198.57C198.428 208.288 198.312 208.172 198.312 208.03C198.312 207.887 198.428 207.771 198.57 207.771H224.118C224.26 207.77 224.376 207.887 224.376 208.03Z" fill="#D9CDFC"/>
<path opacity="0.6" d="M224.376 209.89C224.376 210.033 224.26 210.148 224.118 210.148H198.57C198.428 210.148 198.312 210.032 198.312 209.89C198.312 209.747 198.428 209.631 198.57 209.631H224.118C224.26 209.631 224.376 209.747 224.376 209.89Z" fill="#D9CDFC"/>
<path opacity="0.6" d="M215.567 211.751C215.567 211.894 215.451 212.009 215.309 212.009H198.569C198.427 212.009 198.312 211.893 198.312 211.751C198.312 211.608 198.427 211.492 198.569 211.492H215.309C215.452 211.492 215.567 211.608 215.567 211.751Z" fill="#D9CDFC"/>
<path d="M224.309 188.629H198.312V205.721H224.309V188.629Z" fill="#D9CDFC"/>
<path d="M195.731 188.67H169.733V205.762H195.731V188.67Z" fill="#652EFF"/>
<path d="M194.599 189.659H170.867V204.773H194.599V189.659Z" fill="white"/>
<path d="M195.731 208.549C195.731 209.006 195.362 209.376 194.907 209.376H170.558C170.103 209.376 169.733 209.006 169.733 208.549C169.733 208.093 170.103 207.723 170.558 207.723H194.907C195.362 207.723 195.731 208.093 195.731 208.549Z" fill="#652EFF"/>
<path d="M182.88 200.799C184.854 200.799 186.455 199.195 186.455 197.216C186.455 195.237 184.854 193.633 182.88 193.633C180.905 193.633 179.305 195.237 179.305 197.216C179.305 199.195 180.905 200.799 182.88 200.799Z" fill="#652EFF"/>
<path d="M181.817 195.67V198.763L184.729 197.216L181.817 195.67Z" fill="white"/>
</g>
<path d="M97.3145 55.5034V86.5425H0.5V55.5034H97.3145Z" fill="white" stroke="#652EFF"/>
<path d="M5.93262 71.2937L7.7214 73.1219V69.465L5.93262 71.2937Z" fill="#AE62FF"/>
<path d="M49.5495 59.8867H10.2129V82.7009H49.5495V59.8867Z" fill="#D9CDFC"/>
<path d="M56.1893 79.274H52.6865V82.7003H56.1893V79.274Z" fill="#AE62FF"/>
<path d="M91.3474 71.2937L89.5586 73.1219V69.465L91.3474 71.2937Z" fill="#AE62FF"/>
<path opacity="0.6" d="M83.5868 64.8034C83.5868 64.9463 83.4711 65.0623 83.3285 65.0623H52.9448C52.8022 65.0623 52.6865 64.9463 52.6865 64.8034C52.6865 64.6605 52.8022 64.5446 52.9448 64.5446H83.3285C83.4711 64.5446 83.5868 64.6605 83.5868 64.8034Z" fill="#D9CDFC"/>
<path opacity="0.6" d="M83.5868 66.6642C83.5868 66.807 83.4711 66.923 83.3285 66.923H52.9448C52.8022 66.923 52.6865 66.807 52.6865 66.6642C52.6865 66.5213 52.8022 66.4053 52.9448 66.4053H83.3285C83.4711 66.4046 83.5868 66.5213 83.5868 66.6642Z" fill="#D9CDFC"/>
<path opacity="0.6" d="M83.5868 68.525C83.5868 68.6679 83.4711 68.7839 83.3285 68.7839H52.9448C52.8022 68.7839 52.6865 68.6679 52.6865 68.525C52.6865 68.3821 52.8022 68.2661 52.9448 68.2661H83.3285C83.4711 68.2655 83.5868 68.3815 83.5868 68.525Z" fill="#D9CDFC"/>
<path opacity="0.6" d="M83.5868 70.3852C83.5868 70.5281 83.4711 70.6441 83.3285 70.6441H52.9448C52.8022 70.6441 52.6865 70.5281 52.6865 70.3852C52.6865 70.2423 52.8022 70.1263 52.9448 70.1263H83.3285C83.4711 70.1263 83.5868 70.2423 83.5868 70.3852Z" fill="#D9CDFC"/>
<path opacity="0.6" d="M83.5868 72.2459C83.5868 72.3888 83.4711 72.5048 83.3285 72.5048H52.9448C52.8022 72.5048 52.6865 72.3888 52.6865 72.2459C52.6865 72.103 52.8022 71.9871 52.9448 71.9871H83.3285C83.4711 71.9871 83.5868 72.103 83.5868 72.2459Z" fill="#D9CDFC"/>
<path opacity="0.6" d="M73.245 74.1068C73.245 74.2497 73.1293 74.3656 72.9868 74.3656H52.9438C52.8013 74.3656 52.6855 74.2497 52.6855 74.1068C52.6855 73.9639 52.8013 73.8479 52.9438 73.8479H72.9868C73.13 73.8479 73.245 73.9639 73.245 74.1068Z" fill="#D9CDFC"/>
<path d="M83.5868 61.0542C83.5868 61.6988 83.0651 62.2217 82.422 62.2217H53.8513C53.2082 62.2217 52.6865 61.6988 52.6865 61.0542C52.6865 60.4096 53.2082 59.8867 53.8513 59.8867H82.422C83.0651 59.8867 83.5868 60.4096 83.5868 61.0542Z" fill="#D9CDFC"/>
<path d="M74.3871 79.274H57.6123V82.7003H74.3871V79.274Z" fill="#AE62FF"/>
<path d="M229.472 45.238V54.238H133.212V45.238H229.472Z" fill="white" stroke="#652EFF"/>
<path d="M142.299 51.0861C142.299 51.6769 141.821 52.1562 141.231 52.1562H138.542C137.952 52.1562 137.475 51.6769 137.475 51.0861V48.3904C137.475 47.7996 137.952 47.3203 138.542 47.3203H141.231C141.821 47.3203 142.299 47.7996 142.299 48.3904V51.0861Z" fill="#D9CDFC"/>
<path opacity="0.6" d="M161.296 49.0556C161.296 49.1726 161.202 49.2673 161.085 49.2673H144.028C143.911 49.2673 143.816 49.1726 143.816 49.0556C143.816 48.9386 143.911 48.8434 144.028 48.8434H161.085C161.202 48.844 161.296 48.9386 161.296 49.0556Z" fill="#D9CDFC"/>
<path opacity="0.6" d="M155.106 50.4194C155.106 50.5364 155.011 50.6316 154.894 50.6316H144.029C143.912 50.6316 143.817 50.537 143.817 50.4194C143.817 50.3024 143.912 50.2078 144.029 50.2078H154.894C155.01 50.2078 155.106 50.303 155.106 50.4194Z" fill="#D9CDFC"/>
<path d="M210.465 51.8288C211.434 51.8288 212.22 51.041 212.22 50.0693C212.22 49.0975 211.434 48.3097 210.465 48.3097C209.495 48.3097 208.709 49.0975 208.709 50.0693C208.709 51.041 209.495 51.8288 210.465 51.8288Z" fill="#D9CDFC"/>
<path d="M215.872 51.8295C216.842 51.8295 217.629 51.0414 217.629 50.0693C217.629 49.0972 216.842 48.3091 215.872 48.3091C214.902 48.3091 214.116 49.0972 214.116 50.0693C214.116 51.0414 214.902 51.8295 215.872 51.8295Z" fill="#D9CDFC"/>
<path d="M221.281 51.8295C222.251 51.8295 223.037 51.0414 223.037 50.0693C223.037 49.0972 222.251 48.3091 221.281 48.3091C220.311 48.3091 219.524 49.0972 219.524 50.0693C219.524 51.0414 220.311 51.8295 221.281 51.8295Z" fill="#D9CDFC"/>
<path d="M229.472 58.2678V67.2678H133.212V58.2678H229.472Z" fill="white" stroke="#652EFF"/>
<path d="M142.299 64.1161C142.299 64.7069 141.821 65.1861 141.231 65.1861H138.542C137.952 65.1861 137.475 64.7069 137.475 64.1161V61.4203C137.475 60.8295 137.952 60.3502 138.542 60.3502H141.231C141.821 60.3502 142.299 60.8295 142.299 61.4203V64.1161Z" fill="#D9CDFC"/>
<path opacity="0.6" d="M161.296 62.0854C161.296 62.2024 161.202 62.297 161.085 62.297H144.028C143.911 62.297 143.816 62.2024 143.816 62.0854C143.816 61.9684 143.911 61.8732 144.028 61.8732H161.085C161.202 61.8738 161.296 61.9684 161.296 62.0854Z" fill="#D9CDFC"/>
<path opacity="0.6" d="M155.106 63.4492C155.106 63.5662 155.011 63.6614 154.894 63.6614H144.029C143.912 63.6614 143.817 63.5668 143.817 63.4492C143.817 63.3322 143.912 63.2375 144.029 63.2375H154.894C155.01 63.2375 155.106 63.3328 155.106 63.4492Z" fill="#D9CDFC"/>
<path d="M210.465 64.8586C211.434 64.8586 212.22 64.0708 212.22 63.099C212.22 62.1273 211.434 61.3395 210.465 61.3395C209.495 61.3395 208.709 62.1273 208.709 63.099C208.709 64.0708 209.495 64.8586 210.465 64.8586Z" fill="#D9CDFC"/>
<path d="M215.872 64.8593C216.842 64.8593 217.629 64.0712 217.629 63.0991C217.629 62.1269 216.842 61.3389 215.872 61.3389C214.902 61.3389 214.116 62.1269 214.116 63.0991C214.116 64.0712 214.902 64.8593 215.872 64.8593Z" fill="#D9CDFC"/>
<path d="M221.281 64.8593C222.251 64.8593 223.037 64.0712 223.037 63.0991C223.037 62.1269 222.251 61.3389 221.281 61.3389C220.311 61.3389 219.524 62.1269 219.524 63.0991C219.524 64.0712 220.311 64.8593 221.281 64.8593Z" fill="#D9CDFC"/>
<path d="M229.472 33.2104V42.2104H133.212V33.2104H229.472Z" fill="white" stroke="#652EFF"/>
<path d="M142.299 39.0587C142.299 39.6495 141.821 40.1288 141.231 40.1288H138.542C137.952 40.1288 137.475 39.6495 137.475 39.0587V36.3629C137.475 35.7721 137.952 35.2928 138.542 35.2928H141.231C141.821 35.2928 142.299 35.7721 142.299 36.3629V39.0587Z" fill="#D9CDFC"/>
<path opacity="0.6" d="M161.296 37.028C161.296 37.145 161.202 37.2397 161.085 37.2397H144.028C143.911 37.2397 143.816 37.145 143.816 37.028C143.816 36.9111 143.911 36.8158 144.028 36.8158H161.085C161.202 36.8164 161.296 36.9111 161.296 37.028Z" fill="#D9CDFC"/>
<path opacity="0.6" d="M155.106 38.3918C155.106 38.5088 155.011 38.604 154.894 38.604H144.029C143.912 38.604 143.817 38.5094 143.817 38.3918C143.817 38.2748 143.912 38.1802 144.029 38.1802H154.894C155.01 38.1802 155.106 38.2754 155.106 38.3918Z" fill="#D9CDFC"/>
<path d="M210.465 39.8012C211.434 39.8012 212.22 39.0135 212.22 38.0417C212.22 37.0699 211.434 36.2821 210.465 36.2821C209.495 36.2821 208.709 37.0699 208.709 38.0417C208.709 39.0135 209.495 39.8012 210.465 39.8012Z" fill="#D9CDFC"/>
<path d="M215.872 39.8019C216.842 39.8019 217.629 39.0138 217.629 38.0417C217.629 37.0696 216.842 36.2815 215.872 36.2815C214.902 36.2815 214.116 37.0696 214.116 38.0417C214.116 39.0138 214.902 39.8019 215.872 39.8019Z" fill="#D9CDFC"/>
<path d="M221.281 39.8019C222.251 39.8019 223.037 39.0138 223.037 38.0417C223.037 37.0696 222.251 36.2815 221.281 36.2815C220.311 36.2815 219.524 37.0696 219.524 38.0417C219.524 39.0138 220.311 39.8019 221.281 39.8019Z" fill="#D9CDFC"/>
<path opacity="0.35" d="M215.865 240.923C215.895 240.737 215.968 240.561 216.083 240.406C216.273 240.149 216.551 239.982 216.866 239.934L219.601 239.522C219.672 238.023 220.03 236.576 220.668 235.217L218.443 233.575C217.912 233.184 217.799 232.435 218.191 231.905L219.466 230.177C219.655 229.92 219.933 229.752 220.249 229.705C220.564 229.657 220.879 229.735 221.136 229.925L223.362 231.567C224.472 230.557 225.748 229.787 227.159 229.277L226.747 226.543C226.699 226.227 226.777 225.911 226.966 225.655C227.156 225.398 227.434 225.23 227.75 225.183L229.873 224.862C230.524 224.764 231.135 225.214 231.233 225.865L231.645 228.599C233.144 228.671 234.59 229.029 235.95 229.667L237.591 227.442C237.983 226.912 238.733 226.798 239.263 227.19L240.991 228.464C241.52 228.855 241.633 229.605 241.242 230.135L239.601 232.36C240.61 233.471 241.379 234.747 241.891 236.158L244.625 235.746C244.94 235.698 245.255 235.776 245.512 235.966C245.769 236.155 245.937 236.433 245.984 236.749L246.305 238.872C246.353 239.187 246.275 239.503 246.085 239.76C245.896 240.017 245.617 240.184 245.302 240.232L242.568 240.645C242.495 242.144 242.137 243.59 241.5 244.949L243.726 246.591C244.256 246.983 244.369 247.732 243.977 248.262L242.703 249.99C242.513 250.246 242.235 250.414 241.919 250.462C241.604 250.51 241.289 250.432 241.032 250.242L238.807 248.6C237.696 249.61 236.419 250.379 235.009 250.89L235.421 253.624C235.469 253.939 235.391 254.255 235.202 254.512C235.012 254.769 234.734 254.936 234.418 254.984L232.295 255.304C231.644 255.402 231.033 254.952 230.935 254.301L230.523 251.567C229.024 251.496 227.578 251.137 226.218 250.5L224.577 252.725C224.186 253.255 223.436 253.368 222.905 252.977L221.178 251.703C220.648 251.312 220.534 250.562 220.926 250.032L222.567 247.806C221.558 246.696 220.789 245.42 220.277 244.008L217.544 244.421C216.892 244.519 216.282 244.069 216.184 243.418L215.864 241.295C215.844 241.169 215.845 241.044 215.865 240.923ZM219.98 239.722C219.967 239.804 219.902 239.87 219.817 239.883L216.925 240.319C216.712 240.351 216.524 240.465 216.396 240.638C216.269 240.811 216.216 241.024 216.247 241.237L216.568 243.36C216.634 243.799 217.046 244.103 217.485 244.036L220.377 243.6C220.47 243.585 220.559 243.64 220.59 243.728C221.1 245.2 221.898 246.523 222.961 247.66C223.024 247.728 223.031 247.833 222.975 247.908L221.238 250.263C220.975 250.62 221.051 251.126 221.408 251.39L223.136 252.664C223.493 252.928 223.999 252.851 224.263 252.494L226 250.14C226.055 250.064 226.157 250.039 226.242 250.08C227.642 250.761 229.142 251.133 230.697 251.185C230.791 251.188 230.869 251.258 230.883 251.35L231.319 254.243C231.386 254.682 231.798 254.986 232.236 254.92L234.359 254.599C234.572 254.567 234.76 254.454 234.888 254.281C235.016 254.108 235.068 253.895 235.037 253.682L234.6 250.789C234.585 250.697 234.64 250.607 234.728 250.577C236.199 250.067 237.522 249.27 238.66 248.206C238.728 248.142 238.832 248.136 238.908 248.192L241.262 249.929C241.435 250.057 241.648 250.11 241.861 250.077C242.074 250.045 242.261 249.932 242.389 249.759L243.664 248.031C243.927 247.674 243.851 247.168 243.494 246.904L241.139 245.167C241.064 245.111 241.038 245.01 241.08 244.925C241.76 243.525 242.132 242.025 242.185 240.47C242.186 240.376 242.258 240.299 242.351 240.284L245.243 239.848C245.456 239.816 245.644 239.702 245.771 239.529C245.899 239.356 245.951 239.143 245.92 238.931L245.6 236.807C245.567 236.595 245.454 236.407 245.281 236.279C245.108 236.152 244.896 236.099 244.683 236.131L241.79 236.568C241.698 236.582 241.608 236.527 241.577 236.439C241.068 234.968 240.27 233.645 239.207 232.508C239.143 232.44 239.136 232.335 239.192 232.259L240.93 229.905C241.192 229.548 241.117 229.042 240.76 228.778L239.032 227.503C238.674 227.239 238.168 227.315 237.905 227.673L236.167 230.027C236.112 230.103 236.01 230.128 235.926 230.087C234.526 229.406 233.026 229.034 231.47 228.982C231.377 228.979 231.298 228.909 231.285 228.817L230.848 225.924C230.782 225.485 230.37 225.181 229.931 225.247L227.808 225.568C227.595 225.6 227.407 225.713 227.28 225.886C227.152 226.06 227.099 226.273 227.131 226.485L227.568 229.378C227.582 229.47 227.528 229.56 227.439 229.59C225.968 230.1 224.645 230.897 223.508 231.961C223.44 232.025 223.336 232.031 223.26 231.975L220.905 230.238C220.732 230.11 220.52 230.057 220.307 230.09C220.094 230.122 219.906 230.235 219.778 230.408L218.504 232.136C218.241 232.494 218.316 232.999 218.674 233.263L221.028 235C221.103 235.056 221.129 235.157 221.087 235.241C220.408 236.642 220.036 238.141 219.983 239.697C219.983 239.705 219.982 239.713 219.98 239.722ZM225.162 239.11C225.31 238.2 225.67 237.312 226.254 236.52C228.219 233.857 231.984 233.289 234.647 235.254C237.31 237.219 237.878 240.984 235.913 243.646C233.949 246.309 230.184 246.877 227.521 244.913C225.649 243.532 224.812 241.262 225.162 239.11ZM226.567 236.751C224.73 239.241 225.262 242.763 227.752 244.6C230.242 246.436 233.763 245.906 235.601 243.415C237.437 240.925 236.906 237.404 234.416 235.566C231.926 233.73 228.405 234.261 226.567 236.751Z" fill="#5800B5"/>
<path opacity="0.35" d="M142.995 233.564C143.011 233.465 143.051 233.371 143.112 233.289C143.213 233.152 143.361 233.062 143.53 233.037L144.989 232.817C145.027 232.017 145.218 231.245 145.558 230.52L144.371 229.643C144.088 229.435 144.027 229.035 144.237 228.752L144.917 227.83C145.018 227.693 145.166 227.603 145.335 227.578C145.503 227.552 145.671 227.594 145.808 227.695L146.996 228.572C147.588 228.033 148.269 227.622 149.022 227.35L148.802 225.89C148.777 225.722 148.818 225.554 148.919 225.417C149.021 225.28 149.169 225.19 149.338 225.165L150.47 224.994C150.818 224.941 151.144 225.182 151.196 225.529L151.416 226.988C152.216 227.026 152.988 227.218 153.713 227.558L154.589 226.37C154.798 226.087 155.198 226.027 155.481 226.236L156.403 226.916C156.686 227.125 156.746 227.525 156.538 227.807L155.662 228.995C156.2 229.588 156.611 230.269 156.884 231.022L158.343 230.802C158.511 230.776 158.679 230.818 158.816 230.919C158.953 231.02 159.043 231.169 159.068 231.337L159.239 232.47C159.265 232.638 159.223 232.807 159.122 232.944C159.021 233.081 158.872 233.17 158.704 233.196L157.245 233.416C157.206 234.216 157.015 234.988 156.675 235.713L157.863 236.589C158.146 236.798 158.206 237.198 157.997 237.481L157.317 238.403C157.216 238.54 157.067 238.629 156.899 238.655C156.731 238.68 156.563 238.639 156.425 238.537L155.238 237.661C154.645 238.2 153.964 238.611 153.211 238.883L153.431 240.342C153.457 240.51 153.415 240.679 153.314 240.816C153.213 240.953 153.064 241.042 152.896 241.068L151.763 241.239C151.415 241.291 151.09 241.051 151.038 240.703L150.817 239.245C150.018 239.206 149.246 239.015 148.52 238.675L147.644 239.862C147.436 240.145 147.035 240.206 146.752 239.997L145.831 239.317C145.548 239.108 145.487 238.708 145.696 238.425L146.572 237.237C146.033 236.645 145.623 235.964 145.35 235.211L143.891 235.431C143.544 235.483 143.218 235.243 143.166 234.896L142.995 233.763C142.984 233.696 142.985 233.629 142.995 233.564ZM145.192 232.923C145.184 232.967 145.149 233.002 145.105 233.009L143.561 233.242C143.447 233.259 143.347 233.32 143.279 233.412C143.211 233.505 143.183 233.618 143.2 233.732L143.371 234.865C143.406 235.099 143.626 235.261 143.86 235.226L145.403 234.993C145.453 234.985 145.501 235.014 145.517 235.061C145.789 235.847 146.215 236.553 146.782 237.159C146.816 237.196 146.82 237.252 146.79 237.292L145.863 238.548C145.722 238.739 145.763 239.009 145.953 239.15L146.875 239.83C147.066 239.97 147.336 239.93 147.477 239.739L148.404 238.483C148.433 238.442 148.487 238.429 148.533 238.451C149.28 238.814 150.08 239.013 150.91 239.041C150.96 239.042 151.002 239.079 151.009 239.129L151.242 240.672C151.278 240.907 151.498 241.069 151.732 241.033L152.865 240.862C152.978 240.845 153.079 240.785 153.147 240.693C153.215 240.6 153.243 240.487 153.226 240.373L152.993 238.829C152.985 238.78 153.014 238.732 153.061 238.716C153.846 238.444 154.552 238.019 155.16 237.451C155.196 237.417 155.252 237.414 155.292 237.443L156.548 238.37C156.641 238.439 156.754 238.467 156.868 238.449C156.981 238.432 157.081 238.372 157.15 238.28L157.83 237.357C157.97 237.167 157.93 236.897 157.739 236.756L156.483 235.829C156.443 235.799 156.429 235.746 156.451 235.7C156.814 234.953 157.012 234.153 157.041 233.323C157.041 233.273 157.079 233.231 157.129 233.223L158.672 232.991C158.786 232.973 158.886 232.913 158.955 232.821C159.023 232.728 159.051 232.615 159.034 232.501L158.863 231.368C158.846 231.255 158.785 231.154 158.693 231.086C158.601 231.018 158.487 230.99 158.374 231.007L156.83 231.24C156.781 231.248 156.733 231.219 156.716 231.172C156.444 230.387 156.019 229.681 155.451 229.074C155.417 229.037 155.413 228.982 155.444 228.941L156.371 227.685C156.511 227.494 156.471 227.224 156.28 227.083L155.358 226.403C155.167 226.262 154.897 226.303 154.757 226.494L153.83 227.75C153.8 227.79 153.746 227.804 153.701 227.782C152.953 227.419 152.153 227.22 151.323 227.192C151.273 227.19 151.231 227.153 151.224 227.104L150.991 225.56C150.955 225.326 150.736 225.164 150.502 225.199L149.369 225.37C149.255 225.387 149.155 225.448 149.087 225.54C149.018 225.633 148.99 225.747 149.007 225.86L149.24 227.403C149.248 227.453 149.219 227.501 149.172 227.517C148.387 227.789 147.681 228.214 147.074 228.782C147.038 228.816 146.982 228.819 146.942 228.789L145.685 227.862C145.593 227.794 145.479 227.766 145.366 227.783C145.252 227.8 145.152 227.861 145.084 227.953L144.403 228.875C144.263 229.066 144.303 229.336 144.494 229.477L145.751 230.404C145.791 230.433 145.804 230.487 145.782 230.533C145.42 231.28 145.221 232.08 145.193 232.91C145.193 232.915 145.192 232.919 145.192 232.923ZM147.957 232.597C148.036 232.111 148.228 231.637 148.54 231.215C149.588 229.794 151.597 229.491 153.018 230.539C154.439 231.588 154.743 233.597 153.694 235.018C152.645 236.439 150.636 236.742 149.215 235.693C148.217 234.957 147.77 233.745 147.957 232.597ZM148.707 231.338C147.726 232.667 148.01 234.546 149.339 235.526C150.667 236.507 152.547 236.223 153.527 234.894C154.507 233.566 154.224 231.687 152.895 230.706C151.566 229.726 149.687 230.009 148.707 231.338Z" fill="#5800B5"/>
<path opacity="0.35" d="M207.987 150.988C207.888 150.988 207.799 150.934 207.752 150.849L206.83 149.152L205.139 148.221C205.053 148.174 204.999 148.084 205 147.986C205.001 147.888 205.054 147.799 205.14 147.752L206.836 146.83L207.767 145.139C207.814 145.053 207.904 145 208.001 145C208.1 145 208.19 145.054 208.236 145.14L209.158 146.836L210.85 147.767C210.935 147.814 210.988 147.904 210.988 148.002C210.988 148.1 210.934 148.19 210.848 148.236L209.152 149.158L208.221 150.849C208.174 150.935 208.085 150.988 207.987 150.988ZM205.825 147.988L207.156 148.722C207.201 148.746 207.238 148.783 207.262 148.828L207.988 150.163L208.721 148.832C208.746 148.787 208.782 148.751 208.828 148.726L210.163 148L208.831 147.268C208.786 147.243 208.75 147.206 208.725 147.161L208 145.825L207.267 147.157C207.242 147.201 207.205 147.238 207.16 147.263L205.825 147.988Z" fill="#5800B5"/>
<path opacity="0.35" d="M21.9869 125.988H21.9863C21.8884 125.988 21.7986 125.934 21.7521 125.848L20.8301 124.152L19.1385 123.221C19.0529 123.173 19 123.084 19 122.986C19 122.888 19.054 122.798 19.1396 122.752L20.836 121.83L21.7671 120.139C21.8141 120.053 21.904 120 22.0013 120H22.0018C22.0997 120 22.1895 120.054 22.2361 120.14L23.1581 121.836L24.8496 122.767C24.9352 122.814 24.9881 122.904 24.9881 123.002C24.9881 123.1 24.9341 123.19 24.8486 123.236L23.1522 124.158L22.2211 125.849C22.174 125.935 22.0842 125.988 21.9869 125.988ZM19.8247 122.988L21.1563 123.721C21.2007 123.746 21.2376 123.783 21.2622 123.828L21.9879 125.163L22.7211 123.831C22.7457 123.787 22.7826 123.75 22.8276 123.725L24.1635 123L22.8318 122.267C22.7874 122.242 22.7505 122.206 22.7259 122.161L22.0002 120.825L21.267 122.156C21.2424 122.201 21.2055 122.238 21.1606 122.262L19.8247 122.988Z" fill="#5800B5"/>
<path opacity="0.35" d="M110.3 188.621C110.201 188.621 110.111 188.567 110.065 188.482L108.68 185.933L106.139 184.534C106.053 184.487 106 184.397 106 184.299C106 184.201 106.054 184.112 106.14 184.065L108.689 182.68L110.087 180.139C110.135 180.053 110.224 180 110.322 180H110.322C110.421 180 110.51 180.054 110.556 180.14L111.942 182.689L114.484 184.088C114.569 184.135 114.623 184.225 114.622 184.323C114.621 184.421 114.568 184.51 114.482 184.557L111.933 185.942L110.534 188.484C110.488 188.568 110.398 188.621 110.3 188.621ZM106.825 184.301L109.006 185.501C109.051 185.526 109.087 185.563 109.112 185.608L110.301 187.796L111.502 185.614C111.527 185.57 111.564 185.533 111.609 185.508L113.797 184.319L111.615 183.118C111.57 183.093 111.534 183.056 111.509 183.011L110.32 180.823L109.119 183.005C109.094 183.049 109.058 183.086 109.013 183.111L106.825 184.301Z" fill="#5800B5"/>
<path opacity="0.35" d="M190.3 239.622C190.178 239.631 190.112 239.569 190.065 239.482L188.68 236.933L186.139 235.534C186.053 235.487 186 235.397 186 235.299C186 235.201 186.054 235.112 186.14 235.065L188.689 233.68L190.088 231.139C190.135 231.053 190.214 231.01 190.323 231C190.421 231 190.51 231.054 190.557 231.14L191.942 233.689L194.484 235.088C194.569 235.135 194.622 235.225 194.622 235.323C194.622 235.42 194.568 235.51 194.482 235.557L191.933 236.942L190.534 239.484C190.487 239.569 190.397 239.622 190.3 239.622ZM186.824 235.301L189.006 236.503C189.05 236.527 189.087 236.564 189.112 236.609L190.301 238.797L191.502 236.615C191.527 236.571 191.564 236.534 191.608 236.509L193.797 235.321L191.615 234.119C191.57 234.095 191.534 234.058 191.509 234.013L190.32 231.825L189.119 234.007C189.094 234.051 189.057 234.088 189.013 234.113L186.824 235.301Z" fill="#5800B5"/>
<path opacity="0.35" d="M223.996 91.0069C223.917 91.0026 223.808 90.9528 223.761 90.8673L222.836 89.1645L221.139 88.2302C221.053 88.1831 221 88.0933 221 87.9954C221 87.8975 221.054 87.8077 221.14 87.7612L222.842 86.836L223.777 85.1385C223.824 85.0529 223.914 85 224.011 85C224.109 85 224.199 85.054 224.246 85.1396L225.171 86.8424L226.868 87.7767C226.954 87.8237 227.007 87.9136 227.007 88.0115C227.007 88.1093 226.953 88.1992 226.867 88.2457L225.164 89.1709L224.23 90.8684C224.183 90.9539 224.093 91.0069 223.996 91.0069ZM221.824 87.997L223.162 88.7334C223.207 88.758 223.243 88.7949 223.268 88.8399L223.997 90.1817L224.733 88.8436C224.758 88.7992 224.795 88.7623 224.84 88.7377L226.182 88.0088L224.844 87.2724C224.799 87.2478 224.762 87.2109 224.738 87.1659L224.009 85.8241L223.272 87.1622C223.248 87.2066 223.211 87.2435 223.166 87.2681L221.824 87.997Z" fill="#5800B5"/>
<g opacity="0.35">
<path d="M57.2488 264.206C57.1012 264.206 56.9814 264.087 56.9814 263.939V262.268C56.9814 262.12 57.1012 262 57.2488 262C57.3964 262 57.5162 262.12 57.5162 262.268V263.939C57.5162 264.087 57.397 264.206 57.2488 264.206Z" fill="#5800B5"/>
<path d="M57.2488 268.499C57.1012 268.499 56.9814 268.379 56.9814 268.232V266.56C56.9814 266.413 57.1012 266.293 57.2488 266.293C57.3964 266.293 57.5162 266.413 57.5162 266.56V268.232C57.5162 268.38 57.397 268.499 57.2488 268.499Z" fill="#5800B5"/>
<path d="M60.2321 265.517H58.5604C58.4128 265.517 58.293 265.397 58.293 265.249C58.293 265.102 58.4128 264.982 58.5604 264.982H60.2321C60.3797 264.982 60.4995 265.102 60.4995 265.249C60.4995 265.397 60.3803 265.517 60.2321 265.517Z" fill="#5800B5"/>
<path d="M55.9392 265.517H54.2674C54.1198 265.517 54 265.397 54 265.249C54 265.102 54.1198 264.982 54.2674 264.982H55.9392C56.0868 264.982 56.2066 265.102 56.2066 265.249C56.2066 265.397 56.0868 265.517 55.9392 265.517Z" fill="#5800B5"/>
<path d="M55.1416 267.626C55.0731 267.626 55.0046 267.6 54.9522 267.548C54.848 267.443 54.848 267.274 54.9522 267.17L56.1342 265.988C56.2384 265.883 56.408 265.883 56.5122 265.988C56.6165 266.092 56.6165 266.262 56.5122 266.366L55.3303 267.548C55.2784 267.6 55.21 267.626 55.1416 267.626Z" fill="#5800B5"/>
<path d="M58.1767 264.59C58.1083 264.59 58.0398 264.564 57.9874 264.512C57.8831 264.408 57.8831 264.238 57.9874 264.134L59.1693 262.952C59.2736 262.848 59.4431 262.848 59.5474 262.952C59.6517 263.057 59.6517 263.226 59.5474 263.33L58.3655 264.512C58.3131 264.565 58.2452 264.59 58.1767 264.59Z" fill="#5800B5"/>
<path d="M56.3234 264.59C56.255 264.59 56.1866 264.564 56.1342 264.512L54.9522 263.33C54.848 263.226 54.848 263.057 54.9522 262.952C55.0565 262.848 55.226 262.848 55.3303 262.952L56.5122 264.134C56.6165 264.239 56.6165 264.408 56.5122 264.512C56.4604 264.565 56.3919 264.59 56.3234 264.59Z" fill="#5800B5"/>
<path d="M59.3586 267.626C59.2902 267.626 59.2217 267.6 59.1693 267.548L57.9874 266.366C57.8831 266.261 57.8831 266.092 57.9874 265.988C58.0917 265.883 58.2612 265.883 58.3655 265.988L59.5474 267.17C59.6517 267.274 59.6517 267.443 59.5474 267.548C59.495 267.6 59.4271 267.626 59.3586 267.626Z" fill="#5800B5"/>
</g>
<g opacity="0.35">
<path d="M208.663 22.4383C208.515 22.4383 208.396 22.3185 208.396 22.1709V20.267C208.396 20.1194 208.515 19.9996 208.663 19.9996C208.811 19.9996 208.93 20.1194 208.93 20.267V22.1709C208.93 22.3191 208.811 22.4383 208.663 22.4383Z" fill="#5800B5"/>
<path d="M208.663 27.327C208.515 27.327 208.396 27.2072 208.396 27.0596V25.1557C208.396 25.0081 208.515 24.8883 208.663 24.8883C208.811 24.8883 208.93 25.0081 208.93 25.1557V27.0596C208.93 27.2072 208.811 27.327 208.663 27.327Z" fill="#5800B5"/>
<path d="M207.171 23.9313H205.267C205.12 23.9313 205 23.8115 205 23.6639C205 23.5163 205.12 23.3965 205.267 23.3965H207.171C207.318 23.3965 207.438 23.5163 207.438 23.6639C207.438 23.8115 207.318 23.9313 207.171 23.9313Z" fill="#5800B5"/>
<path d="M212.059 23.9314H210.156C210.008 23.9314 209.889 23.8116 209.889 23.664C209.889 23.5164 210.008 23.3966 210.156 23.3966H212.059C212.207 23.3966 212.327 23.5164 212.327 23.664C212.327 23.8116 212.207 23.9314 212.059 23.9314Z" fill="#5800B5"/>
<path d="M211.065 26.3332C210.996 26.3332 210.928 26.307 210.875 26.2551L209.529 24.9085C209.425 24.8042 209.425 24.6346 209.529 24.5304C209.634 24.4261 209.803 24.4261 209.907 24.5304L211.254 25.877C211.358 25.9813 211.358 26.1508 211.254 26.2551C211.202 26.307 211.133 26.3332 211.065 26.3332Z" fill="#5800B5"/>
<path d="M207.608 22.8761C207.539 22.8761 207.471 22.8499 207.418 22.798L206.072 21.4519C205.968 21.3476 205.968 21.1781 206.072 21.0738C206.177 20.9695 206.346 20.9695 206.45 21.0738L207.797 22.4199C207.901 22.5242 207.901 22.6937 207.797 22.798C207.745 22.8499 207.676 22.8761 207.608 22.8761Z" fill="#5800B5"/>
<path d="M209.719 22.8761C209.65 22.8761 209.582 22.8499 209.529 22.798C209.425 22.6937 209.425 22.5242 209.529 22.4199L210.875 21.0738C210.98 20.9695 211.149 20.9695 211.254 21.0738C211.358 21.1781 211.358 21.3476 211.254 21.4519L209.907 22.798C209.856 22.8499 209.787 22.8761 209.719 22.8761Z" fill="#5800B5"/>
<path d="M206.262 26.3332C206.193 26.3332 206.125 26.307 206.072 26.2551C205.968 26.1508 205.968 25.9813 206.072 25.877L207.418 24.5304C207.523 24.4261 207.692 24.4261 207.797 24.5304C207.901 24.6346 207.901 24.8042 207.797 24.9085L206.45 26.2551C206.398 26.307 206.33 26.3332 206.262 26.3332Z" fill="#5800B5"/>
</g>
<g opacity="0.35">
<path d="M62.2137 41.7464C62.0661 41.7464 61.9463 41.6266 61.9463 41.479V39.267C61.9463 39.1194 62.0661 38.9996 62.2137 38.9996C62.3613 38.9996 62.4811 39.1194 62.4811 39.267V41.479C62.4811 41.6266 62.3613 41.7464 62.2137 41.7464Z" fill="#5800B5"/>
<path d="M62.2137 47.4268C62.0661 47.4268 61.9463 47.307 61.9463 47.1594V44.9475C61.9463 44.7998 62.0661 44.6801 62.2137 44.6801C62.3613 44.6801 62.4811 44.7998 62.4811 44.9475V47.1594C62.4811 47.3075 62.3613 47.4268 62.2137 47.4268Z" fill="#5800B5"/>
<path d="M60.4793 43.4804H58.2674C58.1198 43.4804 58 43.3606 58 43.213C58 43.0654 58.1198 42.9456 58.2674 42.9456H60.4793C60.6269 42.9456 60.7467 43.0654 60.7467 43.213C60.7467 43.3606 60.6269 43.4804 60.4793 43.4804Z" fill="#5800B5"/>
<path d="M66.1605 43.4804H63.9481C63.8005 43.4804 63.6807 43.3606 63.6807 43.213C63.6807 43.0654 63.8005 42.9456 63.9481 42.9456H66.1605C66.3081 42.9456 66.4279 43.0654 66.4279 43.213C66.4279 43.3606 66.3081 43.4804 66.1605 43.4804Z" fill="#5800B5"/>
<path d="M65.0047 46.2707C64.9362 46.2707 64.8678 46.2445 64.8153 46.1926L63.2511 44.6283C63.1468 44.524 63.1468 44.3545 63.2511 44.2502C63.3554 44.1459 63.5249 44.1459 63.6292 44.2502L65.1934 45.8145C65.2977 45.9188 65.2977 46.0883 65.1934 46.1926C65.141 46.2445 65.0726 46.2707 65.0047 46.2707Z" fill="#5800B5"/>
<path d="M60.9881 42.2538C60.9196 42.2538 60.8512 42.2276 60.7988 42.1758L59.2345 40.6115C59.1302 40.5072 59.1302 40.3377 59.2345 40.2334C59.3388 40.1291 59.5083 40.1291 59.6126 40.2334L61.1769 41.7977C61.2811 41.9019 61.2811 42.0715 61.1769 42.1758C61.125 42.2276 61.0565 42.2538 60.9881 42.2538Z" fill="#5800B5"/>
<path d="M63.4404 42.2538C63.3719 42.2538 63.3035 42.2276 63.2511 42.1758C63.1468 42.0715 63.1468 41.9019 63.2511 41.7977L64.8153 40.2334C64.9196 40.1291 65.0892 40.1291 65.1934 40.2334C65.2977 40.3377 65.2977 40.5072 65.1934 40.6115L63.6292 42.1758C63.5773 42.2276 63.5088 42.2538 63.4404 42.2538Z" fill="#5800B5"/>
<path d="M59.4238 46.2707C59.3553 46.2707 59.2869 46.2445 59.2345 46.1926C59.1302 46.0883 59.1302 45.9188 59.2345 45.8145L60.7988 44.2502C60.903 44.1459 61.0726 44.1459 61.1769 44.2502C61.2811 44.3545 61.2811 44.524 61.1769 44.6283L59.6126 46.1926C59.5607 46.2445 59.4922 46.2707 59.4238 46.2707Z" fill="#5800B5"/>
</g>
<path d="M52.0767 30.2348H51.7079C50.6223 30.2348 50.0794 28.9228 50.8467 28.1556L51.1074 27.8949C51.5832 27.4191 51.5832 26.6472 51.1074 26.1714L50.1241 25.1881C49.6483 24.7123 48.8774 24.7123 48.4006 25.1881L48.1399 25.4498C47.3727 26.2161 46.0607 25.6732 46.0607 24.5875V24.2188C46.0607 23.5456 45.5151 23 44.8428 23H43.4527C42.7795 23 42.2339 23.5456 42.2339 24.2188V24.5875C42.2339 25.6732 40.9219 26.2161 40.1547 25.4498L39.894 25.1881C39.4182 24.7123 38.6472 24.7123 38.1704 25.1881L37.1881 26.1714C36.7114 26.6472 36.7114 27.4191 37.1881 27.8949L37.4488 28.1556C38.2161 28.9228 37.6723 30.2348 36.5876 30.2348H36.2179C35.5456 30.2348 35 30.7804 35 31.4536V32.8428C35 33.516 35.5456 34.0616 36.2179 34.0616H36.5876C37.6723 34.0616 38.2161 35.3736 37.4488 36.1408L37.1881 36.4015C36.7114 36.8773 36.7114 37.6492 37.1881 38.125L38.1704 39.1083C38.6472 39.5841 39.4182 39.5841 39.894 39.1083L40.1547 38.8476C40.9219 38.0803 42.2339 38.6232 42.2339 39.7089V40.0776C42.2339 40.7508 42.7795 41.2964 43.4527 41.2964H44.8428C45.5151 41.2964 46.0607 40.7508 46.0607 40.0776V39.7089C46.0607 38.6232 47.3727 38.0803 48.1399 38.8476L48.4006 39.1083C48.8774 39.5841 49.6483 39.5841 50.1241 39.1083L51.1074 38.125C51.5832 37.6492 51.5832 36.8773 51.1074 36.4015L50.8467 36.1408C50.0794 35.3736 50.6232 34.0616 51.7079 34.0616H52.0767C52.7499 34.0616 53.2955 33.516 53.2955 32.8428V31.4536C53.2946 30.7804 52.7499 30.2348 52.0767 30.2348ZM44.1473 35.4062C42.3474 35.4062 40.8893 33.9481 40.8893 32.1482C40.8893 30.3484 42.3474 28.8902 44.1473 28.8902C45.9471 28.8902 47.4062 30.3484 47.4062 32.1482C47.4062 33.9481 45.9471 35.4062 44.1473 35.4062Z" fill="#642CFF"/>
<path d="M87.2015 179.746H86.9596C86.2475 179.746 85.8914 178.885 86.3947 178.382L86.5657 178.211C86.8778 177.899 86.8778 177.392 86.5657 177.08L85.9207 176.435C85.6086 176.123 85.1029 176.123 84.7902 176.435L84.6191 176.607C84.1159 177.11 83.2553 176.754 83.2553 176.041V175.799C83.2553 175.358 82.8974 175 82.4564 175H81.5445C81.103 175 80.7451 175.358 80.7451 175.799V176.041C80.7451 176.754 79.8845 177.11 79.3812 176.607L79.2102 176.435C78.8981 176.123 78.3924 176.123 78.0797 176.435L77.4353 177.08C77.1226 177.392 77.1226 177.899 77.4353 178.211L77.6063 178.382C78.1096 178.885 77.7529 179.746 77.0414 179.746H76.7989C76.3579 179.746 76 180.104 76 180.545V181.456C76 181.898 76.3579 182.256 76.7989 182.256H77.0414C77.7529 182.256 78.1096 183.116 77.6063 183.62L77.4353 183.791C77.1226 184.103 77.1226 184.609 77.4353 184.921L78.0797 185.566C78.3924 185.878 78.8981 185.878 79.2102 185.566L79.3812 185.395C79.8845 184.892 80.7451 185.248 80.7451 185.96V186.202C80.7451 186.644 81.103 187.002 81.5445 187.002H82.4564C82.8974 187.002 83.2553 186.644 83.2553 186.202V185.96C83.2553 185.248 84.1159 184.892 84.6191 185.395L84.7902 185.566C85.1029 185.878 85.6086 185.878 85.9207 185.566L86.5657 184.921C86.8778 184.609 86.8778 184.103 86.5657 183.791L86.3947 183.62C85.8914 183.116 86.2481 182.256 86.9596 182.256H87.2015C87.6431 182.256 88.001 181.898 88.001 181.456V180.545C88.0004 180.104 87.6431 179.746 87.2015 179.746ZM82.0002 183.138C80.8196 183.138 79.8631 182.181 79.8631 181.001C79.8631 179.82 80.8196 178.864 82.0002 178.864C83.1808 178.864 84.1379 179.82 84.1379 181.001C84.1379 182.181 83.1808 183.138 82.0002 183.138Z" fill="#642CFF"/>
<path d="M184.022 27.5C187.072 27.5 189.544 29.9721 189.544 33.0215C189.544 36.0709 187.072 38.543 184.022 38.543C180.973 38.543 178.501 36.0709 178.501 33.0215C178.501 29.972 180.973 27.5 184.022 27.5Z" fill="white" stroke="#652EFF"/>
<path d="M184.023 35.7442C185.527 35.7442 186.746 34.5252 186.746 33.0216C186.746 31.5179 185.527 30.299 184.023 30.299C182.52 30.299 181.301 31.5179 181.301 33.0216C181.301 34.5252 182.52 35.7442 184.023 35.7442Z" fill="#652EFF"/>
<path d="M197.022 100.5C200.072 100.5 202.544 102.972 202.544 106.021C202.544 109.071 200.072 111.543 197.022 111.543C193.973 111.543 191.501 109.071 191.501 106.021C191.501 102.972 193.973 100.5 197.022 100.5Z" fill="white" stroke="#652EFF"/>
<path d="M197.023 108.744C198.527 108.744 199.746 107.525 199.746 106.022C199.746 104.518 198.527 103.299 197.023 103.299C195.52 103.299 194.301 104.518 194.301 106.022C194.301 107.525 195.52 108.744 197.023 108.744Z" fill="#652EFF"/>
<path d="M227.022 177.5C230.072 177.5 232.544 179.972 232.544 183.021C232.544 186.071 230.072 188.543 227.022 188.543C223.973 188.543 221.501 186.071 221.501 183.021C221.501 179.972 223.973 177.5 227.022 177.5Z" fill="white" stroke="#652EFF"/>
<path d="M227.023 185.744C228.527 185.744 229.746 184.525 229.746 183.022C229.746 181.518 228.527 180.299 227.023 180.299C225.52 180.299 224.301 181.518 224.301 183.022C224.301 184.525 225.52 185.744 227.023 185.744Z" fill="#652EFF"/>
<path d="M207.022 211.5C210.072 211.5 212.544 213.972 212.544 217.021C212.544 220.071 210.072 222.543 207.022 222.543C203.973 222.543 201.501 220.071 201.501 217.021C201.501 213.972 203.973 211.5 207.022 211.5Z" fill="white" stroke="#652EFF"/>
<path d="M207.023 219.744C208.527 219.744 209.746 218.525 209.746 217.022C209.746 215.518 208.527 214.299 207.023 214.299C205.52 214.299 204.301 215.518 204.301 217.022C204.301 218.525 205.52 219.744 207.023 219.744Z" fill="#652EFF"/>
<path d="M195.022 258.5C198.072 258.5 200.544 260.972 200.544 264.021C200.544 267.071 198.072 269.543 195.022 269.543C191.973 269.543 189.501 267.071 189.501 264.021C189.501 260.972 191.973 258.5 195.022 258.5Z" fill="white" stroke="#652EFF"/>
<path d="M195.023 266.744C196.527 266.744 197.746 265.525 197.746 264.022C197.746 262.518 196.527 261.299 195.023 261.299C193.52 261.299 192.301 262.518 192.301 264.022C192.301 265.525 193.52 266.744 195.023 266.744Z" fill="#652EFF"/>
<path d="M135.022 259.5C138.072 259.5 140.544 261.972 140.544 265.021C140.544 268.071 138.072 270.543 135.022 270.543C131.973 270.543 129.501 268.071 129.501 265.021C129.501 261.972 131.973 259.5 135.022 259.5Z" fill="white" stroke="#652EFF"/>
<path d="M135.023 267.744C136.527 267.744 137.746 266.525 137.746 265.022C137.746 263.518 136.527 262.299 135.023 262.299C133.52 262.299 132.301 263.518 132.301 265.022C132.301 266.525 133.52 267.744 135.023 267.744Z" fill="#652EFF"/>
<path d="M83.0225 244.5C86.0719 244.5 88.5439 246.972 88.5439 250.021C88.5439 253.071 86.0719 255.543 83.0225 255.543C79.973 255.543 77.501 253.071 77.501 250.021C77.501 246.972 79.973 244.5 83.0225 244.5Z" fill="white" stroke="#652EFF"/>
<path d="M83.0234 252.744C84.5271 252.744 85.7461 251.525 85.7461 250.022C85.7461 248.518 84.5271 247.299 83.0234 247.299C81.5198 247.299 80.3008 248.518 80.3008 250.022C80.3008 251.525 81.5198 252.744 83.0234 252.744Z" fill="#652EFF"/>
<path d="M65.0225 108.5C68.0719 108.5 70.5439 110.972 70.5439 114.021C70.5439 117.071 68.0719 119.543 65.0225 119.543C61.973 119.543 59.501 117.071 59.501 114.021C59.501 110.972 61.973 108.5 65.0225 108.5Z" fill="white" stroke="#652EFF"/>
<path d="M65.0234 116.744C66.5271 116.744 67.7461 115.525 67.7461 114.022C67.7461 112.518 66.5271 111.299 65.0234 111.299C63.5198 111.299 62.3008 112.518 62.3008 114.022C62.3008 115.525 63.5198 116.744 65.0234 116.744Z" fill="#652EFF"/>
<path d="M44.0225 80.5C47.0719 80.5 49.5439 82.9721 49.5439 86.0215C49.5439 89.0709 47.0719 91.543 44.0225 91.543C40.973 91.543 38.501 89.0709 38.501 86.0215C38.501 82.972 40.973 80.5 44.0225 80.5Z" fill="white" stroke="#652EFF"/>
<path d="M44.0234 88.7442C45.5271 88.7442 46.7461 87.5252 46.7461 86.0216C46.7461 84.5179 45.5271 83.299 44.0234 83.299C42.5198 83.299 41.3008 84.5179 41.3008 86.0216C41.3008 87.5252 42.5198 88.7442 44.0234 88.7442Z" fill="#652EFF"/>
<path d="M44.0225 50.5C47.0719 50.5 49.5439 52.9721 49.5439 56.0215C49.5439 59.0709 47.0719 61.543 44.0225 61.543C40.973 61.543 38.501 59.0709 38.501 56.0215C38.501 52.972 40.973 50.5 44.0225 50.5Z" fill="white" stroke="#652EFF"/>
<path d="M44.0234 58.7442C45.5271 58.7442 46.7461 57.5252 46.7461 56.0216C46.7461 54.5179 45.5271 53.299 44.0234 53.299C42.5198 53.299 41.3008 54.5179 41.3008 56.0216C41.3008 57.5252 42.5198 58.7442 44.0234 58.7442Z" fill="#652EFF"/>
<path d="M66.0225 9.5C69.0719 9.50002 71.5439 11.9721 71.5439 15.0215C71.5439 18.0709 69.0719 20.543 66.0225 20.543C62.973 20.543 60.501 18.0709 60.501 15.0215C60.501 11.972 62.973 9.5 66.0225 9.5Z" fill="white" stroke="#652EFF"/>
<path d="M66.0234 17.7442C67.5271 17.7442 68.7461 16.5252 68.7461 15.0216C68.7461 13.5179 67.5271 12.299 66.0234 12.299C64.5198 12.299 63.3008 13.5179 63.3008 15.0216C63.3008 16.5252 64.5198 17.7442 66.0234 17.7442Z" fill="#652EFF"/>
<path d="M127.022 9.5C130.072 9.50002 132.544 11.9721 132.544 15.0215C132.544 18.0709 130.072 20.543 127.022 20.543C123.973 20.543 121.501 18.0709 121.501 15.0215C121.501 11.972 123.973 9.5 127.022 9.5Z" fill="white" stroke="#652EFF"/>
<path d="M127.023 17.7442C128.527 17.7442 129.746 16.5252 129.746 15.0216C129.746 13.5179 128.527 12.299 127.023 12.299C125.52 12.299 124.301 13.5179 124.301 15.0216C124.301 16.5252 125.52 17.7442 127.023 17.7442Z" fill="#652EFF"/>
</svg>
