<svg width="260" height="280" viewBox="0 0 260 280" fill="none" xmlns="http://www.w3.org/2000/svg">
<path d="M35.501 0.5H220.975C223.132 0.5 225.005 2.56405 225.005 5.27637V179.658L225 179.9C224.892 182.382 223.144 184.234 221.146 184.234H35.3281C33.2667 184.234 31.4708 182.26 31.4707 179.659V5.27637C31.4707 2.56457 33.3441 0.5 35.501 0.5Z" fill="#652EFF" stroke="#652EFF"/>
<path d="M36.2558 183.725C33.8925 183.725 31.9697 181.522 31.9697 178.815V5.91923C31.9697 3.21206 33.8925 1.00946 36.2558 1.00946H42.6165V3.13154C42.6165 4.07835 43.2886 4.84826 44.1152 4.84826H212.848C213.674 4.84826 214.347 4.07835 214.347 3.13154V1.00946H220.707C223.071 1.00946 224.993 3.21206 224.993 5.91923V178.815C224.993 181.522 223.071 183.725 220.707 183.725H36.2558Z" fill="white"/>
<g opacity="0.35">
<path d="M211.458 140.237H43.5061C42.6587 140.237 41.9717 140.924 41.9717 141.771C41.9717 142.619 42.6587 143.306 43.5061 143.306H211.458C212.306 143.306 212.993 142.619 212.993 141.771C212.993 140.924 212.306 140.237 211.458 140.237Z" fill="#B39BF9" fill-opacity="0.5"/>
<path d="M211.458 135.633H43.5061C42.6587 135.633 41.9717 136.32 41.9717 137.168C41.9717 138.015 42.6587 138.702 43.5061 138.702H211.458C212.306 138.702 212.993 138.015 212.993 137.168C212.993 136.32 212.306 135.633 211.458 135.633Z" fill="#B39BF9" fill-opacity="0.5"/>
<path d="M211.458 131.03H43.5061C42.6587 131.03 41.9717 131.717 41.9717 132.565C41.9717 133.412 42.6587 134.099 43.5061 134.099H211.458C212.306 134.099 212.993 133.412 212.993 132.565C212.993 131.717 212.306 131.03 211.458 131.03Z" fill="#B39BF9" fill-opacity="0.5"/>
<path d="M211.458 126.427H43.5061C42.6587 126.427 41.9717 127.114 41.9717 127.961C41.9717 128.809 42.6587 129.496 43.5061 129.496H211.458C212.306 129.496 212.993 128.809 212.993 127.961C212.993 127.114 212.306 126.427 211.458 126.427Z" fill="#B39BF9" fill-opacity="0.5"/>
<path d="M211.458 121.824H43.5061C42.6587 121.824 41.9717 122.511 41.9717 123.358C41.9717 124.206 42.6587 124.893 43.5061 124.893H211.458C212.306 124.893 212.993 124.206 212.993 123.358C212.993 122.511 212.306 121.824 211.458 121.824Z" fill="#B39BF9" fill-opacity="0.5"/>
<path d="M211.458 117.221H43.5061C42.6587 117.221 41.9717 117.908 41.9717 118.755C41.9717 119.602 42.6587 120.289 43.5061 120.289H211.458C212.306 120.289 212.993 119.602 212.993 118.755C212.993 117.908 212.306 117.221 211.458 117.221Z" fill="#B39BF9" fill-opacity="0.5"/>
<path d="M211.458 112.617H43.5061C42.6587 112.617 41.9717 113.304 41.9717 114.152C41.9717 114.999 42.6587 115.686 43.5061 115.686H211.458C212.306 115.686 212.993 114.999 212.993 114.152C212.993 113.304 212.306 112.617 211.458 112.617Z" fill="#B39BF9" fill-opacity="0.5"/>
<path d="M211.458 108.014H43.5061C42.6587 108.014 41.9717 108.701 41.9717 109.549C41.9717 110.396 42.6587 111.083 43.5061 111.083H211.458C212.306 111.083 212.993 110.396 212.993 109.549C212.993 108.701 212.306 108.014 211.458 108.014Z" fill="#B39BF9" fill-opacity="0.5"/>
<path d="M130.433 144.84H42.7389C42.3152 144.84 41.9717 145.183 41.9717 145.607C41.9717 146.031 42.3152 146.374 42.7389 146.374H130.433C130.856 146.374 131.2 146.031 131.2 145.607C131.2 145.183 130.856 144.84 130.433 144.84Z" fill="#B39BF9" fill-opacity="0.5"/>
</g>
<path d="M191.993 49.8711C191.862 49.8711 191.733 49.8794 191.605 49.891C191.063 48.1225 189.43 46.8372 187.499 46.8372C185.161 46.8372 183.262 48.7234 183.207 51.0702C182.089 50.8964 180.907 51.2406 180.046 52.1098C178.611 53.5587 178.611 55.9082 180.046 57.3571C180.802 58.1195 181.805 58.5876 182.794 58.5472H191.993C194.367 58.5472 196.291 56.6056 196.291 54.2095C196.291 51.8135 194.367 49.8711 191.993 49.8711Z" stroke="url(#paint0_linear_71_252)" stroke-miterlimit="10" stroke-linecap="round" stroke-linejoin="round"/>
<path d="M178.562 52.1488C177.867 51.3289 177.446 50.264 177.446 49.0991C177.446 46.5073 179.528 44.4069 182.095 44.4069C183.248 44.4069 184.304 44.8312 185.116 45.5327" stroke="url(#paint1_linear_71_252)" stroke-miterlimit="10" stroke-linecap="round" stroke-linejoin="round"/>
<path d="M178.564 44.4323L177.263 43.0607" stroke="url(#paint2_linear_71_252)" stroke-miterlimit="10" stroke-linecap="round" stroke-linejoin="round"/>
<path d="M185.188 44.4069L186.651 43.0429" stroke="url(#paint3_linear_71_252)" stroke-miterlimit="10" stroke-linecap="round" stroke-linejoin="round"/>
<path d="M176.144 53.5355L177.607 52.1715" stroke="url(#paint4_linear_71_252)" stroke-miterlimit="10" stroke-linecap="round" stroke-linejoin="round"/>
<path d="M182.009 43.2989V41.5524" stroke="url(#paint5_linear_71_252)" stroke-miterlimit="10" stroke-linecap="round" stroke-linejoin="round"/>
<path d="M176.72 48.278H174.989" stroke="url(#paint6_linear_71_252)" stroke-miterlimit="10" stroke-linecap="round" stroke-linejoin="round"/>
<path d="M127.014 43.4076L129.501 48.4944L135.063 49.31L131.038 53.2702L131.987 58.8607L127.014 56.2209L122.039 58.8607L122.989 53.2702L118.965 49.31L124.526 48.4944L127.014 43.4076Z" stroke="url(#paint7_linear_71_252)" stroke-miterlimit="10" stroke-linecap="round" stroke-linejoin="round"/>
<path d="M73.9143 48.7023H64.0961C63.0849 48.7023 62.2578 49.5381 62.2578 50.5577V59.5784C62.2578 60.599 63.0849 61.4338 64.0961 61.4338H73.9143C74.9264 61.4338 75.7535 60.598 75.7535 59.5784V50.5587C75.7535 49.5381 74.9264 48.7023 73.9143 48.7023ZM69.9387 57.9895H68.0425L68.4006 54.6269C67.9865 54.4048 67.6995 53.9697 67.6995 53.466C67.6995 52.7402 68.2875 52.1466 69.0066 52.1466C69.7247 52.1466 70.3128 52.7402 70.3128 53.466C70.3128 53.9818 70.0128 54.426 69.5837 54.6431L69.9387 57.9895Z" stroke="url(#paint8_linear_71_252)" stroke-miterlimit="10" stroke-linecap="round" stroke-linejoin="round"/>
<path d="M74.1475 47.5868H73.1853C73.1853 45.2609 71.3111 43.3692 69.0069 43.3692C66.7026 43.3692 64.8284 45.2609 64.8284 47.5868H63.8652C63.8652 44.7259 66.1715 42.3981 69.0069 42.3981C71.8412 42.3981 74.1475 44.7249 74.1475 47.5868Z" stroke="url(#paint9_linear_71_252)" stroke-miterlimit="10" stroke-linecap="round" stroke-linejoin="round"/>
<path d="M215.054 11.2682H214.892C214.417 11.2682 214.18 10.6892 214.515 10.3501L214.63 10.2353C214.838 10.0257 214.838 9.68555 214.63 9.47481L214.2 9.04187C213.992 8.83113 213.654 8.83113 213.447 9.04187L213.333 9.15663C212.998 9.49464 212.423 9.25574 212.423 8.77688V8.61413C212.423 8.3168 212.186 8.07581 211.89 8.07581H211.283C210.989 8.07581 210.749 8.31576 210.749 8.61413V8.77688C210.749 9.25574 210.176 9.49464 209.84 9.15663L209.726 9.04187C209.518 8.83113 209.182 8.83113 208.973 9.04187L208.543 9.47481C208.335 9.68555 208.335 10.0257 208.543 10.2353L208.657 10.3501C208.991 10.6892 208.755 11.2682 208.28 11.2682H208.119C207.825 11.2682 207.586 11.5092 207.586 11.8065V12.4199C207.586 12.7172 207.824 12.9582 208.119 12.9582H208.28C208.755 12.9582 208.991 13.5383 208.657 13.8763L208.543 13.9911C208.335 14.2008 208.335 14.5419 208.543 14.7516L208.973 15.1856C209.181 15.3953 209.517 15.3953 209.726 15.1856L209.84 15.0698C210.176 14.7318 210.749 14.9707 210.749 15.4506V15.6133C210.749 15.9096 210.988 16.1516 211.283 16.1516H211.89C212.185 16.1516 212.423 15.9106 212.423 15.6133V15.4506C212.423 14.9707 212.998 14.7318 213.333 15.0698L213.447 15.1856C213.654 15.3953 213.992 15.3953 214.2 15.1856L214.63 14.7516C214.838 14.5419 214.838 14.2008 214.63 13.9911L214.515 13.8763C214.18 13.5383 214.418 12.9582 214.892 12.9582H215.054C215.347 12.9582 215.587 12.7183 215.587 12.4199V11.8065C215.587 11.5092 215.348 11.2682 215.054 11.2682ZM211.586 13.5508C210.799 13.5508 210.161 12.9071 210.161 12.1122C210.161 11.3172 210.799 10.6735 211.586 10.6735C212.374 10.6735 213.012 11.3172 213.012 12.1122C213.012 12.9071 212.374 13.5508 211.586 13.5508Z" fill="#8041FF"/>
<path d="M42.4296 9.08533H35.4287V10.0948H42.4296V9.08533Z" fill="#8041FF"/>
<path d="M42.4296 11.1042H35.4287V12.1137H42.4296V11.1042Z" fill="#8041FF"/>
<path d="M42.4296 13.1232H35.4287V14.1327H42.4296V13.1232Z" fill="#8041FF"/>
<path d="M221.663 128.541C229.948 128.541 236.664 134.978 236.664 142.918V195.271H218.992V203" stroke="#652EFF" stroke-miterlimit="10" stroke-linecap="round" stroke-linejoin="round" stroke-dasharray="2 2"/>
<path d="M24.97 115.08C16.6849 115.08 9.96817 121.517 9.96817 129.458V195.971H50.0859V207" stroke="#652EFF" stroke-miterlimit="10" stroke-linecap="round" stroke-linejoin="round" stroke-dasharray="2 2"/>
<path d="M158.321 184.734V194.902C158.321 202.648 152.65 208.929 145.653 208.929C138.656 208.929 132.984 207.134 132.984 214.882V239.246" stroke="#652EFF" stroke-miterlimit="10" stroke-linecap="round" stroke-linejoin="round" stroke-dasharray="2 2"/>
<rect opacity="0.75" x="42.2217" y="19.4301" width="52.5065" height="60.0687" rx="4.75" fill="white" stroke="#652EFF" stroke-width="0.5"/>
<rect opacity="0.75" x="102.229" y="19.4301" width="51.5064" height="60.0687" rx="4.75" fill="white" stroke="#652EFF" stroke-width="0.5"/>
<rect opacity="0.75" x="161.237" y="19.4301" width="52.5065" height="60.0687" rx="4.75" fill="white" stroke="#652EFF" stroke-width="0.5"/>
<rect opacity="0.75" x="42.2217" y="86.0557" width="25.5032" height="16.6611" rx="4.75" fill="white" stroke="#652EFF" stroke-width="0.5"/>
<rect opacity="0.75" x="71.2246" y="86.0557" width="25.5032" height="16.6611" rx="4.75" fill="white" stroke="#652EFF" stroke-width="0.5"/>
<rect opacity="0.75" x="100.229" y="86.0557" width="25.5032" height="16.6611" rx="4.75" fill="white" stroke="#652EFF" stroke-width="0.5"/>
<rect opacity="0.75" x="130.233" y="86.0557" width="25.5032" height="16.6611" rx="4.75" fill="white" stroke="#652EFF" stroke-width="0.5"/>
<rect opacity="0.75" x="159.238" y="86.0557" width="25.5032" height="16.6611" rx="4.75" fill="white" stroke="#652EFF" stroke-width="0.5"/>
<rect opacity="0.75" x="188.241" y="86.0557" width="25.5032" height="16.6611" rx="4.75" fill="white" stroke="#652EFF" stroke-width="0.5"/>
<rect opacity="0.75" x="42.2217" y="152.681" width="25.5032" height="6.56635" rx="3.28317" fill="white" stroke="#652EFF" stroke-width="0.5"/>
<rect opacity="0.75" x="71.2246" y="152.681" width="25.5032" height="6.56635" rx="3.28317" fill="white" stroke="#652EFF" stroke-width="0.5"/>
<rect opacity="0.75" x="100.229" y="152.681" width="25.5032" height="6.56635" rx="3.28317" fill="white" stroke="#652EFF" stroke-width="0.5"/>
<rect opacity="0.75" x="130.233" y="152.681" width="25.5032" height="6.56635" rx="3.28317" fill="white" stroke="#652EFF" stroke-width="0.5"/>
<rect opacity="0.75" x="159.238" y="152.681" width="25.5032" height="6.56635" rx="3.28317" fill="white" stroke="#652EFF" stroke-width="0.5"/>
<rect opacity="0.75" x="188.241" y="152.681" width="25.5032" height="6.56635" rx="3.28317" fill="white" stroke="#652EFF" stroke-width="0.5"/>
<rect opacity="0.75" x="42.2217" y="163.785" width="25.5032" height="6.56635" rx="3.28317" fill="white" stroke="#652EFF" stroke-width="0.5"/>
<rect opacity="0.75" x="71.2246" y="163.785" width="25.5032" height="6.56635" rx="3.28317" fill="white" stroke="#652EFF" stroke-width="0.5"/>
<rect opacity="0.75" x="100.229" y="163.785" width="25.5032" height="6.56635" rx="3.28317" fill="white" stroke="#652EFF" stroke-width="0.5"/>
<rect opacity="0.75" x="130.233" y="163.785" width="25.5032" height="6.56635" rx="3.28317" fill="white" stroke="#652EFF" stroke-width="0.5"/>
<rect opacity="0.75" x="159.238" y="163.785" width="25.5032" height="6.56635" rx="3.28317" fill="white" stroke="#652EFF" stroke-width="0.5"/>
<rect opacity="0.75" x="188.241" y="163.785" width="25.5032" height="6.56635" rx="3.28317" fill="white" stroke="#652EFF" stroke-width="0.5"/>
<path d="M95.6964 280H4.64768C2.61477 280 0.966797 278.445 0.966797 276.528V214.22C0.966797 212.227 2.68007 210.61 4.7935 210.61H95.5514C97.6648 210.61 99.3781 212.226 99.3781 214.22V276.527C99.3773 278.445 97.7293 280 95.6964 280Z" fill="#652EFF"/>
<path d="M5.04141 279.803C3.04242 279.803 1.41602 278.293 1.41602 276.437V214.218C1.41602 212.362 3.04242 210.852 5.04141 210.852H10.4218V212.307C10.4218 212.956 10.9903 213.484 11.6894 213.484H88.4927C89.1918 213.484 89.7603 212.956 89.7603 212.307V210.852H95.1407C97.1397 210.852 98.7661 212.362 98.7661 214.218V276.437C98.7661 278.293 97.1397 279.803 95.1407 279.803H5.04141Z" fill="white"/>
<path d="M88.9681 272.559H10.9773C10.4197 272.559 9.96777 273.011 9.96777 273.569C9.96777 274.126 10.4197 274.578 10.9773 274.578H88.9681C89.5256 274.578 89.9776 274.126 89.9776 273.569C89.9776 273.011 89.5256 272.559 88.9681 272.559Z" fill="#B39BF9" fill-opacity="0.5"/>
<path d="M88.9681 269.531H10.9773C10.4197 269.531 9.96777 269.983 9.96777 270.54C9.96777 271.098 10.4197 271.55 10.9773 271.55H88.9681C89.5256 271.55 89.9776 271.098 89.9776 270.54C89.9776 269.983 89.5256 269.531 88.9681 269.531Z" fill="#B39BF9" fill-opacity="0.5"/>
<path d="M88.9681 266.502H10.9773C10.4197 266.502 9.96777 266.954 9.96777 267.512C9.96777 268.069 10.4197 268.521 10.9773 268.521H88.9681C89.5256 268.521 89.9776 268.069 89.9776 267.512C89.9776 266.954 89.5256 266.502 88.9681 266.502Z" fill="#B39BF9" fill-opacity="0.5"/>
<path d="M88.9681 262.464H10.9773C10.4197 262.464 9.96777 262.916 9.96777 263.474C9.96777 264.031 10.4197 264.483 10.9773 264.483H88.9681C89.5256 264.483 89.9776 264.031 89.9776 263.474C89.9776 262.916 89.5256 262.464 88.9681 262.464Z" fill="#B39BF9" fill-opacity="0.5"/>
<path d="M88.9681 258.426H10.9773C10.4197 258.426 9.96777 258.878 9.96777 259.436C9.96777 259.993 10.4197 260.445 10.9773 260.445H88.9681C89.5256 260.445 89.9776 259.993 89.9776 259.436C89.9776 258.878 89.5256 258.426 88.9681 258.426Z" fill="#B39BF9" fill-opacity="0.5"/>
<path d="M51.2073 275.588H10.4725C10.1938 275.588 9.96777 275.814 9.96777 276.092C9.96777 276.371 10.1938 276.597 10.4725 276.597H51.2073C51.486 276.597 51.712 276.371 51.712 276.092C51.712 275.814 51.486 275.588 51.2073 275.588Z" fill="#B39BF9" fill-opacity="0.5"/>
<path d="M94.4494 217.179H94.383C94.1872 217.179 94.0897 216.955 94.2276 216.825L94.2749 216.78C94.3604 216.7 94.3604 216.569 94.2749 216.487L94.0978 216.32C94.0122 216.239 93.873 216.239 93.7874 216.32L93.7406 216.365C93.6026 216.495 93.3659 216.403 93.3659 216.218V216.155C93.3659 216.041 93.268 215.948 93.1462 215.948H92.8959C92.775 215.948 92.6762 216.04 92.6762 216.155V216.218C92.6762 216.403 92.4399 216.495 92.3016 216.365L92.2547 216.32C92.1692 216.239 92.0304 216.239 91.9444 216.32L91.7673 216.487C91.6817 216.569 91.6817 216.7 91.7673 216.78L91.8141 216.825C91.9521 216.955 91.8546 217.179 91.6591 217.179H91.5927C91.4714 217.179 91.373 217.272 91.373 217.386V217.623C91.373 217.737 91.471 217.83 91.5927 217.83H91.6591C91.8546 217.83 91.9521 218.054 91.8141 218.184L91.7673 218.229C91.6817 218.309 91.6817 218.441 91.7673 218.522L91.9444 218.689C92.03 218.77 92.1687 218.77 92.2547 218.689L92.3016 218.644C92.4399 218.514 92.6762 218.606 92.6762 218.791V218.854C92.6762 218.968 92.7746 219.062 92.8959 219.062H93.1462C93.2676 219.062 93.3659 218.969 93.3659 218.854V218.791C93.3659 218.606 93.6026 218.514 93.7406 218.644L93.7874 218.689C93.873 218.77 94.0122 218.77 94.0978 218.689L94.2749 218.522C94.3604 218.441 94.3604 218.309 94.2749 218.229L94.2276 218.184C94.0897 218.054 94.1876 217.83 94.383 217.83H94.4494C94.5704 217.83 94.6691 217.738 94.6691 217.623V217.386C94.6691 217.272 94.5708 217.179 94.4494 217.179ZM93.0211 218.059C92.6967 218.059 92.434 217.811 92.434 217.504C92.434 217.198 92.6967 216.949 93.0211 216.949C93.3455 216.949 93.6082 217.198 93.6082 217.504C93.6082 217.811 93.3455 218.059 93.0211 218.059Z" fill="#8041FF"/>
<path d="M9.44272 215.948H5.67578V216.393H9.44272V215.948Z" fill="#8041FF"/>
<path d="M9.44272 216.837H5.67578V217.727H9.44272V216.837Z" fill="#8041FF"/>
<path d="M9.44272 218.172H5.67578V218.617H9.44272V218.172Z" fill="#8041FF"/>
<path d="M80.255 230.934C80.1952 230.934 80.1363 230.938 80.0777 230.943C79.8299 230.135 79.0837 229.548 78.2013 229.548C77.1329 229.548 76.2653 230.41 76.2399 231.482C75.7293 231.403 75.1889 231.56 74.7957 231.957C74.1397 232.619 74.1397 233.693 74.7957 234.355C75.1409 234.703 75.5991 234.917 76.0512 234.899H80.255C81.3398 234.899 82.2191 234.012 82.2191 232.917C82.2191 231.822 81.3398 230.934 80.255 230.934Z" stroke="url(#paint10_linear_71_252)" stroke-miterlimit="10" stroke-linecap="round" stroke-linejoin="round"/>
<path d="M74.1174 231.975C73.7998 231.6 73.6074 231.114 73.6074 230.581C73.6074 229.397 74.5587 228.437 75.7318 228.437C76.2588 228.437 76.7413 228.631 77.1125 228.952" stroke="url(#paint11_linear_71_252)" stroke-miterlimit="10" stroke-linecap="round" stroke-linejoin="round"/>
<path d="M74.118 228.449L73.5234 227.822" stroke="url(#paint12_linear_71_252)" stroke-miterlimit="10" stroke-linecap="round" stroke-linejoin="round"/>
<path d="M77.1455 228.437L77.8142 227.814" stroke="url(#paint13_linear_71_252)" stroke-miterlimit="10" stroke-linecap="round" stroke-linejoin="round"/>
<path d="M73.0117 232.609L73.6807 231.985" stroke="url(#paint14_linear_71_252)" stroke-miterlimit="10" stroke-linecap="round" stroke-linejoin="round"/>
<path d="M75.6924 227.931V227.133" stroke="url(#paint15_linear_71_252)" stroke-miterlimit="10" stroke-linecap="round" stroke-linejoin="round"/>
<path d="M73.2751 230.206H72.4844" stroke="url(#paint16_linear_71_252)" stroke-miterlimit="10" stroke-linecap="round" stroke-linejoin="round"/>
<path d="M49.4731 228.142L50.5548 230.468L52.9735 230.841L51.2233 232.652L51.6361 235.208L49.4731 234.001L47.3097 235.208L47.7229 232.652L45.9727 230.841L48.3914 230.468L49.4731 228.142Z" stroke="url(#paint17_linear_71_252)" stroke-miterlimit="10" stroke-linecap="round" stroke-linejoin="round"/>
<path d="M25.2964 230.4H20.8098C20.3477 230.4 19.9697 230.782 19.9697 231.248V235.37C19.9697 235.836 20.3477 236.218 20.8098 236.218H25.2964C25.7589 236.218 26.1369 235.836 26.1369 235.37V231.248C26.1369 230.782 25.7589 230.4 25.2964 230.4ZM23.4797 234.644H22.6132L22.7768 233.107C22.5876 233.006 22.4564 232.807 22.4564 232.577C22.4564 232.245 22.7252 231.974 23.0538 231.974C23.3819 231.974 23.6507 232.245 23.6507 232.577C23.6507 232.813 23.5135 233.016 23.3175 233.115L23.4797 234.644Z" stroke="url(#paint18_linear_71_252)" stroke-miterlimit="10" stroke-linecap="round" stroke-linejoin="round"/>
<path d="M25.4019 229.89H24.9622C24.9622 228.827 24.1057 227.963 23.0527 227.963C21.9997 227.963 21.1433 228.827 21.1433 229.89H20.7031C20.7031 228.583 21.757 227.519 23.0527 227.519C24.3479 227.519 25.4019 228.582 25.4019 229.89Z" stroke="url(#paint19_linear_71_252)" stroke-miterlimit="10" stroke-linecap="round" stroke-linejoin="round"/>
<rect opacity="0.5" x="10.2178" y="220.316" width="24.2064" height="23.4965" rx="4.75" fill="white" stroke="#652EFF" stroke-width="0.5"/>
<rect opacity="0.5" x="38.1885" y="220.316" width="23.7403" height="23.4965" rx="4.75" fill="white" stroke="#652EFF" stroke-width="0.5"/>
<rect opacity="0.5" x="65.6924" y="220.316" width="24.2064" height="23.4965" rx="4.75" fill="white" stroke="#652EFF" stroke-width="0.5"/>
<rect opacity="0.5" x="10.2178" y="248.547" width="11.6201" height="7.49883" rx="1.75" fill="white" stroke="#652EFF" stroke-width="0.5"/>
<rect opacity="0.5" x="23.7383" y="248.547" width="11.6201" height="7.49883" rx="1.75" fill="white" stroke="#652EFF" stroke-width="0.5"/>
<rect opacity="0.5" x="37.2549" y="248.547" width="11.6201" height="7.49883" rx="1.75" fill="white" stroke="#652EFF" stroke-width="0.5"/>
<rect opacity="0.5" x="51.2412" y="248.547" width="11.6201" height="7.49883" rx="1.75" fill="white" stroke="#652EFF" stroke-width="0.5"/>
<rect opacity="0.5" x="64.7588" y="248.547" width="11.6201" height="7.49883" rx="1.75" fill="white" stroke="#652EFF" stroke-width="0.5"/>
<rect opacity="0.5" x="78.2783" y="248.547" width="11.6201" height="7.49883" rx="1.75" fill="white" stroke="#652EFF" stroke-width="0.5"/>
<path d="M246.317 279.466H192.938C190.905 279.466 189.257 277.805 189.257 275.756V209.18C189.257 207.05 190.97 205.323 193.084 205.323H246.172C248.285 205.323 249.999 207.05 249.999 209.18V275.755C249.998 277.805 248.35 279.466 246.317 279.466Z" fill="#652EFF"/>
<path d="M193.331 279.255C191.332 279.255 189.706 277.642 189.706 275.659V209.178C189.706 207.195 191.332 205.582 193.331 205.582H198.712V207.136C198.712 207.83 199.28 208.394 199.979 208.394H239.113C239.812 208.394 240.381 207.83 240.381 207.136V205.582H245.761C247.76 205.582 249.387 207.195 249.387 209.178V275.659C249.387 277.642 247.76 279.255 245.761 279.255H193.331Z" fill="white"/>
<path d="M246.013 214.243H245.946C245.751 214.243 245.653 214.004 245.791 213.865L245.838 213.817C245.924 213.731 245.924 213.591 245.838 213.504L245.661 213.326C245.576 213.239 245.436 213.239 245.351 213.326L245.304 213.373C245.166 213.512 244.929 213.414 244.929 213.216V213.149C244.929 213.027 244.831 212.928 244.71 212.928H244.459C244.338 212.928 244.24 213.027 244.24 213.149V213.216C244.24 213.414 244.003 213.512 243.865 213.373L243.818 213.326C243.733 213.239 243.594 213.239 243.508 213.326L243.331 213.504C243.245 213.591 243.245 213.731 243.331 213.817L243.378 213.865C243.516 214.004 243.418 214.243 243.223 214.243H243.156C243.035 214.243 242.937 214.342 242.937 214.465V214.717C242.937 214.84 243.034 214.939 243.156 214.939H243.223C243.418 214.939 243.516 215.178 243.378 215.317L243.331 215.365C243.245 215.451 243.245 215.591 243.331 215.678L243.508 215.857C243.593 215.943 243.732 215.943 243.818 215.857L243.865 215.809C244.003 215.67 244.24 215.768 244.24 215.966V216.033C244.24 216.155 244.338 216.255 244.459 216.255H244.71C244.831 216.255 244.929 216.155 244.929 216.033V215.966C244.929 215.768 245.166 215.67 245.304 215.809L245.351 215.857C245.436 215.943 245.576 215.943 245.661 215.857L245.838 215.678C245.924 215.591 245.924 215.451 245.838 215.365L245.791 215.317C245.653 215.178 245.751 214.939 245.946 214.939H246.013C246.134 214.939 246.233 214.84 246.233 214.717V214.465C246.233 214.342 246.134 214.243 246.013 214.243ZM244.585 215.183C244.26 215.183 243.997 214.918 243.997 214.59C243.997 214.263 244.26 213.998 244.585 213.998C244.909 213.998 245.172 214.263 245.172 214.59C245.172 214.918 244.909 215.183 244.585 215.183Z" fill="#8041FF"/>
<path d="M197.261 212.928H193.494V213.403H197.261V212.928Z" fill="#8041FF"/>
<path d="M197.261 213.878H193.494V214.829H197.261V213.878Z" fill="#8041FF"/>
<path d="M197.261 215.304H193.494V215.779H197.261V215.304Z" fill="#8041FF"/>
<path d="M235.275 230.934C235.216 230.934 235.157 230.938 235.098 230.943C234.85 230.135 234.104 229.548 233.222 229.548C232.153 229.548 231.286 230.41 231.26 231.482C230.75 231.403 230.209 231.56 229.816 231.957C229.16 232.619 229.16 233.693 229.816 234.355C230.161 234.703 230.62 234.917 231.072 234.899H235.275C236.36 234.899 237.24 234.012 237.24 232.917C237.24 231.822 236.36 230.934 235.275 230.934Z" stroke="url(#paint20_linear_71_252)" stroke-miterlimit="10" stroke-linecap="round" stroke-linejoin="round"/>
<path d="M229.137 231.975C228.819 231.6 228.627 231.114 228.627 230.581C228.627 229.397 229.578 228.437 230.751 228.437C231.278 228.437 231.761 228.631 232.132 228.952" stroke="url(#paint21_linear_71_252)" stroke-miterlimit="10" stroke-linecap="round" stroke-linejoin="round"/>
<path d="M229.139 228.449L228.544 227.822" stroke="url(#paint22_linear_71_252)" stroke-miterlimit="10" stroke-linecap="round" stroke-linejoin="round"/>
<path d="M232.165 228.437L232.834 227.814" stroke="url(#paint23_linear_71_252)" stroke-miterlimit="10" stroke-linecap="round" stroke-linejoin="round"/>
<path d="M228.032 232.609L228.701 231.985" stroke="url(#paint24_linear_71_252)" stroke-miterlimit="10" stroke-linecap="round" stroke-linejoin="round"/>
<path d="M230.712 227.931V227.133" stroke="url(#paint25_linear_71_252)" stroke-miterlimit="10" stroke-linecap="round" stroke-linejoin="round"/>
<path d="M228.296 230.206H227.505" stroke="url(#paint26_linear_71_252)" stroke-miterlimit="10" stroke-linecap="round" stroke-linejoin="round"/>
<path d="M204.494 228.142L205.575 230.468L207.994 230.841L206.244 232.652L206.657 235.208L204.494 234.001L202.33 235.208L202.743 232.652L200.993 230.841L203.412 230.468L204.494 228.142Z" stroke="url(#paint27_linear_71_252)" stroke-miterlimit="10" stroke-linecap="round" stroke-linejoin="round"/>
<g opacity="0.5">
<rect x="193.241" y="220.316" width="24.2064" height="23.4965" rx="4.75" fill="white" stroke="#652EFF" stroke-width="0.5"/>
<rect x="221.212" y="220.316" width="23.7403" height="23.4965" rx="4.75" fill="white" stroke="#652EFF" stroke-width="0.5"/>
<rect x="193.241" y="248.547" width="11.6201" height="7.49883" rx="1.75" fill="white" stroke="#652EFF" stroke-width="0.5"/>
<rect x="206.761" y="248.547" width="11.6201" height="7.49883" rx="1.75" fill="white" stroke="#652EFF" stroke-width="0.5"/>
<rect x="220.278" y="248.547" width="11.6201" height="7.49883" rx="1.75" fill="white" stroke="#652EFF" stroke-width="0.5"/>
<rect x="234.265" y="248.547" width="11.6201" height="7.49883" rx="1.75" fill="white" stroke="#652EFF" stroke-width="0.5"/>
<rect x="193.241" y="258.428" width="11.6201" height="7.49883" rx="1.75" fill="white" stroke="#652EFF" stroke-width="0.5"/>
<rect x="206.761" y="258.428" width="11.6201" height="7.49883" rx="1.75" fill="white" stroke="#652EFF" stroke-width="0.5"/>
<rect x="220.278" y="258.428" width="11.6201" height="7.49883" rx="1.75" fill="white" stroke="#652EFF" stroke-width="0.5"/>
<rect x="234.265" y="258.428" width="11.6201" height="7.49883" rx="1.75" fill="white" stroke="#652EFF" stroke-width="0.5"/>
<rect x="193.241" y="267.839" width="11.6201" height="7.49883" rx="1.75" fill="white" stroke="#652EFF" stroke-width="0.5"/>
<rect x="206.761" y="267.839" width="11.6201" height="7.49883" rx="1.75" fill="white" stroke="#652EFF" stroke-width="0.5"/>
<rect x="220.278" y="267.839" width="11.6201" height="7.49883" rx="1.75" fill="white" stroke="#652EFF" stroke-width="0.5"/>
<rect x="234.265" y="267.839" width="11.6201" height="7.49883" rx="1.75" fill="white" stroke="#652EFF" stroke-width="0.5"/>
</g>
<path d="M145.766 279.485H122.754C121.186 279.485 119.915 278.215 119.915 276.65V222.145C119.915 220.517 121.236 219.197 122.867 219.197H145.655C147.285 219.197 148.606 220.517 148.606 222.145V276.649C148.605 278.215 147.334 279.485 145.766 279.485Z" fill="#652EFF"/>
<path d="M123.059 279.324C121.517 279.324 120.263 278.091 120.263 276.576V222.143C120.263 220.628 121.517 219.395 123.059 219.395H127.209V220.583C127.209 221.113 127.647 221.544 128.186 221.544H140.211C140.751 221.544 141.189 221.113 141.189 220.583V219.395H145.339C146.881 219.395 148.135 220.628 148.135 222.143V276.576C148.135 278.091 146.881 279.324 145.339 279.324H123.059Z" fill="white"/>
<path d="M144.83 224.56H144.786C144.656 224.56 144.592 224.378 144.683 224.271L144.714 224.235C144.771 224.169 144.771 224.062 144.714 223.996L144.597 223.86C144.541 223.793 144.449 223.793 144.392 223.86L144.361 223.896C144.27 224.002 144.113 223.927 144.113 223.776V223.725C144.113 223.631 144.049 223.556 143.968 223.556H143.803C143.723 223.556 143.657 223.631 143.657 223.725V223.776C143.657 223.927 143.501 224.002 143.41 223.896L143.379 223.86C143.322 223.793 143.23 223.793 143.174 223.86L143.057 223.996C143 224.062 143 224.169 143.057 224.235L143.087 224.271C143.179 224.378 143.114 224.56 142.985 224.56H142.941C142.861 224.56 142.796 224.636 142.796 224.73V224.923C142.796 225.017 142.861 225.093 142.941 225.093H142.985C143.114 225.093 143.179 225.275 143.087 225.382L143.057 225.418C143 225.484 143 225.591 143.057 225.657L143.174 225.794C143.23 225.86 143.322 225.86 143.379 225.794L143.41 225.757C143.501 225.651 143.657 225.726 143.657 225.877V225.928C143.657 226.022 143.722 226.098 143.803 226.098H143.968C144.048 226.098 144.113 226.022 144.113 225.928V225.877C144.113 225.726 144.27 225.651 144.361 225.757L144.392 225.794C144.449 225.86 144.541 225.86 144.597 225.794L144.714 225.657C144.771 225.591 144.771 225.484 144.714 225.418L144.683 225.382C144.592 225.275 144.657 225.093 144.786 225.093H144.83C144.91 225.093 144.975 225.017 144.975 224.923V224.73C144.975 224.636 144.91 224.56 144.83 224.56ZM143.885 225.279C143.671 225.279 143.497 225.076 143.497 224.826C143.497 224.576 143.671 224.373 143.885 224.373C144.1 224.373 144.274 224.576 144.274 224.826C144.274 225.076 144.1 225.279 143.885 225.279Z" fill="#8041FF"/>
<path d="M125.727 223.556H122.821V223.919H125.727V223.556Z" fill="#8041FF"/>
<path d="M125.727 224.282H122.821V225.008H125.727V224.282Z" fill="#8041FF"/>
<path d="M125.727 225.371H122.821V225.735H125.727V225.371Z" fill="#8041FF"/>
<path d="M145.035 271.696H123.934C123.38 271.696 122.93 272.146 122.93 272.701C122.93 273.256 123.38 273.705 123.934 273.705H145.035C145.59 273.705 146.04 273.256 146.04 272.701C146.04 272.146 145.59 271.696 145.035 271.696Z" fill="#B39BF9" fill-opacity="0.5"/>
<path d="M145.035 268.681H123.934C123.38 268.681 122.93 269.131 122.93 269.686C122.93 270.241 123.38 270.691 123.934 270.691H145.035C145.59 270.691 146.04 270.241 146.04 269.686C146.04 269.131 145.59 268.681 145.035 268.681Z" fill="#B39BF9" fill-opacity="0.5"/>
<path d="M145.035 265.667H123.934C123.38 265.667 122.93 266.117 122.93 266.672C122.93 267.227 123.38 267.677 123.934 267.677H145.035C145.59 267.677 146.04 267.227 146.04 266.672C146.04 266.117 145.59 265.667 145.035 265.667Z" fill="#B39BF9" fill-opacity="0.5"/>
<path d="M145.035 262.653H123.934C123.38 262.653 122.93 263.103 122.93 263.658C122.93 264.212 123.38 264.662 123.934 264.662H145.035C145.59 264.662 146.04 264.212 146.04 263.658C146.04 263.103 145.59 262.653 145.035 262.653Z" fill="#B39BF9" fill-opacity="0.5"/>
<path d="M145.035 259.638H123.934C123.38 259.638 122.93 260.088 122.93 260.643C122.93 261.198 123.38 261.648 123.934 261.648H145.035C145.59 261.648 146.04 261.198 146.04 260.643C146.04 260.088 145.59 259.638 145.035 259.638Z" fill="#B39BF9" fill-opacity="0.5"/>
<path d="M145.035 256.624H123.934C123.38 256.624 122.93 257.074 122.93 257.629C122.93 258.184 123.38 258.634 123.934 258.634H145.035C145.59 258.634 146.04 258.184 146.04 257.629C146.04 257.074 145.59 256.624 145.035 256.624Z" fill="#B39BF9" fill-opacity="0.5"/>
<path d="M145.035 253.61H123.934C123.38 253.61 122.93 254.059 122.93 254.614C122.93 255.169 123.38 255.619 123.934 255.619H145.035C145.59 255.619 146.04 255.169 146.04 254.614C146.04 254.059 145.59 253.61 145.035 253.61Z" fill="#B39BF9" fill-opacity="0.5"/>
<path d="M145.035 250.595H123.934C123.38 250.595 122.93 251.045 122.93 251.6C122.93 252.155 123.38 252.605 123.934 252.605H145.035C145.59 252.605 146.04 252.155 146.04 251.6C146.04 251.045 145.59 250.595 145.035 250.595Z" fill="#B39BF9" fill-opacity="0.5"/>
<path d="M134.485 274.71H123.432C123.155 274.71 122.93 274.935 122.93 275.213C122.93 275.49 123.155 275.715 123.432 275.715H134.485C134.762 275.715 134.987 275.49 134.987 275.213C134.987 274.935 134.762 274.71 134.485 274.71Z" fill="#B39BF9" fill-opacity="0.5"/>
<rect x="123.18" y="228.491" width="22.6102" height="20.6006" rx="4.75" fill="white" stroke="#652EFF" stroke-width="0.5"/>
<path d="M31.9707 109.559C35.0292 109.559 37.5068 112.032 37.5068 115.081C37.5068 118.129 35.0292 120.602 31.9707 120.602C28.9122 120.602 26.4346 118.129 26.4346 115.081C26.4346 112.032 28.9122 109.559 31.9707 109.559Z" fill="white" stroke="#642CFF"/>
<path d="M31.9704 117.803C33.4777 117.803 34.6996 116.584 34.6996 115.081C34.6996 113.577 33.4777 112.358 31.9704 112.358C30.4631 112.358 29.2412 113.577 29.2412 115.081C29.2412 116.584 30.4631 117.803 31.9704 117.803Z" fill="#642CFF"/>
<path d="M224.002 123.692C227.06 123.692 229.538 126.165 229.538 129.213C229.538 132.261 227.06 134.735 224.002 134.735C220.943 134.735 218.466 132.262 218.466 129.213C218.466 126.165 220.943 123.692 224.002 123.692Z" fill="white" stroke="#652EFF"/>
<path d="M224.004 131.936C225.511 131.936 226.733 130.717 226.733 129.213C226.733 127.71 225.511 126.491 224.004 126.491C222.496 126.491 221.274 127.71 221.274 129.213C221.274 130.717 222.496 131.936 224.004 131.936Z" fill="#652EFF"/>
<path d="M219.515 199.5C222.573 199.5 225.051 201.973 225.051 205.021C225.051 208.07 222.573 210.543 219.515 210.543C216.456 210.543 213.979 208.07 213.979 205.021C213.979 201.973 216.456 199.5 219.515 199.5Z" fill="white" stroke="#652EFF"/>
<path d="M219.516 207.744C221.024 207.744 222.245 206.525 222.245 205.022C222.245 203.518 221.024 202.299 219.516 202.299C218.009 202.299 216.787 203.518 216.787 205.022C216.787 206.525 218.009 207.744 219.516 207.744Z" fill="#652EFF"/>
<path d="M133.77 214.545C136.828 214.545 139.306 217.018 139.306 220.066C139.306 223.114 136.828 225.588 133.77 225.588C130.711 225.588 128.233 223.115 128.233 220.066C128.233 217.018 130.711 214.545 133.77 214.545Z" fill="white" stroke="#652EFF"/>
<path d="M133.77 222.789C135.277 222.789 136.499 221.57 136.499 220.066C136.499 218.563 135.277 217.344 133.77 217.344C132.263 217.344 131.041 218.563 131.041 220.066C131.041 221.57 132.263 222.789 133.77 222.789Z" fill="#652EFF"/>
<path d="M50.1074 205.5C53.1659 205.5 55.6436 207.973 55.6436 211.021C55.6436 214.07 53.1659 216.543 50.1074 216.543C47.0489 216.543 44.5713 214.07 44.5713 211.021C44.5713 207.973 47.0489 205.5 50.1074 205.5Z" fill="white" stroke="#652EFF"/>
<path d="M50.1081 213.744C51.6154 213.744 52.8373 212.525 52.8373 211.022C52.8373 209.518 51.6154 208.299 50.1081 208.299C48.6008 208.299 47.3789 209.518 47.3789 211.022C47.3789 212.525 48.6008 213.744 50.1081 213.744Z" fill="#652EFF"/>
<path d="M221.6 83.7885C221.416 83.7885 221.231 83.7685 221.047 83.7274L216.317 82.682C215.647 82.5349 215.075 82.1322 214.706 81.5506C214.336 80.9691 214.213 80.2759 214.359 79.6002L215.715 73.3455C212.558 71.966 209.754 69.9968 207.376 67.4884L202.037 70.9424C201.46 71.3164 200.772 71.4399 200.105 71.2921C199.435 71.1444 198.863 70.7423 198.494 70.1601L195.881 66.0447C195.117 64.8435 195.465 63.239 196.656 62.4686L201.996 59.0146C200.731 55.7862 200.13 52.3933 200.206 48.9213L194.009 47.5524C192.628 47.2475 191.75 45.8643 192.052 44.4705L193.087 39.6956C193.233 39.0199 193.632 38.4421 194.208 38.0693C194.784 37.6965 195.471 37.5713 196.141 37.7202L202.337 39.0879C203.704 35.9019 205.654 33.0731 208.14 30.6714L204.718 25.2818C204.348 24.6996 204.225 24.0065 204.372 23.3314C204.518 22.6557 204.916 22.0778 205.493 21.7057L209.57 19.0683C210.762 18.2984 212.351 18.6487 213.113 19.8512L216.535 25.2401C219.735 23.9635 223.105 23.3563 226.535 23.4336L227.891 17.1795C228.038 16.5038 228.436 15.9259 229.013 15.5532C229.589 15.1792 230.273 15.0545 230.945 15.2035L235.675 16.2482C236.345 16.396 236.917 16.798 237.287 17.3802C237.656 17.9624 237.779 18.655 237.632 19.3307L236.277 25.5854C239.435 26.9655 242.237 28.9341 244.616 31.4424L249.956 27.9891C251.147 27.2192 252.736 27.5702 253.499 28.7714L256.112 32.8868C256.875 34.088 256.527 35.6925 255.336 36.4629L249.996 39.9175C251.262 43.1465 251.863 46.5394 251.787 50.0109L257.983 51.3798C258.652 51.5269 259.225 51.9296 259.594 52.5111C259.963 53.0927 260.087 53.7859 259.94 54.4622L258.905 59.2359C258.603 60.6297 257.233 61.5205 255.852 61.2119L249.655 59.8436C248.287 63.0308 246.337 65.8602 243.852 68.2601L247.273 73.6497C247.643 74.2319 247.766 74.9244 247.62 75.5995C247.473 76.2752 247.075 76.8531 246.498 77.2258L242.422 79.8632C241.232 80.6337 239.641 80.2815 238.879 79.0803L235.457 73.6908C232.258 74.968 228.899 75.5758 225.456 75.4973L224.1 81.752C223.954 82.4277 223.555 83.0056 222.979 83.3783C222.561 83.6482 222.085 83.7885 221.6 83.7885ZM207.425 66.7747C207.508 66.7747 207.59 66.8084 207.65 66.8732C210.065 69.4707 212.938 71.4891 216.191 72.873C216.329 72.9316 216.405 73.0799 216.373 73.2264L214.962 79.7329C214.851 80.246 214.945 80.7721 215.226 81.214C215.506 81.656 215.94 81.9614 216.448 82.0736L221.178 83.119C221.688 83.2293 222.207 83.1358 222.646 82.8535C223.084 82.5698 223.386 82.1316 223.497 81.6192L224.908 75.1127C224.939 74.9662 225.061 74.8727 225.219 74.8671C228.752 74.9874 232.195 74.359 235.463 73.0163C235.601 72.959 235.759 73.0095 235.839 73.1366L239.399 78.7431C239.979 79.655 241.186 79.9218 242.089 79.3371L246.166 76.6997C246.604 76.4161 246.907 75.9779 247.018 75.4655C247.129 74.9525 247.035 74.4263 246.755 73.9844L243.195 68.378C243.115 68.252 243.135 68.085 243.244 67.9828C245.817 65.5461 247.816 62.645 249.187 59.3612C249.245 59.2221 249.394 59.1461 249.537 59.1779L255.984 60.6016C257.037 60.8298 258.073 60.1597 258.303 59.1012L259.338 54.3276C259.449 53.8146 259.356 53.2885 259.075 52.8465C258.794 52.4045 258.359 52.0991 257.852 51.9869L251.406 50.5632C251.26 50.5308 251.158 50.3986 251.162 50.249C251.275 46.6878 250.658 43.2095 249.328 39.9094C249.272 39.7698 249.322 39.6109 249.447 39.5298L255.002 35.9362C255.44 35.6526 255.742 35.2143 255.853 34.7013C255.965 34.1889 255.871 33.6628 255.59 33.2209L252.977 29.1055C252.397 28.1935 251.191 27.928 250.287 28.5121L244.733 32.1051C244.609 32.1874 244.443 32.1662 244.342 32.0558C241.926 29.4589 239.053 27.4405 235.799 26.0567C235.662 25.9981 235.586 25.8497 235.618 25.7032L237.028 19.1967C237.258 18.1382 236.592 17.0879 235.543 16.856L230.813 15.8113C229.761 15.5775 228.723 16.2526 228.494 17.3117L227.083 23.8176C227.051 23.9641 226.922 24.0613 226.772 24.0632C223.24 23.9435 219.798 24.5712 216.528 25.9139C216.391 25.9719 216.232 25.9208 216.152 25.7936L212.592 20.1878C212.013 19.2758 210.808 19.0084 209.901 19.5938L205.825 22.2312C205.387 22.5142 205.084 22.9524 204.973 23.4654C204.862 23.9778 204.956 24.5039 205.236 24.9465L208.797 30.5523C208.877 30.6782 208.856 30.8447 208.748 30.9475C206.174 33.3861 204.174 36.2865 202.804 39.5691C202.746 39.7081 202.596 39.7835 202.453 39.7524L196.007 38.3292C195.499 38.2164 194.978 38.3112 194.539 38.5948C194.101 38.8778 193.799 39.316 193.688 39.8284L192.653 44.6033C192.423 45.6617 193.09 46.7121 194.139 46.944L200.585 48.3677C200.73 48.4001 200.833 48.5323 200.829 48.6819C200.715 52.2437 201.332 55.7227 202.662 59.0214C202.718 59.1611 202.668 59.32 202.543 59.4011L196.989 62.9941C196.084 63.5788 195.82 64.7974 196.4 65.7094L199.013 69.8248C199.294 70.2667 199.728 70.5722 200.236 70.6844C200.743 70.7972 201.265 70.7018 201.703 70.4188L207.258 66.8252C207.31 66.7903 207.368 66.7747 207.425 66.7747ZM226.003 62.9959C225.247 62.9959 224.482 62.9311 223.713 62.7977C216.43 61.5267 211.529 54.5115 212.787 47.1603C214.047 39.8091 220.996 34.8646 228.279 36.1313C231.808 36.7465 234.887 38.7126 236.951 41.666C239.015 44.6195 239.816 48.2075 239.206 51.7687C238.08 58.3445 232.402 62.9959 226.003 62.9959ZM223.818 62.1831C230.769 63.4011 237.396 58.6755 238.597 51.6628C239.179 48.2655 238.415 44.8427 236.447 42.0251C234.478 39.2076 231.541 37.3331 228.174 36.7459C221.224 35.5273 214.597 40.2535 213.396 47.2663C212.194 54.279 216.871 60.9707 223.818 62.1831Z" fill="url(#paint28_linear_71_252)"/>
<path d="M235.368 105.279C235.092 105.279 234.868 105.053 234.868 104.775V101.453C234.868 101.174 235.092 100.948 235.368 100.948C235.644 100.948 235.868 101.174 235.868 101.453V104.775C235.868 105.053 235.645 105.279 235.368 105.279Z" fill="#775BFC"/>
<path d="M235.368 113.811C235.092 113.811 234.868 113.584 234.868 113.306V109.984C234.868 109.705 235.092 109.479 235.368 109.479C235.644 109.479 235.868 109.705 235.868 109.984V113.306C235.868 113.585 235.645 113.811 235.368 113.811Z" fill="#775BFC"/>
<path d="M241.24 107.884H237.948C237.672 107.884 237.448 107.658 237.448 107.379C237.448 107.101 237.672 106.874 237.948 106.874H241.24C241.516 106.874 241.74 107.101 241.74 107.379C241.74 107.658 241.517 107.884 241.24 107.884Z" fill="#775BFC"/>
<path d="M232.788 107.884H229.496C229.22 107.884 228.996 107.658 228.996 107.379C228.996 107.101 229.22 106.874 229.496 106.874H232.788C233.064 106.874 233.288 107.101 233.288 107.379C233.288 107.658 233.065 107.884 232.788 107.884Z" fill="#775BFC"/>
<path d="M231.216 112.074C231.088 112.074 230.96 112.025 230.862 111.927C230.667 111.73 230.667 111.41 230.862 111.213L233.189 108.864C233.384 108.667 233.701 108.667 233.896 108.864C234.091 109.061 234.091 109.381 233.896 109.578L231.569 111.927C231.472 112.026 231.344 112.074 231.216 112.074Z" fill="#775BFC"/>
<path d="M237.194 106.043C237.066 106.043 236.938 105.993 236.84 105.895C236.645 105.698 236.645 105.378 236.84 105.182L239.167 102.833C239.362 102.636 239.679 102.636 239.874 102.833C240.069 103.029 240.069 103.349 239.874 103.546L237.547 105.895C237.45 105.993 237.322 106.043 237.194 106.043Z" fill="#775BFC"/>
<path d="M233.543 106.043C233.415 106.043 233.287 105.993 233.189 105.895L230.862 103.546C230.667 103.349 230.667 103.029 230.862 102.833C231.057 102.636 231.374 102.636 231.569 102.833L233.896 105.182C234.091 105.378 234.091 105.698 233.896 105.895C233.799 105.993 233.671 106.043 233.543 106.043Z" fill="#775BFC"/>
<path d="M239.521 112.074C239.393 112.074 239.265 112.025 239.167 111.927L236.84 109.578C236.645 109.381 236.645 109.061 236.84 108.864C237.035 108.667 237.352 108.667 237.547 108.864L239.874 111.213C240.069 111.41 240.069 111.73 239.874 111.927C239.777 112.026 239.649 112.074 239.521 112.074Z" fill="#775BFC"/>
<path d="M10.3399 17.4549C10.0639 17.4549 9.83984 17.2288 9.83984 16.9501V13.628C9.83984 13.3494 10.0639 13.1232 10.3399 13.1232C10.6159 13.1232 10.84 13.3494 10.84 13.628V16.9501C10.84 17.2288 10.6169 17.4549 10.3399 17.4549Z" fill="#775BFC"/>
<path d="M10.3399 25.986C10.0639 25.986 9.83984 25.7599 9.83984 25.4812V22.159C9.83984 21.8804 10.0639 21.6543 10.3399 21.6543C10.6159 21.6543 10.84 21.8804 10.84 22.159V25.4812C10.84 25.7609 10.6169 25.986 10.3399 25.986Z" fill="#775BFC"/>
<path d="M16.2124 20.0593H12.921C12.6449 20.0593 12.4209 19.8332 12.4209 19.5545C12.4209 19.2759 12.6449 19.0498 12.921 19.0498H16.2124C16.4884 19.0498 16.7124 19.2759 16.7124 19.5545C16.7124 19.8332 16.4894 20.0593 16.2124 20.0593Z" fill="#775BFC"/>
<path d="M7.75924 20.0593H4.46783C4.1918 20.0593 3.96777 19.8332 3.96777 19.5545C3.96777 19.2759 4.1918 19.0498 4.46783 19.0498H7.75924C8.03527 19.0498 8.2593 19.2759 8.2593 19.5545C8.2593 19.8332 8.03627 20.0593 7.75924 20.0593Z" fill="#775BFC"/>
<path d="M6.1878 24.2497C6.05978 24.2497 5.93178 24.2002 5.83377 24.1023C5.63874 23.9055 5.63874 23.5855 5.83377 23.3886L8.16105 21.0395C8.35607 20.8427 8.67311 20.8427 8.86814 21.0395C9.06316 21.2364 9.06316 21.5564 8.86814 21.7532L6.54086 24.1023C6.44384 24.2013 6.31582 24.2497 6.1878 24.2497Z" fill="#775BFC"/>
<path d="M12.1644 18.2181C12.0364 18.2181 11.9083 18.1686 11.8103 18.0707C11.6153 17.8738 11.6153 17.5538 11.8103 17.357L14.1376 15.0079C14.3326 14.8111 14.6497 14.8111 14.8447 15.0079C15.0397 15.2048 15.0397 15.5248 14.8447 15.7216L12.5174 18.0707C12.4204 18.1686 12.2924 18.2181 12.1644 18.2181Z" fill="#775BFC"/>
<path d="M8.5151 18.2181C8.38708 18.2181 8.25906 18.1686 8.16105 18.0707L5.83377 15.7216C5.63874 15.5248 5.63874 15.2048 5.83377 15.0079C6.02879 14.8111 6.34583 14.8111 6.54086 15.0079L8.86814 17.357C9.06316 17.5538 9.06316 17.8738 8.86814 18.0707C8.77112 18.1686 8.64311 18.2181 8.5151 18.2181Z" fill="#775BFC"/>
<path d="M14.4917 24.2497C14.3636 24.2497 14.2356 24.2002 14.1376 24.1023L11.8103 21.7532C11.6153 21.5564 11.6153 21.2364 11.8103 21.0395C12.0054 20.8427 12.3224 20.8427 12.5174 21.0395L14.8447 23.3886C15.0397 23.5855 15.0397 23.9055 14.8447 24.1023C14.7477 24.2013 14.6197 24.2497 14.4917 24.2497Z" fill="#775BFC"/>
<path d="M171.36 249.635C171.084 249.635 170.86 249.409 170.86 249.13V245.808C170.86 245.529 171.084 245.303 171.36 245.303C171.636 245.303 171.86 245.529 171.86 245.808V249.13C171.86 249.409 171.637 249.635 171.36 249.635Z" fill="#775BFC"/>
<path d="M171.36 258.166C171.084 258.166 170.86 257.94 170.86 257.661V254.339C170.86 254.06 171.084 253.834 171.36 253.834C171.636 253.834 171.86 254.06 171.86 254.339V257.661C171.86 257.941 171.637 258.166 171.36 258.166Z" fill="#775BFC"/>
<path d="M177.232 252.239H173.94C173.664 252.239 173.44 252.013 173.44 251.735C173.44 251.456 173.664 251.23 173.94 251.23H177.232C177.508 251.23 177.732 251.456 177.732 251.735C177.732 252.013 177.509 252.239 177.232 252.239Z" fill="#775BFC"/>
<path d="M168.78 252.239H165.488C165.212 252.239 164.988 252.013 164.988 251.735C164.988 251.456 165.212 251.23 165.488 251.23H168.78C169.056 251.23 169.28 251.456 169.28 251.735C169.28 252.013 169.057 252.239 168.78 252.239Z" fill="#775BFC"/>
<path d="M167.209 256.43C167.081 256.43 166.953 256.38 166.855 256.282C166.66 256.085 166.66 255.765 166.855 255.569L169.183 253.22C169.378 253.023 169.695 253.023 169.89 253.22C170.085 253.416 170.085 253.736 169.89 253.933L167.562 256.282C167.465 256.381 167.337 256.43 167.209 256.43Z" fill="#775BFC"/>
<path d="M173.185 250.398C173.057 250.398 172.929 250.349 172.831 250.251C172.636 250.054 172.636 249.734 172.831 249.537L175.158 247.188C175.353 246.991 175.67 246.991 175.865 247.188C176.06 247.385 176.06 247.705 175.865 247.902L173.538 250.251C173.441 250.349 173.313 250.398 173.185 250.398Z" fill="#775BFC"/>
<path d="M169.537 250.398C169.409 250.398 169.281 250.349 169.183 250.251L166.855 247.902C166.66 247.705 166.66 247.385 166.855 247.188C167.05 246.991 167.367 246.991 167.562 247.188L169.89 249.537C170.085 249.734 170.085 250.054 169.89 250.251C169.793 250.349 169.665 250.398 169.537 250.398Z" fill="#775BFC"/>
<path d="M175.512 256.43C175.384 256.43 175.256 256.38 175.158 256.282L172.831 253.933C172.636 253.736 172.636 253.416 172.831 253.22C173.026 253.023 173.343 253.023 173.538 253.22L175.865 255.569C176.06 255.765 176.06 256.085 175.865 256.282C175.768 256.381 175.64 256.43 175.512 256.43Z" fill="#775BFC"/>
<path d="M177.976 201.884C177.878 201.884 177.788 201.829 177.742 201.743L176.82 200.03L175.128 199.09C175.042 199.043 174.989 198.952 174.989 198.853C174.99 198.755 175.043 198.664 175.129 198.617L176.826 197.686L177.757 195.979C177.804 195.892 177.894 195.839 177.991 195.839C178.089 195.839 178.179 195.893 178.226 195.98L179.148 197.692L180.84 198.632C180.925 198.68 180.978 198.77 180.978 198.869C180.978 198.968 180.924 199.059 180.838 199.105L179.141 200.036L178.211 201.743C178.164 201.83 178.074 201.884 177.976 201.884ZM175.814 198.856L177.146 199.596C177.191 199.621 177.227 199.658 177.252 199.703L177.978 201.051L178.71 199.707C178.735 199.662 178.772 199.625 178.817 199.6L180.153 198.867L178.821 198.128C178.776 198.103 178.74 198.066 178.715 198.02L177.989 196.672L177.257 198.016C177.231 198.061 177.194 198.098 177.15 198.123L175.814 198.856Z" fill="#5800B5"/>
<path d="M110.967 248.319H110.966C110.868 248.319 110.778 248.265 110.732 248.178L109.81 246.466L108.118 245.526C108.032 245.478 107.979 245.388 107.979 245.289C107.979 245.19 108.034 245.099 108.119 245.052L109.816 244.122L110.747 242.415C110.794 242.328 110.884 242.275 110.981 242.275H110.982C111.08 242.275 111.169 242.329 111.216 242.416L112.138 244.128L113.83 245.068C113.915 245.116 113.968 245.206 113.968 245.305C113.968 245.404 113.914 245.495 113.829 245.542L112.132 246.472L111.201 248.179C111.154 248.266 111.064 248.319 110.967 248.319ZM108.804 245.291L110.136 246.031C110.18 246.056 110.217 246.093 110.242 246.139L110.968 247.487L111.701 246.142C111.726 246.098 111.763 246.06 111.808 246.035L113.144 245.303L111.812 244.563C111.767 244.538 111.731 244.501 111.706 244.456L110.98 243.107L110.247 244.452C110.222 244.496 110.185 244.534 110.14 244.558L108.804 245.291Z" fill="#5800B5"/>
<path d="M246.297 131.86C246.198 131.86 246.109 131.805 246.063 131.719L244.677 129.145L242.136 127.733C242.05 127.686 241.997 127.595 241.997 127.496C241.997 127.398 242.051 127.307 242.137 127.26L244.686 125.862L246.085 123.296C246.132 123.21 246.222 123.156 246.319 123.156H246.32C246.418 123.156 246.508 123.211 246.554 123.297L247.939 125.871L250.482 127.283C250.567 127.331 250.621 127.421 250.62 127.52C250.62 127.619 250.566 127.71 250.48 127.757L247.93 129.155L246.532 131.72C246.485 131.806 246.395 131.86 246.297 131.86ZM242.822 127.498L245.004 128.71C245.048 128.735 245.085 128.772 245.109 128.817L246.299 131.027L247.5 128.824C247.525 128.779 247.562 128.742 247.607 128.717L249.795 127.516L247.613 126.304C247.568 126.279 247.532 126.242 247.507 126.196L246.318 123.987L245.117 126.19C245.092 126.235 245.055 126.272 245.011 126.297L242.822 127.498Z" fill="#5800B5"/>
<path d="M172.29 226.751C172.168 226.76 172.101 226.697 172.055 226.61L170.669 224.037L168.128 222.624C168.042 222.577 167.989 222.486 167.989 222.387C167.989 222.289 168.043 222.198 168.129 222.151L170.679 220.753L172.078 218.187C172.125 218.101 172.203 218.058 172.313 218.047C172.41 218.047 172.5 218.102 172.547 218.188L173.932 220.762L176.474 222.174C176.559 222.222 176.612 222.313 176.612 222.411C176.612 222.509 176.558 222.601 176.473 222.648L173.923 224.046L172.524 226.611C172.477 226.698 172.387 226.751 172.29 226.751ZM168.813 222.389L170.996 223.602C171.04 223.627 171.077 223.664 171.102 223.709L172.291 225.919L173.492 223.716C173.517 223.671 173.553 223.634 173.598 223.609L175.787 222.409L173.605 221.196C173.56 221.172 173.523 221.134 173.499 221.089L172.31 218.88L171.109 221.082C171.084 221.127 171.047 221.164 171.002 221.189L168.813 222.389Z" fill="#5800B5"/>
<path d="M8.9631 49.4714C8.88394 49.4671 8.77483 49.4169 8.7283 49.3305L7.80298 47.6115L6.10533 46.6684C6.01975 46.6209 5.9668 46.5302 5.9668 46.4314C5.9668 46.3326 6.02082 46.2419 6.1064 46.1949L7.8094 45.261L8.74381 43.5474C8.79088 43.461 8.88074 43.4076 8.97808 43.4076C9.07596 43.4076 9.16635 43.4621 9.21289 43.5485L10.1382 45.2674L11.8359 46.2106C11.9214 46.2581 11.9744 46.3488 11.9744 46.4476C11.9744 46.5464 11.9204 46.6371 11.8348 46.684L10.1318 47.618L9.19738 49.3316C9.15031 49.4179 9.06045 49.4714 8.9631 49.4714ZM6.79102 46.433L8.12925 47.1764C8.17365 47.2012 8.21055 47.2385 8.23515 47.2838L8.96417 48.6384L9.70069 47.2876C9.72529 47.2428 9.76219 47.2056 9.80712 47.1807L11.1491 46.4449L9.81086 45.7015C9.76647 45.6767 9.72957 45.6394 9.70496 45.5941L8.97594 44.2395L8.23944 45.5903C8.21483 45.6351 8.17793 45.6723 8.133 45.6972L6.79102 46.433Z" fill="#5800B5"/>
<path d="M232.246 2.22732C232.098 2.22732 231.979 2.10639 231.979 1.95739V0.2703C231.979 0.121297 232.098 0.000366211 232.246 0.000366211C232.394 0.000366211 232.513 0.121297 232.513 0.2703V1.95739C232.513 2.10639 232.394 2.22732 232.246 2.22732Z" fill="#5800B5"/>
<path d="M232.246 6.56076C232.098 6.56076 231.979 6.43983 231.979 6.29082V4.60374C231.979 4.45473 232.098 4.3338 232.246 4.3338C232.394 4.3338 232.513 4.45473 232.513 4.60374V6.29082C232.513 6.44037 232.394 6.56076 232.246 6.56076Z" fill="#5800B5"/>
<path d="M235.228 3.55012H233.556C233.409 3.55012 233.289 3.42919 233.289 3.28019C233.289 3.13118 233.409 3.01025 233.556 3.01025H235.228C235.376 3.01025 235.496 3.13118 235.496 3.28019C235.496 3.42919 235.377 3.55012 235.228 3.55012Z" fill="#5800B5"/>
<path d="M230.936 3.55012H229.264C229.116 3.55012 228.996 3.42919 228.996 3.28019C228.996 3.13118 229.116 3.01025 229.264 3.01025H230.936C231.083 3.01025 231.203 3.13118 231.203 3.28019C231.203 3.42919 231.083 3.55012 230.936 3.55012Z" fill="#5800B5"/>
<path d="M230.138 5.67898C230.069 5.67898 230.001 5.65252 229.948 5.60016C229.844 5.49488 229.844 5.32374 229.948 5.21847L231.13 4.02537C231.235 3.92009 231.404 3.92009 231.509 4.02537C231.613 4.13064 231.613 4.30178 231.509 4.40705L230.326 5.60016C230.275 5.65252 230.206 5.67898 230.138 5.67898Z" fill="#5800B5"/>
<path d="M233.173 2.61484C233.104 2.61484 233.036 2.58838 232.983 2.53602C232.879 2.43074 232.879 2.2596 232.983 2.15433L234.166 0.961219C234.27 0.855945 234.439 0.855945 234.544 0.961219C234.648 1.06649 234.648 1.23763 234.544 1.34291L233.362 2.53602C233.309 2.58892 233.241 2.61484 233.173 2.61484Z" fill="#5800B5"/>
<path d="M231.32 2.61484C231.251 2.61484 231.183 2.58838 231.13 2.53602L229.948 1.34291C229.844 1.23763 229.844 1.06649 229.948 0.961219C230.053 0.855945 230.222 0.855945 230.326 0.961219L231.509 2.15433C231.613 2.2596 231.613 2.43074 231.509 2.53602C231.457 2.58892 231.388 2.61484 231.32 2.61484Z" fill="#5800B5"/>
<path d="M234.355 5.67892C234.286 5.67892 234.218 5.65246 234.166 5.6001L232.983 4.40699C232.879 4.30172 232.879 4.13058 232.983 4.02531C233.088 3.92003 233.257 3.92003 233.362 4.02531L234.544 5.21841C234.648 5.32368 234.648 5.49482 234.544 5.6001C234.491 5.65246 234.423 5.67892 234.355 5.67892Z" fill="#5800B5"/>
<path d="M111.643 200.319C111.496 200.319 111.376 200.198 111.376 200.049V198.127C111.376 197.978 111.496 197.858 111.643 197.858C111.791 197.858 111.911 197.978 111.911 198.127V200.049C111.911 200.199 111.791 200.319 111.643 200.319Z" fill="#5800B5"/>
<path d="M111.643 205.254C111.496 205.254 111.376 205.133 111.376 204.984V203.062C111.376 202.913 111.496 202.793 111.643 202.793C111.791 202.793 111.911 202.913 111.911 203.062V204.984C111.911 205.133 111.791 205.254 111.643 205.254Z" fill="#5800B5"/>
<path d="M110.151 201.826H108.247C108.099 201.826 107.979 201.705 107.979 201.556C107.979 201.407 108.099 201.286 108.247 201.286H110.151C110.298 201.286 110.418 201.407 110.418 201.556C110.418 201.705 110.298 201.826 110.151 201.826Z" fill="#5800B5"/>
<path d="M115.039 201.826H113.136C112.988 201.826 112.868 201.705 112.868 201.556C112.868 201.407 112.988 201.286 113.136 201.286H115.039C115.187 201.286 115.307 201.407 115.307 201.556C115.307 201.705 115.187 201.826 115.039 201.826Z" fill="#5800B5"/>
<path d="M114.044 204.251C113.976 204.251 113.908 204.224 113.855 204.172L112.509 202.813C112.405 202.707 112.405 202.536 112.509 202.431C112.613 202.326 112.783 202.326 112.887 202.431L114.233 203.79C114.338 203.896 114.338 204.067 114.233 204.172C114.181 204.224 114.113 204.251 114.044 204.251Z" fill="#5800B5"/>
<path d="M110.587 200.761C110.519 200.761 110.451 200.735 110.398 200.682L109.052 199.323C108.948 199.218 108.948 199.047 109.052 198.942C109.156 198.836 109.326 198.836 109.43 198.942L110.776 200.301C110.881 200.406 110.881 200.577 110.776 200.682C110.724 200.735 110.656 200.761 110.587 200.761Z" fill="#5800B5"/>
<path d="M112.698 200.761C112.63 200.761 112.561 200.735 112.509 200.682C112.405 200.577 112.405 200.406 112.509 200.301L113.855 198.942C113.959 198.836 114.129 198.836 114.233 198.942C114.338 199.047 114.338 199.218 114.233 199.323L112.887 200.682C112.835 200.735 112.767 200.761 112.698 200.761Z" fill="#5800B5"/>
<path d="M109.241 204.251C109.173 204.251 109.104 204.224 109.052 204.172C108.948 204.067 108.948 203.896 109.052 203.79L110.398 202.431C110.502 202.326 110.672 202.326 110.776 202.431C110.881 202.536 110.881 202.707 110.776 202.813L109.43 204.172C109.378 204.224 109.309 204.251 109.241 204.251Z" fill="#5800B5"/>
<path d="M122.464 193.772C122.316 193.772 122.196 193.651 122.196 193.502V191.27C122.196 191.121 122.316 191 122.464 191C122.611 191 122.731 191.121 122.731 191.27V193.502C122.731 193.651 122.611 193.772 122.464 193.772Z" fill="#5800B5"/>
<path d="M122.464 199.507C122.316 199.507 122.196 199.386 122.196 199.237V197.004C122.196 196.855 122.316 196.734 122.464 196.734C122.611 196.734 122.731 196.855 122.731 197.004V199.237C122.731 199.386 122.611 199.507 122.464 199.507Z" fill="#5800B5"/>
<path d="M120.73 195.523H118.517C118.37 195.523 118.25 195.402 118.25 195.253C118.25 195.104 118.37 194.983 118.517 194.983H120.73C120.877 194.983 120.997 195.104 120.997 195.253C120.997 195.402 120.877 195.523 120.73 195.523Z" fill="#5800B5"/>
<path d="M126.412 195.523H124.199C124.051 195.523 123.932 195.402 123.932 195.253C123.932 195.104 124.051 194.983 124.199 194.983H126.412C126.559 194.983 126.679 195.104 126.679 195.253C126.679 195.402 126.559 195.523 126.412 195.523Z" fill="#5800B5"/>
<path d="M125.255 198.34C125.186 198.34 125.118 198.313 125.066 198.261L123.501 196.682C123.397 196.576 123.397 196.405 123.501 196.3C123.605 196.195 123.775 196.195 123.879 196.3L125.444 197.879C125.548 197.984 125.548 198.156 125.444 198.261C125.391 198.313 125.323 198.34 125.255 198.34Z" fill="#5800B5"/>
<path d="M121.238 194.285C121.17 194.285 121.101 194.258 121.049 194.206L119.484 192.627C119.38 192.521 119.38 192.35 119.484 192.245C119.589 192.14 119.758 192.14 119.863 192.245L121.427 193.824C121.531 193.929 121.531 194.101 121.427 194.206C121.375 194.258 121.307 194.285 121.238 194.285Z" fill="#5800B5"/>
<path d="M123.69 194.285C123.622 194.285 123.553 194.258 123.501 194.206C123.397 194.101 123.397 193.929 123.501 193.824L125.066 192.245C125.17 192.14 125.339 192.14 125.444 192.245C125.548 192.35 125.548 192.522 125.444 192.627L123.879 194.206C123.827 194.258 123.759 194.285 123.69 194.285Z" fill="#5800B5"/>
<path d="M119.674 198.34C119.605 198.34 119.537 198.313 119.484 198.261C119.38 198.156 119.38 197.984 119.484 197.879L121.049 196.3C121.153 196.195 121.323 196.195 121.427 196.3C121.531 196.405 121.531 196.576 121.427 196.682L119.863 198.261C119.811 198.313 119.742 198.34 119.674 198.34Z" fill="#5800B5"/>
<path d="M18.0465 159.735H17.6778C16.5919 159.735 16.0491 158.41 16.8164 157.636L17.0771 157.372C17.553 156.892 17.553 156.113 17.0771 155.633L16.0938 154.64C15.6179 154.16 14.8468 154.16 14.37 154.64L14.1093 154.904C13.342 155.678 12.0299 155.13 12.0299 154.034V153.662C12.0299 152.982 11.4842 152.431 10.8118 152.431H9.42148C8.7482 152.431 8.20251 152.982 8.20251 153.662V154.034C8.20251 155.13 6.89041 155.678 6.12307 154.904L5.86233 154.64C5.38647 154.16 4.6154 154.16 4.13861 154.64L3.15617 155.633C2.67938 156.113 2.67938 156.892 3.15617 157.372L3.41691 157.636C4.18425 158.41 3.64042 159.735 2.55554 159.735H2.18584C1.51349 159.735 0.967773 160.285 0.967773 160.965V162.367C0.967773 163.047 1.51349 163.598 2.18584 163.598H2.55554C3.64042 163.598 4.18425 164.922 3.41691 165.697L3.15617 165.96C2.67938 166.44 2.67938 167.219 3.15617 167.7L4.13861 168.692C4.6154 169.172 5.38647 169.172 5.86233 168.692L6.12307 168.429C6.89041 167.654 8.20251 168.202 8.20251 169.298V169.671C8.20251 170.35 8.7482 170.901 9.42148 170.901H10.8118C11.4842 170.901 12.0299 170.35 12.0299 169.671V169.298C12.0299 168.202 13.342 167.654 14.1093 168.429L14.37 168.692C14.8468 169.172 15.6179 169.172 16.0938 168.692L17.0771 167.7C17.553 167.219 17.553 166.44 17.0771 165.96L16.8164 165.697C16.0491 164.922 16.5929 163.598 17.6778 163.598H18.0465C18.7198 163.598 19.2655 163.047 19.2655 162.367V160.965C19.2646 160.285 18.7198 159.735 18.0465 159.735ZM10.1162 164.955C8.31611 164.955 6.85781 163.483 6.85781 161.666C6.85781 159.849 8.31611 158.377 10.1162 158.377C11.9162 158.377 13.3755 159.849 13.3755 161.666C13.3755 163.483 11.9162 164.955 10.1162 164.955Z" fill="#642CFF"/>
<path d="M41.2191 108.857C40.5139 108.335 39.8633 107.867 39.2296 107.381C36.7134 105.45 34.4715 103.273 32.5392 100.816C31.8402 99.9268 31.1959 99.002 30.6026 98.0475C29.7047 96.603 29.0403 95.046 28.494 93.4373C28.2416 92.6938 27.9487 91.9645 27.6977 91.2198C26.9723 89.0697 26.8521 86.8257 27.0579 84.529C27.3187 81.6177 28.2742 78.8732 29.9022 76.2853C29.9372 76.2298 29.9701 76.1724 30.0074 76.1178C30.2291 75.7916 30.2501 75.7842 30.6195 75.8765C32.1467 76.2579 33.7074 76.5164 35.3032 76.6272C38.273 76.8335 41.2283 76.5605 44.1505 75.6565C45.6967 75.1782 47.1256 74.4735 48.3653 73.4255C49.2726 72.6583 49.9971 71.7724 50.4509 70.7228C51.0441 69.349 51.0794 68.0203 50.243 66.8197C49.6094 65.9105 48.66 65.3777 47.5397 65.0768C45.8259 64.616 44.061 64.6688 42.2747 65.0295C40.3641 65.4152 38.5581 66.0977 36.8263 67.0254C33.9709 68.5548 31.6463 70.6195 29.7065 73.0939C29.3612 73.5346 29.3558 73.5568 28.8298 73.4279C27.3365 73.0615 25.8448 72.6896 24.3609 72.2964C21.7231 71.5978 19.1394 70.7714 16.6135 69.8162C16.0393 69.5989 15.4768 69.3587 14.9073 69.1319C14.7655 69.0753 14.6346 68.9842 14.4009 68.9886C14.5456 69.1827 14.7117 69.2758 14.8656 69.374C17.7199 71.1932 20.7291 72.7647 24.0122 73.8936C25.1919 74.2994 26.3875 74.6723 27.5788 75.0535C28.1821 75.2465 28.1875 75.2437 27.8521 75.7891C25.8901 78.9817 24.951 82.3669 24.8133 85.9183C24.712 88.5295 25.1585 91.0085 26.1431 93.3665C26.8618 95.0893 27.77 96.7112 28.8314 98.257C31.195 101.7 34.3032 104.458 37.777 106.886C38.7463 107.563 39.6937 108.272 40.8064 108.76C40.9054 108.804 40.9899 108.886 41.2191 108.857ZM37.6452 68.7489C38.3268 68.353 39.3415 67.908 40.3882 67.5415C42.1287 66.9322 43.8964 66.5803 45.7065 66.7568C46.4223 66.8264 47.1058 66.9896 47.7075 67.3396C48.6265 67.8742 48.9328 68.6733 48.6234 69.6962C48.3733 70.5228 47.8537 71.2033 47.1942 71.8046C46.3179 72.6038 45.2895 73.1613 44.1722 73.5654C42.1621 74.2925 40.0923 74.6022 38.0029 74.7048C35.927 74.8072 33.9018 74.5969 31.92 74.1697C31.4944 74.078 31.4893 74.0472 31.7697 73.6829C31.7793 73.6696 31.7906 73.6574 31.8015 73.6441C33.3642 71.762 35.1841 70.1479 37.6452 68.7489Z" fill="#C8BCEA"/>
<path d="M16.873 77.2349L19.5874 69.5998L19.6222 69.5023L19.6936 69.4256L25.7702 62.8675L1.27671 61.3853L16.873 77.2349Z" fill="white" stroke="#652AC1"/>
<path d="M19.7015 70.8323L23.3342 71.2081L20.9794 68.9042L6.22752 63.584L19.7015 70.8323Z" fill="#CECEF4" stroke="#652AC1"/>
<defs>
<linearGradient id="paint0_linear_71_252" x1="178.8" y1="52.693" x2="196.461" y2="52.693" gradientUnits="userSpaceOnUse">
<stop stop-color="#8858FB"/>
<stop offset="1" stop-color="#DF5656"/>
</linearGradient>
<linearGradient id="paint1_linear_71_252" x1="177.277" y1="48.2778" x2="185.287" y2="48.2778" gradientUnits="userSpaceOnUse">
<stop stop-color="#8858FB"/>
<stop offset="1" stop-color="#DF5656"/>
</linearGradient>
<linearGradient id="paint2_linear_71_252" x1="177.093" y1="43.7467" x2="178.734" y2="43.7467" gradientUnits="userSpaceOnUse">
<stop stop-color="#8858FB"/>
<stop offset="1" stop-color="#DF5656"/>
</linearGradient>
<linearGradient id="paint3_linear_71_252" x1="185.018" y1="43.725" x2="186.82" y2="43.725" gradientUnits="userSpaceOnUse">
<stop stop-color="#8858FB"/>
<stop offset="1" stop-color="#DF5656"/>
</linearGradient>
<linearGradient id="paint4_linear_71_252" x1="175.974" y1="52.8535" x2="177.777" y2="52.8535" gradientUnits="userSpaceOnUse">
<stop stop-color="#8858FB"/>
<stop offset="1" stop-color="#DF5656"/>
</linearGradient>
<linearGradient id="paint5_linear_71_252" x1="-nan" y1="-nan" x2="-nan" y2="-nan" gradientUnits="userSpaceOnUse">
<stop stop-color="#8858FB"/>
<stop offset="1" stop-color="#DF5656"/>
</linearGradient>
<linearGradient id="paint6_linear_71_252" x1="-nan" y1="-nan" x2="-nan" y2="-nan" gradientUnits="userSpaceOnUse">
<stop stop-color="#8858FB"/>
<stop offset="1" stop-color="#DF5656"/>
</linearGradient>
<linearGradient id="paint7_linear_71_252" x1="118.715" y1="51.1343" x2="135.312" y2="51.1343" gradientUnits="userSpaceOnUse">
<stop stop-color="#8858FB"/>
<stop offset="1" stop-color="#DF5656"/>
</linearGradient>
<linearGradient id="paint8_linear_71_252" x1="62.0079" y1="55.0683" x2="76.0038" y2="55.0683" gradientUnits="userSpaceOnUse">
<stop stop-color="#8858FB"/>
<stop offset="1" stop-color="#DF5656"/>
</linearGradient>
<linearGradient id="paint9_linear_71_252" x1="63.6158" y1="44.9923" x2="74.3973" y2="44.9923" gradientUnits="userSpaceOnUse">
<stop stop-color="#8858FB"/>
<stop offset="1" stop-color="#DF5656"/>
</linearGradient>
<linearGradient id="paint10_linear_71_252" x1="74.2262" y1="232.224" x2="82.2966" y2="232.224" gradientUnits="userSpaceOnUse">
<stop stop-color="#8858FB"/>
<stop offset="1" stop-color="#DF5656"/>
</linearGradient>
<linearGradient id="paint11_linear_71_252" x1="73.5302" y1="230.206" x2="77.1904" y2="230.206" gradientUnits="userSpaceOnUse">
<stop stop-color="#8858FB"/>
<stop offset="1" stop-color="#DF5656"/>
</linearGradient>
<linearGradient id="paint12_linear_71_252" x1="73.4461" y1="228.135" x2="74.1956" y2="228.135" gradientUnits="userSpaceOnUse">
<stop stop-color="#8858FB"/>
<stop offset="1" stop-color="#DF5656"/>
</linearGradient>
<linearGradient id="paint13_linear_71_252" x1="77.068" y1="228.125" x2="77.8917" y2="228.125" gradientUnits="userSpaceOnUse">
<stop stop-color="#8858FB"/>
<stop offset="1" stop-color="#DF5656"/>
</linearGradient>
<linearGradient id="paint14_linear_71_252" x1="72.9343" y1="232.297" x2="73.7582" y2="232.297" gradientUnits="userSpaceOnUse">
<stop stop-color="#8858FB"/>
<stop offset="1" stop-color="#DF5656"/>
</linearGradient>
<linearGradient id="paint15_linear_71_252" x1="-nan" y1="-nan" x2="-nan" y2="-nan" gradientUnits="userSpaceOnUse">
<stop stop-color="#8858FB"/>
<stop offset="1" stop-color="#DF5656"/>
</linearGradient>
<linearGradient id="paint16_linear_71_252" x1="-nan" y1="-nan" x2="-nan" y2="-nan" gradientUnits="userSpaceOnUse">
<stop stop-color="#8858FB"/>
<stop offset="1" stop-color="#DF5656"/>
</linearGradient>
<linearGradient id="paint17_linear_71_252" x1="45.8639" y1="231.675" x2="53.0821" y2="231.675" gradientUnits="userSpaceOnUse">
<stop stop-color="#8858FB"/>
<stop offset="1" stop-color="#DF5656"/>
</linearGradient>
<linearGradient id="paint18_linear_71_252" x1="19.8555" y1="233.309" x2="26.2513" y2="233.309" gradientUnits="userSpaceOnUse">
<stop stop-color="#8858FB"/>
<stop offset="1" stop-color="#DF5656"/>
</linearGradient>
<linearGradient id="paint19_linear_71_252" x1="20.5891" y1="228.705" x2="25.516" y2="228.705" gradientUnits="userSpaceOnUse">
<stop stop-color="#8858FB"/>
<stop offset="1" stop-color="#DF5656"/>
</linearGradient>
<linearGradient id="paint20_linear_71_252" x1="229.247" y1="232.224" x2="237.317" y2="232.224" gradientUnits="userSpaceOnUse">
<stop stop-color="#8858FB"/>
<stop offset="1" stop-color="#DF5656"/>
</linearGradient>
<linearGradient id="paint21_linear_71_252" x1="228.55" y1="230.206" x2="232.21" y2="230.206" gradientUnits="userSpaceOnUse">
<stop stop-color="#8858FB"/>
<stop offset="1" stop-color="#DF5656"/>
</linearGradient>
<linearGradient id="paint22_linear_71_252" x1="228.467" y1="228.135" x2="229.216" y2="228.135" gradientUnits="userSpaceOnUse">
<stop stop-color="#8858FB"/>
<stop offset="1" stop-color="#DF5656"/>
</linearGradient>
<linearGradient id="paint23_linear_71_252" x1="232.088" y1="228.125" x2="232.911" y2="228.125" gradientUnits="userSpaceOnUse">
<stop stop-color="#8858FB"/>
<stop offset="1" stop-color="#DF5656"/>
</linearGradient>
<linearGradient id="paint24_linear_71_252" x1="227.955" y1="232.297" x2="228.779" y2="232.297" gradientUnits="userSpaceOnUse">
<stop stop-color="#8858FB"/>
<stop offset="1" stop-color="#DF5656"/>
</linearGradient>
<linearGradient id="paint25_linear_71_252" x1="-nan" y1="-nan" x2="-nan" y2="-nan" gradientUnits="userSpaceOnUse">
<stop stop-color="#8858FB"/>
<stop offset="1" stop-color="#DF5656"/>
</linearGradient>
<linearGradient id="paint26_linear_71_252" x1="-nan" y1="-nan" x2="-nan" y2="-nan" gradientUnits="userSpaceOnUse">
<stop stop-color="#8858FB"/>
<stop offset="1" stop-color="#DF5656"/>
</linearGradient>
<linearGradient id="paint27_linear_71_252" x1="200.884" y1="231.675" x2="208.103" y2="231.675" gradientUnits="userSpaceOnUse">
<stop stop-color="#8858FB"/>
<stop offset="1" stop-color="#DF5656"/>
</linearGradient>
<linearGradient id="paint28_linear_71_252" x1="192.206" y1="43.5544" x2="259.832" y2="55.1265" gradientUnits="userSpaceOnUse">
<stop stop-color="#FEFEFE"/>
<stop offset="0.5063" stop-color="#B3A3FD"/>
<stop offset="1" stop-color="#6D4FFC"/>
</linearGradient>
</defs>
</svg>
