<svg width="296" height="275" viewBox="0 0 296 275" fill="none" xmlns="http://www.w3.org/2000/svg">
<path d="M257.152 183H71.3559C68.9496 183 66.999 180.749 66.999 177.972V5.22656C66.999 2.34024 69.0269 0 71.5284 0H256.98C259.482 0 261.509 2.3397 261.509 5.22656V177.972C261.508 180.749 259.558 183 257.152 183Z" fill="#652EFF"/>
<path d="M72.2845 182C69.9216 182 67.999 179.818 67.999 177.136V5.86367C67.999 3.18192 69.9216 1 72.2845 1H78.6445V3.10216C78.6445 4.04007 79.3166 4.80276 80.143 4.80276H248.855C249.681 4.80276 250.354 4.04007 250.354 3.10216V1H256.714C259.076 1 260.999 3.18192 260.999 5.86367V177.136C260.999 179.818 259.076 182 256.714 182H72.2845Z" fill="white"/>
<path d="M247.479 138.92H79.519C78.6796 138.92 77.999 139.601 77.999 140.44C77.999 141.279 78.6796 141.96 79.519 141.96H247.479C248.318 141.96 248.999 141.279 248.999 140.44C248.999 139.601 248.318 138.92 247.479 138.92Z" fill="#B39BF9" fill-opacity="0.5"/>
<path d="M247.479 134.36H79.519C78.6796 134.36 77.999 135.041 77.999 135.88C77.999 136.719 78.6796 137.4 79.519 137.4H247.479C248.318 137.4 248.999 136.719 248.999 135.88C248.999 135.041 248.318 134.36 247.479 134.36Z" fill="#B39BF9" fill-opacity="0.5"/>
<path d="M247.479 129.8H79.519C78.6796 129.8 77.999 130.481 77.999 131.32C77.999 132.159 78.6796 132.84 79.519 132.84H247.479C248.318 132.84 248.999 132.159 248.999 131.32C248.999 130.481 248.318 129.8 247.479 129.8Z" fill="#B39BF9" fill-opacity="0.5"/>
<path d="M247.479 125.24H79.519C78.6796 125.24 77.999 125.921 77.999 126.76C77.999 127.599 78.6796 128.28 79.519 128.28H247.479C248.318 128.28 248.999 127.599 248.999 126.76C248.999 125.921 248.318 125.24 247.479 125.24Z" fill="#B39BF9" fill-opacity="0.5"/>
<path d="M247.479 120.68H79.519C78.6796 120.68 77.999 121.361 77.999 122.2C77.999 123.039 78.6796 123.72 79.519 123.72H247.479C248.318 123.72 248.999 123.039 248.999 122.2C248.999 121.361 248.318 120.68 247.479 120.68Z" fill="#B39BF9" fill-opacity="0.5"/>
<path d="M247.479 116.12H79.519C78.6796 116.12 77.999 116.801 77.999 117.64C77.999 118.479 78.6796 119.16 79.519 119.16H247.479C248.318 119.16 248.999 118.479 248.999 117.64C248.999 116.801 248.318 116.12 247.479 116.12Z" fill="#B39BF9" fill-opacity="0.5"/>
<path d="M247.479 111.56H79.519C78.6796 111.56 77.999 112.241 77.999 113.08C77.999 113.919 78.6796 114.6 79.519 114.6H247.479C248.318 114.6 248.999 113.919 248.999 113.08C248.999 112.241 248.318 111.56 247.479 111.56Z" fill="#B39BF9" fill-opacity="0.5"/>
<path d="M247.479 107H79.519C78.6796 107 77.999 107.681 77.999 108.52C77.999 109.359 78.6796 110.04 79.519 110.04H247.479C248.318 110.04 248.999 109.359 248.999 108.52C248.999 107.681 248.318 107 247.479 107Z" fill="#B39BF9" fill-opacity="0.5"/>
<path d="M166.456 143.48H78.759C78.3393 143.48 77.999 143.82 77.999 144.24C77.999 144.66 78.3393 145 78.759 145H166.456C166.876 145 167.216 144.66 167.216 144.24C167.216 143.82 166.876 143.48 166.456 143.48Z" fill="#B39BF9" fill-opacity="0.5"/>
<path d="M228 49.4029C227.869 49.4029 227.74 49.411 227.612 49.4226C227.07 47.6707 225.437 46.3975 223.507 46.3975C221.169 46.3975 219.271 48.2659 219.215 50.5907C218.098 50.4185 216.915 50.7595 216.055 51.6205C214.62 53.0558 214.62 55.3833 216.055 56.8186C216.81 57.5738 217.813 58.0375 218.802 57.9975H228C230.374 57.9975 232.298 56.0741 232.298 53.7006C232.298 51.327 230.374 49.4029 228 49.4029Z" stroke="url(#paint0_linear_58_4)" stroke-miterlimit="10" stroke-linecap="round" stroke-linejoin="round"/>
<path d="M214.571 51.6592C213.876 50.847 213.455 49.7921 213.455 48.6382C213.455 46.0707 215.536 43.99 218.103 43.99C219.256 43.99 220.312 44.4103 221.124 45.1052" stroke="url(#paint1_linear_58_4)" stroke-miterlimit="10" stroke-linecap="round" stroke-linejoin="round"/>
<path d="M214.573 44.0151L213.271 42.6564" stroke="url(#paint2_linear_58_4)" stroke-miterlimit="10" stroke-linecap="round" stroke-linejoin="round"/>
<path d="M221.195 43.99L222.658 42.6388" stroke="url(#paint3_linear_58_4)" stroke-miterlimit="10" stroke-linecap="round" stroke-linejoin="round"/>
<path d="M212.152 53.0328L213.616 51.6816" stroke="url(#paint4_linear_58_4)" stroke-miterlimit="10" stroke-linecap="round" stroke-linejoin="round"/>
<path d="M218.018 42.8924V41.1622" stroke="url(#paint5_linear_58_4)" stroke-miterlimit="10" stroke-linecap="round" stroke-linejoin="round"/>
<path d="M212.729 47.8247H210.999" stroke="url(#paint6_linear_58_4)" stroke-miterlimit="10" stroke-linecap="round" stroke-linejoin="round"/>
<path d="M163.03 43L165.517 48.039L171.078 48.847L167.054 52.77L168.003 58.308L163.03 55.693L158.056 58.308L159.006 52.77L154.982 48.847L160.543 48.039L163.03 43Z" stroke="url(#paint7_linear_58_4)" stroke-miterlimit="10" stroke-linecap="round" stroke-linejoin="round"/>
<path d="M109.937 48.245H100.12C99.1092 48.245 98.2822 49.073 98.2822 50.083V59.019C98.2822 60.03 99.1092 60.857 100.12 60.857H109.937C110.949 60.857 111.776 60.029 111.776 59.019V50.084C111.776 49.073 110.949 48.245 109.937 48.245ZM105.962 57.445H104.066L104.424 54.114C104.01 53.894 103.723 53.463 103.723 52.964C103.723 52.245 104.311 51.657 105.03 51.657C105.748 51.657 106.336 52.245 106.336 52.964C106.336 53.475 106.036 53.915 105.607 54.13L105.962 57.445Z" stroke="url(#paint8_linear_58_4)" stroke-miterlimit="10" stroke-linecap="round" stroke-linejoin="round"/>
<path d="M110.17 47.14H109.208C109.208 44.836 107.334 42.962 105.03 42.962C102.726 42.962 100.852 44.836 100.852 47.14H99.8887C99.8887 44.306 102.195 42 105.03 42C107.864 42 110.17 44.305 110.17 47.14Z" stroke="url(#paint9_linear_58_4)" stroke-miterlimit="10" stroke-linecap="round" stroke-linejoin="round"/>
<path d="M256.059 11.1624H255.897C255.422 11.1624 255.185 10.5888 255.52 10.2529L255.635 10.1393C255.843 9.93154 255.843 9.59463 255.635 9.38587L255.205 8.95699C254.997 8.74823 254.659 8.74823 254.452 8.95699L254.338 9.07067C254.003 9.40551 253.429 9.16885 253.429 8.6945V8.53327C253.429 8.23874 253.191 8 252.896 8H252.288C251.994 8 251.755 8.2377 251.755 8.53327V8.6945C251.755 9.16885 251.181 9.40551 250.845 9.07067L250.732 8.95699C250.524 8.74823 250.187 8.74823 249.978 8.95699L249.549 9.38587C249.341 9.59463 249.341 9.93154 249.549 10.1393L249.662 10.2529C249.997 10.5888 249.76 11.1624 249.286 11.1624H249.125C248.83 11.1624 248.592 11.4011 248.592 11.6956V12.3033C248.592 12.5978 248.829 12.8366 249.125 12.8366H249.286C249.76 12.8366 249.997 13.4112 249.662 13.746L249.549 13.8597C249.341 14.0674 249.341 14.4054 249.549 14.6131L249.978 15.043C250.186 15.2507 250.523 15.2507 250.732 15.043L250.845 14.9283C251.181 14.5935 251.755 14.8301 251.755 15.3055V15.4667C251.755 15.7602 251.993 16 252.288 16H252.896C253.19 16 253.429 15.7613 253.429 15.4667V15.3055C253.429 14.8301 254.003 14.5935 254.338 14.9283L254.452 15.043C254.659 15.2507 254.997 15.2507 255.205 15.043L255.635 14.6131C255.843 14.4054 255.843 14.0674 255.635 13.8597L255.52 13.746C255.185 13.4112 255.423 12.8366 255.897 12.8366H256.059C256.352 12.8366 256.592 12.5989 256.592 12.3033V11.6956C256.592 11.4011 256.353 11.1624 256.059 11.1624ZM252.592 13.4236C251.804 13.4236 251.167 12.7859 251.167 11.9984C251.167 11.211 251.804 10.5733 252.592 10.5733C253.379 10.5733 254.017 11.211 254.017 11.9984C254.017 12.7859 253.379 13.4236 252.592 13.4236Z" fill="#8041FF"/>
<path d="M78.457 9H71.457V10H78.457V9Z" fill="#8041FF"/>
<path d="M78.457 11H71.457V12H78.457V11Z" fill="#8041FF"/>
<path d="M78.457 13H71.457V14H78.457V13Z" fill="#8041FF"/>
<path d="M277.666 199.334V141.576C277.666 133.71 270.95 127.334 262.666 127.334" stroke="#4E1ED3" stroke-miterlimit="10" stroke-linecap="round" stroke-linejoin="round" stroke-dasharray="2 2"/>
<path d="M50.999 199V128.242C50.999 120.376 57.715 114 65.999 114" stroke="#4E1ED3" stroke-miterlimit="10" stroke-linecap="round" stroke-linejoin="round" stroke-dasharray="2 2"/>
<path d="M199.333 183V193.072C199.333 200.746 193.662 206.967 186.666 206.967C179.67 206.967 173.999 205.189 173.999 212.864V237" stroke="#4E1ED3" stroke-miterlimit="10" stroke-linecap="round" stroke-linejoin="round" stroke-dasharray="2 2"/>
<rect x="78.249" y="19.25" width="52.5" height="59.5" rx="4.75" fill="white" stroke="#652EFF" stroke-width="0.5"/>
<rect x="138.249" y="19.25" width="51.5" height="59.5" rx="4.75" fill="white" stroke="#652EFF" stroke-width="0.5"/>
<rect x="197.249" y="19.25" width="52.5" height="59.5" rx="4.75" fill="white" stroke="#652EFF" stroke-width="0.5"/>
<rect x="78.249" y="85.25" width="25.5" height="16.5" rx="4.75" fill="white" stroke="#652EFF" stroke-width="0.5"/>
<rect x="107.249" y="85.25" width="25.5" height="16.5" rx="4.75" fill="white" stroke="#652EFF" stroke-width="0.5"/>
<rect x="136.249" y="85.25" width="25.5" height="16.5" rx="4.75" fill="white" stroke="#652EFF" stroke-width="0.5"/>
<rect x="166.249" y="85.25" width="25.5" height="16.5" rx="4.75" fill="white" stroke="#652EFF" stroke-width="0.5"/>
<rect x="195.249" y="85.25" width="25.5" height="16.5" rx="4.75" fill="white" stroke="#652EFF" stroke-width="0.5"/>
<rect x="224.249" y="85.25" width="25.5" height="16.5" rx="4.75" fill="white" stroke="#652EFF" stroke-width="0.5"/>
<rect x="78.249" y="151.25" width="25.5" height="6.5" rx="3.25" fill="white" stroke="#652EFF" stroke-width="0.5"/>
<rect x="107.249" y="151.25" width="25.5" height="6.5" rx="3.25" fill="white" stroke="#652EFF" stroke-width="0.5"/>
<rect x="136.249" y="151.25" width="25.5" height="6.5" rx="3.25" fill="white" stroke="#652EFF" stroke-width="0.5"/>
<rect x="166.249" y="151.25" width="25.5" height="6.5" rx="3.25" fill="white" stroke="#652EFF" stroke-width="0.5"/>
<rect x="195.249" y="151.25" width="25.5" height="6.5" rx="3.25" fill="white" stroke="#652EFF" stroke-width="0.5"/>
<rect x="224.249" y="151.25" width="25.5" height="6.5" rx="3.25" fill="white" stroke="#652EFF" stroke-width="0.5"/>
<rect x="78.249" y="162.25" width="25.5" height="6.5" rx="3.25" fill="white" stroke="#652EFF" stroke-width="0.5"/>
<rect x="107.249" y="162.25" width="25.5" height="6.5" rx="3.25" fill="white" stroke="#652EFF" stroke-width="0.5"/>
<rect x="136.249" y="162.25" width="25.5" height="6.5" rx="3.25" fill="white" stroke="#652EFF" stroke-width="0.5"/>
<rect x="166.249" y="162.25" width="25.5" height="6.5" rx="3.25" fill="white" stroke="#652EFF" stroke-width="0.5"/>
<rect x="195.249" y="162.25" width="25.5" height="6.5" rx="3.25" fill="white" stroke="#652EFF" stroke-width="0.5"/>
<rect x="224.249" y="162.25" width="25.5" height="6.5" rx="3.25" fill="white" stroke="#652EFF" stroke-width="0.5"/>
<path d="M136.717 268.371H45.6795C43.6468 268.371 41.999 266.831 41.999 264.931V203.208C41.999 201.234 43.7121 199.633 45.8253 199.633H136.572C138.685 199.633 140.398 201.233 140.398 203.208V264.931C140.397 266.831 138.75 268.371 136.717 268.371Z" fill="#652EFF"/>
<path d="M46.0732 268.176C44.0744 268.176 42.4482 266.68 42.4482 264.842V203.206C42.4482 201.368 44.0744 199.872 46.0732 199.872H51.4529V201.313C51.4529 201.956 52.0213 202.479 52.7204 202.479H129.514C130.213 202.479 130.782 201.956 130.782 201.313V199.872H136.161C138.16 199.872 139.786 201.368 139.786 203.206V264.842C139.786 266.68 138.16 268.176 136.161 268.176H46.0732Z" fill="white"/>
<path d="M129.999 261H51.999C51.4467 261 50.999 261.448 50.999 262C50.999 262.552 51.4467 263 51.999 263H129.999C130.551 263 130.999 262.552 130.999 262C130.999 261.448 130.551 261 129.999 261Z" fill="#B39BF9" fill-opacity="0.5"/>
<path d="M129.999 258H51.999C51.4467 258 50.999 258.448 50.999 259C50.999 259.552 51.4467 260 51.999 260H129.999C130.551 260 130.999 259.552 130.999 259C130.999 258.448 130.551 258 129.999 258Z" fill="#B39BF9" fill-opacity="0.5"/>
<path d="M129.999 255H51.999C51.4467 255 50.999 255.448 50.999 256C50.999 256.552 51.4467 257 51.999 257H129.999C130.551 257 130.999 256.552 130.999 256C130.999 255.448 130.551 255 129.999 255Z" fill="#B39BF9" fill-opacity="0.5"/>
<path d="M129.999 251H51.999C51.4467 251 50.999 251.448 50.999 252C50.999 252.552 51.4467 253 51.999 253H129.999C130.551 253 130.999 252.552 130.999 252C130.999 251.448 130.551 251 129.999 251Z" fill="#B39BF9" fill-opacity="0.5"/>
<path d="M129.999 247H51.999C51.4467 247 50.999 247.448 50.999 248C50.999 248.552 51.4467 249 51.999 249H129.999C130.551 249 130.999 248.552 130.999 248C130.999 247.448 130.551 247 129.999 247Z" fill="#B39BF9" fill-opacity="0.5"/>
<path d="M92.2382 264H51.499C51.2229 264 50.999 264.224 50.999 264.5C50.999 264.776 51.2229 265 51.499 265H92.2382C92.5143 265 92.7382 264.776 92.7382 264.5C92.7382 264.224 92.5143 264 92.2382 264Z" fill="#B39BF9" fill-opacity="0.5"/>
<path d="M135.471 206.14H135.404C135.208 206.14 135.111 205.918 135.249 205.789L135.296 205.745C135.382 205.665 135.382 205.535 135.296 205.455L135.119 205.289C135.033 205.209 134.894 205.209 134.809 205.289L134.762 205.333C134.624 205.462 134.387 205.371 134.387 205.188V205.126C134.387 205.012 134.289 204.92 134.168 204.92H133.917C133.796 204.92 133.698 205.012 133.698 205.126V205.188C133.698 205.371 133.461 205.462 133.323 205.333L133.276 205.289C133.191 205.209 133.052 205.209 132.966 205.289L132.789 205.455C132.703 205.535 132.703 205.665 132.789 205.745L132.836 205.789C132.973 205.918 132.876 206.14 132.681 206.14H132.614C132.493 206.14 132.395 206.232 132.395 206.345V206.579C132.395 206.693 132.492 206.785 132.614 206.785H132.681C132.876 206.785 132.973 207.007 132.836 207.136L132.789 207.18C132.703 207.26 132.703 207.39 132.789 207.47L132.966 207.636C133.051 207.716 133.19 207.716 133.276 207.636L133.323 207.592C133.461 207.462 133.698 207.554 133.698 207.737V207.799C133.698 207.912 133.796 208.005 133.917 208.005H134.168C134.289 208.005 134.387 207.913 134.387 207.799V207.737C134.387 207.554 134.624 207.462 134.762 207.592L134.809 207.636C134.894 207.716 135.033 207.716 135.119 207.636L135.296 207.47C135.382 207.39 135.382 207.26 135.296 207.18L135.249 207.136C135.111 207.007 135.209 206.785 135.404 206.785H135.471C135.591 206.785 135.69 206.693 135.69 206.579V206.345C135.69 206.232 135.592 206.14 135.471 206.14ZM134.042 207.011C133.718 207.011 133.455 206.766 133.455 206.462C133.455 206.158 133.718 205.912 134.042 205.912C134.367 205.912 134.629 206.158 134.629 206.462C134.629 206.766 134.367 207.011 134.042 207.011Z" fill="#8041FF"/>
<path d="M50.4735 204.92H46.707V205.361H50.4735V204.92Z" fill="#8041FF"/>
<path d="M50.4735 205.802H46.707V206.683H50.4735V205.802Z" fill="#8041FF"/>
<path d="M50.4735 207.124H46.707V207.564H50.4735V207.124Z" fill="#8041FF"/>
<path d="M121.277 219.766C121.217 219.766 121.158 219.77 121.099 219.775C120.852 218.974 120.106 218.392 119.223 218.392C118.155 218.392 117.288 219.246 117.262 220.309C116.752 220.23 116.211 220.386 115.818 220.779C115.162 221.435 115.162 222.499 115.818 223.155C116.163 223.5 116.621 223.712 117.073 223.693H121.277C122.361 223.693 123.241 222.814 123.241 221.73C123.241 220.645 122.361 219.766 121.277 219.766Z" stroke="url(#paint10_linear_58_4)" stroke-miterlimit="10" stroke-linecap="round" stroke-linejoin="round"/>
<path d="M115.14 220.797C114.822 220.426 114.63 219.944 114.63 219.416C114.63 218.243 115.581 217.292 116.754 217.292C117.281 217.292 117.763 217.484 118.135 217.802" stroke="url(#paint11_linear_58_4)" stroke-miterlimit="10" stroke-linecap="round" stroke-linejoin="round"/>
<path d="M115.14 217.304L114.546 216.683" stroke="url(#paint12_linear_58_4)" stroke-miterlimit="10" stroke-linecap="round" stroke-linejoin="round"/>
<path d="M118.167 217.292L118.836 216.675" stroke="url(#paint13_linear_58_4)" stroke-miterlimit="10" stroke-linecap="round" stroke-linejoin="round"/>
<path d="M114.035 221.425L114.704 220.807" stroke="url(#paint14_linear_58_4)" stroke-miterlimit="10" stroke-linecap="round" stroke-linejoin="round"/>
<path d="M116.715 216.791V216" stroke="url(#paint15_linear_58_4)" stroke-miterlimit="10" stroke-linecap="round" stroke-linejoin="round"/>
<path d="M114.298 219.045H113.508" stroke="url(#paint16_linear_58_4)" stroke-miterlimit="10" stroke-linecap="round" stroke-linejoin="round"/>
<path d="M90.499 217L91.5806 219.304L93.999 219.674L92.249 221.468L92.6617 224L90.499 222.804L88.3359 224L88.749 221.468L86.999 219.674L89.4174 219.304L90.499 217Z" stroke="url(#paint17_linear_58_4)" stroke-miterlimit="10" stroke-linecap="round" stroke-linejoin="round"/>
<path d="M66.3251 219.237H61.8389C61.3769 219.237 60.999 219.615 60.999 220.077V224.16C60.999 224.622 61.3769 225 61.8389 225H66.3251C66.7875 225 67.1654 224.622 67.1654 224.16V220.077C67.1654 219.615 66.7875 219.237 66.3251 219.237ZM64.5086 223.441H63.6422L63.8058 221.919C63.6166 221.818 63.4854 221.621 63.4854 221.393C63.4854 221.065 63.7541 220.796 64.0827 220.796C64.4108 220.796 64.6795 221.065 64.6795 221.393C64.6795 221.627 64.5424 221.828 64.3464 221.926L64.5086 223.441Z" stroke="url(#paint18_linear_58_4)" stroke-miterlimit="10" stroke-linecap="round" stroke-linejoin="round"/>
<path d="M66.4306 218.732H65.991C65.991 217.679 65.1346 216.822 64.0817 216.822C63.0289 216.822 62.1725 217.679 62.1725 218.732H61.7324C61.7324 217.437 62.7862 216.383 64.0817 216.383C65.3768 216.383 66.4306 217.436 66.4306 218.732Z" stroke="url(#paint19_linear_58_4)" stroke-miterlimit="10" stroke-linecap="round" stroke-linejoin="round"/>
<rect x="51.249" y="209.25" width="24.2034" height="23.2712" rx="4.75" fill="white" stroke="#652EFF" stroke-width="0.5"/>
<rect x="79.2148" y="209.25" width="23.7373" height="23.2712" rx="4.75" fill="white" stroke="#652EFF" stroke-width="0.5"/>
<rect x="106.715" y="209.25" width="24.2034" height="23.2712" rx="4.75" fill="white" stroke="#652EFF" stroke-width="0.5"/>
<rect x="51.249" y="237.216" width="11.6186" height="7.42373" rx="1.75" fill="white" stroke="#652EFF" stroke-width="0.5"/>
<rect x="64.7656" y="237.216" width="11.6186" height="7.42373" rx="1.75" fill="white" stroke="#652EFF" stroke-width="0.5"/>
<rect x="78.2832" y="237.216" width="11.6186" height="7.42373" rx="1.75" fill="white" stroke="#652EFF" stroke-width="0.5"/>
<rect x="92.2656" y="237.216" width="11.6186" height="7.42373" rx="1.75" fill="white" stroke="#652EFF" stroke-width="0.5"/>
<rect x="105.783" y="237.216" width="11.6186" height="7.42373" rx="1.75" fill="white" stroke="#652EFF" stroke-width="0.5"/>
<rect x="119.3" y="237.216" width="11.6186" height="7.42373" rx="1.75" fill="white" stroke="#652EFF" stroke-width="0.5"/>
<path d="M287.318 268.842H233.945C231.912 268.842 230.265 267.196 230.265 265.166V199.216C230.265 197.106 231.978 195.396 234.091 195.396H287.173C289.286 195.396 290.999 197.106 290.999 199.216V265.166C290.998 267.196 289.351 268.842 287.318 268.842Z" fill="#652EFF"/>
<path d="M234.339 268.633C232.34 268.633 230.714 267.035 230.714 265.071V199.214C230.714 197.25 232.34 195.651 234.339 195.651H239.719V197.191C239.719 197.878 240.287 198.437 240.986 198.437H280.115C280.814 198.437 281.383 197.878 281.383 197.191V195.651H286.762C288.761 195.651 290.387 197.25 290.387 199.214V265.071C290.387 267.035 288.761 268.633 286.762 268.633H234.339Z" fill="white"/>
<path d="M287.014 204.231H286.947C286.751 204.231 286.654 203.995 286.792 203.857L286.839 203.81C286.925 203.724 286.925 203.585 286.839 203.499L286.662 203.323C286.576 203.237 286.437 203.237 286.352 203.323L286.305 203.37C286.167 203.507 285.93 203.41 285.93 203.215V203.148C285.93 203.027 285.832 202.928 285.71 202.928H285.46C285.339 202.928 285.241 203.026 285.241 203.148V203.215C285.241 203.41 285.004 203.507 284.866 203.37L284.819 203.323C284.734 203.237 284.595 203.237 284.509 203.323L284.332 203.499C284.246 203.585 284.246 203.724 284.332 203.81L284.379 203.857C284.516 203.995 284.419 204.231 284.224 204.231H284.157C284.036 204.231 283.938 204.33 283.938 204.451V204.701C283.938 204.823 284.035 204.921 284.157 204.921H284.224C284.419 204.921 284.516 205.158 284.379 205.296L284.332 205.342C284.246 205.428 284.246 205.567 284.332 205.653L284.509 205.83C284.594 205.915 284.733 205.915 284.819 205.83L284.866 205.783C285.004 205.645 285.241 205.742 285.241 205.938V206.004C285.241 206.125 285.339 206.224 285.46 206.224H285.71C285.832 206.224 285.93 206.126 285.93 206.004V205.938C285.93 205.742 286.167 205.645 286.305 205.783L286.352 205.83C286.437 205.915 286.576 205.915 286.662 205.83L286.839 205.653C286.925 205.567 286.925 205.428 286.839 205.342L286.792 205.296C286.654 205.158 286.752 204.921 286.947 204.921H287.014C287.134 204.921 287.233 204.823 287.233 204.701V204.451C287.233 204.33 287.135 204.231 287.014 204.231ZM285.585 205.163C285.261 205.163 284.998 204.9 284.998 204.576C284.998 204.251 285.261 203.989 285.585 203.989C285.91 203.989 286.172 204.251 286.172 204.576C286.172 204.9 285.91 205.163 285.585 205.163Z" fill="#8041FF"/>
<path d="M238.268 202.928H234.502V203.399H238.268V202.928Z" fill="#8041FF"/>
<path d="M238.268 203.87H234.502V204.812H238.268V203.87Z" fill="#8041FF"/>
<path d="M238.268 205.282H234.502V205.753H238.268V205.282Z" fill="#8041FF"/>
<path d="M276.277 220.766C276.217 220.766 276.158 220.77 276.099 220.775C275.852 219.974 275.106 219.392 274.223 219.392C273.155 219.392 272.288 220.246 272.262 221.309C271.752 221.23 271.211 221.386 270.818 221.779C270.162 222.435 270.162 223.499 270.818 224.155C271.163 224.5 271.621 224.712 272.073 224.693H276.277C277.361 224.693 278.241 223.814 278.241 222.73C278.241 221.645 277.361 220.766 276.277 220.766Z" stroke="url(#paint20_linear_58_4)" stroke-miterlimit="10" stroke-linecap="round" stroke-linejoin="round"/>
<path d="M270.14 221.797C269.822 221.426 269.63 220.944 269.63 220.416C269.63 219.243 270.581 218.292 271.754 218.292C272.281 218.292 272.763 218.484 273.135 218.802" stroke="url(#paint21_linear_58_4)" stroke-miterlimit="10" stroke-linecap="round" stroke-linejoin="round"/>
<path d="M270.14 218.304L269.546 217.683" stroke="url(#paint22_linear_58_4)" stroke-miterlimit="10" stroke-linecap="round" stroke-linejoin="round"/>
<path d="M273.167 218.292L273.836 217.675" stroke="url(#paint23_linear_58_4)" stroke-miterlimit="10" stroke-linecap="round" stroke-linejoin="round"/>
<path d="M269.035 222.425L269.704 221.807" stroke="url(#paint24_linear_58_4)" stroke-miterlimit="10" stroke-linecap="round" stroke-linejoin="round"/>
<path d="M271.715 217.791V217" stroke="url(#paint25_linear_58_4)" stroke-miterlimit="10" stroke-linecap="round" stroke-linejoin="round"/>
<path d="M269.298 220.045H268.508" stroke="url(#paint26_linear_58_4)" stroke-miterlimit="10" stroke-linecap="round" stroke-linejoin="round"/>
<path d="M245.499 218L246.581 220.304L248.999 220.674L247.249 222.468L247.662 225L245.499 223.804L243.336 225L243.749 222.468L241.999 220.674L244.417 220.304L245.499 218Z" stroke="url(#paint27_linear_58_4)" stroke-miterlimit="10" stroke-linecap="round" stroke-linejoin="round"/>
<rect x="234.249" y="210.25" width="24.2034" height="23.2712" rx="4.75" fill="white" stroke="#652EFF" stroke-width="0.5"/>
<rect x="262.215" y="210.25" width="23.7373" height="23.2712" rx="4.75" fill="white" stroke="#652EFF" stroke-width="0.5"/>
<rect x="234.249" y="238.216" width="11.6186" height="7.42373" rx="1.75" fill="white" stroke="#652EFF" stroke-width="0.5"/>
<rect x="247.766" y="238.216" width="11.6186" height="7.42373" rx="1.75" fill="white" stroke="#652EFF" stroke-width="0.5"/>
<rect x="261.283" y="238.216" width="11.6186" height="7.42373" rx="1.75" fill="white" stroke="#652EFF" stroke-width="0.5"/>
<rect x="275.266" y="238.216" width="11.6186" height="7.42373" rx="1.75" fill="white" stroke="#652EFF" stroke-width="0.5"/>
<rect x="234.249" y="248.004" width="11.6186" height="7.42373" rx="1.75" fill="white" stroke="#652EFF" stroke-width="0.5"/>
<rect x="247.766" y="248.004" width="11.6186" height="7.42373" rx="1.75" fill="white" stroke="#652EFF" stroke-width="0.5"/>
<rect x="261.283" y="248.004" width="11.6186" height="7.42373" rx="1.75" fill="white" stroke="#652EFF" stroke-width="0.5"/>
<rect x="275.266" y="248.004" width="11.6186" height="7.42373" rx="1.75" fill="white" stroke="#652EFF" stroke-width="0.5"/>
<rect x="234.249" y="257.326" width="11.6186" height="7.42373" rx="1.75" fill="white" stroke="#652EFF" stroke-width="0.5"/>
<rect x="247.766" y="257.326" width="11.6186" height="7.42373" rx="1.75" fill="white" stroke="#652EFF" stroke-width="0.5"/>
<rect x="261.283" y="257.326" width="11.6186" height="7.42373" rx="1.75" fill="white" stroke="#652EFF" stroke-width="0.5"/>
<rect x="275.266" y="257.326" width="11.6186" height="7.42373" rx="1.75" fill="white" stroke="#652EFF" stroke-width="0.5"/>
<path d="M186.727 275H163.825C162.264 275 160.999 273.737 160.999 272.178V217.933C160.999 216.313 162.314 215 163.936 215H186.616C188.238 215 189.553 216.313 189.553 217.933V272.178C189.553 273.737 188.288 275 186.727 275Z" fill="#652EFF"/>
<path d="M164.127 274.84C162.592 274.84 161.344 273.613 161.344 272.105V217.931C161.344 216.423 162.592 215.197 164.127 215.197H168.257V216.379C168.257 216.906 168.693 217.335 169.23 217.335H181.197C181.734 217.335 182.17 216.906 182.17 216.379V215.197H186.3C187.835 215.197 189.083 216.423 189.083 217.931V272.105C189.083 273.613 187.835 274.84 186.3 274.84H164.127Z" fill="white"/>
<path d="M185.795 220.337H185.751C185.622 220.337 185.558 220.156 185.649 220.05L185.68 220.014C185.736 219.948 185.736 219.842 185.68 219.776L185.563 219.64C185.507 219.574 185.415 219.574 185.359 219.64L185.328 219.676C185.237 219.782 185.082 219.707 185.082 219.557V219.506C185.082 219.413 185.017 219.337 184.937 219.337H184.772C184.693 219.337 184.628 219.413 184.628 219.506V219.557C184.628 219.707 184.472 219.782 184.381 219.676L184.351 219.64C184.294 219.574 184.203 219.574 184.146 219.64L184.03 219.776C183.974 219.842 183.974 219.948 184.03 220.014L184.061 220.05C184.151 220.156 184.087 220.337 183.959 220.337H183.915C183.835 220.337 183.771 220.413 183.771 220.506V220.698C183.771 220.791 183.835 220.867 183.915 220.867H183.959C184.087 220.867 184.151 221.049 184.061 221.155L184.03 221.191C183.974 221.256 183.974 221.363 184.03 221.429L184.146 221.565C184.203 221.63 184.294 221.63 184.351 221.565L184.381 221.529C184.472 221.423 184.628 221.497 184.628 221.648V221.699C184.628 221.792 184.693 221.867 184.772 221.867H184.937C185.017 221.867 185.082 221.792 185.082 221.699V221.648C185.082 221.497 185.237 221.423 185.328 221.529L185.359 221.565C185.415 221.63 185.507 221.63 185.563 221.565L185.68 221.429C185.736 221.363 185.736 221.256 185.68 221.191L185.649 221.155C185.558 221.049 185.622 220.867 185.751 220.867H185.795C185.874 220.867 185.939 220.792 185.939 220.698V220.506C185.939 220.413 185.874 220.337 185.795 220.337ZM184.855 221.053C184.641 221.053 184.469 220.851 184.469 220.602C184.469 220.353 184.641 220.151 184.855 220.151C185.068 220.151 185.241 220.353 185.241 220.602C185.241 220.851 185.068 221.053 184.855 221.053Z" fill="#8041FF"/>
<path d="M166.782 219.337H163.891V219.699H166.782V219.337Z" fill="#8041FF"/>
<path d="M166.782 220.06H163.891V220.783H166.782V220.06Z" fill="#8041FF"/>
<path d="M166.782 221.145H163.891V221.506H166.782V221.145Z" fill="#8041FF"/>
<path d="M185.999 267.248H164.999C164.447 267.248 163.999 267.696 163.999 268.248C163.999 268.8 164.447 269.248 164.999 269.248H185.999C186.551 269.248 186.999 268.8 186.999 268.248C186.999 267.696 186.551 267.248 185.999 267.248Z" fill="#B39BF9" fill-opacity="0.5"/>
<path d="M185.999 264.248H164.999C164.447 264.248 163.999 264.696 163.999 265.248C163.999 265.8 164.447 266.248 164.999 266.248H185.999C186.551 266.248 186.999 265.8 186.999 265.248C186.999 264.696 186.551 264.248 185.999 264.248Z" fill="#B39BF9" fill-opacity="0.5"/>
<path d="M185.999 261.248H164.999C164.447 261.248 163.999 261.696 163.999 262.248C163.999 262.8 164.447 263.248 164.999 263.248H185.999C186.551 263.248 186.999 262.8 186.999 262.248C186.999 261.696 186.551 261.248 185.999 261.248Z" fill="#B39BF9" fill-opacity="0.5"/>
<path d="M185.999 258.248H164.999C164.447 258.248 163.999 258.696 163.999 259.248C163.999 259.8 164.447 260.248 164.999 260.248H185.999C186.551 260.248 186.999 259.8 186.999 259.248C186.999 258.696 186.551 258.248 185.999 258.248Z" fill="#B39BF9" fill-opacity="0.5"/>
<path d="M185.999 255.248H164.999C164.447 255.248 163.999 255.696 163.999 256.248C163.999 256.8 164.447 257.248 164.999 257.248H185.999C186.551 257.248 186.999 256.8 186.999 256.248C186.999 255.696 186.551 255.248 185.999 255.248Z" fill="#B39BF9" fill-opacity="0.5"/>
<path d="M185.999 252.248H164.999C164.447 252.248 163.999 252.696 163.999 253.248C163.999 253.8 164.447 254.248 164.999 254.248H185.999C186.551 254.248 186.999 253.8 186.999 253.248C186.999 252.696 186.551 252.248 185.999 252.248Z" fill="#B39BF9" fill-opacity="0.5"/>
<path d="M185.999 249.248H164.999C164.447 249.248 163.999 249.696 163.999 250.248C163.999 250.8 164.447 251.248 164.999 251.248H185.999C186.551 251.248 186.999 250.8 186.999 250.248C186.999 249.696 186.551 249.248 185.999 249.248Z" fill="#B39BF9" fill-opacity="0.5"/>
<path d="M185.999 246.248H164.999C164.447 246.248 163.999 246.696 163.999 247.248C163.999 247.8 164.447 248.248 164.999 248.248H185.999C186.551 248.248 186.999 247.8 186.999 247.248C186.999 246.696 186.551 246.248 185.999 246.248Z" fill="#B39BF9" fill-opacity="0.5"/>
<path d="M175.499 270.248H164.499C164.223 270.248 163.999 270.472 163.999 270.748C163.999 271.024 164.223 271.248 164.499 271.248H175.499C175.775 271.248 175.999 271.024 175.999 270.748C175.999 270.472 175.775 270.248 175.499 270.248Z" fill="#B39BF9" fill-opacity="0.5"/>
<rect x="164.249" y="224.25" width="22.5" height="20.5" rx="4.75" fill="white" stroke="#652EFF" stroke-width="0.5"/>
<path d="M67.999 120C71.3127 120 73.999 117.314 73.999 114C73.999 110.686 71.3127 108 67.999 108C64.6853 108 61.999 110.686 61.999 114C61.999 117.314 64.6853 120 67.999 120Z" fill="#AE62FF"/>
<path d="M67.9991 116.713C69.4974 116.713 70.712 115.498 70.712 114C70.712 112.502 69.4974 111.287 67.9991 111.287C66.5008 111.287 65.2861 112.502 65.2861 114C65.2861 115.498 66.5008 116.713 67.9991 116.713Z" fill="#FAFBFF"/>
<path d="M260.999 134C264.313 134 266.999 131.314 266.999 128C266.999 124.686 264.313 122 260.999 122C257.685 122 254.999 124.686 254.999 128C254.999 131.314 257.685 134 260.999 134Z" fill="#AE62FF"/>
<path d="M260.999 130.713C262.497 130.713 263.712 129.498 263.712 128C263.712 126.502 262.497 125.287 260.999 125.287C259.501 125.287 258.286 126.502 258.286 128C258.286 129.498 259.501 130.713 260.999 130.713Z" fill="#FAFBFF"/>
<path d="M257.603 83.0018C257.419 83.0018 257.234 82.982 257.05 82.9413L252.321 81.9057C251.651 81.76 251.079 81.3611 250.71 80.785C250.34 80.2088 250.217 79.5222 250.363 78.8528L251.719 72.6568C248.562 71.2903 245.759 69.3396 243.381 66.8548L238.042 70.2764C237.465 70.6469 236.778 70.7691 236.111 70.6228C235.441 70.4764 234.869 70.0781 234.5 69.5014L231.887 65.4247C231.124 64.2347 231.471 62.6453 232.663 61.8821L238.001 58.4605C236.737 55.2625 236.135 51.9014 236.212 48.4619L230.016 47.1059C228.635 46.8039 227.757 45.4337 228.058 44.053L229.094 39.323C229.24 38.6536 229.639 38.0812 230.215 37.7119C230.791 37.3426 231.478 37.2185 232.147 37.3661L238.343 38.7209C239.709 35.5648 241.66 32.7626 244.145 30.3834L240.723 25.0445C240.354 24.4677 240.231 23.7811 240.377 23.1123C240.523 22.443 240.922 21.8705 241.498 21.5019L245.574 18.8893C246.766 18.1266 248.355 18.4737 249.118 19.6648L252.539 25.0031C255.739 23.7385 259.108 23.137 262.538 23.2136L263.894 17.0182C264.04 16.3489 264.438 15.7764 265.015 15.4072C265.591 15.0367 266.276 14.9132 266.947 15.0608L271.677 16.0957C272.346 16.242 272.919 16.6403 273.288 17.2171C273.657 17.7938 273.78 18.4799 273.634 19.1492L272.278 25.3452C275.436 26.7124 278.238 28.6624 280.616 31.1472L285.955 27.7263C287.147 26.9637 288.735 27.3113 289.498 28.5013L292.111 32.578C292.874 33.7679 292.526 35.3574 291.335 36.1206L285.996 39.5428C287.261 42.7414 287.863 46.1025 287.786 49.5413L293.982 50.8974C294.651 51.0431 295.223 51.442 295.593 52.0181C295.962 52.5943 296.085 53.2809 295.939 53.9509L294.904 58.6797C294.602 60.0604 293.232 60.9429 291.851 60.6372L285.655 59.2818C284.287 62.4391 282.337 65.2419 279.853 67.6193L283.273 72.9582C283.643 73.5349 283.766 74.221 283.62 74.8897C283.474 75.5591 283.075 76.1315 282.498 76.5008L278.422 79.1134C277.232 79.8766 275.642 79.5277 274.88 78.3378L271.458 72.9989C268.26 74.2642 264.902 74.8662 261.459 74.7884L260.103 80.9844C259.957 81.6538 259.558 82.2262 258.982 82.5955C258.564 82.8629 258.088 83.0018 257.603 83.0018ZM243.43 66.1478C243.513 66.1478 243.595 66.1811 243.655 66.2453C246.07 68.8185 248.942 70.8179 252.195 72.1888C252.332 72.2468 252.409 72.3938 252.377 72.5389L250.966 78.9843C250.855 79.4925 250.949 80.0137 251.23 80.4515C251.51 80.8893 251.944 81.1919 252.452 81.3031L257.182 82.3386C257.691 82.4479 258.21 82.3553 258.649 82.0755C259.087 81.7946 259.389 81.3605 259.5 80.8529L260.911 74.4074C260.942 74.2623 261.064 74.1697 261.222 74.1641C264.754 74.2833 268.197 73.6609 271.464 72.3308C271.603 72.274 271.76 72.324 271.84 72.45L275.4 78.0038C275.98 78.9072 277.187 79.1715 278.09 78.5922L282.166 75.9796C282.604 75.6986 282.907 75.2645 283.018 74.7569C283.129 74.2487 283.035 73.7276 282.755 73.2898L279.195 67.736C279.115 67.6112 279.136 67.4457 279.244 67.3445C281.817 64.9307 283.816 62.0568 285.187 58.8038C285.245 58.6661 285.393 58.5908 285.537 58.6223L291.983 60.0327C293.036 60.2587 294.072 59.5948 294.301 58.5463L295.336 53.8175C295.447 53.3093 295.354 52.7881 295.073 52.3503C294.792 51.9125 294.358 51.61 293.851 51.4988L287.405 50.0884C287.26 50.0563 287.158 49.9254 287.162 49.7772C287.275 46.2494 286.658 42.8038 285.328 39.5347C285.272 39.3964 285.322 39.239 285.447 39.1587L291.001 35.5988C291.439 35.3178 291.741 34.8837 291.852 34.3755C291.964 33.8679 291.87 33.3468 291.589 32.909L288.977 28.8322C288.397 27.9288 287.191 27.6658 286.287 28.2444L280.734 31.8037C280.609 31.8852 280.443 31.8642 280.342 31.7549C277.927 29.1824 275.054 27.1829 271.801 25.8121C271.664 25.754 271.587 25.607 271.619 25.4619L273.03 19.0165C273.259 17.9679 272.593 16.9275 271.544 16.6977L266.815 15.6628C265.764 15.4313 264.726 16.1 264.496 17.1492L263.086 23.594C263.054 23.7391 262.924 23.8354 262.774 23.8373C259.243 23.7187 255.802 24.3405 252.532 25.6706C252.395 25.7281 252.236 25.6774 252.156 25.5515L248.597 19.9983C248.017 19.0949 246.813 18.83 245.906 19.4098L241.83 22.0225C241.392 22.3028 241.09 22.7369 240.978 23.2451C240.867 23.7527 240.961 24.2739 241.241 24.7123L244.801 30.2655C244.882 30.3902 244.861 30.5551 244.753 30.657C242.179 33.0726 240.179 35.9458 238.809 39.1976C238.752 39.3353 238.601 39.41 238.459 39.3791L232.014 37.9694C231.505 37.8576 230.984 37.9515 230.546 38.2324C230.108 38.5128 229.806 38.9469 229.695 39.4545L228.659 44.1845C228.43 45.233 229.097 46.2735 230.146 46.5032L236.591 47.9136C236.736 47.9457 236.839 48.0766 236.834 48.2248C236.721 51.7532 237.338 55.1995 238.668 58.4673C238.724 58.6056 238.674 58.7631 238.549 58.8434L232.995 62.4026C232.091 62.9818 231.826 64.1891 232.406 65.0925L235.019 69.1692C235.3 69.607 235.734 69.9096 236.242 70.0207C236.749 70.1325 237.27 70.038 237.709 69.7577L243.263 66.1978C243.315 66.1632 243.372 66.1478 243.43 66.1478ZM262.006 62.4045C261.25 62.4045 260.485 62.3402 259.716 62.2081C252.434 60.949 247.533 53.9997 248.791 46.7175C250.051 39.4353 256.999 34.5373 264.282 35.7921C267.81 36.4016 270.889 38.3491 272.953 41.2749C275.016 44.2006 275.817 47.7549 275.207 51.2827C274.081 57.7967 268.403 62.4045 262.006 62.4045ZM259.821 61.5993C266.771 62.8058 273.398 58.1246 274.598 51.1777C275.18 47.8123 274.416 44.4216 272.448 41.6306C270.48 38.8395 267.543 36.9826 264.177 36.4009C257.227 35.1937 250.601 39.8756 249.4 46.8225C248.199 53.7694 252.875 60.3982 259.821 61.5993Z" fill="url(#paint28_linear_58_4)"/>
<path d="M276.37 104.291C276.094 104.291 275.87 104.067 275.87 103.791V100.5C275.87 100.224 276.094 100 276.37 100C276.646 100 276.87 100.224 276.87 100.5V103.791C276.87 104.067 276.647 104.291 276.37 104.291Z" fill="#775BFC"/>
<path d="M276.37 112.742C276.094 112.742 275.87 112.518 275.87 112.242V108.951C275.87 108.675 276.094 108.451 276.37 108.451C276.646 108.451 276.87 108.675 276.87 108.951V112.242C276.87 112.519 276.647 112.742 276.37 112.742Z" fill="#775BFC"/>
<path d="M282.241 106.871H278.95C278.674 106.871 278.45 106.647 278.45 106.371C278.45 106.095 278.674 105.871 278.95 105.871H282.241C282.517 105.871 282.741 106.095 282.741 106.371C282.741 106.647 282.518 106.871 282.241 106.871Z" fill="#775BFC"/>
<path d="M273.79 106.871H270.499C270.223 106.871 269.999 106.647 269.999 106.371C269.999 106.095 270.223 105.871 270.499 105.871H273.79C274.066 105.871 274.29 106.095 274.29 106.371C274.29 106.647 274.067 106.871 273.79 106.871Z" fill="#775BFC"/>
<path d="M272.219 111.022C272.091 111.022 271.963 110.973 271.865 110.876C271.67 110.681 271.67 110.364 271.865 110.169L274.192 107.842C274.387 107.647 274.704 107.647 274.899 107.842C275.094 108.037 275.094 108.354 274.899 108.549L272.572 110.876C272.475 110.974 272.347 111.022 272.219 111.022Z" fill="#775BFC"/>
<path d="M278.195 105.047C278.067 105.047 277.939 104.998 277.841 104.901C277.646 104.706 277.646 104.389 277.841 104.194L280.168 101.867C280.363 101.672 280.68 101.672 280.875 101.867C281.07 102.062 281.07 102.379 280.875 102.574L278.548 104.901C278.451 104.998 278.323 105.047 278.195 105.047Z" fill="#775BFC"/>
<path d="M274.546 105.047C274.418 105.047 274.29 104.998 274.192 104.901L271.865 102.574C271.67 102.379 271.67 102.062 271.865 101.867C272.06 101.672 272.377 101.672 272.572 101.867L274.899 104.194C275.094 104.389 275.094 104.706 274.899 104.901C274.802 104.998 274.674 105.047 274.546 105.047Z" fill="#775BFC"/>
<path d="M280.522 111.022C280.394 111.022 280.266 110.973 280.168 110.876L277.841 108.549C277.646 108.354 277.646 108.037 277.841 107.842C278.036 107.647 278.353 107.647 278.548 107.842L280.875 110.169C281.07 110.364 281.07 110.681 280.875 110.876C280.778 110.974 280.65 111.022 280.522 111.022Z" fill="#775BFC"/>
<path d="M51.3701 17.291C51.0941 17.291 50.8701 17.067 50.8701 16.791V13.5C50.8701 13.224 51.0941 13 51.3701 13C51.6461 13 51.8701 13.224 51.8701 13.5V16.791C51.8701 17.067 51.6471 17.291 51.3701 17.291Z" fill="#775BFC"/>
<path d="M51.3701 25.742C51.0941 25.742 50.8701 25.518 50.8701 25.242V21.951C50.8701 21.675 51.0941 21.451 51.3701 21.451C51.6461 21.451 51.8701 21.675 51.8701 21.951V25.242C51.8701 25.519 51.6471 25.742 51.3701 25.742Z" fill="#775BFC"/>
<path d="M57.2412 19.871H53.9502C53.6742 19.871 53.4502 19.647 53.4502 19.371C53.4502 19.095 53.6742 18.871 53.9502 18.871H57.2412C57.5172 18.871 57.7412 19.095 57.7412 19.371C57.7412 19.647 57.5182 19.871 57.2412 19.871Z" fill="#775BFC"/>
<path d="M48.79 19.871H45.499C45.223 19.871 44.999 19.647 44.999 19.371C44.999 19.095 45.223 18.871 45.499 18.871H48.79C49.066 18.871 49.29 19.095 49.29 19.371C49.29 19.647 49.067 19.871 48.79 19.871Z" fill="#775BFC"/>
<path d="M47.219 24.022C47.091 24.022 46.963 23.973 46.865 23.876C46.67 23.681 46.67 23.364 46.865 23.169L49.192 20.842C49.387 20.647 49.704 20.647 49.899 20.842C50.094 21.037 50.094 21.354 49.899 21.549L47.572 23.876C47.475 23.974 47.347 24.022 47.219 24.022Z" fill="#775BFC"/>
<path d="M53.1946 18.047C53.0666 18.047 52.9386 17.998 52.8406 17.901C52.6456 17.706 52.6456 17.389 52.8406 17.194L55.1676 14.867C55.3626 14.672 55.6796 14.672 55.8746 14.867C56.0696 15.062 56.0696 15.379 55.8746 15.574L53.5476 17.901C53.4506 17.998 53.3226 18.047 53.1946 18.047Z" fill="#775BFC"/>
<path d="M49.546 18.047C49.418 18.047 49.29 17.998 49.192 17.901L46.865 15.574C46.67 15.379 46.67 15.062 46.865 14.867C47.06 14.672 47.377 14.672 47.572 14.867L49.899 17.194C50.094 17.389 50.094 17.706 49.899 17.901C49.802 17.998 49.674 18.047 49.546 18.047Z" fill="#775BFC"/>
<path d="M55.5216 24.022C55.3936 24.022 55.2656 23.973 55.1676 23.876L52.8406 21.549C52.6456 21.354 52.6456 21.037 52.8406 20.842C53.0356 20.647 53.3526 20.647 53.5476 20.842L55.8746 23.169C56.0696 23.364 56.0696 23.681 55.8746 23.876C55.7776 23.974 55.6496 24.022 55.5216 24.022Z" fill="#775BFC"/>
<path d="M212.37 247.291C212.094 247.291 211.87 247.067 211.87 246.791V243.5C211.87 243.224 212.094 243 212.37 243C212.646 243 212.87 243.224 212.87 243.5V246.791C212.87 247.067 212.647 247.291 212.37 247.291Z" fill="#775BFC"/>
<path d="M212.37 255.742C212.094 255.742 211.87 255.518 211.87 255.242V251.951C211.87 251.675 212.094 251.451 212.37 251.451C212.646 251.451 212.87 251.675 212.87 251.951V255.242C212.87 255.519 212.647 255.742 212.37 255.742Z" fill="#775BFC"/>
<path d="M218.241 249.871H214.95C214.674 249.871 214.45 249.647 214.45 249.371C214.45 249.095 214.674 248.871 214.95 248.871H218.241C218.517 248.871 218.741 249.095 218.741 249.371C218.741 249.647 218.518 249.871 218.241 249.871Z" fill="#775BFC"/>
<path d="M209.79 249.871H206.499C206.223 249.871 205.999 249.647 205.999 249.371C205.999 249.095 206.223 248.871 206.499 248.871H209.79C210.066 248.871 210.29 249.095 210.29 249.371C210.29 249.647 210.067 249.871 209.79 249.871Z" fill="#775BFC"/>
<path d="M208.219 254.022C208.091 254.022 207.963 253.973 207.865 253.876C207.67 253.681 207.67 253.364 207.865 253.169L210.192 250.842C210.387 250.647 210.704 250.647 210.899 250.842C211.094 251.037 211.094 251.354 210.899 251.549L208.572 253.876C208.475 253.974 208.347 254.022 208.219 254.022Z" fill="#775BFC"/>
<path d="M214.195 248.047C214.067 248.047 213.939 247.998 213.841 247.901C213.646 247.706 213.646 247.389 213.841 247.194L216.168 244.867C216.363 244.672 216.68 244.672 216.875 244.867C217.07 245.062 217.07 245.379 216.875 245.574L214.548 247.901C214.451 247.998 214.323 248.047 214.195 248.047Z" fill="#775BFC"/>
<path d="M210.546 248.047C210.418 248.047 210.29 247.998 210.192 247.901L207.865 245.574C207.67 245.379 207.67 245.062 207.865 244.867C208.06 244.672 208.377 244.672 208.572 244.867L210.899 247.194C211.094 247.389 211.094 247.706 210.899 247.901C210.802 247.998 210.674 248.047 210.546 248.047Z" fill="#775BFC"/>
<path d="M216.522 254.022C216.394 254.022 216.266 253.973 216.168 253.876L213.841 251.549C213.646 251.354 213.646 251.037 213.841 250.842C214.036 250.647 214.353 250.647 214.548 250.842L216.875 253.169C217.07 253.364 217.07 253.681 216.875 253.876C216.778 253.974 216.65 254.022 216.522 254.022Z" fill="#775BFC"/>
<path d="M54.1328 129.101C53.2044 128.283 52.3477 127.547 51.5134 126.788C48.2012 123.771 45.2536 120.436 42.7174 116.737C41.8 115.398 40.9551 114.015 40.178 112.595C39.0019 110.446 38.1353 108.164 37.4253 105.821C37.0972 104.738 36.7155 103.671 36.3893 102.586C35.4466 99.4552 35.3049 96.2574 35.5946 93.0207C35.9617 88.9177 37.2462 85.1278 39.4186 81.6339C39.4654 81.5591 39.5093 81.4811 39.559 81.4077C39.8546 80.9692 39.8825 80.961 40.3702 81.1326C42.3866 81.8416 44.4482 82.3798 46.5575 82.7123C50.4826 83.3313 54.3924 83.2684 58.2631 82.3065C60.3113 81.7976 62.206 80.9544 63.8532 79.6032C65.0587 78.6141 66.0235 77.4365 66.6316 75.9968C67.4265 74.1122 67.4834 72.2305 66.3866 70.4348C65.5558 69.0749 64.3046 68.2145 62.8255 67.6645C60.563 66.8222 58.229 66.7034 55.8643 67.0191C53.3351 67.3565 50.9418 68.1267 48.6449 69.2531C44.8577 71.11 41.7681 73.7848 39.1843 77.0833C38.7244 77.6708 38.717 77.7017 38.0226 77.4611C36.0508 76.777 34.0813 76.0855 32.1222 75.3644C28.6397 74.0833 25.2298 72.6267 21.8972 70.9937C21.1397 70.6223 20.3978 70.2196 19.6465 69.8351C19.4594 69.7392 19.287 69.5956 18.978 69.5762C19.1678 69.8675 19.3868 70.0179 19.5894 70.1741C23.3496 73.0694 27.3165 75.6301 31.6489 77.5927C33.2056 78.2983 34.7837 78.9588 36.3559 79.6306C37.1522 79.9708 37.1593 79.9674 36.7116 80.7045C34.093 85.0198 32.8253 89.7209 32.6161 94.7457C32.4621 98.4403 33.0335 102.008 34.3172 105.462C35.2544 107.986 36.4428 110.387 37.8344 112.698C40.9333 117.843 45.0219 122.099 49.5966 125.925C50.8731 126.993 52.1203 128.103 53.5878 128.919C53.7184 128.991 53.8295 129.117 54.1328 129.101ZM49.7145 71.7891C50.6187 71.3021 51.9639 70.7819 53.3506 70.3768C55.6567 69.7033 57.9967 69.398 60.3888 69.8473C61.3346 70.0247 62.2372 70.3313 63.0301 70.8941C64.2411 71.7538 64.6401 72.9214 64.2231 74.3391C63.8861 75.4847 63.1938 76.3934 62.3172 77.1743C61.1523 78.2123 59.7883 78.8905 58.3079 79.3413C55.6445 80.1524 52.9052 80.3645 50.1418 80.2807C47.3962 80.198 44.72 79.6771 42.1028 78.8532C41.5408 78.6763 41.5342 78.632 41.9078 78.1459C41.9206 78.128 41.9357 78.1119 41.9502 78.0942C44.0309 75.5948 46.4495 73.5041 49.7145 71.7891Z" fill="#C8BCEA"/>
<path d="M22.2541 81.8841L25.9756 71.1372L26.0105 71.0368L26.0834 70.9591L34.4767 61.9917L1.2382 57.07L22.2541 81.8841Z" fill="white" stroke="#652AC1"/>
<path d="M25.9616 72.9812L31.2488 74.0069L27.7318 69.9985L6.02425 59.7725L25.9616 72.9812Z" fill="#CECEF4" stroke="#652AC1"/>
<path d="M88.8636 48.9226C88.8937 48.7375 88.9673 48.5615 89.082 48.4063C89.2716 48.1494 89.5499 47.9819 89.8655 47.9343L92.5996 47.5221C92.6708 46.0229 93.0294 44.5764 93.6671 43.2175L91.4416 41.5754C90.9112 41.1844 90.7978 40.4353 91.1899 39.9047L92.4646 38.1768C92.6537 37.9202 92.9321 37.7522 93.2476 37.7046C93.5632 37.657 93.8784 37.7351 94.1353 37.9247L96.3608 39.5668C97.4709 38.557 98.747 37.7875 100.158 37.2768L99.7457 34.5426C99.6981 34.227 99.7759 33.9114 99.9654 33.6549C100.155 33.398 100.433 33.2304 100.749 33.1828L102.872 32.8624C103.524 32.7642 104.134 33.2142 104.232 33.8655L104.644 36.5993C106.143 36.6709 107.589 37.0295 108.949 37.6668L110.59 35.4416C110.982 34.9117 111.732 34.7984 112.262 35.1896L113.99 36.4643C114.519 36.8555 114.632 37.6054 114.241 38.135L112.6 40.3606C113.609 41.4707 114.378 42.747 114.89 44.1584L117.624 43.7458C117.939 43.6982 118.254 43.7763 118.511 43.9659C118.768 44.1554 118.936 44.4334 118.983 44.749L119.304 46.8723C119.352 47.1871 119.274 47.5032 119.084 47.76C118.895 48.0169 118.616 48.1845 118.301 48.2321L115.567 48.6447C115.494 50.144 115.136 51.5902 114.499 52.9489L116.725 54.591C117.255 54.9827 117.368 55.7326 116.976 56.2621L115.702 57.99C115.512 58.2465 115.234 58.4145 114.918 58.4621C114.603 58.5098 114.288 58.4317 114.031 58.2421L111.806 56.6C110.695 57.6101 109.418 58.3795 108.008 58.8899L108.42 61.6241C108.468 61.9394 108.39 62.255 108.201 62.5119C108.011 62.7688 107.733 62.9363 107.417 62.9839L105.294 63.3044C104.643 63.4025 104.032 62.9525 103.934 62.3012L103.522 59.5674C102.023 59.4959 100.577 59.1373 99.2173 58.5L97.5756 60.7251C97.1847 61.2551 96.4348 61.3684 95.9044 60.9775L94.1768 59.7029C93.6469 59.3117 93.5331 58.5624 93.9248 58.0318L95.5662 55.8062C94.5571 54.6965 93.7877 53.4201 93.2763 52.0083L90.5428 52.421C89.8911 52.5191 89.2809 52.0691 89.183 51.4178L88.8626 49.2949C88.8432 49.1692 88.8439 49.044 88.8636 48.9226ZM92.9794 47.7218C92.9661 47.804 92.9006 47.8698 92.8165 47.8829L89.9238 48.3194C89.7109 48.3514 89.523 48.4647 89.3951 48.6378C89.2676 48.8113 89.2149 49.0239 89.2465 49.2367L89.5669 51.3597C89.6334 51.7989 90.0451 52.1027 90.484 52.0362L93.3763 51.5996C93.4688 51.5855 93.5585 51.6399 93.5894 51.7285C94.0993 53.2 94.8968 54.5228 95.9597 55.6597C96.0231 55.7279 96.0304 55.8332 95.9741 55.908L94.2369 58.2626C93.9738 58.6199 94.0496 59.1257 94.4071 59.3896L96.1347 60.6642C96.4923 60.9277 96.9981 60.8515 97.262 60.494L98.9992 58.1397C99.0544 58.0643 99.1559 58.0391 99.2406 58.0804C100.641 58.7607 102.141 59.1327 103.696 59.1851C103.79 59.1885 103.868 59.2579 103.882 59.3504L104.318 62.2431C104.385 62.6823 104.797 62.9862 105.235 62.9196L107.358 62.5991C107.571 62.5672 107.759 62.4539 107.887 62.2807C108.015 62.1076 108.067 61.895 108.036 61.6822L107.599 58.7895C107.584 58.6972 107.639 58.6072 107.727 58.5766C109.198 58.0673 110.521 57.27 111.659 56.2064C111.727 56.1423 111.831 56.1363 111.907 56.192L114.261 57.9292C114.435 58.057 114.647 58.1098 114.86 58.0774C115.073 58.0449 115.26 57.932 115.388 57.7589L116.663 56.031C116.926 55.6737 116.85 55.1679 116.493 54.9041L114.138 53.1669C114.063 53.1113 114.037 53.0105 114.079 52.9255C114.759 51.5249 115.131 50.0254 115.184 48.4701C115.185 48.3765 115.257 48.2986 115.35 48.2842L118.242 47.8477C118.455 47.8157 118.643 47.7024 118.771 47.5293C118.898 47.3561 118.95 47.1435 118.919 46.9307L118.599 44.8074C118.566 44.5948 118.453 44.407 118.28 44.2795C118.107 44.1516 117.895 44.0989 117.682 44.1313L114.789 44.5678C114.697 44.5819 114.607 44.5275 114.576 44.4389C114.067 42.9679 113.269 41.6451 112.206 40.5077C112.142 40.4397 112.135 40.3353 112.191 40.2594L113.929 37.9048C114.191 37.5479 114.116 37.0417 113.759 36.7779L112.031 35.5033C111.673 35.2394 111.168 35.3155 110.904 35.6731L109.166 38.0273C109.111 38.1027 109.009 38.1279 108.925 38.0866C107.525 37.4064 106.025 37.0345 104.469 36.982C104.376 36.9786 104.297 36.9091 104.284 36.8166L103.847 33.924C103.781 33.4847 103.369 33.1809 102.93 33.2475L100.807 33.5679C100.594 33.5999 100.406 33.7132 100.279 33.8863C100.151 34.0598 100.098 34.2728 100.13 34.4849L100.567 37.3776C100.581 37.4701 100.527 37.5599 100.438 37.5904C98.9673 38.1 97.6442 38.8974 96.5072 39.9607C96.4388 40.0249 96.3346 40.0308 96.2589 39.9751L93.9043 38.2379C93.7311 38.11 93.5186 38.0573 93.3056 38.0897C93.0931 38.1217 92.9052 38.235 92.7773 38.4081L91.5027 40.1361C91.2395 40.4937 91.315 40.999 91.6725 41.2629L94.0272 43.0002C94.1025 43.0558 94.1278 43.1568 94.0865 43.2416C93.4067 44.6417 93.0347 46.1412 92.9818 47.6974C92.9817 47.7052 92.9808 47.7134 92.9794 47.7218ZM98.1613 47.1102C98.3093 46.2002 98.6694 45.3116 99.2534 44.5202C101.218 41.8573 104.983 41.2891 107.646 43.2539C110.309 45.2186 110.877 48.9836 108.912 51.6465C106.948 54.3094 103.183 54.8775 100.52 52.9128C98.6482 51.532 97.8113 49.262 98.1613 47.1102ZM99.5663 44.7508C97.7293 47.2414 98.2606 50.7627 100.751 52.5996C103.241 54.4365 106.762 53.9056 108.6 51.4152C110.436 48.9252 109.906 45.404 107.415 43.5664C104.925 41.7298 101.404 42.2612 99.5663 44.7508Z" fill="#5800B5"/>
<path d="M209.994 49.5641C210.01 49.4653 210.05 49.3714 210.111 49.2886C210.212 49.1515 210.36 49.0621 210.529 49.0367L211.988 48.8167C212.026 48.0167 212.217 47.2448 212.558 46.5196L211.37 45.6434C211.087 45.4347 211.026 45.0349 211.236 44.7518L211.916 43.8297C212.017 43.6928 212.165 43.6032 212.334 43.5778C212.502 43.5524 212.67 43.594 212.807 43.6952L213.995 44.5715C214.587 44.0327 215.268 43.622 216.021 43.3495L215.801 41.8904C215.776 41.722 215.817 41.5536 215.919 41.4167C216.02 41.2796 216.168 41.1902 216.337 41.1648L217.469 40.9938C217.817 40.9414 218.143 41.1816 218.195 41.5291L218.415 42.988C219.215 43.0262 219.987 43.2175 220.712 43.5576L221.588 42.3702C221.797 42.0874 222.197 42.0269 222.48 42.2357L223.402 42.9159C223.685 43.1247 223.745 43.5248 223.537 43.8074L222.661 44.9951C223.199 45.5875 223.61 46.2686 223.883 47.0218L225.342 46.8016C225.51 46.7762 225.678 46.8178 225.815 46.919C225.952 47.0201 226.042 47.1685 226.067 47.3369L226.238 48.47C226.264 48.638 226.222 48.8066 226.121 48.9437C226.02 49.0808 225.871 49.1702 225.703 49.1956L224.244 49.4158C224.205 50.2159 224.014 50.9876 223.674 51.7126L224.862 52.5889C225.145 52.798 225.205 53.1981 224.996 53.4807L224.316 54.4028C224.215 54.5397 224.066 54.6293 223.898 54.6547C223.73 54.6801 223.562 54.6385 223.424 54.5373L222.237 53.661C221.644 54.2 220.963 54.6106 220.21 54.883L220.43 56.3421C220.456 56.5103 220.414 56.6787 220.313 56.8158C220.212 56.9529 220.063 57.0423 219.895 57.0677L218.762 57.2387C218.414 57.2911 218.089 57.0509 218.037 56.7034L217.816 55.2445C217.017 55.2064 216.245 55.015 215.519 54.6749L214.643 55.8623C214.435 56.1451 214.034 56.2056 213.751 55.997L212.83 55.3168C212.547 55.108 212.486 54.7082 212.695 54.4251L213.571 53.2374C213.032 52.6452 212.622 51.9641 212.349 51.2107L210.89 51.4309C210.543 51.4833 210.217 51.2432 210.165 50.8956L209.994 49.7628C209.983 49.6957 209.984 49.6288 209.994 49.5641ZM212.191 48.9233C212.183 48.9672 212.148 49.0023 212.104 49.0093L210.56 49.2422C210.446 49.2593 210.346 49.3197 210.278 49.4121C210.21 49.5047 210.182 49.6181 210.199 49.7317L210.37 50.8646C210.405 51.099 210.625 51.2611 210.859 51.2256L212.402 50.9927C212.452 50.9851 212.5 51.0142 212.516 51.0614C212.788 51.8467 213.214 52.5525 213.781 53.1592C213.815 53.1957 213.819 53.2518 213.789 53.2917L212.862 54.5483C212.721 54.7389 212.762 55.0088 212.952 55.1496L213.874 55.8298C214.065 55.9704 214.335 55.9298 214.476 55.739L215.403 54.4827C215.432 54.4424 215.487 54.4289 215.532 54.451C216.279 54.8141 217.079 55.0125 217.909 55.0405C217.959 55.0423 218.001 55.0794 218.009 55.1287L218.241 56.6724C218.277 56.9067 218.497 57.0689 218.731 57.0334L219.864 56.8624C219.977 56.8453 220.078 56.7848 220.146 56.6925C220.214 56.6 220.242 56.4866 220.225 56.373L219.992 54.8294C219.984 54.7802 220.013 54.7321 220.061 54.7158C220.845 54.444 221.551 54.0185 222.159 53.451C222.195 53.4167 222.251 53.4136 222.291 53.4433L223.547 54.3703C223.64 54.4385 223.753 54.4667 223.867 54.4494C223.98 54.4321 224.08 54.3718 224.149 54.2795L224.829 53.3574C224.969 53.1667 224.929 52.8968 224.738 52.756L223.482 51.829C223.442 51.7993 223.428 51.7455 223.45 51.7002C223.813 50.9528 224.011 50.1526 224.04 49.3226C224.04 49.2727 224.078 49.2311 224.128 49.2234L225.671 48.9905C225.785 48.9734 225.885 48.9129 225.954 48.8206C226.022 48.7281 226.05 48.6147 226.033 48.5011L225.862 47.3681C225.845 47.2546 225.784 47.1544 225.692 47.0864C225.6 47.0181 225.486 46.99 225.373 47.0073L223.829 47.2402C223.78 47.2477 223.732 47.2187 223.715 47.1714C223.443 46.3864 223.018 45.6805 222.45 45.0736C222.416 45.0373 222.412 44.9816 222.443 44.9411L223.37 43.6846C223.51 43.4941 223.47 43.2241 223.279 43.0833L222.357 42.4031C222.166 42.2622 221.896 42.3029 221.756 42.4937L220.829 43.75C220.799 43.7902 220.745 43.8037 220.7 43.7816C219.952 43.4186 219.152 43.2202 218.322 43.1922C218.272 43.1903 218.23 43.1533 218.223 43.1039L217.99 41.5603C217.955 41.3259 217.735 41.1638 217.501 41.1993L216.368 41.3703C216.254 41.3874 216.154 41.4478 216.086 41.5402C216.017 41.6328 215.989 41.7464 216.006 41.8596L216.239 43.4033C216.247 43.4527 216.218 43.5005 216.171 43.5168C215.386 43.7888 214.68 44.2143 214.073 44.7817C214.037 44.8159 213.981 44.8191 213.941 44.7894L212.684 43.8624C212.592 43.7941 212.478 43.766 212.365 43.7833C212.251 43.8004 212.151 43.8608 212.083 43.9532L211.403 44.8753C211.262 45.0661 211.302 45.3358 211.493 45.4766L212.75 46.4037C212.79 46.4333 212.803 46.4873 212.781 46.5325C212.419 47.2797 212.22 48.0799 212.192 48.9103C212.192 48.9145 212.191 48.9188 212.191 48.9233ZM214.956 48.5969C215.035 48.1113 215.227 47.6371 215.539 47.2148C216.587 45.7938 218.596 45.4906 220.017 46.5391C221.438 47.5875 221.742 49.5967 220.693 51.0177C219.644 52.4387 217.635 52.7418 216.214 51.6934C215.216 50.9566 214.769 49.7452 214.956 48.5969ZM215.706 47.3379C214.725 48.6669 215.009 50.546 216.338 51.5263C217.666 52.5065 219.546 52.2232 220.526 50.8942C221.506 49.5655 221.223 47.6865 219.894 46.7058C218.565 45.7258 216.686 46.0093 215.706 47.3379Z" fill="#5800B5"/>
<path d="M155.063 55.0605C155.117 54.7272 155.381 54.4522 155.733 54.4011L157.148 54.1949C157.202 53.4179 157.392 52.6688 157.714 51.961L156.567 51.1057C156.397 50.9789 156.286 50.7932 156.256 50.5834C156.225 50.3745 156.277 50.1641 156.405 49.994L157.118 49.0372C157.38 48.6864 157.879 48.6134 158.23 48.8753L159.376 49.7306C159.964 49.2197 160.628 48.8236 161.356 48.5507L161.15 47.1351C161.119 46.926 161.172 46.7157 161.299 46.5456C161.426 46.3754 161.611 46.2648 161.822 46.2343L163.003 46.0625C163.436 45.9996 163.84 46.3006 163.903 46.7338L164.109 48.1494C164.886 48.2031 165.635 48.3932 166.343 48.7152L167.199 47.5684C167.325 47.3981 167.511 47.2877 167.721 47.2571C167.931 47.2265 168.141 47.2794 168.31 47.4061L169.267 48.1194C169.438 48.2467 169.548 48.4319 169.578 48.6421C169.609 48.852 169.556 49.0614 169.429 49.2315L168.574 50.3784C169.085 50.965 169.481 51.6292 169.754 52.3578L171.169 52.1516C171.379 52.1209 171.588 52.1738 171.759 52.3007C171.929 52.4279 172.039 52.6131 172.069 52.8233L172.242 54.0039C172.306 54.4381 172.004 54.8418 171.57 54.9046L170.155 55.1109C170.101 55.8873 169.911 56.6369 169.589 57.3447L170.736 58.2C170.906 58.3268 171.017 58.5125 171.047 58.7223C171.077 58.932 171.025 59.1415 170.898 59.3112L170.185 60.268C170.058 60.4383 169.872 60.5487 169.662 60.5794C169.452 60.61 169.243 60.5571 169.073 60.4303L167.926 59.575C167.339 60.086 166.675 60.4825 165.946 60.7549L166.152 62.1701C166.183 62.3804 166.131 62.5894 166.003 62.7595C165.877 62.9298 165.691 63.0403 165.481 63.0709L164.3 63.2427C163.867 63.3056 163.463 63.0045 163.399 62.5714L163.193 61.1558C162.417 61.102 161.668 60.912 160.959 60.59L160.104 61.7368C159.977 61.907 159.792 62.0175 159.582 62.0481C159.371 62.0786 159.162 62.0257 158.992 61.8986L158.035 61.1858C157.865 61.0585 157.754 60.8728 157.724 60.6626C157.693 60.4521 157.747 60.2434 157.874 60.0732L158.729 58.9263C158.218 58.3397 157.821 57.6755 157.549 56.9469L156.133 57.153C155.924 57.1837 155.714 57.1308 155.544 57.004C155.374 56.8773 155.263 56.6916 155.233 56.4818L155.061 55.3012C155.049 55.2196 155.051 55.1382 155.063 55.0605ZM157.611 54.4412C157.595 54.5424 157.514 54.6235 157.41 54.6385L155.801 54.8727C155.628 54.8982 155.509 55.06 155.532 55.2325L155.705 56.4131C155.717 56.4972 155.761 56.5711 155.829 56.6217C155.897 56.6724 155.981 56.6937 156.065 56.6813L157.673 56.4472C157.787 56.4303 157.897 56.4975 157.934 56.6059C158.207 57.4076 158.637 58.1295 159.212 58.7507C159.29 58.8349 159.297 58.9627 159.228 59.0553L158.256 60.3587C158.206 60.4273 158.184 60.5098 158.196 60.5939C158.209 60.6776 158.253 60.7519 158.321 60.8026L159.278 61.5159C159.346 61.5666 159.429 61.5879 159.513 61.5754C159.597 61.563 159.672 61.5191 159.722 61.451L160.694 60.1476C160.763 60.0554 160.887 60.0253 160.99 60.076C161.75 60.4499 162.564 60.6563 163.411 60.6896C163.525 60.6937 163.621 60.7798 163.637 60.8936L163.871 62.5022C163.897 62.6755 164.059 62.796 164.232 62.7706L165.413 62.5988C165.497 62.5863 165.571 62.5423 165.622 62.4742C165.672 62.406 165.693 62.3224 165.681 62.2384L165.447 60.6298C165.432 60.5167 165.497 60.4065 165.606 60.3695C166.407 60.0968 167.129 59.6667 167.75 59.0912C167.835 59.0131 167.963 59.0064 168.055 59.0751L169.358 60.0472C169.426 60.0979 169.51 60.1187 169.594 60.1068C169.678 60.0943 169.752 60.0503 169.803 59.9822L170.516 59.0254C170.567 58.9569 170.588 58.8737 170.576 58.7901C170.563 58.7064 170.519 58.6321 170.452 58.5815L169.148 57.6094C169.056 57.5412 169.026 57.416 169.077 57.3131C169.451 56.5529 169.657 55.7383 169.69 54.8927C169.693 54.7776 169.78 54.6821 169.894 54.6659L171.503 54.4317C171.676 54.4062 171.795 54.2444 171.771 54.0719L171.599 52.8913C171.586 52.8071 171.542 52.7328 171.474 52.6821C171.407 52.6315 171.323 52.6102 171.24 52.6226L169.63 52.8568C169.517 52.8736 169.407 52.8064 169.37 52.698C169.097 51.8963 168.666 51.1744 168.092 50.5532C168.014 50.469 168.008 50.3409 168.076 50.2486L169.047 48.9453C169.098 48.8771 169.119 48.7941 169.107 48.71C169.095 48.6263 169.051 48.552 168.983 48.5013L168.026 47.788C167.958 47.7374 167.874 47.716 167.791 47.7285C167.707 47.7409 167.632 47.7848 167.581 47.853L166.61 49.1563C166.541 49.2485 166.417 49.2786 166.314 49.2279C165.553 48.854 164.739 48.6481 163.893 48.6148C163.778 48.6107 163.683 48.5246 163.666 48.4108L163.432 46.8021C163.407 46.6289 163.246 46.5089 163.072 46.5338L161.891 46.7056C161.807 46.7181 161.733 46.7621 161.682 46.8302C161.632 46.8979 161.611 46.9819 161.623 47.0655L161.857 48.6741C161.873 48.7889 161.806 48.8974 161.698 48.9344C160.897 49.2071 160.175 49.6372 159.553 50.2126C159.469 50.2908 159.341 50.2975 159.249 50.2288L157.945 49.2572C157.805 49.1528 157.605 49.1816 157.501 49.3218L156.788 50.2781C156.684 50.4186 156.713 50.6177 156.853 50.7221L158.156 51.6942C158.248 51.7623 158.278 51.8875 158.228 51.9904C157.854 52.7503 157.648 53.5643 157.615 54.4109C157.614 54.4218 157.613 54.4313 157.611 54.4412ZM160.23 54.092C160.318 53.5502 160.535 53.0341 160.873 52.5812C161.427 51.839 162.236 51.3569 163.152 51.2232C164.068 51.0895 164.981 51.3206 165.723 51.8742C166.465 52.4274 166.947 53.2365 167.081 54.1528C167.213 55.0688 166.983 55.9819 166.43 56.724C165.876 57.4662 165.067 57.9484 164.151 58.082C163.235 58.2157 162.322 57.9842 161.58 57.431C160.838 56.8778 160.356 56.0687 160.222 55.1525C160.17 54.7951 160.174 54.4385 160.23 54.092ZM166.6 55.1372C166.773 54.0708 166.362 52.9457 165.438 52.257C164.798 51.7799 164.01 51.5802 163.221 51.6954C162.431 51.8105 161.733 52.2267 161.256 52.8661C160.779 53.5058 160.579 54.2933 160.695 55.0833C160.81 55.8733 161.226 56.5712 161.865 57.0482C162.505 57.5253 163.293 57.725 164.082 57.6099C164.872 57.4948 165.57 57.0786 166.047 56.4391C166.343 56.0426 166.525 55.5953 166.6 55.1372Z" fill="#5800B5"/>
<path d="M218.986 199.988C218.887 199.988 218.798 199.934 218.751 199.849L217.829 198.152L216.138 197.221C216.052 197.174 215.998 197.084 215.999 196.986C216 196.888 216.053 196.799 216.139 196.752L217.836 195.83L218.766 194.139C218.813 194.053 218.903 194 219 194C219.099 194 219.189 194.054 219.235 194.14L220.157 195.836L221.849 196.767C221.934 196.814 221.987 196.904 221.987 197.002C221.987 197.1 221.933 197.19 221.847 197.236L220.151 198.158L219.22 199.849C219.173 199.935 219.084 199.988 218.986 199.988ZM216.824 196.988L218.155 197.722C218.2 197.746 218.237 197.783 218.261 197.828L218.987 199.163L219.72 197.832C219.745 197.787 219.781 197.751 219.827 197.726L221.162 197L219.83 196.268C219.785 196.243 219.749 196.206 219.724 196.161L218.999 194.825L218.266 196.157C218.241 196.201 218.204 196.238 218.159 196.263L216.824 196.988Z" fill="#5800B5"/>
<path d="M151.986 245.988H151.985C151.887 245.988 151.798 245.934 151.751 245.848L150.829 244.152L149.138 243.221C149.052 243.173 148.999 243.084 148.999 242.986C148.999 242.888 149.053 242.798 149.139 242.752L150.835 241.83L151.766 240.139C151.813 240.053 151.903 240 152 240H152.001C152.099 240 152.189 240.054 152.235 240.14L153.157 241.836L154.849 242.767C154.934 242.814 154.987 242.904 154.987 243.002C154.987 243.1 154.933 243.19 154.848 243.236L153.151 244.158L152.22 245.849C152.173 245.935 152.083 245.988 151.986 245.988ZM149.824 242.988L151.155 243.721C151.2 243.746 151.237 243.783 151.261 243.828L151.987 245.163L152.72 243.831C152.745 243.787 152.782 243.75 152.827 243.725L154.163 243L152.831 242.267C152.786 242.242 152.75 242.206 152.725 242.161L151.999 240.825L151.266 242.156C151.241 242.201 151.205 242.238 151.16 242.262L149.824 242.988Z" fill="#5800B5"/>
<path d="M287.299 130.621C287.2 130.621 287.11 130.567 287.064 130.482L285.679 127.933L283.138 126.534C283.052 126.487 282.999 126.397 282.999 126.299C282.999 126.201 283.053 126.112 283.139 126.065L285.688 124.68L287.086 122.139C287.134 122.053 287.223 122 287.321 122H287.321C287.42 122 287.509 122.054 287.556 122.14L288.941 124.689L291.483 126.088C291.568 126.135 291.622 126.225 291.621 126.323C291.621 126.421 291.567 126.51 291.481 126.557L288.932 127.942L287.533 130.484C287.487 130.568 287.397 130.621 287.299 130.621ZM283.824 126.301L286.005 127.501C286.05 127.526 286.086 127.563 286.111 127.608L287.3 129.796L288.501 127.614C288.526 127.57 288.563 127.533 288.608 127.508L290.796 126.319L288.614 125.118C288.569 125.093 288.533 125.056 288.509 125.011L287.319 122.823L286.119 125.005C286.093 125.049 286.057 125.086 286.012 125.111L283.824 126.301Z" fill="#5800B5"/>
<path d="M213.299 224.622C213.177 224.631 213.111 224.569 213.064 224.482L211.679 221.933L209.138 220.534C209.052 220.487 208.999 220.397 208.999 220.299C208.999 220.201 209.053 220.112 209.139 220.065L211.688 218.68L213.087 216.139C213.134 216.053 213.213 216.01 213.322 216C213.42 216 213.51 216.054 213.556 216.14L214.941 218.689L217.483 220.088C217.568 220.135 217.621 220.225 217.621 220.323C217.621 220.42 217.567 220.51 217.481 220.557L214.932 221.942L213.533 224.484C213.486 224.569 213.396 224.622 213.299 224.622ZM209.823 220.301L212.005 221.503C212.05 221.527 212.086 221.564 212.111 221.609L213.3 223.797L214.501 221.615C214.526 221.571 214.563 221.534 214.607 221.509L216.796 220.321L214.614 219.119C214.569 219.095 214.533 219.058 214.508 219.013L213.319 216.825L212.118 219.007C212.093 219.051 212.056 219.088 212.012 219.113L209.823 220.301Z" fill="#5800B5"/>
<path d="M49.995 49.0069C49.9158 49.0026 49.8067 48.9528 49.7602 48.8673L48.835 47.1645L47.1375 46.2302C47.052 46.1831 46.999 46.0933 46.999 45.9954C46.999 45.8975 47.053 45.8077 47.1386 45.7612L48.8414 44.836L49.7757 43.1385C49.8228 43.0529 49.9126 43 50.0099 43C50.1078 43 50.1982 43.054 50.2447 43.1396L51.1699 44.8424L52.8674 45.7767C52.9529 45.8237 53.0059 45.9136 53.0059 46.0115C53.0059 46.1093 52.9519 46.1992 52.8663 46.2457L51.1635 47.1709L50.2292 48.8684C50.1821 48.9539 50.0923 49.0069 49.995 49.0069ZM47.8231 45.997L49.1612 46.7334C49.2056 46.758 49.2425 46.7949 49.2671 46.8399L49.996 48.1817L50.7325 46.8436C50.7571 46.7992 50.794 46.7623 50.8389 46.7377L52.1807 46.0088L50.8426 45.2724C50.7982 45.2478 50.7613 45.2109 50.7367 45.1659L50.0078 43.8241L49.2714 45.1622C49.2468 45.2066 49.2099 45.2435 49.165 45.2681L47.8231 45.997Z" fill="#5800B5"/>
<path d="M273.248 2.20641C273.1 2.20641 272.98 2.08662 272.98 1.93901V0.267766C272.98 0.120161 273.1 0.000366211 273.248 0.000366211C273.395 0.000366211 273.515 0.120161 273.515 0.267766V1.93901C273.515 2.08662 273.396 2.20641 273.248 2.20641Z" fill="#5800B5"/>
<path d="M273.248 6.49914C273.1 6.49914 272.98 6.37934 272.98 6.23174V4.56049C272.98 4.41289 273.1 4.29309 273.248 4.29309C273.395 4.29309 273.515 4.41289 273.515 4.56049V6.23174C273.515 6.37988 273.396 6.49914 273.248 6.49914Z" fill="#5800B5"/>
<path d="M276.231 3.51679H274.559C274.412 3.51679 274.292 3.397 274.292 3.24939C274.292 3.10179 274.412 2.98199 274.559 2.98199H276.231C276.379 2.98199 276.499 3.10179 276.499 3.24939C276.499 3.397 276.379 3.51679 276.231 3.51679Z" fill="#5800B5"/>
<path d="M271.938 3.51679H270.266C270.119 3.51679 269.999 3.397 269.999 3.24939C269.999 3.10179 270.119 2.98199 270.266 2.98199H271.938C272.086 2.98199 272.206 3.10179 272.206 3.24939C272.206 3.397 272.086 3.51679 271.938 3.51679Z" fill="#5800B5"/>
<path d="M271.141 5.62567C271.072 5.62567 271.004 5.59946 270.951 5.54758C270.847 5.4433 270.847 5.27376 270.951 5.16948L272.133 3.98758C272.237 3.88329 272.407 3.88329 272.511 3.98758C272.616 4.09186 272.616 4.26139 272.511 4.36568L271.329 5.54758C271.277 5.59946 271.209 5.62567 271.141 5.62567Z" fill="#5800B5"/>
<path d="M274.176 2.59027C274.107 2.59027 274.039 2.56406 273.986 2.51219C273.882 2.4079 273.882 2.23837 273.986 2.13409L275.168 0.952177C275.273 0.847891 275.442 0.847891 275.546 0.952177C275.651 1.05646 275.651 1.22599 275.546 1.33028L274.365 2.51219C274.312 2.5646 274.244 2.59027 274.176 2.59027Z" fill="#5800B5"/>
<path d="M272.322 2.59027C272.254 2.59027 272.186 2.56406 272.133 2.51219L270.951 1.33028C270.847 1.22599 270.847 1.05646 270.951 0.952177C271.056 0.847891 271.225 0.847891 271.329 0.952177L272.511 2.13409C272.616 2.23837 272.616 2.4079 272.511 2.51219C272.459 2.5646 272.391 2.59027 272.322 2.59027Z" fill="#5800B5"/>
<path d="M275.358 5.62561C275.289 5.62561 275.221 5.5994 275.168 5.54752L273.986 4.36562C273.882 4.26133 273.882 4.0918 273.986 3.98752C274.091 3.88323 274.26 3.88323 274.365 3.98752L275.546 5.16942C275.651 5.2737 275.651 5.44323 275.546 5.54752C275.494 5.5994 275.426 5.62561 275.358 5.62561Z" fill="#5800B5"/>
<path d="M152.662 198.439C152.514 198.439 152.395 198.319 152.395 198.171V196.267C152.395 196.12 152.514 196 152.662 196C152.81 196 152.929 196.12 152.929 196.267V198.171C152.929 198.319 152.81 198.439 152.662 198.439Z" fill="#5800B5"/>
<path d="M152.662 203.327C152.514 203.327 152.395 203.207 152.395 203.06V201.156C152.395 201.008 152.514 200.888 152.662 200.888C152.81 200.888 152.929 201.008 152.929 201.156V203.06C152.929 203.207 152.81 203.327 152.662 203.327Z" fill="#5800B5"/>
<path d="M151.17 199.931H149.266C149.119 199.931 148.999 199.811 148.999 199.664C148.999 199.516 149.119 199.396 149.266 199.396H151.17C151.317 199.396 151.437 199.516 151.437 199.664C151.437 199.811 151.317 199.931 151.17 199.931Z" fill="#5800B5"/>
<path d="M156.058 199.931H154.155C154.007 199.931 153.888 199.812 153.888 199.664C153.888 199.516 154.007 199.397 154.155 199.397H156.058C156.206 199.397 156.326 199.516 156.326 199.664C156.326 199.812 156.206 199.931 156.058 199.931Z" fill="#5800B5"/>
<path d="M155.064 202.333C154.995 202.333 154.927 202.307 154.874 202.255L153.528 200.908C153.424 200.804 153.424 200.635 153.528 200.53C153.633 200.426 153.802 200.426 153.907 200.53L155.253 201.877C155.357 201.981 155.357 202.151 155.253 202.255C155.201 202.307 155.132 202.333 155.064 202.333Z" fill="#5800B5"/>
<path d="M151.607 198.876C151.538 198.876 151.47 198.85 151.417 198.798L150.071 197.452C149.967 197.348 149.967 197.178 150.071 197.074C150.176 196.97 150.345 196.97 150.449 197.074L151.796 198.42C151.9 198.524 151.9 198.694 151.796 198.798C151.744 198.85 151.675 198.876 151.607 198.876Z" fill="#5800B5"/>
<path d="M153.718 198.876C153.649 198.876 153.581 198.85 153.528 198.798C153.424 198.694 153.424 198.524 153.528 198.42L154.874 197.074C154.979 196.97 155.148 196.97 155.253 197.074C155.357 197.178 155.357 197.348 155.253 197.452L153.907 198.798C153.855 198.85 153.786 198.876 153.718 198.876Z" fill="#5800B5"/>
<path d="M150.261 202.333C150.192 202.333 150.124 202.307 150.071 202.255C149.967 202.151 149.967 201.981 150.071 201.877L151.417 200.53C151.522 200.426 151.691 200.426 151.796 200.53C151.9 200.635 151.9 200.804 151.796 200.908L150.449 202.255C150.397 202.307 150.329 202.333 150.261 202.333Z" fill="#5800B5"/>
<path d="M61.2127 185.746C61.0651 185.746 60.9453 185.627 60.9453 185.479V183.267C60.9453 183.119 61.0651 183 61.2127 183C61.3603 183 61.4801 183.119 61.4801 183.267V185.479C61.4801 185.627 61.3603 185.746 61.2127 185.746Z" fill="#5800B5"/>
<path d="M61.2127 191.427C61.0651 191.427 60.9453 191.307 60.9453 191.159V188.947C60.9453 188.8 61.0651 188.68 61.2127 188.68C61.3603 188.68 61.4801 188.8 61.4801 188.947V191.159C61.4801 191.308 61.3603 191.427 61.2127 191.427Z" fill="#5800B5"/>
<path d="M59.4783 187.48H57.2664C57.1188 187.48 56.999 187.361 56.999 187.213C56.999 187.065 57.1188 186.946 57.2664 186.946H59.4783C59.6259 186.946 59.7457 187.065 59.7457 187.213C59.7457 187.361 59.6259 187.48 59.4783 187.48Z" fill="#5800B5"/>
<path d="M65.1595 187.48H62.9471C62.7995 187.48 62.6797 187.361 62.6797 187.213C62.6797 187.065 62.7995 186.946 62.9471 186.946H65.1595C65.3072 186.946 65.4269 187.065 65.4269 187.213C65.4269 187.361 65.3072 187.48 65.1595 187.48Z" fill="#5800B5"/>
<path d="M64.0037 190.271C63.9352 190.271 63.8668 190.245 63.8144 190.193L62.2501 188.628C62.1458 188.524 62.1458 188.355 62.2501 188.25C62.3544 188.146 62.5239 188.146 62.6282 188.25L64.1925 189.815C64.2968 189.919 64.2968 190.088 64.1925 190.193C64.1401 190.245 64.0716 190.271 64.0037 190.271Z" fill="#5800B5"/>
<path d="M59.9871 186.254C59.9187 186.254 59.8502 186.228 59.7978 186.176L58.2335 184.611C58.1292 184.507 58.1292 184.338 58.2335 184.233C58.3378 184.129 58.5073 184.129 58.6116 184.233L60.1759 185.798C60.2802 185.902 60.2802 186.071 60.1759 186.176C60.124 186.228 60.0556 186.254 59.9871 186.254Z" fill="#5800B5"/>
<path d="M62.4394 186.254C62.371 186.254 62.3025 186.228 62.2501 186.176C62.1458 186.071 62.1458 185.902 62.2501 185.798L63.8144 184.233C63.9187 184.129 64.0882 184.129 64.1925 184.233C64.2968 184.338 64.2968 184.507 64.1925 184.611L62.6282 186.176C62.5763 186.228 62.5079 186.254 62.4394 186.254Z" fill="#5800B5"/>
<path d="M58.4228 190.271C58.3544 190.271 58.2859 190.245 58.2335 190.193C58.1292 190.088 58.1292 189.919 58.2335 189.815L59.7978 188.25C59.9021 188.146 60.0716 188.146 60.1759 188.25C60.2802 188.355 60.2802 188.524 60.1759 188.628L58.6116 190.193C58.5597 190.245 58.4913 190.271 58.4228 190.271Z" fill="#5800B5"/>
<path d="M59.0757 159.235H58.707C57.6213 159.235 57.0785 157.923 57.8457 157.156L58.1064 156.895C58.5822 156.419 58.5822 155.647 58.1064 155.171L57.1232 154.188C56.6474 153.712 55.8764 153.712 55.3996 154.188L55.1389 154.45C54.3717 155.216 53.0597 154.673 53.0597 153.588V153.219C53.0597 152.546 52.5141 152 51.8419 152H50.4517C49.7785 152 49.2329 152.546 49.2329 153.219V153.588C49.2329 154.673 47.9209 155.216 47.1537 154.45L46.893 154.188C46.4172 153.712 45.6462 153.712 45.1695 154.188L44.1872 155.171C43.7104 155.647 43.7104 156.419 44.1872 156.895L44.4479 157.156C45.2151 157.923 44.6713 159.235 43.5866 159.235H43.2169C42.5447 159.235 41.999 159.78 41.999 160.454V161.843C41.999 162.516 42.5447 163.062 43.2169 163.062H43.5866C44.6713 163.062 45.2151 164.374 44.4479 165.141L44.1872 165.402C43.7104 165.877 43.7104 166.649 44.1872 167.125L45.1695 168.108C45.6462 168.584 46.4172 168.584 46.893 168.108L47.1537 167.848C47.9209 167.08 49.2329 167.623 49.2329 168.709V169.078C49.2329 169.751 49.7785 170.296 50.4517 170.296H51.8419C52.5141 170.296 53.0597 169.751 53.0597 169.078V168.709C53.0597 167.623 54.3717 167.08 55.1389 167.848L55.3996 168.108C55.8764 168.584 56.6474 168.584 57.1232 168.108L58.1064 167.125C58.5822 166.649 58.5822 165.877 58.1064 165.402L57.8457 165.141C57.0785 164.374 57.6222 163.062 58.707 163.062H59.0757C59.7489 163.062 60.2945 162.516 60.2945 161.843V160.454C60.2936 159.78 59.7489 159.235 59.0757 159.235ZM51.1463 164.406C49.3465 164.406 47.8883 162.948 47.8883 161.148C47.8883 159.348 49.3465 157.89 51.1463 157.89C52.9462 157.89 54.4052 159.348 54.4052 161.148C54.4052 162.948 52.9462 164.406 51.1463 164.406Z" fill="#642CFF"/>
<defs>
<linearGradient id="paint0_linear_58_4" x1="214.809" y1="52.1982" x2="232.467" y2="52.1982" gradientUnits="userSpaceOnUse">
<stop stop-color="#8858FB"/>
<stop offset="1" stop-color="#DF5656"/>
</linearGradient>
<linearGradient id="paint1_linear_58_4" x1="213.286" y1="47.8245" x2="221.295" y2="47.8245" gradientUnits="userSpaceOnUse">
<stop stop-color="#8858FB"/>
<stop offset="1" stop-color="#DF5656"/>
</linearGradient>
<linearGradient id="paint2_linear_58_4" x1="213.102" y1="43.336" x2="214.742" y2="43.336" gradientUnits="userSpaceOnUse">
<stop stop-color="#8858FB"/>
<stop offset="1" stop-color="#DF5656"/>
</linearGradient>
<linearGradient id="paint3_linear_58_4" x1="221.026" y1="43.3145" x2="222.828" y2="43.3145" gradientUnits="userSpaceOnUse">
<stop stop-color="#8858FB"/>
<stop offset="1" stop-color="#DF5656"/>
</linearGradient>
<linearGradient id="paint4_linear_58_4" x1="211.983" y1="52.3572" x2="213.786" y2="52.3572" gradientUnits="userSpaceOnUse">
<stop stop-color="#8858FB"/>
<stop offset="1" stop-color="#DF5656"/>
</linearGradient>
<linearGradient id="paint5_linear_58_4" x1="-nan" y1="-nan" x2="-nan" y2="-nan" gradientUnits="userSpaceOnUse">
<stop stop-color="#8858FB"/>
<stop offset="1" stop-color="#DF5656"/>
</linearGradient>
<linearGradient id="paint6_linear_58_4" x1="-nan" y1="-nan" x2="-nan" y2="-nan" gradientUnits="userSpaceOnUse">
<stop stop-color="#8858FB"/>
<stop offset="1" stop-color="#DF5656"/>
</linearGradient>
<linearGradient id="paint7_linear_58_4" x1="154.732" y1="50.6542" x2="171.328" y2="50.6542" gradientUnits="userSpaceOnUse">
<stop stop-color="#8858FB"/>
<stop offset="1" stop-color="#DF5656"/>
</linearGradient>
<linearGradient id="paint8_linear_58_4" x1="98.0323" y1="54.5513" x2="112.027" y2="54.5513" gradientUnits="userSpaceOnUse">
<stop stop-color="#8858FB"/>
<stop offset="1" stop-color="#DF5656"/>
</linearGradient>
<linearGradient id="paint9_linear_58_4" x1="99.6393" y1="44.5699" x2="110.419" y2="44.5699" gradientUnits="userSpaceOnUse">
<stop stop-color="#8858FB"/>
<stop offset="1" stop-color="#DF5656"/>
</linearGradient>
<linearGradient id="paint10_linear_58_4" x1="115.249" y1="221.043" x2="123.318" y2="221.043" gradientUnits="userSpaceOnUse">
<stop stop-color="#8858FB"/>
<stop offset="1" stop-color="#DF5656"/>
</linearGradient>
<linearGradient id="paint11_linear_58_4" x1="114.553" y1="219.045" x2="118.212" y2="219.045" gradientUnits="userSpaceOnUse">
<stop stop-color="#8858FB"/>
<stop offset="1" stop-color="#DF5656"/>
</linearGradient>
<linearGradient id="paint12_linear_58_4" x1="114.469" y1="216.993" x2="115.218" y2="216.993" gradientUnits="userSpaceOnUse">
<stop stop-color="#8858FB"/>
<stop offset="1" stop-color="#DF5656"/>
</linearGradient>
<linearGradient id="paint13_linear_58_4" x1="118.09" y1="216.984" x2="118.913" y2="216.984" gradientUnits="userSpaceOnUse">
<stop stop-color="#8858FB"/>
<stop offset="1" stop-color="#DF5656"/>
</linearGradient>
<linearGradient id="paint14_linear_58_4" x1="113.958" y1="221.116" x2="114.782" y2="221.116" gradientUnits="userSpaceOnUse">
<stop stop-color="#8858FB"/>
<stop offset="1" stop-color="#DF5656"/>
</linearGradient>
<linearGradient id="paint15_linear_58_4" x1="-nan" y1="-nan" x2="-nan" y2="-nan" gradientUnits="userSpaceOnUse">
<stop stop-color="#8858FB"/>
<stop offset="1" stop-color="#DF5656"/>
</linearGradient>
<linearGradient id="paint16_linear_58_4" x1="-nan" y1="-nan" x2="-nan" y2="-nan" gradientUnits="userSpaceOnUse">
<stop stop-color="#8858FB"/>
<stop offset="1" stop-color="#DF5656"/>
</linearGradient>
<linearGradient id="paint17_linear_58_4" x1="86.8903" y1="220.5" x2="94.1076" y2="220.5" gradientUnits="userSpaceOnUse">
<stop stop-color="#8858FB"/>
<stop offset="1" stop-color="#DF5656"/>
</linearGradient>
<linearGradient id="paint18_linear_58_4" x1="60.8848" y1="222.118" x2="67.2798" y2="222.118" gradientUnits="userSpaceOnUse">
<stop stop-color="#8858FB"/>
<stop offset="1" stop-color="#DF5656"/>
</linearGradient>
<linearGradient id="paint19_linear_58_4" x1="61.6185" y1="217.557" x2="66.5447" y2="217.557" gradientUnits="userSpaceOnUse">
<stop stop-color="#8858FB"/>
<stop offset="1" stop-color="#DF5656"/>
</linearGradient>
<linearGradient id="paint20_linear_58_4" x1="270.249" y1="222.043" x2="278.318" y2="222.043" gradientUnits="userSpaceOnUse">
<stop stop-color="#8858FB"/>
<stop offset="1" stop-color="#DF5656"/>
</linearGradient>
<linearGradient id="paint21_linear_58_4" x1="269.553" y1="220.045" x2="273.212" y2="220.045" gradientUnits="userSpaceOnUse">
<stop stop-color="#8858FB"/>
<stop offset="1" stop-color="#DF5656"/>
</linearGradient>
<linearGradient id="paint22_linear_58_4" x1="269.469" y1="217.993" x2="270.218" y2="217.993" gradientUnits="userSpaceOnUse">
<stop stop-color="#8858FB"/>
<stop offset="1" stop-color="#DF5656"/>
</linearGradient>
<linearGradient id="paint23_linear_58_4" x1="273.09" y1="217.984" x2="273.913" y2="217.984" gradientUnits="userSpaceOnUse">
<stop stop-color="#8858FB"/>
<stop offset="1" stop-color="#DF5656"/>
</linearGradient>
<linearGradient id="paint24_linear_58_4" x1="268.958" y1="222.116" x2="269.782" y2="222.116" gradientUnits="userSpaceOnUse">
<stop stop-color="#8858FB"/>
<stop offset="1" stop-color="#DF5656"/>
</linearGradient>
<linearGradient id="paint25_linear_58_4" x1="-nan" y1="-nan" x2="-nan" y2="-nan" gradientUnits="userSpaceOnUse">
<stop stop-color="#8858FB"/>
<stop offset="1" stop-color="#DF5656"/>
</linearGradient>
<linearGradient id="paint26_linear_58_4" x1="-nan" y1="-nan" x2="-nan" y2="-nan" gradientUnits="userSpaceOnUse">
<stop stop-color="#8858FB"/>
<stop offset="1" stop-color="#DF5656"/>
</linearGradient>
<linearGradient id="paint27_linear_58_4" x1="241.89" y1="221.5" x2="249.108" y2="221.5" gradientUnits="userSpaceOnUse">
<stop stop-color="#8858FB"/>
<stop offset="1" stop-color="#DF5656"/>
</linearGradient>
<linearGradient id="paint28_linear_58_4" x1="228.213" y1="43.1454" x2="295.794" y2="54.8182" gradientUnits="userSpaceOnUse">
<stop stop-color="#FEFEFE"/>
<stop offset="0.5063" stop-color="#B3A3FD"/>
<stop offset="1" stop-color="#6D4FFC"/>
</linearGradient>
</defs>
</svg>
