<svg width="240" height="260" viewBox="0 0 240 260" fill="none" xmlns="http://www.w3.org/2000/svg">
<path d="M32.7695 0.5H203.977C205.938 0.5 207.658 2.39229 207.658 4.89941V166.825C207.657 169.23 206.009 171.039 204.135 171.039H32.6104C30.7365 171.039 29.0879 169.23 29.0879 166.826V4.89941C29.0879 2.39277 30.8076 0.5 32.7695 0.5Z" fill="#652EFF" stroke="#652EFF"/>
<path d="M33.4671 170.602C31.2856 170.602 29.5107 168.556 29.5107 166.043V5.49633C29.5107 2.98252 31.2856 0.937256 33.4671 0.937256H39.3386V2.90776C39.3386 3.78694 39.959 4.50186 40.722 4.50186H196.476C197.239 4.50186 197.859 3.78694 197.859 2.90776V0.937256H203.73C205.912 0.937256 207.687 2.98252 207.687 5.49633V166.043C207.687 168.556 205.912 170.602 203.73 170.602H33.4671Z" fill="white"/>
<g opacity="0.35">
<path d="M195.184 130.22H40.1675C39.3806 130.22 38.7427 130.858 38.7427 131.645C38.7427 132.431 39.3806 133.069 40.1675 133.069H195.184C195.971 133.069 196.608 132.431 196.608 131.645C196.608 130.858 195.971 130.22 195.184 130.22Z" fill="#B39BF9" fill-opacity="0.5"/>
<path d="M195.184 125.945H40.1675C39.3806 125.945 38.7427 126.583 38.7427 127.37C38.7427 128.157 39.3806 128.795 40.1675 128.795H195.184C195.971 128.795 196.608 128.157 196.608 127.37C196.608 126.583 195.971 125.945 195.184 125.945Z" fill="#B39BF9" fill-opacity="0.5"/>
<path d="M195.184 121.671H40.1675C39.3806 121.671 38.7427 122.309 38.7427 123.096C38.7427 123.883 39.3806 124.521 40.1675 124.521H195.184C195.971 124.521 196.608 123.883 196.608 123.096C196.608 122.309 195.971 121.671 195.184 121.671Z" fill="#B39BF9" fill-opacity="0.5"/>
<path d="M195.184 117.396H40.1675C39.3806 117.396 38.7427 118.034 38.7427 118.821C38.7427 119.608 39.3806 120.246 40.1675 120.246H195.184C195.971 120.246 196.608 119.608 196.608 118.821C196.608 118.034 195.971 117.396 195.184 117.396Z" fill="#B39BF9" fill-opacity="0.5"/>
<path d="M195.184 113.122H40.1675C39.3806 113.122 38.7427 113.76 38.7427 114.547C38.7427 115.334 39.3806 115.972 40.1675 115.972H195.184C195.971 115.972 196.608 115.334 196.608 114.547C196.608 113.76 195.971 113.122 195.184 113.122Z" fill="#B39BF9" fill-opacity="0.5"/>
<path d="M195.184 108.848H40.1675C39.3806 108.848 38.7427 109.486 38.7427 110.272C38.7427 111.059 39.3806 111.697 40.1675 111.697H195.184C195.971 111.697 196.608 111.059 196.608 110.272C196.608 109.486 195.971 108.848 195.184 108.848Z" fill="#B39BF9" fill-opacity="0.5"/>
<path d="M195.184 104.573H40.1675C39.3806 104.573 38.7427 105.211 38.7427 105.998C38.7427 106.785 39.3806 107.423 40.1675 107.423H195.184C195.971 107.423 196.608 106.785 196.608 105.998C196.608 105.211 195.971 104.573 195.184 104.573Z" fill="#B39BF9" fill-opacity="0.5"/>
<path d="M195.184 100.299H40.1675C39.3806 100.299 38.7427 100.937 38.7427 101.724C38.7427 102.511 39.3806 103.148 40.1675 103.148H195.184C195.971 103.148 196.608 102.511 196.608 101.724C196.608 100.937 195.971 100.299 195.184 100.299Z" fill="#B39BF9" fill-opacity="0.5"/>
<path d="M120.395 134.494H39.4551C39.0616 134.494 38.7427 134.813 38.7427 135.207C38.7427 135.6 39.0616 135.919 39.4551 135.919H120.395C120.788 135.919 121.107 135.6 121.107 135.207C121.107 134.813 120.789 134.494 120.395 134.494Z" fill="#B39BF9" fill-opacity="0.5"/>
</g>
<path d="M177.224 46.3089C177.103 46.3089 176.984 46.3165 176.866 46.3273C176.365 44.6852 174.858 43.4917 173.075 43.4917C170.917 43.4917 169.165 45.2432 169.113 47.4223C168.082 47.2609 166.99 47.5806 166.196 48.3877C164.871 49.7331 164.871 51.9148 166.196 53.2601C166.893 53.9681 167.819 54.4028 168.732 54.3653H177.224C179.415 54.3653 181.191 52.5624 181.191 50.3374C181.191 48.1125 179.415 46.3089 177.224 46.3089Z" stroke="url(#paint0_linear_821_2865)" stroke-miterlimit="10" stroke-linecap="round" stroke-linejoin="round"/>
<path d="M164.826 48.424C164.185 47.6627 163.796 46.6738 163.796 45.5922C163.796 43.1855 165.717 41.2351 168.087 41.2351C169.152 41.2351 170.126 41.6291 170.876 42.2805" stroke="url(#paint1_linear_821_2865)" stroke-miterlimit="10" stroke-linecap="round" stroke-linejoin="round"/>
<path d="M164.827 41.2587L163.626 39.9851" stroke="url(#paint2_linear_821_2865)" stroke-miterlimit="10" stroke-linecap="round" stroke-linejoin="round"/>
<path d="M170.942 41.2351L172.293 39.9685" stroke="url(#paint3_linear_821_2865)" stroke-miterlimit="10" stroke-linecap="round" stroke-linejoin="round"/>
<path d="M162.594 49.7116L163.946 48.4451" stroke="url(#paint4_linear_821_2865)" stroke-miterlimit="10" stroke-linecap="round" stroke-linejoin="round"/>
<path d="M168.008 40.2063V38.5845" stroke="url(#paint5_linear_821_2865)" stroke-miterlimit="10" stroke-linecap="round" stroke-linejoin="round"/>
<path d="M163.126 44.8298H161.528" stroke="url(#paint6_linear_821_2865)" stroke-miterlimit="10" stroke-linecap="round" stroke-linejoin="round"/>
<path d="M117.244 40.3071L119.54 45.0306L124.674 45.7879L120.959 49.4653L121.835 54.6564L117.244 52.2052L112.652 54.6564L113.529 49.4653L109.814 45.7879L114.948 45.0306L117.244 40.3071Z" stroke="url(#paint7_linear_821_2865)" stroke-miterlimit="10" stroke-linecap="round" stroke-linejoin="round"/>
<path d="M68.2281 45.2236H59.1651C58.2318 45.2236 57.4683 45.9998 57.4683 46.9465V55.3229C57.4683 56.2706 58.2318 57.0458 59.1651 57.0458H68.2281C69.1624 57.0458 69.9258 56.2696 69.9258 55.3229V46.9475C69.9258 45.9998 69.1624 45.2236 68.2281 45.2236ZM64.5584 53.8475H62.808L63.1385 50.7251C62.7563 50.5188 62.4914 50.1148 62.4914 49.6471C62.4914 48.9731 63.0342 48.422 63.6979 48.422C64.3608 48.422 64.9037 48.9731 64.9037 49.6471C64.9037 50.1261 64.6267 50.5385 64.2307 50.7401L64.5584 53.8475Z" stroke="url(#paint8_linear_821_2865)" stroke-miterlimit="10" stroke-linecap="round" stroke-linejoin="round"/>
<path d="M68.4435 44.1877H67.5553C67.5553 42.028 65.8253 40.2714 63.6983 40.2714C61.5712 40.2714 59.8412 42.028 59.8412 44.1877H58.9521C58.9521 41.5312 61.081 39.3696 63.6983 39.3696C66.3146 39.3696 68.4435 41.5303 68.4435 44.1877Z" stroke="url(#paint9_linear_821_2865)" stroke-miterlimit="10" stroke-linecap="round" stroke-linejoin="round"/>
<path d="M198.511 10.4634H198.362C197.923 10.4634 197.705 9.92571 198.014 9.61087L198.12 9.50431C198.312 9.30959 198.312 8.99378 198.12 8.7981L197.723 8.39608C197.531 8.2004 197.219 8.2004 197.028 8.39608L196.923 8.50264C196.614 8.81651 196.083 8.59467 196.083 8.15002V7.9989C196.083 7.72281 195.864 7.49902 195.591 7.49902H195.03C194.759 7.49902 194.538 7.72184 194.538 7.9989V8.15002C194.538 8.59467 194.008 8.81651 193.698 8.50264L193.593 8.39608C193.402 8.2004 193.091 8.2004 192.898 8.39608L192.501 8.7981C192.309 8.99378 192.309 9.30959 192.501 9.50431L192.606 9.61087C192.915 9.92571 192.697 10.4634 192.259 10.4634H192.11C191.838 10.4634 191.618 10.6871 191.618 10.9632V11.5328C191.618 11.8089 191.837 12.0327 192.11 12.0327H192.259C192.697 12.0327 192.915 12.5713 192.606 12.8852L192.501 12.9918C192.309 13.1865 192.309 13.5032 192.501 13.698L192.898 14.1009C193.09 14.2957 193.401 14.2957 193.593 14.1009L193.698 13.9934C194.008 13.6796 194.538 13.9014 194.538 14.347V14.4981C194.538 14.7733 194.758 14.998 195.03 14.998H195.591C195.863 14.998 196.083 14.7742 196.083 14.4981V14.347C196.083 13.9014 196.614 13.6796 196.923 13.9934L197.028 14.1009C197.219 14.2957 197.531 14.2957 197.723 14.1009L198.12 13.698C198.312 13.5032 198.312 13.1865 198.12 12.9918L198.014 12.8852C197.705 12.5713 197.924 12.0327 198.362 12.0327H198.511C198.782 12.0327 199.003 11.8099 199.003 11.5328V10.9632C199.003 10.6871 198.783 10.4634 198.511 10.4634ZM195.31 12.5829C194.583 12.5829 193.995 11.9852 193.995 11.2471C193.995 10.5089 194.583 9.91118 195.31 9.91118C196.037 9.91118 196.626 10.5089 196.626 11.2471C196.626 11.9852 196.037 12.5829 195.31 12.5829Z" fill="#8041FF"/>
<path d="M39.1655 8.43628H32.7031V9.37365H39.1655V8.43628Z" fill="#8041FF"/>
<path d="M39.1655 10.311H32.7031V11.2484H39.1655V10.311Z" fill="#8041FF"/>
<path d="M39.1655 12.1858H32.7031V13.1232H39.1655V12.1858Z" fill="#8041FF"/>
<path d="M204.612 119.359C212.259 119.359 218.459 125.336 218.459 132.71V181.323H202.146V188.5" stroke="#652EFF" stroke-miterlimit="10" stroke-linecap="round" stroke-linejoin="round" stroke-dasharray="2 2"/>
<path d="M23.0489 106.861C15.4011 106.861 9.20104 112.837 9.20104 120.211V181.974H46.2329V192.214" stroke="#652EFF" stroke-miterlimit="10" stroke-linecap="round" stroke-linejoin="round" stroke-dasharray="2 2"/>
<path d="M146.143 171.539V180.98C146.143 188.173 140.907 194.005 134.448 194.005C127.99 194.005 122.754 192.338 122.754 199.533V222.157" stroke="#652EFF" stroke-miterlimit="10" stroke-linecap="round" stroke-linejoin="round" stroke-dasharray="2 2"/>
<rect opacity="0.75" x="38.9927" y="18.0601" width="48.4292" height="55.7423" rx="4.75" fill="white" stroke="#652EFF" stroke-width="0.5"/>
<rect opacity="0.75" x="94.3843" y="18.0601" width="47.506" height="55.7423" rx="4.75" fill="white" stroke="#652EFF" stroke-width="0.5"/>
<rect opacity="0.75" x="148.854" y="18.0601" width="48.4292" height="55.7423" rx="4.75" fill="white" stroke="#652EFF" stroke-width="0.5"/>
<rect opacity="0.75" x="38.9927" y="79.9268" width="23.503" height="15.4353" rx="4.75" fill="white" stroke="#652EFF" stroke-width="0.5"/>
<rect opacity="0.75" x="65.7651" y="79.9268" width="23.503" height="15.4353" rx="4.75" fill="white" stroke="#652EFF" stroke-width="0.5"/>
<rect opacity="0.75" x="92.5381" y="79.9268" width="23.503" height="15.4353" rx="4.75" fill="white" stroke="#652EFF" stroke-width="0.5"/>
<rect opacity="0.75" x="120.235" y="79.9268" width="23.503" height="15.4353" rx="4.75" fill="white" stroke="#652EFF" stroke-width="0.5"/>
<rect opacity="0.75" x="147.008" y="79.9268" width="23.503" height="15.4353" rx="4.75" fill="white" stroke="#652EFF" stroke-width="0.5"/>
<rect opacity="0.75" x="173.78" y="79.9268" width="23.503" height="15.4353" rx="4.75" fill="white" stroke="#652EFF" stroke-width="0.5"/>
<rect opacity="0.75" x="38.9927" y="141.793" width="23.503" height="6.06161" rx="3.0308" fill="white" stroke="#652EFF" stroke-width="0.5"/>
<rect opacity="0.75" x="65.7651" y="141.793" width="23.503" height="6.06161" rx="3.0308" fill="white" stroke="#652EFF" stroke-width="0.5"/>
<rect opacity="0.75" x="92.5381" y="141.793" width="23.503" height="6.06161" rx="3.0308" fill="white" stroke="#652EFF" stroke-width="0.5"/>
<rect opacity="0.75" x="120.235" y="141.793" width="23.503" height="6.06161" rx="3.0308" fill="white" stroke="#652EFF" stroke-width="0.5"/>
<rect opacity="0.75" x="147.008" y="141.793" width="23.503" height="6.06161" rx="3.0308" fill="white" stroke="#652EFF" stroke-width="0.5"/>
<rect opacity="0.75" x="173.78" y="141.793" width="23.503" height="6.06161" rx="3.0308" fill="white" stroke="#652EFF" stroke-width="0.5"/>
<rect opacity="0.75" x="38.9927" y="152.104" width="23.503" height="6.06161" rx="3.0308" fill="white" stroke="#652EFF" stroke-width="0.5"/>
<rect opacity="0.75" x="65.7651" y="152.104" width="23.503" height="6.06161" rx="3.0308" fill="white" stroke="#652EFF" stroke-width="0.5"/>
<rect opacity="0.75" x="92.5381" y="152.104" width="23.503" height="6.06161" rx="3.0308" fill="white" stroke="#652EFF" stroke-width="0.5"/>
<rect opacity="0.75" x="120.235" y="152.104" width="23.503" height="6.06161" rx="3.0308" fill="white" stroke="#652EFF" stroke-width="0.5"/>
<rect opacity="0.75" x="147.008" y="152.104" width="23.503" height="6.06161" rx="3.0308" fill="white" stroke="#652EFF" stroke-width="0.5"/>
<rect opacity="0.75" x="173.78" y="152.104" width="23.503" height="6.06161" rx="3.0308" fill="white" stroke="#652EFF" stroke-width="0.5"/>
<path d="M88.336 260H4.29081C2.41427 260 0.893066 258.556 0.893066 256.776V198.918C0.893066 197.067 2.47455 195.567 4.42541 195.567H88.2021C90.153 195.567 91.7345 197.067 91.7345 198.918V256.775C91.7337 258.556 90.2125 260 88.336 260Z" fill="#652EFF"/>
<path d="M4.65415 259.817C2.80891 259.817 1.30762 258.415 1.30762 256.692V198.917C1.30762 197.193 2.80891 195.791 4.65415 195.791H9.62062V197.142C9.62062 197.745 10.1454 198.235 10.7908 198.235H81.6863C82.3316 198.235 82.8564 197.745 82.8564 197.142V195.791H87.8229C89.6681 195.791 91.1694 197.193 91.1694 198.917V256.692C91.1694 258.415 89.6681 259.817 87.8229 259.817H4.65415Z" fill="white"/>
<path d="M82.1196 253.091H10.139C9.62134 253.091 9.20166 253.51 9.20166 254.028C9.20166 254.546 9.62133 254.965 10.139 254.965H82.1196C82.6373 254.965 83.057 254.546 83.057 254.028C83.057 253.51 82.6373 253.091 82.1196 253.091Z" fill="#B39BF9" fill-opacity="0.5"/>
<path d="M82.1196 250.278H10.139C9.62134 250.278 9.20166 250.698 9.20166 251.216C9.20166 251.733 9.62133 252.153 10.139 252.153H82.1196C82.6373 252.153 83.057 251.733 83.057 251.216C83.057 250.698 82.6373 250.278 82.1196 250.278Z" fill="#B39BF9" fill-opacity="0.5"/>
<path d="M82.1196 247.466H10.139C9.62134 247.466 9.20166 247.886 9.20166 248.404C9.20166 248.921 9.62133 249.341 10.139 249.341H82.1196C82.6373 249.341 83.057 248.921 83.057 248.404C83.057 247.886 82.6373 247.466 82.1196 247.466Z" fill="#B39BF9" fill-opacity="0.5"/>
<path d="M82.1196 243.717H10.139C9.62134 243.717 9.20166 244.136 9.20166 244.654C9.20166 245.172 9.62133 245.592 10.139 245.592H82.1196C82.6373 245.592 83.057 245.172 83.057 244.654C83.057 244.136 82.6373 243.717 82.1196 243.717Z" fill="#B39BF9" fill-opacity="0.5"/>
<path d="M82.1196 239.967H10.139C9.62134 239.967 9.20166 240.387 9.20166 240.905C9.20166 241.422 9.62133 241.842 10.139 241.842H82.1196C82.6373 241.842 83.057 241.422 83.057 240.905C83.057 240.387 82.6373 239.967 82.1196 239.967Z" fill="#B39BF9" fill-opacity="0.5"/>
<path d="M47.2662 255.903H9.67035C9.4115 255.903 9.20166 256.112 9.20166 256.371C9.20166 256.63 9.4115 256.84 9.67035 256.84H47.2662C47.5251 256.84 47.7349 256.63 47.7349 256.371C47.7349 256.112 47.5251 255.903 47.2662 255.903Z" fill="#B39BF9" fill-opacity="0.5"/>
<path d="M87.184 201.666H87.1227C86.9419 201.666 86.8519 201.459 86.9792 201.337L87.0229 201.296C87.1018 201.221 87.1018 201.099 87.0229 201.024L86.8594 200.869C86.7804 200.793 86.6519 200.793 86.5729 200.869L86.5296 200.91C86.4023 201.031 86.1838 200.945 86.1838 200.774V200.716C86.1838 200.609 86.0934 200.523 85.981 200.523H85.75C85.6383 200.523 85.5472 200.609 85.5472 200.716V200.774C85.5472 200.945 85.3291 201.031 85.2013 200.91L85.1581 200.869C85.0791 200.793 84.951 200.793 84.8716 200.869L84.7081 201.024C84.6291 201.099 84.6291 201.221 84.7081 201.296L84.7514 201.337C84.8787 201.459 84.7887 201.666 84.6083 201.666H84.547C84.435 201.666 84.3442 201.752 84.3442 201.859V202.078C84.3442 202.185 84.4346 202.271 84.547 202.271H84.6083C84.7887 202.271 84.8787 202.479 84.7514 202.6L84.7081 202.641C84.6291 202.716 84.6291 202.838 84.7081 202.913L84.8716 203.068C84.9506 203.143 85.0787 203.143 85.1581 203.068L85.2013 203.027C85.3291 202.906 85.5472 202.991 85.5472 203.163V203.221C85.5472 203.328 85.6379 203.414 85.75 203.414H85.981C86.093 203.414 86.1838 203.328 86.1838 203.221V203.163C86.1838 202.991 86.4023 202.906 86.5296 203.027L86.5729 203.068C86.6519 203.143 86.7804 203.143 86.8594 203.068L87.0229 202.913C87.1018 202.838 87.1018 202.716 87.0229 202.641L86.9792 202.6C86.8519 202.479 86.9423 202.271 87.1227 202.271H87.184C87.2956 202.271 87.3868 202.185 87.3868 202.078V201.859C87.3868 201.752 87.296 201.666 87.184 201.666ZM85.8655 202.483C85.566 202.483 85.3236 202.253 85.3236 201.968C85.3236 201.683 85.566 201.453 85.8655 201.453C86.165 201.453 86.4074 201.683 86.4074 201.968C86.4074 202.253 86.165 202.483 85.8655 202.483Z" fill="#8041FF"/>
<path d="M8.71644 200.523H5.23926V200.936H8.71644V200.523Z" fill="#8041FF"/>
<path d="M8.71644 201.349H5.23926V202.175H8.71644V201.349Z" fill="#8041FF"/>
<path d="M8.71644 202.588H5.23926V203.001H8.71644V202.588Z" fill="#8041FF"/>
<path d="M74.0809 214.439C74.0257 214.439 73.9713 214.442 73.9173 214.447C73.6885 213.697 72.9997 213.151 72.1852 213.151C71.199 213.151 70.3981 213.952 70.3747 214.948C69.9033 214.874 69.4045 215.02 69.0415 215.389C68.436 216.004 68.436 217 69.0415 217.615C69.3602 217.939 69.7832 218.137 70.2005 218.12H74.0809C75.0823 218.12 75.894 217.296 75.894 216.28C75.894 215.263 75.0823 214.439 74.0809 214.439Z" stroke="url(#paint10_linear_821_2865)" stroke-miterlimit="10" stroke-linecap="round" stroke-linejoin="round"/>
<path d="M68.4156 215.405C68.1224 215.057 67.9448 214.605 67.9448 214.111C67.9448 213.011 68.8229 212.12 69.9058 212.12C70.3923 212.12 70.8376 212.3 71.1803 212.598" stroke="url(#paint11_linear_821_2865)" stroke-miterlimit="10" stroke-linecap="round" stroke-linejoin="round"/>
<path d="M68.4161 212.131L67.8672 211.549" stroke="url(#paint12_linear_821_2865)" stroke-miterlimit="10" stroke-linecap="round" stroke-linejoin="round"/>
<path d="M71.2109 212.12L71.8282 211.541" stroke="url(#paint13_linear_821_2865)" stroke-miterlimit="10" stroke-linecap="round" stroke-linejoin="round"/>
<path d="M67.396 215.994L68.0135 215.415" stroke="url(#paint14_linear_821_2865)" stroke-miterlimit="10" stroke-linecap="round" stroke-linejoin="round"/>
<path d="M69.8701 211.65V210.909" stroke="url(#paint15_linear_821_2865)" stroke-miterlimit="10" stroke-linecap="round" stroke-linejoin="round"/>
<path d="M67.6386 213.763H66.9087" stroke="url(#paint16_linear_821_2865)" stroke-miterlimit="10" stroke-linecap="round" stroke-linejoin="round"/>
<path d="M45.6677 211.846L46.6662 214.006L48.8989 214.352L47.2833 216.034L47.6643 218.408L45.6677 217.287L43.6707 218.408L44.0521 216.034L42.4365 214.352L44.6692 214.006L45.6677 211.846Z" stroke="url(#paint17_linear_821_2865)" stroke-miterlimit="10" stroke-linecap="round" stroke-linejoin="round"/>
<path d="M23.3506 213.943H19.209C18.7825 213.943 18.4336 214.297 18.4336 214.73V218.558C18.4336 218.991 18.7825 219.345 19.209 219.345H23.3506C23.7775 219.345 24.1264 218.99 24.1264 218.558V214.73C24.1264 214.297 23.7775 213.943 23.3506 213.943ZM21.6736 217.883H20.8737L21.0248 216.457C20.8501 216.362 20.729 216.178 20.729 215.964C20.729 215.656 20.9771 215.404 21.2804 215.404C21.5833 215.404 21.8314 215.656 21.8314 215.964C21.8314 216.183 21.7048 216.371 21.5238 216.463L21.6736 217.883Z" stroke="url(#paint18_linear_821_2865)" stroke-miterlimit="10" stroke-linecap="round" stroke-linejoin="round"/>
<path d="M23.4481 213.469H23.0423C23.0423 212.482 22.2517 211.68 21.2797 211.68C20.3077 211.68 19.5171 212.482 19.5171 213.469H19.1108C19.1108 212.255 20.0837 211.268 21.2797 211.268C22.4753 211.268 23.4481 212.255 23.4481 213.469Z" stroke="url(#paint19_linear_821_2865)" stroke-miterlimit="10" stroke-linecap="round" stroke-linejoin="round"/>
<rect opacity="0.5" x="9.45166" y="204.597" width="22.306" height="21.7825" rx="4.75" fill="white" stroke="#652EFF" stroke-width="0.5"/>
<rect opacity="0.5" x="35.27" y="204.597" width="21.8757" height="21.7825" rx="4.75" fill="white" stroke="#652EFF" stroke-width="0.5"/>
<rect opacity="0.5" x="60.6587" y="204.597" width="22.306" height="21.7825" rx="4.75" fill="white" stroke="#652EFF" stroke-width="0.5"/>
<rect opacity="0.5" x="9.45166" y="230.812" width="10.6878" height="6.92748" rx="1.75" fill="white" stroke="#652EFF" stroke-width="0.5"/>
<rect opacity="0.5" x="21.9312" y="230.812" width="10.6878" height="6.92748" rx="1.75" fill="white" stroke="#652EFF" stroke-width="0.5"/>
<rect opacity="0.5" x="34.4087" y="230.812" width="10.6878" height="6.92748" rx="1.75" fill="white" stroke="#652EFF" stroke-width="0.5"/>
<rect opacity="0.5" x="47.3193" y="230.812" width="10.6878" height="6.92748" rx="1.75" fill="white" stroke="#652EFF" stroke-width="0.5"/>
<rect opacity="0.5" x="59.7964" y="230.812" width="10.6878" height="6.92748" rx="1.75" fill="white" stroke="#652EFF" stroke-width="0.5"/>
<rect opacity="0.5" x="72.2759" y="230.812" width="10.6878" height="6.92748" rx="1.75" fill="white" stroke="#652EFF" stroke-width="0.5"/>
<path d="M227.37 259.504H178.096C176.22 259.504 174.699 257.961 174.699 256.059V194.239C174.699 192.261 176.28 190.657 178.231 190.657H227.236C229.187 190.657 230.768 192.26 230.768 194.239V256.058C230.768 257.961 229.246 259.504 227.37 259.504Z" fill="#652EFF"/>
<path d="M178.46 259.308C176.615 259.308 175.113 257.81 175.113 255.969V194.237C175.113 192.395 176.615 190.897 178.46 190.897H183.426V192.341C183.426 192.985 183.951 193.508 184.596 193.508H220.72C221.365 193.508 221.89 192.985 221.89 192.341V190.897H226.857C228.702 190.897 230.203 192.395 230.203 194.237V255.969C230.203 257.81 228.702 259.308 226.857 259.308H178.46Z" fill="white"/>
<path d="M227.089 198.94H227.028C226.847 198.94 226.757 198.718 226.885 198.588L226.928 198.545C227.007 198.464 227.007 198.334 226.928 198.254L226.765 198.088C226.686 198.007 226.557 198.007 226.478 198.088L226.435 198.132C226.308 198.261 226.089 198.17 226.089 197.987V197.924C226.089 197.811 225.999 197.719 225.886 197.719H225.655C225.544 197.719 225.452 197.81 225.452 197.924V197.987C225.452 198.17 225.234 198.261 225.107 198.132L225.063 198.088C224.984 198.007 224.856 198.007 224.777 198.088L224.613 198.254C224.534 198.334 224.534 198.464 224.613 198.545L224.657 198.588C224.784 198.718 224.694 198.94 224.514 198.94H224.452C224.34 198.94 224.25 199.032 224.25 199.146V199.38C224.25 199.494 224.34 199.586 224.452 199.586H224.514C224.694 199.586 224.784 199.808 224.657 199.937L224.613 199.981C224.534 200.061 224.534 200.192 224.613 200.272L224.777 200.438C224.856 200.518 224.984 200.518 225.063 200.438L225.107 200.394C225.234 200.265 225.452 200.356 225.452 200.54V200.602C225.452 200.715 225.543 200.808 225.655 200.808H225.886C225.998 200.808 226.089 200.716 226.089 200.602V200.54C226.089 200.356 226.308 200.265 226.435 200.394L226.478 200.438C226.557 200.518 226.686 200.518 226.765 200.438L226.928 200.272C227.007 200.192 227.007 200.061 226.928 199.981L226.885 199.937C226.757 199.808 226.848 199.586 227.028 199.586H227.089C227.201 199.586 227.292 199.494 227.292 199.38V199.146C227.292 199.032 227.201 198.94 227.089 198.94ZM225.771 199.813C225.471 199.813 225.229 199.567 225.229 199.263C225.229 198.958 225.471 198.712 225.771 198.712C226.07 198.712 226.313 198.958 226.313 199.263C226.313 199.567 226.07 199.813 225.771 199.813Z" fill="#8041FF"/>
<path d="M182.088 197.719H178.611V198.16H182.088V197.719Z" fill="#8041FF"/>
<path d="M182.088 198.601H178.611V199.484H182.088V198.601Z" fill="#8041FF"/>
<path d="M182.088 199.925H178.611V200.366H182.088V199.925Z" fill="#8041FF"/>
<path d="M217.177 214.439C217.121 214.439 217.067 214.442 217.013 214.447C216.784 213.697 216.095 213.151 215.281 213.151C214.295 213.151 213.494 213.952 213.47 214.948C212.999 214.874 212.5 215.02 212.137 215.389C211.532 216.004 211.532 217 212.137 217.615C212.456 217.939 212.879 218.137 213.296 218.12H217.177C218.178 218.12 218.99 217.296 218.99 216.28C218.99 215.263 218.178 214.439 217.177 214.439Z" stroke="url(#paint20_linear_821_2865)" stroke-miterlimit="10" stroke-linecap="round" stroke-linejoin="round"/>
<path d="M211.511 215.405C211.218 215.057 211.04 214.605 211.04 214.111C211.04 213.011 211.918 212.12 213.001 212.12C213.487 212.12 213.933 212.3 214.275 212.598" stroke="url(#paint21_linear_821_2865)" stroke-miterlimit="10" stroke-linecap="round" stroke-linejoin="round"/>
<path d="M211.512 212.131L210.963 211.549" stroke="url(#paint22_linear_821_2865)" stroke-miterlimit="10" stroke-linecap="round" stroke-linejoin="round"/>
<path d="M214.306 212.12L214.923 211.541" stroke="url(#paint23_linear_821_2865)" stroke-miterlimit="10" stroke-linecap="round" stroke-linejoin="round"/>
<path d="M210.492 215.994L211.109 215.415" stroke="url(#paint24_linear_821_2865)" stroke-miterlimit="10" stroke-linecap="round" stroke-linejoin="round"/>
<path d="M212.965 211.65V210.909" stroke="url(#paint25_linear_821_2865)" stroke-miterlimit="10" stroke-linecap="round" stroke-linejoin="round"/>
<path d="M210.734 213.763H210.004" stroke="url(#paint26_linear_821_2865)" stroke-miterlimit="10" stroke-linecap="round" stroke-linejoin="round"/>
<path d="M188.763 211.846L189.762 214.006L191.995 214.352L190.379 216.034L190.76 218.408L188.763 217.287L186.766 218.408L187.148 216.034L185.532 214.352L187.765 214.006L188.763 211.846Z" stroke="url(#paint27_linear_821_2865)" stroke-miterlimit="10" stroke-linecap="round" stroke-linejoin="round"/>
<g opacity="0.5">
<rect x="178.396" y="204.597" width="22.306" height="21.7825" rx="4.75" fill="white" stroke="#652EFF" stroke-width="0.5"/>
<rect x="204.215" y="204.597" width="21.8757" height="21.7825" rx="4.75" fill="white" stroke="#652EFF" stroke-width="0.5"/>
<rect x="178.396" y="230.812" width="10.6878" height="6.92748" rx="1.75" fill="white" stroke="#652EFF" stroke-width="0.5"/>
<rect x="190.876" y="230.812" width="10.6878" height="6.92748" rx="1.75" fill="white" stroke="#652EFF" stroke-width="0.5"/>
<rect x="203.353" y="230.812" width="10.6878" height="6.92748" rx="1.75" fill="white" stroke="#652EFF" stroke-width="0.5"/>
<rect x="216.264" y="230.812" width="10.6878" height="6.92748" rx="1.75" fill="white" stroke="#652EFF" stroke-width="0.5"/>
<rect x="178.396" y="239.987" width="10.6878" height="6.92748" rx="1.75" fill="white" stroke="#652EFF" stroke-width="0.5"/>
<rect x="190.876" y="239.987" width="10.6878" height="6.92748" rx="1.75" fill="white" stroke="#652EFF" stroke-width="0.5"/>
<rect x="203.353" y="239.987" width="10.6878" height="6.92748" rx="1.75" fill="white" stroke="#652EFF" stroke-width="0.5"/>
<rect x="216.264" y="239.987" width="10.6878" height="6.92748" rx="1.75" fill="white" stroke="#652EFF" stroke-width="0.5"/>
<rect x="178.396" y="248.725" width="10.6878" height="6.92748" rx="1.75" fill="white" stroke="#652EFF" stroke-width="0.5"/>
<rect x="190.876" y="248.725" width="10.6878" height="6.92748" rx="1.75" fill="white" stroke="#652EFF" stroke-width="0.5"/>
<rect x="203.353" y="248.725" width="10.6878" height="6.92748" rx="1.75" fill="white" stroke="#652EFF" stroke-width="0.5"/>
<rect x="216.264" y="248.725" width="10.6878" height="6.92748" rx="1.75" fill="white" stroke="#652EFF" stroke-width="0.5"/>
</g>
<path d="M134.587 259.439H113.281C111.83 259.439 110.653 258.263 110.653 256.814V206.352C110.653 204.845 111.876 203.623 113.385 203.623H134.483C135.992 203.623 137.216 204.845 137.216 206.352V256.813C137.215 258.263 136.038 259.439 134.587 259.439Z" fill="#652EFF"/>
<path d="M113.562 259.29C112.135 259.29 110.974 258.148 110.974 256.746V206.35C110.974 204.948 112.135 203.806 113.562 203.806H117.404V204.906C117.404 205.396 117.81 205.795 118.31 205.795H129.443C129.942 205.795 130.348 205.396 130.348 204.906V203.806H134.19C135.617 203.806 136.779 204.948 136.779 206.35V256.746C136.779 258.148 135.617 259.29 134.19 259.29H113.562Z" fill="white"/>
<path d="M133.72 208.589H133.679C133.559 208.589 133.5 208.42 133.584 208.321L133.613 208.288C133.665 208.226 133.665 208.127 133.613 208.066L133.505 207.94C133.452 207.878 133.367 207.878 133.315 207.94L133.286 207.973C133.202 208.072 133.057 208.002 133.057 207.863V207.815C133.057 207.728 132.997 207.658 132.922 207.658H132.769C132.695 207.658 132.635 207.728 132.635 207.815V207.863C132.635 208.002 132.49 208.072 132.405 207.973L132.377 207.94C132.324 207.878 132.239 207.878 132.187 207.94L132.078 208.066C132.026 208.127 132.026 208.226 132.078 208.288L132.107 208.321C132.191 208.42 132.132 208.589 132.012 208.589H131.971C131.897 208.589 131.837 208.659 131.837 208.745V208.924C131.837 209.011 131.897 209.081 131.971 209.081H132.012C132.132 209.081 132.191 209.25 132.107 209.349L132.078 209.382C132.026 209.443 132.026 209.543 132.078 209.604L132.187 209.73C132.239 209.791 132.324 209.791 132.377 209.73L132.405 209.697C132.49 209.598 132.635 209.668 132.635 209.808V209.855C132.635 209.941 132.695 210.012 132.769 210.012H132.922C132.996 210.012 133.057 209.942 133.057 209.855V209.808C133.057 209.668 133.202 209.598 133.286 209.697L133.315 209.73C133.367 209.791 133.452 209.791 133.505 209.73L133.613 209.604C133.665 209.543 133.665 209.443 133.613 209.382L133.584 209.349C133.5 209.25 133.56 209.081 133.679 209.081H133.72C133.794 209.081 133.854 209.011 133.854 208.924V208.745C133.854 208.659 133.794 208.589 133.72 208.589ZM132.846 209.254C132.647 209.254 132.486 209.066 132.486 208.835C132.486 208.603 132.647 208.415 132.846 208.415C133.044 208.415 133.205 208.603 133.205 208.835C133.205 209.066 133.044 209.254 132.846 209.254Z" fill="#8041FF"/>
<path d="M116.033 207.658H113.343V207.994H116.033V207.658Z" fill="#8041FF"/>
<path d="M116.033 208.331H113.343V209.003H116.033V208.331Z" fill="#8041FF"/>
<path d="M116.033 209.339H113.343V209.676H116.033V209.339Z" fill="#8041FF"/>
<path d="M133.908 252.228H114.373C113.859 252.228 113.443 252.644 113.443 253.158C113.443 253.672 113.859 254.088 114.373 254.088H133.908C134.422 254.088 134.839 253.672 134.839 253.158C134.839 252.644 134.422 252.228 133.908 252.228Z" fill="#B39BF9" fill-opacity="0.5"/>
<path d="M133.908 249.437H114.373C113.859 249.437 113.443 249.853 113.443 250.367C113.443 250.881 113.859 251.297 114.373 251.297H133.908C134.422 251.297 134.839 250.881 134.839 250.367C134.839 249.853 134.422 249.437 133.908 249.437Z" fill="#B39BF9" fill-opacity="0.5"/>
<path d="M133.908 246.646H114.373C113.859 246.646 113.443 247.062 113.443 247.576C113.443 248.09 113.859 248.507 114.373 248.507H133.908C134.422 248.507 134.839 248.09 134.839 247.576C134.839 247.062 134.422 246.646 133.908 246.646Z" fill="#B39BF9" fill-opacity="0.5"/>
<path d="M133.908 243.855H114.373C113.859 243.855 113.443 244.272 113.443 244.785C113.443 245.299 113.859 245.716 114.373 245.716H133.908C134.422 245.716 134.839 245.299 134.839 244.785C134.839 244.272 134.422 243.855 133.908 243.855Z" fill="#B39BF9" fill-opacity="0.5"/>
<path d="M133.908 241.064H114.373C113.859 241.064 113.443 241.481 113.443 241.995C113.443 242.508 113.859 242.925 114.373 242.925H133.908C134.422 242.925 134.839 242.508 134.839 241.995C134.839 241.481 134.422 241.064 133.908 241.064Z" fill="#B39BF9" fill-opacity="0.5"/>
<path d="M133.908 238.274H114.373C113.859 238.274 113.443 238.69 113.443 239.204C113.443 239.718 113.859 240.134 114.373 240.134H133.908C134.422 240.134 134.839 239.718 134.839 239.204C134.839 238.69 134.422 238.274 133.908 238.274Z" fill="#B39BF9" fill-opacity="0.5"/>
<path d="M133.908 235.483H114.373C113.859 235.483 113.443 235.899 113.443 236.413C113.443 236.927 113.859 237.343 114.373 237.343H133.908C134.422 237.343 134.839 236.927 134.839 236.413C134.839 235.899 134.422 235.483 133.908 235.483Z" fill="#B39BF9" fill-opacity="0.5"/>
<path d="M133.908 232.692H114.373C113.859 232.692 113.443 233.109 113.443 233.622C113.443 234.136 113.859 234.553 114.373 234.553H133.908C134.422 234.553 134.839 234.136 134.839 233.622C134.839 233.109 134.422 232.692 133.908 232.692Z" fill="#B39BF9" fill-opacity="0.5"/>
<path d="M124.141 255.018H113.908C113.651 255.018 113.443 255.227 113.443 255.483C113.443 255.74 113.651 255.949 113.908 255.949H124.141C124.398 255.949 124.606 255.74 124.606 255.483C124.606 255.227 124.398 255.018 124.141 255.018Z" fill="#B39BF9" fill-opacity="0.5"/>
<rect x="113.692" y="212.246" width="20.8959" height="19.0354" rx="4.75" fill="white" stroke="#652EFF" stroke-width="0.5"/>
<path d="M29.5103 101.769C32.3096 101.769 34.5825 104.047 34.5825 106.861C34.5823 109.674 32.3094 111.952 29.5103 111.952C26.7112 111.951 24.4392 109.674 24.439 106.861C24.439 104.047 26.7111 101.769 29.5103 101.769Z" fill="white" stroke="#642CFF"/>
<path d="M29.511 109.389C30.9023 109.389 32.0302 108.257 32.0302 106.86C32.0302 105.464 30.9023 104.332 29.511 104.332C28.1196 104.332 26.9917 105.464 26.9917 106.86C26.9917 108.257 28.1196 109.389 29.511 109.389Z" fill="#642CFF"/>
<path d="M206.771 114.892C209.57 114.892 211.843 117.171 211.843 119.984C211.843 122.798 209.57 125.075 206.771 125.075C203.972 125.075 201.7 122.797 201.7 119.984C201.7 117.171 203.972 114.893 206.771 114.892Z" fill="white" stroke="#652EFF"/>
<path d="M206.773 122.512C208.164 122.512 209.292 121.38 209.292 119.984C209.292 118.587 208.164 117.456 206.773 117.456C205.381 117.456 204.253 118.587 204.253 119.984C204.253 121.38 205.381 122.512 206.773 122.512Z" fill="#652EFF"/>
<path d="M202.629 185.286C205.428 185.286 207.701 187.564 207.701 190.377C207.701 193.191 205.428 195.468 202.629 195.468C199.83 195.468 197.558 193.191 197.558 190.377C197.558 187.564 199.83 185.286 202.629 185.286Z" fill="white" stroke="#652EFF"/>
<path d="M202.63 192.905C204.021 192.905 205.149 191.773 205.149 190.377C205.149 188.981 204.021 187.849 202.63 187.849C201.239 187.849 200.111 188.981 200.111 190.377C200.111 191.773 201.239 192.905 202.63 192.905Z" fill="#652EFF"/>
<path d="M123.479 199.256C126.278 199.256 128.551 201.534 128.551 204.348C128.551 207.161 126.278 209.438 123.479 209.438C120.68 209.438 118.408 207.161 118.408 204.348C118.408 201.534 120.68 199.256 123.479 199.256Z" fill="white" stroke="#652EFF"/>
<path d="M123.48 206.875C124.872 206.875 125.999 205.743 125.999 204.347C125.999 202.951 124.872 201.819 123.48 201.819C122.089 201.819 120.961 202.951 120.961 204.347C120.961 205.743 122.089 206.875 123.48 206.875Z" fill="#652EFF"/>
<path d="M46.2524 190.857C49.0518 190.857 51.3247 193.135 51.3247 195.949C51.3245 198.762 49.0516 201.04 46.2524 201.04C43.4534 201.04 41.1814 198.762 41.1812 195.949C41.1812 193.136 43.4533 190.857 46.2524 190.857Z" fill="white" stroke="#652EFF"/>
<path d="M46.2536 198.477C47.645 198.477 48.7729 197.345 48.7729 195.949C48.7729 194.552 47.645 193.42 46.2536 193.42C44.8623 193.42 43.7344 194.552 43.7344 195.949C43.7344 197.345 44.8623 198.477 46.2536 198.477Z" fill="#652EFF"/>
<path d="M204.554 77.8036C204.384 77.8036 204.213 77.785 204.043 77.7468L199.677 76.7761C199.059 76.6395 198.531 76.2656 198.19 75.7256C197.849 75.1855 197.735 74.5419 197.87 73.9144L199.121 68.1065C196.207 66.8255 193.62 64.997 191.424 62.6678L186.495 65.8751C185.963 66.2224 185.328 66.337 184.712 66.1998C184.094 66.0626 183.566 65.6893 183.225 65.1487L180.813 61.3272C180.108 60.2118 180.429 58.7219 181.529 58.0065L186.458 54.7992C185.29 51.8015 184.735 48.6509 184.806 45.4269L179.086 44.1557C177.81 43.8727 177 42.5883 177.279 41.294L178.235 36.8602C178.369 36.2328 178.737 35.6962 179.269 35.35C179.801 35.0039 180.435 34.8876 181.053 35.0259L186.773 36.2959C188.035 33.3375 189.835 30.7107 192.129 28.4805L188.971 23.476C188.629 22.9354 188.516 22.2917 188.651 21.6648C188.786 21.0374 189.154 20.5008 189.686 20.1552L193.449 17.7062C194.549 16.9914 196.016 17.3167 196.72 18.4332L199.879 23.4372C202.833 22.2518 205.943 21.688 209.11 21.7598L210.361 15.9524C210.497 15.3249 210.864 14.7884 211.397 14.4422C211.929 14.0949 212.56 13.9792 213.18 14.1175L217.547 15.0876C218.165 15.2248 218.693 15.5981 219.034 16.1388C219.375 16.6794 219.488 17.3225 219.353 17.9499L218.102 23.7579C221.017 25.0394 223.604 26.8673 225.8 29.1965L230.728 25.9898C231.829 25.275 233.295 25.6008 233.999 26.7162L236.411 30.5377C237.115 31.6531 236.795 33.143 235.695 33.8584L230.766 37.0663C231.934 40.0646 232.489 43.2151 232.419 46.4386L238.138 47.7097C238.756 47.8463 239.285 48.2203 239.625 48.7603C239.966 49.3004 240.08 49.944 239.945 50.5721L238.99 55.0047C238.711 56.299 237.446 57.1261 236.171 56.8396L230.451 55.5691C229.189 58.5286 227.388 61.1559 225.094 63.3844L228.253 68.3889C228.594 68.9296 228.707 69.5726 228.572 70.1995C228.437 70.827 228.07 71.3635 227.537 71.7097L223.774 74.1587C222.676 74.8741 221.208 74.5471 220.504 73.4317L217.345 68.4271C214.392 69.6131 211.292 70.1775 208.114 70.1046L206.862 75.9125C206.727 76.54 206.359 77.0766 205.827 77.4227C205.441 77.6733 205.002 77.8036 204.554 77.8036ZM191.469 62.005C191.546 62.005 191.622 62.0363 191.677 62.0965C193.906 64.5085 196.558 66.3827 199.561 67.6677C199.688 67.7221 199.759 67.8599 199.729 67.9959L198.427 74.0377C198.324 74.5141 198.41 75.0026 198.67 75.413C198.929 75.8234 199.329 76.107 199.799 76.2112L204.165 77.1819C204.635 77.2843 205.114 77.1975 205.519 76.9353C205.923 76.672 206.203 76.265 206.305 75.7892L207.607 69.7474C207.637 69.6114 207.749 69.5246 207.895 69.5194C211.156 69.6311 214.334 69.0476 217.351 67.8008C217.478 67.7476 217.624 67.7945 217.698 67.9126L220.984 73.1185C221.519 73.9654 222.633 74.2131 223.467 73.6702L227.23 71.2211C227.635 70.9578 227.914 70.5509 228.017 70.0751C228.119 69.5987 228.033 69.1102 227.774 68.6998L224.488 63.4938C224.414 63.3769 224.433 63.2217 224.533 63.1268C226.908 60.8642 228.754 58.1703 230.019 55.121C230.072 54.992 230.21 54.9214 230.342 54.9509L236.293 56.2729C237.265 56.4848 238.221 55.8625 238.433 54.8797L239.389 50.447C239.491 49.9706 239.405 49.4821 239.146 49.0717C238.887 48.6613 238.486 48.3777 238.017 48.2735L232.067 46.9515C231.933 46.9214 231.838 46.7987 231.842 46.6598C231.947 43.3529 231.377 40.1231 230.149 37.0587C230.097 36.9291 230.143 36.7815 230.259 36.7062L235.386 33.3693C235.791 33.1059 236.069 32.699 236.173 32.2226C236.275 31.7468 236.189 31.2583 235.93 30.8479L233.518 27.0265C232.982 26.1797 231.869 25.9331 231.034 26.4755L225.908 29.8118C225.793 29.8882 225.64 29.8685 225.546 29.7661C223.317 27.3547 220.664 25.4805 217.661 24.1955C217.535 24.1411 217.464 24.0033 217.494 23.8673L218.796 17.8255C219.008 16.8426 218.393 15.8673 217.424 15.652L213.058 14.6819C212.088 14.4648 211.129 15.0917 210.917 16.0751L209.615 22.1163C209.586 22.2523 209.466 22.3426 209.328 22.3444C206.068 22.2332 202.891 22.8161 199.872 24.0629C199.746 24.1167 199.599 24.0693 199.525 23.9512L196.239 18.7458C195.704 17.899 194.592 17.6507 193.755 18.1942L189.992 20.6432C189.588 20.906 189.309 21.3129 189.206 21.7893C189.103 22.2651 189.19 22.7536 189.449 23.1646L192.735 28.37C192.81 28.4869 192.791 28.6414 192.69 28.7369C190.314 31.0013 188.468 33.6946 187.203 36.7427C187.15 36.8718 187.011 36.9418 186.88 36.9129L180.93 35.5914C180.461 35.4866 179.98 35.5746 179.575 35.838C179.171 36.1008 178.892 36.5077 178.789 36.9835L177.833 41.4173C177.622 42.4002 178.237 43.3755 179.205 43.5908L185.156 44.9129C185.29 44.943 185.384 45.0657 185.38 45.2046C185.275 48.512 185.845 51.7424 187.073 54.8056C187.125 54.9352 187.079 55.0829 186.963 55.1581L181.836 58.4944C181.001 59.0374 180.757 60.169 181.292 61.0158L183.704 64.8372C183.964 65.2476 184.364 65.5313 184.833 65.6354C185.302 65.7402 185.783 65.6517 186.188 65.3889L191.315 62.0519C191.363 62.0195 191.416 62.005 191.469 62.005ZM208.618 58.4962C207.92 58.4962 207.215 58.436 206.505 58.3121C199.781 57.1319 195.257 50.6178 196.419 43.7917C197.582 36.9655 203.997 32.3743 210.719 33.5505C213.977 34.1218 216.819 35.9474 218.724 38.6899C220.63 41.4324 221.368 44.7641 220.806 48.0709C219.766 54.177 214.525 58.4962 208.618 58.4962ZM206.602 57.7414C213.017 58.8724 219.135 54.4843 220.244 47.9725C220.781 44.8179 220.075 41.6396 218.259 39.0233C216.442 36.407 213.73 34.6664 210.623 34.1212C204.207 32.9896 198.09 37.3783 196.981 43.8901C195.872 50.4019 200.189 56.6156 206.602 57.7414Z" fill="url(#paint28_linear_821_2865)"/>
<path d="M217.263 97.7596C217.008 97.7596 216.801 97.5496 216.801 97.2909V94.206C216.801 93.9473 217.008 93.7373 217.263 93.7373C217.518 93.7373 217.724 93.9473 217.724 94.206V97.2909C217.724 97.5496 217.519 97.7596 217.263 97.7596Z" fill="#775BFC"/>
<path d="M217.263 105.681C217.008 105.681 216.801 105.471 216.801 105.213V102.128C216.801 101.869 217.008 101.659 217.263 101.659C217.518 101.659 217.724 101.869 217.724 102.128V105.213C217.724 105.472 217.519 105.681 217.263 105.681Z" fill="#775BFC"/>
<path d="M222.683 100.178H219.645C219.39 100.178 219.183 99.9679 219.183 99.7092C219.183 99.4504 219.39 99.2405 219.645 99.2405H222.683C222.938 99.2405 223.145 99.4504 223.145 99.7092C223.145 99.9679 222.939 100.178 222.683 100.178Z" fill="#775BFC"/>
<path d="M214.879 100.178H211.841C211.586 100.178 211.379 99.9679 211.379 99.7092C211.379 99.4504 211.586 99.2405 211.841 99.2405H214.879C215.134 99.2405 215.341 99.4504 215.341 99.7092C215.341 99.9679 215.135 100.178 214.879 100.178Z" fill="#775BFC"/>
<path d="M213.43 104.069C213.312 104.069 213.194 104.023 213.103 103.932C212.923 103.749 212.923 103.452 213.103 103.27L215.252 101.088C215.432 100.905 215.724 100.905 215.904 101.088C216.084 101.271 216.084 101.568 215.904 101.751L213.756 103.932C213.666 104.024 213.548 104.069 213.43 104.069Z" fill="#775BFC"/>
<path d="M218.947 98.4683C218.829 98.4683 218.71 98.4223 218.62 98.3314C218.44 98.1486 218.44 97.8515 218.62 97.6687L220.768 95.4874C220.948 95.3046 221.241 95.3046 221.421 95.4874C221.601 95.6702 221.601 95.9674 221.421 96.1502L219.273 98.3314C219.183 98.4223 219.065 98.4683 218.947 98.4683Z" fill="#775BFC"/>
<path d="M215.578 98.4683C215.46 98.4683 215.342 98.4223 215.252 98.3314L213.103 96.1502C212.923 95.9674 212.923 95.6702 213.103 95.4874C213.283 95.3046 213.576 95.3046 213.756 95.4874L215.904 97.6687C216.084 97.8515 216.084 98.1486 215.904 98.3314C215.815 98.4223 215.697 98.4683 215.578 98.4683Z" fill="#775BFC"/>
<path d="M221.095 104.069C220.977 104.069 220.859 104.023 220.768 103.932L218.62 101.751C218.44 101.568 218.44 101.271 218.62 101.088C218.8 100.905 219.093 100.905 219.273 101.088L221.421 103.27C221.601 103.452 221.601 103.749 221.421 103.932C221.331 104.024 221.213 104.069 221.095 104.069Z" fill="#775BFC"/>
<path d="M9.54412 16.208C9.28931 16.208 9.08252 15.9981 9.08252 15.7394V12.6545C9.08252 12.3958 9.28931 12.1858 9.54412 12.1858C9.79892 12.1858 10.0057 12.3958 10.0057 12.6545V15.7394C10.0057 15.9981 9.79984 16.208 9.54412 16.208Z" fill="#775BFC"/>
<path d="M9.54412 24.1297C9.28931 24.1297 9.08252 23.9197 9.08252 23.661V20.5761C9.08252 20.3174 9.28931 20.1074 9.54412 20.1074C9.79892 20.1074 10.0057 20.3174 10.0057 20.5761V23.661C10.0057 23.9207 9.79984 24.1297 9.54412 24.1297Z" fill="#775BFC"/>
<path d="M14.9637 18.6263H11.9255C11.6707 18.6263 11.4639 18.4164 11.4639 18.1577C11.4639 17.8989 11.6707 17.689 11.9255 17.689H14.9637C15.2185 17.689 15.4253 17.8989 15.4253 18.1577C15.4253 18.4164 15.2194 18.6263 14.9637 18.6263Z" fill="#775BFC"/>
<path d="M7.16047 18.6263H4.12224C3.86744 18.6263 3.66064 18.4164 3.66064 18.1577C3.66064 17.8989 3.86744 17.689 4.12224 17.689H7.16047C7.41527 17.689 7.62206 17.8989 7.62206 18.1577C7.62206 18.4164 7.41619 18.6263 7.16047 18.6263Z" fill="#775BFC"/>
<path d="M5.71133 22.5176C5.59316 22.5176 5.475 22.4717 5.38453 22.3808C5.20451 22.198 5.20451 21.9008 5.38453 21.718L7.53279 19.5367C7.71281 19.354 8.00547 19.354 8.18549 19.5367C8.36551 19.7195 8.36551 20.0167 8.18549 20.1995L6.03723 22.3808C5.94768 22.4726 5.8295 22.5176 5.71133 22.5176Z" fill="#775BFC"/>
<path d="M11.2275 16.9168C11.1093 16.9168 10.9911 16.8708 10.9006 16.7799C10.7206 16.5971 10.7206 16.3 10.9006 16.1172L13.0489 13.9359C13.2289 13.7531 13.5216 13.7531 13.7016 13.9359C13.8816 14.1187 13.8816 14.4159 13.7016 14.5986L11.5533 16.7799C11.4638 16.8708 11.3456 16.9168 11.2275 16.9168Z" fill="#775BFC"/>
<path d="M7.85961 16.9168C7.74144 16.9168 7.62327 16.8708 7.53279 16.7799L5.38453 14.5986C5.20451 14.4159 5.20451 14.1187 5.38453 13.9359C5.56455 13.7531 5.8572 13.7531 6.03723 13.9359L8.18549 16.1172C8.36551 16.3 8.36551 16.5971 8.18549 16.7799C8.09594 16.8708 7.97777 16.9168 7.85961 16.9168Z" fill="#775BFC"/>
<path d="M13.3757 22.5176C13.2576 22.5176 13.1394 22.4717 13.0489 22.3808L10.9006 20.1995C10.7206 20.0167 10.7206 19.7195 10.9006 19.5367C11.0807 19.354 11.3733 19.354 11.5533 19.5367L13.7016 21.718C13.8816 21.9008 13.8816 22.198 13.7016 22.3808C13.6121 22.4726 13.4939 22.5176 13.3757 22.5176Z" fill="#775BFC"/>
<path d="M158.179 231.804C157.925 231.804 157.718 231.594 157.718 231.335V228.25C157.718 227.991 157.925 227.781 158.179 227.781C158.434 227.781 158.641 227.991 158.641 228.25V231.335C158.641 231.594 158.435 231.804 158.179 231.804Z" fill="#775BFC"/>
<path d="M158.179 239.726C157.925 239.726 157.718 239.516 157.718 239.257V236.172C157.718 235.913 157.925 235.703 158.179 235.703C158.434 235.703 158.641 235.913 158.641 236.172V239.257C158.641 239.517 158.435 239.726 158.179 239.726Z" fill="#775BFC"/>
<path d="M163.599 234.222H160.561C160.306 234.222 160.1 234.012 160.1 233.753C160.1 233.495 160.306 233.285 160.561 233.285H163.599C163.854 233.285 164.061 233.495 164.061 233.753C164.061 234.012 163.855 234.222 163.599 234.222Z" fill="#775BFC"/>
<path d="M155.799 234.222H152.76C152.506 234.222 152.299 234.012 152.299 233.753C152.299 233.495 152.506 233.285 152.76 233.285H155.799C156.053 233.285 156.26 233.495 156.26 233.753C156.26 234.012 156.054 234.222 155.799 234.222Z" fill="#775BFC"/>
<path d="M154.346 238.113C154.228 238.113 154.11 238.067 154.019 237.976C153.839 237.794 153.839 237.497 154.019 237.314L156.168 235.132C156.348 234.95 156.64 234.95 156.82 235.132C157 235.315 157 235.612 156.82 235.795L154.672 237.976C154.582 238.068 154.464 238.113 154.346 238.113Z" fill="#775BFC"/>
<path d="M159.864 232.512C159.746 232.512 159.627 232.467 159.537 232.376C159.357 232.193 159.357 231.896 159.537 231.713L161.685 229.532C161.865 229.349 162.158 229.349 162.338 229.532C162.518 229.714 162.518 230.012 162.338 230.194L160.19 232.376C160.1 232.467 159.982 232.512 159.864 232.512Z" fill="#775BFC"/>
<path d="M156.494 232.512C156.376 232.512 156.258 232.467 156.168 232.376L154.019 230.194C153.839 230.012 153.839 229.714 154.019 229.532C154.199 229.349 154.492 229.349 154.672 229.532L156.82 231.713C157 231.896 157 232.193 156.82 232.376C156.731 232.467 156.613 232.512 156.494 232.512Z" fill="#775BFC"/>
<path d="M162.012 238.113C161.894 238.113 161.776 238.067 161.685 237.976L159.537 235.795C159.357 235.612 159.357 235.315 159.537 235.132C159.717 234.95 160.01 234.95 160.19 235.132L162.338 237.314C162.518 237.497 162.518 237.794 162.338 237.976C162.248 238.068 162.13 238.113 162.012 238.113Z" fill="#775BFC"/>
<path d="M164.286 187.463C164.194 187.463 164.112 187.413 164.069 187.333L163.218 185.742L161.656 184.87C161.577 184.826 161.528 184.741 161.528 184.65C161.529 184.558 161.578 184.474 161.658 184.43L163.224 183.566L164.083 181.98C164.126 181.9 164.209 181.85 164.299 181.85C164.39 181.85 164.473 181.901 164.516 181.981L165.367 183.571L166.929 184.444C167.008 184.488 167.057 184.572 167.057 184.664C167.057 184.756 167.007 184.84 166.927 184.884L165.361 185.748L164.502 187.333C164.459 187.414 164.376 187.463 164.286 187.463ZM162.29 184.652L163.519 185.339C163.56 185.362 163.594 185.397 163.617 185.439L164.287 186.69L164.963 185.442C164.986 185.401 165.02 185.366 165.062 185.343L166.295 184.663L165.065 183.976C165.024 183.953 164.99 183.918 164.968 183.876L164.298 182.624L163.621 183.872C163.598 183.914 163.564 183.948 163.522 183.971L162.29 184.652Z" fill="#5800B5"/>
<path d="M102.431 230.582H102.431C102.34 230.582 102.257 230.531 102.215 230.451L101.363 228.861L99.8017 227.988C99.7227 227.944 99.6738 227.86 99.6738 227.768C99.6738 227.677 99.7237 227.592 99.8027 227.549L101.369 226.684L102.228 225.099C102.272 225.019 102.355 224.969 102.445 224.969H102.445C102.535 224.969 102.618 225.02 102.661 225.1L103.513 226.69L105.074 227.563C105.153 227.607 105.202 227.692 105.202 227.783C105.202 227.875 105.152 227.959 105.073 228.003L103.507 228.867L102.648 230.452C102.604 230.532 102.521 230.582 102.431 230.582ZM100.435 227.77L101.665 228.458C101.706 228.481 101.74 228.515 101.762 228.557L102.432 229.809L103.109 228.561C103.132 228.519 103.166 228.485 103.207 228.462L104.441 227.781L103.211 227.095C103.17 227.071 103.136 227.037 103.114 226.995L102.444 225.742L101.767 226.991C101.744 227.032 101.71 227.067 101.668 227.09L100.435 227.77Z" fill="#5800B5"/>
<path d="M227.352 122.441C227.26 122.441 227.178 122.39 227.135 122.31L225.856 119.92L223.51 118.609C223.431 118.565 223.382 118.481 223.382 118.389C223.382 118.298 223.432 118.213 223.511 118.17L225.865 116.871L227.156 114.489C227.199 114.409 227.282 114.359 227.372 114.359H227.373C227.463 114.359 227.546 114.41 227.589 114.49L228.868 116.88L231.214 118.191C231.293 118.235 231.343 118.32 231.342 118.411C231.342 118.503 231.292 118.587 231.213 118.631L228.859 119.929L227.568 122.312C227.525 122.391 227.442 122.441 227.352 122.441ZM224.144 118.391L226.158 119.516C226.199 119.539 226.233 119.574 226.255 119.616L227.353 121.667L228.462 119.622C228.485 119.58 228.519 119.546 228.56 119.523L230.581 118.408L228.566 117.282C228.525 117.259 228.491 117.224 228.469 117.182L227.371 115.131L226.262 117.176C226.239 117.218 226.205 117.252 226.164 117.275L224.144 118.391Z" fill="#5800B5"/>
<path d="M159.036 210.554C158.924 210.563 158.863 210.504 158.82 210.424L157.541 208.034L155.195 206.722C155.116 206.678 155.067 206.594 155.067 206.502C155.067 206.411 155.117 206.326 155.196 206.283L157.549 204.984L158.841 202.602C158.884 202.522 158.957 202.482 159.058 202.472C159.148 202.472 159.231 202.523 159.274 202.603L160.553 204.993L162.899 206.304C162.978 206.349 163.027 206.433 163.027 206.524C163.027 206.616 162.977 206.7 162.898 206.744L160.544 208.042L159.253 210.425C159.209 210.505 159.126 210.554 159.036 210.554ZM155.828 206.504L157.842 207.63C157.883 207.653 157.917 207.688 157.94 207.73L159.038 209.781L160.146 207.736C160.169 207.695 160.203 207.66 160.245 207.637L162.265 206.522L160.25 205.397C160.21 205.373 160.175 205.339 160.153 205.297L159.055 203.245L157.946 205.291C157.924 205.332 157.89 205.367 157.848 205.39L155.828 206.504Z" fill="#5800B5"/>
<path d="M8.27364 45.9378C8.20057 45.9338 8.09985 45.8872 8.0569 45.8069L7.20276 44.2108L5.63569 43.335C5.55669 43.2909 5.50781 43.2067 5.50781 43.1149C5.50781 43.0232 5.55768 42.939 5.63667 42.8954L7.20868 42.0281L8.07122 40.437C8.11467 40.3568 8.19761 40.3071 8.28747 40.3071C8.37782 40.3071 8.46126 40.3578 8.50421 40.438L9.35835 42.0341L10.9254 42.9099C11.0044 42.954 11.0533 43.0382 11.0533 43.13C11.0533 43.2217 11.0034 43.3059 10.9244 43.3496L9.35243 44.2168L8.48989 45.808C8.44645 45.8882 8.3635 45.9378 8.27364 45.9378ZM6.26864 43.1164L7.50393 43.8067C7.54491 43.8298 7.57897 43.8644 7.60169 43.9065L8.27463 45.1643L8.95449 43.91C8.9772 43.8684 9.01126 43.8338 9.05274 43.8108L10.2915 43.1275L9.05619 42.4372C9.01521 42.4141 8.98115 42.3795 8.95843 42.3374L8.28549 41.0796L7.60564 42.3339C7.58293 42.3755 7.54886 42.4101 7.50739 42.4332L6.26864 43.1164Z" fill="#5800B5"/>
<path d="M214.381 2.06813C214.244 2.06813 214.134 1.95584 214.134 1.81748V0.250897C214.134 0.112537 214.244 0.000244141 214.381 0.000244141C214.517 0.000244141 214.628 0.112537 214.628 0.250897V1.81748C214.628 1.95584 214.517 2.06813 214.381 2.06813Z" fill="#5800B5"/>
<path d="M214.381 6.09206C214.244 6.09206 214.134 5.97976 214.134 5.8414V4.27482C214.134 4.13646 214.244 4.02417 214.381 4.02417C214.517 4.02417 214.628 4.13646 214.628 4.27482V5.8414C214.628 5.98026 214.517 6.09206 214.381 6.09206Z" fill="#5800B5"/>
<path d="M217.134 3.29647H215.591C215.454 3.29647 215.344 3.18418 215.344 3.04582C215.344 2.90746 215.454 2.79517 215.591 2.79517H217.134C217.27 2.79517 217.381 2.90746 217.381 3.04582C217.381 3.18418 217.271 3.29647 217.134 3.29647Z" fill="#5800B5"/>
<path d="M213.17 3.29647H211.626C211.49 3.29647 211.379 3.18418 211.379 3.04582C211.379 2.90746 211.49 2.79517 211.626 2.79517H213.17C213.306 2.79517 213.417 2.90746 213.417 3.04582C213.417 3.18418 213.306 3.29647 213.17 3.29647Z" fill="#5800B5"/>
<path d="M212.434 5.27337C212.371 5.27337 212.308 5.2488 212.26 5.20017C212.163 5.10242 212.163 4.9435 212.26 4.84575L213.351 3.73787C213.447 3.64011 213.604 3.64011 213.7 3.73787C213.796 3.83562 213.796 3.99454 213.7 4.09229L212.609 5.20017C212.561 5.2488 212.498 5.27337 212.434 5.27337Z" fill="#5800B5"/>
<path d="M215.237 2.42815C215.174 2.42815 215.111 2.40359 215.062 2.35496C214.966 2.25721 214.966 2.0983 215.062 2.00054L216.154 0.892652C216.25 0.794897 216.406 0.794897 216.503 0.892652C216.599 0.990406 216.599 1.14932 216.503 1.24708L215.412 2.35496C215.363 2.40409 215.3 2.42815 215.237 2.42815Z" fill="#5800B5"/>
<path d="M213.526 2.42791C213.462 2.42791 213.399 2.40335 213.351 2.35472L212.26 1.24683C212.163 1.14908 212.163 0.990162 212.26 0.892408C212.356 0.794653 212.512 0.794653 212.609 0.892408L213.7 2.0003C213.796 2.09805 213.796 2.25697 213.7 2.35472C213.652 2.40385 213.589 2.42791 213.526 2.42791Z" fill="#5800B5"/>
<path d="M216.328 5.27337C216.265 5.27337 216.202 5.2488 216.154 5.20017L215.062 4.09229C214.966 3.99454 214.966 3.83562 215.062 3.73787C215.159 3.64011 215.315 3.64011 215.412 3.73787L216.503 4.84575C216.599 4.9435 216.599 5.10242 216.503 5.20017C216.454 5.2488 216.392 5.27337 216.328 5.27337Z" fill="#5800B5"/>
<path d="M103.055 186.011C102.919 186.011 102.809 185.899 102.809 185.76V183.976C102.809 183.837 102.919 183.725 103.055 183.725C103.192 183.725 103.302 183.837 103.302 183.976V185.76C103.302 185.899 103.192 186.011 103.055 186.011Z" fill="#5800B5"/>
<path d="M103.055 190.593C102.919 190.593 102.808 190.481 102.808 190.343V188.558C102.808 188.42 102.919 188.307 103.055 188.307C103.191 188.307 103.302 188.42 103.302 188.558V190.343C103.302 190.481 103.191 190.593 103.055 190.593Z" fill="#5800B5"/>
<path d="M101.679 187.41H99.9217C99.7854 187.41 99.6748 187.298 99.6748 187.159C99.6748 187.021 99.7854 186.909 99.9217 186.909H101.679C101.815 186.909 101.926 187.021 101.926 187.159C101.926 187.298 101.815 187.41 101.679 187.41Z" fill="#5800B5"/>
<path d="M106.192 187.41H104.434C104.298 187.41 104.188 187.298 104.188 187.159C104.188 187.021 104.298 186.909 104.434 186.909H106.192C106.328 186.909 106.438 187.021 106.438 187.159C106.438 187.298 106.328 187.41 106.192 187.41Z" fill="#5800B5"/>
<path d="M105.273 189.661C105.21 189.661 105.146 189.637 105.098 189.588L103.855 188.326C103.759 188.228 103.759 188.069 103.855 187.972C103.952 187.874 104.108 187.874 104.204 187.972L105.447 189.234C105.543 189.332 105.543 189.49 105.447 189.588C105.399 189.637 105.336 189.661 105.273 189.661Z" fill="#5800B5"/>
<path d="M102.081 186.421C102.018 186.421 101.955 186.396 101.906 186.348L100.664 185.086C100.567 184.988 100.567 184.829 100.664 184.732C100.76 184.634 100.916 184.634 101.013 184.732L102.255 185.993C102.352 186.091 102.352 186.25 102.255 186.348C102.207 186.396 102.144 186.421 102.081 186.421Z" fill="#5800B5"/>
<path d="M104.03 186.421C103.967 186.421 103.904 186.396 103.855 186.348C103.759 186.25 103.759 186.091 103.855 185.993L105.098 184.732C105.194 184.634 105.351 184.634 105.447 184.732C105.543 184.829 105.543 184.988 105.447 185.086L104.204 186.348C104.157 186.396 104.093 186.421 104.03 186.421Z" fill="#5800B5"/>
<path d="M100.838 189.662C100.775 189.662 100.712 189.637 100.664 189.588C100.567 189.491 100.567 189.332 100.664 189.234L101.906 187.972C102.002 187.874 102.159 187.874 102.255 187.972C102.352 188.07 102.352 188.228 102.255 188.326L101.013 189.588C100.964 189.637 100.901 189.662 100.838 189.662Z" fill="#5800B5"/>
<path d="M113.044 179.932C112.908 179.932 112.797 179.819 112.797 179.681V177.608C112.797 177.469 112.908 177.357 113.044 177.357C113.18 177.357 113.291 177.469 113.291 177.608V179.681C113.291 179.819 113.18 179.932 113.044 179.932Z" fill="#5800B5"/>
<path d="M113.045 185.256C112.908 185.256 112.798 185.144 112.798 185.005V182.932C112.798 182.793 112.908 182.681 113.045 182.681C113.181 182.681 113.292 182.793 113.292 182.932V185.005C113.292 185.144 113.181 185.256 113.045 185.256Z" fill="#5800B5"/>
<path d="M111.442 181.557H109.4C109.263 181.557 109.153 181.445 109.153 181.306C109.153 181.168 109.263 181.056 109.4 181.056H111.442C111.578 181.056 111.689 181.168 111.689 181.306C111.689 181.445 111.578 181.557 111.442 181.557Z" fill="#5800B5"/>
<path d="M116.687 181.557H114.644C114.508 181.557 114.397 181.445 114.397 181.306C114.397 181.168 114.508 181.056 114.644 181.056H116.687C116.823 181.056 116.934 181.168 116.934 181.306C116.934 181.445 116.823 181.557 116.687 181.557Z" fill="#5800B5"/>
<path d="M115.621 184.172C115.558 184.172 115.495 184.148 115.447 184.099L114.002 182.633C113.906 182.535 113.906 182.376 114.002 182.278C114.099 182.181 114.255 182.181 114.351 182.278L115.796 183.745C115.892 183.842 115.892 184.001 115.796 184.099C115.747 184.148 115.684 184.172 115.621 184.172Z" fill="#5800B5"/>
<path d="M111.914 180.407C111.851 180.407 111.787 180.382 111.739 180.334L110.295 178.867C110.199 178.77 110.199 178.611 110.295 178.513C110.391 178.415 110.548 178.415 110.644 178.513L112.088 179.979C112.184 180.077 112.184 180.236 112.088 180.334C112.04 180.382 111.977 180.407 111.914 180.407Z" fill="#5800B5"/>
<path d="M114.177 180.407C114.114 180.407 114.051 180.383 114.002 180.334C113.906 180.236 113.906 180.077 114.002 179.98L115.447 178.513C115.543 178.416 115.699 178.416 115.796 178.513C115.892 178.611 115.892 178.77 115.796 178.868L114.351 180.334C114.304 180.383 114.24 180.407 114.177 180.407Z" fill="#5800B5"/>
<path d="M110.47 184.172C110.406 184.172 110.343 184.148 110.295 184.099C110.199 184.001 110.199 183.842 110.295 183.745L111.739 182.278C111.835 182.181 111.992 182.181 112.088 182.278C112.184 182.376 112.184 182.535 112.088 182.633L110.644 184.099C110.596 184.148 110.533 184.172 110.47 184.172Z" fill="#5800B5"/>
<path d="M16.6586 148.325H16.3182C15.3159 148.325 14.8148 147.095 15.5231 146.376L15.7638 146.132C16.203 145.686 16.203 144.962 15.7638 144.516L14.856 143.594C14.4168 143.148 13.705 143.148 13.2649 143.594L13.0242 143.84C12.3159 144.558 11.1047 144.049 11.1047 143.031V142.686C11.1047 142.055 10.601 141.543 9.98039 141.543H8.697C8.07551 141.543 7.57179 142.055 7.57179 142.686V143.031C7.57179 144.049 6.36061 144.558 5.6523 143.84L5.41162 143.594C4.97236 143.148 4.2606 143.148 3.82049 143.594L2.91362 144.516C2.4735 144.962 2.4735 145.686 2.91362 146.132L3.1543 146.376C3.86261 147.095 3.36062 148.325 2.35919 148.325H2.01792C1.39729 148.325 0.893555 148.836 0.893555 149.467V150.77C0.893555 151.401 1.39729 151.912 2.01792 151.912H2.35919C3.36062 151.912 3.86261 153.142 3.1543 153.861L2.91362 154.105C2.4735 154.551 2.4735 155.275 2.91362 155.721L3.82049 156.643C4.2606 157.089 4.97236 157.089 5.41162 156.643L5.6523 156.398C6.36061 155.679 7.57179 156.188 7.57179 157.206V157.551C7.57179 158.182 8.07551 158.694 8.697 158.694H9.98039C10.601 158.694 11.1047 158.182 11.1047 157.551V157.206C11.1047 156.188 12.3159 155.679 13.0242 156.398L13.2649 156.643C13.705 157.089 14.4168 157.089 14.856 156.643L15.7638 155.721C16.203 155.275 16.203 154.551 15.7638 154.105L15.5231 153.861C14.8148 153.142 15.3168 151.912 16.3182 151.912H16.6586C17.2801 151.912 17.7838 151.401 17.7838 150.77V149.467C17.783 148.836 17.2801 148.325 16.6586 148.325ZM9.33826 153.172C7.67665 153.172 6.33053 151.806 6.33053 150.118C6.33053 148.431 7.67665 147.065 9.33826 147.065C10.9999 147.065 12.3469 148.431 12.3469 150.118C12.3469 151.806 10.9999 153.172 9.33826 153.172Z" fill="#642CFF"/>
<path d="M38.161 101.003C37.5081 100.52 36.9058 100.086 36.319 99.6363C33.9895 97.8486 31.9139 95.8331 30.1249 93.5587C29.4778 92.7351 28.8812 91.879 28.332 90.9953C27.5007 89.6579 26.8856 88.2165 26.3799 86.7271C26.1461 86.0388 25.875 85.3635 25.6426 84.6741C24.971 82.6835 24.8597 80.606 25.0503 78.4797C25.2917 75.7843 26.1764 73.2434 27.6836 70.8474C27.716 70.7961 27.7465 70.7429 27.781 70.6923C27.9862 70.3904 28.0057 70.3835 28.3477 70.469C29.7616 70.8221 31.2065 71.0614 32.684 71.1639C35.4335 71.355 38.1696 71.1022 40.875 70.2653C42.3065 69.8225 43.6294 69.17 44.7772 68.1997C45.6172 67.4894 46.2879 66.6693 46.7081 65.6976C47.2573 64.4256 47.29 63.1955 46.5156 62.084C45.929 61.2422 45.0501 60.7489 44.0128 60.4704C42.4261 60.0437 40.7922 60.0927 39.1384 60.4266C37.3695 60.7836 35.6975 61.4155 34.0941 62.2744C31.4505 63.6904 29.2983 65.6019 27.5025 67.8928C27.1828 68.3008 27.1777 68.3213 26.6908 68.202C25.3082 67.8628 23.9272 67.5185 22.5534 67.1545C20.1112 66.5077 17.7192 65.7426 15.3806 64.8583C14.849 64.6571 14.3283 64.4347 13.801 64.2247C13.6697 64.1723 13.5485 64.088 13.3322 64.092C13.4661 64.2718 13.6199 64.358 13.7623 64.4488C16.4049 66.1331 19.1909 67.588 22.2305 68.6331C23.3227 69.0089 24.4297 69.3541 25.5325 69.707C26.0911 69.8857 26.0961 69.8831 25.7855 70.388C23.9691 73.3438 23.0997 76.4779 22.9722 79.7658C22.8783 82.1833 23.2917 84.4785 24.2033 86.6616C24.8687 88.2565 25.7095 89.7581 26.6921 91.1892C28.8805 94.3765 31.7581 96.9303 34.9742 99.1777C35.8716 99.8049 36.7487 100.461 37.7789 100.913C37.8706 100.954 37.9487 101.029 38.161 101.003ZM34.8523 63.8701C35.4833 63.5036 36.4228 63.0916 37.3918 62.7523C39.0032 62.1882 40.6398 61.8623 42.3157 62.0258C42.9783 62.0902 43.6112 62.2412 44.1682 62.5653C45.019 63.0603 45.3026 63.8 45.0162 64.7471C44.7846 65.5123 44.3035 66.1424 43.693 66.6991C42.8816 67.439 41.9295 67.9552 40.8951 68.3293C39.0341 69.0025 37.1178 69.2892 35.1834 69.3842C33.2615 69.479 31.3865 69.2843 29.5517 68.8888C29.1577 68.8039 29.1529 68.7754 29.4126 68.4381C29.4215 68.4258 29.432 68.4144 29.4421 68.4022C30.8889 66.6597 32.5737 65.1653 34.8523 63.8701Z" fill="#C8BCEA"/>
<path d="M15.6061 71.6579L18.0997 64.6457L18.1345 64.5481L18.205 64.4718L23.7788 58.4567L1.27593 57.0959L15.6061 71.6579Z" fill="white" stroke="#652AC1"/>
<path d="M18.2525 65.7631L21.5003 66.0988L19.4016 64.0447L6.22994 59.2964L18.2525 65.7631Z" fill="#CECEF4" stroke="#652AC1"/>
<defs>
<linearGradient id="paint0_linear_821_2865" x1="165.046" y1="48.9292" x2="181.348" y2="48.9292" gradientUnits="userSpaceOnUse">
<stop stop-color="#8858FB"/>
<stop offset="1" stop-color="#DF5656"/>
</linearGradient>
<linearGradient id="paint1_linear_821_2865" x1="163.64" y1="44.8295" x2="171.033" y2="44.8295" gradientUnits="userSpaceOnUse">
<stop stop-color="#8858FB"/>
<stop offset="1" stop-color="#DF5656"/>
</linearGradient>
<linearGradient id="paint2_linear_821_2865" x1="163.47" y1="40.6221" x2="164.984" y2="40.6221" gradientUnits="userSpaceOnUse">
<stop stop-color="#8858FB"/>
<stop offset="1" stop-color="#DF5656"/>
</linearGradient>
<linearGradient id="paint3_linear_821_2865" x1="170.786" y1="40.6019" x2="172.45" y2="40.6019" gradientUnits="userSpaceOnUse">
<stop stop-color="#8858FB"/>
<stop offset="1" stop-color="#DF5656"/>
</linearGradient>
<linearGradient id="paint4_linear_821_2865" x1="162.438" y1="49.0784" x2="164.102" y2="49.0784" gradientUnits="userSpaceOnUse">
<stop stop-color="#8858FB"/>
<stop offset="1" stop-color="#DF5656"/>
</linearGradient>
<linearGradient id="paint5_linear_821_2865" x1="-nan" y1="-nan" x2="-nan" y2="-nan" gradientUnits="userSpaceOnUse">
<stop stop-color="#8858FB"/>
<stop offset="1" stop-color="#DF5656"/>
</linearGradient>
<linearGradient id="paint6_linear_821_2865" x1="-nan" y1="-nan" x2="-nan" y2="-nan" gradientUnits="userSpaceOnUse">
<stop stop-color="#8858FB"/>
<stop offset="1" stop-color="#DF5656"/>
</linearGradient>
<linearGradient id="paint7_linear_821_2865" x1="109.583" y1="47.482" x2="124.904" y2="47.482" gradientUnits="userSpaceOnUse">
<stop stop-color="#8858FB"/>
<stop offset="1" stop-color="#DF5656"/>
</linearGradient>
<linearGradient id="paint8_linear_821_2865" x1="57.2376" y1="51.135" x2="70.1569" y2="51.135" gradientUnits="userSpaceOnUse">
<stop stop-color="#8858FB"/>
<stop offset="1" stop-color="#DF5656"/>
</linearGradient>
<linearGradient id="paint9_linear_821_2865" x1="58.7219" y1="41.7786" x2="68.6741" y2="41.7786" gradientUnits="userSpaceOnUse">
<stop stop-color="#8858FB"/>
<stop offset="1" stop-color="#DF5656"/>
</linearGradient>
<linearGradient id="paint10_linear_821_2865" x1="68.5158" y1="215.636" x2="75.9654" y2="215.636" gradientUnits="userSpaceOnUse">
<stop stop-color="#8858FB"/>
<stop offset="1" stop-color="#DF5656"/>
</linearGradient>
<linearGradient id="paint11_linear_821_2865" x1="67.8736" y1="213.763" x2="71.2522" y2="213.763" gradientUnits="userSpaceOnUse">
<stop stop-color="#8858FB"/>
<stop offset="1" stop-color="#DF5656"/>
</linearGradient>
<linearGradient id="paint12_linear_821_2865" x1="67.7958" y1="211.84" x2="68.4877" y2="211.84" gradientUnits="userSpaceOnUse">
<stop stop-color="#8858FB"/>
<stop offset="1" stop-color="#DF5656"/>
</linearGradient>
<linearGradient id="paint13_linear_821_2865" x1="71.1394" y1="211.831" x2="71.8997" y2="211.831" gradientUnits="userSpaceOnUse">
<stop stop-color="#8858FB"/>
<stop offset="1" stop-color="#DF5656"/>
</linearGradient>
<linearGradient id="paint14_linear_821_2865" x1="67.3245" y1="215.704" x2="68.0851" y2="215.704" gradientUnits="userSpaceOnUse">
<stop stop-color="#8858FB"/>
<stop offset="1" stop-color="#DF5656"/>
</linearGradient>
<linearGradient id="paint15_linear_821_2865" x1="-nan" y1="-nan" x2="-nan" y2="-nan" gradientUnits="userSpaceOnUse">
<stop stop-color="#8858FB"/>
<stop offset="1" stop-color="#DF5656"/>
</linearGradient>
<linearGradient id="paint16_linear_821_2865" x1="-nan" y1="-nan" x2="-nan" y2="-nan" gradientUnits="userSpaceOnUse">
<stop stop-color="#8858FB"/>
<stop offset="1" stop-color="#DF5656"/>
</linearGradient>
<linearGradient id="paint17_linear_821_2865" x1="42.3361" y1="215.127" x2="48.9991" y2="215.127" gradientUnits="userSpaceOnUse">
<stop stop-color="#8858FB"/>
<stop offset="1" stop-color="#DF5656"/>
</linearGradient>
<linearGradient id="paint18_linear_821_2865" x1="18.3282" y1="216.644" x2="24.232" y2="216.644" gradientUnits="userSpaceOnUse">
<stop stop-color="#8858FB"/>
<stop offset="1" stop-color="#DF5656"/>
</linearGradient>
<linearGradient id="paint19_linear_821_2865" x1="19.0056" y1="212.368" x2="23.5535" y2="212.368" gradientUnits="userSpaceOnUse">
<stop stop-color="#8858FB"/>
<stop offset="1" stop-color="#DF5656"/>
</linearGradient>
<linearGradient id="paint20_linear_821_2865" x1="211.612" y1="215.636" x2="219.061" y2="215.636" gradientUnits="userSpaceOnUse">
<stop stop-color="#8858FB"/>
<stop offset="1" stop-color="#DF5656"/>
</linearGradient>
<linearGradient id="paint21_linear_821_2865" x1="210.969" y1="213.763" x2="214.347" y2="213.763" gradientUnits="userSpaceOnUse">
<stop stop-color="#8858FB"/>
<stop offset="1" stop-color="#DF5656"/>
</linearGradient>
<linearGradient id="paint22_linear_821_2865" x1="210.892" y1="211.84" x2="211.583" y2="211.84" gradientUnits="userSpaceOnUse">
<stop stop-color="#8858FB"/>
<stop offset="1" stop-color="#DF5656"/>
</linearGradient>
<linearGradient id="paint23_linear_821_2865" x1="214.234" y1="211.831" x2="214.994" y2="211.831" gradientUnits="userSpaceOnUse">
<stop stop-color="#8858FB"/>
<stop offset="1" stop-color="#DF5656"/>
</linearGradient>
<linearGradient id="paint24_linear_821_2865" x1="210.42" y1="215.704" x2="211.181" y2="215.704" gradientUnits="userSpaceOnUse">
<stop stop-color="#8858FB"/>
<stop offset="1" stop-color="#DF5656"/>
</linearGradient>
<linearGradient id="paint25_linear_821_2865" x1="-nan" y1="-nan" x2="-nan" y2="-nan" gradientUnits="userSpaceOnUse">
<stop stop-color="#8858FB"/>
<stop offset="1" stop-color="#DF5656"/>
</linearGradient>
<linearGradient id="paint26_linear_821_2865" x1="-nan" y1="-nan" x2="-nan" y2="-nan" gradientUnits="userSpaceOnUse">
<stop stop-color="#8858FB"/>
<stop offset="1" stop-color="#DF5656"/>
</linearGradient>
<linearGradient id="paint27_linear_821_2865" x1="185.432" y1="215.127" x2="192.095" y2="215.127" gradientUnits="userSpaceOnUse">
<stop stop-color="#8858FB"/>
<stop offset="1" stop-color="#DF5656"/>
</linearGradient>
<linearGradient id="paint28_linear_821_2865" x1="177.421" y1="40.4433" x2="239.866" y2="51.0657" gradientUnits="userSpaceOnUse">
<stop stop-color="#FEFEFE"/>
<stop offset="0.5063" stop-color="#B3A3FD"/>
<stop offset="1" stop-color="#6D4FFC"/>
</linearGradient>
</defs>
</svg>
