<svg width="252" height="294" viewBox="0 0 252 294" fill="none" xmlns="http://www.w3.org/2000/svg">
<path d="M230.507 40.2922H26.0615V154.482C26.0615 156.359 27.5839 157.882 29.4616 157.882H227.107C228.985 157.882 230.507 156.359 230.507 154.482L230.507 40.2922Z" fill="#FEFEFE"/>
<path d="M65.8516 13.0575H15.0558C14.9161 13.0575 14.8027 12.9441 14.8027 12.8044V8.74292C14.8027 8.60324 14.9161 8.48987 15.0558 8.48987H65.8516C65.9913 8.48987 66.1046 8.60324 66.1046 8.74292V12.8044C66.1046 12.9446 65.9918 13.0575 65.8516 13.0575ZM15.3088 12.5514H65.5985V8.99598H15.3088V12.5514Z" fill="#5800B5"/>
<path d="M153.699 13.0575H102.903C102.764 13.0575 102.65 12.9441 102.65 12.8044V8.74292C102.65 8.60324 102.764 8.48987 102.903 8.48987H153.699C153.838 8.48987 153.952 8.60324 153.952 8.74292V12.8044C153.952 12.9446 153.839 13.0575 153.699 13.0575ZM103.157 12.5514H153.446V8.99598H103.157V12.5514Z" fill="#5800B5"/>
<path d="M99.0391 206.438L99.2725 206.534C99.2468 206.596 99.1972 206.645 99.1348 206.671L99.0391 206.438ZM99.0391 206.438V206.437L99.1348 206.204C99.197 206.23 99.2466 206.279 99.2725 206.341L99.04 206.438H99.0391ZM68.252 169.252V169.253L68.4863 169.156H68.4854C68.4596 169.094 68.4106 169.044 68.3486 169.019L68.252 169.252ZM68.252 169.252L68.1543 169.019C68.0929 169.044 68.0432 169.094 68.0176 169.155L68.251 169.253L68.252 169.252ZM71.3682 206.185V206.191H71.1387V206.691H69.2139V206.685H69.459V206.185H71.3682ZM75.1846 206.185V206.191H74.9863V206.691H73.0625V206.685H73.2764V206.185H75.1846ZM79.001 206.185V206.191H78.835V206.691H76.9111V206.685H77.0928V206.185H79.001ZM82.8184 206.185V206.191H82.6836V206.691H80.7598V206.685H80.9092V206.185H82.8184ZM86.6348 206.185V206.191H86.5322V206.691H84.6074V206.685H84.7266V206.185H86.6348ZM90.4512 206.185V206.191H90.3809V206.691H88.4561V206.685H88.543V206.185H90.4512ZM94.2686 206.185V206.191H94.2285V206.691H92.3047V206.685H92.3604V206.185H94.2686ZM98.085 206.185V206.191H98.0771V206.691H96.1533V206.685H96.1768V206.185H98.085ZM68.5049 203.107V205.159H68.0049V205.405H67.999V203.339H68.499V203.107H68.5049ZM68.5049 199.004V201.056H68.0049V201.273H67.999V199.207H68.499V199.004H68.5049ZM68.5049 194.9V196.952H68.0049V197.142H67.999V195.076H68.499V194.9H68.5049ZM68.5049 190.797V192.849H68.0049V193.01H67.999V190.944H68.499V190.797H68.5049ZM68.5049 186.693V188.745H68.0049V188.878H67.999V186.812H68.499V186.693H68.5049ZM68.5049 182.59V184.642H68.0049V184.747H67.999V182.681H68.499V182.59H68.5049ZM68.5049 178.486V180.538H68.0049V180.615H67.999V178.549H68.499V178.486H68.5049ZM68.5049 174.383V176.435H68.0049V176.483H67.999V174.418H68.499V174.383H68.5049ZM68.5049 170.279V172.331H68.0049V172.352H67.999V170.286H68.499V170.279H68.5049Z" stroke="#652EFF" stroke-dasharray="2 2"/>
<path d="M156.252 206.438L156.019 206.534C156.044 206.596 156.094 206.645 156.156 206.671L156.252 206.438ZM156.252 206.438V206.437L156.156 206.204C156.094 206.23 156.044 206.279 156.019 206.341L156.251 206.438H156.252ZM187.039 169.252V169.253L186.805 169.156H186.806C186.831 169.094 186.88 169.044 186.942 169.019L187.039 169.252ZM187.039 169.252L187.137 169.019C187.198 169.044 187.248 169.094 187.273 169.155L187.04 169.253L187.039 169.252ZM183.923 206.185V206.191H184.152V206.691H186.077V206.685H185.832V206.185H183.923ZM180.106 206.185V206.191H180.305V206.691H182.229V206.685H182.015V206.185H180.106ZM176.29 206.185V206.191H176.456V206.691H178.38V206.685H178.198V206.185H176.29ZM172.473 206.185V206.191H172.607V206.691H174.531V206.685H174.382V206.185H172.473ZM168.656 206.185V206.191H168.759V206.691H170.684V206.685H170.564V206.185H168.656ZM164.84 206.185V206.191H164.91V206.691H166.835V206.685H166.748V206.185H164.84ZM161.022 206.185V206.191H161.062V206.691H162.986V206.685H162.931V206.185H161.022ZM157.206 206.185V206.191H157.214V206.691H159.138V206.685H159.114V206.185H157.206ZM186.786 203.107V205.159H187.286V205.405H187.292V203.339H186.792V203.107H186.786ZM186.786 199.004V201.056H187.286V201.273H187.292V199.207H186.792V199.004H186.786ZM186.786 194.9V196.952H187.286V197.142H187.292V195.076H186.792V194.9H186.786ZM186.786 190.797V192.849H187.286V193.01H187.292V190.944H186.792V190.797H186.786ZM186.786 186.693V188.745H187.286V188.878H187.292V186.812H186.792V186.693H186.786ZM186.786 182.59V184.642H187.286V184.747H187.292V182.681H186.792V182.59H186.786ZM186.786 178.486V180.538H187.286V180.615H187.292V178.549H186.792V178.486H186.786ZM186.786 174.383V176.435H187.286V176.483H187.292V174.418H186.792V174.383H186.786ZM186.786 170.279V172.331H187.286V172.352H187.292V170.286H186.792V170.279H186.786Z" stroke="#652EFF" stroke-dasharray="2 2"/>
<path d="M34.0393 0.309055H3.25208C3.11239 0.309055 2.99902 0.422424 2.99902 0.562111V37.7469C2.99902 37.8866 3.11239 38 3.25208 38C3.39177 38 3.50513 37.8866 3.50513 37.7469V0.815166H34.0393C34.179 0.815166 34.2923 0.701797 34.2923 0.562111C34.2923 0.422424 34.1795 0.309055 34.0393 0.309055Z" fill="#5800B5"/>
<path d="M74.7569 171.202H23.9611C23.8214 171.202 23.708 171.089 23.708 170.949V166.888C23.708 166.749 23.8214 166.635 23.9611 166.635H74.7569C74.8965 166.635 75.0099 166.749 75.0099 166.888V170.949C75.0099 171.089 74.8965 171.202 74.7569 171.202ZM24.2141 170.696H74.5038V167.141H24.2141V170.696Z" fill="#5800B5"/>
<path d="M249.718 178.313H218.931C218.791 178.313 218.678 178.199 218.678 178.06C218.678 177.92 218.791 177.806 218.931 177.806H249.465V146.934C249.465 146.794 249.578 146.681 249.718 146.681C249.858 146.681 249.971 146.794 249.971 146.934V178.06C249.971 178.199 249.858 178.313 249.718 178.313Z" fill="#5800B5"/>
<path d="M231.009 168.822H180.214C180.074 168.822 179.961 168.709 179.961 168.569V164.508C179.961 164.368 180.074 164.255 180.214 164.255H231.009C231.149 164.255 231.262 164.368 231.262 164.508V168.569C231.262 168.709 231.149 168.822 231.009 168.822ZM180.467 168.316H230.756V164.761H180.467V168.316Z" fill="#5800B5"/>
<path d="M251.68 37.6909C251.541 37.6909 251.427 37.5776 251.427 37.4379V0.506109H220.893C220.753 0.506109 220.64 0.39274 220.64 0.253054C220.64 0.113368 220.753 0 220.893 0H251.68C251.82 0 251.933 0.113368 251.933 0.253054V37.4379C251.933 37.5776 251.821 37.6909 251.68 37.6909Z" fill="#5800B5"/>
<path d="M242.972 13.0575H192.176C192.036 13.0575 191.923 12.9441 191.923 12.8044V8.74292C191.923 8.60324 192.036 8.48987 192.176 8.48987H242.972C243.111 8.48987 243.225 8.60324 243.225 8.74292V12.8044C243.225 12.9446 243.111 13.0575 242.972 13.0575ZM192.429 12.5514H242.719V8.99598H192.429V12.5514Z" fill="#5800B5"/>
<path d="M227.315 158.666H29.2512C27.3523 158.666 25.8076 157.121 25.8076 155.222V42.8817C25.8076 42.742 25.921 42.6287 26.0607 42.6287H230.506C230.645 42.6287 230.759 42.742 230.759 42.8817V155.222C230.759 157.121 229.214 158.666 227.315 158.666ZM26.3137 43.1348V155.222C26.3137 156.842 27.6316 158.16 29.2512 158.16H227.316C228.935 158.16 230.253 156.842 230.253 155.222V43.1348H26.3137Z" fill="#5800B5"/>
<path d="M77.4504 158.504C77.3107 158.504 77.1973 158.39 77.1973 158.251V43.5972H26.4552C26.3155 43.5972 26.2021 43.4838 26.2021 43.3441C26.2021 43.2044 26.3155 43.0911 26.4552 43.0911H77.4499C77.5896 43.0911 77.703 43.2044 77.703 43.3441V158.251C77.7035 158.39 77.5901 158.504 77.4504 158.504Z" fill="#5800B5"/>
<path d="M128.384 158.504H77.3898C77.2501 158.504 77.1367 158.39 77.1367 158.251V43.3441C77.1367 43.2044 77.2501 43.0911 77.3898 43.0911H128.384C128.524 43.0911 128.638 43.2044 128.638 43.3441V158.251C128.638 158.39 128.524 158.504 128.384 158.504ZM77.6428 157.998H128.131V43.5972H77.6428V157.998Z" fill="#5800B5"/>
<path d="M179.439 158.504H128.444C128.305 158.504 128.191 158.39 128.191 158.251V43.3441C128.191 43.2044 128.305 43.0911 128.444 43.0911H179.439C179.579 43.0911 179.692 43.2044 179.692 43.3441V158.251C179.692 158.39 179.579 158.504 179.439 158.504ZM128.698 157.998H179.186V43.5972H128.698V157.998Z" fill="#5800B5"/>
<path d="M179.379 158.504C179.239 158.504 179.126 158.39 179.126 158.251V43.3441C179.126 43.2044 179.239 43.0911 179.379 43.0911H230.374C230.513 43.0911 230.627 43.2044 230.627 43.3441C230.627 43.4838 230.513 43.5972 230.374 43.5972H179.632V158.251C179.632 158.39 179.519 158.504 179.379 158.504Z" fill="#5800B5"/>
<path d="M230.507 42.8817H26.0615V24.6922C26.0615 22.8145 27.5839 21.2921 29.4616 21.2921H227.107C228.985 21.2921 230.507 22.8145 230.507 24.6922V42.8817H230.507Z" fill="#FEFEFE"/>
<path d="M230.506 43.1348H26.0607C25.921 43.1348 25.8076 43.0214 25.8076 42.8817V24.6922C25.8076 22.6778 27.4464 21.0391 29.4607 21.0391H227.106C229.12 21.0391 230.759 22.6778 230.759 24.6922V42.8817C230.759 43.0219 230.646 43.1348 230.506 43.1348ZM26.3137 42.6287H230.253V24.6922C230.253 22.9567 228.841 21.5452 227.106 21.5452H29.4607C27.7253 21.5452 26.3137 22.9572 26.3137 24.6922V42.6287Z" fill="#5800B5"/>
<path d="M129.165 27.5175C129.981 27.5175 130.643 26.8556 130.643 26.0391C130.643 25.2227 129.981 24.5608 129.165 24.5608C128.348 24.5608 127.687 25.2227 127.687 26.0391C127.687 26.8556 128.348 27.5175 129.165 27.5175Z" fill="white"/>
<path d="M129.999 36C128.344 36 126.999 34.6539 126.999 33C126.999 31.3452 128.344 30 129.999 30C131.654 30 132.999 31.3461 132.999 33C132.999 34.6539 131.654 36 129.999 36ZM129.999 30.8761C128.828 30.8761 127.876 31.8284 127.876 32.9991C127.876 34.1698 128.828 35.1222 129.999 35.1222C131.17 35.1222 132.122 34.1698 132.122 32.9991C132.122 31.8284 131.17 30.8761 129.999 30.8761Z" fill="#5800B5"/>
<path d="M121.058 27.5175C121.875 27.5175 122.537 26.8556 122.537 26.0391C122.537 25.2227 121.875 24.5608 121.058 24.5608C120.242 24.5608 119.58 25.2227 119.58 26.0391C119.58 26.8556 120.242 27.5175 121.058 27.5175Z" fill="white"/>
<path d="M121.999 36C120.344 36 118.999 34.6539 118.999 33C118.999 31.3452 120.344 30 121.999 30C123.653 30 124.999 31.3461 124.999 33C124.999 34.6539 123.653 36 121.999 36ZM121.999 30.8761C120.828 30.8761 119.876 31.8284 119.876 32.9991C119.876 34.1698 120.828 35.1222 121.999 35.1222C123.169 35.1222 124.122 34.1698 124.122 32.9991C124.122 31.8284 123.169 30.8761 121.999 30.8761Z" fill="#5800B5"/>
<path d="M137.659 27.5175C138.475 27.5175 139.137 26.8556 139.137 26.0391C139.137 25.2227 138.475 24.5608 137.659 24.5608C136.843 24.5608 136.181 25.2227 136.181 26.0391C136.181 26.8556 136.843 27.5175 137.659 27.5175Z" fill="white"/>
<path d="M138.999 36C137.345 36 135.999 34.6539 135.999 33C135.999 31.3452 137.345 30 138.999 30C140.654 30 141.999 31.3461 141.999 33C141.999 34.6539 140.654 36 138.999 36ZM138.999 30.8761C137.829 30.8761 136.876 31.8284 136.876 32.9991C136.876 34.1698 137.829 35.1222 138.999 35.1222C140.17 35.1222 141.122 34.1698 141.122 32.9991C141.122 31.8284 140.17 30.8761 138.999 30.8761Z" fill="#5800B5"/>
<path d="M113.683 85.9879H91.0314C90.8917 85.9879 90.7783 85.8745 90.7783 85.7348V63.0829C90.7783 62.9432 90.8917 62.8298 91.0314 62.8298H113.683C113.823 62.8298 113.936 62.9432 113.936 63.0829V85.7348C113.936 85.875 113.823 85.9879 113.683 85.9879ZM91.2844 85.4817H113.43V63.3359H91.2844V85.4817Z" fill="#5800B5"/>
<path d="M102.356 78.7902C99.9363 78.7902 97.9746 76.829 97.9746 74.4093C97.9746 71.9901 99.9358 70.0284 102.356 70.0284C104.775 70.0284 106.736 71.9896 106.736 74.4093C106.736 76.8285 104.775 78.7902 102.356 78.7902Z" fill="white"/>
<path d="M102.357 79.0431C99.8018 79.0431 97.7227 76.9645 97.7227 74.4092C97.7227 71.8544 99.8013 69.7753 102.357 69.7753C104.912 69.7753 106.991 71.8539 106.991 74.4092C106.991 76.964 104.912 79.0431 102.357 79.0431ZM102.357 70.2814C100.081 70.2814 98.2288 72.1332 98.2288 74.4092C98.2288 76.6857 100.081 78.537 102.357 78.537C104.633 78.537 106.484 76.6852 106.484 74.4092C106.484 72.1327 104.633 70.2814 102.357 70.2814Z" fill="#5800B5"/>
<path d="M102.356 76.539C101.18 76.539 100.227 75.5854 100.227 74.4092C100.227 73.233 101.18 72.2795 102.356 72.2795C103.532 72.2795 104.486 73.233 104.486 74.4092C104.487 75.5854 103.532 76.539 102.356 76.539Z" fill="white"/>
<path d="M102.357 76.7919C101.044 76.7919 99.9746 75.723 99.9746 74.4091C99.9746 73.0953 101.044 72.0264 102.357 72.0264C103.671 72.0264 104.74 73.0953 104.74 74.4091C104.74 75.723 103.671 76.7919 102.357 76.7919ZM102.357 72.532C101.323 72.532 100.481 73.3741 100.481 74.4086C100.481 75.4436 101.323 76.2853 102.357 76.2853C103.392 76.2853 104.234 75.4431 104.234 74.4086C104.235 73.3741 103.392 72.532 102.357 72.532Z" fill="#5800B5"/>
<path d="M113.683 118.057H91.0314C90.8917 118.057 90.7783 117.944 90.7783 117.804V95.1525C90.7783 95.0128 90.8917 94.8994 91.0314 94.8994H113.683C113.823 94.8994 113.936 95.0128 113.936 95.1525V117.804C113.936 117.944 113.823 118.057 113.683 118.057ZM91.2844 117.551H113.43V95.4055H91.2844V117.551Z" fill="#5800B5"/>
<path d="M123.167 143.937H106.883C106.743 143.937 106.63 143.824 106.63 143.684V127.4C106.63 127.261 106.743 127.147 106.883 127.147H123.167C123.307 127.147 123.42 127.261 123.42 127.4V143.684C123.42 143.825 123.307 143.937 123.167 143.937ZM107.136 143.431H122.914V127.653H107.136V143.431Z" fill="#5800B5"/>
<path d="M100.227 143.937H83.9435C83.8038 143.937 83.6904 143.824 83.6904 143.684V127.4C83.6904 127.261 83.8038 127.147 83.9435 127.147H100.227C100.367 127.147 100.48 127.261 100.48 127.4V143.684C100.48 143.825 100.367 143.937 100.227 143.937ZM84.196 143.431H99.9735V127.653H84.196V143.431Z" fill="#5800B5"/>
<path d="M91.9257 138.588C90.1776 138.588 88.7549 137.165 88.7549 135.417C88.7549 133.669 90.1776 132.246 91.9257 132.246C93.6738 132.246 95.0964 133.669 95.0964 135.417C95.0964 137.165 93.6738 138.588 91.9257 138.588ZM91.9257 132.753C90.4564 132.753 89.261 133.948 89.261 135.417C89.261 136.887 90.4564 138.082 91.9257 138.082C93.3949 138.082 94.5903 136.887 94.5903 135.417C94.5903 133.948 93.3949 132.753 91.9257 132.753Z" fill="#5800B5"/>
<path d="M164.609 134.551H141.957C141.817 134.551 141.704 134.438 141.704 134.298V111.646C141.704 111.506 141.817 111.393 141.957 111.393H164.609C164.749 111.393 164.862 111.506 164.862 111.646V134.298C164.862 134.438 164.749 134.551 164.609 134.551ZM142.21 134.045H164.356V111.899H142.21V134.045Z" fill="#5800B5"/>
<path d="M153.249 126.971C151.007 126.971 149.19 125.154 149.19 122.912C149.19 120.671 151.007 118.854 153.249 118.854C155.49 118.854 157.308 120.671 157.308 122.912C157.307 125.154 155.49 126.971 153.249 126.971Z" fill="white"/>
<path d="M153.25 127.224C150.873 127.224 148.938 125.29 148.938 122.912C148.938 120.534 150.872 118.601 153.25 118.601C155.628 118.601 157.562 120.534 157.562 122.912C157.562 125.29 155.627 127.224 153.25 127.224ZM153.25 119.107C151.152 119.107 149.445 120.814 149.445 122.913C149.445 125.011 151.152 126.719 153.25 126.719C155.348 126.719 157.056 125.011 157.056 122.913C157.055 120.814 155.348 119.107 153.25 119.107Z" fill="#5800B5"/>
<path d="M175.023 80.317H158.739C158.6 80.317 158.486 80.2036 158.486 80.0639V63.7804C158.486 63.6407 158.6 63.5273 158.739 63.5273H175.023C175.163 63.5273 175.277 63.6407 175.277 63.7804V80.0639C175.277 80.2041 175.164 80.317 175.023 80.317ZM158.992 79.8109H174.77V64.0335H158.992V79.8109Z" fill="#5800B5"/>
<path d="M152.084 80.317H135.8C135.66 80.317 135.547 80.2036 135.547 80.0639V63.7804C135.547 63.6407 135.66 63.5273 135.8 63.5273H152.084C152.224 63.5273 152.337 63.6407 152.337 63.7804V80.0639C152.337 80.2041 152.224 80.317 152.084 80.317ZM136.053 79.8109H151.831V64.0335H136.053V79.8109Z" fill="#5800B5"/>
<path d="M141.586 76.6917H141.583C141.19 76.6907 140.819 76.5171 140.567 76.2145L138.594 73.8469C138.126 73.2851 138.202 72.4465 138.764 71.9783C139.036 71.7511 139.382 71.6438 139.732 71.6762C140.086 71.7081 140.405 71.8761 140.632 72.1489L141.591 73.2988L147.278 66.5407C147.75 65.9799 148.589 65.9091 149.148 66.3793C149.707 66.851 149.779 67.6896 149.309 68.2488L142.601 76.2195C142.349 76.5192 141.979 76.6917 141.586 76.6917ZM139.612 72.1762C139.42 72.1762 139.237 72.2425 139.088 72.3665C138.741 72.6565 138.693 73.1748 138.983 73.523L140.955 75.8906C141.112 76.0773 141.341 76.1851 141.584 76.1856L141.586 76.4387V76.1856C141.829 76.1856 142.058 76.0793 142.213 75.8936L148.921 67.9229C149.212 67.5767 149.168 67.058 148.822 66.7664C148.475 66.4749 147.957 66.5205 147.666 66.8661L141.784 73.8555C141.735 73.9127 141.665 73.9456 141.59 73.9456H141.589C141.515 73.9456 141.444 73.9122 141.396 73.8545L140.244 72.4723C140.103 72.3038 139.906 72.1995 139.687 72.1798C139.662 72.1772 139.636 72.1762 139.612 72.1762Z" fill="#5800B5"/>
<path d="M151.967 103.323H135.683C135.543 103.323 135.43 103.21 135.43 103.07V86.7866C135.43 86.6469 135.543 86.5336 135.683 86.5336H151.967C152.107 86.5336 152.22 86.6469 152.22 86.7866V103.07C152.22 103.21 152.107 103.323 151.967 103.323ZM135.936 102.817H151.714V87.0397H135.936V102.817Z" fill="#5800B5"/>
<path d="M72.0933 80.317H55.8097C55.67 80.317 55.5566 80.2036 55.5566 80.0639V63.7804C55.5566 63.6407 55.67 63.5273 55.8097 63.5273H72.0933C72.233 63.5273 72.3463 63.6407 72.3463 63.7804V80.0639C72.3463 80.2041 72.233 80.317 72.0933 80.317ZM56.0622 79.8109H71.8397V64.0335H56.0622V79.8109Z" fill="#5800B5"/>
<path d="M49.1538 80.317H32.8702C32.7306 80.317 32.6172 80.2036 32.6172 80.0639V63.7804C32.6172 63.6407 32.7306 63.5273 32.8702 63.5273H49.1538C49.2935 63.5273 49.4069 63.6407 49.4069 63.7804V80.0639C49.4069 80.2041 49.2935 80.317 49.1538 80.317ZM33.1228 79.8109H48.9003V64.0335H33.1228V79.8109Z" fill="#5800B5"/>
<path d="M72.0933 103.37H55.8097C55.67 103.37 55.5566 103.257 55.5566 103.117V86.8337C55.5566 86.6941 55.67 86.5807 55.8097 86.5807H72.0933C72.233 86.5807 72.3463 86.6941 72.3463 86.8337V103.117C72.3463 103.257 72.233 103.37 72.0933 103.37ZM56.0622 102.864H71.8397V87.0868H56.0622V102.864Z" fill="#5800B5"/>
<path d="M49.0352 103.323H32.7511C32.6114 103.323 32.498 103.21 32.498 103.07V86.7866C32.498 86.6469 32.6114 86.5336 32.7511 86.5336H49.0352C49.1749 86.5336 49.2883 86.6469 49.2883 86.7866V103.07C49.2883 103.21 49.1749 103.323 49.0352 103.323ZM33.0042 102.817H48.7822V87.0397H33.0042V102.817Z" fill="#5800B5"/>
<path d="M41.074 97.8032C39.4625 97.8032 38.1562 96.4969 38.1562 94.8855C38.1562 93.274 39.4625 91.9678 41.074 91.9678C42.6854 91.9678 43.9917 93.274 43.9917 94.8855C43.9917 96.4969 42.6854 97.8032 41.074 97.8032Z" fill="white"/>
<path d="M41.0731 98.0561C39.325 98.0561 37.9023 96.6335 37.9023 94.8854C37.9023 93.1373 39.325 91.7146 41.0731 91.7146C42.8212 91.7146 44.2439 93.1373 44.2439 94.8854C44.2439 96.6335 42.8212 98.0561 41.0731 98.0561ZM41.0731 92.2212C39.6039 92.2212 38.4085 93.4166 38.4085 94.8859C38.4085 96.3551 39.6039 97.5505 41.0731 97.5505C42.5424 97.5505 43.7378 96.3551 43.7378 94.8859C43.7378 93.4166 42.5424 92.2212 41.0731 92.2212Z" fill="#5800B5"/>
<path d="M230.158 56.5444H26.0607C25.921 56.5444 25.8076 56.4311 25.8076 56.2914C25.8076 56.1517 25.921 56.0383 26.0607 56.0383H230.158C230.298 56.0383 230.411 56.1517 230.411 56.2914C230.411 56.4311 230.298 56.5444 230.158 56.5444Z" fill="#5800B5"/>
<path d="M65.7051 52.7303H37.0051C35.4858 52.7303 34.2539 51.4985 34.2539 49.9791C34.2539 48.4598 35.4858 47.2274 37.0051 47.2274H65.7051C67.2245 47.2274 68.4564 48.4593 68.4564 49.9791C68.4564 51.4985 67.2245 52.7303 65.7051 52.7303Z" fill="white"/>
<path d="M65.7053 52.9836H37.0053C35.3488 52.9836 34.001 51.6359 34.001 49.9794C34.001 48.3229 35.3488 46.9746 37.0053 46.9746H65.7053C67.3618 46.9746 68.7095 48.3224 68.7095 49.9794C68.7095 51.6359 67.3618 52.9836 65.7053 52.9836ZM37.0053 47.4812C35.6276 47.4812 34.5071 48.6018 34.5071 49.9799C34.5071 51.3575 35.6276 52.478 37.0053 52.478H65.7053C67.0829 52.478 68.2034 51.3575 68.2034 49.9799C68.2034 48.6023 67.0829 47.4812 65.7053 47.4812H37.0053Z" fill="#5800B5"/>
<path d="M117.063 52.7303H88.363C86.8437 52.7303 85.6113 51.4985 85.6113 49.9791C85.6113 48.4598 86.8432 47.2274 88.363 47.2274H117.063C118.582 47.2274 119.814 48.4593 119.814 49.9791C119.814 51.4985 118.582 52.7303 117.063 52.7303Z" fill="white"/>
<path d="M117.063 52.9836H88.3632C86.7067 52.9836 85.3584 51.6359 85.3584 49.9794C85.3584 48.3229 86.7062 46.9746 88.3632 46.9746H117.063C118.719 46.9746 120.067 48.3224 120.067 49.9794C120.067 51.6359 118.719 52.9836 117.063 52.9836ZM88.3632 47.4812C86.9855 47.4812 85.8645 48.6018 85.8645 49.9799C85.8645 51.3575 86.985 52.478 88.3632 52.478H117.063C118.441 52.478 119.561 51.3575 119.561 49.9799C119.561 48.6023 118.441 47.4812 117.063 47.4812H88.3632Z" fill="#5800B5"/>
<path d="M169.282 52.7303H140.583C139.063 52.7303 137.831 51.4985 137.831 49.9791C137.831 48.4598 139.063 47.2274 140.583 47.2274H169.282C170.802 47.2274 172.034 48.4593 172.034 49.9791C172.034 51.4985 170.802 52.7303 169.282 52.7303Z" fill="white"/>
<path d="M169.284 52.9836H140.584C138.927 52.9836 137.579 51.6359 137.579 49.9794C137.579 48.3229 138.927 46.9746 140.584 46.9746H169.284C170.94 46.9746 172.288 48.3224 172.288 49.9794C172.288 51.6359 170.94 52.9836 169.284 52.9836ZM140.584 47.4812C139.206 47.4812 138.085 48.6018 138.085 49.9799C138.085 51.3575 139.206 52.478 140.584 52.478H169.284C170.662 52.478 171.782 51.3575 171.782 49.9799C171.782 48.6023 170.662 47.4812 169.284 47.4812H140.584Z" fill="#5800B5"/>
<path d="M220.424 52.7303H191.724C190.205 52.7303 188.973 51.4985 188.973 49.9791C188.973 48.4598 190.205 47.2274 191.724 47.2274H220.424C221.944 47.2274 223.176 48.4593 223.176 49.9791C223.176 51.4985 221.944 52.7303 220.424 52.7303Z" fill="white"/>
<path d="M220.425 52.9836H191.725C190.069 52.9836 188.721 51.6359 188.721 49.9794C188.721 48.3229 190.068 46.9746 191.725 46.9746H220.425C222.081 46.9746 223.43 48.3224 223.43 49.9794C223.43 51.6359 222.082 52.9836 220.425 52.9836ZM191.725 47.4812C190.348 47.4812 189.227 48.6018 189.227 49.9799C189.227 51.3575 190.348 52.478 191.725 52.478H220.425C221.803 52.478 222.924 51.3575 222.924 49.9799C222.924 48.6023 221.803 47.4812 220.425 47.4812H191.725Z" fill="#5800B5"/>
<path d="M215.976 85.0871H193.425C193.285 85.0871 193.172 84.9737 193.172 84.834V62.2833C193.172 62.1436 193.285 62.0303 193.425 62.0303H215.976C216.116 62.0303 216.229 62.1436 216.229 62.2833V84.834C216.229 84.9737 216.116 85.0871 215.976 85.0871ZM193.678 84.581H215.724V62.5364H193.678V84.581Z" fill="#5800B5"/>
<path d="M215.976 148.685H193.425C193.285 148.685 193.172 148.572 193.172 148.432V125.881C193.172 125.742 193.285 125.628 193.425 125.628H215.976C216.116 125.628 216.229 125.742 216.229 125.881V148.432C216.229 148.572 216.116 148.685 215.976 148.685ZM193.678 148.179H215.724V126.134H193.678V148.179Z" fill="#5800B5"/>
<path d="M224.87 112.038H208.586C208.446 112.038 208.333 111.924 208.333 111.785V95.5007C208.333 95.361 208.446 95.2477 208.586 95.2477H224.87C225.01 95.2477 225.123 95.361 225.123 95.5007V111.785C225.123 111.924 225.01 112.038 224.87 112.038ZM208.84 111.532H224.618V95.7538H208.84V111.532Z" fill="#5800B5"/>
<path d="M201.931 112.038H185.647C185.507 112.038 185.394 111.924 185.394 111.785V95.5007C185.394 95.361 185.507 95.2477 185.647 95.2477H201.931C202.07 95.2477 202.184 95.361 202.184 95.5007V111.785C202.184 111.924 202.071 112.038 201.931 112.038ZM185.9 111.532H201.678V95.7538H185.9V111.532Z" fill="#5800B5"/>
<path d="M214.392 108.526C214.391 108.526 214.39 108.526 214.389 108.526C214.072 108.526 213.771 108.384 213.568 108.139L211.595 105.772C211.215 105.317 211.276 104.64 211.732 104.26C212.187 103.88 212.865 103.942 213.244 104.397L214.396 105.779L220.278 98.79C220.66 98.3355 221.338 98.2778 221.791 98.6594C222.245 99.0416 222.303 99.7187 221.921 100.172L215.213 108.142C215.01 108.386 214.709 108.526 214.392 108.526Z" fill="white"/>
<path d="M214.392 108.779H214.389C213.996 108.779 213.625 108.605 213.373 108.302L211.4 105.935C211.173 105.663 211.066 105.318 211.097 104.965C211.129 104.612 211.297 104.293 211.569 104.066C211.842 103.839 212.189 103.73 212.539 103.764C212.892 103.796 213.211 103.964 213.438 104.236L214.397 105.386L220.084 98.6276C220.312 98.3564 220.633 98.1904 220.986 98.1595C221.345 98.1321 221.683 98.2384 221.954 98.4662C222.513 98.9379 222.585 99.7765 222.115 100.336L215.407 108.306C215.155 108.607 214.785 108.779 214.392 108.779ZM212.418 104.264C212.226 104.264 212.043 104.33 211.894 104.454C211.725 104.595 211.621 104.793 211.602 105.011C211.582 105.229 211.648 105.442 211.788 105.611L213.761 107.978C213.918 108.165 214.147 108.273 214.389 108.274L214.392 108.527V108.274C214.634 108.274 214.864 108.167 215.02 107.981L221.727 100.011C222.019 99.6646 221.974 99.1459 221.628 98.8544C221.46 98.7132 221.244 98.6438 221.03 98.6651C220.81 98.6838 220.613 98.7866 220.471 98.9541L214.589 105.944C214.541 106.001 214.47 106.034 214.395 106.034H214.395C214.32 106.034 214.249 106.001 214.201 105.943L213.049 104.561C212.909 104.392 212.711 104.288 212.492 104.269C212.468 104.265 212.443 104.264 212.418 104.264Z" fill="#5800B5"/>
<path d="M39.9092 37.7171H47.1005C49.6574 37.7171 51.7299 35.6446 51.7299 33.0877C51.7299 30.5314 49.6574 28.4589 47.1005 28.4589H39.9092C37.3523 28.4589 35.2803 30.5314 35.2803 33.0877C35.2803 35.6446 37.3523 37.7171 39.9092 37.7171Z" fill="#5800B5"/>
<path d="M47.1006 37.97H39.9093C37.2173 37.97 35.0273 35.7796 35.0273 33.0881C35.0273 30.3961 37.2178 28.2057 39.9093 28.2057H47.1006C49.7926 28.2057 51.9831 30.3961 51.9831 33.0881C51.9831 35.7801 49.7931 37.97 47.1006 37.97ZM39.9093 28.7118C37.4961 28.7118 35.5335 30.675 35.5335 33.0881C35.5335 35.5012 37.4967 37.4639 39.9093 37.4639H47.1006C49.5137 37.4639 51.4769 35.5007 51.4769 33.0881C51.4769 30.675 49.5137 28.7118 47.1006 28.7118H39.9093Z" fill="#5800B5"/>
<path d="M46.9604 33.9309C46.4958 33.9309 46.1172 33.5528 46.1172 33.0877C46.1172 32.6226 46.4953 32.2445 46.9604 32.2445C47.4255 32.2445 47.8035 32.6226 47.8035 33.0877C47.8035 33.5528 47.425 33.9309 46.9604 33.9309ZM46.9604 32.7511C46.7746 32.7511 46.6233 32.9019 46.6233 33.0882C46.6233 33.2744 46.7741 33.4253 46.9604 33.4253C47.1466 33.4253 47.2974 33.2744 47.2974 33.0882C47.2974 32.9019 47.1461 32.7511 46.9604 32.7511Z" fill="white"/>
<path d="M40.0502 33.9307C39.5856 33.9307 39.207 33.5527 39.207 33.0876C39.207 32.6224 39.5851 32.2444 40.0502 32.2444C40.5148 32.2444 40.8929 32.6224 40.8929 33.0876C40.8929 33.5527 40.5148 33.9307 40.0502 33.9307ZM40.0502 32.751C39.8645 32.751 39.7131 32.9018 39.7131 33.0881C39.7131 33.2743 39.864 33.4251 40.0502 33.4251C40.236 33.4251 40.3868 33.2743 40.3868 33.0881C40.3868 32.9018 40.236 32.751 40.0502 32.751Z" fill="white"/>
<path d="M43.3744 33.9309C42.9098 33.9309 42.5312 33.5528 42.5312 33.0877C42.5312 32.6226 42.9093 32.2445 43.3744 32.2445C43.8395 32.2445 44.2176 32.6226 44.2176 33.0877C44.2176 33.5528 43.8395 33.9309 43.3744 33.9309ZM43.3744 32.7511C43.1887 32.7511 43.0374 32.9019 43.0374 33.0882C43.0374 33.2744 43.1882 33.4253 43.3744 33.4253C43.5607 33.4253 43.7115 33.2744 43.7115 33.0882C43.7115 32.9019 43.5602 32.7511 43.3744 32.7511Z" fill="white"/>
<path d="M68.8636 256.923C68.8937 256.738 68.9673 256.562 69.082 256.406C69.2716 256.15 69.5499 255.982 69.8655 255.934L72.5996 255.522C72.6708 254.023 73.0294 252.576 73.6671 251.218L71.4416 249.575C70.9112 249.185 70.7978 248.435 71.1899 247.905L72.4646 246.177C72.6537 245.92 72.9321 245.752 73.2476 245.705C73.5632 245.657 73.8784 245.735 74.1353 245.925L76.3608 247.567C77.4709 246.557 78.747 245.788 80.1583 245.277L79.7457 242.543C79.6981 242.227 79.7759 241.911 79.9654 241.655C80.155 241.398 80.4333 241.23 80.7489 241.183L82.8718 240.862C83.5235 240.764 84.1337 241.214 84.2316 241.866L84.6442 244.599C86.1433 244.671 87.5894 245.03 88.9488 245.667L90.5905 243.442C90.9817 242.912 91.7317 242.798 92.2616 243.19L93.9896 244.464C94.5195 244.856 94.6324 245.605 94.2413 246.135L92.5999 248.361C93.6093 249.471 94.3784 250.747 94.8898 252.159L97.6237 251.746C97.9392 251.698 98.2544 251.776 98.5113 251.966C98.7678 252.155 98.9358 252.433 98.9835 252.749L99.3038 254.872C99.3519 255.187 99.2741 255.503 99.0842 255.76C98.8946 256.017 98.6163 256.185 98.3007 256.232L95.5668 256.645C95.4944 258.144 95.1363 259.59 94.4991 260.949L96.7246 262.591C97.2548 262.983 97.3678 263.733 96.9762 264.262L95.7015 265.99C95.5124 266.247 95.234 266.415 94.9184 266.462C94.6033 266.51 94.288 266.432 94.0308 266.242L91.8057 264.6C90.6951 265.61 89.4183 266.38 88.0078 266.89L88.4204 269.624C88.4684 269.939 88.3903 270.255 88.2007 270.512C88.0111 270.769 87.7328 270.936 87.4172 270.984L85.2943 271.304C84.6426 271.403 84.0323 270.953 83.9345 270.301L83.5219 267.567C82.0232 267.496 80.5767 267.137 79.2173 266.5L77.5756 268.725C77.1847 269.255 76.4348 269.368 75.9044 268.978L74.1768 267.703C73.6469 267.312 73.5331 266.562 73.9248 266.032L75.5662 263.806C74.5571 262.697 73.7877 261.42 73.2763 260.008L70.5428 260.421C69.8911 260.519 69.2809 260.069 69.183 259.418L68.8626 257.295C68.8432 257.169 68.8439 257.044 68.8636 256.923ZM72.9794 255.722C72.9661 255.804 72.9006 255.87 72.8165 255.883L69.9238 256.319C69.7109 256.351 69.523 256.465 69.3951 256.638C69.2676 256.811 69.2149 257.024 69.2465 257.237L69.5669 259.36C69.6334 259.799 70.0451 260.103 70.484 260.036L73.3763 259.6C73.4688 259.586 73.5585 259.64 73.5894 259.729C74.0993 261.2 74.8968 262.523 75.9597 263.66C76.0231 263.728 76.0304 263.833 75.9741 263.908L74.2369 266.263C73.9738 266.62 74.0496 267.126 74.4071 267.39L76.1347 268.664C76.4923 268.928 76.9981 268.852 77.262 268.494L78.9992 266.14C79.0544 266.064 79.1559 266.039 79.2406 266.08C80.6414 266.761 82.1406 267.133 83.6964 267.185C83.79 267.189 83.8682 267.258 83.8819 267.35L84.3184 270.243C84.3849 270.682 84.7966 270.986 85.2355 270.92L87.3584 270.599C87.5713 270.567 87.7592 270.454 87.8871 270.281C88.0146 270.108 88.0669 269.895 88.0357 269.682L87.5988 266.79C87.5843 266.697 87.6387 266.607 87.7273 266.577C89.1979 266.067 90.521 265.27 91.6588 264.206C91.7272 264.142 91.8314 264.136 91.9071 264.192L94.2614 265.929C94.4345 266.057 94.6474 266.11 94.86 266.077C95.0726 266.045 95.2605 265.932 95.3883 265.759L96.663 264.031C96.9257 263.674 96.8503 263.168 96.4931 262.904L94.1385 261.167C94.0632 261.111 94.037 261.011 94.0792 260.926C94.7587 259.525 95.131 258.025 95.1841 256.47C95.1852 256.377 95.2566 256.299 95.3496 256.284L98.2418 255.848C98.4547 255.816 98.6426 255.702 98.7705 255.529C98.898 255.356 98.9503 255.144 98.9191 254.931L98.5987 252.807C98.5663 252.595 98.4534 252.407 98.2802 252.28C98.1071 252.152 97.8945 252.099 97.6819 252.131L94.7893 252.568C94.6968 252.582 94.6071 252.528 94.5762 252.439C94.0665 250.968 93.2688 249.645 92.2059 248.508C92.1417 248.44 92.1346 248.335 92.1915 248.26L93.9287 245.905C94.1913 245.548 94.116 245.042 93.7588 244.778L92.0309 243.503C91.6734 243.239 91.1675 243.316 90.9036 243.673L89.1665 246.027C89.1113 246.103 89.0094 246.128 88.9251 246.087C87.5246 245.406 86.0255 245.035 84.4693 244.982C84.3756 244.979 84.2974 244.909 84.2837 244.817L83.8473 241.924C83.7807 241.485 83.369 241.181 82.9302 241.248L80.8072 241.568C80.5943 241.6 80.4064 241.713 80.2785 241.886C80.1506 242.06 80.0982 242.273 80.1299 242.485L80.5668 245.378C80.5809 245.47 80.5269 245.56 80.4384 245.59C78.9673 246.1 77.6442 246.897 76.5072 247.961C76.4388 248.025 76.3346 248.031 76.2589 247.975L73.9043 246.238C73.7311 246.11 73.5186 246.057 73.3056 246.09C73.0931 246.122 72.9052 246.235 72.7773 246.408L71.5027 248.136C71.2395 248.494 71.315 248.999 71.6725 249.263L74.0272 251C74.1025 251.056 74.1278 251.157 74.0865 251.242C73.4067 252.642 73.0347 254.141 72.9818 255.697C72.9817 255.705 72.9808 255.713 72.9794 255.722ZM78.1613 255.11C78.3093 254.2 78.6694 253.312 79.2534 252.52C81.2181 249.857 84.9831 249.289 87.646 251.254C90.3089 253.219 90.8774 256.984 88.9123 259.647C86.9476 262.309 83.1826 262.878 80.5197 260.913C78.6482 259.532 77.8113 257.262 78.1613 255.11ZM79.5663 252.751C77.7293 255.241 78.2606 258.763 80.7508 260.6C83.2409 262.437 86.7622 261.906 88.5999 259.415C90.436 256.925 89.9055 253.404 87.4155 251.566C84.9248 249.73 81.4043 250.261 79.5663 252.751Z" fill="#5800B5"/>
<path d="M158.994 246.564C159.01 246.465 159.05 246.371 159.111 246.289C159.212 246.151 159.36 246.062 159.529 246.037L160.988 245.817C161.026 245.017 161.217 244.245 161.558 243.52L160.37 242.643C160.087 242.435 160.026 242.035 160.236 241.752L160.916 240.83C161.017 240.693 161.165 240.603 161.334 240.578C161.502 240.552 161.67 240.594 161.807 240.695L162.995 241.571C163.587 241.033 164.268 240.622 165.021 240.349L164.801 238.89C164.776 238.722 164.817 238.554 164.919 238.417C165.02 238.28 165.168 238.19 165.337 238.165L166.469 237.994C166.817 237.941 167.143 238.181 167.195 238.529L167.415 239.988C168.215 240.026 168.987 240.217 169.712 240.558L170.588 239.37C170.797 239.087 171.197 239.027 171.48 239.236L172.402 239.916C172.685 240.125 172.745 240.525 172.537 240.807L171.661 241.995C172.199 242.587 172.61 243.269 172.883 244.022L174.342 243.802C174.51 243.776 174.678 243.818 174.815 243.919C174.952 244.02 175.042 244.168 175.067 244.337L175.238 245.47C175.264 245.638 175.222 245.807 175.121 245.944C175.02 246.081 174.871 246.17 174.703 246.196L173.244 246.416C173.205 247.216 173.014 247.988 172.674 248.713L173.862 249.589C174.145 249.798 174.205 250.198 173.996 250.481L173.316 251.403C173.215 251.54 173.066 251.629 172.898 251.655C172.73 251.68 172.562 251.638 172.424 251.537L171.237 250.661C170.644 251.2 169.963 251.611 169.21 251.883L169.43 253.342C169.456 253.51 169.414 253.679 169.313 253.816C169.212 253.953 169.063 254.042 168.895 254.068L167.762 254.239C167.414 254.291 167.089 254.051 167.037 253.703L166.816 252.244C166.017 252.206 165.245 252.015 164.519 251.675L163.643 252.862C163.435 253.145 163.034 253.206 162.751 252.997L161.83 252.317C161.547 252.108 161.486 251.708 161.695 251.425L162.571 250.237C162.032 249.645 161.622 248.964 161.349 248.211L159.89 248.431C159.543 248.483 159.217 248.243 159.165 247.896L158.994 246.763C158.983 246.696 158.984 246.629 158.994 246.564ZM161.191 245.923C161.183 245.967 161.148 246.002 161.104 246.009L159.56 246.242C159.446 246.259 159.346 246.32 159.278 246.412C159.21 246.505 159.182 246.618 159.199 246.732L159.37 247.865C159.405 248.099 159.625 248.261 159.859 248.226L161.402 247.993C161.452 247.985 161.5 248.014 161.516 248.061C161.788 248.847 162.214 249.552 162.781 250.159C162.815 250.196 162.819 250.252 162.789 250.292L161.862 251.548C161.721 251.739 161.762 252.009 161.952 252.15L162.874 252.83C163.065 252.97 163.335 252.93 163.476 252.739L164.403 251.483C164.432 251.442 164.487 251.429 164.532 251.451C165.279 251.814 166.079 252.012 166.909 252.04C166.959 252.042 167.001 252.079 167.009 252.129L167.241 253.672C167.277 253.907 167.497 254.069 167.731 254.033L168.864 253.862C168.977 253.845 169.078 253.785 169.146 253.692C169.214 253.6 169.242 253.487 169.225 253.373L168.992 251.829C168.984 251.78 169.013 251.732 169.061 251.716C169.845 251.444 170.551 251.018 171.159 250.451C171.195 250.417 171.251 250.414 171.291 250.443L172.547 251.37C172.64 251.438 172.753 251.467 172.867 251.449C172.98 251.432 173.08 251.372 173.149 251.279L173.829 250.357C173.969 250.167 173.929 249.897 173.738 249.756L172.482 248.829C172.442 248.799 172.428 248.745 172.45 248.7C172.813 247.953 173.011 247.153 173.04 246.323C173.04 246.273 173.078 246.231 173.128 246.223L174.671 245.99C174.785 245.973 174.885 245.913 174.954 245.82C175.022 245.728 175.05 245.615 175.033 245.501L174.862 244.368C174.845 244.255 174.784 244.154 174.692 244.086C174.6 244.018 174.486 243.99 174.373 244.007L172.829 244.24C172.78 244.248 172.732 244.219 172.715 244.171C172.443 243.386 172.018 242.68 171.45 242.074C171.416 242.037 171.412 241.982 171.443 241.941L172.37 240.685C172.51 240.494 172.47 240.224 172.279 240.083L171.357 239.403C171.166 239.262 170.896 239.303 170.756 239.494L169.829 240.75C169.799 240.79 169.745 240.804 169.7 240.782C168.952 240.419 168.152 240.22 167.322 240.192C167.272 240.19 167.23 240.153 167.223 240.104L166.99 238.56C166.955 238.326 166.735 238.164 166.501 238.199L165.368 238.37C165.254 238.387 165.154 238.448 165.086 238.54C165.017 238.633 164.989 238.746 165.006 238.86L165.239 240.403C165.247 240.453 165.218 240.5 165.171 240.517C164.386 240.789 163.68 241.214 163.073 241.782C163.037 241.816 162.981 241.819 162.941 241.789L161.684 240.862C161.592 240.794 161.478 240.766 161.365 240.783C161.251 240.8 161.151 240.861 161.083 240.953L160.403 241.875C160.262 242.066 160.302 242.336 160.493 242.477L161.75 243.404C161.79 243.433 161.803 243.487 161.781 243.532C161.419 244.28 161.22 245.08 161.192 245.91C161.192 245.914 161.191 245.919 161.191 245.923ZM163.956 245.597C164.035 245.111 164.227 244.637 164.539 244.215C165.587 242.794 167.596 242.491 169.017 243.539C170.438 244.587 170.742 246.597 169.693 248.018C168.644 249.439 166.635 249.742 165.214 248.693C164.216 247.957 163.769 246.745 163.956 245.597ZM164.706 244.338C163.725 245.667 164.009 247.546 165.338 248.526C166.666 249.506 168.546 249.223 169.526 247.894C170.506 246.565 170.223 244.686 168.894 243.706C167.565 242.726 165.686 243.009 164.706 244.338Z" fill="#5800B5"/>
<path d="M183.063 222.06C183.117 221.727 183.381 221.452 183.733 221.401L185.148 221.195C185.202 220.418 185.392 219.669 185.714 218.961L184.567 218.106C184.397 217.979 184.286 217.793 184.256 217.583C184.225 217.375 184.277 217.164 184.405 216.994L185.118 216.037C185.38 215.686 185.879 215.613 186.23 215.875L187.376 216.731C187.964 216.22 188.628 215.824 189.356 215.551L189.15 214.135C189.119 213.926 189.172 213.716 189.299 213.546C189.426 213.375 189.611 213.265 189.822 213.234L191.003 213.062C191.436 213 191.84 213.301 191.903 213.734L192.109 215.149C192.886 215.203 193.635 215.393 194.343 215.715L195.199 214.568C195.325 214.398 195.511 214.288 195.721 214.257C195.931 214.227 196.141 214.279 196.31 214.406L197.267 215.119C197.438 215.247 197.548 215.432 197.578 215.642C197.609 215.852 197.556 216.061 197.429 216.232L196.574 217.378C197.085 217.965 197.481 218.629 197.754 219.358L199.169 219.152C199.379 219.121 199.588 219.174 199.759 219.301C199.929 219.428 200.039 219.613 200.069 219.823L200.242 221.004C200.306 221.438 200.004 221.842 199.57 221.905L198.155 222.111C198.101 222.887 197.911 223.637 197.589 224.345L198.736 225.2C198.906 225.327 199.017 225.513 199.047 225.722C199.077 225.932 199.025 226.142 198.898 226.311L198.185 227.268C198.058 227.438 197.872 227.549 197.662 227.579C197.452 227.61 197.243 227.557 197.073 227.43L195.926 226.575C195.339 227.086 194.675 227.482 193.946 227.755L194.152 229.17C194.183 229.38 194.131 229.589 194.003 229.76C193.877 229.93 193.691 230.04 193.481 230.071L192.3 230.243C191.867 230.306 191.463 230.005 191.399 229.571L191.193 228.156C190.417 228.102 189.668 227.912 188.959 227.59L188.104 228.737C187.977 228.907 187.792 229.017 187.582 229.048C187.371 229.079 187.162 229.026 186.992 228.899L186.035 228.186C185.865 228.058 185.754 227.873 185.724 227.663C185.693 227.452 185.747 227.243 185.874 227.073L186.729 225.926C186.218 225.34 185.821 224.675 185.549 223.947L184.133 224.153C183.924 224.184 183.714 224.131 183.544 224.004C183.374 223.877 183.263 223.692 183.233 223.482L183.061 222.301C183.049 222.22 183.051 222.138 183.063 222.06ZM185.611 221.441C185.595 221.542 185.514 221.624 185.41 221.639L183.801 221.873C183.628 221.898 183.509 222.06 183.532 222.233L183.705 223.413C183.717 223.497 183.761 223.571 183.829 223.622C183.897 223.672 183.981 223.694 184.065 223.681L185.673 223.447C185.787 223.43 185.897 223.497 185.934 223.606C186.207 224.408 186.637 225.13 187.212 225.751C187.29 225.835 187.297 225.963 187.228 226.055L186.256 227.359C186.206 227.427 186.184 227.51 186.196 227.594C186.209 227.678 186.253 227.752 186.321 227.803L187.278 228.516C187.346 228.567 187.429 228.588 187.513 228.575C187.597 228.563 187.672 228.519 187.722 228.451L188.694 227.148C188.763 227.055 188.887 227.025 188.99 227.076C189.75 227.45 190.564 227.656 191.411 227.69C191.525 227.694 191.621 227.78 191.637 227.894L191.871 229.502C191.897 229.676 192.059 229.796 192.232 229.771L193.413 229.599C193.497 229.586 193.571 229.542 193.622 229.474C193.672 229.406 193.693 229.322 193.681 229.238L193.447 227.63C193.432 227.517 193.497 227.406 193.606 227.37C194.407 227.097 195.129 226.667 195.75 226.091C195.835 226.013 195.963 226.006 196.055 226.075L197.358 227.047C197.426 227.098 197.51 227.119 197.594 227.107C197.678 227.094 197.752 227.05 197.803 226.982L198.516 226.025C198.567 225.957 198.588 225.874 198.576 225.79C198.563 225.706 198.519 225.632 198.452 225.581L197.148 224.609C197.056 224.541 197.026 224.416 197.077 224.313C197.451 223.553 197.657 222.738 197.69 221.893C197.693 221.778 197.78 221.682 197.894 221.666L199.503 221.432C199.676 221.406 199.795 221.244 199.771 221.072L199.599 219.891C199.586 219.807 199.542 219.733 199.474 219.682C199.407 219.631 199.323 219.61 199.24 219.623L197.63 219.857C197.517 219.874 197.407 219.806 197.37 219.698C197.097 218.896 196.666 218.174 196.092 217.553C196.014 217.469 196.008 217.341 196.076 217.249L197.047 215.945C197.098 215.877 197.119 215.794 197.107 215.71C197.095 215.626 197.051 215.552 196.983 215.501L196.026 214.788C195.958 214.737 195.874 214.716 195.791 214.728C195.707 214.741 195.632 214.785 195.581 214.853L194.61 216.156C194.541 216.249 194.417 216.279 194.314 216.228C193.553 215.854 192.739 215.648 191.893 215.615C191.778 215.611 191.683 215.525 191.666 215.411L191.432 213.802C191.407 213.629 191.246 213.509 191.072 213.534L189.891 213.706C189.807 213.718 189.733 213.762 189.682 213.83C189.632 213.898 189.611 213.982 189.623 214.066L189.857 215.674C189.873 215.789 189.806 215.897 189.698 215.934C188.897 216.207 188.175 216.637 187.553 217.213C187.469 217.291 187.341 217.297 187.249 217.229L185.945 216.257C185.805 216.153 185.605 216.182 185.501 216.322L184.788 217.278C184.684 217.419 184.713 217.618 184.853 217.722L186.156 218.694C186.248 218.762 186.278 218.888 186.228 218.99C185.854 219.75 185.648 220.564 185.615 221.411C185.614 221.422 185.613 221.431 185.611 221.441ZM188.23 221.092C188.318 220.55 188.535 220.034 188.873 219.581C189.427 218.839 190.236 218.357 191.152 218.223C192.068 218.09 192.981 218.321 193.723 218.874C194.465 219.427 194.947 220.237 195.081 221.153C195.213 222.069 194.983 222.982 194.43 223.724C193.876 224.466 193.067 224.948 192.151 225.082C191.235 225.216 190.322 224.984 189.58 224.431C188.838 223.878 188.356 223.069 188.222 222.152C188.17 221.795 188.174 221.439 188.23 221.092ZM194.6 222.137C194.773 221.071 194.362 219.946 193.438 219.257C192.798 218.78 192.01 218.58 191.221 218.695C190.431 218.81 189.733 219.227 189.256 219.866C188.779 220.506 188.579 221.293 188.695 222.083C188.81 222.873 189.226 223.571 189.865 224.048C190.505 224.525 191.293 224.725 192.082 224.61C192.872 224.495 193.57 224.079 194.047 223.439C194.343 223.043 194.525 222.595 194.6 222.137Z" fill="#5800B5"/>
<path d="M160.694 211.98C160.694 193.046 144.302 177.941 124.936 180.083C110.408 181.689 98.6205 193.248 96.7655 207.747C95.1585 220.313 100.827 231.682 110.133 238.234C112.693 240.037 114.133 243.043 114.133 246.174V259.872H143.055V246.141C143.055 242.991 144.549 240.008 147.12 238.187C155.331 232.375 160.694 222.806 160.694 211.98Z" fill="url(#paint0_linear_58_3)"/>
<path d="M143.055 260.372H114.133C113.857 260.372 113.633 260.148 113.633 259.872V246.174C113.633 243.129 112.217 240.313 109.845 238.643C99.9224 231.656 94.7204 219.793 96.2684 207.684C98.1434 193.029 110.176 181.212 124.88 179.586C134.295 178.544 143.337 181.422 150.333 187.688C157.235 193.869 161.193 202.723 161.193 211.981C161.193 222.537 156.04 232.486 147.408 238.597C144.995 240.305 143.554 243.126 143.554 246.142V259.873C143.555 260.149 143.331 260.372 143.055 260.372ZM114.633 259.372H142.555V246.141C142.555 242.801 144.154 239.675 146.831 237.779C155.199 231.856 160.194 222.212 160.194 211.98C160.194 203.006 156.357 194.423 149.667 188.432C142.885 182.359 134.117 179.569 124.991 180.579C110.74 182.154 99.0774 193.606 97.2614 207.809C95.7594 219.55 100.802 231.051 110.422 237.824C113.059 239.681 114.633 242.803 114.633 246.173V259.372Z" fill="#5800B5"/>
<path d="M125.209 251.841C124.933 251.841 124.709 251.617 124.709 251.341V230.806H121.175C118.992 230.806 117.217 229.031 117.217 226.848C117.217 224.665 118.992 222.89 121.175 222.89H121.751C123.934 222.89 125.709 224.665 125.709 226.848V229.806H131.404C131.68 229.806 131.904 230.03 131.904 230.306C131.904 230.582 131.68 230.806 131.404 230.806H125.709V251.341C125.709 251.617 125.485 251.841 125.209 251.841ZM121.175 223.89C119.544 223.89 118.217 225.217 118.217 226.848C118.217 228.479 119.544 229.806 121.175 229.806H124.709V226.848C124.709 225.217 123.382 223.89 121.751 223.89H121.175Z" fill="#5800B5"/>
<path d="M131.98 251.841C131.704 251.841 131.48 251.617 131.48 251.341V230.806H125.785C125.509 230.806 125.285 230.582 125.285 230.306C125.285 230.03 125.509 229.806 125.785 229.806H131.48V226.848C131.48 224.665 133.255 222.89 135.438 222.89H136.015C138.197 222.89 139.973 224.665 139.973 226.848C139.973 229.03 138.198 230.806 136.015 230.806H132.481V251.341C132.48 251.617 132.257 251.841 131.98 251.841ZM132.48 229.806H136.014C137.645 229.806 138.972 228.479 138.972 226.848C138.972 225.217 137.645 223.89 136.014 223.89H135.437C133.806 223.89 132.479 225.217 132.479 226.848L132.48 229.806Z" fill="#5800B5"/>
<path d="M128.594 274.214C133.199 274.214 136.933 270.48 136.933 265.875C136.933 261.269 133.199 257.536 128.594 257.536C123.988 257.536 120.255 261.269 120.255 265.875C120.255 270.48 123.988 274.214 128.594 274.214Z" fill="white"/>
<path d="M128.595 274.713C123.721 274.713 119.756 270.748 119.756 265.874C119.756 261.001 123.721 257.036 128.595 257.036C133.469 257.036 137.433 261.001 137.433 265.874C137.433 270.748 133.468 274.713 128.595 274.713ZM128.595 258.036C124.273 258.036 120.756 261.552 120.756 265.874C120.756 270.196 124.273 273.713 128.595 273.713C132.917 273.713 136.433 270.196 136.433 265.874C136.433 261.552 132.917 258.036 128.595 258.036Z" fill="#5800B5"/>
<path d="M142.911 259.75H114.279C112.241 259.75 110.59 258.098 110.59 256.06C110.59 254.023 112.242 252.371 114.279 252.371H142.911C144.949 252.371 146.6 254.023 146.6 256.06C146.6 258.098 144.948 259.75 142.911 259.75Z" fill="white"/>
<path d="M142.911 260.25H114.279C111.969 260.25 110.09 258.37 110.09 256.06C110.09 253.75 111.969 251.871 114.279 251.871H142.911C145.221 251.871 147.1 253.75 147.1 256.06C147.1 258.37 145.221 260.25 142.911 260.25ZM114.278 252.87C112.519 252.87 111.089 254.301 111.089 256.059C111.089 257.817 112.52 259.249 114.278 259.249H142.91C144.669 259.249 146.099 257.817 146.099 256.059C146.099 254.301 144.668 252.87 142.91 252.87H114.278Z" fill="#5800B5"/>
<path d="M140.333 265.801H116.855C115.184 265.801 113.83 264.447 113.83 262.776C113.83 261.105 115.184 259.751 116.855 259.751H140.333C142.004 259.751 143.359 261.105 143.359 262.776C143.359 264.446 142.005 265.801 140.333 265.801Z" fill="white"/>
<path d="M140.334 266.301H116.855C114.911 266.301 113.33 264.72 113.33 262.776C113.33 260.832 114.912 259.251 116.855 259.251H140.334C142.278 259.251 143.859 260.832 143.859 262.776C143.859 264.72 142.278 266.301 140.334 266.301ZM116.855 260.25C115.462 260.25 114.33 261.383 114.33 262.775C114.33 264.167 115.463 265.3 116.855 265.3H140.334C141.727 265.3 142.859 264.167 142.859 262.775C142.859 261.383 141.726 260.25 140.334 260.25H116.855Z" fill="#5800B5"/>
<path d="M108.861 191.813C106.017 195.6 105.868 200.289 108.528 202.286C111.188 204.283 115.649 202.831 118.492 199.044C121.336 195.257 121.485 190.568 118.825 188.571C116.165 186.574 111.704 188.026 108.861 191.813Z" fill="#F9F9F9"/>
<path d="M109.763 178.975C109.645 178.975 109.528 178.934 109.432 178.85L102.572 172.804C102.365 172.621 102.345 172.305 102.528 172.098C102.711 171.89 103.027 171.872 103.234 172.054L110.094 178.1C110.301 178.283 110.321 178.599 110.138 178.806C110.04 178.918 109.901 178.975 109.763 178.975Z" fill="#5800B5"/>
<path d="M144.574 180.144C144.473 180.144 144.371 180.113 144.283 180.049C144.059 179.887 144.008 179.575 144.169 179.351L149.521 171.936C149.682 171.712 149.994 171.661 150.219 171.823C150.443 171.985 150.494 172.297 150.333 172.521L144.98 179.936C144.882 180.072 144.729 180.144 144.574 180.144Z" fill="#5800B5"/>
<path d="M127.068 177.126C126.806 177.126 126.586 176.921 126.569 176.656L125.993 167.531C125.975 167.256 126.185 167.018 126.461 167.001C126.712 166.989 126.974 167.192 126.991 167.469L127.567 176.594C127.585 176.869 127.375 177.107 127.099 177.124C127.09 177.124 127.079 177.126 127.068 177.126Z" fill="#5800B5"/>
<path d="M34.788 147.392C34.079 147.392 33.411 147.117 32.908 146.618C32.401 146.116 32.1211 145.446 32.1181 144.733L31.999 114.799C31.996 114.086 32.271 113.414 32.773 112.908C33.276 112.402 33.945 112.121 34.659 112.118L64.2451 112C64.2491 112 64.2531 112 64.2561 112C64.9651 112 65.6331 112.275 66.1361 112.774C66.6431 113.276 66.923 113.946 66.926 114.659L67.0451 144.593C67.0501 146.066 65.857 147.268 64.385 147.274L34.799 147.391C34.794 147.392 34.791 147.392 34.788 147.392ZM64.255 113C64.253 113 64.2501 113 64.2481 113L34.6621 113.118C34.2161 113.119 33.7971 113.295 33.4821 113.612C33.1681 113.929 32.9961 114.349 32.9981 114.795L33.117 144.729C33.119 145.175 33.295 145.594 33.611 145.908C33.926 146.221 34.35 146.384 34.794 146.392L64.38 146.275C65.301 146.271 66.047 145.519 66.044 144.597L65.9251 114.664C65.9231 114.218 65.7471 113.799 65.4311 113.485C65.1171 113.172 64.699 113 64.255 113Z" fill="#5800B5"/>
<path d="M56.228 127.301H51.915V122.988C51.915 122.334 51.385 121.803 50.73 121.803H48.311C47.656 121.803 47.1249 122.333 47.1249 122.988V127.301H42.812C42.158 127.301 41.627 127.832 41.627 128.486V130.905C41.627 131.559 42.157 132.09 42.812 132.09H47.1249V136.403C47.1249 137.057 47.655 137.588 48.311 137.588H50.73C51.384 137.588 51.915 137.057 51.915 136.403V132.09H56.228C56.882 132.09 57.4139 131.56 57.4139 130.905V128.486C57.4139 127.832 56.882 127.301 56.228 127.301Z" fill="white"/>
<path d="M50.7309 138.088H48.3119C47.3819 138.088 46.6259 137.332 46.6259 136.403V132.59H42.8129C41.8839 132.59 41.1279 131.834 41.1279 130.905V128.486C41.1279 127.557 41.8839 126.801 42.8129 126.801H46.6259V122.988C46.6259 122.059 47.3819 121.303 48.3119 121.303H50.7309C51.6599 121.303 52.4159 122.059 52.4159 122.988V126.801H56.2289C57.1589 126.801 57.9149 127.557 57.9149 128.486V130.905C57.9149 131.834 57.1589 132.59 56.2289 132.59H52.4159V136.403C52.4159 137.332 51.6599 138.088 50.7309 138.088ZM42.8139 127.801C42.4359 127.801 42.1289 128.108 42.1289 128.486V130.905C42.1289 131.282 42.4359 131.59 42.8139 131.59H47.1269C47.4029 131.59 47.6269 131.814 47.6269 132.09V136.403C47.6269 136.781 47.9349 137.088 48.3129 137.088H50.7319C51.1099 137.088 51.4169 136.781 51.4169 136.403V132.09C51.4169 131.814 51.6409 131.59 51.9169 131.59H56.2299C56.6079 131.59 56.9159 131.283 56.9159 130.905V128.486C56.9159 128.108 56.6079 127.801 56.2299 127.801H51.9169C51.6409 127.801 51.4169 127.577 51.4169 127.301V122.988C51.4169 122.611 51.1099 122.303 50.7319 122.303H48.3129C47.9349 122.303 47.6269 122.61 47.6269 122.988V127.301C47.6269 127.577 47.4029 127.801 47.1269 127.801H42.8139Z" fill="#5800B5"/>
<path d="M173.986 12.9881C173.887 12.9881 173.798 12.9341 173.751 12.8486L172.829 11.1522L171.138 10.2211C171.052 10.174 170.998 10.0842 170.999 9.98632C171 9.88845 171.053 9.7986 171.139 9.75207L172.836 8.83008L173.766 7.13851C173.813 7.05295 173.903 7 174 7H174.001C174.099 7 174.189 7.05402 174.235 7.13958L175.157 8.83597L176.848 9.76651C176.934 9.81358 176.987 9.90342 176.987 10.0013C176.987 10.0992 176.933 10.189 176.847 10.2355L175.15 11.1575L174.22 12.8491C174.173 12.9352 174.083 12.9881 173.986 12.9881ZM171.824 9.98846L173.155 10.7217C173.2 10.7463 173.237 10.7832 173.261 10.8281L173.987 12.1635L174.719 10.8318C174.744 10.7874 174.781 10.7505 174.826 10.7259L176.161 10.0002L174.83 9.26755C174.785 9.24295 174.748 9.20605 174.724 9.16112L173.999 7.82519L173.266 9.15684C173.241 9.20123 173.204 9.23813 173.159 9.26273L171.824 9.98846Z" fill="#5800B5"/>
<path d="M13.9859 161.988C13.8869 161.988 13.7976 161.934 13.7511 161.849L12.8291 160.152L11.1375 159.221C11.052 159.174 10.9985 159.084 10.999 158.986C10.9996 158.888 11.053 158.799 11.1391 158.752L12.8355 157.83L13.766 156.139C13.8131 156.053 13.903 156 14.0003 156C14.0987 156 14.1885 156.054 14.2351 156.14L15.1571 157.836L16.8487 158.767C16.9342 158.814 16.9871 158.904 16.9871 159.002C16.9871 159.1 16.9332 159.19 16.8471 159.236L15.1507 160.158L14.2201 161.849C14.173 161.935 14.0837 161.988 13.9859 161.988ZM11.8237 158.988L13.1553 159.722C13.2002 159.746 13.2366 159.783 13.2612 159.828L13.9869 161.163L14.7196 159.832C14.7447 159.787 14.7811 159.751 14.8266 159.726L16.162 159L14.8303 158.268C14.7854 158.243 14.749 158.206 14.7244 158.161L13.9987 156.825L13.266 158.157C13.2409 158.201 13.204 158.238 13.159 158.263L11.8237 158.988Z" fill="#5800B5"/>
<path d="M179.986 220.988H179.985C179.887 220.988 179.798 220.934 179.751 220.848L178.829 219.152L177.138 218.221C177.052 218.173 176.999 218.084 176.999 217.986C176.999 217.888 177.053 217.798 177.139 217.752L178.835 216.83L179.766 215.139C179.813 215.053 179.903 215 180 215H180.001C180.099 215 180.189 215.054 180.235 215.14L181.157 216.836L182.849 217.767C182.934 217.814 182.987 217.904 182.987 218.002C182.987 218.1 182.933 218.19 182.848 218.236L181.151 219.158L180.22 220.849C180.173 220.935 180.083 220.988 179.986 220.988ZM177.824 217.988L179.155 218.721C179.2 218.746 179.237 218.783 179.261 218.828L179.987 220.163L180.72 218.831C180.745 218.787 180.782 218.75 180.827 218.725L182.163 218L180.831 217.267C180.786 217.242 180.75 217.206 180.725 217.161L179.999 215.825L179.266 217.156C179.241 217.201 179.205 217.238 179.16 217.262L177.824 217.988Z" fill="#5800B5"/>
<path d="M83.2988 184.621C83.1999 184.621 83.11 184.567 83.064 184.482L81.6789 181.933L79.1376 180.534C79.052 180.487 78.999 180.397 78.999 180.299C78.999 180.201 79.053 180.112 79.1386 180.065L81.688 178.68L83.0865 176.139C83.1336 176.053 83.2234 176 83.3207 176H83.3213C83.4197 176 83.509 176.054 83.5555 176.14L84.9406 178.689L87.4826 180.088C87.5681 180.135 87.6216 180.225 87.6211 180.323C87.6205 180.421 87.567 180.51 87.4809 180.557L84.9316 181.942L83.5331 184.484C83.4865 184.568 83.3967 184.621 83.2988 184.621ZM79.8237 180.301L82.0051 181.501C82.0501 181.526 82.0864 181.563 82.111 181.608L83.3004 183.796L84.501 181.614C84.5262 181.57 84.5631 181.533 84.608 181.508L86.7964 180.319L84.6144 179.118C84.5695 179.093 84.5331 179.056 84.5085 179.011L83.3191 176.823L82.1185 179.005C82.0934 179.049 82.057 179.086 82.0121 179.111L79.8237 180.301Z" fill="#5800B5"/>
<path d="M55.2988 214.622C55.1769 214.631 55.1106 214.569 55.064 214.482L53.6789 211.933L51.1375 210.534C51.052 210.487 50.999 210.397 50.999 210.299C50.999 210.201 51.053 210.112 51.1386 210.065L53.688 208.68L55.087 206.139C55.1341 206.053 55.2127 206.01 55.3218 206C55.4197 206 55.5095 206.054 55.556 206.14L56.9412 208.689L59.4825 210.088C59.5681 210.135 59.6211 210.225 59.6211 210.323C59.6211 210.42 59.567 210.51 59.4815 210.557L56.9321 211.942L55.533 214.484C55.486 214.569 55.3961 214.622 55.2988 214.622ZM51.8231 210.301L54.0051 211.503C54.0495 211.527 54.0864 211.564 54.111 211.609L55.3004 213.797L56.501 211.615C56.5256 211.571 56.5625 211.534 56.6075 211.509L58.7959 210.321L56.6139 209.119C56.5695 209.095 56.5326 209.058 56.508 209.013L55.3191 206.825L54.118 209.007C54.0934 209.051 54.0565 209.088 54.0115 209.113L51.8231 210.301Z" fill="#5800B5"/>
<path d="M240.299 165.623C240.201 165.623 240.111 165.569 240.065 165.483L238.679 162.934L236.138 161.535C236.052 161.487 235.998 161.398 235.999 161.3C236 161.202 236.053 161.112 236.139 161.066L238.688 159.68L240.086 157.139C240.134 157.053 240.223 157 240.321 157H240.321C240.42 157 240.51 157.054 240.556 157.14L241.941 159.689L244.483 161.088C244.568 161.135 244.622 161.225 244.621 161.323C244.621 161.421 244.567 161.51 244.481 161.557L241.932 162.942L240.534 165.484C240.487 165.57 240.397 165.623 240.299 165.623ZM236.824 161.302L239.005 162.503C239.05 162.528 239.086 162.565 239.111 162.61L240.301 164.798L241.501 162.616C241.526 162.572 241.563 162.535 241.608 162.51L243.796 161.321L241.614 160.12C241.569 160.095 241.533 160.059 241.509 160.014L240.319 157.825L239.119 160.007C239.093 160.052 239.057 160.088 239.012 160.113L236.824 161.302Z" fill="#5800B5"/>
<path d="M46.995 254.007C46.9158 254.003 46.8067 253.953 46.7602 253.867L45.835 252.164L44.1375 251.23C44.052 251.183 43.999 251.093 43.999 250.995C43.999 250.898 44.053 250.808 44.1386 250.761L45.8414 249.836L46.7757 248.139C46.8228 248.053 46.9126 248 47.0099 248C47.1078 248 47.1982 248.054 47.2447 248.14L48.1699 249.842L49.8674 250.777C49.9529 250.824 50.0059 250.914 50.0059 251.011C50.0059 251.109 49.9519 251.199 49.8663 251.246L48.1635 252.171L47.2292 253.868C47.1821 253.954 47.0923 254.007 46.995 254.007ZM44.8231 250.997L46.1612 251.733C46.2056 251.758 46.2425 251.795 46.2671 251.84L46.996 253.182L47.7325 251.844C47.7571 251.799 47.794 251.762 47.8389 251.738L49.1807 251.009L47.8426 250.272C47.7982 250.248 47.7613 250.211 47.7367 250.166L47.0078 248.824L46.2714 250.162C46.2468 250.207 46.2099 250.243 46.165 250.268L44.8231 250.997Z" fill="#5800B5"/>
<path d="M224.248 248.206C224.1 248.206 223.98 248.087 223.98 247.939V246.268C223.98 246.12 224.1 246 224.248 246C224.395 246 224.515 246.12 224.515 246.268V247.939C224.515 248.087 224.396 248.206 224.248 248.206Z" fill="#5800B5"/>
<path d="M224.248 252.499C224.1 252.499 223.98 252.379 223.98 252.232V250.56C223.98 250.413 224.1 250.293 224.248 250.293C224.395 250.293 224.515 250.413 224.515 250.56V252.232C224.515 252.38 224.396 252.499 224.248 252.499Z" fill="#5800B5"/>
<path d="M227.231 249.517H225.559C225.412 249.517 225.292 249.397 225.292 249.249C225.292 249.102 225.412 248.982 225.559 248.982H227.231C227.379 248.982 227.499 249.102 227.499 249.249C227.499 249.397 227.379 249.517 227.231 249.517Z" fill="#5800B5"/>
<path d="M222.938 249.517H221.266C221.119 249.517 220.999 249.397 220.999 249.249C220.999 249.102 221.119 248.982 221.266 248.982H222.938C223.086 248.982 223.206 249.102 223.206 249.249C223.206 249.397 223.086 249.517 222.938 249.517Z" fill="#5800B5"/>
<path d="M222.141 251.626C222.072 251.626 222.004 251.6 221.951 251.548C221.847 251.443 221.847 251.274 221.951 251.17L223.133 249.988C223.237 249.883 223.407 249.883 223.511 249.988C223.616 250.092 223.616 250.262 223.511 250.366L222.329 251.548C222.277 251.6 222.209 251.626 222.141 251.626Z" fill="#5800B5"/>
<path d="M225.176 248.59C225.107 248.59 225.039 248.564 224.986 248.512C224.882 248.408 224.882 248.238 224.986 248.134L226.168 246.952C226.273 246.848 226.442 246.848 226.546 246.952C226.651 247.057 226.651 247.226 226.546 247.33L225.365 248.512C225.312 248.565 225.244 248.59 225.176 248.59Z" fill="#5800B5"/>
<path d="M223.322 248.59C223.254 248.59 223.186 248.564 223.133 248.512L221.951 247.33C221.847 247.226 221.847 247.057 221.951 246.952C222.056 246.848 222.225 246.848 222.329 246.952L223.511 248.134C223.616 248.239 223.616 248.408 223.511 248.512C223.459 248.565 223.391 248.59 223.322 248.59Z" fill="#5800B5"/>
<path d="M226.358 251.626C226.289 251.626 226.221 251.6 226.168 251.548L224.986 250.366C224.882 250.261 224.882 250.092 224.986 249.988C225.091 249.883 225.26 249.883 225.365 249.988L226.546 251.17C226.651 251.274 226.651 251.443 226.546 251.548C226.494 251.6 226.426 251.626 226.358 251.626Z" fill="#5800B5"/>
<path d="M81.6619 225.438C81.5143 225.438 81.3945 225.319 81.3945 225.171V223.267C81.3945 223.119 81.5143 223 81.6619 223C81.8095 223 81.9293 223.119 81.9293 223.267V225.171C81.9293 225.319 81.8095 225.438 81.6619 225.438Z" fill="#5800B5"/>
<path d="M81.6619 230.327C81.5143 230.327 81.3945 230.207 81.3945 230.06V228.156C81.3945 228.008 81.5143 227.888 81.6619 227.888C81.8095 227.888 81.9293 228.008 81.9293 228.156V230.06C81.9293 230.207 81.8095 230.327 81.6619 230.327Z" fill="#5800B5"/>
<path d="M80.1698 226.931H78.2664C78.1188 226.931 77.999 226.811 77.999 226.664C77.999 226.516 78.1188 226.396 78.2664 226.396H80.1698C80.3174 226.396 80.4372 226.516 80.4372 226.664C80.4372 226.811 80.3174 226.931 80.1698 226.931Z" fill="#5800B5"/>
<path d="M85.0584 226.931H83.1551C83.0075 226.931 82.8877 226.812 82.8877 226.664C82.8877 226.516 83.0075 226.397 83.1551 226.397H85.0584C85.206 226.397 85.3258 226.516 85.3258 226.664C85.3258 226.812 85.206 226.931 85.0584 226.931Z" fill="#5800B5"/>
<path d="M84.0638 229.333C83.9954 229.333 83.9269 229.307 83.8745 229.255L82.5284 227.908C82.4241 227.804 82.4241 227.635 82.5284 227.53C82.6327 227.426 82.8022 227.426 82.9065 227.53L84.2526 228.877C84.3569 228.981 84.3569 229.151 84.2526 229.255C84.2007 229.307 84.1323 229.333 84.0638 229.333Z" fill="#5800B5"/>
<path d="M80.6068 225.876C80.5383 225.876 80.4699 225.85 80.4175 225.798L79.0714 224.452C78.9671 224.348 78.9671 224.178 79.0714 224.074C79.1757 223.97 79.3452 223.97 79.4495 224.074L80.7956 225.42C80.8999 225.524 80.8999 225.694 80.7956 225.798C80.7437 225.85 80.6752 225.876 80.6068 225.876Z" fill="#5800B5"/>
<path d="M82.7177 225.876C82.6493 225.876 82.5808 225.85 82.5284 225.798C82.4241 225.694 82.4241 225.524 82.5284 225.42L83.8745 224.074C83.9788 223.97 84.1483 223.97 84.2526 224.074C84.3569 224.178 84.3569 224.348 84.2526 224.452L82.9065 225.798C82.8546 225.85 82.7862 225.876 82.7177 225.876Z" fill="#5800B5"/>
<path d="M79.2607 229.333C79.1922 229.333 79.1238 229.307 79.0714 229.255C78.9671 229.151 78.9671 228.981 79.0714 228.877L80.4175 227.53C80.5218 227.426 80.6913 227.426 80.7956 227.53C80.8999 227.635 80.8999 227.804 80.7956 227.908L79.4495 229.255C79.3971 229.307 79.3286 229.333 79.2607 229.333Z" fill="#5800B5"/>
<path d="M16.2127 100.746C16.0651 100.746 15.9453 100.627 15.9453 100.479V98.267C15.9453 98.1194 16.0651 97.9996 16.2127 97.9996C16.3603 97.9996 16.4801 98.1194 16.4801 98.267V100.479C16.4801 100.627 16.3603 100.746 16.2127 100.746Z" fill="#5800B5"/>
<path d="M16.2127 106.427C16.0651 106.427 15.9453 106.307 15.9453 106.159V103.947C15.9453 103.8 16.0651 103.68 16.2127 103.68C16.3603 103.68 16.4801 103.8 16.4801 103.947V106.159C16.4801 106.308 16.3603 106.427 16.2127 106.427Z" fill="#5800B5"/>
<path d="M14.4783 102.48H12.2664C12.1188 102.48 11.999 102.361 11.999 102.213C11.999 102.065 12.1188 101.946 12.2664 101.946H14.4783C14.6259 101.946 14.7457 102.065 14.7457 102.213C14.7457 102.361 14.6259 102.48 14.4783 102.48Z" fill="#5800B5"/>
<path d="M20.1595 102.48H17.9471C17.7995 102.48 17.6797 102.361 17.6797 102.213C17.6797 102.065 17.7995 101.946 17.9471 101.946H20.1595C20.3072 101.946 20.4269 102.065 20.4269 102.213C20.4269 102.361 20.3072 102.48 20.1595 102.48Z" fill="#5800B5"/>
<path d="M19.0037 105.271C18.9352 105.271 18.8668 105.244 18.8144 105.193L17.2501 103.628C17.1458 103.524 17.1458 103.354 17.2501 103.25C17.3544 103.146 17.5239 103.146 17.6282 103.25L19.1925 104.814C19.2968 104.919 19.2968 105.088 19.1925 105.193C19.1401 105.244 19.0716 105.271 19.0037 105.271Z" fill="#5800B5"/>
<path d="M14.9871 101.254C14.9187 101.254 14.8502 101.228 14.7978 101.176L13.2335 99.6115C13.1292 99.5072 13.1292 99.3377 13.2335 99.2334C13.3378 99.1291 13.5073 99.1291 13.6116 99.2334L15.1759 100.798C15.2802 100.902 15.2802 101.071 15.1759 101.176C15.124 101.228 15.0556 101.254 14.9871 101.254Z" fill="#5800B5"/>
<path d="M17.4394 101.254C17.371 101.254 17.3025 101.228 17.2501 101.176C17.1458 101.071 17.1458 100.902 17.2501 100.798L18.8144 99.2334C18.9187 99.1291 19.0882 99.1291 19.1925 99.2334C19.2968 99.3377 19.2968 99.5072 19.1925 99.6115L17.6282 101.176C17.5763 101.228 17.5079 101.254 17.4394 101.254Z" fill="#5800B5"/>
<path d="M13.4228 105.271C13.3544 105.271 13.2859 105.244 13.2335 105.193C13.1292 105.088 13.1292 104.919 13.2335 104.814L14.7978 103.25C14.9021 103.146 15.0716 103.146 15.1759 103.25C15.2802 103.354 15.2802 103.524 15.1759 103.628L13.6116 105.193C13.5597 105.244 13.4913 105.271 13.4228 105.271Z" fill="#5800B5"/>
<rect x="23.999" y="167" width="50.5" height="4" fill="white"/>
<rect x="180.749" y="165" width="50" height="3" fill="white"/>
<rect x="192.749" y="9" width="50" height="3" fill="white"/>
<rect x="103.749" y="9" width="49" height="3" fill="white"/>
<rect x="15.749" y="9" width="49" height="3" fill="white"/>
<path d="M54.1328 284.102C53.2044 283.283 52.3477 282.547 51.5134 281.788C48.2012 278.771 45.2536 275.436 42.7174 271.737C41.8 270.398 40.9551 269.015 40.178 267.595C39.0019 265.446 38.1353 263.164 37.4253 260.821C37.0972 259.738 36.7155 258.671 36.3893 257.586C35.4466 254.455 35.3049 251.257 35.5946 248.021C35.9617 243.918 37.2462 240.128 39.4186 236.634C39.4654 236.559 39.5093 236.481 39.559 236.408C39.8546 235.969 39.8825 235.961 40.3702 236.133C42.3866 236.842 44.4482 237.38 46.5575 237.712C50.4826 238.331 54.3924 238.268 58.2631 237.307C60.3113 236.798 62.206 235.954 63.8532 234.603C65.0587 233.614 66.0235 232.437 66.6316 230.997C67.4265 229.112 67.4834 227.231 66.3866 225.435C65.5558 224.075 64.3046 223.215 62.8255 222.665C60.563 221.822 58.229 221.703 55.8643 222.019C53.3351 222.357 50.9418 223.127 48.6449 224.253C44.8577 226.11 41.7681 228.785 39.1843 232.083C38.7244 232.671 38.717 232.702 38.0226 232.461C36.0508 231.777 34.0813 231.086 32.1222 230.365C28.6397 229.083 25.2298 227.627 21.8972 225.994C21.1397 225.622 20.3978 225.22 19.6465 224.835C19.4594 224.739 19.287 224.596 18.978 224.576C19.1678 224.868 19.3868 225.018 19.5894 225.174C23.3496 228.069 27.3165 230.63 31.6489 232.593C33.2056 233.298 34.7837 233.959 36.3559 234.631C37.1522 234.971 37.1593 234.967 36.7116 235.705C34.093 240.02 32.8253 244.721 32.6161 249.746C32.4621 253.44 33.0335 257.008 34.3172 260.462C35.2544 262.986 36.4428 265.387 37.8344 267.698C40.9333 272.843 45.0219 277.099 49.5966 280.925C50.8731 281.993 52.1203 283.103 53.5878 283.919C53.7184 283.991 53.8295 284.117 54.1328 284.102ZM49.7145 226.789C50.6187 226.302 51.9639 225.782 53.3506 225.377C55.6567 224.703 57.9967 224.398 60.3888 224.847C61.3346 225.025 62.2372 225.331 63.0301 225.894C64.2411 226.754 64.6401 227.921 64.2231 229.339C63.8861 230.485 63.1938 231.393 62.3172 232.174C61.1523 233.212 59.7883 233.891 58.3079 234.341C55.6445 235.152 52.9052 235.365 50.1418 235.281C47.3962 235.198 44.72 234.677 42.1028 233.853C41.5408 233.676 41.5342 233.632 41.9078 233.146C41.9206 233.128 41.9357 233.112 41.9502 233.094C44.0309 230.595 46.4495 228.504 49.7145 226.789Z" fill="#C8BCEA"/>
<path d="M22.2541 236.884L25.9756 226.137L26.0105 226.037L26.0834 225.959L34.4767 216.992L1.2382 212.07L22.2541 236.884Z" fill="white" stroke="#652AC1"/>
<path d="M25.9616 227.981L31.2488 229.007L27.7318 224.999L6.02425 214.773L25.9616 227.981Z" fill="#CECEF4" stroke="#652AC1"/>
<path d="M77.0757 202.235H76.707C75.6213 202.235 75.0785 200.923 75.8457 200.156L76.1064 199.895C76.5822 199.419 76.5822 198.647 76.1064 198.171L75.1232 197.188C74.6474 196.712 73.8764 196.712 73.3996 197.188L73.1389 197.45C72.3717 198.216 71.0597 197.673 71.0597 196.588V196.219C71.0597 195.546 70.5141 195 69.8419 195H68.4517C67.7785 195 67.2329 195.546 67.2329 196.219V196.588C67.2329 197.673 65.9209 198.216 65.1537 197.45L64.893 197.188C64.4172 196.712 63.6462 196.712 63.1695 197.188L62.1872 198.171C61.7104 198.647 61.7104 199.419 62.1872 199.895L62.4479 200.156C63.2151 200.923 62.6713 202.235 61.5866 202.235H61.2169C60.5447 202.235 59.999 202.78 59.999 203.454V204.843C59.999 205.516 60.5447 206.062 61.2169 206.062H61.5866C62.6713 206.062 63.2151 207.374 62.4479 208.141L62.1872 208.402C61.7104 208.877 61.7104 209.649 62.1872 210.125L63.1695 211.108C63.6462 211.584 64.4172 211.584 64.893 211.108L65.1537 210.848C65.9209 210.08 67.2329 210.623 67.2329 211.709V212.078C67.2329 212.751 67.7785 213.296 68.4517 213.296H69.8419C70.5141 213.296 71.0597 212.751 71.0597 212.078V211.709C71.0597 210.623 72.3717 210.08 73.1389 210.848L73.3996 211.108C73.8764 211.584 74.6474 211.584 75.1232 211.108L76.1064 210.125C76.5822 209.649 76.5822 208.877 76.1064 208.402L75.8457 208.141C75.0785 207.374 75.6222 206.062 76.707 206.062H77.0757C77.7489 206.062 78.2945 205.516 78.2945 204.843V203.454C78.2936 202.78 77.7489 202.235 77.0757 202.235ZM69.1463 207.406C67.3465 207.406 65.8883 205.948 65.8883 204.148C65.8883 202.348 67.3465 200.89 69.1463 200.89C70.9462 200.89 72.4052 202.348 72.4052 204.148C72.4052 205.948 70.9462 207.406 69.1463 207.406Z" fill="#642CFF"/>
<defs>
<linearGradient id="paint0_linear_58_3" x1="96.4936" y1="219.877" x2="160.694" y2="219.877" gradientUnits="userSpaceOnUse">
<stop stop-color="white"/>
<stop offset="1" stop-color="white"/>
</linearGradient>
</defs>
</svg>
