<svg width="240" height="260" viewBox="0 0 240 260" fill="none" xmlns="http://www.w3.org/2000/svg">
<path d="M52.5504 171.983C51.7655 172.152 51.0466 172.297 50.3348 172.463C47.5084 173.124 44.8163 174.1 42.2748 175.435C41.3551 175.919 40.4675 176.454 39.611 177.034C38.3146 177.912 37.1695 178.976 36.1028 180.13C35.6098 180.663 35.0887 181.169 34.5964 181.704C33.1747 183.248 32.2201 185.108 31.5164 187.14C30.6242 189.716 30.3729 192.42 30.74 195.253C30.748 195.314 30.7535 195.375 30.7636 195.436C30.8236 195.8 30.8383 195.814 31.1804 195.88C32.5948 196.15 33.9901 196.538 35.3584 197.066C37.9049 198.047 40.2567 199.43 42.3407 201.336C43.4434 202.345 44.3624 203.5 44.9934 204.874C45.4551 205.879 45.7198 206.914 45.6971 207.983C45.6668 209.381 45.19 210.524 44.0377 211.218C43.1649 211.744 42.173 211.827 41.1274 211.646C39.5277 211.37 38.0813 210.638 36.7343 209.636C35.2935 208.564 34.0527 207.281 32.9669 205.818C31.1767 203.406 30.0313 200.747 29.3619 197.888C29.2428 197.379 29.2467 197.359 28.7606 197.263C27.38 196.993 25.9989 196.728 24.616 196.484C22.1579 196.05 19.6961 195.746 17.2332 195.574C16.6734 195.535 16.1144 195.52 15.5548 195.491C15.4154 195.484 15.2719 195.51 15.0794 195.416C15.2736 195.307 15.4471 195.293 15.6123 195.269C18.6771 194.835 21.7763 194.672 24.9345 194.991C26.0694 195.106 27.205 195.255 28.3401 195.395C28.915 195.466 28.9184 195.47 28.8474 194.876C28.4331 191.399 28.942 188.157 30.1803 185.086C31.0906 182.827 32.4059 180.895 34.1222 179.274C35.3757 178.09 36.7481 177.066 38.2189 176.166C41.4943 174.161 45.1278 173.028 48.9391 172.318C50.0026 172.12 51.0598 171.887 52.1705 171.905C52.2694 171.907 52.3707 171.87 52.5504 171.983ZM34.3039 204.672C34.7195 205.274 35.3932 206.048 36.1234 206.767C37.3377 207.962 38.6726 208.95 40.244 209.505C40.8653 209.724 41.4955 209.852 42.1287 209.789C43.0961 209.693 43.655 209.133 43.7875 208.143C43.8945 207.343 43.7219 206.563 43.4029 205.795C42.979 204.775 42.3369 203.9 41.5623 203.122C40.1689 201.721 38.5668 200.652 36.8696 199.751C35.1836 198.855 33.4206 198.245 31.611 197.836C31.2224 197.749 31.2064 197.773 31.3007 198.191C31.3036 198.207 31.3083 198.221 31.3124 198.237C31.8941 200.445 32.7916 202.525 34.3039 204.672Z" fill="#C8BCEA"/>
<path d="M20.2354 189.428L19.5884 196.913L19.58 197.018L19.612 197.118L22.1393 204.979L1.38498 196.765L20.2354 189.428Z" fill="white" stroke="#652EFF"/>
<path d="M20.1852 195.952L23.238 197.01L20.5131 198.01L6.74482 196.83L20.1852 195.952Z" fill="#CECEF4" stroke="#652EFF"/>
<path d="M220.735 37.3191H36.9277V143.083C36.9277 144.822 38.2964 146.232 39.9846 146.232H217.678C219.366 146.232 220.735 144.822 220.735 143.083L220.735 37.3191Z" fill="#FEFEFE"/>
<path d="M72.7008 12.0939H27.0327C26.9071 12.0939 26.8052 11.9889 26.8052 11.8595V8.09766C26.8052 7.96828 26.9071 7.86328 27.0327 7.86328H72.7008C72.8263 7.86328 72.9283 7.96828 72.9283 8.09766V11.8595C72.9283 11.9893 72.8268 12.0939 72.7008 12.0939ZM27.2602 11.6251H72.4732V8.33205H27.2602V11.6251Z" fill="#652EFF"/>
<path d="M151.68 12.0939H106.012C105.887 12.0939 105.785 11.9889 105.785 11.8595V8.09766C105.785 7.96828 105.887 7.86328 106.012 7.86328H151.68C151.805 7.86328 151.907 7.96828 151.907 8.09766V11.8595C151.907 11.9893 151.806 12.0939 151.68 12.0939ZM106.24 11.6251H151.452V8.33205H106.24V11.6251Z" fill="#652EFF"/>
<path d="M102.539 191.217L102.626 191.421C102.682 191.397 102.725 191.35 102.748 191.292L102.539 191.21M102.539 191.217V191.21M102.539 191.217V191.21M102.539 191.217L102.535 191.208L102.539 191.21M102.539 191.2L102.534 191.202L102.539 191.191M102.539 191.2V191.191M102.539 191.2L102.749 191.117H102.748C102.725 191.059 102.682 191.013 102.626 190.989L102.539 191.191M102.539 191.2V191.191M74.8589 156.758L74.854 156.76L74.855 156.757M74.8589 156.758L74.855 156.757M74.8589 156.758L74.8628 156.76L74.8618 156.757M74.8589 156.758L74.8618 156.757M74.855 156.757L74.8589 156.75M74.855 156.757L74.6479 156.675C74.6708 156.618 74.7155 156.572 74.771 156.548L74.8589 156.75M74.8618 156.757L75.0688 156.675C75.046 156.618 75.0021 156.572 74.9468 156.548L74.8589 156.75M74.8618 156.757L74.8589 156.75M77.8247 190.971V191.44H76.0669V190.971H77.8247ZM81.7788 190.971V191.44H79.9888V190.971H81.7788ZM85.7329 190.971V191.44H83.9106V190.971H85.7329ZM89.687 190.971V191.44H87.8315V190.971H89.687ZM93.6411 190.971V191.44H91.7534V190.971H93.6411ZM97.5952 190.971V191.44H95.6753V190.971H97.5952ZM101.549 190.971V191.44H99.5972V190.971H101.549ZM75.0864 188.335V190.021H74.6313V188.335H75.0864ZM75.0864 184.508V186.22H74.6313V184.508H75.0864ZM75.0864 180.681V182.419H74.6313V180.681H75.0864ZM75.0864 176.855V178.619H74.6313V176.855H75.0864ZM75.0864 173.028V174.818H74.6313V173.028H75.0864ZM75.0864 169.202V171.017H74.6313V169.202H75.0864ZM75.0864 165.375V167.216H74.6313V165.375H75.0864ZM75.0864 161.547V163.416H74.6313V161.547H75.0864ZM75.0864 157.721V159.615H74.6313V157.721H75.0864Z" stroke="#652EFF" stroke-dasharray="2 2"/>
<path d="M153.975 191.217L153.887 191.421C153.831 191.397 153.788 191.35 153.766 191.292L153.975 191.21M153.975 191.217V191.21M153.975 191.217V191.21M153.975 191.217L153.979 191.208L153.975 191.21M153.975 191.2L153.979 191.202L153.975 191.191M153.975 191.2V191.191M153.975 191.2L153.765 191.117H153.766C153.788 191.059 153.831 191.013 153.887 190.989L153.975 191.191M153.975 191.2V191.191M181.654 156.758L181.659 156.76L181.658 156.757M181.654 156.758L181.658 156.757M181.654 156.758L181.65 156.76L181.651 156.757M181.654 156.758L181.651 156.757M181.658 156.757L181.654 156.75M181.658 156.757L181.865 156.675C181.842 156.618 181.798 156.572 181.742 156.548L181.654 156.75M181.651 156.757L181.444 156.675C181.467 156.618 181.511 156.572 181.566 156.548L181.654 156.75M181.651 156.757L181.654 156.75M178.688 190.971V191.44H180.446V190.971H178.688ZM174.734 190.971V191.44H176.524V190.971H174.734ZM170.78 190.971V191.44H172.603V190.971H170.78ZM166.826 190.971V191.44H168.682V190.971H166.826ZM162.872 190.971V191.44H164.76V190.971H162.872ZM158.918 190.971V191.44H160.838V190.971H158.918ZM154.964 190.971V191.44H156.916V190.971H154.964ZM181.427 188.335V190.021H181.882V188.335H181.427ZM181.427 184.508V186.22H181.882V184.508H181.427ZM181.427 180.681V182.419H181.882V180.681H181.427ZM181.427 176.855V178.619H181.882V176.855H181.427ZM181.427 173.028V174.818H181.882V173.028H181.427ZM181.427 169.202V171.017H181.882V169.202H181.427ZM181.427 165.375V167.216H181.882V165.375H181.427ZM181.427 161.547V163.416H181.882V161.547H181.427ZM181.427 157.721V159.615H181.882V157.721H181.427Z" stroke="#652EFF" stroke-dasharray="2 2"/>
<path d="M44.1007 0.286491H16.4214C16.2958 0.286491 16.1938 0.391495 16.1938 0.520874V34.9619C16.1938 35.0913 16.2958 35.1963 16.4214 35.1963C16.5469 35.1963 16.6489 35.0913 16.6489 34.9619V0.755257H44.1007C44.2263 0.755257 44.3282 0.650253 44.3282 0.520874C44.3282 0.391495 44.2267 0.286491 44.1007 0.286491Z" fill="#652EFF"/>
<path d="M44.1007 165.792H16.4214C16.2958 165.792 16.1938 165.687 16.1938 165.558V131.117C16.1938 130.987 16.2958 130.882 16.4214 130.882C16.5469 130.882 16.6489 130.987 16.6489 131.117V165.323H44.1007C44.2263 165.323 44.3282 165.428 44.3282 165.558C44.3282 165.687 44.2267 165.792 44.1007 165.792Z" fill="#652EFF"/>
<path d="M80.7071 158.57H35.039C34.9134 158.57 34.8115 158.465 34.8115 158.336V154.574C34.8115 154.445 34.9134 154.34 35.039 154.34H80.7071C80.8327 154.34 80.9346 154.445 80.9346 154.574V158.336C80.9346 158.465 80.8327 158.57 80.7071 158.57ZM35.2665 158.101H80.4796V154.809H35.2665V158.101Z" fill="#652EFF"/>
<path d="M238.006 165.155H210.327C210.202 165.155 210.1 165.05 210.1 164.921C210.1 164.791 210.202 164.686 210.327 164.686H237.779V136.092C237.779 135.962 237.881 135.857 238.006 135.857C238.132 135.857 238.234 135.962 238.234 136.092V164.921C238.234 165.05 238.132 165.155 238.006 165.155Z" fill="#652EFF"/>
<path d="M221.187 156.365H175.519C175.393 156.365 175.292 156.26 175.292 156.131V152.37C175.292 152.24 175.393 152.135 175.519 152.135H221.187C221.312 152.135 221.414 152.24 221.414 152.37V156.131C221.414 156.261 221.312 156.365 221.187 156.365ZM175.747 155.897H220.959V152.604H175.747V155.897Z" fill="#652EFF"/>
<path d="M239.771 34.9098C239.645 34.9098 239.544 34.8048 239.544 34.6754V0.468764H212.091C211.966 0.468764 211.864 0.363761 211.864 0.234382C211.864 0.105003 211.966 0 212.091 0H239.771C239.897 0 239.999 0.105003 239.999 0.234382V34.6754C239.999 34.8048 239.897 34.9098 239.771 34.9098Z" fill="#652EFF"/>
<path d="M231.941 12.0939H186.273C186.147 12.0939 186.045 11.9889 186.045 11.8595V8.09766C186.045 7.96828 186.147 7.86328 186.273 7.86328H231.941C232.067 7.86328 232.169 7.96828 232.169 8.09766V11.8595C232.169 11.9893 232.067 12.0939 231.941 12.0939ZM186.5 11.6251H231.713V8.33205H186.5V11.6251Z" fill="#652EFF"/>
<path d="M217.865 146.958H39.7957C38.0884 146.958 36.6997 145.527 36.6997 143.768V39.7173C36.6997 39.5879 36.8016 39.4829 36.9272 39.4829H220.734C220.859 39.4829 220.961 39.5879 220.961 39.7173V143.768C220.961 145.527 219.573 146.958 217.865 146.958ZM37.1547 39.9517V143.768C37.1547 145.268 38.3396 146.489 39.7957 146.489H217.866C219.322 146.489 220.507 145.268 220.507 143.768V39.9517H37.1547Z" fill="#652EFF"/>
<path d="M83.1291 146.808C83.0035 146.808 82.9016 146.703 82.9016 146.574V40.3804H37.2817C37.1561 40.3804 37.0542 40.2754 37.0542 40.146C37.0542 40.0166 37.1561 39.9116 37.2817 39.9116H83.1286C83.2542 39.9116 83.3561 40.0166 83.3561 40.146V146.574C83.3566 146.703 83.2546 146.808 83.1291 146.808Z" fill="#652EFF"/>
<path d="M128.921 146.808H83.0742C82.9486 146.808 82.8467 146.703 82.8467 146.574V40.146C82.8467 40.0166 82.9486 39.9116 83.0742 39.9116H128.921C129.047 39.9116 129.149 40.0166 129.149 40.146V146.574C129.149 146.703 129.047 146.808 128.921 146.808ZM83.3017 146.339H128.694V40.3804H83.3017V146.339Z" fill="#652EFF"/>
<path d="M174.821 146.808H128.975C128.849 146.808 128.747 146.703 128.747 146.574V40.146C128.747 40.0166 128.849 39.9116 128.975 39.9116H174.821C174.947 39.9116 175.049 40.0166 175.049 40.146V146.574C175.049 146.703 174.947 146.808 174.821 146.808ZM129.202 146.339H174.594V40.3804H129.202V146.339Z" fill="#652EFF"/>
<path d="M174.769 146.808C174.643 146.808 174.541 146.703 174.541 146.574V40.146C174.541 40.0166 174.643 39.9116 174.769 39.9116H220.615C220.741 39.9116 220.843 40.0166 220.843 40.146C220.843 40.2754 220.741 40.3804 220.615 40.3804H174.996V146.574C174.996 146.703 174.894 146.808 174.769 146.808Z" fill="#652EFF"/>
<path d="M220.735 39.7177H36.9277V22.8703C36.9277 21.1312 38.2964 19.7212 39.9846 19.7212H217.678C219.366 19.7212 220.735 21.1312 220.735 22.8703V39.7177H220.735Z" fill="#FEFEFE"/>
<path d="M220.734 39.9521H36.9272C36.8016 39.9521 36.6997 39.8471 36.6997 39.7177V22.8704C36.6997 21.0047 38.1731 19.4868 39.984 19.4868H217.677C219.488 19.4868 220.962 21.0047 220.962 22.8704V39.7177C220.961 39.8476 220.86 39.9521 220.734 39.9521ZM37.1547 39.4834H220.506V22.8704C220.506 21.263 219.237 19.9556 217.677 19.9556H39.984C38.4238 19.9556 37.1547 21.2634 37.1547 22.8704V39.4834Z" fill="#652EFF"/>
<path d="M129.623 25.4871C130.357 25.4871 130.952 24.874 130.952 24.1178C130.952 23.3616 130.357 22.7485 129.623 22.7485C128.889 22.7485 128.294 23.3616 128.294 24.1178C128.294 24.874 128.889 25.4871 129.623 25.4871Z" fill="white"/>
<path d="M130.372 33.3028C128.862 33.3028 127.635 32.0745 127.635 30.5652C127.635 29.0552 128.862 27.8276 130.372 27.8276C131.882 27.8276 133.11 29.056 133.11 30.5652C133.11 32.0745 131.882 33.3028 130.372 33.3028ZM130.372 28.6271C129.304 28.6271 128.435 29.4961 128.435 30.5644C128.435 31.6327 129.304 32.5018 130.372 32.5018C131.441 32.5018 132.31 31.6327 132.31 30.5644C132.31 29.4961 131.441 28.6271 130.372 28.6271Z" fill="#652EFF"/>
<path d="M122.335 25.4871C123.07 25.4871 123.665 24.874 123.665 24.1178C123.665 23.3616 123.07 22.7485 122.335 22.7485C121.601 22.7485 121.006 23.3616 121.006 24.1178C121.006 24.874 121.601 25.4871 122.335 25.4871Z" fill="white"/>
<path d="M123.179 33.3024C121.669 33.3024 120.442 32.0741 120.442 30.565C120.442 29.0551 121.669 27.8276 123.179 27.8276C124.689 27.8276 125.917 29.0559 125.917 30.565C125.917 32.0741 124.689 33.3024 123.179 33.3024ZM123.179 28.627C122.111 28.627 121.242 29.496 121.242 30.5642C121.242 31.6324 122.111 32.5014 123.179 32.5014C124.248 32.5014 125.117 31.6324 125.117 30.5642C125.117 29.496 124.248 28.627 123.179 28.627Z" fill="#652EFF"/>
<path d="M137.26 25.4871C137.994 25.4871 138.589 24.874 138.589 24.1178C138.589 23.3616 137.994 22.7485 137.26 22.7485C136.526 22.7485 135.931 23.3616 135.931 24.1178C135.931 24.874 136.526 25.4871 137.26 25.4871Z" fill="white"/>
<path d="M138.464 33.3024C136.954 33.3024 135.726 32.0742 135.726 30.565C135.726 29.0551 136.954 27.8276 138.464 27.8276C139.974 27.8276 141.202 29.0559 141.202 30.565C141.202 32.0742 139.974 33.3024 138.464 33.3024ZM138.464 28.627C137.396 28.627 136.526 29.496 136.526 30.5642C136.526 31.6325 137.396 32.5014 138.464 32.5014C139.533 32.5014 140.401 31.6325 140.401 30.5642C140.401 29.496 139.533 28.627 138.464 28.627Z" fill="#652EFF"/>
<path d="M115.704 79.6426H95.3383C95.2128 79.6426 95.1108 79.5376 95.1108 79.4082V58.4277C95.1108 58.2984 95.2128 58.1934 95.3383 58.1934H115.704C115.829 58.1934 115.931 58.2984 115.931 58.4277V79.4082C115.931 79.5381 115.829 79.6426 115.704 79.6426ZM95.5659 79.1738H115.476V58.6621H95.5659V79.1738Z" fill="#652EFF"/>
<path d="M105.52 72.9761C103.345 72.9761 101.581 71.1596 101.581 68.9185C101.581 66.6778 103.344 64.8608 105.52 64.8608C107.695 64.8608 109.458 66.6773 109.458 68.9185C109.458 71.1591 107.695 72.9761 105.52 72.9761Z" fill="white"/>
<path d="M105.521 73.2105C103.224 73.2105 101.355 71.2853 101.355 68.9185C101.355 66.5521 103.224 64.6265 105.521 64.6265C107.819 64.6265 109.687 66.5517 109.687 68.9185C109.687 71.2848 107.819 73.2105 105.521 73.2105ZM105.521 65.0952C103.475 65.0952 101.81 66.8104 101.81 68.9185C101.81 71.027 103.475 72.7417 105.521 72.7417C107.568 72.7417 109.232 71.0265 109.232 68.9185C109.232 66.81 107.568 65.0952 105.521 65.0952Z" fill="#652EFF"/>
<path d="M105.521 70.8914C104.463 70.8914 103.606 70.0083 103.606 68.9188C103.606 67.8294 104.463 66.9463 105.521 66.9463C106.578 66.9463 107.435 67.8294 107.435 68.9188C107.436 70.0083 106.578 70.8914 105.521 70.8914Z" fill="white"/>
<path d="M105.521 71.1258C104.34 71.1258 103.379 70.1358 103.379 68.9189C103.379 67.7019 104.34 66.7119 105.521 66.7119C106.702 66.7119 107.663 67.7019 107.663 68.9189C107.663 70.1358 106.702 71.1258 105.521 71.1258ZM105.521 67.1802C104.591 67.1802 103.834 67.9602 103.834 68.9184C103.834 69.877 104.591 70.6566 105.521 70.6566C106.452 70.6566 107.208 69.8765 107.208 68.9184C107.209 67.9602 106.452 67.1802 105.521 67.1802Z" fill="#652EFF"/>
<path d="M115.704 109.346H95.3383C95.2128 109.346 95.1108 109.241 95.1108 109.112V88.1314C95.1108 88.002 95.2128 87.897 95.3383 87.897H115.704C115.829 87.897 115.931 88.002 115.931 88.1314V109.112C115.931 109.241 115.829 109.346 115.704 109.346ZM95.5659 108.877H115.476V88.3657H95.5659V108.877Z" fill="#652EFF"/>
<path d="M124.231 133.316H109.59C109.465 133.316 109.363 133.211 109.363 133.082V118C109.363 117.87 109.465 117.765 109.59 117.765H124.231C124.356 117.765 124.458 117.87 124.458 118V133.082C124.458 133.212 124.357 133.316 124.231 133.316ZM109.818 132.848H124.003V118.234H109.818V132.848Z" fill="#652EFF"/>
<path d="M103.606 133.316H88.9663C88.8407 133.316 88.7388 133.211 88.7388 133.082V118C88.7388 117.87 88.8407 117.765 88.9663 117.765H103.606C103.732 117.765 103.834 117.87 103.834 118V133.082C103.834 133.212 103.732 133.316 103.606 133.316ZM89.1933 132.848H103.378V118.234H89.1933V132.848Z" fill="#652EFF"/>
<path d="M96.1432 128.361C94.5715 128.361 93.2925 127.044 93.2925 125.425C93.2925 123.805 94.5715 122.488 96.1432 122.488C97.7148 122.488 98.9939 123.805 98.9939 125.425C98.9939 127.044 97.7148 128.361 96.1432 128.361ZM96.1432 122.957C94.8223 122.957 93.7475 124.064 93.7475 125.425C93.7475 126.786 94.8223 127.893 96.1432 127.893C97.4641 127.893 98.5389 126.786 98.5389 125.425C98.5389 124.064 97.4641 122.957 96.1432 122.957Z" fill="#652EFF"/>
<path d="M161.489 124.623H141.124C140.998 124.623 140.896 124.518 140.896 124.388V103.407C140.896 103.278 140.998 103.173 141.124 103.173H161.489C161.615 103.173 161.717 103.278 161.717 103.407V124.388C161.717 124.518 161.615 124.623 161.489 124.623ZM141.352 124.154H161.262V103.642H141.352V124.154Z" fill="#652EFF"/>
<path d="M151.276 117.602C149.26 117.602 147.627 115.919 147.627 113.843C147.627 111.767 149.26 110.084 151.276 110.084C153.291 110.084 154.925 111.767 154.925 113.843C154.925 115.919 153.291 117.602 151.276 117.602Z" fill="white"/>
<path d="M151.277 117.836C149.139 117.836 147.4 116.045 147.4 113.843C147.4 111.64 149.139 109.849 151.277 109.849C153.414 109.849 155.153 111.64 155.153 113.843C155.153 116.045 153.414 117.836 151.277 117.836ZM151.277 110.318C149.39 110.318 147.855 111.9 147.855 113.843C147.855 115.786 149.39 117.368 151.277 117.368C153.163 117.368 154.698 115.787 154.698 113.843C154.698 111.9 153.163 110.318 151.277 110.318Z" fill="#652EFF"/>
<path d="M170.852 74.3906H156.212C156.086 74.3906 155.984 74.2856 155.984 74.1562V59.0742C155.984 58.9448 156.086 58.8398 156.212 58.8398H170.852C170.978 58.8398 171.08 58.9448 171.08 59.0742V74.1562C171.08 74.2861 170.978 74.3906 170.852 74.3906ZM156.439 73.9219H170.625V59.3086H156.439V73.9219Z" fill="#652EFF"/>
<path d="M150.228 74.3906H135.588C135.462 74.3906 135.36 74.2856 135.36 74.1562V59.0742C135.36 58.9448 135.462 58.8398 135.588 58.8398H150.228C150.354 58.8398 150.456 58.9448 150.456 59.0742V74.1562C150.456 74.2861 150.354 74.3906 150.228 74.3906ZM135.815 73.9219H150.001V59.3086H135.815V73.9219Z" fill="#652EFF"/>
<path d="M140.79 71.0327H140.788C140.434 71.0318 140.101 70.871 139.874 70.5907L138.101 68.3978C137.679 67.8775 137.748 67.1007 138.253 66.6671C138.498 66.4567 138.809 66.3573 139.124 66.3873C139.442 66.4168 139.729 66.5725 139.933 66.8251L140.795 67.8901L145.908 61.6307C146.333 61.1114 147.087 61.0457 147.589 61.4812C148.092 61.9181 148.157 62.6948 147.734 63.2128L141.703 70.5954C141.477 70.8729 141.144 71.0327 140.79 71.0327ZM139.015 66.8504C138.843 66.8504 138.679 66.9118 138.545 67.0267C138.232 67.2953 138.19 67.7753 138.45 68.0978L140.224 70.2907C140.364 70.4637 140.57 70.5635 140.789 70.564L140.79 70.7984V70.564C141.009 70.564 141.215 70.4655 141.355 70.2935L147.386 62.9109C147.647 62.5903 147.607 62.1098 147.296 61.8398C146.984 61.5698 146.518 61.612 146.257 61.9322L140.968 68.4058C140.925 68.4588 140.861 68.4892 140.794 68.4892H140.794C140.726 68.4892 140.663 68.4583 140.619 68.4049L139.584 67.1247C139.457 66.9686 139.28 66.872 139.083 66.8537C139.06 66.8514 139.038 66.8504 139.015 66.8504Z" fill="#652EFF"/>
<path d="M150.123 95.6992H135.482C135.357 95.6992 135.255 95.5942 135.255 95.4648V80.3828C135.255 80.2534 135.357 80.1484 135.482 80.1484H150.123C150.248 80.1484 150.35 80.2534 150.35 80.3828V95.4648C150.35 95.5947 150.248 95.6992 150.123 95.6992ZM135.71 95.2305H149.895V80.6172H135.71V95.2305Z" fill="#652EFF"/>
<path d="M78.3126 74.3906H63.6728C63.5472 74.3906 63.4453 74.2856 63.4453 74.1562V59.0742C63.4453 58.9448 63.5472 58.8398 63.6728 58.8398H78.3126C78.4382 58.8398 78.5401 58.9448 78.5401 59.0742V74.1562C78.5401 74.2861 78.4382 74.3906 78.3126 74.3906ZM63.8999 73.9219H78.0847V59.3086H63.8999V73.9219Z" fill="#652EFF"/>
<path d="M57.6886 74.3906H43.0488C42.9232 74.3906 42.8213 74.2856 42.8213 74.1562V59.0742C42.8213 58.9448 42.9232 58.8398 43.0488 58.8398H57.6886C57.8142 58.8398 57.9161 58.9448 57.9161 59.0742V74.1562C57.9161 74.2861 57.8142 74.3906 57.6886 74.3906ZM43.2759 73.9219H57.4606V59.3086H43.2759V73.9219Z" fill="#652EFF"/>
<path d="M78.3126 95.7427H63.6728C63.5472 95.7427 63.4453 95.6377 63.4453 95.5083V80.4263C63.4453 80.2969 63.5472 80.1919 63.6728 80.1919H78.3126C78.4382 80.1919 78.5401 80.2969 78.5401 80.4263V95.5083C78.5401 95.6377 78.4382 95.7427 78.3126 95.7427ZM63.8999 95.2739H78.0847V80.6607H63.8999V95.2739Z" fill="#652EFF"/>
<path d="M57.5816 95.6992H42.9414C42.8158 95.6992 42.7139 95.5942 42.7139 95.4648V80.3828C42.7139 80.2534 42.8158 80.1484 42.9414 80.1484H57.5816C57.7072 80.1484 57.8092 80.2534 57.8092 80.3828V95.4648C57.8092 95.5947 57.7072 95.6992 57.5816 95.6992ZM43.1689 95.2305H57.3541V80.6172H43.1689V95.2305Z" fill="#652EFF"/>
<path d="M50.4245 90.5865C48.9757 90.5865 47.8013 89.3766 47.8013 87.8841C47.8013 86.3915 48.9757 85.1816 50.4245 85.1816C51.8732 85.1816 53.0476 86.3915 53.0476 87.8841C53.0476 89.3766 51.8732 90.5865 50.4245 90.5865Z" fill="white"/>
<path d="M50.4244 90.8209C48.8528 90.8209 47.5737 89.5032 47.5737 87.8841C47.5737 86.265 48.8528 84.9473 50.4244 84.9473C51.9961 84.9473 53.2751 86.265 53.2751 87.8841C53.2751 89.5032 51.9961 90.8209 50.4244 90.8209ZM50.4244 85.4165C49.1035 85.4165 48.0288 86.5237 48.0288 87.8845C48.0288 89.2454 49.1035 90.3526 50.4244 90.3526C51.7454 90.3526 52.8201 89.2454 52.8201 87.8845C52.8201 86.5237 51.7454 85.4165 50.4244 85.4165Z" fill="#652EFF"/>
<path d="M220.421 52.3716H36.9272C36.8016 52.3716 36.6997 52.2667 36.6997 52.1375C36.6997 52.0082 36.8016 51.9033 36.9272 51.9033H220.421C220.547 51.9033 220.649 52.0082 220.649 52.1375C220.649 52.2667 220.547 52.3716 220.421 52.3716Z" fill="#652EFF"/>
<path d="M72.5693 48.8395H46.7665C45.4005 48.8395 44.293 47.6986 44.293 46.2914C44.293 44.8841 45.4005 43.7427 46.7665 43.7427H72.5693C73.9352 43.7427 75.0428 44.8837 75.0428 46.2914C75.0428 47.6986 73.9352 48.8395 72.5693 48.8395Z" fill="white"/>
<path d="M72.5692 49.0739H46.7664C45.2771 49.0739 44.0654 47.8256 44.0654 46.2914C44.0654 44.7571 45.2771 43.5083 46.7664 43.5083H72.5692C74.0585 43.5083 75.2702 44.7566 75.2702 46.2914C75.2702 47.8256 74.0585 49.0739 72.5692 49.0739ZM46.7664 43.9775C45.5279 43.9775 44.5204 45.0154 44.5204 46.2918C44.5204 47.5678 45.5279 48.6056 46.7664 48.6056H72.5692C73.8078 48.6056 74.8152 47.5678 74.8152 46.2918C74.8152 45.0158 73.8078 43.9775 72.5692 43.9775H46.7664Z" fill="#652EFF"/>
<path d="M118.743 48.8395H92.9398C91.5738 48.8395 90.4658 47.6986 90.4658 46.2914C90.4658 44.8841 91.5733 43.7427 92.9398 43.7427H118.743C120.109 43.7427 121.216 44.8837 121.216 46.2914C121.216 47.6986 120.109 48.8395 118.743 48.8395Z" fill="white"/>
<path d="M118.743 49.0739H92.9397C91.4505 49.0739 90.2383 47.8256 90.2383 46.2914C90.2383 44.7571 91.45 43.5083 92.9397 43.5083H118.743C120.231 43.5083 121.444 44.7566 121.444 46.2914C121.443 47.8256 120.231 49.0739 118.743 49.0739ZM92.9397 43.9775C91.7012 43.9775 90.6933 45.0154 90.6933 46.2918C90.6933 47.5678 91.7007 48.6056 92.9397 48.6056H118.743C119.981 48.6056 120.989 47.5678 120.989 46.2918C120.989 45.0158 119.981 43.9775 118.743 43.9775H92.9397Z" fill="#652EFF"/>
<path d="M165.69 48.8395H139.888C138.522 48.8395 137.414 47.6986 137.414 46.2914C137.414 44.8841 138.522 43.7427 139.888 43.7427H165.69C167.057 43.7427 168.164 44.8837 168.164 46.2914C168.164 47.6986 167.057 48.8395 165.69 48.8395Z" fill="white"/>
<path d="M165.692 49.0739H139.889C138.4 49.0739 137.188 47.8256 137.188 46.2914C137.188 44.7571 138.399 43.5083 139.889 43.5083H165.692C167.181 43.5083 168.393 44.7566 168.393 46.2914C168.393 47.8256 167.181 49.0739 165.692 49.0739ZM139.889 43.9775C138.65 43.9775 137.643 45.0154 137.643 46.2918C137.643 47.5678 138.65 48.6056 139.889 48.6056H165.692C166.93 48.6056 167.938 47.5678 167.938 46.2918C167.938 45.0158 166.93 43.9775 165.692 43.9775H139.889Z" fill="#652EFF"/>
<path d="M211.669 48.8395H185.867C184.501 48.8395 183.393 47.6986 183.393 46.2914C183.393 44.8841 184.501 43.7427 185.867 43.7427H211.669C213.036 43.7427 214.143 44.8837 214.143 46.2914C214.143 47.6986 213.036 48.8395 211.669 48.8395Z" fill="white"/>
<path d="M211.67 49.0739H185.867C184.378 49.0739 183.166 47.8256 183.166 46.2914C183.166 44.7571 184.378 43.5083 185.867 43.5083H211.67C213.159 43.5083 214.371 44.7566 214.371 46.2914C214.371 47.8256 213.16 49.0739 211.67 49.0739ZM185.867 43.9775C184.629 43.9775 183.621 45.0154 183.621 46.2918C183.621 47.5678 184.629 48.6056 185.867 48.6056H211.67C212.908 48.6056 213.916 47.5678 213.916 46.2918C213.916 45.0158 212.908 43.9775 211.67 43.9775H185.867Z" fill="#652EFF"/>
<path d="M207.671 78.8086H187.396C187.27 78.8086 187.168 78.7036 187.168 78.5742V57.6875C187.168 57.5581 187.27 57.4531 187.396 57.4531H207.671C207.796 57.4531 207.898 57.5581 207.898 57.6875V78.5742C207.898 78.7036 207.797 78.8086 207.671 78.8086ZM187.624 78.3398H207.444V57.9219H187.624V78.3398Z" fill="#652EFF"/>
<path d="M207.671 137.714H187.396C187.27 137.714 187.168 137.609 187.168 137.479V116.593C187.168 116.463 187.27 116.358 187.396 116.358H207.671C207.796 116.358 207.898 116.463 207.898 116.593V137.479C207.898 137.609 207.797 137.714 207.671 137.714ZM187.624 137.245H207.444V116.827H187.624V137.245Z" fill="#652EFF"/>
<path d="M215.667 103.77H201.027C200.901 103.77 200.799 103.665 200.799 103.536V88.4536C200.799 88.3242 200.901 88.2192 201.027 88.2192H215.667C215.793 88.2192 215.895 88.3242 215.895 88.4536V103.536C215.895 103.665 215.793 103.77 215.667 103.77ZM201.255 103.302H215.44V88.688H201.255V103.302Z" fill="#652EFF"/>
<path d="M195.043 103.77H180.403C180.277 103.77 180.175 103.665 180.175 103.536V88.4536C180.175 88.3242 180.277 88.2192 180.403 88.2192H195.043C195.169 88.2192 195.271 88.3242 195.271 88.4536V103.536C195.271 103.665 195.169 103.77 195.043 103.77ZM180.63 103.302H194.816V88.688H180.63V103.302Z" fill="#652EFF"/>
<path d="M206.247 100.518C206.246 100.518 206.245 100.518 206.244 100.518C205.959 100.518 205.688 100.386 205.505 100.16L203.732 97.9676C203.39 97.5457 203.445 96.9185 203.855 96.5669C204.264 96.2149 204.873 96.2721 205.215 96.694L206.25 97.9742L211.538 91.5005C211.882 91.0796 212.492 91.0262 212.899 91.3796C213.307 91.7335 213.359 92.3607 213.016 92.7807L206.985 100.163C206.802 100.388 206.531 100.518 206.247 100.518Z" fill="white"/>
<path d="M206.246 100.753H206.244C205.89 100.752 205.557 100.591 205.33 100.311L203.556 98.1181C203.352 97.8659 203.256 97.5467 203.284 97.22C203.313 96.8932 203.464 96.5974 203.709 96.3874C203.954 96.177 204.266 96.0757 204.58 96.1071C204.898 96.1367 205.185 96.2923 205.389 96.5445L206.251 97.61L211.364 91.3501C211.569 91.0988 211.857 90.9451 212.175 90.9165C212.498 90.8912 212.801 90.9896 213.045 91.2006C213.548 91.6375 213.613 92.4142 213.189 92.9322L207.159 100.314C206.932 100.593 206.599 100.753 206.246 100.753ZM204.471 96.5707C204.299 96.5707 204.134 96.6321 204 96.747C203.849 96.8768 203.756 97.0601 203.738 97.2626C203.72 97.4647 203.78 97.662 203.906 97.8181L205.679 100.011C205.82 100.184 206.026 100.284 206.244 100.284L206.246 100.519V100.284C206.464 100.284 206.67 100.185 206.811 100.013L212.841 92.6312C213.103 92.3106 213.063 91.8301 212.752 91.5601C212.601 91.4293 212.406 91.3651 212.214 91.3848C212.017 91.4021 211.839 91.4973 211.712 91.6525L206.424 98.1266C206.38 98.1791 206.317 98.21 206.249 98.21H206.249C206.182 98.21 206.118 98.1791 206.075 98.1256L205.039 96.8454C204.913 96.6893 204.735 96.5932 204.539 96.5749C204.517 96.5717 204.494 96.5707 204.471 96.5707Z" fill="#652EFF"/>
<path d="M49.3779 34.934H55.8433C58.1421 34.934 60.0054 33.0144 60.0054 30.6462C60.0054 28.2785 58.1421 26.3589 55.8433 26.3589H49.3779C47.0792 26.3589 45.2163 28.2785 45.2163 30.6462C45.2163 33.0144 47.0792 34.934 49.3779 34.934Z" fill="#652EFF"/>
<path d="M55.8428 35.1684H49.3774C46.9572 35.1684 44.9883 33.1396 44.9883 30.6467C44.9883 28.1533 46.9576 26.1245 49.3774 26.1245H55.8428C58.263 26.1245 60.2324 28.1533 60.2324 30.6467C60.2324 33.14 58.2635 35.1684 55.8428 35.1684ZM49.3774 26.5933C47.2079 26.5933 45.4433 28.4116 45.4433 30.6467C45.4433 32.8817 47.2083 34.6996 49.3774 34.6996H55.8428C58.0123 34.6996 59.7773 32.8813 59.7773 30.6467C59.7773 28.4116 58.0123 26.5933 55.8428 26.5933H49.3774Z" fill="#652EFF"/>
<path d="M55.717 31.4272C55.2993 31.4272 54.959 31.077 54.959 30.6462C54.959 30.2154 55.2989 29.8652 55.717 29.8652C56.1352 29.8652 56.4751 30.2154 56.4751 30.6462C56.4751 31.077 56.1348 31.4272 55.717 31.4272ZM55.717 30.3345C55.5501 30.3345 55.414 30.4742 55.414 30.6467C55.414 30.8192 55.5496 30.9589 55.717 30.9589C55.8845 30.9589 56.0201 30.8192 56.0201 30.6467C56.0201 30.4742 55.884 30.3345 55.717 30.3345Z" fill="white"/>
<path d="M49.5046 31.4272C49.0869 31.4272 48.7466 31.077 48.7466 30.6462C48.7466 30.2154 49.0865 29.8652 49.5046 29.8652C49.9224 29.8652 50.2623 30.2154 50.2623 30.6462C50.2623 31.077 49.9224 31.4272 49.5046 31.4272ZM49.5046 30.3345C49.3377 30.3345 49.2016 30.4742 49.2016 30.6467C49.2016 30.8192 49.3372 30.9589 49.5046 30.9589C49.6716 30.9589 49.8072 30.8192 49.8072 30.6467C49.8072 30.4742 49.6716 30.3345 49.5046 30.3345Z" fill="white"/>
<path d="M52.4929 31.4272C52.0752 31.4272 51.7349 31.077 51.7349 30.6462C51.7349 30.2154 52.0748 29.8652 52.4929 29.8652C52.9111 29.8652 53.251 30.2154 53.251 30.6462C53.251 31.077 52.9111 31.4272 52.4929 31.4272ZM52.4929 30.3345C52.3259 30.3345 52.1899 30.4742 52.1899 30.6467C52.1899 30.8192 52.3255 30.9589 52.4929 30.9589C52.6604 30.9589 52.796 30.8192 52.796 30.6467C52.796 30.4742 52.6599 30.3345 52.4929 30.3345Z" fill="white"/>
<path opacity="0.45" d="M75.4088 237.965C75.4358 237.793 75.502 237.63 75.6051 237.486C75.7755 237.248 76.0257 237.093 76.3095 237.049L78.7676 236.667C78.8316 235.279 79.154 233.939 79.7273 232.68L77.7265 231.16C77.2496 230.797 77.1476 230.104 77.5002 229.612L78.6462 228.012C78.8162 227.774 79.0665 227.618 79.3502 227.574C79.6339 227.53 79.9173 227.603 80.1483 227.778L82.1491 229.299C83.1472 228.364 84.2944 227.651 85.5632 227.178L85.1923 224.646C85.1495 224.353 85.2194 224.061 85.3898 223.823C85.5603 223.585 85.8105 223.43 86.0942 223.386L88.0028 223.089C88.5888 222.998 89.1374 223.415 89.2254 224.019L89.5963 226.551C90.9441 226.617 92.2442 226.949 93.4664 227.539L94.9423 225.478C95.2941 224.988 95.9683 224.883 96.4448 225.245L97.9983 226.426C98.4747 226.788 98.5763 227.482 98.2246 227.973L96.7489 230.034C97.6564 231.063 98.3478 232.245 98.8076 233.552L101.266 233.17C101.549 233.126 101.833 233.198 102.064 233.374C102.294 233.549 102.445 233.807 102.488 234.099L102.776 236.066C102.819 236.357 102.749 236.65 102.579 236.888C102.408 237.126 102.158 237.281 101.874 237.325L99.4163 237.707C99.3512 239.096 99.0292 240.435 98.4564 241.694L100.457 243.215C100.934 243.577 101.035 244.272 100.683 244.762L99.5374 246.363C99.3674 246.601 99.1171 246.756 98.8334 246.8C98.55 246.844 98.2666 246.772 98.0353 246.596L96.0349 245.075C95.0364 246.011 93.8885 246.724 92.6204 247.196L92.9913 249.729C93.0345 250.021 92.9642 250.313 92.7938 250.551C92.6234 250.789 92.3731 250.944 92.0894 250.988L90.1808 251.285C89.5949 251.376 89.0462 250.959 88.9583 250.356L88.5873 247.824C87.2399 247.758 85.9394 247.426 84.7172 246.835L83.2413 248.896C82.8899 249.387 82.2156 249.492 81.7388 249.13L80.1856 247.949C79.7092 247.587 79.6068 246.893 79.9591 246.402L81.4347 244.34C80.5275 243.312 79.8357 242.13 79.376 240.823L76.9184 241.205C76.3325 241.296 75.7839 240.879 75.6959 240.276L75.4078 238.309C75.3904 238.193 75.391 238.077 75.4088 237.965ZM79.1091 236.852C79.0971 236.929 79.0382 236.989 78.9626 237.002L76.3619 237.406C76.1705 237.436 76.0016 237.54 75.8866 237.701C75.7719 237.862 75.7245 238.058 75.753 238.256L76.0411 240.222C76.1008 240.629 76.471 240.91 76.8656 240.848L79.4658 240.444C79.5491 240.431 79.6297 240.481 79.6575 240.563C80.1159 241.926 80.8329 243.152 81.7885 244.205C81.8455 244.268 81.8521 244.365 81.8015 244.435L80.2396 246.615C80.0031 246.946 80.0712 247.415 80.3927 247.659L81.9458 248.84C82.2673 249.084 82.7221 249.013 82.9593 248.682L84.5211 246.502C84.5708 246.432 84.662 246.408 84.7382 246.447C85.9976 247.077 87.3454 247.421 88.7442 247.47C88.8284 247.473 88.8986 247.537 88.911 247.623L89.3034 250.302C89.3632 250.709 89.7334 250.99 90.1279 250.929L92.0365 250.632C92.228 250.602 92.3969 250.497 92.5119 250.337C92.6265 250.177 92.6735 249.98 92.6454 249.783L92.2527 247.103C92.2396 247.018 92.2886 246.935 92.3682 246.906C93.6903 246.435 94.8799 245.696 95.9028 244.711C95.9643 244.652 96.058 244.646 96.1261 244.698L98.2427 246.307C98.3983 246.425 98.5897 246.474 98.7809 246.444C98.972 246.414 99.1409 246.309 99.2559 246.149L100.402 244.548C100.638 244.218 100.57 243.749 100.249 243.505L98.1322 241.896C98.0644 241.844 98.0409 241.751 98.0789 241.672C98.6897 240.375 99.0245 238.986 99.0723 237.546C99.0732 237.459 99.1374 237.387 99.221 237.373L101.821 236.969C102.013 236.939 102.182 236.834 102.297 236.674C102.411 236.514 102.458 236.317 102.43 236.12L102.142 234.153C102.113 233.956 102.011 233.782 101.856 233.664C101.7 233.546 101.509 233.497 101.318 233.527L98.7173 233.931C98.6341 233.944 98.5535 233.894 98.5257 233.812C98.0675 232.449 97.3502 231.224 96.3947 230.171C96.3369 230.108 96.3306 230.011 96.3817 229.941L97.9436 227.76C98.1797 227.429 98.1119 226.96 97.7908 226.716L96.2373 225.535C95.9159 225.291 95.4611 225.362 95.2239 225.693L93.6621 227.873C93.6124 227.943 93.5209 227.966 93.4451 227.928C92.1859 227.298 90.8381 226.954 89.439 226.905C89.3548 226.902 89.2846 226.838 89.2722 226.752L88.8798 224.073C88.82 223.666 88.4499 223.384 88.0553 223.446L86.1467 223.743C85.9553 223.773 85.7863 223.877 85.6714 224.038C85.5563 224.198 85.5092 224.396 85.5378 224.592L85.9305 227.271C85.9432 227.357 85.8946 227.44 85.8151 227.469C84.4925 227.941 83.303 228.679 82.2807 229.664C82.2193 229.723 82.1255 229.729 82.0575 229.677L79.9406 228.068C79.7849 227.95 79.5938 227.901 79.4023 227.931C79.2113 227.961 79.0423 228.066 78.9274 228.226L77.7814 229.826C77.5448 230.158 77.6127 230.626 77.9341 230.87L80.0511 232.479C80.1188 232.531 80.1415 232.624 80.1044 232.703C79.4932 234 79.1588 235.388 79.1112 236.83C79.1111 236.837 79.1103 236.845 79.1091 236.852ZM83.7679 236.286C83.9009 235.443 84.2247 234.62 84.7497 233.887C86.5161 231.421 89.901 230.894 92.2951 232.714C94.6892 234.534 95.2003 238.021 93.4336 240.487C91.6672 242.954 88.2823 243.48 85.8882 241.66C84.2056 240.381 83.4532 238.279 83.7679 236.286ZM85.031 234.101C83.3795 236.407 83.8571 239.669 86.0959 241.37C88.3347 243.072 91.5005 242.58 93.1527 240.273C94.8035 237.967 94.3265 234.706 92.0878 233.004C89.8486 231.303 86.6834 231.795 85.031 234.101Z" fill="#652EFF"/>
<path opacity="0.45" d="M156.441 228.37C156.455 228.279 156.491 228.192 156.546 228.115C156.637 227.988 156.77 227.906 156.922 227.882L158.233 227.678C158.267 226.937 158.44 226.222 158.745 225.551L157.678 224.739C157.423 224.546 157.369 224.176 157.557 223.913L158.169 223.059C158.259 222.932 158.393 222.849 158.544 222.826C158.696 222.802 158.847 222.841 158.97 222.935L160.038 223.746C160.57 223.247 161.183 222.867 161.86 222.614L161.662 221.263C161.639 221.107 161.676 220.951 161.767 220.824C161.858 220.697 161.992 220.614 162.143 220.591L163.162 220.433C163.474 220.384 163.767 220.606 163.814 220.928L164.012 222.28C164.731 222.315 165.425 222.492 166.077 222.807L166.865 221.707C167.052 221.445 167.412 221.389 167.666 221.583L168.495 222.213C168.75 222.406 168.804 222.777 168.616 223.039L167.829 224.139C168.313 224.687 168.682 225.318 168.927 226.016L170.239 225.812C170.39 225.788 170.542 225.827 170.665 225.921C170.788 226.014 170.869 226.152 170.891 226.308L171.045 227.357C171.068 227.513 171.031 227.669 170.94 227.796C170.849 227.923 170.715 228.006 170.564 228.029L169.252 228.233C169.217 228.974 169.046 229.689 168.74 230.361L169.808 231.172C170.062 231.366 170.116 231.736 169.928 231.998L169.317 232.852C169.226 232.979 169.093 233.062 168.941 233.085C168.79 233.109 168.639 233.07 168.515 232.977L167.448 232.165C166.915 232.664 166.302 233.045 165.626 233.297L165.824 234.648C165.847 234.804 165.809 234.96 165.718 235.087C165.627 235.214 165.494 235.297 165.342 235.32L164.324 235.479C164.011 235.527 163.718 235.305 163.671 234.983L163.473 233.632C162.754 233.596 162.06 233.419 161.408 233.104L160.621 234.204C160.433 234.466 160.073 234.522 159.819 234.329L158.99 233.699C158.736 233.505 158.681 233.135 158.869 232.873L159.657 231.773C159.172 231.224 158.803 230.593 158.558 229.896L157.247 230.1C156.934 230.148 156.641 229.926 156.594 229.604L156.44 228.555C156.431 228.492 156.431 228.43 156.441 228.37ZM158.416 227.777C158.409 227.818 158.378 227.85 158.337 227.857L156.95 228.072C156.847 228.088 156.757 228.144 156.696 228.23C156.635 228.316 156.609 228.421 156.625 228.526L156.778 229.575C156.81 229.792 157.008 229.942 157.218 229.909L158.606 229.694C158.65 229.687 158.693 229.714 158.708 229.757C158.953 230.485 159.335 231.138 159.845 231.7C159.876 231.734 159.879 231.786 159.852 231.823L159.019 232.987C158.893 233.163 158.929 233.413 159.101 233.544L159.929 234.174C160.101 234.304 160.344 234.266 160.47 234.09L161.304 232.926C161.33 232.889 161.379 232.876 161.419 232.897C162.092 233.233 162.811 233.417 163.557 233.443C163.602 233.444 163.64 233.479 163.646 233.525L163.856 234.954C163.888 235.171 164.085 235.322 164.296 235.289L165.314 235.13C165.416 235.114 165.506 235.058 165.568 234.973C165.629 234.887 165.654 234.782 165.639 234.677L165.429 233.247C165.422 233.202 165.449 233.157 165.491 233.142C166.197 232.89 166.831 232.496 167.377 231.971C167.41 231.939 167.46 231.936 167.496 231.963L168.626 232.822C168.709 232.885 168.811 232.911 168.913 232.895C169.015 232.879 169.105 232.823 169.167 232.738L169.778 231.884C169.904 231.707 169.868 231.457 169.697 231.327L168.567 230.468C168.531 230.441 168.518 230.391 168.538 230.349C168.864 229.657 169.043 228.916 169.069 228.147C169.069 228.101 169.103 228.062 169.148 228.055L170.536 227.839C170.638 227.823 170.728 227.767 170.789 227.682C170.85 227.596 170.875 227.491 170.861 227.386L170.707 226.337C170.691 226.231 170.637 226.139 170.554 226.076C170.471 226.012 170.369 225.986 170.267 226.002L168.879 226.218C168.835 226.225 168.792 226.198 168.777 226.154C168.532 225.427 168.15 224.774 167.64 224.211C167.609 224.178 167.606 224.126 167.633 224.089L168.466 222.925C168.592 222.748 168.556 222.498 168.385 222.368L167.556 221.738C167.384 221.607 167.142 221.645 167.015 221.822L166.182 222.985C166.155 223.023 166.106 223.035 166.066 223.015C165.394 222.678 164.675 222.495 163.928 222.469C163.883 222.467 163.846 222.433 163.839 222.387L163.63 220.957C163.598 220.74 163.4 220.59 163.19 220.623L162.171 220.781C162.069 220.797 161.979 220.853 161.917 220.939C161.856 221.024 161.831 221.13 161.846 221.235L162.056 222.664C162.062 222.71 162.037 222.754 161.994 222.769C161.288 223.021 160.654 223.415 160.108 223.941C160.075 223.973 160.025 223.976 159.989 223.948L158.859 223.089C158.776 223.026 158.674 223 158.572 223.016C158.47 223.032 158.38 223.088 158.319 223.174L157.707 224.028C157.581 224.204 157.617 224.454 157.789 224.585L158.918 225.443C158.954 225.471 158.967 225.521 158.947 225.563C158.621 226.255 158.442 226.996 158.417 227.765C158.417 227.769 158.416 227.773 158.416 227.777ZM160.902 227.475C160.973 227.025 161.145 226.586 161.426 226.195C162.368 224.878 164.174 224.598 165.452 225.569C166.73 226.54 167.002 228.401 166.06 229.717C165.117 231.033 163.311 231.314 162.033 230.343C161.135 229.66 160.734 228.538 160.902 227.475ZM161.576 226.309C160.694 227.54 160.949 229.28 162.144 230.188C163.339 231.096 165.028 230.833 165.91 229.602C166.791 228.372 166.536 226.631 165.341 225.723C164.147 224.815 162.457 225.078 161.576 226.309Z" fill="#652EFF"/>
<path opacity="0.45" d="M180.779 212.159C180.827 211.85 181.065 211.595 181.381 211.548L182.653 211.357C182.701 210.637 182.872 209.943 183.162 209.288L182.131 208.496C181.978 208.378 181.878 208.206 181.851 208.012C181.824 207.818 181.87 207.623 181.985 207.466L182.626 206.58C182.862 206.255 183.31 206.187 183.626 206.43L184.657 207.222C185.184 206.749 185.781 206.382 186.437 206.129L186.251 204.818C186.223 204.624 186.27 204.43 186.385 204.272C186.499 204.114 186.666 204.012 186.855 203.984L187.917 203.824C188.306 203.766 188.669 204.045 188.726 204.446L188.912 205.757C189.609 205.807 190.283 205.983 190.92 206.281L191.689 205.219C191.803 205.062 191.97 204.959 192.159 204.931C192.348 204.903 192.536 204.952 192.689 205.069L193.549 205.73C193.702 205.848 193.802 206.019 193.829 206.214C193.856 206.408 193.809 206.602 193.694 206.76L192.926 207.822C193.385 208.365 193.741 208.98 193.986 209.655L195.259 209.464C195.447 209.436 195.635 209.485 195.789 209.602C195.942 209.72 196.041 209.892 196.068 210.086L196.223 211.18C196.28 211.582 196.009 211.956 195.619 212.014L194.347 212.205C194.298 212.924 194.128 213.619 193.838 214.274L194.869 215.066C195.022 215.184 195.122 215.356 195.149 215.55C195.176 215.744 195.129 215.938 195.015 216.096L194.374 216.982C194.26 217.14 194.093 217.242 193.904 217.27C193.715 217.299 193.527 217.25 193.374 217.132L192.343 216.34C191.815 216.813 191.218 217.18 190.563 217.433L190.748 218.744C190.776 218.938 190.729 219.132 190.614 219.289C190.5 219.447 190.334 219.55 190.145 219.578L189.083 219.737C188.694 219.795 188.33 219.516 188.273 219.115L188.088 217.804C187.39 217.754 186.716 217.578 186.08 217.28L185.311 218.342C185.197 218.5 185.03 218.602 184.841 218.631C184.652 218.659 184.464 218.61 184.311 218.492L183.451 217.832C183.297 217.714 183.198 217.542 183.171 217.347C183.143 217.152 183.191 216.959 183.305 216.801L184.074 215.739C183.615 215.196 183.258 214.581 183.014 213.906L181.741 214.097C181.552 214.125 181.364 214.076 181.211 213.959C181.058 213.841 180.959 213.669 180.931 213.475L180.776 212.382C180.766 212.306 180.767 212.23 180.779 212.159ZM183.069 211.585C183.054 211.679 182.982 211.754 182.888 211.768L181.442 211.985C181.286 212.008 181.179 212.158 181.201 212.318L181.355 213.411C181.367 213.489 181.406 213.558 181.467 213.605C181.528 213.652 181.603 213.671 181.679 213.66L183.125 213.443C183.227 213.427 183.326 213.489 183.359 213.59C183.605 214.332 183.992 215.001 184.509 215.576C184.579 215.654 184.585 215.773 184.523 215.859L183.649 217.066C183.604 217.129 183.585 217.206 183.596 217.284C183.607 217.361 183.646 217.43 183.708 217.477L184.568 218.138C184.629 218.185 184.704 218.204 184.779 218.193C184.855 218.181 184.922 218.141 184.967 218.077L185.841 216.87C185.903 216.785 186.014 216.757 186.107 216.804C186.791 217.15 187.523 217.341 188.284 217.372C188.387 217.376 188.473 217.456 188.487 217.561L188.698 219.051C188.721 219.212 188.866 219.323 189.022 219.3L190.083 219.141C190.159 219.129 190.226 219.088 190.271 219.025C190.316 218.962 190.335 218.885 190.325 218.807L190.114 217.317C190.101 217.212 190.159 217.11 190.257 217.076C190.977 216.823 191.626 216.425 192.185 215.892C192.261 215.82 192.376 215.813 192.459 215.877L193.631 216.777C193.692 216.824 193.767 216.844 193.843 216.832C193.918 216.821 193.985 216.78 194.03 216.717L194.672 215.831C194.717 215.767 194.736 215.69 194.725 215.613C194.714 215.535 194.674 215.467 194.614 215.42L193.442 214.519C193.359 214.456 193.332 214.34 193.378 214.245C193.714 213.541 193.899 212.786 193.929 212.003C193.931 211.897 194.009 211.808 194.112 211.793L195.558 211.576C195.714 211.553 195.822 211.403 195.8 211.243L195.645 210.149C195.634 210.071 195.594 210.003 195.533 209.956C195.472 209.909 195.397 209.889 195.322 209.901L193.875 210.117C193.773 210.133 193.675 210.071 193.641 209.97C193.396 209.228 193.009 208.559 192.492 207.984C192.422 207.906 192.416 207.787 192.478 207.702L193.351 206.495C193.397 206.431 193.416 206.355 193.405 206.277C193.394 206.199 193.354 206.13 193.293 206.083L192.433 205.423C192.372 205.376 192.297 205.356 192.221 205.368C192.146 205.379 192.079 205.42 192.033 205.483L191.16 206.69C191.098 206.775 190.986 206.803 190.893 206.756C190.21 206.41 189.478 206.219 188.717 206.188C188.614 206.185 188.528 206.105 188.513 205.999L188.303 204.51C188.28 204.349 188.135 204.238 187.979 204.261L186.917 204.42C186.842 204.432 186.775 204.472 186.729 204.536C186.684 204.598 186.665 204.676 186.676 204.753L186.886 206.243C186.901 206.35 186.841 206.45 186.744 206.484C186.023 206.737 185.374 207.135 184.815 207.668C184.74 207.741 184.624 207.747 184.542 207.683L183.37 206.783C183.244 206.687 183.064 206.713 182.971 206.843L182.329 207.729C182.235 207.859 182.262 208.044 182.387 208.14L183.559 209.041C183.642 209.104 183.669 209.22 183.624 209.315C183.288 210.019 183.102 210.773 183.072 211.557C183.072 211.567 183.071 211.576 183.069 211.585ZM185.424 211.262C185.503 210.76 185.698 210.282 186.002 209.862C186.5 209.175 187.227 208.728 188.051 208.604C188.875 208.481 189.695 208.695 190.362 209.207C191.029 209.72 191.463 210.469 191.583 211.318C191.702 212.166 191.495 213.012 190.998 213.699C190.5 214.387 189.773 214.833 188.949 214.957C188.125 215.081 187.305 214.867 186.638 214.354C185.971 213.842 185.537 213.092 185.417 212.244C185.37 211.913 185.373 211.582 185.424 211.262ZM191.151 212.23C191.307 211.242 190.937 210.2 190.106 209.562C189.531 209.12 188.822 208.935 188.113 209.042C187.402 209.148 186.775 209.534 186.346 210.126C185.918 210.719 185.738 211.448 185.842 212.18C185.945 212.911 186.319 213.558 186.894 214C187.469 214.441 188.178 214.626 188.887 214.52C189.598 214.413 190.225 214.028 190.654 213.435C190.92 213.068 191.084 212.654 191.151 212.23Z" fill="#652EFF"/>
<path d="M157.97 201.896C157.97 184.359 143.233 170.368 125.822 172.352C112.76 173.84 102.162 184.546 100.494 197.975C99.0496 209.614 104.146 220.144 112.513 226.213C114.815 227.883 116.109 230.667 116.109 233.567V246.254H142.112V233.536C142.112 230.619 143.455 227.856 145.766 226.169C153.148 220.786 157.97 211.923 157.97 201.896Z" fill="url(#paint0_linear_821_2177)"/>
<path d="M142.111 246.717H116.109C115.861 246.717 115.659 246.51 115.659 246.254V233.567C115.659 230.747 114.386 228.138 112.254 226.592C103.333 220.12 98.6556 209.132 100.047 197.917C101.733 184.343 112.551 173.398 125.771 171.892C134.236 170.927 142.365 173.593 148.655 179.396C154.86 185.121 158.418 193.322 158.418 201.897C158.418 211.674 153.786 220.889 146.025 226.549C143.855 228.131 142.56 230.744 142.56 233.537V246.255C142.561 246.511 142.359 246.717 142.111 246.717ZM116.558 245.791H141.662V233.536C141.662 230.443 143.099 227.547 145.506 225.791C153.029 220.305 157.52 211.373 157.52 201.896C157.52 193.584 154.071 185.635 148.056 180.086C141.959 174.461 134.076 171.877 125.871 172.812C113.058 174.271 102.573 184.878 100.94 198.033C99.5898 208.907 104.124 219.56 112.773 225.833C115.143 227.553 116.558 230.445 116.558 233.566V245.791Z" fill="#652EFF"/>
<path d="M126.066 238.816C125.818 238.816 125.617 238.608 125.617 238.353V219.333H122.439C120.477 219.333 118.881 217.689 118.881 215.667C118.881 213.645 120.477 212.001 122.439 212.001H122.957C124.92 212.001 126.516 213.645 126.516 215.667V218.407H131.636C131.884 218.407 132.085 218.614 132.085 218.87C132.085 219.125 131.884 219.333 131.636 219.333H126.516V238.353C126.516 238.608 126.314 238.816 126.066 238.816ZM122.439 212.927C120.973 212.927 119.78 214.156 119.78 215.667C119.78 217.178 120.973 218.407 122.439 218.407H125.617V215.667C125.617 214.156 124.424 212.927 122.957 212.927H122.439Z" fill="#652EFF"/>
<path d="M132.154 238.816C131.906 238.816 131.704 238.608 131.704 238.353V219.333H126.584C126.336 219.333 126.135 219.125 126.135 218.87C126.135 218.614 126.336 218.407 126.584 218.407H131.704V215.667C131.704 213.645 133.3 212.001 135.263 212.001H135.782C137.743 212.001 139.34 213.645 139.34 215.667C139.34 217.688 137.744 219.333 135.782 219.333H132.604V238.353C132.603 238.608 132.403 238.816 132.154 238.816ZM132.603 218.407H135.781C137.247 218.407 138.44 217.178 138.44 215.667C138.44 214.156 137.247 212.927 135.781 212.927H135.262C133.796 212.927 132.603 214.156 132.603 215.667L132.603 218.407Z" fill="#652EFF"/>
<path d="M129.11 259.537C133.251 259.537 136.607 256.079 136.607 251.813C136.607 247.547 133.251 244.089 129.11 244.089C124.969 244.089 121.613 247.547 121.613 251.813C121.613 256.079 124.969 259.537 129.11 259.537Z" fill="white"/>
<path d="M129.11 260C124.728 260 121.164 256.328 121.164 251.813C121.164 247.3 124.728 243.627 129.11 243.627C133.492 243.627 137.056 247.3 137.056 251.813C137.056 256.328 133.491 260 129.11 260ZM129.11 244.554C125.225 244.554 122.063 247.81 122.063 251.813C122.063 255.816 125.225 259.074 129.11 259.074C132.996 259.074 136.157 255.816 136.157 251.813C136.157 247.81 132.996 244.554 129.11 244.554Z" fill="#652EFF"/>
<path d="M141.983 246.141H116.241C114.409 246.141 112.924 244.611 112.924 242.723C112.924 240.837 114.41 239.307 116.241 239.307H141.983C143.815 239.307 145.299 240.837 145.299 242.723C145.299 244.611 143.814 246.141 141.983 246.141Z" fill="white"/>
<path d="M141.982 246.604H116.241C114.164 246.604 112.475 244.863 112.475 242.724C112.475 240.584 114.164 238.844 116.241 238.844H141.982C144.059 238.844 145.749 240.584 145.749 242.724C145.749 244.863 144.059 246.604 141.982 246.604ZM116.24 239.769C114.658 239.769 113.373 241.094 113.373 242.723C113.373 244.351 114.659 245.677 116.24 245.677H141.982C143.563 245.677 144.849 244.351 144.849 242.723C144.849 241.094 143.562 239.769 141.982 239.769H116.24Z" fill="#652EFF"/>
<path d="M139.665 251.746H118.557C117.054 251.746 115.837 250.492 115.837 248.944C115.837 247.396 117.054 246.142 118.557 246.142H139.665C141.167 246.142 142.385 247.396 142.385 248.944C142.385 250.491 141.168 251.746 139.665 251.746Z" fill="white"/>
<path d="M139.666 252.209H118.557C116.81 252.209 115.388 250.745 115.388 248.944C115.388 247.144 116.81 245.679 118.557 245.679H139.666C141.414 245.679 142.835 247.144 142.835 248.944C142.835 250.745 141.414 252.209 139.666 252.209ZM118.557 246.604C117.305 246.604 116.287 247.654 116.287 248.943C116.287 250.232 117.306 251.282 118.557 251.282H139.666C140.919 251.282 141.936 250.232 141.936 248.943C141.936 247.654 140.918 246.604 139.666 246.604H118.557Z" fill="#652EFF"/>
<path d="M112.179 171.327C112.073 171.327 111.968 171.289 111.882 171.211L105.714 165.611C105.528 165.441 105.51 165.149 105.675 164.957C105.839 164.764 106.123 164.748 106.309 164.916L112.477 170.516C112.663 170.686 112.681 170.978 112.516 171.17C112.428 171.274 112.303 171.327 112.179 171.327Z" fill="#652EFF"/>
<path d="M143.477 172.409C143.386 172.409 143.293 172.38 143.214 172.321C143.013 172.171 142.968 171.882 143.113 171.675L147.924 164.807C148.069 164.599 148.35 164.552 148.552 164.702C148.753 164.852 148.798 165.141 148.653 165.348L143.842 172.216C143.754 172.342 143.616 172.409 143.477 172.409Z" fill="#652EFF"/>
<path d="M127.738 169.613C127.503 169.613 127.305 169.424 127.29 169.178L126.772 160.726C126.756 160.471 126.945 160.251 127.193 160.235C127.418 160.224 127.654 160.412 127.669 160.668L128.187 169.121C128.203 169.376 128.014 169.596 127.766 169.612C127.758 169.612 127.748 169.613 127.738 169.613Z" fill="#652EFF"/>
<path d="M44.7741 136.516C44.1367 136.516 43.5361 136.262 43.0839 135.799C42.628 135.334 42.3763 134.714 42.3736 134.054L42.2666 106.328C42.2639 105.668 42.5112 105.046 42.9625 104.577C43.4147 104.108 44.0162 103.848 44.6581 103.845L71.2575 103.736C71.2611 103.736 71.2647 103.736 71.2674 103.736C71.9048 103.736 72.5054 103.991 72.9576 104.453C73.4134 104.918 73.6651 105.538 73.6678 106.199L73.7748 133.924C73.7793 135.288 72.7067 136.401 71.3833 136.407L44.784 136.515C44.7795 136.516 44.7768 136.516 44.7741 136.516ZM71.2664 104.662C71.2646 104.662 71.262 104.662 71.2602 104.662L44.6608 104.771C44.2598 104.772 43.8831 104.935 43.5999 105.229C43.3176 105.523 43.163 105.912 43.1648 106.325L43.2717 134.05C43.2735 134.463 43.4318 134.851 43.7159 135.142C43.9991 135.432 44.3803 135.583 44.7795 135.59L71.3788 135.482C72.2068 135.478 72.8775 134.782 72.8748 133.928L72.7679 106.203C72.7661 105.79 72.6078 105.402 72.3237 105.111C72.0414 104.821 71.6656 104.662 71.2664 104.662Z" fill="#652EFF"/>
<path d="M64.0494 117.908H60.1718V113.913C60.1718 113.307 59.6953 112.815 59.1065 112.815H56.9316C56.3428 112.815 55.8653 113.306 55.8653 113.913V117.908H51.9877C51.3998 117.908 50.9224 118.4 50.9224 119.005V121.246C50.9224 121.852 51.3989 122.343 51.9877 122.343H55.8653V126.338C55.8653 126.944 56.3419 127.436 56.9316 127.436H59.1065C59.6944 127.436 60.1718 126.944 60.1718 126.338V122.343H64.0494C64.6374 122.343 65.1157 121.852 65.1157 121.246V119.005C65.1157 118.4 64.6374 117.908 64.0494 117.908Z" fill="white"/>
<path d="M59.1077 127.899H56.9329C56.0968 127.899 55.4171 127.199 55.4171 126.338V122.807H51.989C51.1538 122.807 50.4741 122.106 50.4741 121.246V119.006C50.4741 118.145 51.1538 117.445 51.989 117.445H55.4171V113.913C55.4171 113.053 56.0968 112.353 56.9329 112.353H59.1077C59.9429 112.353 60.6226 113.053 60.6226 113.913V117.445H64.0507C64.8868 117.445 65.5665 118.145 65.5665 119.006V121.246C65.5665 122.106 64.8868 122.807 64.0507 122.807H60.6226V126.338C60.6226 127.199 59.9429 127.899 59.1077 127.899ZM51.9899 118.371C51.6501 118.371 51.3741 118.655 51.3741 119.006V121.246C51.3741 121.595 51.6501 121.88 51.9899 121.88H55.8675C56.1156 121.88 56.317 122.088 56.317 122.344V126.338C56.317 126.688 56.594 126.973 56.9338 126.973H59.1086C59.4485 126.973 59.7245 126.688 59.7245 126.338V122.344C59.7245 122.088 59.9259 121.88 60.174 121.88H64.0516C64.3914 121.88 64.6683 121.596 64.6683 121.246V119.006C64.6683 118.655 64.3914 118.371 64.0516 118.371H60.174C59.9259 118.371 59.7245 118.164 59.7245 117.908V113.913C59.7245 113.564 59.4485 113.279 59.1086 113.279H56.9338C56.594 113.279 56.317 113.563 56.317 113.913V117.908C56.317 118.164 56.1156 118.371 55.8675 118.371H51.9899Z" fill="#652EFF"/>
<path d="M169.92 12.0297C169.831 12.0297 169.75 11.9797 169.709 11.9004L168.88 10.3292L167.359 9.46681C167.282 9.42322 167.234 9.34001 167.234 9.24936C167.235 9.15871 167.283 9.0755 167.36 9.0324L168.885 8.17844L169.722 6.61169C169.764 6.53244 169.845 6.4834 169.933 6.4834H169.933C170.022 6.4834 170.102 6.53343 170.144 6.61268L170.972 8.18389L172.493 9.04578C172.57 9.08937 172.618 9.17258 172.618 9.26323C172.618 9.35388 172.569 9.43709 172.492 9.48019L170.966 10.3341L170.13 11.9009C170.088 11.9806 170.007 12.0297 169.92 12.0297ZM167.976 9.25134L169.173 9.93045C169.213 9.95323 169.246 9.98741 169.268 10.029L169.921 11.2659L170.579 10.0325C170.601 9.99138 170.634 9.9572 170.675 9.93441L171.876 9.26224L170.678 8.58363C170.638 8.56084 170.605 8.52666 170.583 8.48506L169.931 7.2477L169.273 8.48109C169.25 8.52221 169.217 8.55638 169.176 8.57917L167.976 9.25134Z" fill="#652EFF"/>
<path opacity="0.45" d="M26.0716 150.036C25.9826 150.036 25.9023 149.986 25.8605 149.906L25.0316 148.335L23.5108 147.473C23.4338 147.429 23.3858 147.346 23.3862 147.255C23.3867 147.165 23.4348 147.081 23.5122 147.038L25.0373 146.184L25.8739 144.618C25.9162 144.538 25.997 144.489 26.0846 144.489C26.173 144.489 26.2538 144.539 26.2956 144.619L27.1245 146.19L28.6454 147.052C28.7223 147.096 28.7699 147.179 28.7699 147.27C28.7699 147.36 28.7213 147.443 28.6439 147.487L27.1188 148.341L26.2821 149.907C26.2398 149.987 26.1595 150.036 26.0716 150.036ZM24.1276 147.257L25.3249 147.936C25.3652 147.959 25.3979 147.993 25.4201 148.035L26.0725 149.272L26.7312 148.038C26.7538 147.997 26.7865 147.963 26.8274 147.94L28.028 147.268L26.8307 146.589C26.7904 146.567 26.7577 146.533 26.7355 146.491L26.0831 145.254L25.4244 146.487C25.4018 146.528 25.3686 146.562 25.3282 146.585L24.1276 147.257Z" fill="#652EFF"/>
<path opacity="0.45" d="M175.314 204.682H175.313C175.225 204.682 175.145 204.632 175.103 204.552L174.274 202.981L172.753 202.119C172.676 202.075 172.628 201.992 172.628 201.901C172.628 201.811 172.677 201.727 172.754 201.684L174.279 200.83L175.116 199.264C175.158 199.185 175.239 199.136 175.327 199.136H175.327C175.415 199.136 175.496 199.186 175.538 199.265L176.367 200.836L177.888 201.699C177.964 201.742 178.012 201.825 178.012 201.916C178.012 202.007 177.964 202.09 177.887 202.133L176.361 202.987L175.524 204.553C175.482 204.632 175.401 204.682 175.314 204.682ZM173.37 201.903L174.567 202.582C174.607 202.605 174.64 202.639 174.662 202.681L175.315 203.918L175.974 202.684C175.996 202.643 176.029 202.609 176.07 202.586L177.271 201.914L176.073 201.235C176.034 201.213 176 201.179 175.978 201.137L175.326 199.9L174.667 201.133C174.644 201.174 174.611 201.208 174.571 201.231L173.37 201.903Z" fill="#652EFF"/>
<path d="M88.3867 170.999C88.2978 170.999 88.217 170.948 88.1757 170.869L86.9303 168.508L84.6455 167.213C84.5686 167.169 84.521 167.086 84.521 166.995C84.521 166.905 84.5696 166.821 84.6465 166.778L86.9385 165.495L88.1958 163.141C88.2382 163.062 88.3189 163.013 88.4064 163.013H88.4069C88.4954 163.013 88.5757 163.063 88.6175 163.142L89.8628 165.504L92.1481 166.8C92.2251 166.843 92.2731 166.926 92.2727 167.017C92.2722 167.108 92.2241 167.191 92.1467 167.234L89.8547 168.517L88.5973 170.871C88.5555 170.949 88.4747 170.999 88.3867 170.999ZM85.2624 166.997L87.2237 168.109C87.264 168.132 87.2967 168.166 87.3189 168.207L88.3882 170.234L89.4676 168.213C89.4902 168.172 89.5234 168.138 89.5638 168.115L91.5312 167.014L89.5695 165.901C89.5291 165.878 89.4964 165.844 89.4743 165.802L88.405 163.776L87.3256 165.796C87.303 165.838 87.2703 165.872 87.2299 165.895L85.2624 166.997Z" fill="#652EFF"/>
<path opacity="0.45" d="M63.2139 198.785C63.1042 198.794 63.0446 198.736 63.0028 198.656L61.7575 196.295L59.4727 194.999C59.3957 194.955 59.3481 194.872 59.3481 194.781C59.3481 194.691 59.3967 194.607 59.4736 194.564L61.7657 193.281L63.0235 190.928C63.0658 190.848 63.1365 190.809 63.2345 190.799C63.3225 190.799 63.4033 190.849 63.4451 190.929L64.6904 193.29L66.9753 194.586C67.0522 194.629 67.0998 194.713 67.0998 194.803C67.0998 194.893 67.0512 194.977 66.9743 195.02L64.6823 196.303L63.4245 198.657C63.3822 198.736 63.3014 198.785 63.2139 198.785ZM60.0891 194.783L62.0508 195.896C62.0907 195.919 62.1239 195.953 62.146 195.994L63.2153 198.021L64.2947 196C64.3169 195.959 64.35 195.925 64.3904 195.902L66.3579 194.801L64.3962 193.689C64.3563 193.666 64.3231 193.632 64.301 193.59L63.2321 191.563L62.1522 193.584C62.1301 193.625 62.0969 193.659 62.0566 193.682L60.0891 194.783Z" fill="#652EFF"/>
<path opacity="0.45" d="M55.7472 235.264C55.6761 235.26 55.578 235.214 55.5361 235.135L54.7043 233.558L53.1782 232.693C53.1013 232.649 53.0537 232.566 53.0537 232.475C53.0537 232.384 53.1023 232.301 53.1792 232.258L54.7101 231.401L55.5501 229.829C55.5924 229.75 55.6732 229.701 55.7607 229.701C55.8487 229.701 55.9299 229.751 55.9718 229.83L56.8036 231.407L58.3297 232.272C58.4066 232.316 58.4542 232.399 58.4542 232.49C58.4542 232.581 58.4056 232.664 58.3287 232.707L56.7978 233.564L55.9578 235.136C55.9155 235.215 55.8347 235.264 55.7472 235.264ZM53.7946 232.477L54.9976 233.159C55.0375 233.181 55.0707 233.216 55.0928 233.257L55.7482 234.5L56.4103 233.261C56.4324 233.22 56.4656 233.185 56.5059 233.163L57.7123 232.487L56.5093 231.805C56.4694 231.783 56.4362 231.748 56.4141 231.707L55.7588 230.464L55.0967 231.703C55.0746 231.744 55.0414 231.779 55.001 231.801L53.7946 232.477Z" fill="#652EFF"/>
<g opacity="0.45">
<path d="M215.108 229.891C214.976 229.891 214.868 229.78 214.868 229.644V228.096C214.868 227.959 214.976 227.848 215.108 227.848C215.241 227.848 215.349 227.959 215.349 228.096V229.644C215.349 229.78 215.242 229.891 215.108 229.891Z" fill="#652EFF"/>
<path d="M215.108 233.867C214.976 233.867 214.868 233.757 214.868 233.62V232.072C214.868 231.935 214.976 231.824 215.108 231.824C215.241 231.824 215.349 231.935 215.349 232.072V233.62C215.349 233.757 215.242 233.867 215.108 233.867Z" fill="#652EFF"/>
<path d="M217.791 231.105H216.288C216.155 231.105 216.047 230.994 216.047 230.857C216.047 230.721 216.155 230.61 216.288 230.61H217.791C217.923 230.61 218.031 230.721 218.031 230.857C218.031 230.994 217.924 231.105 217.791 231.105Z" fill="#652EFF"/>
<path d="M213.932 231.105H212.429C212.296 231.105 212.188 230.994 212.188 230.857C212.188 230.721 212.296 230.61 212.429 230.61H213.932C214.065 230.61 214.172 230.721 214.172 230.857C214.172 230.994 214.065 231.105 213.932 231.105Z" fill="#652EFF"/>
<path d="M213.213 233.058C213.152 233.058 213.09 233.034 213.043 232.986C212.949 232.889 212.949 232.732 213.043 232.636L214.106 231.541C214.199 231.445 214.352 231.445 214.446 231.541C214.539 231.638 214.539 231.795 214.446 231.891L213.383 232.986C213.336 233.034 213.275 233.058 213.213 233.058Z" fill="#652EFF"/>
<path d="M215.942 230.247C215.881 230.247 215.819 230.223 215.772 230.175C215.678 230.078 215.678 229.921 215.772 229.824L216.835 228.73C216.928 228.633 217.081 228.633 217.175 228.73C217.268 228.826 217.268 228.983 217.175 229.08L216.112 230.175C216.065 230.223 216.004 230.247 215.942 230.247Z" fill="#652EFF"/>
<path d="M214.276 230.247C214.214 230.247 214.153 230.223 214.106 230.175L213.043 229.08C212.949 228.983 212.949 228.826 213.043 228.73C213.137 228.633 213.289 228.633 213.383 228.73L214.446 229.824C214.539 229.921 214.539 230.078 214.446 230.175C214.399 230.223 214.337 230.247 214.276 230.247Z" fill="#652EFF"/>
<path d="M217.005 233.058C216.943 233.058 216.882 233.034 216.835 232.986L215.772 231.891C215.678 231.795 215.678 231.638 215.772 231.541C215.866 231.445 216.018 231.445 216.112 231.541L217.175 232.636C217.268 232.732 217.268 232.889 217.175 232.986C217.127 233.034 217.066 233.058 217.005 233.058Z" fill="#652EFF"/>
</g>
<g opacity="0.45">
<path d="M86.9156 208.804C86.7827 208.804 86.6748 208.693 86.6748 208.556V206.793C86.6748 206.656 86.7827 206.545 86.9156 206.545C87.0485 206.545 87.1564 206.656 87.1564 206.793V208.556C87.1564 208.693 87.0485 208.804 86.9156 208.804Z" fill="#652EFF"/>
<path d="M86.9156 213.331C86.7827 213.331 86.6748 213.221 86.6748 213.084V211.32C86.6748 211.184 86.7827 211.073 86.9156 211.073C87.0485 211.073 87.1564 211.184 87.1564 211.32V213.084C87.1564 213.221 87.0485 213.331 86.9156 213.331Z" fill="#652EFF"/>
<path d="M85.5747 210.186H83.8635C83.7307 210.186 83.623 210.075 83.623 209.938C83.623 209.802 83.7307 209.691 83.8635 209.691H85.5747C85.7074 209.691 85.8151 209.802 85.8151 209.938C85.8151 210.075 85.7074 210.186 85.5747 210.186Z" fill="#652EFF"/>
<path d="M89.9697 210.186H88.2585C88.1258 210.186 88.0181 210.075 88.0181 209.938C88.0181 209.802 88.1258 209.691 88.2585 209.691H89.9697C90.1024 209.691 90.2101 209.802 90.2101 209.938C90.2101 210.075 90.1024 210.186 89.9697 210.186Z" fill="#652EFF"/>
<path d="M89.0743 212.411C89.0127 212.411 88.9512 212.387 88.9041 212.339L87.6939 211.092C87.6001 210.995 87.6001 210.838 87.6939 210.741C87.7876 210.645 87.94 210.645 88.0338 210.741L89.244 211.989C89.3377 212.085 89.3377 212.242 89.244 212.339C89.1974 212.387 89.1358 212.411 89.0743 212.411Z" fill="#652EFF"/>
<path d="M85.9664 209.209C85.9048 209.209 85.8433 209.185 85.7961 209.137L84.5859 207.89C84.4922 207.793 84.4922 207.636 84.5859 207.54C84.6797 207.443 84.8321 207.443 84.9259 207.54L86.1361 208.786C86.2298 208.883 86.2298 209.04 86.1361 209.137C86.0894 209.185 86.0279 209.209 85.9664 209.209Z" fill="#652EFF"/>
<path d="M87.8641 209.209C87.8025 209.209 87.741 209.185 87.6939 209.137C87.6001 209.04 87.6001 208.883 87.6939 208.786L88.9041 207.54C88.9978 207.443 89.1502 207.443 89.244 207.54C89.3377 207.636 89.3377 207.793 89.244 207.89L88.0338 209.137C87.9871 209.185 87.9256 209.209 87.8641 209.209Z" fill="#652EFF"/>
<path d="M84.7562 212.411C84.6946 212.411 84.6331 212.387 84.5859 212.339C84.4922 212.242 84.4922 212.085 84.5859 211.989L85.7961 210.741C85.8899 210.645 86.0423 210.645 86.1361 210.741C86.2298 210.838 86.2298 210.995 86.1361 211.092L84.9259 212.339C84.8788 212.387 84.8172 212.411 84.7562 212.411Z" fill="#652EFF"/>
</g>
<g opacity="0.45">
<path d="M212.379 211.868C212.246 211.868 212.138 211.757 212.138 211.62V209.571C212.138 209.435 212.246 209.324 212.379 209.324C212.512 209.324 212.62 209.435 212.62 209.571V211.62C212.62 211.757 212.512 211.868 212.379 211.868Z" fill="#652EFF"/>
<path d="M212.379 217.129C212.246 217.129 212.138 217.018 212.138 216.881V214.833C212.138 214.696 212.246 214.585 212.379 214.585C212.512 214.585 212.62 214.696 212.62 214.833V216.881C212.62 217.019 212.512 217.129 212.379 217.129Z" fill="#652EFF"/>
<path d="M210.819 213.473H208.831C208.698 213.473 208.59 213.363 208.59 213.226C208.59 213.089 208.698 212.979 208.831 212.979H210.819C210.952 212.979 211.06 213.089 211.06 213.226C211.06 213.363 210.952 213.473 210.819 213.473Z" fill="#652EFF"/>
<path d="M215.927 213.473H213.938C213.805 213.473 213.698 213.363 213.698 213.226C213.698 213.089 213.805 212.979 213.938 212.979H215.927C216.06 212.979 216.168 213.089 216.168 213.226C216.168 213.363 216.06 213.473 215.927 213.473Z" fill="#652EFF"/>
<path d="M214.888 216.058C214.827 216.058 214.765 216.034 214.718 215.986L213.312 214.537C213.218 214.44 213.218 214.283 213.312 214.187C213.405 214.09 213.558 214.09 213.651 214.187L215.058 215.636C215.152 215.732 215.152 215.889 215.058 215.986C215.011 216.034 214.949 216.058 214.888 216.058Z" fill="#652EFF"/>
<path d="M211.278 212.338C211.216 212.338 211.155 212.314 211.108 212.266L209.701 210.817C209.607 210.72 209.607 210.563 209.701 210.466C209.795 210.37 209.947 210.37 210.041 210.466L211.447 211.915C211.541 212.012 211.541 212.169 211.447 212.266C211.401 212.314 211.339 212.338 211.278 212.338Z" fill="#652EFF"/>
<path d="M213.482 212.338C213.42 212.338 213.359 212.314 213.312 212.266C213.218 212.169 213.218 212.012 213.312 211.915L214.718 210.466C214.812 210.37 214.964 210.37 215.058 210.466C215.152 210.563 215.152 210.72 215.058 210.817L213.651 212.266C213.605 212.314 213.543 212.338 213.482 212.338Z" fill="#652EFF"/>
<path d="M209.871 216.059C209.81 216.059 209.748 216.034 209.701 215.986C209.607 215.89 209.607 215.733 209.701 215.636L211.108 214.187C211.201 214.091 211.354 214.091 211.447 214.187C211.541 214.284 211.541 214.441 211.447 214.537L210.041 215.986C209.994 216.034 209.933 216.059 209.871 216.059Z" fill="#652EFF"/>
</g>
<rect x="35.0732" y="154.677" width="45.4021" height="3.70485" fill="white"/>
<rect x="176" y="152.825" width="44.9526" height="2.77864" fill="white"/>
<rect x="186.788" y="8.33594" width="44.9526" height="2.77864" fill="white"/>
<rect x="106.772" y="8.33594" width="44.0536" height="2.77864" fill="white"/>
<rect x="27.6558" y="8.33594" width="44.0536" height="2.77864" fill="white"/>
<path d="M82.7908 187.312H82.4593C81.4832 187.312 80.9952 186.097 81.685 185.386L81.9194 185.145C82.3471 184.704 82.3471 183.989 81.9194 183.549L81.0354 182.638C80.6076 182.197 79.9145 182.197 79.4858 182.638L79.2515 182.88C78.5617 183.59 77.3822 183.087 77.3822 182.082V181.74C77.3822 181.117 76.8916 180.611 76.2872 180.611H75.0374C74.4321 180.611 73.9416 181.117 73.9416 181.74V182.082C73.9416 183.087 72.7621 183.59 72.0723 182.88L71.8379 182.638C71.4101 182.197 70.717 182.197 70.2884 182.638L69.4052 183.549C68.9766 183.989 68.9766 184.704 69.4052 185.145L69.6396 185.386C70.3294 186.097 69.8405 187.312 68.8653 187.312H68.533C67.9286 187.312 67.438 187.818 67.438 188.441V189.728C67.438 190.351 67.9286 190.857 68.533 190.857H68.8653C69.8405 190.857 70.3294 192.072 69.6396 192.783L69.4052 193.024C68.9766 193.465 68.9766 194.18 69.4052 194.62L70.2884 195.531C70.717 195.972 71.4101 195.972 71.8379 195.531L72.0723 195.29C72.7621 194.579 73.9416 195.082 73.9416 196.087V196.429C73.9416 197.052 74.4321 197.558 75.0374 197.558H76.2872C76.8916 197.558 77.3822 197.052 77.3822 196.429V196.087C77.3822 195.082 78.5617 194.579 79.2515 195.29L79.4858 195.531C79.9145 195.972 80.6076 195.972 81.0354 195.531L81.9194 194.62C82.3471 194.18 82.3471 193.465 81.9194 193.024L81.685 192.783C80.9952 192.072 81.4841 190.857 82.4593 190.857H82.7908C83.396 190.857 83.8866 190.351 83.8866 189.728V188.441C83.8858 187.818 83.396 187.312 82.7908 187.312ZM75.6619 192.102C74.0437 192.102 72.7328 190.752 72.7328 189.085C72.7328 187.417 74.0437 186.067 75.6619 186.067C77.28 186.067 78.5918 187.417 78.5918 189.085C78.5918 190.752 77.28 192.102 75.6619 192.102Z" fill="#642CFF"/>
<path d="M158.265 185.743C160.964 185.743 163.178 188.002 163.178 190.82C163.178 193.638 160.964 195.897 158.265 195.897C155.565 195.897 153.351 193.638 153.351 190.82C153.351 188.002 155.565 185.743 158.265 185.743Z" fill="white" stroke="#652EFF"/>
<path d="M158.265 193.342C159.617 193.342 160.713 192.213 160.713 190.82C160.713 189.427 159.617 188.298 158.265 188.298C156.913 188.298 155.817 189.427 155.817 190.82C155.817 192.213 156.913 193.342 158.265 193.342Z" fill="#652EFF"/>
<path d="M101.624 185.743C104.323 185.743 106.537 188.002 106.537 190.82C106.537 193.638 104.323 195.897 101.624 195.897C98.9238 195.897 96.7095 193.638 96.7095 190.82C96.7095 188.002 98.9238 185.743 101.624 185.743Z" fill="white" stroke="#652EFF"/>
<path d="M101.624 193.342C102.976 193.342 104.072 192.213 104.072 190.82C104.072 189.427 102.976 188.298 101.624 188.298C100.272 188.298 99.1763 189.427 99.1763 190.82C99.1763 192.213 100.272 193.342 101.624 193.342Z" fill="#652EFF"/>
<defs>
<linearGradient id="paint0_linear_821_2177" x1="100.25" y1="209.209" x2="157.97" y2="209.209" gradientUnits="userSpaceOnUse">
<stop stop-color="white"/>
<stop offset="1" stop-color="white"/>
</linearGradient>
</defs>
</svg>
