<svg width="260" height="280" viewBox="0 0 260 280" fill="none" xmlns="http://www.w3.org/2000/svg">
<path d="M56.7628 185.146C55.915 185.329 55.1385 185.485 54.3697 185.664C51.3168 186.378 48.409 187.433 45.6639 188.875C44.6705 189.397 43.7118 189.975 42.7866 190.601C41.3864 191.55 40.1495 192.699 38.9974 193.946C38.4649 194.522 37.902 195.068 37.3703 195.646C35.8346 197.314 34.8036 199.323 34.0435 201.518C33.0798 204.299 32.8084 207.22 33.205 210.28C33.2136 210.346 33.2195 210.413 33.2305 210.478C33.2953 210.871 33.3111 210.887 33.6807 210.957C35.2084 211.25 36.7155 211.669 38.1934 212.239C40.9439 213.299 43.4842 214.792 45.7351 216.851C46.9263 217.941 47.9189 219.189 48.6004 220.672C49.0992 221.758 49.385 222.876 49.3606 224.03C49.3278 225.541 48.8129 226.775 47.5682 227.525C46.6255 228.093 45.5541 228.183 44.4248 227.987C42.6969 227.689 41.1346 226.898 39.6796 225.816C38.1234 224.658 36.7831 223.272 35.6103 221.692C33.6766 219.087 32.4395 216.214 31.7164 213.127C31.5878 212.577 31.592 212.555 31.0669 212.452C29.5758 212.16 28.0839 211.874 26.5902 211.61C23.9352 211.142 21.2762 210.813 18.616 210.627C18.0112 210.585 17.4075 210.569 16.803 210.538C16.6524 210.53 16.4975 210.558 16.2895 210.456C16.4993 210.339 16.6867 210.323 16.8651 210.298C20.1755 209.829 23.5231 209.653 26.9343 209.998C28.1601 210.121 29.3867 210.282 30.6127 210.433C31.2337 210.51 31.2374 210.515 31.1607 209.873C30.7131 206.118 31.2629 202.616 32.6004 199.298C33.5836 196.859 35.0043 194.772 36.8581 193.022C38.212 191.743 39.6943 190.636 41.283 189.664C44.8208 187.499 48.7454 186.275 52.8621 185.508C54.0108 185.294 55.1528 185.042 56.3524 185.062C56.4592 185.064 56.5687 185.024 56.7628 185.146ZM37.0545 220.455C37.5033 221.105 38.231 221.94 39.0198 222.717C40.3313 224.008 41.7732 225.075 43.4705 225.674C44.1416 225.911 44.8223 226.049 45.5063 225.981C46.5511 225.877 47.1548 225.273 47.2979 224.204C47.4135 223.34 47.227 222.497 46.8825 221.667C46.4247 220.565 45.731 219.621 44.8944 218.78C43.3893 217.267 41.6589 216.112 39.8257 215.139C38.0046 214.171 36.1003 213.513 34.1457 213.071C33.726 212.976 33.7087 213.002 33.8106 213.454C33.8137 213.471 33.8188 213.487 33.8232 213.503C34.4515 215.888 35.4209 218.135 37.0545 220.455Z" fill="#C8BCEA"/>
<path d="M21.9022 203.929L21.1988 212.077L21.1898 212.181L21.2224 212.282L23.9782 220.855L1.38582 211.913L21.9022 203.929Z" fill="white" stroke="#652EFF"/>
<path d="M21.8069 210.994L25.2213 212.178L22.1612 213.3L6.74124 211.978L21.8069 210.994Z" fill="#CECEF4" stroke="#652EFF"/>
<path d="M239.132 40.1899H40.0068V154.089C40.0068 155.962 41.4896 157.481 43.3184 157.481H235.82C237.649 157.481 239.132 155.962 239.132 154.089L239.132 40.1899Z" fill="#FEFEFE"/>
<path d="M78.7614 13.0243H29.2875C29.1514 13.0243 29.041 12.9112 29.041 12.7719V8.72067C29.041 8.58134 29.1514 8.46826 29.2875 8.46826H78.7614C78.8975 8.46826 79.0079 8.58134 79.0079 8.72067V12.7719C79.0079 12.9117 78.898 13.0243 78.7614 13.0243ZM29.534 12.5195H78.515V8.97308H29.534V12.5195Z" fill="#652EFF"/>
<path d="M164.322 13.0243H114.849C114.713 13.0243 114.603 12.9112 114.603 12.7719V8.72067C114.603 8.58134 114.713 8.46826 114.849 8.46826H164.322C164.459 8.46826 164.569 8.58134 164.569 8.72067V12.7719C164.569 12.9117 164.459 13.0243 164.322 13.0243ZM115.095 12.5195H164.076V8.97308H115.095V12.5195Z" fill="#652EFF"/>
<path d="M111.085 205.922L111.181 206.146C111.241 206.12 111.288 206.07 111.312 206.008L111.085 205.917M111.085 205.922V205.917M111.085 205.922V205.917M111.085 205.922L111.082 205.916L111.085 205.917M111.085 205.908L111.081 205.909L111.085 205.901M111.085 205.908V205.901M111.085 205.908L111.312 205.818C111.288 205.756 111.24 205.707 111.181 205.681L111.085 205.901M111.085 205.908V205.901M81.0986 168.818L81.0947 168.819L81.0957 168.818M81.0986 168.818L81.0957 168.818M81.0986 168.818L81.1025 168.819L81.1016 168.818M81.0986 168.818L81.1016 168.818M81.0957 168.818L81.0986 168.813V168.81L81.0039 168.59C80.9436 168.616 80.8958 168.666 80.8711 168.728L81.0957 168.818ZM81.1016 168.818L81.3271 168.728H81.3262C81.3014 168.666 81.2546 168.615 81.1943 168.589V168.59L81.0986 168.811L81.1016 168.818ZM84.5322 205.66V205.665H84.3115V206.165H82.1699V206.16H82.4072V205.66H84.5322ZM88.7803 205.66V205.665H88.5957V206.165H86.4541V206.16H86.6562V205.66H88.7803ZM93.0293 205.66V205.665H92.8789V206.165H90.7373V206.16H90.9043V205.66H93.0293ZM97.2773 205.66V205.665H97.1631V206.165H95.0215V206.16H95.1533V205.66H97.2773ZM101.526 205.66V205.665H101.446V206.165H99.3047V206.16H99.4014V205.66H101.526ZM105.774 205.66V205.665H105.73V206.165H103.589V206.16H103.65V205.66H105.774ZM110.022 205.66V205.665H110.014V206.165H107.872V206.16H107.898V205.66H110.022ZM81.3457 202.822V204.638H80.8525V202.822H81.3457ZM81.3457 198.701V200.544H80.8525V198.701H81.3457ZM81.3457 194.58V196.451H80.8525V194.58H81.3457ZM81.3457 190.459V192.359H80.8525V190.459H81.3457ZM81.3457 186.338V188.265H80.8525V186.338H81.3457ZM81.3457 182.217V184.172H80.8525V182.217H81.3457ZM81.3457 178.096V180.079H80.8525V178.096H81.3457ZM81.3457 173.975V175.985H80.8525V173.975H81.3457ZM81.3457 169.853V171.893H80.8525V169.853H81.3457Z" stroke="#652EFF" stroke-dasharray="2 2"/>
<path d="M166.809 205.922L166.713 206.146C166.653 206.12 166.606 206.07 166.581 206.008L166.809 205.917M166.809 205.922V205.917M166.809 205.922V205.917M166.809 205.922L166.812 205.916L166.809 205.917M166.809 205.908L166.812 205.909L166.809 205.901M166.809 205.908V205.901M166.809 205.908L166.581 205.818C166.606 205.756 166.653 205.707 166.713 205.681L166.809 205.901M166.809 205.908V205.901M196.795 168.818L196.799 168.819L196.798 168.818M196.795 168.818L196.798 168.818M196.795 168.818L196.791 168.819L196.792 168.818M196.795 168.818L196.792 168.818M196.798 168.818L196.795 168.813V168.81L196.89 168.59C196.95 168.616 196.998 168.666 197.022 168.728L196.798 168.818ZM196.792 168.818L196.566 168.728H196.567C196.592 168.666 196.639 168.615 196.699 168.589V168.59L196.795 168.811L196.792 168.818ZM193.361 205.66V205.665H193.582V206.165H195.724V206.16H195.486V205.66H193.361ZM189.113 205.66V205.665H189.298V206.165H191.439V206.16H191.237V205.66H189.113ZM184.864 205.66V205.665H185.015V206.165H187.156V206.16H186.989V205.66H184.864ZM180.616 205.66V205.665H180.73V206.165H182.872V206.16H182.74V205.66H180.616ZM176.367 205.66V205.665H176.447V206.165H178.589V206.16H178.492V205.66H176.367ZM172.119 205.66V205.665H172.163V206.165H174.305V206.16H174.243V205.66H172.119ZM167.871 205.66V205.665H167.88V206.165H170.021V206.16H169.995V205.66H167.871ZM196.548 202.822V204.638H197.041V202.822H196.548ZM196.548 198.701V200.544H197.041V198.701H196.548ZM196.548 194.58V196.451H197.041V194.58H196.548ZM196.548 190.459V192.359H197.041V190.459H196.548ZM196.548 186.338V188.265H197.041V186.338H196.548ZM196.548 182.217V184.172H197.041V182.217H196.548ZM196.548 178.096V180.079H197.041V178.096H196.548ZM196.548 173.975V175.985H197.041V173.975H196.548ZM196.548 169.853V171.893H197.041V169.853H196.548Z" stroke="#652EFF" stroke-dasharray="2 2"/>
<path d="M47.7774 0.308298H17.7914C17.6553 0.308298 17.5449 0.421379 17.5449 0.56071V37.651C17.5449 37.7904 17.6553 37.9034 17.7914 37.9034C17.9274 37.9034 18.0379 37.7904 18.0379 37.651V0.813121H47.7774C47.9135 0.813121 48.0239 0.700041 48.0239 0.56071C48.0239 0.421379 47.914 0.308298 47.7774 0.308298Z" fill="#652EFF"/>
<path d="M47.7774 178.545H17.7914C17.6553 178.545 17.5449 178.432 17.5449 178.293V141.202C17.5449 141.063 17.6553 140.95 17.7914 140.95C17.9274 140.95 18.0379 141.063 18.0379 141.202V178.04H47.7774C47.9135 178.04 48.0239 178.153 48.0239 178.293C48.0239 178.432 47.914 178.545 47.7774 178.545Z" fill="#652EFF"/>
<path d="M87.4343 170.767H37.9603C37.8243 170.767 37.7139 170.654 37.7139 170.515V166.464C37.7139 166.325 37.8243 166.212 37.9603 166.212H87.4343C87.5703 166.212 87.6807 166.325 87.6807 166.464V170.515C87.6807 170.654 87.5703 170.767 87.4343 170.767ZM38.2068 170.262H87.1878V166.717H38.2068V170.262Z" fill="#652EFF"/>
<path d="M257.843 177.859H227.857C227.721 177.859 227.61 177.746 227.61 177.607C227.61 177.468 227.721 177.354 227.857 177.354H257.596V146.56C257.596 146.421 257.707 146.308 257.843 146.308C257.979 146.308 258.089 146.421 258.089 146.56V177.607C258.089 177.746 257.979 177.859 257.843 177.859Z" fill="#652EFF"/>
<path d="M239.621 168.393H190.148C190.012 168.393 189.901 168.28 189.901 168.141V164.09C189.901 163.951 190.012 163.838 190.148 163.838H239.621C239.757 163.838 239.868 163.951 239.868 164.09V168.141C239.868 168.281 239.757 168.393 239.621 168.393ZM190.394 167.888H239.375V164.342H190.394V167.888Z" fill="#652EFF"/>
<path d="M259.754 37.5951C259.618 37.5951 259.508 37.4821 259.508 37.3427V0.504822H229.768C229.632 0.504822 229.521 0.391742 229.521 0.252411C229.521 0.11308 229.632 0 229.768 0H259.754C259.891 0 260.001 0.11308 260.001 0.252411V37.3427C260.001 37.4821 259.891 37.5951 259.754 37.5951Z" fill="#652EFF"/>
<path d="M251.272 13.0243H201.798C201.662 13.0243 201.552 12.9112 201.552 12.7719V8.72067C201.552 8.58134 201.662 8.46826 201.798 8.46826H251.272C251.408 8.46826 251.519 8.58134 251.519 8.72067V12.7719C251.519 12.9117 251.408 13.0243 251.272 13.0243ZM202.045 12.5195H251.026V8.97308H202.045V12.5195Z" fill="#652EFF"/>
<path d="M236.023 158.262H43.1137C41.2642 158.262 39.7598 156.721 39.7598 154.827V42.7727C39.7598 42.6333 39.8702 42.5203 40.0062 42.5203H239.131C239.267 42.5203 239.377 42.6333 239.377 42.7727V154.827C239.377 156.721 237.873 158.262 236.023 158.262ZM40.2527 43.0251V154.827C40.2527 156.443 41.5363 157.758 43.1137 157.758H236.024C237.601 157.758 238.885 156.443 238.885 154.827V43.0251H40.2527Z" fill="#652EFF"/>
<path d="M90.0582 158.101C89.9221 158.101 89.8117 157.988 89.8117 157.848V43.4863H40.39C40.254 43.4863 40.1436 43.3732 40.1436 43.2339C40.1436 43.0945 40.254 42.9814 40.39 42.9814H90.0577C90.1937 42.9814 90.3042 43.0945 90.3042 43.2339V157.848C90.3047 157.988 90.1942 158.101 90.0582 158.101Z" fill="#652EFF"/>
<path d="M139.667 158.101H89.9994C89.8633 158.101 89.7529 157.988 89.7529 157.848V43.2339C89.7529 43.0945 89.8633 42.9814 89.9994 42.9814H139.667C139.803 42.9814 139.914 43.0945 139.914 43.2339V157.848C139.914 157.988 139.803 158.101 139.667 158.101ZM90.2459 157.596H139.421V43.4863H90.2459V157.596Z" fill="#652EFF"/>
<path d="M189.393 158.101H139.725C139.589 158.101 139.479 157.988 139.479 157.848V43.2339C139.479 43.0945 139.589 42.9814 139.725 42.9814H189.393C189.529 42.9814 189.639 43.0945 189.639 43.2339V157.848C189.639 157.988 189.529 158.101 189.393 158.101ZM139.971 157.596H189.146V43.4863H139.971V157.596Z" fill="#652EFF"/>
<path d="M189.334 158.101C189.198 158.101 189.088 157.988 189.088 157.848V43.2339C189.088 43.0945 189.198 42.9814 189.334 42.9814H239.002C239.138 42.9814 239.249 43.0945 239.249 43.2339C239.249 43.3732 239.138 43.4863 239.002 43.4863H189.581V157.848C189.581 157.988 189.47 158.101 189.334 158.101Z" fill="#652EFF"/>
<path d="M239.132 42.7728H40.0068V24.6294C40.0068 22.7565 41.4896 21.238 43.3184 21.238H235.82C237.649 21.238 239.132 22.7565 239.132 24.6294V42.7728H239.132Z" fill="#FEFEFE"/>
<path d="M239.131 43.0251H40.0062C39.8702 43.0251 39.7598 42.9121 39.7598 42.7727V24.6294C39.7598 22.6202 41.3559 20.9856 43.3178 20.9856H235.82C237.781 20.9856 239.378 22.6202 239.378 24.6294V42.7727C239.377 42.9126 239.267 43.0251 239.131 43.0251ZM40.2527 42.5203H238.884V24.6294C238.884 22.8984 237.51 21.4904 235.819 21.4904H43.3178C41.6275 21.4904 40.2527 22.8989 40.2527 24.6294V42.5203Z" fill="#652EFF"/>
<path d="M140.427 27.4475C141.222 27.4475 141.867 26.7873 141.867 25.9729C141.867 25.1585 141.222 24.4983 140.427 24.4983C139.632 24.4983 138.987 25.1585 138.987 25.9729C138.987 26.7873 139.632 27.4475 140.427 27.4475Z" fill="white"/>
<path d="M141.239 35.8731C139.608 35.8731 138.282 34.5463 138.282 32.9162C138.282 31.2851 139.608 29.9592 141.239 29.9592C142.87 29.9592 144.196 31.286 144.196 32.9162C144.196 34.5463 142.87 35.8731 141.239 35.8731ZM141.239 30.8227C140.085 30.8227 139.147 31.7614 139.147 32.9153C139.147 34.0692 140.085 35.0079 141.239 35.0079C142.393 35.0079 143.332 34.0692 143.332 32.9153C143.332 31.7614 142.393 30.8227 141.239 30.8227Z" fill="#652EFF"/>
<path d="M132.532 27.4475C133.327 27.4475 133.972 26.7873 133.972 25.9729C133.972 25.1585 133.327 24.4983 132.532 24.4983C131.736 24.4983 131.092 25.1585 131.092 25.9729C131.092 26.7873 131.736 27.4475 132.532 27.4475Z" fill="white"/>
<path d="M133.447 35.8727C131.816 35.8727 130.49 34.546 130.49 32.9159C130.49 31.285 131.816 29.9592 133.447 29.9592C135.078 29.9592 136.405 31.2859 136.405 32.9159C136.405 34.546 135.078 35.8727 133.447 35.8727ZM133.447 30.8226C132.293 30.8226 131.355 31.7613 131.355 32.9151C131.355 34.0689 132.293 35.0075 133.447 35.0075C134.601 35.0075 135.54 34.0689 135.54 32.9151C135.54 31.7613 134.601 30.8226 133.447 30.8226Z" fill="#652EFF"/>
<path d="M148.701 27.4475C149.496 27.4475 150.141 26.7873 150.141 25.9729C150.141 25.1585 149.496 24.4983 148.701 24.4983C147.905 24.4983 147.261 25.1585 147.261 25.9729C147.261 26.7873 147.905 27.4475 148.701 27.4475Z" fill="white"/>
<path d="M150.005 35.8727C148.375 35.8727 147.048 34.546 147.048 32.916C147.048 31.285 148.375 29.9592 150.005 29.9592C151.636 29.9592 152.962 31.2859 152.962 32.916C152.962 34.546 151.636 35.8727 150.005 35.8727ZM150.005 30.8227C148.852 30.8227 147.912 31.7613 147.912 32.9151C147.912 34.0689 148.852 35.0075 150.005 35.0075C151.159 35.0075 152.098 34.0689 152.098 32.9151C152.098 31.7613 151.159 30.8227 150.005 30.8227Z" fill="#652EFF"/>
<path d="M125.348 85.7692H103.286C103.149 85.7692 103.039 85.6561 103.039 85.5168V62.9225C103.039 62.7831 103.149 62.67 103.286 62.67H125.348C125.484 62.67 125.595 62.7831 125.595 62.9225V85.5168C125.595 85.6566 125.484 85.7692 125.348 85.7692ZM103.532 85.2644H125.102V63.1749H103.532V85.2644Z" fill="#652EFF"/>
<path d="M114.315 78.5898C111.958 78.5898 110.048 76.6336 110.048 74.2201C110.048 71.807 111.958 69.8503 114.315 69.8503C116.671 69.8503 118.582 71.8065 118.582 74.2201C118.582 76.6331 116.671 78.5898 114.315 78.5898Z" fill="white"/>
<path d="M114.316 78.8422C111.828 78.8422 109.803 76.7689 109.803 74.22C109.803 71.6717 111.827 69.5979 114.316 69.5979C116.805 69.5979 118.829 71.6712 118.829 74.22C118.829 76.7684 116.805 78.8422 114.316 78.8422ZM114.316 70.1027C112.099 70.1027 110.296 71.9499 110.296 74.22C110.296 76.4907 112.099 78.3374 114.316 78.3374C116.533 78.3374 118.337 76.4902 118.337 74.22C118.337 71.9494 116.533 70.1027 114.316 70.1027Z" fill="#652EFF"/>
<path d="M114.316 76.3444C113.171 76.3444 112.242 75.3933 112.242 74.2201C112.242 73.0469 113.171 72.0958 114.316 72.0958C115.462 72.0958 116.391 73.0469 116.391 74.2201C116.391 75.3933 115.462 76.3444 114.316 76.3444Z" fill="white"/>
<path d="M114.317 76.5967C113.037 76.5967 111.996 75.5305 111.996 74.22C111.996 72.9094 113.037 71.8433 114.317 71.8433C115.597 71.8433 116.638 72.9094 116.638 74.22C116.638 75.5305 115.597 76.5967 114.317 76.5967ZM114.317 72.3476C113.309 72.3476 112.489 73.1876 112.489 74.2195C112.489 75.2518 113.309 76.0913 114.317 76.0913C115.325 76.0913 116.145 75.2513 116.145 74.2195C116.145 73.1876 115.325 72.3476 114.317 72.3476Z" fill="#652EFF"/>
<path d="M125.348 117.757H103.286C103.149 117.757 103.039 117.644 103.039 117.505V94.9106C103.039 94.7713 103.149 94.6582 103.286 94.6582H125.348C125.484 94.6582 125.595 94.7713 125.595 94.9106V117.505C125.595 117.644 125.484 117.757 125.348 117.757ZM103.532 117.253H125.102V95.163H103.532V117.253Z" fill="#652EFF"/>
<path d="M134.585 143.571H118.725C118.589 143.571 118.479 143.458 118.479 143.319V127.076C118.479 126.937 118.589 126.824 118.725 126.824H134.585C134.721 126.824 134.832 126.937 134.832 127.076V143.319C134.832 143.459 134.722 143.571 134.585 143.571ZM118.971 143.067H134.339V127.329H118.971V143.067Z" fill="#652EFF"/>
<path d="M112.242 143.571H96.3822C96.2462 143.571 96.1357 143.458 96.1357 143.319V127.076C96.1357 126.937 96.2462 126.824 96.3822 126.824H112.242C112.378 126.824 112.489 126.937 112.489 127.076V143.319C112.489 143.459 112.378 143.571 112.242 143.571ZM96.6282 143.067H111.995V127.329H96.6282V143.067Z" fill="#652EFF"/>
<path d="M104.157 138.235C102.454 138.235 101.068 136.816 101.068 135.073C101.068 133.329 102.454 131.91 104.157 131.91C105.859 131.91 107.245 133.329 107.245 135.073C107.245 136.816 105.859 138.235 104.157 138.235ZM104.157 132.415C102.726 132.415 101.561 133.607 101.561 135.073C101.561 136.539 102.726 137.731 104.157 137.731C105.588 137.731 106.752 136.539 106.752 135.073C106.752 133.607 105.588 132.415 104.157 132.415Z" fill="#652EFF"/>
<path d="M174.949 134.209H152.886C152.75 134.209 152.64 134.096 152.64 133.957V111.362C152.64 111.222 152.75 111.109 152.886 111.109H174.949C175.085 111.109 175.195 111.222 175.195 111.362V133.957C175.195 134.096 175.085 134.209 174.949 134.209ZM153.133 133.704H174.702V111.614H153.133V133.704Z" fill="#652EFF"/>
<path d="M163.885 126.649C161.701 126.649 159.932 124.836 159.932 122.6C159.932 120.364 161.701 118.552 163.885 118.552C166.068 118.552 167.838 120.364 167.838 122.6C167.837 124.836 166.067 126.649 163.885 126.649Z" fill="white"/>
<path d="M163.885 126.901C161.57 126.901 159.686 124.971 159.686 122.6C159.686 120.228 161.569 118.299 163.885 118.299C166.201 118.299 168.085 120.228 168.085 122.6C168.085 124.971 166.2 126.901 163.885 126.901ZM163.885 118.805C161.841 118.805 160.178 120.507 160.178 122.6C160.178 124.693 161.841 126.397 163.885 126.397C165.929 126.397 167.592 124.694 167.592 122.6C167.591 120.507 165.929 118.805 163.885 118.805Z" fill="#652EFF"/>
<path d="M185.092 80.1128H169.232C169.096 80.1128 168.985 79.9997 168.985 79.8604V63.6183C168.985 63.4789 169.096 63.3658 169.232 63.3658H185.092C185.228 63.3658 185.339 63.4789 185.339 63.6183V79.8604C185.339 80.0002 185.229 80.1128 185.092 80.1128ZM169.478 79.608H184.846V63.8707H169.478V79.608Z" fill="#652EFF"/>
<path d="M162.749 80.1128H146.889C146.753 80.1128 146.643 79.9997 146.643 79.8604V63.6183C146.643 63.4789 146.753 63.3658 146.889 63.3658H162.749C162.885 63.3658 162.996 63.4789 162.996 63.6183V79.8604C162.996 80.0002 162.885 80.1128 162.749 80.1128ZM147.136 79.608H162.503V63.8707H147.136V79.608Z" fill="#652EFF"/>
<path d="M152.525 76.4968H152.523C152.139 76.4958 151.779 76.3226 151.533 76.0207L149.612 73.6592C149.155 73.0988 149.23 72.2623 149.777 71.7954C150.041 71.5687 150.379 71.4617 150.72 71.494C151.064 71.5258 151.375 71.6934 151.596 71.9655L152.53 73.1124L158.07 66.3715C158.529 65.8122 159.346 65.7415 159.891 66.2105C160.435 66.681 160.506 67.5175 160.047 68.0753L153.514 76.0258C153.269 76.3246 152.908 76.4968 152.525 76.4968ZM150.602 71.9927C150.416 71.9927 150.238 72.0589 150.093 72.1826C149.754 72.4718 149.708 72.9888 149.99 73.3361L151.911 75.6976C152.064 75.8839 152.287 75.9914 152.523 75.9919L152.525 76.2444V75.9919C152.762 75.9919 152.985 75.8859 153.137 75.7007L159.67 67.7502C159.954 67.4049 159.91 66.8875 159.573 66.5967C159.235 66.3059 158.731 66.3513 158.447 66.6961L152.718 73.6677C152.671 73.7248 152.602 73.7576 152.529 73.7576H152.529C152.456 73.7576 152.387 73.7243 152.34 73.6667L151.218 72.2881C151.081 72.12 150.889 72.016 150.676 71.9963C150.651 71.9937 150.627 71.9927 150.602 71.9927Z" fill="#652EFF"/>
<path d="M162.635 103.061H146.775C146.639 103.061 146.528 102.948 146.528 102.808V86.566C146.528 86.4267 146.639 86.3136 146.775 86.3136H162.635C162.771 86.3136 162.882 86.4267 162.882 86.566V102.808C162.882 102.948 162.771 103.061 162.635 103.061ZM147.021 102.556H162.389V86.8184H147.021V102.556Z" fill="#652EFF"/>
<path d="M84.8407 80.1128H68.9808C68.8448 80.1128 68.7344 79.9997 68.7344 79.8604V63.6183C68.7344 63.4789 68.8448 63.3658 68.9808 63.3658H84.8407C84.9768 63.3658 85.0872 63.4789 85.0872 63.6183V79.8604C85.0872 80.0002 84.9768 80.1128 84.8407 80.1128ZM69.2268 79.608H84.5937V63.8707H69.2268V79.608Z" fill="#652EFF"/>
<path d="M62.4979 80.1128H46.6381C46.502 80.1128 46.3916 79.9997 46.3916 79.8604V63.6183C46.3916 63.4789 46.502 63.3658 46.6381 63.3658H62.4979C62.634 63.3658 62.7444 63.4789 62.7444 63.6183V79.8604C62.7444 80.0002 62.634 80.1128 62.4979 80.1128ZM46.884 79.608H62.251V63.8707H46.884V79.608Z" fill="#652EFF"/>
<path d="M84.8407 103.108H68.9808C68.8448 103.108 68.7344 102.994 68.7344 102.855V86.613C68.7344 86.4737 68.8448 86.3606 68.9808 86.3606H84.8407C84.9768 86.3606 85.0872 86.4737 85.0872 86.613V102.855C85.0872 102.994 84.9768 103.108 84.8407 103.108ZM69.2268 102.603H84.5937V86.8654H69.2268V102.603Z" fill="#652EFF"/>
<path d="M62.3822 103.061H46.5219C46.3858 103.061 46.2754 102.948 46.2754 102.808V86.566C46.2754 86.4267 46.3858 86.3136 46.5219 86.3136H62.3822C62.5183 86.3136 62.6287 86.4267 62.6287 86.566V102.808C62.6287 102.948 62.5183 103.061 62.3822 103.061ZM46.7683 102.556H62.1357V86.8184H46.7683V102.556Z" fill="#652EFF"/>
<path d="M54.6279 97.5546C53.0584 97.5546 51.7861 96.2517 51.7861 94.6443C51.7861 93.037 53.0584 91.734 54.6279 91.734C56.1975 91.734 57.4697 93.037 57.4697 94.6443C57.4697 96.2517 56.1975 97.5546 54.6279 97.5546Z" fill="white"/>
<path d="M54.6283 97.8069C52.9257 97.8069 51.54 96.3878 51.54 94.6442C51.54 92.9005 52.9257 91.4814 54.6283 91.4814C56.3309 91.4814 57.7166 92.9005 57.7166 94.6442C57.7166 96.3878 56.3309 97.8069 54.6283 97.8069ZM54.6283 91.9868C53.1973 91.9868 52.033 93.1792 52.033 94.6447C52.033 96.1102 53.1973 97.3025 54.6283 97.3025C56.0593 97.3025 57.2236 96.1102 57.2236 94.6447C57.2236 93.1792 56.0593 91.9868 54.6283 91.9868Z" fill="#652EFF"/>
<path d="M238.792 56.4003H40.0062C39.8702 56.4003 39.7598 56.2873 39.7598 56.1481C39.7598 56.009 39.8702 55.896 40.0062 55.896H238.792C238.928 55.896 239.039 56.009 239.039 56.1481C239.039 56.2873 238.928 56.4003 238.792 56.4003Z" fill="#652EFF"/>
<path d="M78.6181 52.5964H50.665C49.1852 52.5964 47.9854 51.3676 47.9854 49.8521C47.9854 48.3367 49.1852 47.1074 50.665 47.1074H78.6181C80.0979 47.1074 81.2978 48.3362 81.2978 49.8521C81.2978 51.3676 80.0979 52.5964 78.6181 52.5964Z" fill="white"/>
<path d="M78.6185 52.849H50.6654C49.052 52.849 47.7393 51.5046 47.7393 49.8524C47.7393 48.2001 49.052 46.8552 50.6654 46.8552H78.6185C80.2319 46.8552 81.5446 48.1996 81.5446 49.8524C81.5446 51.5046 80.2319 52.849 78.6185 52.849ZM50.6654 47.3606C49.3236 47.3606 48.2322 48.4782 48.2322 49.8529C48.2322 51.227 49.3236 52.3447 50.6654 52.3447H78.6185C79.9603 52.3447 81.0517 51.227 81.0517 49.8529C81.0517 48.4787 79.9603 47.3606 78.6185 47.3606H50.6654Z" fill="#652EFF"/>
<path d="M128.64 52.5964H100.687C99.2071 52.5964 98.0068 51.3676 98.0068 49.8521C98.0068 48.3367 99.2067 47.1074 100.687 47.1074H128.64C130.12 47.1074 131.32 48.3362 131.32 49.8521C131.319 51.3676 130.12 52.5964 128.64 52.5964Z" fill="white"/>
<path d="M128.64 52.849H100.686C99.073 52.849 97.7598 51.5046 97.7598 49.8524C97.7598 48.2001 99.0725 46.8552 100.686 46.8552H128.64C130.252 46.8552 131.566 48.1996 131.566 49.8524C131.565 51.5046 130.252 52.849 128.64 52.849ZM100.686 47.3606C99.3446 47.3606 98.2527 48.4782 98.2527 49.8529C98.2527 51.227 99.3441 52.3447 100.686 52.3447H128.64C129.981 52.3447 131.073 51.227 131.073 49.8529C131.073 48.4787 129.981 47.3606 128.64 47.3606H100.686Z" fill="#652EFF"/>
<path d="M179.5 52.5964H151.547C150.068 52.5964 148.867 51.3676 148.867 49.8521C148.867 48.3367 150.068 47.1074 151.547 47.1074H179.5C180.98 47.1074 182.18 48.3362 182.18 49.8521C182.18 51.3676 180.98 52.5964 179.5 52.5964Z" fill="white"/>
<path d="M179.502 52.849H151.549C149.935 52.849 148.622 51.5046 148.622 49.8524C148.622 48.2001 149.935 46.8552 151.549 46.8552H179.502C181.115 46.8552 182.428 48.1996 182.428 49.8524C182.428 51.5046 181.115 52.849 179.502 52.849ZM151.549 47.3606C150.207 47.3606 149.115 48.4782 149.115 49.8529C149.115 51.227 150.207 52.3447 151.549 52.3447H179.502C180.844 52.3447 181.935 51.227 181.935 49.8529C181.935 48.4787 180.844 47.3606 179.502 47.3606H151.549Z" fill="#652EFF"/>
<path d="M229.311 52.5964H201.358C199.878 52.5964 198.678 51.3676 198.678 49.8521C198.678 48.3367 199.878 47.1074 201.358 47.1074H229.311C230.791 47.1074 231.991 48.3362 231.991 49.8521C231.991 51.3676 230.791 52.5964 229.311 52.5964Z" fill="white"/>
<path d="M229.312 52.849H201.359C199.746 52.849 198.433 51.5046 198.433 49.8524C198.433 48.2001 199.745 46.8552 201.359 46.8552H229.312C230.925 46.8552 232.238 48.1996 232.238 49.8524C232.238 51.5046 230.926 52.849 229.312 52.849ZM201.359 47.3606C200.017 47.3606 198.926 48.4782 198.926 49.8529C198.926 51.227 200.017 52.3447 201.359 52.3447H229.312C230.654 52.3447 231.746 51.227 231.746 49.8529C231.746 48.4787 230.654 47.3606 229.312 47.3606H201.359Z" fill="#652EFF"/>
<path d="M224.979 84.8709H203.015C202.879 84.8709 202.769 84.7578 202.769 84.6185V62.1251C202.769 61.9858 202.879 61.8727 203.015 61.8727H224.979C225.116 61.8727 225.226 61.9858 225.226 62.1251V84.6185C225.226 84.7578 225.116 84.8709 224.979 84.8709ZM203.262 84.3661H224.733V62.3775H203.262V84.3661Z" fill="#652EFF"/>
<path d="M224.979 148.307H203.015C202.879 148.307 202.769 148.194 202.769 148.055V125.561C202.769 125.422 202.879 125.309 203.015 125.309H224.979C225.116 125.309 225.226 125.422 225.226 125.561V148.055C225.226 148.195 225.116 148.307 224.979 148.307ZM203.262 147.802H224.733V125.814H203.262V147.802Z" fill="#652EFF"/>
<path d="M233.642 111.753H217.782C217.646 111.753 217.535 111.64 217.535 111.501V95.2579C217.535 95.1186 217.646 95.0055 217.782 95.0055H233.642C233.778 95.0055 233.888 95.1186 233.888 95.2579V111.501C233.888 111.64 233.779 111.753 233.642 111.753ZM218.029 111.248H233.396V95.5103H218.029V111.248Z" fill="#652EFF"/>
<path d="M211.299 111.753H195.439C195.303 111.753 195.192 111.64 195.192 111.501V95.2579C195.192 95.1186 195.303 95.0055 195.439 95.0055H211.299C211.435 95.0055 211.546 95.1186 211.546 95.2579V111.501C211.546 111.64 211.436 111.753 211.299 111.753ZM195.685 111.248H211.053V95.5103H195.685V111.248Z" fill="#652EFF"/>
<path d="M223.436 108.25C223.435 108.25 223.434 108.25 223.433 108.25C223.124 108.25 222.831 108.108 222.633 107.865L220.711 105.503C220.342 105.049 220.401 104.374 220.845 103.995C221.288 103.616 221.948 103.678 222.318 104.132L223.44 105.511L229.169 98.5389C229.541 98.0856 230.201 98.028 230.643 98.4087C231.084 98.7898 231.141 99.4653 230.769 99.9176L224.236 107.868C224.038 108.11 223.744 108.25 223.436 108.25Z" fill="white"/>
<path d="M223.436 108.503H223.433C223.05 108.502 222.689 108.329 222.443 108.027L220.522 105.666C220.301 105.394 220.196 105.05 220.227 104.698C220.258 104.347 220.422 104.028 220.687 103.802C220.952 103.575 221.291 103.466 221.631 103.5C221.975 103.532 222.286 103.699 222.507 103.971L223.441 105.118L228.98 98.377C229.202 98.1065 229.514 97.9409 229.858 97.9101C230.208 97.8828 230.537 97.9888 230.801 98.216C231.346 98.6865 231.416 99.523 230.958 100.081L224.424 108.031C224.179 108.331 223.818 108.503 223.436 108.503ZM221.513 103.999C221.327 103.999 221.148 104.065 221.003 104.189C220.839 104.329 220.738 104.526 220.718 104.744C220.699 104.962 220.764 105.174 220.9 105.343L222.822 107.704C222.974 107.89 223.197 107.998 223.433 107.998L223.436 108.251V107.998C223.672 107.998 223.895 107.892 224.047 107.707L230.581 99.7567C230.864 99.4114 230.821 98.894 230.484 98.6032C230.32 98.4624 230.109 98.3932 229.901 98.4144C229.687 98.4331 229.495 98.5356 229.357 98.7027L223.628 105.675C223.581 105.731 223.512 105.765 223.439 105.765H223.439C223.366 105.765 223.297 105.731 223.25 105.674L222.128 104.295C221.992 104.127 221.799 104.023 221.586 104.004C221.562 104 221.538 103.999 221.513 103.999Z" fill="#652EFF"/>
<path d="M53.4938 37.6212H60.498C62.9883 37.6212 65.0069 35.5539 65.0069 33.0036C65.0069 30.4537 62.9883 28.3865 60.498 28.3865H53.4938C51.0034 28.3865 48.9854 30.4537 48.9854 33.0036C48.9854 35.5539 51.0034 37.6212 53.4938 37.6212Z" fill="#652EFF"/>
<path d="M60.4983 37.8736H53.4942C50.8722 37.8736 48.7393 35.6887 48.7393 33.0041C48.7393 30.3189 50.8727 28.134 53.4942 28.134H60.4983C63.1203 28.134 65.2537 30.3189 65.2537 33.0041C65.2537 35.6892 63.1208 37.8736 60.4983 37.8736ZM53.4942 28.6389C51.1438 28.6389 49.2322 30.5971 49.2322 33.0041C49.2322 35.4111 51.1443 37.3688 53.4942 37.3688H60.4983C62.8487 37.3688 64.7608 35.4105 64.7608 33.0041C64.7608 30.5971 62.8487 28.6389 60.4983 28.6389H53.4942Z" fill="#652EFF"/>
<path d="M60.3613 33.8447C59.9088 33.8447 59.54 33.4676 59.54 33.0036C59.54 32.5397 59.9083 32.1626 60.3613 32.1626C60.8143 32.1626 61.1825 32.5397 61.1825 33.0036C61.1825 33.4676 60.8138 33.8447 60.3613 33.8447ZM60.3613 32.6679C60.1804 32.6679 60.033 32.8184 60.033 33.0041C60.033 33.1899 60.1799 33.3403 60.3613 33.3403C60.5427 33.3403 60.6896 33.1899 60.6896 33.0041C60.6896 32.8184 60.5422 32.6679 60.3613 32.6679Z" fill="white"/>
<path d="M53.6308 33.8445C53.1783 33.8445 52.8096 33.4674 52.8096 33.0035C52.8096 32.5396 53.1778 32.1625 53.6308 32.1625C54.0833 32.1625 54.4516 32.5396 54.4516 33.0035C54.4516 33.4674 54.0833 33.8445 53.6308 33.8445ZM53.6308 32.6678C53.4499 32.6678 53.3025 32.8182 53.3025 33.004C53.3025 33.1898 53.4494 33.3402 53.6308 33.3402C53.8117 33.3402 53.9586 33.1898 53.9586 33.004C53.9586 32.8182 53.8117 32.6678 53.6308 32.6678Z" fill="white"/>
<path d="M56.8681 33.8447C56.4156 33.8447 56.0469 33.4676 56.0469 33.0036C56.0469 32.5397 56.4151 32.1626 56.8681 32.1626C57.3211 32.1626 57.6894 32.5397 57.6894 33.0036C57.6894 33.4676 57.3211 33.8447 56.8681 33.8447ZM56.8681 32.6679C56.6872 32.6679 56.5398 32.8184 56.5398 33.0041C56.5398 33.1899 56.6867 33.3403 56.8681 33.3403C57.0495 33.3403 57.1964 33.1899 57.1964 33.0041C57.1964 32.8184 57.049 32.6679 56.8681 32.6679Z" fill="white"/>
<path opacity="0.45" d="M81.6945 256.27C81.7238 256.085 81.7954 255.909 81.9072 255.755C82.0918 255.498 82.3629 255.331 82.6702 255.284L85.3333 254.873C85.4026 253.377 85.7519 251.935 86.3729 250.579L84.2054 248.941C83.6888 248.551 83.5783 247.804 83.9602 247.275L85.2017 245.551C85.3859 245.295 85.6571 245.128 85.9644 245.08C86.2718 245.033 86.5788 245.111 86.829 245.3L88.9965 246.938C90.0778 245.93 91.3207 245.163 92.6952 244.653L92.2934 241.926C92.247 241.611 92.3228 241.297 92.5074 241.041C92.692 240.784 92.9631 240.617 93.2704 240.57L95.3381 240.25C95.9729 240.152 96.5672 240.601 96.6625 241.251L97.0644 243.978C98.5245 244.049 99.933 244.407 101.257 245.042L102.856 242.823C103.237 242.294 103.967 242.181 104.484 242.572L106.167 243.843C106.683 244.233 106.793 244.981 106.412 245.509L104.813 247.729C105.796 248.837 106.545 250.11 107.043 251.518L109.706 251.106C110.013 251.059 110.32 251.136 110.571 251.325C110.821 251.515 110.984 251.792 111.031 252.107L111.343 254.225C111.389 254.539 111.314 254.854 111.129 255.11C110.944 255.366 110.673 255.533 110.366 255.581L107.703 255.992C107.632 257.488 107.283 258.93 106.663 260.286L108.83 261.924C109.347 262.314 109.457 263.062 109.075 263.59L107.834 265.314C107.65 265.57 107.379 265.737 107.071 265.785C106.764 265.832 106.457 265.755 106.207 265.565L104.04 263.928C102.958 264.935 101.714 265.702 100.34 266.212L100.742 268.939C100.789 269.253 100.713 269.568 100.528 269.824C100.344 270.081 100.073 270.248 99.7653 270.295L97.6976 270.615C97.0628 270.713 96.4685 270.264 96.3732 269.614L95.9713 266.887C94.5116 266.816 93.1027 266.458 91.7787 265.823L90.1797 268.042C89.7991 268.571 89.0686 268.684 88.552 268.294L86.8694 267.023C86.3533 266.632 86.2424 265.885 86.624 265.356L88.2226 263.136C87.2398 262.029 86.4904 260.756 85.9923 259.347L83.33 259.759C82.6952 259.857 82.1009 259.408 82.0056 258.759L81.6935 256.641C81.6746 256.516 81.6753 256.391 81.6945 256.27ZM85.7032 255.072C85.6902 255.154 85.6264 255.219 85.5445 255.233L82.7271 255.668C82.5197 255.7 82.3367 255.813 82.2122 255.986C82.0879 256.159 82.0366 256.371 82.0674 256.583L82.3795 258.7C82.4443 259.139 82.8453 259.442 83.2727 259.375L86.0897 258.94C86.1798 258.926 86.2672 258.98 86.2973 259.068C86.794 260.536 87.5706 261.856 88.6059 262.99C88.6676 263.058 88.6748 263.163 88.6199 263.237L86.9279 265.586C86.6717 265.942 86.7455 266.447 87.0938 266.71L88.7763 267.981C89.1246 268.244 89.6173 268.168 89.8743 267.812L91.5663 265.463C91.62 265.388 91.7189 265.363 91.8014 265.404C93.1658 266.083 94.6259 266.454 96.1412 266.506C96.2325 266.509 96.3086 266.579 96.322 266.671L96.7471 269.556C96.8119 269.994 97.2129 270.297 97.6403 270.231L99.708 269.911C99.9154 269.88 100.098 269.767 100.223 269.594C100.347 269.421 100.398 269.209 100.368 268.997L99.9422 266.111C99.928 266.019 99.981 265.93 100.067 265.899C101.5 265.391 102.788 264.596 103.896 263.535C103.963 263.471 104.065 263.465 104.138 263.521L106.431 265.253C106.6 265.381 106.807 265.433 107.014 265.401C107.221 265.369 107.404 265.256 107.529 265.083L108.77 263.36C109.026 263.004 108.953 262.499 108.605 262.236L106.312 260.503C106.238 260.448 106.213 260.347 106.254 260.262C106.916 258.865 107.278 257.37 107.33 255.818C107.331 255.725 107.401 255.647 107.491 255.633L110.308 255.197C110.516 255.166 110.699 255.053 110.823 254.88C110.947 254.707 110.998 254.495 110.968 254.283L110.656 252.165C110.624 251.953 110.514 251.765 110.346 251.638C110.177 251.511 109.97 251.458 109.763 251.491L106.946 251.926C106.855 251.94 106.768 251.886 106.738 251.797C106.242 250.33 105.465 249.011 104.429 247.876C104.367 247.808 104.36 247.704 104.415 247.628L106.107 245.28C106.363 244.924 106.29 244.419 105.942 244.156L104.259 242.884C103.911 242.621 103.418 242.697 103.161 243.054L101.469 245.402C101.415 245.477 101.316 245.502 101.234 245.461C99.8698 244.783 98.4097 244.412 96.894 244.359C96.8028 244.356 96.7267 244.287 96.7133 244.194L96.2882 241.309C96.2234 240.871 95.8224 240.568 95.395 240.634L93.3273 240.954C93.1199 240.986 92.9369 241.099 92.8123 241.272C92.6877 241.445 92.6367 241.657 92.6676 241.869L93.0931 244.754C93.1068 244.846 93.0542 244.936 92.968 244.966C91.5353 245.475 90.2466 246.27 89.1391 247.33C89.0726 247.394 88.971 247.4 88.8973 247.345L86.6039 245.612C86.4353 245.485 86.2283 245.432 86.0209 245.464C85.8139 245.496 85.6309 245.609 85.5063 245.782L84.2648 247.505C84.0086 247.862 84.0821 248.366 84.4303 248.629L86.7237 250.362C86.797 250.418 86.8217 250.519 86.7814 250.603C86.1193 252 85.757 253.495 85.7055 255.048C85.7054 255.055 85.7045 255.063 85.7032 255.072ZM90.7502 254.462C90.8944 253.554 91.2451 252.668 91.8139 251.878C93.7275 249.222 97.3945 248.656 99.9881 250.615C102.582 252.575 103.135 256.331 101.221 258.987C99.3079 261.643 95.6409 262.209 93.0472 260.25C91.2245 258.872 90.4094 256.608 90.7502 254.462ZM92.1186 252.108C90.3294 254.593 90.8469 258.105 93.2723 259.937C95.6977 261.77 99.1273 261.24 100.917 258.756C102.706 256.272 102.189 252.76 99.7635 250.927C97.3377 249.095 93.9088 249.625 92.1186 252.108Z" fill="#652EFF"/>
<path opacity="0.45" d="M169.48 245.937C169.496 245.839 169.534 245.745 169.593 245.663C169.692 245.526 169.837 245.437 170.001 245.411L171.422 245.192C171.459 244.394 171.645 243.624 171.977 242.901L170.82 242.027C170.544 241.818 170.485 241.42 170.689 241.137L171.352 240.218C171.45 240.081 171.594 239.992 171.759 239.966C171.923 239.941 172.086 239.982 172.22 240.083L173.377 240.957C173.954 240.42 174.617 240.01 175.35 239.739L175.136 238.283C175.111 238.115 175.152 237.947 175.25 237.811C175.349 237.674 175.493 237.585 175.657 237.559L176.761 237.389C177.099 237.337 177.417 237.576 177.467 237.923L177.682 239.378C178.461 239.416 179.213 239.607 179.919 239.946L180.772 238.762C180.976 238.48 181.366 238.419 181.641 238.628L182.539 239.306C182.815 239.514 182.873 239.913 182.67 240.195L181.817 241.38C182.341 241.971 182.741 242.65 183.007 243.401L184.428 243.182C184.592 243.156 184.756 243.198 184.889 243.299C185.023 243.4 185.11 243.548 185.135 243.716L185.301 244.846C185.326 245.014 185.286 245.182 185.187 245.318C185.088 245.455 184.944 245.544 184.78 245.57L183.359 245.789C183.321 246.587 183.135 247.357 182.804 248.08L183.961 248.954C184.236 249.163 184.295 249.562 184.091 249.844L183.429 250.764C183.331 250.9 183.186 250.99 183.022 251.015C182.858 251.04 182.694 250.999 182.56 250.898L181.404 250.024C180.827 250.561 180.163 250.971 179.43 251.243L179.644 252.698C179.669 252.866 179.629 253.034 179.53 253.171C179.432 253.307 179.287 253.397 179.123 253.422L178.02 253.592C177.681 253.645 177.364 253.405 177.313 253.058L177.099 251.603C176.32 251.565 175.568 251.374 174.861 251.035L174.008 252.22C173.805 252.502 173.415 252.562 173.139 252.354L172.241 251.675C171.966 251.467 171.907 251.068 172.11 250.786L172.964 249.601C172.439 249.011 172.039 248.331 171.773 247.58L170.353 247.799C170.014 247.852 169.697 247.612 169.646 247.265L169.479 246.135C169.469 246.069 169.47 246.002 169.48 245.937ZM171.619 245.298C171.612 245.342 171.578 245.377 171.534 245.384L170.031 245.616C169.92 245.633 169.823 245.694 169.756 245.786C169.69 245.878 169.662 245.991 169.679 246.105L169.845 247.235C169.88 247.468 170.094 247.63 170.322 247.595L171.825 247.362C171.873 247.355 171.92 247.384 171.936 247.431C172.201 248.214 172.616 248.918 173.168 249.523C173.201 249.56 173.205 249.616 173.176 249.655L172.273 250.909C172.136 251.099 172.175 251.368 172.361 251.509L173.259 252.187C173.445 252.327 173.708 252.287 173.845 252.097L174.748 250.843C174.777 250.803 174.829 250.79 174.873 250.812C175.601 251.174 176.381 251.372 177.189 251.4C177.238 251.402 177.279 251.439 177.286 251.488L177.513 253.028C177.547 253.261 177.761 253.423 177.989 253.388L179.093 253.217C179.203 253.2 179.301 253.14 179.367 253.048C179.434 252.955 179.461 252.842 179.445 252.729L179.218 251.189C179.21 251.14 179.238 251.092 179.284 251.076C180.049 250.805 180.736 250.38 181.328 249.814C181.363 249.78 181.417 249.777 181.457 249.807L182.68 250.731C182.77 250.799 182.881 250.827 182.991 250.81C183.102 250.793 183.2 250.733 183.266 250.641L183.929 249.721C184.065 249.531 184.026 249.262 183.84 249.121L182.616 248.196C182.577 248.167 182.564 248.113 182.586 248.068C182.939 247.322 183.132 246.524 183.16 245.696C183.16 245.647 183.198 245.605 183.246 245.598L184.749 245.365C184.86 245.348 184.958 245.288 185.024 245.196C185.09 245.103 185.117 244.99 185.101 244.877L184.935 243.747C184.918 243.634 184.859 243.534 184.769 243.466C184.679 243.398 184.569 243.37 184.458 243.387L182.955 243.619C182.907 243.627 182.86 243.598 182.844 243.551C182.579 242.768 182.164 242.064 181.612 241.458C181.579 241.422 181.575 241.367 181.605 241.326L182.507 240.073C182.644 239.883 182.605 239.613 182.419 239.473L181.521 238.794C181.335 238.654 181.072 238.695 180.935 238.885L180.032 240.138C180.004 240.178 179.951 240.192 179.907 240.17C179.179 239.807 178.4 239.61 177.591 239.582C177.542 239.58 177.502 239.543 177.494 239.494L177.268 237.954C177.233 237.72 177.019 237.558 176.791 237.594L175.688 237.764C175.577 237.781 175.479 237.842 175.413 237.934C175.346 238.026 175.319 238.14 175.336 238.252L175.563 239.792C175.57 239.841 175.542 239.889 175.496 239.905C174.731 240.177 174.044 240.601 173.453 241.167C173.417 241.201 173.363 241.204 173.324 241.175L172.1 240.25C172.01 240.182 171.899 240.154 171.789 240.171C171.678 240.188 171.581 240.249 171.514 240.341L170.852 241.26C170.715 241.451 170.754 241.72 170.94 241.86L172.164 242.785C172.203 242.815 172.216 242.868 172.194 242.913C171.841 243.659 171.648 244.457 171.62 245.285C171.62 245.289 171.62 245.294 171.619 245.298ZM174.312 244.973C174.389 244.488 174.576 244.015 174.88 243.594C175.901 242.177 177.858 241.874 179.242 242.92C180.626 243.966 180.922 245.97 179.9 247.387C178.879 248.805 176.922 249.107 175.538 248.061C174.565 247.326 174.13 246.118 174.312 244.973ZM175.043 243.717C174.088 245.042 174.364 246.917 175.658 247.894C176.953 248.872 178.783 248.59 179.738 247.264C180.692 245.939 180.416 244.064 179.122 243.086C177.828 242.109 175.998 242.392 175.043 243.717Z" fill="#652EFF"/>
<path opacity="0.45" d="M195.845 228.478C195.898 228.146 196.156 227.872 196.498 227.821L197.876 227.615C197.929 226.84 198.114 226.093 198.427 225.387L197.31 224.534C197.144 224.407 197.036 224.222 197.007 224.013C196.977 223.804 197.028 223.594 197.153 223.425L197.847 222.47C198.102 222.12 198.588 222.048 198.93 222.309L200.047 223.162C200.618 222.652 201.265 222.257 201.975 221.985L201.774 220.573C201.743 220.365 201.795 220.155 201.919 219.985C202.043 219.815 202.223 219.705 202.428 219.675L203.578 219.503C204 219.44 204.394 219.741 204.456 220.173L204.656 221.585C205.412 221.638 206.142 221.828 206.832 222.149L207.665 221.005C207.789 220.835 207.969 220.725 208.174 220.695C208.379 220.664 208.583 220.717 208.748 220.843L209.68 221.555C209.846 221.682 209.954 221.867 209.983 222.076C210.013 222.286 209.961 222.494 209.837 222.664L209.005 223.808C209.502 224.393 209.888 225.056 210.154 225.782L211.532 225.577C211.736 225.546 211.94 225.599 212.107 225.726C212.272 225.852 212.38 226.037 212.409 226.247L212.577 227.424C212.639 227.857 212.345 228.26 211.923 228.323L210.545 228.529C210.492 229.303 210.307 230.051 209.993 230.757L211.11 231.61C211.276 231.736 211.384 231.922 211.414 232.131C211.443 232.34 211.392 232.549 211.268 232.718L210.573 233.673C210.45 233.842 210.269 233.953 210.065 233.983C209.86 234.014 209.656 233.961 209.491 233.834L208.374 232.981C207.802 233.491 207.155 233.887 206.445 234.158L206.646 235.57C206.676 235.78 206.625 235.988 206.501 236.158C206.377 236.328 206.197 236.438 205.992 236.468L204.842 236.64C204.42 236.702 204.026 236.402 203.965 235.97L203.764 234.558C203.008 234.504 202.278 234.315 201.588 233.994L200.755 235.138C200.632 235.307 200.451 235.418 200.246 235.448C200.041 235.479 199.838 235.426 199.672 235.299L198.74 234.588C198.574 234.461 198.467 234.276 198.437 234.066C198.407 233.856 198.459 233.648 198.583 233.478L199.415 232.334C198.918 231.749 198.532 231.087 198.267 230.36L196.888 230.566C196.683 230.596 196.48 230.543 196.314 230.417C196.148 230.29 196.04 230.105 196.011 229.896L195.843 228.718C195.832 228.637 195.833 228.556 195.845 228.478ZM198.327 227.861C198.311 227.962 198.232 228.042 198.131 228.057L196.564 228.291C196.396 228.316 196.279 228.478 196.303 228.65L196.47 229.827C196.482 229.911 196.525 229.985 196.591 230.036C196.658 230.086 196.739 230.107 196.821 230.095L198.388 229.861C198.498 229.845 198.605 229.912 198.641 230.02C198.907 230.819 199.327 231.54 199.886 232.159C199.962 232.243 199.969 232.371 199.902 232.463L198.956 233.763C198.907 233.831 198.886 233.914 198.897 233.998C198.909 234.081 198.952 234.155 199.018 234.206L199.95 234.917C200.017 234.968 200.098 234.989 200.18 234.977C200.262 234.964 200.334 234.92 200.383 234.853L201.33 233.553C201.397 233.461 201.518 233.431 201.618 233.481C202.359 233.854 203.152 234.06 203.976 234.093C204.087 234.097 204.181 234.183 204.196 234.297L204.425 235.901C204.449 236.074 204.607 236.194 204.776 236.169L205.926 235.997C206.007 235.985 206.08 235.941 206.129 235.873C206.178 235.805 206.198 235.722 206.187 235.638L205.959 234.033C205.944 233.921 206.008 233.811 206.114 233.774C206.894 233.502 207.597 233.073 208.203 232.499C208.285 232.421 208.41 232.414 208.499 232.483L209.769 233.452C209.835 233.503 209.916 233.524 209.998 233.512C210.08 233.499 210.152 233.455 210.202 233.388L210.896 232.433C210.946 232.365 210.966 232.282 210.954 232.198C210.942 232.115 210.899 232.041 210.833 231.99L209.564 231.021C209.474 230.953 209.445 230.828 209.494 230.725C209.859 229.967 210.059 229.154 210.091 228.311C210.094 228.196 210.179 228.101 210.29 228.085L211.857 227.851C212.026 227.826 212.142 227.664 212.119 227.492L211.951 226.315C211.939 226.231 211.896 226.157 211.83 226.106C211.764 226.055 211.682 226.034 211.601 226.047L210.034 226.28C209.923 226.297 209.816 226.23 209.78 226.122C209.514 225.322 209.095 224.602 208.535 223.982C208.459 223.898 208.453 223.771 208.519 223.679L209.466 222.379C209.515 222.311 209.536 222.228 209.524 222.144C209.512 222.06 209.469 221.986 209.403 221.936L208.471 221.224C208.405 221.174 208.323 221.152 208.242 221.165C208.16 221.177 208.087 221.221 208.038 221.289L207.092 222.589C207.025 222.681 206.904 222.711 206.803 222.661C206.063 222.288 205.27 222.082 204.445 222.049C204.334 222.045 204.241 221.959 204.225 221.846L203.997 220.241C203.972 220.068 203.815 219.948 203.646 219.973L202.496 220.145C202.414 220.157 202.342 220.201 202.292 220.269C202.243 220.336 202.223 220.42 202.234 220.504L202.462 222.108C202.478 222.223 202.413 222.331 202.308 222.368C201.527 222.64 200.824 223.069 200.218 223.643C200.137 223.721 200.012 223.727 199.922 223.659L198.653 222.69C198.516 222.586 198.321 222.614 198.22 222.754L197.526 223.708C197.424 223.848 197.452 224.047 197.588 224.151L198.858 225.121C198.948 225.189 198.977 225.313 198.928 225.416C198.564 226.174 198.363 226.986 198.33 227.83C198.33 227.841 198.329 227.851 198.327 227.861ZM200.878 227.512C200.964 226.972 201.175 226.457 201.505 226.005C202.043 225.265 202.831 224.784 203.724 224.651C204.616 224.517 205.505 224.748 206.228 225.3C206.951 225.852 207.42 226.659 207.55 227.573C207.68 228.487 207.455 229.397 206.916 230.138C206.377 230.878 205.589 231.359 204.697 231.492C203.805 231.626 202.916 231.395 202.193 230.843C201.47 230.291 201.001 229.484 200.87 228.57C200.82 228.214 200.823 227.858 200.878 227.512ZM207.082 228.555C207.251 227.491 206.851 226.369 205.95 225.682C205.327 225.206 204.56 225.007 203.791 225.122C203.021 225.237 202.342 225.652 201.877 226.29C201.413 226.928 201.218 227.713 201.33 228.501C201.442 229.289 201.848 229.985 202.471 230.461C203.094 230.937 203.861 231.136 204.63 231.021C205.399 230.906 206.079 230.491 206.544 229.853C206.832 229.458 207.009 229.012 207.082 228.555Z" fill="#652EFF"/>
<path d="M171.136 217.426C171.136 198.54 155.171 183.474 136.309 185.61C122.159 187.212 110.677 198.742 108.871 213.204C107.306 225.738 112.827 237.078 121.891 243.614C124.384 245.412 125.787 248.41 125.787 251.533V265.197H153.956V251.501C153.956 248.359 155.411 245.383 157.915 243.567C165.913 237.77 171.136 228.225 171.136 217.426Z" fill="url(#paint0_linear_71_254)"/>
<path d="M153.956 265.695H125.787C125.518 265.695 125.3 265.472 125.3 265.197V251.533C125.3 248.496 123.92 245.687 121.61 244.022C111.945 237.052 106.879 225.22 108.386 213.141C110.213 198.524 121.932 186.737 136.254 185.115C145.424 184.075 154.231 186.946 161.044 193.196C167.767 199.361 171.622 208.193 171.622 217.427C171.622 227.957 166.603 237.88 158.196 243.976C155.845 245.679 154.442 248.493 154.442 251.502V265.198C154.443 265.473 154.225 265.695 153.956 265.695ZM126.274 264.698H153.469V251.501C153.469 248.169 155.026 245.051 157.634 243.16C165.784 237.252 170.649 227.632 170.649 217.426C170.649 208.475 166.912 199.914 160.396 193.938C153.79 187.881 145.25 185.098 136.362 186.105C122.482 187.676 111.122 199.099 109.354 213.266C107.891 224.977 112.802 236.449 122.172 243.205C124.74 245.057 126.274 248.171 126.274 251.532V264.698Z" fill="#652EFF"/>
<path d="M136.574 257.186C136.305 257.186 136.087 256.963 136.087 256.687V236.204H132.645C130.519 236.204 128.79 234.434 128.79 232.257C128.79 230.079 130.519 228.309 132.645 228.309H133.206C135.332 228.309 137.061 230.079 137.061 232.257V235.207H142.608C142.877 235.207 143.095 235.43 143.095 235.706C143.095 235.981 142.877 236.204 142.608 236.204H137.061V256.687C137.061 256.963 136.843 257.186 136.574 257.186ZM132.645 229.306C131.056 229.306 129.764 230.63 129.764 232.257C129.764 233.883 131.056 235.207 132.645 235.207H136.087V232.257C136.087 230.63 134.795 229.306 133.206 229.306H132.645Z" fill="#652EFF"/>
<path d="M143.168 257.186C142.899 257.186 142.681 256.963 142.681 256.687V236.204H137.134C136.866 236.204 136.647 235.981 136.647 235.706C136.647 235.43 136.866 235.207 137.134 235.207H142.681V232.257C142.681 230.079 144.41 228.309 146.536 228.309H147.098C149.223 228.309 150.953 230.079 150.953 232.257C150.953 234.433 149.224 236.204 147.098 236.204H143.656V256.687C143.655 256.963 143.438 257.186 143.168 257.186ZM143.655 235.207H147.097C148.686 235.207 149.978 233.883 149.978 232.257C149.978 230.63 148.686 229.306 147.097 229.306H146.535C144.947 229.306 143.654 230.63 143.654 232.257L143.655 235.207Z" fill="#652EFF"/>
<path d="M139.871 279.501C144.357 279.501 147.993 275.777 147.993 271.183C147.993 266.59 144.357 262.866 139.871 262.866C135.385 262.866 131.749 266.59 131.749 271.183C131.749 275.777 135.385 279.501 139.871 279.501Z" fill="white"/>
<path d="M139.872 280C135.125 280 131.263 276.045 131.263 271.183C131.263 266.323 135.125 262.368 139.872 262.368C144.619 262.368 148.48 266.323 148.48 271.183C148.48 276.045 144.618 280 139.872 280ZM139.872 263.365C135.662 263.365 132.237 266.872 132.237 271.183C132.237 275.494 135.662 279.003 139.872 279.003C144.081 279.003 147.506 275.494 147.506 271.183C147.506 266.872 144.081 263.365 139.872 263.365Z" fill="#652EFF"/>
<path d="M153.816 265.075H125.929C123.944 265.075 122.336 263.427 122.336 261.394C122.336 259.363 123.945 257.715 125.929 257.715H153.816C155.801 257.715 157.409 259.363 157.409 261.394C157.409 263.427 155.8 265.075 153.816 265.075Z" fill="white"/>
<path d="M153.815 265.574H125.928C123.678 265.574 121.848 263.699 121.848 261.394C121.848 259.09 123.678 257.216 125.928 257.216H153.815C156.064 257.216 157.895 259.09 157.895 261.394C157.895 263.699 156.064 265.574 153.815 265.574ZM125.927 258.213C124.213 258.213 122.821 259.64 122.821 261.393C122.821 263.147 124.214 264.575 125.927 264.575H153.814C155.527 264.575 156.92 263.147 156.92 261.393C156.92 259.64 155.526 258.213 153.814 258.213H125.927Z" fill="#652EFF"/>
<path d="M151.305 271.111H128.437C126.81 271.111 125.491 269.76 125.491 268.093C125.491 266.427 126.81 265.076 128.437 265.076H151.305C152.932 265.076 154.252 266.427 154.252 268.093C154.252 269.759 152.933 271.111 151.305 271.111Z" fill="white"/>
<path d="M151.305 271.609H128.437C126.544 271.609 125.004 270.032 125.004 268.093C125.004 266.154 126.545 264.577 128.437 264.577H151.305C153.199 264.577 154.738 266.154 154.738 268.093C154.738 270.032 153.199 271.609 151.305 271.609ZM128.437 265.574C127.08 265.574 125.978 266.704 125.978 268.092C125.978 269.481 127.081 270.611 128.437 270.611H151.305C152.662 270.611 153.764 269.481 153.764 268.092C153.764 266.704 152.661 265.574 151.305 265.574H128.437Z" fill="#652EFF"/>
<path d="M121.529 184.505C121.414 184.505 121.3 184.465 121.207 184.381L114.525 178.35C114.324 178.168 114.304 177.852 114.482 177.646C114.661 177.438 114.968 177.42 115.17 177.602L121.851 183.633C122.053 183.815 122.073 184.13 121.894 184.337C121.799 184.449 121.663 184.505 121.529 184.505Z" fill="#652EFF"/>
<path d="M155.436 185.671C155.337 185.671 155.237 185.64 155.151 185.577C154.933 185.415 154.884 185.104 155.041 184.88L160.254 177.484C160.411 177.261 160.714 177.21 160.934 177.371C161.152 177.533 161.201 177.844 161.044 178.068L155.831 185.464C155.736 185.599 155.586 185.671 155.436 185.671Z" fill="#652EFF"/>
<path d="M138.385 182.66C138.13 182.66 137.916 182.456 137.899 182.192L137.338 173.089C137.32 172.815 137.525 172.578 137.794 172.561C138.038 172.549 138.293 172.751 138.31 173.027L138.871 182.13C138.889 182.405 138.684 182.642 138.415 182.659C138.406 182.659 138.396 182.66 138.385 182.66Z" fill="#652EFF"/>
<path d="M48.5065 147.017C47.8159 147.017 47.1653 146.743 46.6754 146.245C46.1816 145.745 45.9089 145.076 45.906 144.365L45.7901 114.507C45.7871 113.796 46.055 113.126 46.5439 112.621C47.0338 112.116 47.6854 111.836 48.3808 111.833L77.197 111.715C77.2009 111.715 77.2047 111.715 77.2077 111.715C77.8982 111.715 78.5488 111.99 79.0387 112.487C79.5326 112.988 79.8052 113.656 79.8082 114.368L79.9241 144.225C79.929 145.695 78.767 146.894 77.3333 146.9L48.5172 147.016C48.5123 147.017 48.5094 147.017 48.5065 147.017ZM77.2067 112.713C77.2047 112.713 77.2018 112.713 77.1999 112.713L48.3838 112.83C47.9494 112.831 47.5413 113.007 47.2345 113.323C46.9287 113.639 46.7611 114.058 46.7631 114.503L46.879 144.361C46.8809 144.806 47.0523 145.224 47.3601 145.537C47.6669 145.849 48.0799 146.012 48.5123 146.02L77.3284 145.903C78.2254 145.899 78.952 145.149 78.9491 144.229L78.8332 114.373C78.8313 113.928 78.6599 113.51 78.3521 113.197C78.0462 112.884 77.6391 112.713 77.2067 112.713Z" fill="#652EFF"/>
<path d="M69.389 126.977H65.1883V122.675C65.1883 122.023 64.6721 121.493 64.0341 121.493H61.6781C61.0401 121.493 60.5229 122.022 60.5229 122.675V126.977H56.3221C55.6851 126.977 55.168 127.507 55.168 128.159V130.572C55.168 131.224 55.6842 131.754 56.3221 131.754H60.5229V136.056C60.5229 136.709 61.0391 137.238 61.6781 137.238H64.0341C64.6711 137.238 65.1883 136.709 65.1883 136.056V131.754H69.389C70.026 131.754 70.5441 131.225 70.5441 130.572V128.159C70.5441 127.507 70.026 126.977 69.389 126.977Z" fill="white"/>
<path d="M64.0347 137.737H61.6787C60.7729 137.737 60.0366 136.983 60.0366 136.056V132.253H56.3228C55.418 132.253 54.6816 131.499 54.6816 130.572V128.159C54.6816 127.233 55.418 126.479 56.3228 126.479H60.0366V122.675C60.0366 121.749 60.7729 120.995 61.6787 120.995H64.0347C64.9395 120.995 65.6759 121.749 65.6759 122.675V126.479H69.3896C70.2954 126.479 71.0318 127.233 71.0318 128.159V130.572C71.0318 131.499 70.2954 132.253 69.3896 132.253H65.6759V136.056C65.6759 136.983 64.9395 137.737 64.0347 137.737ZM56.3237 127.476C55.9556 127.476 55.6566 127.782 55.6566 128.159V130.572C55.6566 130.948 55.9556 131.255 56.3237 131.255H60.5245C60.7933 131.255 61.0115 131.479 61.0115 131.754V136.056C61.0115 136.433 61.3115 136.74 61.6797 136.74H64.0357C64.4039 136.74 64.7029 136.433 64.7029 136.056V131.754C64.7029 131.479 64.9211 131.255 65.1899 131.255H69.3906C69.7588 131.255 70.0588 130.949 70.0588 130.572V128.159C70.0588 127.782 69.7588 127.476 69.3906 127.476H65.1899C64.9211 127.476 64.7029 127.253 64.7029 126.977V122.675C64.7029 122.299 64.4039 121.992 64.0357 121.992H61.6797C61.3115 121.992 61.0115 122.298 61.0115 122.675V126.977C61.0115 127.253 60.7933 127.476 60.5245 127.476H56.3237Z" fill="#652EFF"/>
<path d="M184.082 12.9552C183.986 12.9552 183.899 12.9013 183.853 12.816L182.955 11.1239L181.308 10.1952C181.224 10.1483 181.172 10.0586 181.173 9.96103C181.173 9.86341 181.225 9.77379 181.309 9.72738L182.962 8.80773L183.868 7.12046C183.914 7.03511 184.001 6.9823 184.096 6.9823H184.097C184.192 6.9823 184.28 7.03618 184.325 7.12153L185.222 8.8136L186.87 9.74178C186.953 9.78873 187.005 9.87834 187.005 9.97596C187.005 10.0736 186.952 10.1632 186.868 10.2096L185.216 11.1293L184.31 12.8165C184.264 12.9024 184.177 12.9552 184.082 12.9552ZM181.976 9.96316L183.273 10.6945C183.317 10.719 183.352 10.7559 183.376 10.8007L184.083 12.1327L184.796 10.8044C184.821 10.7601 184.856 10.7233 184.9 10.6988L186.201 9.9749L184.904 9.24408C184.86 9.21955 184.825 9.18274 184.801 9.13793L184.094 7.8054L183.381 9.13366C183.356 9.17794 183.32 9.21474 183.277 9.23928L181.976 9.96316Z" fill="#652EFF"/>
<path opacity="0.45" d="M28.246 161.576C28.1497 161.576 28.0627 161.523 28.0174 161.437L27.1194 159.745L25.4718 158.816C25.3885 158.769 25.3364 158.68 25.3369 158.582C25.3374 158.485 25.3895 158.395 25.4734 158.349L27.1256 157.429L28.0319 155.742C28.0778 155.656 28.1653 155.604 28.2601 155.604C28.3559 155.604 28.4434 155.657 28.4888 155.743L29.3868 157.435L31.0343 158.364C31.1177 158.41 31.1692 158.5 31.1692 158.598C31.1692 158.695 31.1166 158.785 31.0328 158.831L29.3805 159.751L28.4742 161.438C28.4283 161.524 28.3413 161.576 28.246 161.576ZM26.1401 158.584L27.4371 159.316C27.4809 159.34 27.5163 159.377 27.5402 159.422L28.2471 160.754L28.9607 159.426C28.9852 159.381 29.0206 159.345 29.0649 159.32L30.3655 158.596L29.0685 157.865C29.0247 157.841 28.9893 157.804 28.9654 157.759L28.2585 156.427L27.5449 157.755C27.5204 157.799 27.4845 157.836 27.4407 157.86L26.1401 158.584Z" fill="#652EFF"/>
<path opacity="0.45" d="M189.926 220.426H189.925C189.83 220.426 189.742 220.372 189.697 220.287L188.799 218.595L187.152 217.666C187.068 217.619 187.017 217.529 187.017 217.432C187.017 217.334 187.069 217.245 187.153 217.198L188.805 216.279L189.712 214.592C189.757 214.506 189.845 214.454 189.94 214.454H189.94C190.036 214.454 190.123 214.507 190.168 214.593L191.066 216.285L192.714 217.214C192.797 217.261 192.849 217.35 192.849 217.448C192.849 217.545 192.796 217.635 192.713 217.681L191.061 218.601L190.154 220.288C190.108 220.373 190.021 220.426 189.926 220.426ZM187.82 217.434L189.117 218.165C189.16 218.19 189.196 218.227 189.22 218.271L189.927 219.603L190.641 218.275C190.665 218.231 190.701 218.194 190.745 218.17L192.046 217.446L190.749 216.715C190.705 216.69 190.67 216.654 190.646 216.609L189.939 215.276L189.225 216.604C189.201 216.649 189.165 216.686 189.121 216.71L187.82 217.434Z" fill="#652EFF"/>
<path d="M95.7543 184.152C95.6579 184.152 95.5704 184.098 95.5256 184.013L94.1765 181.47L91.7013 180.075C91.618 180.028 91.5664 179.939 91.5664 179.841C91.5664 179.743 91.619 179.654 91.7023 179.607L94.1854 178.226L95.5475 175.691C95.5933 175.606 95.6808 175.553 95.7756 175.553H95.7762C95.872 175.553 95.959 175.607 96.0043 175.692L97.3534 178.235L99.8292 179.63C99.9125 179.677 99.9646 179.767 99.9641 179.865C99.9635 179.962 99.9114 180.052 99.8276 180.098L97.3446 181.48L95.9825 184.015C95.9371 184.099 95.8496 184.152 95.7543 184.152ZM92.3696 179.843L94.4943 181.04C94.5381 181.065 94.5735 181.102 94.5974 181.146L95.7559 183.329L96.9253 181.153C96.9497 181.109 96.9857 181.072 97.0294 181.047L99.1609 179.861L97.0357 178.663C96.9919 178.638 96.9565 178.601 96.9325 178.557L95.7741 176.374L94.6047 178.55C94.5802 178.594 94.5448 178.631 94.5011 178.656L92.3696 179.843Z" fill="#652EFF"/>
<path opacity="0.45" d="M68.4838 214.076C68.365 214.085 68.3004 214.023 68.2551 213.937L66.906 211.394L64.4308 209.999C64.3475 209.952 64.2959 209.862 64.2959 209.765C64.2959 209.667 64.3485 209.577 64.4318 209.531L66.9149 208.149L68.2775 205.614C68.3234 205.529 68.3999 205.486 68.5062 205.476C68.6015 205.476 68.689 205.53 68.7343 205.616L70.0834 208.158L72.5586 209.554C72.642 209.601 72.6936 209.691 72.6936 209.788C72.6936 209.885 72.6409 209.975 72.5576 210.022L70.0746 211.403L68.7119 213.938C68.6661 214.024 68.5786 214.076 68.4838 214.076ZM65.0986 209.767L67.2238 210.965C67.267 210.989 67.3029 211.026 67.3269 211.071L68.4854 213.254L69.6547 211.077C69.6787 211.033 69.7146 210.996 69.7584 210.972L71.8898 209.786L69.7646 208.588C69.7214 208.563 69.6855 208.527 69.6615 208.482L68.5036 206.299L67.3337 208.475C67.3097 208.52 67.2738 208.556 67.23 208.581L65.0986 209.767Z" fill="#652EFF"/>
<path opacity="0.45" d="M60.3945 253.361C60.3175 253.357 60.2112 253.307 60.1659 253.222L59.2647 251.524L57.6115 250.592C57.5281 250.545 57.4766 250.455 57.4766 250.358C57.4766 250.26 57.5292 250.17 57.6125 250.124L59.271 249.201L60.181 247.508C60.2268 247.423 60.3143 247.37 60.4091 247.37C60.5044 247.37 60.5925 247.424 60.6378 247.509L61.5389 249.207L63.1922 250.139C63.2755 250.186 63.3271 250.276 63.3271 250.374C63.3271 250.471 63.2745 250.561 63.1912 250.607L61.5327 251.53L60.6227 253.223C60.5769 253.309 60.4893 253.361 60.3945 253.361ZM58.2792 250.359L59.5825 251.094C59.6257 251.118 59.6617 251.155 59.6856 251.2L60.3956 252.538L61.1128 251.204C61.1368 251.159 61.1727 251.122 61.2165 251.098L62.5234 250.371L61.2201 249.636C61.1769 249.612 61.141 249.575 61.117 249.53L60.407 248.192L59.6898 249.526C59.6658 249.571 59.6299 249.608 59.5861 249.632L58.2792 250.359Z" fill="#652EFF"/>
<g opacity="0.45">
<path d="M233.037 247.576C232.893 247.576 232.776 247.456 232.776 247.309V245.642C232.776 245.495 232.893 245.375 233.037 245.375C233.181 245.375 233.298 245.495 233.298 245.642V247.309C233.298 247.456 233.182 247.576 233.037 247.576Z" fill="#652EFF"/>
<path d="M233.037 251.857C232.893 251.857 232.776 251.738 232.776 251.591V249.924C232.776 249.776 232.893 249.657 233.037 249.657C233.181 249.657 233.298 249.776 233.298 249.924V251.591C233.298 251.738 233.182 251.857 233.037 251.857Z" fill="#652EFF"/>
<path d="M235.942 248.882H234.314C234.17 248.882 234.054 248.763 234.054 248.616C234.054 248.468 234.17 248.349 234.314 248.349H235.942C236.086 248.349 236.203 248.468 236.203 248.616C236.203 248.763 236.087 248.882 235.942 248.882Z" fill="#652EFF"/>
<path d="M231.761 248.882H230.133C229.989 248.882 229.872 248.763 229.872 248.615C229.872 248.468 229.989 248.349 230.133 248.349H231.761C231.905 248.349 232.021 248.468 232.021 248.615C232.021 248.763 231.905 248.882 231.761 248.882Z" fill="#652EFF"/>
<path d="M230.984 250.986C230.918 250.986 230.851 250.96 230.8 250.908C230.698 250.804 230.698 250.635 230.8 250.531L231.951 249.352C232.053 249.248 232.218 249.248 232.319 249.352C232.421 249.456 232.421 249.625 232.319 249.729L231.168 250.908C231.118 250.96 231.051 250.986 230.984 250.986Z" fill="#652EFF"/>
<path d="M233.939 247.959C233.873 247.959 233.806 247.932 233.755 247.881C233.653 247.777 233.653 247.608 233.755 247.504L234.906 246.325C235.008 246.221 235.173 246.221 235.274 246.325C235.376 246.429 235.376 246.598 235.274 246.702L234.123 247.881C234.072 247.933 234.006 247.959 233.939 247.959Z" fill="#652EFF"/>
<path d="M232.135 247.959C232.069 247.959 232.002 247.933 231.951 247.881L230.8 246.702C230.698 246.598 230.698 246.429 230.8 246.325C230.901 246.221 231.066 246.221 231.168 246.325L232.319 247.504C232.421 247.608 232.421 247.777 232.319 247.881C232.269 247.933 232.202 247.959 232.135 247.959Z" fill="#652EFF"/>
<path d="M235.09 250.986C235.024 250.986 234.957 250.96 234.906 250.908L233.755 249.729C233.653 249.625 233.653 249.456 233.755 249.352C233.856 249.248 234.022 249.248 234.123 249.352L235.274 250.531C235.376 250.635 235.376 250.804 235.274 250.908C235.223 250.96 235.157 250.986 235.09 250.986Z" fill="#652EFF"/>
</g>
<g opacity="0.45">
<path d="M94.1603 224.865C94.0163 224.865 93.8994 224.746 93.8994 224.599V222.699C93.8994 222.552 94.0163 222.433 94.1603 222.433C94.3042 222.433 94.4211 222.552 94.4211 222.699V224.599C94.4211 224.746 94.3042 224.865 94.1603 224.865Z" fill="#652EFF"/>
<path d="M94.1603 229.742C94.0163 229.742 93.8994 229.622 93.8994 229.475V227.576C93.8994 227.429 94.0163 227.309 94.1603 227.309C94.3042 227.309 94.4211 227.429 94.4211 227.576V229.475C94.4211 229.622 94.3042 229.742 94.1603 229.742Z" fill="#652EFF"/>
<path d="M92.7061 226.354H90.8522C90.7085 226.354 90.5918 226.235 90.5918 226.087C90.5918 225.94 90.7085 225.821 90.8522 225.821H92.7061C92.8498 225.821 92.9665 225.94 92.9665 226.087C92.9665 226.235 92.8498 226.354 92.7061 226.354Z" fill="#652EFF"/>
<path d="M97.4688 226.354H95.6149C95.4712 226.354 95.3545 226.235 95.3545 226.088C95.3545 225.941 95.4712 225.821 95.6149 225.821H97.4688C97.6125 225.821 97.7292 225.941 97.7292 226.088C97.7292 226.235 97.6125 226.354 97.4688 226.354Z" fill="#652EFF"/>
<path d="M96.5003 228.75C96.4337 228.75 96.367 228.724 96.3159 228.672L95.0049 227.329C94.9033 227.225 94.9033 227.056 95.0049 226.952C95.1065 226.848 95.2716 226.848 95.3732 226.952L96.6842 228.295C96.7858 228.399 96.7858 228.568 96.6842 228.672C96.6337 228.724 96.567 228.75 96.5003 228.75Z" fill="#652EFF"/>
<path d="M93.1322 225.302C93.0655 225.302 92.9988 225.276 92.9478 225.224L91.6367 223.881C91.5352 223.777 91.5352 223.608 91.6367 223.504C91.7383 223.4 91.9034 223.4 92.005 223.504L93.316 224.847C93.4176 224.951 93.4176 225.12 93.316 225.224C93.2655 225.276 93.1988 225.302 93.1322 225.302Z" fill="#652EFF"/>
<path d="M95.1893 225.302C95.1226 225.302 95.0559 225.276 95.0049 225.224C94.9033 225.12 94.9033 224.951 95.0049 224.847L96.3159 223.504C96.4175 223.4 96.5826 223.4 96.6842 223.504C96.7858 223.608 96.7858 223.777 96.6842 223.881L95.3732 225.224C95.3226 225.276 95.256 225.302 95.1893 225.302Z" fill="#652EFF"/>
<path d="M91.8211 228.75C91.7544 228.75 91.6878 228.724 91.6367 228.672C91.5352 228.568 91.5352 228.399 91.6367 228.295L92.9478 226.952C93.0494 226.848 93.2145 226.848 93.3161 226.952C93.4176 227.056 93.4176 227.225 93.3161 227.329L92.005 228.672C91.9539 228.724 91.8873 228.75 91.8211 228.75Z" fill="#652EFF"/>
</g>
<g opacity="0.45">
<path d="M230.081 228.165C229.937 228.165 229.82 228.046 229.82 227.898V225.692C229.82 225.545 229.937 225.425 230.081 225.425C230.225 225.425 230.342 225.545 230.342 225.692V227.898C230.342 228.046 230.225 228.165 230.081 228.165Z" fill="#652EFF"/>
<path d="M230.081 233.831C229.937 233.831 229.82 233.711 229.82 233.564V231.358C229.82 231.211 229.937 231.091 230.081 231.091C230.225 231.091 230.342 231.211 230.342 231.358V233.564C230.342 233.712 230.225 233.831 230.081 233.831Z" fill="#652EFF"/>
<path d="M228.391 229.894H226.237C226.093 229.894 225.977 229.775 225.977 229.628C225.977 229.481 226.093 229.361 226.237 229.361H228.391C228.535 229.361 228.652 229.481 228.652 229.628C228.652 229.775 228.535 229.894 228.391 229.894Z" fill="#652EFF"/>
<path d="M233.924 229.894H231.769C231.625 229.894 231.509 229.775 231.509 229.628C231.509 229.481 231.625 229.361 231.769 229.361H233.924C234.068 229.361 234.185 229.481 234.185 229.628C234.185 229.775 234.068 229.894 233.924 229.894Z" fill="#652EFF"/>
<path d="M232.799 232.678C232.732 232.678 232.665 232.652 232.614 232.6L231.091 231.04C230.989 230.936 230.989 230.767 231.091 230.662C231.192 230.558 231.358 230.558 231.459 230.662L232.983 232.223C233.084 232.327 233.084 232.496 232.983 232.6C232.932 232.652 232.865 232.678 232.799 232.678Z" fill="#652EFF"/>
<path d="M228.887 228.671C228.82 228.671 228.753 228.645 228.702 228.593L227.179 227.033C227.077 226.929 227.077 226.76 227.179 226.656C227.28 226.552 227.445 226.552 227.547 226.656L229.071 228.216C229.172 228.32 229.172 228.489 229.071 228.593C229.02 228.645 228.953 228.671 228.887 228.671Z" fill="#652EFF"/>
<path d="M231.275 228.671C231.209 228.671 231.142 228.645 231.091 228.593C230.989 228.489 230.989 228.32 231.091 228.216L232.614 226.656C232.716 226.552 232.881 226.552 232.983 226.656C233.084 226.76 233.084 226.929 232.983 227.033L231.459 228.593C231.409 228.645 231.342 228.671 231.275 228.671Z" fill="#652EFF"/>
<path d="M227.363 232.678C227.296 232.678 227.23 232.652 227.179 232.6C227.077 232.496 227.077 232.327 227.179 232.223L228.702 230.662C228.804 230.558 228.969 230.558 229.071 230.662C229.172 230.767 229.172 230.936 229.071 231.04L227.547 232.6C227.496 232.652 227.43 232.678 227.363 232.678Z" fill="#652EFF"/>
</g>
<rect x="37.998" y="166.575" width="49.1858" height="3.98983" fill="white"/>
<rect x="190.669" y="164.581" width="48.6989" height="2.99237" fill="white"/>
<rect x="202.356" y="8.97705" width="48.6989" height="2.99237" fill="white"/>
<rect x="115.672" y="8.97705" width="47.7249" height="2.99237" fill="white"/>
<rect x="29.9619" y="8.97705" width="47.7249" height="2.99237" fill="white"/>
<path d="M89.6928 201.721H89.3337C88.2763 201.721 87.7476 200.412 88.4948 199.647L88.7488 199.387C89.2122 198.912 89.2122 198.142 88.7488 197.668L87.7911 196.687C87.3277 196.212 86.5768 196.212 86.1124 196.687L85.8585 196.948C85.1112 197.712 83.8334 197.171 83.8334 196.088V195.72C83.8334 195.049 83.302 194.504 82.6472 194.504H81.2933C80.6376 194.504 80.1062 195.049 80.1062 195.72V196.088C80.1062 197.171 78.8283 197.712 78.0811 196.948L77.8271 196.687C77.3637 196.212 76.6128 196.212 76.1485 196.687L75.1917 197.668C74.7274 198.142 74.7274 198.912 75.1917 199.387L75.4457 199.647C76.1929 200.412 75.6633 201.721 74.6068 201.721H74.2468C73.592 201.721 73.0605 202.265 73.0605 202.936V204.322C73.0605 204.994 73.592 205.538 74.2468 205.538H74.6068C75.6633 205.538 76.1929 206.846 75.4457 207.612L75.1917 207.872C74.7274 208.346 74.7274 209.116 75.1917 209.591L76.1485 210.572C76.6128 211.046 77.3637 211.046 77.8271 210.572L78.0811 210.312C78.8283 209.546 80.1062 210.088 80.1062 211.171V211.538C80.1062 212.21 80.6376 212.754 81.2933 212.754H82.6472C83.302 212.754 83.8334 212.21 83.8334 211.538V211.171C83.8334 210.088 85.1112 209.546 85.8585 210.312L86.1124 210.572C86.5768 211.046 87.3277 211.046 87.7911 210.572L88.7488 209.591C89.2122 209.116 89.2122 208.346 88.7488 207.872L88.4948 207.612C87.7476 206.846 88.2772 205.538 89.3337 205.538H89.6928C90.3485 205.538 90.88 204.994 90.88 204.322V202.936C90.8791 202.265 90.3485 201.721 89.6928 201.721ZM81.9698 206.879C80.2168 206.879 78.7966 205.425 78.7966 203.629C78.7966 201.834 80.2168 200.38 81.9698 200.38C83.7228 200.38 85.1439 201.834 85.1439 203.629C85.1439 205.425 83.7228 206.879 81.9698 206.879Z" fill="#642CFF"/>
<path d="M171.455 199.992C174.406 199.992 176.819 202.446 176.819 205.498C176.819 208.55 174.407 211.004 171.455 211.004C168.503 211.004 166.09 208.55 166.09 205.498C166.09 202.445 168.503 199.992 171.455 199.992Z" fill="white" stroke="#652EFF"/>
<path d="M171.456 208.214C172.92 208.214 174.107 206.998 174.107 205.498C174.107 203.998 172.92 202.782 171.456 202.782C169.991 202.782 168.804 203.998 168.804 205.498C168.804 206.998 169.991 208.214 171.456 208.214Z" fill="#652EFF"/>
<path d="M110.094 199.992C113.045 199.992 115.458 202.446 115.458 205.498C115.458 208.55 113.045 211.004 110.094 211.004C107.142 211.004 104.729 208.55 104.729 205.498C104.729 202.445 107.142 199.992 110.094 199.992Z" fill="white" stroke="#652EFF"/>
<path d="M110.094 208.214C111.559 208.214 112.746 206.998 112.746 205.498C112.746 203.998 111.559 202.782 110.094 202.782C108.63 202.782 107.442 203.998 107.442 205.498C107.442 206.998 108.63 208.214 110.094 208.214Z" fill="#652EFF"/>
<defs>
<linearGradient id="paint0_linear_71_254" x1="108.606" y1="225.302" x2="171.136" y2="225.302" gradientUnits="userSpaceOnUse">
<stop stop-color="white"/>
<stop offset="1" stop-color="white"/>
</linearGradient>
</defs>
</svg>
