<svg width="800" height="730" viewBox="0 0 800 730" fill="none" xmlns="http://www.w3.org/2000/svg">
<mask id="mask0_772_90" style="mask-type:alpha" maskUnits="userSpaceOnUse" x="0" y="0" width="800" height="730">
<rect x="-0.5" y="0.5" width="799" height="729" transform="matrix(-1 0 0 1 799 0)" fill="#D9D9D9" stroke="#E8E8E8"/>
</mask>
<g mask="url(#mask0_772_90)">
<path d="M69.9425 464.799C126.897 537.048 194.655 579.403 269.862 613.682C358.448 655.033 457.352 689.398 583.634 709.908C712.297 728.311 868.343 732.859 1126.18 665.93C1164.82 655.825 1213.27 640.14 1244.71 620.638C1267.71 606.4 1273.62 595.013 1277.96 584.699C1307.11 515.303 1317.16 446.691 1327.64 363.648C1331.02 337.707 1332.78 309.522 1314.16 287.98C1300.69 272.275 1278.86 261.514 1259.77 249.558C1100.17 146.784 1068.58 -56.7349 995.268 -207.774C924.14 -360.744 823.518 -474.312 593.719 -479.202C500.262 -481.391 380.988 -462.065 234.954 -409.686C181.08 -390.591 120.79 -365.336 74.6295 -337.688C29.1557 -310.456 4.1859 -285.416 -18.5643 -261.747C-62.6739 -215.94 -103.161 -170.922 -98.6314 -137.318C-95.8144 -114.059 -75.0023 -95.8316 -58.1735 -72.2141C-40.8996 -48.9904 -27.6085 -20.3755 -29.5771 14.5793C-32.7768 62.4209 -64.7531 111.671 -85.6708 165.82C-101.967 207.575 -76.3823 228.912 -59.0001 258.662C-14.1993 333.928 24.9094 409.041 69.9425 464.799Z" stroke="#E8E8E8" stroke-width="0.2444" stroke-miterlimit="10" stroke-linecap="round" stroke-linejoin="round" stroke-dasharray="0.04 14.23"/>
<path d="M1249.17 247.318C1097.69 141.327 1066.17 -58.5108 994.11 -207.149C924.103 -357.657 825.2 -469.513 603.234 -478.017C512.981 -481.656 398.136 -464.842 257.487 -415.974C205.59 -398.165 147.514 -374.408 102.709 -347.743C58.5521 -321.46 33.8474 -296.699 11.3056 -273.258C-32.3808 -227.935 -72.6696 -183.235 -69.7672 -148.799C-68.0521 -124.985 -48.9678 -105.826 -33.6468 -81.5009C-17.9048 -57.5485 -5.92665 -28.4312 -8.65047 6.65372C-12.8015 54.6702 -44.6033 103.493 -65.7807 157.351C-82.2517 198.881 -57.734 220.504 -41.1205 250.265C1.61472 325.501 39.7431 399.709 83.9133 454.691C139.788 525.893 206.588 567.428 280.434 601.264C367.434 642.058 464.241 676.283 586.622 698.08C711.268 717.873 861.486 725.239 1107.58 666.063C1144.47 657.11 1190.73 642.921 1221.21 624.128C1243.51 610.4 1249.64 598.904 1254.24 588.449C1285.2 518.151 1297.96 448.129 1310.92 364.087C1315.08 337.835 1317.71 309.302 1300.5 287.129C1288.03 270.957 1267.31 259.67 1249.17 247.318Z" stroke="#E8E8E8" stroke-width="0.4108" stroke-miterlimit="10" stroke-linecap="round" stroke-linejoin="round" stroke-dasharray="0.04 14.2"/>
<path d="M1238.84 244.838C1095.18 135.878 1063.77 -60.2888 992.954 -206.526C924.069 -354.573 826.885 -464.716 612.559 -476.664C525.433 -481.685 414.895 -467.281 279.486 -421.793C229.517 -405.222 173.591 -382.911 130.114 -357.203C87.2482 -331.848 62.816 -307.367 40.484 -284.16C-2.76521 -239.331 -42.8395 -194.969 -41.4852 -159.769C-40.8255 -135.441 -23.3995 -115.411 -9.53091 -90.4284C4.74222 -65.8035 15.4597 -36.226 12.0184 -1.04899C6.96206 47.0995 -24.6511 95.4791 -46.0558 149.026C-62.6806 190.31 -39.1962 212.193 -23.3279 241.942C17.4035 317.094 54.5686 390.383 97.8784 444.585C152.68 514.738 218.516 555.457 291.009 588.845C376.429 629.076 471.166 663.136 589.74 686.134C710.465 707.23 855.023 717.266 1089.75 665.508C1124.96 657.659 1169.09 644.9 1198.64 626.796C1220.26 613.563 1226.58 601.97 1231.43 591.387C1264.1 520.291 1279.41 448.985 1294.73 364.061C1299.62 337.538 1303.08 308.696 1287.21 285.939C1275.71 269.336 1256.06 257.559 1238.84 244.838Z" stroke="#E8E8E8" stroke-width="0.5773" stroke-miterlimit="10" stroke-linecap="round" stroke-linejoin="round" stroke-dasharray="0.04 14.17"/>
<path d="M1228.77 242.127C1092.67 130.444 1061.37 -62.0675 991.796 -205.9C924.036 -351.487 828.568 -459.915 621.69 -475.141C537.61 -481.475 431.265 -469.373 300.956 -427.142C252.862 -411.765 199.031 -390.846 156.852 -366.07C115.246 -341.615 91.0918 -317.422 68.976 -294.452C26.1828 -250.132 -13.6538 -206.128 -13.7798 -170.228C-14.1208 -145.432 1.70983 -124.588 14.1866 -98.9994C27.0468 -73.7506 36.5514 -43.7613 32.4327 -8.52446C26.514 39.7159 -4.88931 87.639 -26.4942 140.846C-43.2516 181.866 -20.7705 203.982 -5.62844 233.7C33.1627 308.713 69.3793 381.069 111.838 434.483C165.571 503.58 230.437 543.489 301.584 576.423C385.434 616.085 478.13 649.957 592.987 674.077C709.887 696.391 848.954 708.951 1072.68 664.278C1106.26 657.482 1148.35 646.093 1176.98 628.659C1197.94 615.907 1204.44 604.231 1209.53 593.532C1243.79 521.736 1261.51 449.272 1279.05 363.585C1284.63 336.826 1288.87 307.714 1274.3 284.422C1263.72 267.421 1245.11 255.187 1228.77 242.127Z" stroke="#E8E8E8" stroke-width="0.7438" stroke-miterlimit="10" stroke-linecap="round" stroke-linejoin="round" stroke-dasharray="0.04 14.15"/>
<path d="M1218.96 239.185C1090.14 125.02 1058.98 -63.8505 990.641 -205.276C924.003 -348.403 830.25 -455.114 630.636 -473.451C549.528 -481.03 447.261 -471.132 321.911 -432.036C275.639 -417.805 223.849 -398.231 182.94 -374.362C142.568 -350.786 118.696 -326.882 96.8051 -304.161C54.4757 -260.361 14.9012 -216.733 13.3679 -180.195C13.099 -131.806 64.4499 -88.3704 52.6039 -15.7862C45.8723 32.5067 14.6929 79.9576 -7.08686 132.801C-23.9568 173.542 -2.44782 195.862 11.9933 225.525C48.9043 300.346 84.1911 371.755 125.799 424.379C178.472 492.411 242.363 531.519 312.168 563.991C394.455 603.077 485.127 636.742 596.362 661.901C709.534 685.348 843.266 700.29 1056.37 662.379C1088.37 656.587 1128.48 646.511 1156.21 629.721C1176.52 617.435 1183.2 605.687 1188.51 594.886C1224.24 522.491 1244.24 448.991 1263.88 362.657C1270.1 335.695 1275.08 306.354 1261.75 282.576C1252.06 265.218 1234.44 252.557 1218.96 239.185Z" stroke="#E8E8E8" stroke-width="0.9103" stroke-miterlimit="10" stroke-linecap="round" stroke-linejoin="round" stroke-dasharray="0.04 14.12"/>
<path d="M1209.4 236.02C1087.6 119.608 1056.58 -65.6353 989.482 -204.651C923.969 -345.317 831.929 -450.312 639.392 -471.595C561.181 -480.352 462.88 -472.56 342.354 -436.474C297.855 -423.347 248.048 -405.069 208.379 -382.081C169.212 -359.355 145.629 -335.75 123.969 -313.277C82.118 -270.008 42.8259 -226.778 39.9582 -189.664C37.764 -140.409 85.4745 -95.3018 72.5285 -22.8259C65.0276 25.476 34.0846 72.4451 12.1624 124.899C-4.79897 165.342 15.7651 187.843 29.5265 217.433C64.6168 292.007 98.9856 362.458 139.753 414.285C191.374 481.249 254.278 519.561 322.752 551.564C403.48 590.07 492.158 623.503 599.859 649.624C709.393 674.123 837.949 691.308 1040.79 659.838C1071.27 655.004 1109.46 646.176 1136.33 630.016C1156 618.182 1162.84 606.375 1168.35 595.487C1205.45 522.588 1227.58 448.173 1249.19 361.304C1256.02 334.176 1261.7 304.645 1249.55 280.425C1240.71 262.73 1224.06 249.678 1209.4 236.02Z" stroke="#E8E8E8" stroke-width="1.0767" stroke-miterlimit="10" stroke-linecap="round" stroke-linejoin="round" stroke-dasharray="0.04 14.1"/>
<path d="M1200.1 232.632C1085.04 114.205 1054.19 -67.4224 988.325 -204.027C923.937 -342.234 833.608 -445.51 647.97 -469.58C572.579 -479.448 478.132 -473.662 362.295 -440.472C319.521 -428.406 271.64 -411.371 233.188 -389.241C195.201 -367.343 171.912 -344.04 150.49 -321.825C109.131 -279.1 70.1414 -236.283 66.0078 -198.656C61.9871 -148.624 106.197 -101.97 92.2163 -29.6574C83.9885 18.6169 53.303 65.0858 31.2624 117.129C14.2285 157.255 33.8799 179.91 46.9833 209.411C80.3154 283.685 113.782 353.161 153.712 404.189C204.287 470.078 266.198 507.602 333.348 539.131C412.529 577.044 499.129 610.359 603.354 637.408C709.306 662.929 832.883 682.183 1025.94 656.654C1054.93 652.755 1091.29 645.094 1117.31 629.544C1136.37 618.147 1143.35 606.291 1149.05 595.33C1187.41 522.021 1211.55 446.814 1235 359.519C1242.4 332.257 1248.73 302.571 1237.72 277.958C1229.69 259.964 1213.97 246.549 1200.1 232.632Z" stroke="#E8E8E8" stroke-width="1.2432" stroke-miterlimit="10" stroke-linecap="round" stroke-linejoin="round" stroke-dasharray="0.04 14.07"/>
<path d="M1191.03 229.032C1082.47 108.815 1051.8 -69.2142 987.167 -203.402C923.903 -339.149 835.281 -440.703 656.366 -467.405C583.72 -478.321 493.023 -474.446 381.742 -444.029C340.641 -432.98 294.633 -417.141 257.37 -395.847C220.534 -374.754 197.545 -351.758 176.366 -329.806C135.516 -287.634 96.8452 -245.248 91.5145 -207.17C85.7463 -156.428 126.375 -108.341 111.662 -36.278C102.61 11.9348 72.3408 57.8834 50.2024 109.496C33.1149 149.286 51.8813 172.073 64.3497 201.461C95.9801 275.383 128.558 343.877 167.659 394.097C217.189 458.906 278.103 495.646 343.935 526.696C421.576 564.014 506.211 597.077 607.067 624.943C709.557 651.363 828.27 672.584 1011.79 652.842C1039.36 649.812 1073.94 643.28 1099.13 628.321C1117.59 617.346 1124.7 605.455 1130.58 594.432C1170.09 520.808 1196.1 444.923 1221.27 357.311C1229.2 329.95 1236.14 300.148 1226.22 275.184C1218.97 256.924 1204.14 243.18 1191.03 229.032Z" stroke="#E8E8E8" stroke-width="1.4097" stroke-miterlimit="10" stroke-linecap="round" stroke-linejoin="round" stroke-dasharray="0.04 14.04"/>
<path d="M1182.21 225.217C1079.9 103.437 1049.42 -71.0079 986.011 -202.779C923.873 -336.067 836.956 -435.897 664.584 -465.075C594.616 -476.973 507.555 -474.912 400.7 -447.158C361.226 -437.082 317.04 -422.394 280.937 -401.912C245.228 -381.6 222.545 -358.914 201.616 -337.232C161.281 -295.625 122.955 -253.688 116.493 -215.219C109.091 -163.866 146.467 -114.476 130.879 -42.6915C121.169 5.41221 91.2028 50.8408 68.9979 101.994C51.8779 141.435 69.7859 164.324 81.6399 193.584C111.627 267.103 143.334 334.596 181.607 384.007C230.102 447.734 290.011 483.693 354.531 514.256C430.636 550.974 513.324 583.768 610.9 612.375C710.016 639.619 824.015 662.674 998.332 648.416C1024.53 646.212 1057.4 640.754 1081.78 626.367C1099.66 615.802 1106.88 603.887 1112.92 592.814C1153.49 518.965 1181.24 442.517 1208 354.696C1216.44 327.269 1223.95 297.386 1215.06 272.116C1208.55 253.617 1194.58 239.573 1182.21 225.217Z" stroke="#E8E8E8" stroke-width="1.5761" stroke-miterlimit="10" stroke-linecap="round" stroke-linejoin="round" stroke-dasharray="0.04 14.02"/>
<path d="M1173.62 221.197C1077.3 98.0691 1047.04 -72.802 984.853 -202.154C923.84 -332.984 838.628 -431.087 672.63 -462.59C605.268 -475.408 521.741 -475.07 419.183 -449.862C381.289 -440.72 338.868 -427.133 303.903 -407.441C269.298 -387.888 246.921 -365.517 226.249 -344.107C186.444 -303.078 148.482 -261.611 140.955 -222.804C132.011 -170.928 166.267 -120.352 149.864 -48.9008C139.543 -0.94129 109.89 43.9519 87.6468 94.6251C70.5114 133.698 87.591 156.667 98.8506 185.778C127.253 258.844 158.098 325.328 195.551 373.921C243.018 436.557 301.916 471.743 365.129 501.817C439.705 537.926 520.474 570.43 614.849 599.706C710.675 627.697 820.107 652.457 985.56 643.387C1010.44 641.963 1041.66 637.522 1065.25 623.689C1082.56 613.519 1089.89 601.591 1096.07 590.484C1137.59 516.501 1166.96 439.6 1195.2 351.675C1204.09 324.214 1212.13 294.284 1204.23 268.753C1198.43 250.048 1185.29 235.733 1173.62 221.197Z" stroke="#E8E8E8" stroke-width="1.7426" stroke-miterlimit="10" stroke-linecap="round" stroke-linejoin="round" stroke-dasharray="0.04 13.99"/>
<path d="M1165.26 216.974C1074.7 92.7123 1044.66 -74.6004 983.696 -201.529C923.808 -329.901 840.296 -426.277 680.503 -459.953C615.673 -473.632 535.58 -474.922 437.193 -452.152C400.834 -443.902 360.125 -431.372 326.271 -412.446C292.741 -393.631 270.679 -371.581 250.269 -350.448C211.008 -310.009 173.428 -269.023 164.902 -229.939C154.51 -177.618 185.778 -125.973 168.618 -54.9135C157.726 -7.13332 128.406 37.2097 106.144 87.3816C89.013 126.07 105.346 149.054 115.978 178.039C142.992 250.504 172.847 316.067 209.489 363.836C255.934 425.376 313.814 459.796 375.726 489.373C448.78 524.869 527.651 557.066 618.904 586.939C711.526 615.602 816.533 641.941 973.45 637.769C997.052 637.084 1026.68 633.606 1049.51 620.309C1066.27 610.522 1073.68 598.592 1080 587.461C1122.38 513.431 1153.23 436.189 1182.84 348.26C1192.15 320.795 1200.69 290.855 1193.72 265.105C1188.6 246.224 1176.25 231.666 1165.26 216.974Z" stroke="#E8E8E8" stroke-width="1.9091" stroke-miterlimit="10" stroke-linecap="round" stroke-linejoin="round" stroke-dasharray="0.03 13.96"/>
<path d="M1157.12 212.552C1072.08 87.3688 1042.28 -76.4021 982.538 -200.903C923.777 -326.819 841.967 -421.465 688.208 -457.168C625.843 -471.645 549.08 -474.476 454.742 -454.032C419.872 -446.634 380.83 -435.116 348.06 -416.935C315.582 -398.835 293.839 -377.109 273.699 -356.263C234.992 -316.418 197.814 -275.936 188.352 -236.633C176.603 -183.948 205.012 -131.35 187.159 -60.7311C175.736 -13.1697 146.758 30.6148 124.507 80.2607C107.4 118.549 122.965 141.56 133.036 170.366C158.588 242.27 187.596 306.808 223.429 353.753C268.855 414.192 325.711 447.85 386.332 476.925C457.869 511.803 534.861 543.672 623.073 574.074C712.573 603.335 813.294 631.13 962.001 631.57C984.379 631.581 1012.52 629.022 1034.56 616.236C1050.81 606.825 1058.27 594.897 1064.71 583.754C1107.83 509.762 1140.06 432.289 1170.92 344.456C1180.62 317.02 1189.61 287.103 1183.54 261.173C1179.06 242.147 1167.47 227.377 1157.12 212.552Z" stroke="#E8E8E8" stroke-width="2.0756" stroke-miterlimit="10" stroke-linecap="round" stroke-linejoin="round" stroke-dasharray="0.03 13.94"/>
<path d="M1149.2 207.935C1069.45 82.0313 1039.91 -78.2036 981.382 -200.279C923.748 -323.736 843.632 -416.651 695.751 -454.237C635.788 -469.451 562.251 -473.735 471.839 -455.51C438.416 -448.928 400.933 -438.391 369.281 -420.916C337.77 -403.524 316.41 -382.113 296.544 -361.554C258.402 -322.32 221.643 -282.355 211.31 -242.888C198.291 -189.918 223.971 -136.48 205.483 -66.3531C193.569 -19.0441 164.95 24.167 142.732 73.2667C125.664 111.14 140.486 134.154 150.019 162.76C174.168 234.058 202.339 297.558 237.369 343.672C281.784 403.006 337.611 435.907 396.943 464.475C466.97 498.729 542.105 530.252 627.354 561.112C713.812 590.903 810.385 620.029 951.195 624.804C972.391 625.468 999.064 623.771 1020.38 611.482C1036.1 602.433 1043.63 590.523 1050.17 579.379C1093.96 505.512 1127.43 427.909 1159.43 340.274C1169.49 312.896 1178.89 283.036 1173.66 256.97C1169.79 237.825 1158.93 222.87 1149.2 207.935Z" stroke="#E8E8E8" stroke-width="2.242" stroke-miterlimit="10" stroke-linecap="round" stroke-linejoin="round" stroke-dasharray="0.03 13.91"/>
<path d="M1141.5 203.131C1066.81 76.7097 1037.54 -80.0081 980.227 -199.654C923.72 -320.655 845.298 -411.833 703.129 -451.159C645.499 -467.054 575.094 -472.704 488.489 -456.593C456.467 -450.783 420.546 -441.177 389.932 -424.401C359.426 -407.685 338.395 -386.603 318.808 -366.34C281.244 -327.724 244.924 -288.293 233.781 -248.716C219.581 -195.54 242.654 -141.37 223.59 -71.7877C211.222 -24.7642 182.883 17.8318 160.816 66.3931C143.738 103.81 157.912 126.827 166.926 155.221C189.717 225.861 217.071 288.314 251.304 333.593C294.71 391.816 349.502 423.968 407.553 452.023C476.079 485.648 549.375 516.806 631.737 548.059C715.232 578.306 807.79 608.651 941.01 617.486C961.074 618.765 986.33 617.877 1006.94 606.07C1022.15 597.369 1029.73 585.486 1036.37 574.353C1080.72 500.693 1115.33 423.067 1148.35 335.722C1158.73 308.433 1168.51 278.662 1164.09 252.499C1160.79 233.262 1150.63 218.15 1141.5 203.131Z" stroke="#E8E8E8" stroke-width="2.4085" stroke-miterlimit="10" stroke-linecap="round" stroke-linejoin="round" stroke-dasharray="0.03 13.88"/>
<path d="M1134 198.141C1063.89 71.6035 1035.17 -81.8166 979.066 -199.03C923.688 -317.574 846.958 -407.016 710.343 -447.94C654.982 -464.458 587.609 -471.387 504.699 -457.289C474.035 -452.216 439.628 -443.495 410.034 -427.397C380.503 -411.336 359.809 -390.587 340.509 -370.623C303.534 -332.636 267.669 -293.756 255.775 -254.121C240.482 -200.812 261.071 -146.023 241.485 -77.0335C228.707 -30.3357 200.746 11.6645 178.765 59.6387C161.759 96.6059 175.245 119.584 183.759 147.746C205.246 217.686 231.796 279.078 265.234 323.517C307.642 380.626 361.394 412.03 418.167 439.569C485.193 472.561 556.672 503.338 636.219 534.917C716.825 565.557 805.503 596.998 931.436 609.626C950.411 611.477 974.315 611.35 994.224 600.009C1008.94 591.643 1016.57 579.797 1023.28 568.688C1068.11 495.316 1103.74 417.767 1137.69 330.809C1148.35 303.637 1158.48 273.987 1154.81 247.764C1152.06 228.466 1142.53 213.248 1134 198.141Z" stroke="#E8E8E8" stroke-width="2.575" stroke-miterlimit="10" stroke-linecap="round" stroke-linejoin="round" stroke-dasharray="0.03 13.86"/>
<path d="M1126.71 192.968C1061.2 66.3173 1032.81 -83.6272 977.908 -198.406C923.658 -314.493 848.613 -402.196 717.402 -444.584C664.246 -461.668 599.812 -469.793 520.478 -457.603C491.13 -453.231 458.193 -445.353 429.589 -429.909C401.016 -414.486 380.661 -394.073 361.652 -374.415C325.279 -337.066 289.887 -298.753 277.302 -259.112C260.997 -205.748 279.223 -150.441 259.172 -82.0966C246.022 -35.7546 218.452 5.63362 196.584 53.0031C179.665 89.5044 192.491 112.422 200.522 140.336C220.76 209.53 246.51 269.851 279.162 313.446C320.573 369.433 373.277 400.096 428.781 427.112C494.314 459.464 563.997 489.843 640.802 521.684C718.6 552.649 803.521 585.075 922.463 601.235C940.393 603.623 962.994 604.207 982.232 593.317C996.462 585.275 1004.12 573.476 1010.91 562.402C1056.11 489.394 1092.65 412.022 1127.42 325.542C1138.34 298.514 1148.77 269.017 1145.82 242.773C1143.59 223.44 1134.69 208.118 1126.71 192.968Z" stroke="#E8E8E8" stroke-width="2.7415" stroke-miterlimit="10" stroke-linecap="round" stroke-linejoin="round" stroke-dasharray="0.03 13.83"/>
<path d="M1119.62 187.622C1058.5 61.0422 1030.44 -85.4387 976.753 -197.779C923.63 -311.411 850.273 -397.373 724.308 -441.085C673.289 -458.681 611.708 -467.922 535.838 -457.543C507.763 -453.832 476.25 -446.759 448.616 -431.951C420.976 -417.142 400.964 -397.072 382.254 -377.721C346.493 -341.022 311.592 -303.288 298.373 -263.696C281.141 -210.346 297.119 -154.629 276.658 -86.9778C263.174 -41.0261 236.008 -0.258943 214.271 46.4841C197.458 82.5074 209.642 105.341 217.215 132.989C236.247 201.394 261.221 260.631 293.088 303.378C333.511 358.24 385.162 388.169 439.398 414.659C503.446 446.366 571.347 476.33 645.482 508.372C720.545 539.594 801.837 572.894 914.075 592.332C931.004 595.217 952.358 596.464 970.941 586.008C984.7 578.28 992.341 566.534 999.22 555.509C1044.49 482.92 1082.07 405.832 1117.55 319.931C1128.69 293.077 1139.46 263.748 1137.11 237.537C1135.41 218.181 1127.08 202.792 1119.62 187.622Z" stroke="#E8E8E8" stroke-width="2.9079" stroke-miterlimit="10" stroke-linecap="round" stroke-linejoin="round" stroke-dasharray="0.03 13.8"/>
<path d="M1112.73 182.103C1055.79 55.7774 1028.08 -87.2497 975.594 -197.153C923.6 -308.329 851.926 -392.547 731.063 -437.458C682.124 -455.508 623.299 -465.786 550.784 -457.118C523.944 -454.034 493.809 -447.725 467.12 -433.534C440.394 -419.323 420.73 -399.595 402.32 -380.561C367.182 -344.519 332.789 -307.381 318.994 -267.887C300.915 -214.626 314.763 -158.599 293.945 -91.6862C280.164 -46.1592 253.414 -6.02449 231.83 40.0738C215.14 75.6023 226.711 98.3326 233.839 125.699C251.719 193.269 275.922 251.414 307.012 293.309C346.452 347.04 397.042 376.239 450.021 402.195C512.587 433.254 578.728 462.787 650.259 494.968C722.654 526.385 800.441 560.452 906.258 582.915C922.228 586.261 942.385 588.125 960.331 578.088C973.63 570.662 981.282 558.984 988.205 548.012C1033.69 475.935 1071.95 399.221 1108.05 313.977C1119.39 287.324 1130.4 258.206 1128.68 232.048C1127.44 212.712 1119.69 197.273 1112.73 182.103Z" stroke="#E8E8E8" stroke-width="3.0744" stroke-miterlimit="10" stroke-linecap="round" stroke-linejoin="round" stroke-dasharray="0.03 13.78"/>
<path d="M1106.02 176.415C1053.07 50.5223 1025.72 -89.067 974.438 -196.53C923.573 -305.25 853.577 -387.72 737.666 -433.698C690.749 -452.153 634.591 -463.385 565.32 -456.333C539.675 -453.841 510.874 -448.257 485.114 -434.662C459.28 -421.032 440.028 -401.643 421.863 -382.934C387.469 -347.542 353.487 -311.031 339.173 -271.684C320.326 -218.582 332.157 -162.346 311.035 -96.2197C296.995 -51.1491 270.673 -11.6579 249.264 33.7766C232.712 68.7962 243.693 91.4019 250.394 118.47C267.169 185.164 290.618 242.205 320.931 283.242C359.392 335.84 408.919 364.312 460.643 389.732C521.73 420.139 586.129 449.224 655.126 481.486C724.928 513.034 799.326 547.761 898.997 573.008C914.049 576.776 933.062 579.214 950.385 569.58C963.24 562.443 970.888 550.842 977.842 539.938C1023.45 468.444 1062.31 392.201 1098.93 307.698C1110.43 281.27 1121.65 252.395 1120.52 226.327C1119.7 207.029 1112.5 191.564 1106.02 176.415Z" stroke="#E8E8E8" stroke-width="3.2409" stroke-miterlimit="10" stroke-linecap="round" stroke-linejoin="round" stroke-dasharray="0.03 13.75"/>
<path d="M1099.5 170.563C1050.34 45.2797 1023.37 -90.8848 973.284 -195.908C923.562 -302.186 855.383 -383.179 744.126 -429.811C699.221 -448.721 645.59 -460.724 579.465 -455.2C554.975 -453.265 527.465 -448.368 502.608 -435.351C477.643 -422.282 458.748 -403.239 440.897 -384.858C407.149 -350.138 373.705 -314.257 358.925 -275.107C339.387 -222.232 349.315 -165.883 327.94 -100.589C313.67 -56.0063 287.791 -17.1693 266.581 27.5839C250.18 62.0792 260.593 84.5398 266.888 111.297C282.606 177.074 305.308 232.997 334.855 273.174C372.342 324.63 420.801 352.382 471.272 377.262C530.89 407.01 593.563 435.634 660.089 467.918C727.362 499.541 798.491 534.825 892.285 562.617C906.459 566.774 924.378 569.741 941.097 560.496C953.516 553.64 961.152 542.12 968.131 531.296C1013.78 460.458 1053.12 384.775 1090.17 301.096C1101.81 274.923 1113.2 246.317 1112.62 220.372C1112.21 201.141 1105.53 185.67 1099.5 170.563Z" stroke="#E8E8E8" stroke-width="3.4074" stroke-miterlimit="10" stroke-linecap="round" stroke-linejoin="round" stroke-dasharray="0.03 13.73"/>
<path d="M1093.16 164.554C1047.59 40.0472 1021.01 -92.7042 972.125 -195.281C923.534 -299.105 857.039 -378.359 750.44 -425.79C707.442 -445.007 656.301 -457.807 593.214 -453.715C569.844 -452.304 543.582 -448.057 519.604 -435.598C495.489 -423.072 476.957 -404.383 459.422 -386.331C426.328 -352.291 393.44 -317.056 378.248 -278.145C358.096 -225.564 366.227 -169.201 344.649 -104.786C330.191 -60.7219 304.764 -22.5483 283.773 21.5025C267.543 55.4629 277.41 77.758 283.313 104.185C298.018 169.003 319.989 223.802 348.77 263.116C385.29 313.429 432.672 340.463 481.899 364.799C540.051 393.884 601.012 422.031 665.133 454.281C729.946 485.918 797.916 521.659 886.099 551.763C899.429 556.276 916.305 559.726 932.435 550.857C944.432 544.27 952.049 532.845 959.032 522.107C1004.65 451.993 1044.38 376.956 1081.76 294.186C1093.51 268.288 1105.04 239.982 1104.98 214.193C1104.94 195.052 1098.76 179.598 1093.16 164.554Z" stroke="#E8E8E8" stroke-width="3.5738" stroke-miterlimit="10" stroke-linecap="round" stroke-linejoin="round" stroke-dasharray="0.03 13.7"/>
<path d="M1086.99 158.391C1044.83 34.8247 1018.66 -94.5221 970.967 -194.657C923.505 -296.027 858.69 -373.542 756.613 -421.651C715.465 -441.124 666.732 -454.646 606.578 -451.896C584.289 -450.977 559.235 -447.342 536.119 -435.423C512.836 -423.421 494.666 -405.087 477.453 -387.372C445.022 -354.02 412.708 -319.443 397.156 -280.823C376.464 -228.6 382.902 -172.318 361.171 -108.819C346.558 -65.3038 321.594 -27.8054 300.841 15.5254C284.797 48.9348 294.141 71.0455 299.668 97.1301C313.408 160.95 334.657 214.613 362.679 253.055C398.232 302.222 444.536 328.542 492.523 352.332C549.212 380.751 608.482 408.405 670.258 440.565C732.679 472.157 797.605 508.255 880.428 540.449C892.959 545.281 908.836 549.175 924.395 540.665C935.979 534.338 943.566 523.015 950.546 512.374C996.046 443.052 1036.07 368.75 1073.7 286.966C1085.53 261.372 1097.17 233.39 1097.58 207.791C1097.9 188.763 1092.18 173.354 1086.99 158.391Z" stroke="#E8E8E8" stroke-width="3.7403" stroke-miterlimit="10" stroke-linecap="round" stroke-linejoin="round" stroke-dasharray="0.03 13.67"/>
<path d="M1080.99 152.075C1042.06 29.6136 1016.31 -96.3469 969.809 -194.031C923.48 -292.947 860.341 -368.72 762.65 -417.387C723.299 -437.067 676.894 -451.24 619.575 -449.745C598.329 -449.285 574.445 -446.228 552.171 -434.833C529.699 -423.34 511.895 -405.362 495.011 -387.986C463.254 -355.331 431.525 -321.427 415.663 -283.141C394.504 -231.344 399.355 -175.23 377.519 -112.697C362.783 -69.7596 338.296 -32.9471 317.8 9.64825C301.957 42.4925 310.799 64.4005 315.969 90.1264C328.784 152.91 349.327 205.425 376.594 242.995C411.187 291.009 456.407 316.622 503.156 339.859C558.39 367.608 615.981 394.758 675.476 426.775C735.562 458.267 797.55 494.629 875.262 528.688C887.029 533.808 901.953 538.103 916.954 529.942C928.139 523.865 935.682 512.65 942.653 502.117C987.967 433.654 1028.18 360.169 1065.98 279.45C1077.85 254.182 1089.59 226.55 1090.43 201.175C1091.06 182.286 1085.8 166.94 1080.99 152.075Z" stroke="#E8E8E8" stroke-width="3.9068" stroke-miterlimit="10" stroke-linecap="round" stroke-linejoin="round" stroke-dasharray="0.03 13.65"/>
<path d="M1075.16 145.616C1039.28 24.4118 1013.96 -98.1694 968.653 -193.407C923.453 -289.871 861.987 -363.897 768.553 -413.006C730.942 -432.843 686.781 -447.595 632.203 -447.27C611.966 -447.236 589.208 -444.721 567.757 -433.832C546.075 -422.83 528.645 -405.215 512.089 -388.18C481.017 -356.232 449.891 -323.013 433.771 -285.106C412.216 -233.797 415.582 -177.942 393.69 -116.414C378.862 -74.0854 354.864 -37.967 334.647 3.87251C319.018 36.1412 327.378 57.8239 332.208 83.1798C344.141 144.887 363.988 196.247 390.501 232.94C424.143 279.797 468.272 304.707 513.789 327.388C567.569 354.463 623.499 381.095 680.768 412.916C738.583 444.256 797.737 480.787 870.583 516.497C881.622 521.873 895.636 526.529 910.097 518.702C920.891 512.868 928.383 501.771 935.331 491.354C980.384 423.814 1020.71 351.231 1058.57 271.651C1070.47 246.733 1082.26 219.477 1083.5 194.355C1084.44 175.622 1079.6 160.362 1075.16 145.616Z" stroke="#E8E8E8" stroke-width="4.0733" stroke-miterlimit="10" stroke-linecap="round" stroke-linejoin="round" stroke-dasharray="0.03 13.62"/>
<path d="M1069.49 139.014C1036.48 19.2216 1011.61 -99.9957 967.494 -192.781C923.429 -286.791 863.63 -359.07 774.321 -408.505C738.397 -428.457 696.405 -443.719 644.474 -444.478C625.213 -444.843 603.542 -442.834 582.894 -432.436C561.987 -421.907 544.93 -404.656 528.712 -387.972C498.33 -356.736 467.822 -324.216 451.49 -286.728C429.61 -235.969 431.59 -180.462 409.687 -119.981C394.803 -78.2863 371.3 -42.8741 351.381 -1.80588C335.978 29.8745 343.882 51.3165 348.385 76.2857C359.481 136.881 378.641 187.075 404.41 222.887C437.103 268.583 480.137 292.793 524.425 314.916C576.757 341.312 631.04 367.411 686.14 398.988C741.745 430.121 798.167 466.734 866.382 503.888C876.725 509.487 889.883 514.469 903.814 506.961C914.227 501.358 921.659 490.388 928.576 480.096C973.296 413.543 1013.63 341.939 1051.49 263.571C1063.39 239.025 1075.2 212.173 1076.81 187.334C1078.03 168.778 1073.58 153.625 1069.49 139.014Z" stroke="#E8E8E8" stroke-width="4.2397" stroke-miterlimit="10" stroke-linecap="round" stroke-linejoin="round" stroke-dasharray="0.03 13.59"/>
<path d="M1063.97 132.275C1033.68 14.0408 1009.26 -101.822 966.334 -192.155C923.401 -283.714 865.268 -354.238 779.959 -403.891C745.67 -423.908 705.772 -439.612 656.392 -441.376C638.07 -442.104 617.454 -440.573 597.588 -430.645C577.436 -420.575 560.757 -403.691 544.88 -387.358C515.198 -356.844 485.322 -325.035 468.829 -288.013C446.688 -237.86 447.38 -182.788 425.511 -123.396C410.602 -82.3638 387.609 -47.6656 368.004 -7.38554C352.849 23.6917 360.31 44.8749 364.504 69.4452C374.804 128.89 393.287 177.909 418.312 212.837C450.059 257.366 491.996 280.882 535.059 302.44C585.947 328.155 638.597 353.708 691.586 384.991C745.036 415.867 798.827 452.47 862.637 490.866C872.319 496.66 884.656 501.924 898.076 494.727C908.12 489.346 915.483 478.51 922.356 468.353C966.682 402.847 1006.94 332.302 1044.71 255.215C1056.58 231.064 1068.4 204.638 1070.34 180.111C1071.81 161.759 1067.73 146.731 1063.97 132.275Z" stroke="#E8E8E8" stroke-width="4.4062" stroke-miterlimit="10" stroke-linecap="round" stroke-linejoin="round" stroke-dasharray="0.03 13.57"/>
<path d="M1058.6 125.403C1030.86 8.87105 1006.92 -103.652 965.179 -191.531C923.379 -280.638 866.907 -349.405 785.473 -399.166C752.77 -419.205 714.89 -435.288 667.972 -437.971C650.557 -439.039 630.955 -437.95 611.852 -428.477C592.437 -418.849 576.142 -402.335 560.612 -386.36C531.638 -356.574 502.409 -325.488 485.801 -288.972C463.469 -239.487 462.965 -184.933 441.174 -126.666C426.267 -86.3249 403.793 -52.349 384.524 -12.8754C369.626 17.5896 376.67 38.4941 380.565 62.6531C390.11 120.911 407.928 168.747 432.216 202.785C463.023 246.146 503.855 268.97 545.698 289.963C595.147 314.991 646.176 339.989 697.109 370.93C748.461 401.498 799.713 438.009 859.346 477.448C868.403 483.409 879.962 488.921 892.879 482.021C902.566 476.853 909.85 466.159 916.671 456.146C960.528 391.745 1000.63 322.332 1038.22 246.6C1050.05 222.866 1061.84 196.887 1064.09 172.704C1065.78 154.572 1062.06 139.692 1058.6 125.403Z" stroke="#E8E8E8" stroke-width="4.5727" stroke-miterlimit="10" stroke-linecap="round" stroke-linejoin="round" stroke-dasharray="0.03 13.54"/>
<path d="M1053.37 118.405C1028.03 3.71099 1004.58 -105.482 964.019 -190.905C923.351 -277.559 868.536 -344.57 790.861 -394.329C759.697 -414.346 723.757 -430.74 679.215 -434.27C662.675 -435.646 644.053 -434.97 625.697 -425.935C607.004 -416.736 591.092 -400.596 575.911 -384.98C547.657 -355.93 519.085 -325.581 502.408 -289.611C479.945 -240.85 478.34 -186.893 456.671 -129.79C441.798 -90.166 419.855 -56.9224 400.937 -18.2693C386.309 11.5688 392.953 32.1806 396.57 55.912C405.397 112.952 422.561 159.59 446.114 192.74C475.986 234.927 515.712 257.064 556.338 277.487C604.346 301.829 653.771 326.257 702.697 356.81C752.007 387.023 800.815 423.359 856.484 463.651C864.948 469.748 875.768 475.473 888.198 468.857C897.533 463.894 904.732 453.35 911.492 443.487C954.819 380.253 994.674 312.043 1032.03 237.73C1043.78 214.431 1055.52 188.927 1058.03 165.112C1059.94 147.22 1056.54 132.506 1053.37 118.405Z" stroke="#E8E8E8" stroke-width="4.7392" stroke-miterlimit="10" stroke-linecap="round" stroke-linejoin="round" stroke-dasharray="0.03 13.51"/>
<path d="M1048.29 111.28C1025.19 -1.43923 1002.23 -107.314 962.863 -190.282C923.326 -274.481 870.167 -339.732 796.13 -389.387C766.453 -409.341 732.388 -425.984 690.133 -430.285C674.438 -431.942 656.759 -431.644 639.135 -423.035C621.145 -414.248 605.622 -398.483 590.797 -383.232C563.266 -354.923 535.371 -325.325 518.665 -289.938C496.139 -241.958 493.521 -188.677 472.013 -132.778C457.204 -93.8945 435.8 -61.3942 417.255 -23.5772C402.909 5.62411 409.172 25.9241 412.521 49.2174C420.67 105.003 437.189 150.44 460.012 182.692C488.954 223.703 527.566 245.156 566.98 265.007C662.353 310.341 752.443 365.593 854.045 449.477C861.946 455.685 872.068 461.587 884.025 455.244C893.019 450.479 900.125 440.093 906.812 430.389C949.541 368.374 989.079 301.441 1026.11 228.613C1037.77 205.77 1049.43 180.761 1052.19 157.344C1054.27 139.713 1051.19 125.181 1048.29 111.28Z" stroke="#E8E8E8" stroke-width="4.9056" stroke-miterlimit="10" stroke-linecap="round" stroke-linejoin="round" stroke-dasharray="0.03 13.49"/>
<path d="M1043.34 104.038C1022.34 -6.57754 999.897 -109.147 961.705 -189.657C923.304 -271.407 871.793 -334.89 801.281 -384.34C773.044 -404.187 740.782 -421.019 700.734 -426.015C685.851 -427.926 669.081 -427.978 652.172 -419.778C634.869 -411.39 619.735 -396.002 605.27 -381.12C578.473 -353.564 551.262 -324.723 534.575 -289.958C512.044 -242.811 508.502 -190.288 487.201 -135.627C472.486 -97.512 451.632 -65.763 433.471 -28.796C419.425 -0.243446 425.324 19.7288 428.422 42.5706C435.929 97.0706 451.813 141.294 473.909 172.649C501.925 212.478 539.423 233.254 577.625 252.527C669.933 296.656 757.311 350.268 852.015 434.946C859.384 441.236 868.845 447.282 880.341 441.202C889.002 436.628 896.008 426.404 902.613 416.868C944.689 356.128 983.826 290.538 1020.47 219.258C1032.01 196.891 1043.57 172.397 1046.54 149.402C1048.78 132.05 1045.98 117.722 1043.34 104.038Z" stroke="#E8E8E8" stroke-width="5.0721" stroke-miterlimit="10" stroke-linecap="round" stroke-linejoin="round" stroke-dasharray="0.03 13.46"/>
<path d="M1038.53 96.6797C1019.48 -11.7069 997.558 -110.981 960.549 -189.031C923.282 -268.328 873.416 -330.044 806.313 -379.19C779.473 -398.891 748.948 -415.852 711.023 -421.47C696.924 -423.611 681.03 -423.981 664.817 -416.178C648.186 -408.173 633.445 -393.167 619.344 -378.658C593.288 -351.858 566.774 -323.789 550.147 -289.685C527.675 -243.426 523.29 -191.73 502.235 -138.344C487.64 -101.021 467.343 -70.0292 449.589 -33.9326C435.849 -6.03802 441.404 13.5916 444.266 35.9693C451.17 89.1472 466.43 132.151 487.801 162.605C514.895 201.249 551.268 221.349 588.265 240.044C677.525 282.95 762.186 334.927 850.372 420.065C857.238 426.412 866.074 432.569 877.121 426.742C885.457 422.346 892.353 412.296 898.87 402.935C940.229 343.521 978.894 279.342 1015.08 209.67C1026.48 187.797 1037.92 163.843 1041.06 141.293C1043.45 124.239 1040.93 110.13 1038.53 96.6797Z" stroke="#E8E8E8" stroke-width="5.2386" stroke-miterlimit="10" stroke-linecap="round" stroke-linejoin="round" stroke-dasharray="0.03 13.43"/>
<path d="M1033.83 89.2098C1016.6 -16.8268 995.22 -112.817 959.391 -188.407C923.257 -265.255 875.035 -325.196 811.238 -373.941C785.749 -393.457 756.894 -410.486 721.012 -416.662C707.667 -419.002 692.619 -419.665 677.088 -412.242C661.11 -404.609 646.768 -389.986 633.034 -375.852C607.725 -349.816 581.926 -322.53 565.398 -289.121C543.039 -243.798 537.898 -193.009 517.125 -140.932C502.676 -104.425 482.95 -74.201 465.615 -38.9832C452.198 -11.7599 457.426 7.50884 460.061 29.4139C466.394 81.2403 481.039 123.018 501.694 152.564C527.867 190.02 563.119 209.447 598.912 227.562C685.144 269.228 767.081 319.578 849.113 404.851C855.502 411.229 863.751 417.468 874.359 411.882C882.384 407.662 889.158 397.789 895.578 388.609C936.163 330.575 974.284 267.866 1009.95 199.864C1021.19 178.503 1032.47 155.104 1035.78 133.029C1038.29 116.288 1036.01 102.417 1033.83 89.2098Z" stroke="#E8E8E8" stroke-width="5.405" stroke-miterlimit="10" stroke-linecap="round" stroke-linejoin="round" stroke-dasharray="0.03 13.41"/>
<path d="M1029.26 81.6345C1013.71 -21.934 992.884 -114.653 958.233 -187.78C923.233 -262.179 876.652 -320.341 816.051 -368.595C791.867 -387.884 764.621 -404.93 730.71 -411.591C718.088 -414.11 703.855 -415.035 688.987 -407.978C673.654 -400.702 659.707 -386.467 646.346 -372.711C621.795 -347.446 596.718 -320.95 580.33 -288.273C558.14 -243.94 552.325 -194.124 531.872 -143.39C517.595 -107.723 498.45 -78.275 481.55 -43.9523C468.467 -17.4093 473.385 1.48512 475.81 22.9029C481.609 73.3502 495.648 113.886 515.587 142.528C540.847 178.792 574.97 197.548 609.561 215.079C692.784 255.489 771.992 304.219 848.221 389.312C854.164 395.701 861.861 401.984 872.039 396.633C879.755 392.58 886.405 382.891 892.721 373.901C932.479 317.295 969.984 256.121 1005.06 189.843C1016.12 169.012 1027.24 146.19 1030.67 124.611C1033.28 108.2 1031.23 94.5822 1029.26 81.6345Z" stroke="#E8E8E8" stroke-width="5.5715" stroke-miterlimit="10" stroke-linecap="round" stroke-linejoin="round" stroke-dasharray="0.03 13.38"/>
<path d="M1024.8 73.9574C1010.82 -27.0333 990.551 -116.489 957.076 -187.155C923.214 -259.103 878.261 -315.487 820.756 -363.153C797.839 -382.182 772.136 -399.185 740.117 -406.266C728.197 -408.939 714.743 -410.099 700.528 -403.398C685.819 -396.465 672.277 -382.62 659.29 -369.246C635.499 -344.757 611.159 -319.064 594.949 -287.152C572.984 -243.854 566.569 -195.083 546.477 -145.724C532.4 -110.919 513.84 -82.2545 497.394 -48.8423C484.653 -22.9896 489.281 -4.487 491.504 16.435C496.799 65.4696 510.244 104.763 529.472 132.49C553.823 167.558 586.813 185.65 620.203 202.596C700.433 241.735 776.903 288.85 847.674 373.463C853.193 379.835 860.366 386.14 870.131 381.012C877.547 377.119 884.066 367.621 890.266 358.828C929.144 303.696 965.966 244.115 1000.39 179.615C1011.26 159.332 1022.18 137.107 1025.71 116.045C1028.42 99.98 1026.59 86.632 1024.8 73.9574Z" stroke="#E8E8E8" stroke-width="5.738" stroke-miterlimit="10" stroke-linecap="round" stroke-linejoin="round" stroke-dasharray="0.03 13.36"/>
<path d="M1020.45 66.1832C1007.91 -32.1207 988.217 -118.329 955.916 -186.53C923.188 -256.031 879.867 -310.627 825.354 -357.621C803.661 -376.349 779.443 -393.26 749.248 -400.697C737.998 -403.497 725.301 -404.869 711.719 -398.51C697.621 -391.908 684.484 -378.455 671.876 -365.466C648.858 -341.759 625.263 -316.88 609.268 -285.766C587.578 -243.553 580.644 -195.89 560.947 -147.94C547.093 -114.019 529.13 -86.1442 513.15 -53.6544C500.767 -28.5032 505.115 -10.403 507.153 10.0085C511.981 57.6043 524.838 95.6425 543.357 122.457C566.803 156.324 598.653 173.754 630.852 190.111C708.105 227.964 781.831 273.471 847.469 357.314C852.593 363.649 859.277 369.946 868.633 365.031C875.759 361.293 882.137 351.992 888.219 343.401C926.164 289.791 962.238 231.857 995.954 169.19C1006.61 149.471 1017.32 127.858 1020.93 107.338C1023.69 91.6344 1022.06 78.5713 1020.45 66.1832Z" stroke="#E8E8E8" stroke-width="5.9045" stroke-miterlimit="10" stroke-linecap="round" stroke-linejoin="round" stroke-dasharray="0.03 13.33"/>
<path d="M1016.21 58.3136C1004.99 -37.1996 985.886 -120.168 954.758 -185.905C923.167 -252.954 881.47 -305.764 829.852 -351.996C809.344 -370.392 786.553 -387.157 758.107 -394.889C747.503 -397.794 735.531 -399.353 722.572 -393.322C709.072 -387.042 696.344 -373.981 684.12 -361.381C661.876 -338.466 639.039 -314.406 623.298 -284.124C601.94 -243.037 594.557 -196.551 575.286 -150.04C561.68 -117.023 544.322 -89.9494 528.825 -58.3948C516.808 -33.9549 520.896 -16.2731 522.76 3.62C527.148 49.7482 539.428 86.5265 557.241 112.421C579.783 145.087 610.498 161.859 641.5 177.624C715.793 214.177 786.768 258.083 847.586 340.879C852.34 347.153 858.564 353.416 867.524 348.707C874.365 345.113 880.597 336.017 886.55 327.636C923.511 275.591 958.778 219.362 991.727 158.577C1002.14 139.437 1012.62 118.454 1016.29 98.4942C1019.11 83.1706 1017.65 70.406 1016.21 58.3136Z" stroke="#E8E8E8" stroke-width="6.071" stroke-miterlimit="10" stroke-linecap="round" stroke-linejoin="round" stroke-dasharray="0.03 13.3"/>
<path d="M1012.07 50.3584C1002.06 -42.2691 983.555 -122.008 953.601 -185.279C923.147 -249.88 883.068 -300.897 834.255 -346.287C814.89 -364.314 793.471 -380.883 766.708 -388.849C756.724 -391.839 745.45 -393.558 733.097 -387.844C720.182 -381.869 707.866 -369.205 696.028 -356.999C674.566 -334.877 652.498 -311.651 637.041 -282.229C616.062 -242.315 608.3 -197.067 589.494 -152.026C576.16 -119.934 559.415 -93.6679 544.411 -63.061C532.772 -39.3388 536.617 -22.0904 538.317 -2.72744C542.297 41.9072 554.007 77.4166 571.12 102.392C592.763 133.852 622.334 149.967 652.148 165.14C723.493 200.38 791.709 242.689 848.011 324.171C852.416 330.364 858.212 336.566 866.784 332.053C873.349 328.603 879.428 319.715 885.247 311.549C921.18 261.11 955.575 206.64 987.705 147.785C997.872 129.238 1008.1 108.902 1011.8 89.5235C1014.65 74.592 1013.36 62.1383 1012.07 50.3584Z" stroke="#E8E8E8" stroke-width="6.2374" stroke-miterlimit="10" stroke-linecap="round" stroke-linejoin="round" stroke-dasharray="0.03 13.28"/>
<path d="M1008.03 42.3154C999.116 -47.3294 981.225 -123.85 952.443 -184.655C923.126 -246.81 884.663 -296.027 838.559 -340.492C820.303 -358.12 800.198 -374.445 775.054 -382.586C765.669 -385.64 755.064 -387.496 743.306 -382.087C730.963 -376.409 719.059 -364.144 707.611 -352.333C686.938 -331.012 665.65 -308.625 650.514 -280.093C629.961 -241.394 621.894 -197.444 603.583 -153.903C590.542 -122.757 574.419 -97.3048 559.926 -67.659C548.676 -44.6671 552.287 -27.8625 553.836 -9.04033C557.438 34.0747 568.589 68.3074 585.003 92.3583C605.751 122.608 634.177 138.071 662.799 152.65C731.213 186.565 796.663 227.282 848.74 307.193C852.816 313.288 858.212 319.402 866.407 315.08C872.702 311.765 878.619 303.091 884.295 295.148C919.154 246.356 952.624 193.693 983.88 136.815C993.78 118.877 1003.74 99.2038 1007.45 80.4249C1010.32 65.9023 1009.18 53.7773 1008.03 42.3154Z" stroke="#E8E8E8" stroke-width="6.4039" stroke-miterlimit="10" stroke-linecap="round" stroke-linejoin="round" stroke-dasharray="0.03 13.25"/>
<path d="M1004.07 34.1943C996.163 -52.3799 978.898 -125.692 951.287 -184.03C923.107 -243.736 886.254 -291.152 842.773 -334.613C825.59 -351.809 806.746 -367.842 783.154 -376.103C774.342 -379.199 764.383 -381.169 753.208 -376.054C741.425 -370.663 729.939 -358.799 718.883 -347.384C699.005 -326.869 678.503 -305.332 663.723 -277.721C643.644 -240.281 635.335 -197.686 617.55 -155.672C604.825 -125.491 589.334 -100.859 575.362 -72.1868C564.509 -49.9315 567.906 -33.587 569.315 -15.3112C572.567 26.2561 583.165 59.2051 598.884 82.3299C618.741 111.369 646.016 126.181 673.452 140.163C738.948 172.743 801.626 211.877 849.75 289.973C853.522 295.95 858.542 301.952 866.37 297.812C872.399 294.626 878.152 286.175 883.68 278.455C917.419 231.351 949.912 180.542 980.244 125.685C989.863 108.369 999.538 89.3749 1003.23 71.2144C1006.1 57.112 1005.1 45.3233 1004.07 34.1943Z" stroke="#E8E8E8" stroke-width="6.5704" stroke-miterlimit="10" stroke-linecap="round" stroke-linejoin="round" stroke-dasharray="0.03 13.22"/>
<path d="M1000.2 25.9974C993.199 -57.4204 976.569 -127.535 950.127 -183.403C923.084 -240.661 887.837 -286.273 846.891 -328.654C830.746 -345.385 813.114 -361.081 791.017 -369.409C782.754 -372.528 773.417 -374.588 762.81 -369.757C751.572 -364.641 740.505 -353.179 729.844 -342.167C710.77 -322.464 691.067 -301.784 676.67 -275.12C657.106 -238.974 648.623 -197.795 631.397 -157.335C619.01 -128.139 604.155 -104.332 590.722 -76.6476C580.276 -55.1381 583.47 -39.2641 584.748 -21.5467C587.678 18.4503 597.732 50.1099 612.759 72.3044C631.729 100.127 657.85 114.292 684.103 127.677C746.691 158.907 806.591 196.466 851.027 272.513C854.517 278.353 859.188 284.221 866.654 280.256C872.425 277.192 878.004 268.968 883.377 261.483C915.956 216.101 947.418 167.193 976.777 114.4C986.097 97.7197 995.472 79.4183 999.137 61.8937C1002 48.2205 1001.12 36.7836 1000.2 25.9974Z" stroke="#E8E8E8" stroke-width="6.7368" stroke-miterlimit="10" stroke-linecap="round" stroke-linejoin="round" stroke-dasharray="0.03 13.2"/>
<path d="M996.409 17.7281C990.23 -62.4511 974.243 -129.378 948.971 -182.779C923.067 -237.589 889.42 -281.393 850.926 -322.62C835.782 -338.855 819.314 -354.174 798.648 -362.513C790.918 -365.636 782.172 -367.767 772.125 -363.21C761.425 -358.357 750.777 -347.301 740.517 -336.692C722.248 -317.805 703.353 -297.99 689.372 -272.304C670.371 -237.491 661.772 -197.781 645.133 -158.903C633.104 -130.707 618.893 -107.737 606.008 -81.0465C595.981 -60.2906 598.986 -44.9012 600.143 -27.7513C602.777 10.6523 612.297 41.0141 626.635 62.2783C644.719 88.8828 669.687 102.402 694.755 115.188C754.451 145.06 811.563 181.048 852.559 254.825C855.783 260.51 860.131 266.222 867.244 262.425C872.759 259.482 878.163 251.488 883.375 244.242C914.755 200.622 945.135 153.653 973.478 102.964C982.487 86.931 991.544 69.3359 995.162 52.4641C998 39.2377 997.226 28.1625 996.409 17.7281Z" stroke="#E8E8E8" stroke-width="6.9033" stroke-miterlimit="10" stroke-linecap="round" stroke-linejoin="round" stroke-dasharray="0.03 13.17"/>
<path d="M992.696 9.39294C987.247 -67.4725 971.915 -131.224 947.812 -182.152C923.046 -234.514 890.997 -276.502 854.875 -316.51C840.7 -332.221 825.346 -347.118 806.059 -355.42C798.837 -358.528 790.664 -360.709 781.163 -356.413C770.988 -351.815 760.762 -341.166 750.905 -330.963C733.449 -312.898 715.369 -293.957 701.834 -269.27C683.435 -235.829 674.784 -197.637 658.76 -160.367C647.11 -133.191 633.551 -111.059 621.226 -85.3785C611.625 -65.3824 614.454 -50.4911 615.503 -33.9163C617.863 2.87276 626.857 31.9269 640.509 52.2566C657.714 77.6401 681.524 90.5174 705.407 102.704C762.218 131.206 816.54 165.63 854.334 236.927C857.313 242.443 861.36 247.979 868.128 244.343C873.396 241.511 878.616 233.758 883.664 226.752C913.804 184.927 943.059 139.942 970.341 91.3942C979.025 76.0194 987.751 59.1446 991.302 42.9418C994.099 30.1672 993.42 19.4663 992.696 9.39294Z" stroke="#E8E8E8" stroke-width="7.0698" stroke-miterlimit="10" stroke-linecap="round" stroke-linejoin="round" stroke-dasharray="0.03 13.14"/>
<path d="M989.053 0.994861C984.251 -72.4843 969.59 -133.068 946.654 -181.527C923.028 -231.442 892.566 -271.61 858.742 -310.326C845.506 -325.486 831.221 -339.922 813.255 -348.139C806.523 -351.215 798.9 -353.425 789.936 -349.383C780.273 -345.029 770.475 -334.792 761.023 -324.996C744.382 -307.76 727.127 -289.696 714.066 -266.037C696.31 -234.002 687.661 -197.381 672.281 -161.744C661.026 -135.603 648.127 -114.318 636.377 -89.6567C627.211 -70.4303 629.877 -56.0439 630.825 -40.0542C632.942 -4.90566 641.368 22.9076 654.381 42.2318C670.658 66.4793 693.355 78.6279 716.058 90.2135C769.998 117.339 821.522 150.203 856.336 218.822C859.087 224.152 862.856 229.493 869.282 226.012C874.31 223.293 879.34 215.776 884.217 209.021C913.084 169.019 941.169 126.059 967.35 79.688C975.697 64.9852 984.076 48.8398 987.543 33.3207C990.29 21.0134 989.698 10.6987 989.053 0.994861Z" stroke="#E8E8E8" stroke-width="7.2363" stroke-miterlimit="10" stroke-linecap="round" stroke-linejoin="round" stroke-dasharray="0.03 13.12"/>
<path d="M985.476 -7.46275C981.247 -77.4903 967.265 -134.914 945.495 -180.903C923.01 -228.374 894.134 -266.717 862.529 -304.075C850.203 -318.657 836.939 -332.592 820.247 -340.678C813.983 -343.702 806.889 -345.924 798.449 -342.128C789.292 -338.009 779.92 -328.183 770.875 -318.8C755.062 -302.394 738.662 -285.196 726.075 -262.609C709.034 -231.982 700.408 -197.009 685.696 -163.031C674.856 -137.942 662.625 -117.511 651.456 -93.877C642.734 -75.4287 645.249 -61.5585 646.107 -46.1631C647.998 -12.6726 655.919 13.8266 668.248 32.2072C683.647 55.2281 705.182 66.7393 726.706 77.7206C777.784 103.459 826.503 134.772 858.551 200.525C861.089 205.658 864.6 210.78 870.696 207.452C875.484 204.837 880.322 197.568 885.021 191.063C912.582 152.919 939.451 112.015 964.495 67.8569C972.493 53.8346 980.51 38.4341 983.879 23.6128C986.568 11.7854 986.048 1.86256 985.476 -7.46275Z" stroke="#E8E8E8" stroke-width="7.4027" stroke-miterlimit="10" stroke-linecap="round" stroke-linejoin="round" stroke-dasharray="0.03 13.09"/>
<path d="M981.961 -15.9723C978.234 -82.4835 964.94 -136.759 944.34 -180.277C922.992 -225.303 895.695 -261.814 866.243 -297.756C854.794 -311.734 842.516 -325.13 827.041 -333.041C821.23 -335.998 814.643 -338.211 806.72 -334.652C798.056 -330.762 789.114 -321.347 780.482 -312.378C765.492 -296.809 749.935 -280.501 737.874 -258.988C721.548 -229.832 713.035 -196.525 699.017 -164.227C688.611 -140.203 677.052 -120.629 666.48 -98.0382C658.208 -80.3708 660.585 -67.0317 661.36 -52.2354C663.053 -20.4248 670.463 4.75061 682.118 22.1903C696.644 43.9846 717.013 54.8571 737.359 65.2347C785.585 89.5802 831.49 119.345 860.971 182.058C863.314 186.977 866.586 191.864 872.353 188.682C876.907 186.168 881.546 179.149 886.065 172.902C912.284 136.644 937.862 97.7819 961.773 55.9183C969.397 42.5695 977.058 27.9399 980.309 13.8305C982.927 2.48504 982.468 -7.03185 981.961 -15.9723Z" stroke="#E8E8E8" stroke-width="7.5692" stroke-miterlimit="10" stroke-linecap="round" stroke-linejoin="round" stroke-dasharray="0.03 13.06"/>
<path d="M978.5 -24.531C975.21 -87.4677 962.616 -138.606 943.18 -179.651C922.973 -222.23 897.253 -256.909 869.878 -291.366C859.281 -304.715 847.945 -317.538 833.645 -325.232C828.265 -328.109 822.168 -330.297 814.75 -326.965C806.57 -323.294 798.06 -314.294 789.842 -305.74C775.685 -291.01 760.975 -275.602 749.466 -255.187C733.893 -227.532 725.541 -195.932 712.243 -165.339C702.286 -142.397 691.407 -123.688 681.442 -102.146C673.632 -85.2673 675.878 -72.4668 676.582 -58.2788C678.093 -28.1664 685.007 -4.3204 695.985 12.1742C709.644 32.7349 728.845 42.9757 748.012 52.7488C793.391 75.6918 836.479 103.919 863.575 163.426C865.736 168.119 868.79 172.757 874.236 169.713C878.563 167.297 882.995 160.534 887.329 154.545C912.18 120.201 936.468 83.4606 959.169 43.8714C966.424 31.2235 973.698 17.3577 976.824 3.9714C979.359 -6.88077 978.954 -15.984 978.5 -24.531Z" stroke="#E8E8E8" stroke-width="7.7357" stroke-miterlimit="10" stroke-linecap="round" stroke-linejoin="round" stroke-dasharray="0.03 13.04"/>
<path d="M975.091 -33.1373C972.176 -92.4465 960.292 -140.454 942.022 -179.026C922.956 -219.162 898.803 -252 873.445 -284.921C863.674 -297.616 853.24 -309.833 840.068 -317.267C835.105 -320.047 829.478 -322.192 822.556 -319.082C814.851 -315.619 806.777 -307.04 798.972 -298.904C785.654 -285.02 771.797 -270.516 760.861 -251.216C746.073 -225.092 737.933 -195.242 725.374 -166.373C715.885 -144.524 705.693 -126.687 696.342 -106.204C688.998 -90.1226 691.129 -77.8707 691.764 -64.2987C693.118 -35.9006 699.54 -13.3911 709.848 2.15487C722.64 21.4848 740.667 31.091 758.659 40.2597C801.197 61.7933 841.468 88.4857 866.348 144.634C868.343 149.088 871.194 153.461 876.323 150.553C880.427 148.23 884.649 141.726 888.794 136.003C912.247 103.598 935.213 69.0081 956.675 31.7215C963.551 19.7821 970.428 6.69016 973.416 -5.96113C975.857 -16.306 975.496 -24.9913 975.091 -33.1373Z" stroke="#E8E8E8" stroke-width="7.9022" stroke-miterlimit="10" stroke-linecap="round" stroke-linejoin="round" stroke-dasharray="0.03 13.01"/>
<path d="M971.727 -41.782C969.136 -97.4139 957.969 -142.299 940.864 -178.4C922.939 -216.09 900.349 -247.085 876.947 -278.412C867.971 -290.431 858.405 -302.01 846.316 -309.147C841.755 -311.816 836.581 -313.905 830.147 -311.005C822.91 -307.746 815.27 -299.586 807.885 -291.869C795.409 -278.836 782.413 -265.241 772.075 -247.078C758.104 -222.513 750.222 -194.451 738.426 -167.33C729.415 -146.59 719.918 -129.626 711.192 -110.213C704.322 -94.9312 706.346 -83.2427 706.926 -70.2902C708.137 -43.6255 714.077 -22.4559 723.716 -7.86133C735.644 10.2321 752.499 19.2101 769.314 27.7716C809.023 47.8942 846.464 73.0553 869.288 125.705C871.127 129.91 873.791 134.001 878.61 131.228C882.495 128.994 886.503 122.753 890.453 117.297C912.484 86.8541 934.096 54.4407 954.287 19.484C960.772 8.26092 967.247 -4.04676 970.079 -15.9545C972.42 -25.7858 972.093 -34.0427 971.727 -41.782Z" stroke="#E8E8E8" stroke-width="8.0686" stroke-miterlimit="10" stroke-linecap="round" stroke-linejoin="round" stroke-dasharray="0.03 12.98"/>
<path d="M968.404 -50.464C966.081 -102.375 955.644 -144.146 939.705 -177.773C922.925 -213.021 901.89 -242.165 880.379 -271.846C872.178 -283.168 863.446 -294.076 852.399 -300.88C848.224 -303.426 843.485 -305.441 837.531 -302.748C830.752 -299.685 823.552 -291.945 816.586 -284.653C804.952 -272.47 792.826 -259.791 783.105 -242.784C769.979 -219.802 762.4 -193.568 751.386 -168.212C742.873 -148.59 734.074 -132.508 725.985 -114.173C719.595 -99.6992 721.522 -88.5776 722.052 -76.2551C723.138 -51.3391 728.604 -31.5195 737.575 -17.8749C748.644 -1.01996 764.327 7.32768 779.963 15.2847C816.845 33.9873 851.451 57.6226 872.369 106.647C874.067 110.595 876.558 114.388 881.071 111.745C884.737 109.598 888.527 103.627 892.28 98.44C912.864 69.9831 933.092 39.7733 951.99 7.16691C958.075 -3.33279 964.138 -14.8478 966.808 -26.0008C969.038 -35.3163 968.733 -43.1356 968.404 -50.464Z" stroke="#E8E8E8" stroke-width="8.2351" stroke-miterlimit="10" stroke-linecap="round" stroke-linejoin="round" stroke-dasharray="0.03 12.96"/>
<path d="M965.118 -59.1776C963.027 -107.326 953.323 -145.994 938.546 -177.149C922.91 -209.954 903.427 -237.242 883.753 -265.228C876.299 -275.829 868.387 -286.078 858.326 -292.476C854.528 -294.9 850.202 -296.81 844.72 -294.319C838.392 -291.446 831.63 -284.129 825.09 -277.257C814.306 -265.933 803.052 -254.174 793.969 -238.34C781.718 -216.97 774.484 -192.596 764.274 -169.026C756.272 -150.536 748.177 -135.338 740.73 -118.091C734.828 -104.426 736.666 -93.8843 737.156 -82.1975C738.133 -59.0465 743.132 -40.5774 751.438 -27.8891C761.648 -12.2762 776.153 -4.55468 790.614 2.79656C824.673 20.0756 856.447 42.1907 875.585 87.4707C877.149 91.1506 879.484 94.6346 883.693 92.118C887.144 90.0549 890.716 84.353 894.266 79.4417C913.381 52.9898 932.202 25.0039 949.779 -5.22961C955.458 -14.9989 961.099 -25.7149 963.593 -36.1033C965.705 -44.8904 965.42 -52.2658 965.118 -59.1776Z" stroke="#E8E8E8" stroke-width="8.4016" stroke-miterlimit="10" stroke-linecap="round" stroke-linejoin="round" stroke-dasharray="0.03 12.93"/>
<path d="M961.862 -67.9198C959.958 -112.274 950.998 -147.842 937.388 -176.524C922.894 -206.886 904.955 -232.31 887.065 -258.554C880.341 -268.414 873.196 -277.939 864.102 -283.939C860.662 -286.213 856.739 -288.02 851.724 -285.726C845.839 -283.034 839.522 -276.142 833.404 -269.697C823.472 -259.233 813.099 -248.399 804.673 -233.754C793.325 -214.018 786.473 -191.535 777.082 -169.772C769.601 -152.425 762.219 -138.115 755.423 -121.965C750.017 -109.115 751.775 -99.1641 752.23 -88.1164C753.118 -66.7431 757.652 -49.6357 765.299 -37.9024C774.651 -23.5323 787.977 -16.4348 801.264 -9.69007C832.506 6.16324 861.441 26.759 878.918 68.1913C880.359 71.5943 882.549 74.7595 886.458 72.3672C889.697 70.3861 893.043 64.9587 896.388 60.3247C914.015 35.9003 931.398 10.1554 947.635 -17.6842C952.903 -26.7176 958.109 -36.6281 960.425 -46.2428C962.413 -54.5008 962.141 -61.4295 961.862 -67.9198Z" stroke="#E8E8E8" stroke-width="8.568" stroke-miterlimit="10" stroke-linecap="round" stroke-linejoin="round" stroke-dasharray="0.03 12.91"/>
<path d="M958.633 -76.6842C956.881 -117.209 948.676 -149.689 936.229 -175.898C922.878 -203.816 906.481 -227.374 890.32 -251.83C884.304 -260.935 877.898 -269.708 869.735 -275.274C866.639 -277.387 863.11 -279.079 858.554 -276.975C853.106 -274.459 847.233 -267.995 841.539 -261.974C832.462 -252.378 822.975 -242.469 815.226 -229.03C804.803 -210.951 798.373 -190.389 789.82 -170.452C782.872 -154.252 776.207 -140.838 770.074 -125.796C765.166 -113.765 766.854 -104.412 767.279 -94.009C768.089 -74.428 772.169 -58.6866 779.157 -47.9118C787.658 -34.7865 799.804 -28.3123 811.914 -22.1748C840.341 -7.75141 866.44 11.3241 882.353 48.8209C883.683 51.9422 885.737 54.7717 889.349 52.5023C892.379 50.6003 895.497 45.4517 898.636 41.0958C914.757 18.7171 930.687 -4.76729 945.558 -30.1968C950.411 -38.4878 955.175 -47.5866 957.302 -56.4235C959.159 -64.1439 958.899 -70.621 958.633 -76.6842Z" stroke="#E8E8E8" stroke-width="8.7345" stroke-miterlimit="10" stroke-linecap="round" stroke-linejoin="round" stroke-dasharray="0.03 12.88"/>
<path d="M955.426 -85.4671C953.801 -122.14 946.355 -151.535 935.071 -175.27C922.863 -200.746 907.998 -222.429 893.519 -245.056C888.19 -253.383 882.499 -261.381 875.235 -266.49C872.473 -268.436 869.318 -269.997 865.216 -268.079C860.198 -265.733 854.77 -259.697 849.505 -254.106C841.287 -245.379 832.687 -236.401 825.632 -224.183C816.158 -207.779 810.188 -189.166 802.485 -171.072C796.086 -156.033 790.143 -143.518 784.675 -129.591C780.275 -118.381 781.897 -109.635 782.302 -99.8864C783.047 -82.1069 786.685 -67.7379 793.013 -57.9229C800.664 -46.0467 811.624 -40.1923 822.56 -34.6613C848.178 -21.67 871.44 -4.11454 885.881 29.3679C887.106 32.1982 889.036 34.6879 892.353 32.5371C895.174 30.7094 898.061 25.8452 900.988 21.7715C915.585 1.45406 930.04 -19.7564 943.536 -42.7603C947.963 -50.3062 952.286 -58.587 954.215 -66.6374C955.937 -73.8161 955.677 -79.8331 955.426 -85.4671Z" stroke="#E8E8E8" stroke-width="8.901" stroke-miterlimit="10" stroke-linecap="round" stroke-linejoin="round" stroke-dasharray="0.03 12.85"/>
<path d="M952.234 -94.2647C950.715 -127.067 944.033 -153.383 933.913 -174.645C922.85 -197.678 909.513 -217.481 896.671 -238.239C892.01 -245.772 887.006 -252.977 880.61 -257.597C878.172 -259.36 875.38 -260.783 871.727 -259.048C867.131 -256.865 862.153 -251.262 857.318 -246.1C849.964 -238.247 842.256 -230.203 835.906 -219.218C827.406 -204.514 821.926 -187.868 815.089 -171.638C809.246 -157.761 804.032 -146.151 799.239 -133.348C795.352 -122.963 796.916 -114.835 797.307 -105.74C797.996 -89.7751 801.196 -76.7834 806.869 -67.9317C813.673 -57.3054 823.449 -52.0715 833.208 -47.1456C856.018 -35.5883 876.45 -19.5559 889.487 9.84688C890.613 12.3821 892.43 14.5192 895.452 12.4905C898.069 10.735 900.719 6.15666 903.436 2.36726C916.5 -15.8735 929.461 -34.7994 941.563 -55.3651C945.56 -62.1596 949.43 -69.6181 951.158 -76.8773C952.737 -83.5092 952.477 -89.0648 952.234 -94.2647Z" stroke="#E8E8E8" stroke-width="9.0675" stroke-miterlimit="10" stroke-linecap="round" stroke-linejoin="round" stroke-dasharray="0.03 12.83"/>
<path d="M949.055 -103.074C947.623 -131.986 941.708 -155.232 932.756 -174.019C922.836 -194.612 911.021 -212.525 899.772 -231.38C895.761 -238.102 891.42 -244.491 885.869 -248.6C883.743 -250.177 881.304 -251.445 878.091 -249.886C873.915 -247.864 869.385 -242.693 864.981 -237.962C858.492 -230.986 851.683 -223.876 846.056 -214.139C838.547 -201.149 833.597 -186.496 827.634 -172.146C822.359 -159.442 817.879 -148.739 813.765 -137.071C810.394 -127.512 811.909 -120.008 812.29 -111.578C812.93 -97.432 815.704 -85.8308 820.724 -77.9397C826.681 -68.5652 835.272 -63.9511 843.855 -59.6297C863.856 -49.5079 881.472 -35.0119 893.154 -9.73091C894.19 -7.49093 895.896 -5.72037 898.629 -7.62826C901.045 -9.31377 903.457 -13.5999 905.957 -17.1071C917.475 -33.2564 928.928 -49.8852 939.624 -68.0036C943.189 -74.0437 946.604 -80.6771 948.124 -87.1408C949.558 -93.2204 949.291 -98.3082 949.055 -103.074Z" stroke="#E8E8E8" stroke-width="9.2339" stroke-miterlimit="10" stroke-linecap="round" stroke-linejoin="round" stroke-dasharray="0.03 12.8"/>
</g>
</svg>
