<svg width="800" height="730" viewBox="0 0 800 730" fill="none" xmlns="http://www.w3.org/2000/svg">
<mask id="mask0_16_5000" style="mask-type:alpha" maskUnits="userSpaceOnUse" x="0" y="0" width="800" height="730">
<rect x="0.5" y="0.5" width="799" height="729" fill="#D9D9D9" stroke="#E8E8E8"/>
</mask>
<g mask="url(#mask0_16_5000)">
<path d="M730.058 464.799C673.104 537.048 605.345 579.403 530.138 613.682C441.552 655.032 342.649 689.398 216.366 709.908C87.7032 728.311 -68.3427 732.859 -326.18 665.93C-364.825 655.825 -413.265 640.14 -444.712 620.638C-467.713 606.4 -473.624 595.013 -477.955 584.699C-507.107 515.303 -517.16 446.691 -527.637 363.648C-531.023 337.707 -532.784 309.522 -514.16 287.98C-500.692 272.275 -478.857 261.513 -459.771 249.557C-300.173 146.784 -268.579 -56.735 -195.268 -207.774C-124.14 -360.744 -23.5182 -474.312 206.281 -479.203C299.739 -481.391 419.012 -462.065 565.047 -409.686C618.92 -390.591 679.21 -365.336 725.371 -337.688C770.845 -310.456 795.814 -285.416 818.565 -261.748C862.674 -215.941 903.161 -170.922 898.632 -137.318C895.815 -114.06 875.003 -95.8317 858.174 -72.2142C840.9 -48.9905 827.609 -20.3756 829.577 14.5792C832.777 62.4208 864.753 111.671 885.671 165.82C901.968 207.575 876.383 228.912 859 258.662C814.199 333.928 775.091 409.041 730.058 464.799Z" stroke="#E8E8E8" stroke-width="0.2444" stroke-miterlimit="10" stroke-linecap="round" stroke-linejoin="round" stroke-dasharray="0.04 14.23"/>
<path d="M-449.168 247.318C-297.685 141.327 -266.171 -58.5108 -194.11 -207.149C-124.103 -357.657 -25.2005 -469.513 196.766 -478.017C287.019 -481.656 401.864 -464.842 542.513 -415.974C594.41 -398.165 652.486 -374.408 697.291 -347.743C741.448 -321.46 766.153 -296.699 788.694 -273.258C832.381 -227.935 872.67 -183.235 869.767 -148.799C868.052 -124.985 848.968 -105.826 833.647 -81.5009C817.905 -57.5485 805.927 -28.4312 808.65 6.65372C812.801 54.6702 844.603 103.493 865.781 157.351C882.252 198.881 857.734 220.504 841.121 250.265C798.385 325.501 760.257 399.709 716.087 454.691C660.212 525.893 593.412 567.428 519.566 601.264C432.566 642.058 335.759 676.283 213.378 698.08C88.7318 717.873 -61.4862 725.239 -307.575 666.063C-344.475 657.11 -390.728 642.921 -421.21 624.128C-443.513 610.4 -449.639 598.904 -454.235 588.449C-485.204 518.151 -497.957 448.129 -510.924 364.087C-515.082 337.835 -517.714 309.302 -500.496 287.129C-488.028 270.957 -467.306 259.67 -449.168 247.318Z" stroke="#E8E8E8" stroke-width="0.4108" stroke-miterlimit="10" stroke-linecap="round" stroke-linejoin="round" stroke-dasharray="0.04 14.2"/>
<path d="M-438.837 244.838C-295.182 135.878 -263.77 -60.2889 -192.954 -206.526C-124.068 -354.573 -26.885 -464.716 187.442 -476.664C274.567 -481.685 385.105 -467.281 520.515 -421.793C570.484 -405.222 626.409 -382.912 669.886 -357.203C712.752 -331.848 737.184 -307.367 759.516 -284.16C802.766 -239.331 842.84 -194.969 841.486 -159.769C840.826 -135.441 823.4 -115.411 809.531 -90.4286C795.258 -65.8036 784.541 -36.2261 787.982 -1.04911C793.038 47.0993 824.651 95.479 846.056 149.026C862.681 190.31 839.197 212.193 823.328 241.942C782.597 317.094 745.432 390.383 702.122 444.585C647.321 514.737 581.485 555.456 508.992 588.845C423.571 629.076 328.834 663.136 210.26 686.134C89.5355 707.23 -55.023 717.266 -289.747 665.508C-324.96 657.659 -369.092 644.9 -398.638 626.796C-420.259 613.563 -426.581 601.97 -431.432 591.387C-464.101 520.291 -479.41 448.985 -494.732 364.061C-499.619 337.538 -503.079 308.696 -487.209 285.939C-475.708 269.336 -456.058 257.559 -438.837 244.838Z" stroke="#E8E8E8" stroke-width="0.5773" stroke-miterlimit="10" stroke-linecap="round" stroke-linejoin="round" stroke-dasharray="0.04 14.17"/>
<path d="M-428.768 242.126C-292.667 130.444 -261.369 -62.0678 -191.796 -205.901C-124.036 -351.487 -28.5682 -459.915 178.31 -475.141C262.39 -481.476 368.735 -469.373 499.044 -427.142C547.138 -411.765 600.969 -390.847 643.148 -366.07C684.754 -341.615 708.908 -317.422 731.024 -294.453C773.817 -250.133 813.654 -206.128 813.78 -170.228C814.121 -145.432 798.29 -124.588 785.813 -98.9997C772.953 -73.7509 763.449 -43.7616 767.567 -8.52477C773.486 39.7156 804.889 87.6387 826.494 140.845C843.252 181.866 820.771 203.982 805.628 233.7C766.837 308.713 730.621 381.069 688.162 434.483C634.429 503.58 569.563 543.488 498.416 576.422C414.566 616.084 321.87 649.957 207.013 674.077C90.1133 696.391 -48.9536 708.95 -272.682 664.278C-306.263 657.482 -348.345 646.093 -376.978 628.659C-397.936 615.907 -404.441 604.231 -409.528 593.531C-443.785 521.736 -461.508 449.272 -479.054 363.585C-484.631 336.826 -488.872 307.714 -474.299 284.422C-463.718 267.421 -445.106 255.186 -428.768 242.126Z" stroke="#E8E8E8" stroke-width="0.7438" stroke-miterlimit="10" stroke-linecap="round" stroke-linejoin="round" stroke-dasharray="0.04 14.15"/>
<path d="M-418.958 239.185C-290.139 125.02 -258.976 -63.8503 -190.641 -205.276C-124.002 -348.403 -30.2501 -455.114 169.365 -473.451C250.472 -481.029 352.739 -471.132 478.09 -432.036C524.361 -417.805 576.151 -398.231 617.061 -374.362C657.433 -350.786 681.304 -326.882 703.195 -304.161C745.525 -260.36 785.099 -216.733 786.632 -180.195C786.901 -131.806 735.55 -88.3703 747.396 -15.7861C754.128 32.5068 785.307 79.9577 807.087 132.801C823.957 173.542 802.448 195.862 788.007 225.525C751.096 300.347 715.809 371.755 674.201 424.379C621.528 492.411 557.638 531.519 487.833 563.991C405.546 603.078 314.873 636.742 203.638 661.901C90.4668 685.348 -43.2657 700.29 -256.368 662.379C-288.373 656.587 -328.475 646.511 -356.214 629.721C-376.525 617.435 -383.202 605.687 -388.505 594.886C-424.241 522.491 -444.238 448.991 -463.877 362.657C-470.099 335.695 -475.079 306.354 -461.749 282.576C-452.056 265.218 -434.443 252.557 -418.958 239.185Z" stroke="#E8E8E8" stroke-width="0.9103" stroke-miterlimit="10" stroke-linecap="round" stroke-linejoin="round" stroke-dasharray="0.04 14.12"/>
<path d="M-409.402 236.02C-287.595 119.608 -256.582 -65.6354 -189.482 -204.651C-123.969 -345.317 -31.9294 -450.312 160.608 -471.595C238.819 -480.352 337.12 -472.56 457.646 -436.474C502.145 -423.347 551.952 -405.069 591.621 -382.081C630.788 -359.355 654.371 -335.75 676.031 -313.277C717.882 -270.008 757.174 -226.778 760.042 -189.664C762.236 -140.409 714.526 -95.3019 727.471 -22.826C734.972 25.4759 765.915 72.445 787.838 124.899C804.799 165.342 784.235 187.842 770.474 217.433C735.383 292.007 701.014 362.458 660.247 414.285C608.626 481.249 545.722 519.561 477.248 551.564C396.52 590.07 307.842 623.503 200.141 649.624C90.6068 674.123 -37.9492 691.308 -240.786 659.838C-271.266 655.003 -309.458 646.176 -336.325 630.016C-356.001 618.182 -362.836 606.374 -368.347 595.487C-405.45 522.588 -427.584 448.173 -449.189 361.304C-456.023 334.176 -461.696 304.645 -449.554 280.425C-440.713 262.73 -424.064 249.678 -409.402 236.02Z" stroke="#E8E8E8" stroke-width="1.0767" stroke-miterlimit="10" stroke-linecap="round" stroke-linejoin="round" stroke-dasharray="0.04 14.1"/>
<path d="M-400.096 232.632C-285.044 114.205 -254.191 -67.4224 -188.325 -204.027C-123.936 -342.234 -33.6073 -445.51 152.031 -469.58C227.422 -479.448 321.869 -473.662 437.705 -440.472C480.479 -428.406 528.36 -411.371 566.813 -389.241C604.8 -367.343 628.088 -344.04 649.511 -321.825C690.87 -279.1 729.859 -236.283 733.993 -198.656C738.013 -148.624 693.804 -101.97 707.784 -29.6574C716.012 18.6169 746.697 65.0858 768.738 117.129C785.772 157.255 766.121 179.91 753.017 209.411C719.685 283.685 686.218 353.161 646.289 404.189C595.714 470.078 533.803 507.602 466.653 539.131C387.471 577.044 300.871 610.359 196.647 637.408C90.6946 662.929 -32.882 682.183 -225.937 656.654C-254.928 652.755 -291.293 645.094 -317.31 629.544C-336.373 618.147 -343.348 606.291 -349.048 595.33C-387.411 522.021 -411.548 446.814 -434.995 359.519C-442.399 332.257 -448.728 302.571 -437.72 277.958C-429.689 259.964 -413.965 246.549 -400.096 232.632Z" stroke="#E8E8E8" stroke-width="1.2432" stroke-miterlimit="10" stroke-linecap="round" stroke-linejoin="round" stroke-dasharray="0.04 14.07"/>
<path d="M-391.032 229.032C-282.475 108.815 -251.804 -69.2145 -187.167 -203.402C-123.903 -339.149 -35.2813 -440.703 143.634 -467.405C216.28 -478.321 306.977 -474.446 418.259 -444.03C459.36 -432.98 505.367 -417.141 542.63 -395.848C579.466 -374.754 602.455 -351.758 623.634 -329.806C664.484 -287.635 703.155 -245.249 708.486 -207.171C714.254 -156.428 673.625 -108.341 688.339 -36.2783C697.391 11.9345 727.659 57.8831 749.798 109.496C766.885 149.286 748.119 172.073 735.65 201.461C704.02 275.383 671.442 343.876 632.342 394.096C582.811 458.906 521.897 495.645 456.065 526.695C378.424 564.014 293.789 597.077 192.934 624.943C90.4431 651.363 -28.2702 672.584 -211.786 652.841C-239.356 649.812 -273.94 643.28 -299.131 628.321C-317.593 617.346 -324.701 605.455 -330.575 594.432C-370.092 520.808 -396.104 444.922 -421.267 357.311C-429.202 329.95 -436.144 300.147 -426.221 275.184C-418.97 256.924 -404.143 243.179 -391.032 229.032Z" stroke="#E8E8E8" stroke-width="1.4097" stroke-miterlimit="10" stroke-linecap="round" stroke-linejoin="round" stroke-dasharray="0.04 14.04"/>
<path d="M-382.207 225.217C-279.896 103.437 -249.419 -71.008 -186.01 -202.779C-123.873 -336.067 -36.9559 -435.897 135.417 -465.076C205.384 -476.973 292.445 -474.913 399.3 -447.159C438.774 -437.082 482.96 -422.394 519.064 -401.912C554.773 -381.6 577.456 -358.915 598.385 -337.232C638.72 -295.626 677.045 -253.689 683.507 -215.219C690.91 -163.866 653.534 -114.476 669.122 -42.6916C678.832 5.41209 708.798 50.8407 731.003 101.994C748.123 141.435 730.215 164.324 718.361 193.584C688.373 267.103 656.667 334.596 618.393 384.007C569.898 447.733 509.989 483.693 445.469 514.256C369.365 550.974 286.676 583.768 189.101 612.375C89.9843 639.618 -24.0142 662.674 -198.331 648.416C-224.528 646.212 -257.4 640.753 -281.783 626.367C-299.662 615.802 -306.882 603.887 -312.92 592.814C-353.492 518.965 -381.241 442.517 -408.003 354.696C-416.435 327.268 -423.947 297.386 -415.059 272.116C-408.553 253.617 -394.583 239.573 -382.207 225.217Z" stroke="#E8E8E8" stroke-width="1.5761" stroke-miterlimit="10" stroke-linecap="round" stroke-linejoin="round" stroke-dasharray="0.04 14.02"/>
<path d="M-373.618 221.197C-277.304 98.0692 -247.038 -72.802 -184.853 -202.154C-123.84 -332.984 -38.6275 -431.087 127.37 -462.59C194.732 -475.408 278.26 -475.07 380.817 -449.862C418.711 -440.72 461.132 -427.133 496.097 -407.44C530.702 -387.888 553.08 -365.517 573.751 -344.107C613.556 -303.078 651.518 -261.611 659.045 -222.804C667.989 -170.927 633.733 -120.352 650.136 -48.9007C660.457 -0.941229 690.11 43.952 712.353 94.6251C729.489 133.698 712.409 156.667 701.15 185.778C672.747 258.844 641.902 325.328 604.449 373.921C556.983 436.557 498.084 471.743 434.871 501.817C360.296 537.926 279.527 570.43 185.151 599.706C89.3249 627.697 -20.1065 652.457 -185.56 643.387C-210.436 641.963 -241.655 637.522 -265.252 623.689C-282.561 613.519 -289.886 601.591 -296.071 590.484C-337.593 516.501 -366.957 439.6 -395.2 351.675C-404.088 324.214 -412.133 294.284 -404.231 268.754C-398.434 250.048 -385.292 235.733 -373.618 221.197Z" stroke="#E8E8E8" stroke-width="1.7426" stroke-miterlimit="10" stroke-linecap="round" stroke-linejoin="round" stroke-dasharray="0.04 13.99"/>
<path d="M-365.255 216.974C-274.697 92.7123 -244.658 -74.6004 -183.695 -201.529C-123.807 -329.901 -40.296 -426.277 119.497 -459.953C184.327 -473.632 264.42 -474.922 362.808 -452.152C399.166 -443.902 439.875 -431.372 473.729 -412.446C507.26 -393.631 529.321 -371.581 549.731 -350.448C588.992 -310.009 626.573 -269.023 635.098 -229.939C645.49 -177.618 614.222 -125.973 631.382 -54.9135C642.274 -7.13332 671.595 37.2097 693.856 87.3816C710.987 126.07 694.654 149.054 684.022 178.039C657.008 250.504 627.154 316.067 590.512 363.836C544.067 425.376 486.187 459.796 424.274 489.373C351.221 524.869 272.349 557.066 181.096 586.939C88.4748 615.602 -16.5326 641.941 -173.449 637.769C-197.052 637.084 -226.682 633.606 -249.512 620.309C-266.266 610.522 -273.684 598.592 -280.002 587.461C-322.376 513.431 -353.232 436.189 -382.837 348.26C-392.15 320.795 -400.685 290.855 -393.722 265.105C-388.603 246.224 -376.253 231.666 -365.255 216.974Z" stroke="#E8E8E8" stroke-width="1.9091" stroke-miterlimit="10" stroke-linecap="round" stroke-linejoin="round" stroke-dasharray="0.03 13.96"/>
<path d="M-357.119 212.552C-272.081 87.3687 -242.282 -76.4023 -182.537 -200.903C-123.777 -326.82 -41.9671 -421.465 111.792 -457.168C174.157 -471.645 250.92 -474.476 345.258 -454.032C380.128 -446.634 419.171 -435.116 451.94 -416.935C484.418 -398.835 506.161 -377.109 526.301 -356.263C565.008 -316.418 602.186 -275.936 611.648 -236.633C623.397 -183.948 594.988 -131.35 612.841 -60.7313C624.264 -13.1699 653.242 30.6146 675.493 80.2605C692.6 118.549 677.035 141.56 666.964 170.366C641.412 242.27 612.404 306.808 576.571 353.753C531.145 414.192 474.289 447.85 413.668 476.925C342.131 511.803 265.14 543.672 176.927 574.074C87.4271 603.335 -13.2941 631.13 -162.001 631.57C-184.379 631.581 -212.517 629.022 -234.559 616.235C-250.806 606.825 -258.272 594.897 -264.707 583.754C-307.835 509.762 -340.06 432.289 -370.918 344.456C-380.619 317.02 -389.606 287.103 -383.536 261.173C-379.057 242.147 -367.468 227.377 -357.119 212.552Z" stroke="#E8E8E8" stroke-width="2.0756" stroke-miterlimit="10" stroke-linecap="round" stroke-linejoin="round" stroke-dasharray="0.03 13.94"/>
<path d="M-349.204 207.935C-269.45 82.0314 -239.91 -78.2035 -181.382 -200.279C-123.748 -323.736 -43.6322 -416.65 104.249 -454.236C164.212 -469.451 237.749 -473.735 328.161 -455.51C361.584 -448.928 399.067 -438.391 430.719 -420.916C462.23 -403.524 483.59 -382.113 503.456 -361.554C541.598 -322.32 578.357 -282.354 588.69 -242.888C601.709 -189.917 576.029 -136.48 594.517 -66.353C606.431 -19.0441 635.05 24.1671 657.268 73.2667C674.336 111.14 659.514 134.154 649.981 162.76C625.832 234.058 597.661 297.558 562.631 343.672C518.216 403.007 462.389 435.907 403.057 464.475C333.03 498.729 257.895 530.252 172.646 561.112C86.1877 590.903 -10.3851 620.03 -151.195 624.804C-172.391 625.468 -199.064 623.771 -220.376 611.482C-236.099 602.433 -243.63 590.523 -250.171 579.379C-293.958 505.512 -327.43 427.909 -359.428 340.274C-369.485 312.896 -378.888 283.036 -373.663 256.97C-369.789 237.825 -358.927 222.87 -349.204 207.935Z" stroke="#E8E8E8" stroke-width="2.242" stroke-miterlimit="10" stroke-linecap="round" stroke-linejoin="round" stroke-dasharray="0.03 13.91"/>
<path d="M-341.499 203.13C-266.808 76.7096 -237.538 -80.0083 -180.226 -199.655C-123.72 -320.655 -45.2979 -411.833 96.8719 -451.159C154.501 -467.054 224.907 -472.704 311.511 -456.593C343.534 -450.783 379.454 -441.177 410.069 -424.401C440.575 -407.685 461.605 -386.603 481.192 -366.34C518.756 -327.724 555.076 -288.293 566.219 -248.716C580.419 -195.54 557.347 -141.37 576.411 -71.7878C588.778 -24.7644 617.117 17.8316 639.184 66.393C656.263 103.81 642.088 126.827 633.074 155.221C610.284 225.861 582.929 288.314 548.697 333.593C505.29 391.816 450.499 423.968 392.447 452.023C323.922 485.648 250.626 516.806 168.264 548.059C84.7685 578.306 -7.78959 608.65 -141.01 617.486C-161.073 618.764 -186.33 617.877 -206.935 606.07C-222.147 597.368 -229.731 585.485 -236.367 574.353C-280.717 500.693 -315.326 423.067 -348.352 335.722C-358.73 308.433 -368.51 278.662 -364.087 252.498C-360.79 233.261 -350.628 218.15 -341.499 203.13Z" stroke="#E8E8E8" stroke-width="2.4085" stroke-miterlimit="10" stroke-linecap="round" stroke-linejoin="round" stroke-dasharray="0.03 13.88"/>
<path d="M-334.004 198.14C-263.886 71.6032 -235.172 -81.8169 -179.066 -199.03C-123.688 -317.575 -46.9583 -407.017 89.6573 -447.941C145.018 -464.458 212.391 -471.387 295.301 -457.29C325.965 -452.217 360.372 -443.496 389.966 -427.397C419.497 -411.337 440.191 -390.587 459.491 -370.623C496.466 -332.636 532.331 -293.756 544.225 -254.121C559.518 -200.812 538.929 -146.023 558.515 -77.0338C571.293 -30.336 599.254 11.6642 621.235 59.6384C638.241 96.6056 624.755 119.584 616.241 147.746C594.754 217.685 568.204 279.078 534.766 323.517C492.358 380.626 438.606 412.029 381.833 439.568C314.807 472.56 243.328 503.338 163.781 534.916C83.1751 565.556 -5.50312 596.997 -131.436 609.625C-150.411 611.477 -174.315 611.35 -194.224 600.008C-208.94 591.643 -216.567 579.796 -223.284 568.688C-268.109 495.316 -303.735 417.766 -337.686 330.809C-348.351 303.637 -358.476 273.986 -354.807 247.764C-352.056 228.466 -342.53 213.248 -334.004 198.14Z" stroke="#E8E8E8" stroke-width="2.575" stroke-miterlimit="10" stroke-linecap="round" stroke-linejoin="round" stroke-dasharray="0.03 13.86"/>
<path d="M-326.714 192.968C-261.2 66.3172 -232.806 -83.6273 -177.908 -198.406C-123.658 -314.493 -48.6131 -402.196 82.5979 -444.584C135.754 -461.668 200.188 -469.793 279.522 -457.603C308.87 -453.231 341.807 -445.353 370.411 -429.91C398.984 -414.487 419.339 -394.073 438.348 -374.415C474.721 -337.067 510.113 -298.753 522.698 -259.112C539.003 -205.748 520.777 -150.441 540.828 -82.0967C553.978 -35.7548 581.548 5.63349 603.416 53.003C620.335 89.5042 607.509 112.422 599.478 140.336C579.24 209.53 553.49 269.851 520.838 313.446C479.427 369.432 426.723 400.096 371.219 427.112C305.686 459.464 236.003 489.843 159.198 521.684C81.3995 552.649 -3.52131 585.075 -122.463 601.235C-140.393 603.623 -162.994 604.207 -182.232 593.316C-196.462 585.275 -204.12 573.476 -210.906 562.401C-256.114 489.394 -292.648 412.021 -327.419 325.542C-338.34 298.514 -348.774 269.017 -345.818 242.773C-343.585 223.44 -334.694 208.118 -326.714 192.968Z" stroke="#E8E8E8" stroke-width="2.7415" stroke-miterlimit="10" stroke-linecap="round" stroke-linejoin="round" stroke-dasharray="0.03 13.83"/>
<path d="M-319.623 187.622C-258.503 61.0418 -230.439 -85.4391 -176.753 -197.779C-123.63 -311.412 -50.2727 -397.373 75.6922 -441.086C126.711 -458.681 188.292 -467.922 264.162 -457.543C292.237 -453.833 323.75 -446.759 351.384 -431.951C379.024 -417.143 399.036 -397.073 417.746 -377.721C453.508 -341.022 488.408 -303.288 501.627 -263.696C518.859 -210.347 502.881 -154.63 523.342 -86.9781C536.826 -41.0264 563.992 -0.259309 585.729 46.4837C602.542 82.507 590.358 105.34 582.785 132.988C563.753 201.394 538.779 260.631 506.912 303.378C466.489 358.24 414.838 388.169 360.602 414.658C296.554 446.366 228.653 476.33 154.518 508.372C79.4552 539.593 -1.83652 572.894 -114.075 592.332C-131.004 595.217 -152.358 596.464 -170.941 586.007C-184.7 578.279 -192.341 566.534 -199.22 555.508C-244.493 482.92 -282.069 405.832 -317.546 319.931C-328.693 293.076 -339.456 263.748 -337.113 237.537C-335.406 218.18 -327.079 202.791 -319.623 187.622Z" stroke="#E8E8E8" stroke-width="2.9079" stroke-miterlimit="10" stroke-linecap="round" stroke-linejoin="round" stroke-dasharray="0.03 13.8"/>
<path d="M-312.728 182.103C-255.793 55.777 -228.079 -87.25 -175.594 -197.153C-123.6 -308.33 -51.9261 -392.547 68.9375 -437.458C117.876 -455.509 176.701 -465.786 249.216 -457.118C276.056 -454.035 306.191 -447.726 332.88 -433.534C359.606 -419.324 379.27 -399.595 397.68 -380.561C432.818 -344.519 467.211 -307.381 481.006 -267.888C499.085 -214.626 485.237 -158.599 506.055 -91.6865C519.836 -46.1595 546.586 -6.0248 568.17 40.0735C584.86 75.602 573.289 98.3323 566.161 125.698C548.281 193.269 524.078 251.414 492.988 293.308C453.548 347.04 402.958 376.239 349.979 402.194C287.413 433.254 221.272 462.786 149.741 494.968C77.346 526.384 -0.441041 560.452 -106.258 582.915C-122.228 586.26 -142.385 588.124 -160.331 578.088C-173.63 570.662 -181.282 558.984 -188.205 548.012C-233.686 475.935 -271.955 399.221 -308.053 313.977C-319.394 287.324 -330.396 258.206 -328.682 232.048C-327.436 212.712 -319.686 197.273 -312.728 182.103Z" stroke="#E8E8E8" stroke-width="3.0744" stroke-miterlimit="10" stroke-linecap="round" stroke-linejoin="round" stroke-dasharray="0.03 13.78"/>
<path d="M-306.022 176.415C-253.07 50.522 -225.722 -89.0674 -174.438 -196.53C-123.573 -305.25 -53.5768 -387.721 62.3344 -433.698C109.251 -452.153 165.41 -463.385 234.68 -456.334C260.325 -453.842 289.126 -448.258 314.886 -434.662C340.72 -421.032 359.972 -401.643 378.138 -382.934C412.531 -347.543 446.513 -311.032 460.828 -271.685C479.675 -218.582 467.843 -162.347 488.965 -96.22C503.005 -51.1494 529.327 -11.6582 550.736 33.7763C567.288 68.7959 556.307 91.4016 549.606 118.469C532.831 185.164 509.382 242.205 479.069 283.242C440.608 335.84 391.081 364.311 339.358 389.732C278.27 420.138 213.872 449.224 144.875 481.486C75.0722 513.034 0.674391 547.76 -98.9968 573.007C-114.049 576.776 -133.061 579.214 -150.385 569.58C-163.239 562.443 -170.887 550.841 -177.842 539.938C-223.447 468.444 -262.305 392.2 -298.927 307.698C-310.431 281.27 -321.646 252.395 -320.516 226.327C-319.703 207.029 -312.504 191.563 -306.022 176.415Z" stroke="#E8E8E8" stroke-width="3.2409" stroke-miterlimit="10" stroke-linecap="round" stroke-linejoin="round" stroke-dasharray="0.03 13.75"/>
<path d="M-299.503 170.563C-250.337 45.2797 -223.366 -90.8848 -173.284 -195.908C-123.561 -302.186 -55.3831 -383.179 55.8746 -429.811C100.779 -448.721 154.411 -460.724 220.535 -455.2C245.025 -453.265 272.535 -448.368 297.392 -435.351C322.357 -422.282 341.253 -403.239 359.103 -384.858C392.851 -350.138 426.296 -314.257 441.075 -275.107C460.613 -222.232 450.685 -165.883 472.061 -100.589C486.33 -56.0063 512.21 -17.1693 533.42 27.5839C549.82 62.0792 539.407 84.5398 533.112 111.297C517.394 177.074 494.692 232.997 465.146 273.174C427.658 324.63 379.2 352.382 328.728 377.262C269.11 407.01 206.437 435.634 139.912 467.918C72.6382 499.541 1.5097 534.825 -92.285 562.617C-106.459 566.774 -124.378 569.741 -141.097 560.496C-153.516 553.64 -161.152 542.12 -168.13 531.296C-213.775 460.458 -253.122 384.775 -290.171 301.096C-301.81 274.923 -313.2 246.317 -312.62 220.372C-312.212 201.141 -305.53 185.67 -299.503 170.563Z" stroke="#E8E8E8" stroke-width="3.4074" stroke-miterlimit="10" stroke-linecap="round" stroke-linejoin="round" stroke-dasharray="0.03 13.73"/>
<path d="M-293.16 164.554C-247.59 40.0473 -221.01 -92.7041 -172.125 -195.28C-123.534 -299.105 -57.0389 -378.359 49.5604 -425.79C92.5585 -445.006 143.699 -457.807 206.786 -453.715C230.156 -452.304 256.418 -448.057 280.397 -435.598C304.511 -423.072 323.044 -404.383 340.578 -386.331C373.672 -352.291 406.56 -317.056 421.752 -278.145C441.904 -225.564 433.774 -169.201 455.352 -104.786C469.81 -60.7218 495.236 -22.5482 516.227 21.5026C532.457 55.463 522.59 77.7581 516.687 104.185C501.983 169.004 480.011 223.802 451.23 263.116C414.71 313.429 367.328 340.464 318.101 364.799C259.949 393.885 198.988 422.031 134.868 454.281C70.0543 485.918 2.08424 521.659 -86.0989 551.763C-99.4289 556.276 -116.304 559.726 -132.434 550.857C-144.432 544.27 -152.049 532.845 -159.031 522.107C-204.645 451.993 -244.381 376.956 -281.765 294.186C-293.511 268.289 -305.044 239.982 -304.977 214.193C-304.942 195.052 -298.756 179.598 -293.16 164.554Z" stroke="#E8E8E8" stroke-width="3.5738" stroke-miterlimit="10" stroke-linecap="round" stroke-linejoin="round" stroke-dasharray="0.03 13.7"/>
<path d="M-286.99 158.39C-244.832 34.8245 -218.655 -94.5223 -170.967 -194.657C-123.505 -296.027 -58.69 -373.542 43.3875 -421.651C84.5355 -441.124 133.268 -454.646 193.423 -451.896C215.712 -450.977 240.766 -447.342 263.881 -435.424C287.165 -423.421 305.334 -405.087 322.547 -387.372C354.978 -354.02 387.293 -319.443 402.845 -280.823C423.536 -228.6 417.098 -172.318 438.829 -108.819C453.443 -65.3041 478.407 -27.8057 499.159 15.5252C515.203 48.9345 505.859 71.0453 500.333 97.1299C486.593 160.95 465.344 214.612 437.321 253.055C401.769 302.222 355.465 328.542 307.477 352.331C250.789 380.751 191.518 408.404 129.743 440.565C67.3212 472.157 2.39487 508.255 -80.4276 540.449C-92.9585 545.281 -108.835 549.174 -124.394 540.665C-135.979 534.338 -143.565 523.015 -150.546 512.374C-196.046 443.051 -236.071 368.749 -273.701 286.966C-285.525 261.372 -297.174 233.389 -297.58 207.79C-297.897 188.763 -292.181 173.353 -286.99 158.39Z" stroke="#E8E8E8" stroke-width="3.7403" stroke-miterlimit="10" stroke-linecap="round" stroke-linejoin="round" stroke-dasharray="0.03 13.67"/>
<path d="M-280.994 152.075C-242.059 29.6137 -216.307 -96.3468 -169.809 -194.03C-123.48 -292.947 -60.3413 -368.719 37.3504 -417.387C76.7012 -437.067 123.106 -451.24 180.425 -449.745C201.671 -449.285 225.555 -446.228 247.829 -434.833C270.301 -423.34 288.105 -405.362 304.989 -387.986C336.746 -355.331 368.475 -321.427 384.337 -283.141C405.496 -231.344 400.645 -175.23 422.481 -112.697C437.217 -69.7595 461.704 -32.947 482.2 9.64838C498.043 42.4927 489.202 64.4006 484.031 90.1265C471.216 152.91 450.673 205.425 423.406 242.995C388.813 291.009 343.593 316.623 296.844 339.859C241.61 367.608 184.019 394.758 124.524 426.775C64.4386 458.267 2.45056 494.63 -75.2615 528.689C-87.0293 533.808 -101.952 538.103 -116.954 529.942C-128.139 523.865 -135.682 512.65 -142.653 502.117C-187.967 433.655 -228.184 360.169 -265.975 279.45C-277.853 254.182 -289.586 226.55 -290.426 201.175C-291.063 182.286 -285.798 166.94 -280.994 152.075Z" stroke="#E8E8E8" stroke-width="3.9068" stroke-miterlimit="10" stroke-linecap="round" stroke-linejoin="round" stroke-dasharray="0.03 13.65"/>
<path d="M-275.159 145.616C-239.278 24.4115 -213.956 -98.1696 -168.653 -193.407C-123.453 -289.871 -61.9865 -363.897 31.4474 -413.006C69.0587 -432.843 113.219 -447.596 167.797 -447.27C188.034 -447.236 210.792 -444.722 232.244 -433.832C253.925 -422.831 271.356 -405.215 287.911 -388.18C318.983 -356.232 350.11 -323.014 366.23 -285.106C387.785 -233.797 384.419 -177.942 406.311 -116.415C421.139 -74.0856 445.137 -37.9672 465.354 3.87227C480.982 36.1409 472.622 57.8236 467.792 83.1796C455.859 144.887 436.012 196.246 409.499 232.94C375.857 279.796 331.728 304.707 286.212 327.388C232.432 354.463 176.501 381.094 119.233 412.916C61.4173 444.256 2.26323 480.787 -70.5829 516.497C-81.6217 521.873 -95.6358 526.529 -110.097 518.702C-120.89 512.867 -128.382 501.77 -135.331 491.354C-180.384 423.813 -220.708 351.231 -258.568 271.651C-270.472 246.733 -282.259 219.477 -283.502 194.355C-284.444 175.622 -279.597 160.361 -275.159 145.616Z" stroke="#E8E8E8" stroke-width="4.0733" stroke-miterlimit="10" stroke-linecap="round" stroke-linejoin="round" stroke-dasharray="0.03 13.62"/>
<path d="M-269.486 139.013C-236.484 19.2214 -211.607 -99.996 -167.494 -192.781C-123.429 -286.792 -63.6299 -359.07 25.6791 -408.505C61.6033 -428.458 103.595 -443.719 155.526 -444.478C174.787 -444.843 196.458 -442.835 217.106 -432.436C238.013 -421.907 255.071 -404.656 271.288 -387.972C301.67 -356.737 332.178 -324.216 348.51 -286.729C370.39 -235.969 368.41 -180.462 390.314 -119.981C405.197 -78.2865 428.7 -42.8743 448.62 -1.80612C464.022 29.8742 456.118 51.3163 451.615 76.2854C440.519 136.881 421.359 187.075 395.591 222.887C362.897 268.582 319.863 292.793 275.575 314.915C223.243 341.312 168.961 367.411 113.86 398.988C58.2551 430.121 1.83311 466.734 -66.3813 503.888C-76.7248 509.486 -89.8831 514.469 -103.814 506.961C-114.227 501.358 -121.658 490.387 -128.575 480.096C-173.296 413.542 -213.634 341.939 -251.487 263.571C-263.387 239.025 -275.204 212.173 -276.815 187.334C-278.028 168.778 -273.576 153.624 -269.486 139.013Z" stroke="#E8E8E8" stroke-width="4.2397" stroke-miterlimit="10" stroke-linecap="round" stroke-linejoin="round" stroke-dasharray="0.03 13.59"/>
<path d="M-263.968 132.275C-233.676 14.0409 -209.262 -101.822 -166.334 -192.155C-123.4 -283.714 -65.268 -354.238 20.0416 -403.891C54.33 -423.908 94.228 -439.612 143.608 -441.376C161.931 -442.104 182.546 -440.573 202.412 -430.645C222.564 -420.575 239.243 -403.691 255.12 -387.358C284.802 -356.844 314.679 -325.035 331.171 -288.013C353.312 -237.86 352.621 -182.788 374.489 -123.396C389.398 -82.3637 412.391 -47.6655 431.996 -7.38548C447.151 23.6918 439.69 44.8749 435.497 69.4453C425.196 128.891 406.713 177.909 381.688 212.837C349.941 257.366 308.004 280.882 264.941 302.44C214.054 328.155 161.404 353.708 108.414 384.991C54.9644 415.867 1.17345 452.47 -62.6367 490.866C-72.3182 496.66 -84.656 501.924 -98.076 494.727C-108.12 489.346 -115.483 478.51 -122.356 468.353C-166.682 402.847 -206.943 332.302 -244.705 255.215C-256.581 231.064 -268.398 204.638 -270.342 180.111C-271.809 161.759 -267.732 146.731 -263.968 132.275Z" stroke="#E8E8E8" stroke-width="4.4062" stroke-miterlimit="10" stroke-linecap="round" stroke-linejoin="round" stroke-dasharray="0.03 13.57"/>
<path d="M-258.6 125.403C-230.86 8.87092 -206.917 -103.652 -165.179 -191.531C-123.379 -280.638 -66.9063 -349.405 14.5275 -399.166C47.2301 -419.206 85.1106 -435.288 132.028 -437.971C149.444 -439.04 169.046 -437.95 188.149 -428.477C207.563 -418.849 223.859 -402.335 239.389 -386.36C268.362 -356.575 297.591 -325.488 314.2 -288.972C336.532 -239.487 337.036 -184.933 358.827 -126.666C373.733 -86.325 396.207 -52.3491 415.476 -12.8756C430.374 17.5895 423.331 38.4939 419.436 62.6529C409.89 120.91 392.073 168.747 367.785 202.785C336.978 246.146 296.145 268.97 254.302 289.963C204.854 314.991 153.824 339.989 102.891 370.93C51.5396 401.498 0.287637 438.009 -59.3455 477.448C-68.4028 483.409 -79.9617 488.921 -92.879 482.021C-102.566 476.853 -109.849 466.159 -116.67 456.146C-160.528 391.745 -200.628 322.332 -238.222 246.6C-250.05 222.866 -261.841 196.887 -264.086 172.703C-265.78 154.572 -262.055 139.692 -258.6 125.403Z" stroke="#E8E8E8" stroke-width="4.5727" stroke-miterlimit="10" stroke-linecap="round" stroke-linejoin="round" stroke-dasharray="0.03 13.54"/>
<path d="M-253.374 118.404C-228.03 3.7108 -204.575 -105.482 -164.019 -190.905C-123.351 -277.559 -68.5355 -344.57 9.13915 -394.329C40.3032 -414.346 76.2431 -430.74 120.785 -434.27C137.325 -435.646 155.947 -434.97 174.303 -425.936C192.997 -416.736 208.909 -400.596 224.089 -384.98C252.344 -355.93 280.915 -325.581 297.593 -289.611C320.055 -240.85 321.66 -186.893 343.33 -129.79C358.202 -90.1662 380.146 -56.9226 399.063 -18.2695C413.692 11.5686 407.048 32.1804 403.431 55.9118C394.604 112.952 377.44 159.59 353.887 192.74C324.015 234.927 284.289 257.064 243.662 277.486C195.654 301.829 146.229 326.257 97.3038 356.81C47.9935 387.022 -0.814249 423.359 -56.4835 463.651C-64.9473 469.748 -75.7679 475.473 -88.1979 468.856C-97.5329 463.893 -104.732 453.35 -111.491 443.487C-154.819 380.252 -194.674 312.043 -232.025 237.73C-243.781 214.43 -255.518 188.926 -258.035 165.112C-259.937 147.22 -256.542 132.506 -253.374 118.404Z" stroke="#E8E8E8" stroke-width="4.7392" stroke-miterlimit="10" stroke-linecap="round" stroke-linejoin="round" stroke-dasharray="0.03 13.51"/>
<path d="M-248.291 111.28C-225.189 -1.43941 -202.233 -107.315 -162.863 -190.282C-123.326 -274.481 -70.1669 -339.732 3.87044 -389.387C33.5471 -409.341 67.6129 -425.984 109.868 -430.285C125.562 -431.943 143.242 -431.644 160.865 -423.035C178.856 -414.249 194.378 -398.483 209.204 -383.232C236.735 -354.924 264.63 -325.325 281.336 -289.938C303.861 -241.958 306.479 -188.677 327.987 -132.778C342.797 -93.8947 364.201 -61.3944 382.745 -23.5774C397.092 5.62392 390.828 25.924 387.479 49.2172C379.33 105.003 362.811 150.44 339.988 182.692C311.047 223.703 272.434 245.155 233.021 265.007C137.648 310.34 47.5576 365.593 -54.0443 449.477C-61.9451 455.685 -72.0679 461.587 -84.0247 455.244C-93.019 450.478 -100.125 440.093 -106.811 430.389C-149.54 368.373 -189.079 301.441 -226.111 228.613C-237.771 205.77 -249.43 180.76 -252.186 157.344C-254.271 139.713 -251.187 125.181 -248.291 111.28Z" stroke="#E8E8E8" stroke-width="4.9056" stroke-miterlimit="10" stroke-linecap="round" stroke-linejoin="round" stroke-dasharray="0.03 13.49"/>
<path d="M-243.342 104.038C-222.337 -6.5776 -199.896 -109.147 -161.705 -189.657C-123.304 -271.407 -71.7929 -334.89 -1.28039 -384.34C26.956 -404.187 59.2181 -421.019 99.2663 -426.015C114.15 -427.926 130.919 -427.978 147.829 -419.778C165.131 -411.39 180.265 -396.002 194.73 -381.121C221.528 -353.564 248.738 -324.724 265.425 -289.958C287.956 -242.811 291.498 -190.288 312.799 -135.627C327.514 -97.5121 348.368 -65.763 366.529 -28.796C380.576 -0.243507 374.676 19.7288 371.579 42.5705C364.072 97.0706 348.187 141.294 326.091 172.649C298.076 212.477 260.578 233.254 222.376 252.527C130.067 296.656 42.6889 350.268 -52.0151 434.946C-59.3837 441.235 -68.8448 447.282 -80.3407 441.202C-89.002 436.628 -96.0076 426.404 -102.613 416.868C-144.689 356.128 -183.826 290.538 -220.469 219.258C-232.012 196.89 -243.569 172.397 -246.536 149.402C-248.78 132.05 -245.982 117.722 -243.342 104.038Z" stroke="#E8E8E8" stroke-width="5.0721" stroke-miterlimit="10" stroke-linecap="round" stroke-linejoin="round" stroke-dasharray="0.03 13.46"/>
<path d="M-238.525 96.6798C-219.476 -11.7068 -197.557 -110.981 -160.548 -189.03C-123.281 -268.328 -73.4154 -330.044 -6.31286 -379.19C20.5273 -398.891 51.0527 -415.852 88.9776 -421.47C103.076 -423.611 118.971 -423.981 135.183 -416.178C151.814 -408.173 166.555 -393.167 180.656 -378.658C206.712 -351.858 233.226 -323.789 249.853 -289.685C272.325 -243.426 276.71 -191.73 297.765 -138.344C312.361 -101.021 332.657 -70.0292 350.411 -33.9326C364.152 -6.03795 358.596 13.5917 355.734 35.9693C348.831 89.1473 333.57 132.151 312.199 162.605C285.105 201.249 248.732 221.349 211.736 240.044C122.475 282.95 37.8141 334.927 -50.3721 420.065C-57.2377 426.412 -66.0741 432.569 -77.1209 426.742C-85.4568 422.346 -92.3526 412.296 -98.8694 402.935C-140.229 343.521 -178.894 279.342 -215.079 209.67C-226.483 187.797 -237.916 163.843 -241.064 141.294C-243.452 124.239 -240.929 110.13 -238.525 96.6798Z" stroke="#E8E8E8" stroke-width="5.2386" stroke-miterlimit="10" stroke-linecap="round" stroke-linejoin="round" stroke-dasharray="0.03 13.43"/>
<path d="M-233.832 89.2097C-216.599 -16.8269 -195.22 -112.817 -159.39 -188.407C-123.256 -265.255 -75.0343 -325.196 -11.2375 -373.941C14.2513 -393.458 43.1069 -410.486 78.9885 -416.662C92.3334 -419.002 107.381 -419.665 122.913 -412.242C138.89 -404.609 153.233 -389.986 166.966 -375.852C192.276 -349.816 218.075 -322.53 234.602 -289.121C256.961 -243.798 262.103 -193.009 282.876 -140.932C297.324 -104.425 317.051 -74.2011 334.386 -38.9834C347.803 -11.76 342.574 7.50872 339.939 29.4138C333.606 81.2402 318.961 123.018 298.307 152.564C272.133 190.02 236.881 209.447 201.089 227.562C114.856 269.228 32.92 319.578 -49.1128 404.851C-55.5015 411.229 -63.7509 417.468 -74.3586 411.882C-82.3838 407.662 -89.1573 397.789 -95.5774 388.609C-136.163 330.574 -174.283 267.865 -209.945 199.863C-221.19 178.503 -232.474 155.104 -235.776 133.029C-238.288 116.287 -236.013 102.416 -233.832 89.2097Z" stroke="#E8E8E8" stroke-width="5.405" stroke-miterlimit="10" stroke-linecap="round" stroke-linejoin="round" stroke-dasharray="0.03 13.41"/>
<path d="M-229.26 81.6343C-213.711 -21.9342 -192.884 -114.653 -158.233 -187.78C-123.233 -262.179 -76.6517 -320.341 -16.0505 -368.595C8.13345 -387.884 35.3791 -404.93 69.2904 -411.591C81.912 -414.11 96.1455 -415.035 111.013 -407.978C126.346 -400.702 140.293 -386.468 153.654 -372.711C178.205 -347.447 203.282 -320.95 219.67 -288.274C241.86 -243.94 247.675 -194.124 268.128 -143.39C282.405 -107.723 301.55 -78.2752 318.45 -43.9525C331.533 -17.4095 326.615 1.48487 324.19 22.9026C318.391 73.35 304.352 113.886 284.413 142.527C259.153 178.791 225.03 197.548 190.439 215.079C107.216 255.489 28.0083 304.218 -48.2215 389.312C-54.1638 395.7 -61.8605 401.984 -72.0386 396.633C-79.7555 392.58 -86.4054 382.891 -92.7206 373.901C-132.479 317.295 -169.984 256.121 -205.057 189.842C-216.124 169.012 -227.238 146.19 -230.669 124.611C-233.277 108.2 -231.232 94.582 -229.26 81.6343Z" stroke="#E8E8E8" stroke-width="5.5715" stroke-miterlimit="10" stroke-linecap="round" stroke-linejoin="round" stroke-dasharray="0.03 13.38"/>
<path d="M-224.802 73.9575C-210.815 -27.0333 -190.55 -116.489 -157.076 -187.155C-123.213 -259.103 -78.2609 -315.487 -20.7552 -363.153C2.16156 -382.182 27.8648 -399.185 59.883 -406.266C71.8038 -408.939 85.2573 -410.099 99.4723 -403.398C114.181 -396.465 127.723 -382.62 140.711 -369.246C164.501 -344.757 188.841 -319.064 205.051 -287.152C227.016 -243.854 233.431 -195.083 253.523 -145.724C267.601 -110.919 286.16 -82.2544 302.607 -48.8422C315.348 -22.9895 310.719 -4.48691 308.496 16.4351C303.201 65.4697 289.756 104.763 270.529 132.49C246.178 167.558 213.188 185.651 179.797 202.596C99.5674 241.735 23.098 288.85 -47.6733 373.463C-53.1928 379.835 -60.3657 386.14 -70.13 381.012C-77.5462 377.119 -84.065 367.621 -90.2658 358.828C-129.144 303.696 -165.966 244.115 -200.39 179.615C-211.258 159.332 -222.18 137.107 -225.714 116.046C-228.415 99.9801 -226.585 86.6321 -224.802 73.9575Z" stroke="#E8E8E8" stroke-width="5.738" stroke-miterlimit="10" stroke-linecap="round" stroke-linejoin="round" stroke-dasharray="0.03 13.36"/>
<path d="M-220.453 66.1832C-207.907 -32.1208 -188.217 -118.329 -155.916 -186.531C-123.188 -256.031 -79.8662 -310.627 -25.3537 -357.621C-3.66102 -376.349 20.5569 -393.26 50.7527 -400.697C62.0026 -403.497 74.6992 -404.869 88.2812 -398.51C102.379 -391.908 115.516 -378.455 128.124 -365.466C151.143 -341.76 174.737 -316.88 190.732 -285.766C212.422 -243.553 219.356 -195.89 239.053 -147.94C252.907 -114.019 270.871 -86.1442 286.85 -53.6545C299.234 -28.5033 294.885 -10.403 292.847 10.0084C288.019 57.6043 275.163 95.6424 256.643 122.457C233.197 156.324 201.347 173.754 169.148 190.111C91.8951 227.964 18.1692 273.471 -47.4691 357.314C-52.5924 363.649 -59.2765 369.946 -68.633 365.031C-75.7591 361.293 -82.1367 351.992 -88.219 343.401C-126.163 289.791 -162.238 231.857 -195.954 169.19C-206.606 149.471 -217.317 127.858 -220.927 107.338C-223.694 91.6344 -222.06 78.5713 -220.453 66.1832Z" stroke="#E8E8E8" stroke-width="5.9045" stroke-miterlimit="10" stroke-linecap="round" stroke-linejoin="round" stroke-dasharray="0.03 13.33"/>
<path d="M-216.213 58.3135C-204.989 -37.1997 -185.886 -120.168 -154.758 -185.905C-123.167 -252.954 -81.4697 -305.765 -29.8518 -351.996C-9.34336 -370.392 13.4475 -387.157 41.8938 -394.889C52.4971 -397.794 64.4691 -399.353 77.4287 -393.322C90.9282 -387.043 103.656 -373.981 115.88 -361.381C138.124 -338.466 160.962 -314.406 176.702 -284.124C198.06 -243.037 205.443 -196.551 224.714 -150.04C238.32 -117.023 255.678 -89.9495 271.176 -58.3948C283.193 -33.955 279.104 -16.2732 277.24 3.61991C272.852 49.7481 260.572 86.5264 242.759 112.421C220.217 145.087 189.502 161.859 158.5 177.624C84.2074 214.177 13.2323 258.083 -47.5853 340.879C-52.3393 347.152 -58.5638 353.416 -67.5236 348.707C-74.365 345.113 -80.5967 336.017 -86.5493 327.636C-123.511 275.591 -158.778 219.362 -191.726 158.577C-202.144 139.436 -212.624 118.454 -216.288 98.4941C-219.108 83.1706 -217.653 70.4059 -216.213 58.3135Z" stroke="#E8E8E8" stroke-width="6.071" stroke-miterlimit="10" stroke-linecap="round" stroke-linejoin="round" stroke-dasharray="0.03 13.3"/>
<path d="M-212.071 50.358C-202.056 -42.2695 -183.555 -122.009 -153.601 -185.279C-123.147 -249.88 -83.0683 -300.898 -34.255 -346.287C-14.89 -364.314 6.52927 -380.884 33.2916 -388.849C43.2764 -391.84 54.5504 -393.559 66.903 -387.844C79.8177 -381.87 92.134 -369.205 103.972 -356.999C125.434 -334.878 147.502 -311.651 162.959 -282.229C183.938 -242.315 191.7 -197.068 210.506 -152.026C223.84 -119.935 240.585 -93.6682 255.589 -63.0613C267.228 -39.3391 263.383 -22.0907 261.683 -2.72777C257.703 41.9069 245.993 77.4162 228.88 102.392C207.237 133.851 177.666 149.966 147.852 165.14C76.5066 200.38 8.29091 242.689 -48.011 324.17C-52.4164 330.363 -58.2123 336.566 -66.7842 332.053C-73.3491 328.603 -79.4279 319.715 -85.2467 311.548C-121.18 261.11 -155.575 206.639 -187.705 147.784C-197.872 129.237 -208.103 108.901 -211.799 89.5231C-214.65 74.5916 -213.364 62.138 -212.071 50.358Z" stroke="#E8E8E8" stroke-width="6.2374" stroke-miterlimit="10" stroke-linecap="round" stroke-linejoin="round" stroke-dasharray="0.03 13.28"/>
<path d="M-208.026 42.3151C-199.116 -47.3297 -181.225 -123.85 -152.443 -184.655C-123.126 -246.81 -84.6633 -296.027 -38.5593 -340.492C-20.3031 -358.12 -0.197686 -374.445 24.9465 -382.586C34.3312 -385.641 44.936 -387.496 56.6939 -382.088C69.0367 -376.41 80.941 -364.145 92.3894 -352.333C113.062 -331.012 134.35 -308.626 149.486 -280.093C170.039 -241.395 178.106 -197.444 196.417 -153.903C209.458 -122.757 225.581 -97.3051 240.075 -67.6594C251.324 -44.6675 247.713 -27.8629 246.164 -9.04069C242.562 34.0743 231.411 68.307 214.997 92.358C194.249 122.608 165.823 138.07 137.201 152.649C68.7868 186.565 3.33706 227.282 -48.7394 307.193C-52.8157 313.287 -58.2114 319.402 -66.4073 315.079C-72.7021 311.764 -78.6185 303.091 -84.2946 295.148C-119.153 246.355 -152.624 193.692 -183.879 136.814C-193.78 118.877 -203.741 99.2034 -207.45 80.4246C-210.319 65.9019 -209.181 53.7769 -208.026 42.3151Z" stroke="#E8E8E8" stroke-width="6.4039" stroke-miterlimit="10" stroke-linecap="round" stroke-linejoin="round" stroke-dasharray="0.03 13.25"/>
<path d="M-204.07 34.194C-196.163 -52.3802 -178.898 -125.693 -151.287 -184.031C-123.106 -243.736 -86.2538 -291.152 -42.7724 -334.614C-25.5896 -351.809 -6.74567 -367.842 16.8458 -376.103C25.658 -379.199 35.6176 -381.169 46.7921 -376.054C58.5753 -370.664 70.0617 -358.799 81.1172 -347.384C100.995 -326.869 121.497 -305.333 136.277 -277.721C156.356 -240.281 164.665 -197.686 182.45 -155.672C195.175 -125.492 210.667 -100.859 224.639 -72.187C235.491 -49.9318 232.094 -33.5872 230.685 -15.3115C227.433 26.2558 216.835 59.2048 201.116 82.3296C181.259 111.368 153.985 126.181 126.549 140.163C61.0521 172.742 -1.62567 211.877 -49.7494 289.973C-53.5213 295.949 -58.5413 301.952 -66.3699 297.811C-72.3988 294.626 -78.1517 286.174 -83.6794 278.455C-117.419 231.35 -149.912 180.541 -180.244 125.685C-189.862 108.369 -199.537 89.3747 -203.232 71.2142C-206.103 57.1117 -205.099 45.323 -204.07 34.194Z" stroke="#E8E8E8" stroke-width="6.5704" stroke-miterlimit="10" stroke-linecap="round" stroke-linejoin="round" stroke-dasharray="0.03 13.22"/>
<path d="M-200.198 25.9973C-193.199 -57.4205 -176.569 -127.535 -150.127 -183.403C-123.084 -240.661 -87.8367 -286.273 -46.8908 -328.654C-30.7455 -345.385 -13.1136 -361.082 8.98347 -369.409C17.2461 -372.528 26.5832 -374.588 37.1906 -369.757C48.4279 -364.641 59.4951 -353.179 70.156 -342.167C89.2307 -322.464 108.934 -301.784 123.33 -275.12C142.894 -238.974 151.377 -197.795 168.603 -157.335C180.99 -128.139 195.845 -104.333 209.279 -76.6477C219.724 -55.1382 216.531 -39.2642 215.252 -21.5468C212.322 18.4502 202.268 50.1098 187.241 72.3043C168.272 100.127 142.151 114.292 115.897 127.676C53.3093 158.907 -6.59071 196.466 -51.0267 272.513C-54.5171 278.352 -59.1876 284.221 -66.6542 280.255C-72.4243 277.192 -78.0037 268.968 -83.3769 261.483C-115.956 216.101 -147.417 167.193 -176.777 114.4C-186.097 97.7196 -195.472 79.4182 -199.137 61.8936C-201.999 48.2204 -201.118 36.7835 -200.198 25.9973Z" stroke="#E8E8E8" stroke-width="6.7368" stroke-miterlimit="10" stroke-linecap="round" stroke-linejoin="round" stroke-dasharray="0.03 13.2"/>
<path d="M-196.409 17.7279C-190.23 -62.4513 -174.242 -129.378 -148.97 -182.78C-123.066 -237.589 -89.4194 -281.393 -50.926 -322.621C-35.7817 -338.856 -19.3137 -354.174 1.35251 -362.514C9.08217 -365.636 17.8278 -367.767 27.8747 -363.21C38.5755 -358.357 49.2229 -347.301 59.4833 -336.693C77.7522 -317.805 96.6474 -297.991 110.628 -272.304C129.629 -237.491 138.228 -197.781 154.867 -158.903C166.896 -130.707 181.107 -107.737 193.992 -81.0468C204.019 -60.2908 201.014 -44.9014 199.857 -27.7515C197.223 10.6521 187.703 41.0139 173.365 62.2781C155.281 88.8826 130.314 102.402 105.246 115.187C45.5493 145.06 -11.5629 181.048 -52.5585 254.825C-55.7827 260.51 -60.1314 266.222 -67.2437 262.425C-72.7585 259.482 -78.163 251.488 -83.3753 244.241C-114.755 200.622 -145.135 153.653 -173.478 102.964C-182.487 86.9308 -191.544 69.3356 -195.162 52.4639C-198 39.2375 -197.226 28.1623 -196.409 17.7279Z" stroke="#E8E8E8" stroke-width="6.9033" stroke-miterlimit="10" stroke-linecap="round" stroke-linejoin="round" stroke-dasharray="0.03 13.17"/>
<path d="M-192.696 9.39264C-187.247 -67.4728 -171.915 -131.225 -147.812 -182.152C-123.046 -234.515 -90.9968 -276.503 -54.8745 -316.51C-40.6995 -332.222 -25.3457 -347.118 -6.05849 -355.421C1.16345 -358.528 9.33588 -360.709 18.8376 -356.414C29.0124 -351.815 39.2384 -341.166 49.0952 -330.964C66.5512 -312.899 84.6312 -293.957 98.1659 -269.27C116.565 -235.83 125.216 -197.637 141.24 -160.367C152.89 -133.192 166.449 -111.059 178.775 -85.3789C188.375 -65.3827 185.546 -50.4914 184.498 -33.9166C182.137 2.87246 173.143 31.9266 159.491 52.2563C142.286 77.6398 118.476 90.5171 94.5936 102.704C37.782 131.205 -16.5395 165.63 -54.3344 236.927C-57.3131 242.442 -61.3603 247.979 -68.1278 244.343C-73.3955 241.511 -78.6159 233.758 -83.6638 226.752C-113.803 184.926 -143.059 139.941 -170.34 91.3939C-179.025 76.0191 -187.751 59.1443 -191.301 42.9415C-194.099 30.1669 -193.42 19.466 -192.696 9.39264Z" stroke="#E8E8E8" stroke-width="7.0698" stroke-miterlimit="10" stroke-linecap="round" stroke-linejoin="round" stroke-dasharray="0.03 13.14"/>
<path d="M-189.052 0.994586C-184.25 -72.4846 -169.59 -133.068 -146.654 -181.527C-123.028 -231.443 -92.5654 -271.61 -58.7414 -310.326C-45.5061 -325.487 -31.2207 -339.922 -13.2548 -348.139C-6.5229 -351.215 1.10046 -353.425 10.064 -349.384C19.7277 -345.03 29.5256 -334.792 38.9772 -324.996C55.6185 -307.76 72.8732 -289.696 85.9342 -266.037C103.69 -234.003 112.339 -197.381 127.72 -161.744C138.974 -135.603 151.873 -114.318 163.623 -89.657C172.789 -70.4306 170.123 -56.0442 169.175 -40.0545C167.059 -4.90594 158.632 22.9073 145.619 42.2315C129.343 66.479 106.646 78.6276 83.9428 90.2133C30.0019 117.339 -21.5217 150.203 -56.3361 218.822C-59.0869 224.151 -62.8558 229.492 -69.282 226.012C-74.3096 223.293 -79.3394 215.776 -84.217 209.02C-113.084 169.018 -141.168 126.058 -167.35 79.6877C-175.697 64.985 -184.076 48.8395 -187.543 33.3205C-190.29 21.0131 -189.697 10.6985 -189.052 0.994586Z" stroke="#E8E8E8" stroke-width="7.2363" stroke-miterlimit="10" stroke-linecap="round" stroke-linejoin="round" stroke-dasharray="0.03 13.12"/>
<path d="M-185.475 -7.46281C-181.247 -77.4904 -167.265 -134.914 -145.494 -180.903C-123.009 -228.374 -94.1336 -266.717 -62.5283 -304.075C-50.2027 -318.657 -36.9386 -332.592 -20.2469 -340.678C-13.9826 -343.702 -6.88888 -345.924 1.55177 -342.128C10.7084 -338.009 20.0807 -328.183 29.1253 -318.8C44.9385 -302.394 61.3384 -285.197 73.9253 -262.609C90.9667 -231.982 99.5927 -197.009 114.304 -163.031C125.144 -137.942 137.376 -117.511 148.544 -93.877C157.266 -75.4287 154.751 -61.5586 153.894 -46.1631C152.002 -12.6727 144.081 13.8265 131.753 32.2071C116.353 55.228 94.818 66.7393 73.2945 77.7205C22.216 103.459 -26.5029 134.771 -58.5511 200.525C-61.0881 205.658 -64.5993 210.779 -70.6953 207.452C-75.4836 204.837 -80.3215 197.568 -85.0205 191.063C-112.582 152.919 -139.45 112.015 -164.495 67.8568C-172.492 53.8345 -180.51 38.434 -183.879 23.6128C-186.568 11.7853 -186.047 1.8625 -185.475 -7.46281Z" stroke="#E8E8E8" stroke-width="7.4027" stroke-miterlimit="10" stroke-linecap="round" stroke-linejoin="round" stroke-dasharray="0.03 13.09"/>
<path d="M-181.961 -15.9723C-178.234 -82.4835 -164.94 -136.759 -144.339 -180.277C-122.991 -225.303 -95.695 -261.814 -66.2424 -297.756C-54.7941 -311.734 -42.5158 -325.13 -27.0406 -333.041C-21.2293 -335.998 -14.6429 -338.211 -6.71916 -334.652C1.94445 -330.762 10.8865 -321.347 19.5188 -312.378C34.5085 -296.809 50.0654 -280.501 62.1264 -258.988C78.4526 -229.832 86.9658 -196.525 100.983 -164.227C111.389 -140.203 122.948 -120.629 133.521 -98.0382C141.793 -80.3708 139.416 -67.0317 138.64 -52.2354C136.947 -20.4248 129.537 4.75058 117.883 22.1903C103.356 43.9846 82.9876 54.8571 62.6411 65.2346C14.4156 89.5802 -31.4901 119.345 -60.9706 182.058C-63.3133 186.977 -66.5856 191.864 -72.3526 188.682C-76.9062 186.168 -81.5453 179.149 -86.0645 172.902C-112.284 136.644 -137.862 97.7819 -161.772 55.9183C-169.396 42.5695 -177.057 27.9399 -180.309 13.8304C-182.927 2.48501 -182.468 -7.03188 -181.961 -15.9723Z" stroke="#E8E8E8" stroke-width="7.5692" stroke-miterlimit="10" stroke-linecap="round" stroke-linejoin="round" stroke-dasharray="0.03 13.06"/>
<path d="M-178.5 -24.5312C-175.21 -87.4679 -162.616 -138.606 -143.18 -179.651C-122.973 -222.231 -97.2527 -256.91 -69.878 -291.367C-59.2806 -304.716 -47.9447 -317.538 -33.6441 -325.232C-28.2646 -328.109 -22.1677 -330.297 -14.7498 -326.965C-6.56915 -323.294 1.94083 -314.295 10.1585 -305.74C24.3152 -291.01 39.0251 -275.602 50.5348 -255.187C66.107 -227.532 74.4592 -195.933 87.7579 -165.339C97.7139 -142.397 108.593 -123.688 118.558 -102.146C126.368 -85.2674 124.122 -72.467 123.419 -58.279C121.908 -28.1666 114.994 -4.3206 104.015 12.174C90.3563 32.7347 71.1558 42.9755 51.9886 52.7486C6.60956 75.6916 -36.4788 103.918 -63.5742 163.426C-65.7361 168.119 -68.7895 172.756 -74.2353 169.713C-78.563 167.297 -82.9949 160.534 -87.3285 154.545C-112.179 120.201 -136.468 83.4604 -159.169 43.8712C-166.424 31.2233 -173.697 17.3575 -176.824 3.9712C-179.359 -6.88097 -178.954 -15.9842 -178.5 -24.5312Z" stroke="#E8E8E8" stroke-width="7.7357" stroke-miterlimit="10" stroke-linecap="round" stroke-linejoin="round" stroke-dasharray="0.03 13.04"/>
<path d="M-175.091 -33.1373C-172.176 -92.4465 -160.291 -140.454 -142.022 -179.026C-122.956 -219.162 -98.8023 -252 -73.445 -284.921C-63.6736 -297.616 -53.2401 -309.833 -40.0677 -317.267C-35.1046 -320.047 -29.4778 -322.192 -22.5557 -319.082C-14.8503 -315.619 -6.77659 -307.04 1.02815 -298.904C14.3467 -285.02 28.203 -270.516 39.1395 -251.216C53.9271 -225.092 62.0677 -195.242 74.6268 -166.373C84.1154 -144.524 94.3073 -126.687 103.659 -106.204C111.003 -90.1225 108.871 -77.8707 108.236 -64.2986C106.883 -35.9006 100.46 -13.3911 90.1528 2.15489C77.3603 21.4848 59.333 31.091 41.341 40.2597C-1.19686 61.7933 -41.4674 88.4858 -66.3479 144.634C-68.3426 149.088 -71.1936 153.461 -76.3227 150.553C-80.4269 148.23 -84.6488 141.726 -88.7938 136.003C-112.247 103.598 -135.213 69.0081 -156.675 31.7215C-163.551 19.7821 -170.427 6.69017 -173.415 -5.96111C-175.857 -16.306 -175.496 -24.9913 -175.091 -33.1373Z" stroke="#E8E8E8" stroke-width="7.9022" stroke-miterlimit="10" stroke-linecap="round" stroke-linejoin="round" stroke-dasharray="0.03 13.01"/>
<path d="M-171.726 -41.7819C-169.135 -97.4138 -157.969 -142.299 -140.863 -178.4C-122.939 -216.09 -100.349 -247.085 -76.9461 -278.412C-67.9708 -290.431 -58.4043 -302.009 -46.3159 -309.147C-41.7545 -311.816 -36.5801 -313.905 -30.1466 -311.005C-22.9095 -307.746 -15.2691 -299.586 -7.88486 -291.869C4.59129 -278.836 17.5876 -265.241 27.9257 -247.078C41.8968 -222.513 49.7782 -194.451 61.5742 -167.33C70.5858 -146.59 80.0827 -129.626 88.8082 -110.213C95.6787 -94.9311 93.654 -83.2427 93.0742 -70.2901C91.8638 -43.6254 85.9232 -22.4559 76.2846 -7.86125C64.3568 10.2322 47.502 19.2102 30.6864 27.7716C-9.02204 47.8943 -46.4636 73.0554 -69.2876 125.705C-71.1268 129.91 -73.7907 134.001 -78.6091 131.228C-82.4945 128.995 -86.5022 122.753 -90.4527 117.297C-112.483 86.8542 -134.096 54.4407 -154.287 19.484C-160.772 8.26099 -167.247 -4.04669 -170.079 -15.9545C-172.42 -25.7857 -172.092 -34.0426 -171.726 -41.7819Z" stroke="#E8E8E8" stroke-width="8.0686" stroke-miterlimit="10" stroke-linecap="round" stroke-linejoin="round" stroke-dasharray="0.03 12.98"/>
<path d="M-168.404 -50.4641C-166.081 -102.375 -155.644 -144.146 -139.705 -177.773C-122.925 -213.022 -101.89 -242.165 -80.379 -271.846C-72.1779 -283.168 -63.4459 -294.076 -52.3991 -300.88C-48.2236 -303.427 -43.4852 -305.441 -37.531 -302.749C-30.7515 -299.685 -23.552 -291.945 -16.586 -284.653C-4.95225 -272.471 7.17472 -259.791 16.8951 -242.784C30.0208 -219.802 37.6 -193.568 48.6139 -168.212C57.1269 -148.591 65.9264 -132.508 74.0153 -114.173C80.4053 -99.6994 78.4782 -88.5777 77.9481 -76.2552C76.8623 -51.3393 71.3958 -31.5196 62.425 -17.875C51.3566 -1.02012 35.6732 7.32751 20.0369 15.2846C-16.8445 33.9872 -51.451 57.6225 -72.3692 106.647C-74.0664 110.595 -76.5576 114.388 -81.0711 111.744C-84.7365 109.598 -88.5265 103.626 -92.2797 98.4399C-112.864 69.9829 -133.092 39.7731 -151.99 7.16675C-158.074 -3.33296 -164.138 -14.848 -166.807 -26.001C-169.037 -35.3165 -168.733 -43.1358 -168.404 -50.4641Z" stroke="#E8E8E8" stroke-width="8.2351" stroke-miterlimit="10" stroke-linecap="round" stroke-linejoin="round" stroke-dasharray="0.03 12.96"/>
<path d="M-165.118 -59.1778C-163.026 -107.326 -153.322 -145.994 -138.546 -177.149C-122.91 -209.954 -103.427 -237.242 -83.7529 -265.228C-76.2985 -275.83 -68.3866 -286.078 -58.3251 -292.476C-54.5273 -294.9 -50.2017 -296.811 -44.7193 -294.32C-38.3915 -291.446 -31.6293 -284.129 -25.0897 -277.257C-14.3054 -265.933 -3.052 -254.174 6.03109 -238.34C18.2821 -216.97 25.5165 -192.596 35.7261 -169.026C43.728 -150.536 51.8233 -135.339 59.2709 -118.091C65.1729 -104.426 63.3345 -93.8845 62.844 -82.1977C61.867 -59.0467 56.8686 -40.5775 48.5621 -27.8893C38.3526 -12.2764 23.8471 -4.55486 9.38656 2.79638C-24.6725 20.0754 -56.4465 42.1905 -75.5843 87.4705C-77.1491 91.1504 -79.4833 94.6344 -83.6931 92.1178C-87.1433 90.0547 -90.7155 84.3528 -94.2653 79.4415C-113.381 52.9896 -132.201 25.0037 -149.778 -5.22979C-155.458 -14.9991 -161.099 -25.7151 -163.592 -36.1035C-165.704 -44.8906 -165.42 -52.266 -165.118 -59.1778Z" stroke="#E8E8E8" stroke-width="8.4016" stroke-miterlimit="10" stroke-linecap="round" stroke-linejoin="round" stroke-dasharray="0.03 12.93"/>
<path d="M-161.862 -67.9202C-159.958 -112.274 -150.997 -147.842 -137.388 -176.524C-122.894 -206.886 -104.955 -232.31 -87.0646 -258.554C-80.3408 -268.415 -73.1953 -277.94 -64.1018 -283.939C-60.662 -286.213 -56.7389 -288.021 -51.724 -285.726C-45.8391 -283.034 -39.5214 -276.143 -33.4036 -269.697C-23.4722 -259.234 -13.0988 -248.399 -4.67298 -233.754C6.6756 -214.018 13.5272 -191.535 22.9181 -169.772C30.399 -152.425 37.7812 -138.116 44.5773 -121.965C49.9836 -109.116 48.2257 -99.1644 47.7702 -88.1168C46.8826 -66.7434 42.3486 -49.6361 34.7017 -37.9027C25.3492 -23.5326 12.0228 -16.4351 -1.26364 -9.69043C-32.5056 6.16287 -61.4411 26.7586 -78.9182 68.1909C-80.3593 71.594 -82.5488 74.7592 -86.4579 72.3668C-89.6963 70.3857 -93.0426 64.9583 -96.388 60.3243C-114.015 35.8999 -131.398 10.155 -147.634 -17.6846C-152.902 -26.7179 -158.109 -36.6284 -160.424 -46.2432C-162.413 -54.5012 -162.141 -61.4299 -161.862 -67.9202Z" stroke="#E8E8E8" stroke-width="8.568" stroke-miterlimit="10" stroke-linecap="round" stroke-linejoin="round" stroke-dasharray="0.03 12.91"/>
<path d="M-158.633 -76.6845C-156.881 -117.209 -148.676 -149.69 -136.229 -175.898C-122.878 -203.816 -106.481 -227.375 -90.32 -251.83C-84.304 -260.935 -77.8977 -269.708 -69.7351 -275.275C-66.6393 -277.388 -63.1096 -279.079 -58.554 -276.976C-53.1061 -274.46 -47.2324 -267.996 -41.5392 -261.975C-32.4621 -252.378 -22.9745 -242.469 -15.2254 -229.031C-4.80281 -210.951 1.62717 -190.39 10.1805 -170.453C17.128 -154.253 23.7935 -140.838 29.9265 -125.796C34.8342 -113.765 33.1461 -104.413 32.7214 -94.0093C31.9108 -74.4283 27.8307 -58.687 20.8429 -47.9121C12.3423 -34.7869 0.196516 -28.3127 -11.9136 -22.1752C-40.3409 -7.75177 -66.4396 11.3238 -82.3531 48.8205C-83.6828 51.9418 -85.7372 54.7714 -89.3491 52.5019C-92.3787 50.6 -95.4966 45.4514 -98.6357 41.0954C-114.757 18.7168 -130.687 -4.76765 -145.558 -30.1971C-150.411 -38.4882 -155.175 -47.587 -157.302 -56.4238C-159.159 -64.1442 -158.899 -70.6213 -158.633 -76.6845Z" stroke="#E8E8E8" stroke-width="8.7345" stroke-miterlimit="10" stroke-linecap="round" stroke-linejoin="round" stroke-dasharray="0.03 12.88"/>
<path d="M-155.426 -85.4674C-153.801 -122.14 -146.355 -151.536 -135.07 -175.271C-122.863 -200.746 -107.998 -222.429 -93.5193 -245.057C-88.1897 -253.384 -82.4991 -261.382 -75.2344 -266.491C-72.4733 -268.436 -69.3183 -269.997 -65.2161 -268.08C-60.1975 -265.733 -54.7694 -259.697 -49.5044 -254.107C-41.2868 -245.38 -32.6869 -236.401 -25.6316 -224.183C-16.1579 -207.779 -10.1878 -189.166 -2.48505 -171.073C3.91382 -156.033 9.85676 -143.518 15.3248 -129.591C19.725 -118.382 18.1032 -109.635 17.6976 -99.8867C16.9534 -82.1072 13.3154 -67.7383 6.98725 -57.9232C-0.664028 -46.0471 -11.6242 -40.1927 -22.5603 -34.6617C-48.1782 -21.6703 -71.4401 -4.11489 -85.8807 29.3676C-87.1055 32.1979 -89.0355 34.6875 -92.3525 32.5367C-95.1734 30.709 -98.0611 25.8449 -100.988 21.7711C-115.585 1.45371 -130.04 -19.7567 -143.536 -42.7606C-147.963 -50.3065 -152.286 -58.5873 -154.215 -66.6378C-155.937 -73.8164 -155.677 -79.8334 -155.426 -85.4674Z" stroke="#E8E8E8" stroke-width="8.901" stroke-miterlimit="10" stroke-linecap="round" stroke-linejoin="round" stroke-dasharray="0.03 12.85"/>
<path d="M-152.234 -94.2649C-150.715 -127.067 -144.032 -153.383 -133.912 -174.646C-122.85 -197.678 -109.512 -217.481 -96.6708 -238.239C-92.0094 -245.772 -87.005 -252.977 -80.61 -257.597C-78.171 -259.361 -75.3795 -260.784 -71.726 -259.048C-67.1309 -256.866 -62.1527 -251.262 -57.3171 -246.1C-49.963 -238.247 -42.2554 -230.203 -35.9051 -219.218C-27.4052 -204.514 -21.926 -187.868 -15.0886 -171.638C-9.24541 -157.761 -4.03163 -146.151 0.76138 -133.348C4.64893 -122.963 3.08461 -114.835 2.69343 -105.741C2.0043 -89.7754 -1.19558 -76.7837 -6.8689 -67.932C-13.6725 -57.3056 -23.4489 -52.0717 -33.2074 -47.1458C-56.0171 -35.5886 -76.4494 -19.5562 -89.4866 9.84663C-90.613 12.3818 -92.4296 14.5189 -95.4511 12.4903C-98.0687 10.7348 -100.719 6.15641 -103.435 2.36701C-116.499 -15.8737 -129.461 -34.7997 -141.562 -55.3654C-145.559 -62.1598 -149.43 -69.6184 -151.158 -76.8775C-152.737 -83.5095 -152.477 -89.065 -152.234 -94.2649Z" stroke="#E8E8E8" stroke-width="9.0675" stroke-miterlimit="10" stroke-linecap="round" stroke-linejoin="round" stroke-dasharray="0.03 12.83"/>
<path d="M-149.055 -103.074C-147.623 -131.987 -141.708 -155.232 -132.756 -174.019C-122.836 -194.612 -111.021 -212.526 -99.7723 -231.38C-95.7615 -238.102 -91.4198 -244.492 -85.869 -248.6C-83.7434 -250.177 -81.3042 -251.445 -78.0912 -249.887C-73.9149 -247.865 -69.3846 -242.694 -64.9814 -237.962C-58.4915 -230.987 -51.6828 -223.877 -46.0557 -214.14C-38.5465 -201.149 -33.597 -186.496 -27.6339 -172.147C-22.3588 -159.443 -17.8792 -148.739 -13.7655 -137.071C-10.3935 -127.512 -11.9088 -120.008 -12.2898 -111.578C-12.9296 -97.4322 -15.7044 -85.8311 -20.7239 -77.9399C-26.6811 -68.5655 -35.272 -63.9514 -43.8553 -59.6299C-63.8561 -49.5082 -81.4716 -35.0121 -93.1538 -9.73117C-94.1899 -7.49119 -95.8957 -5.72063 -98.6293 -7.62852C-101.045 -9.31403 -103.457 -13.6002 -105.957 -17.1073C-117.475 -33.2567 -128.928 -49.8855 -139.624 -68.0038C-143.189 -74.044 -146.604 -80.6774 -148.124 -87.1411C-149.558 -93.2207 -149.291 -98.3085 -149.055 -103.074Z" stroke="#E8E8E8" stroke-width="9.2339" stroke-miterlimit="10" stroke-linecap="round" stroke-linejoin="round" stroke-dasharray="0.03 12.8"/>
</g>
</svg>
