<svg width="240" height="260" viewBox="0 0 240 260" fill="none" xmlns="http://www.w3.org/2000/svg">
<path opacity="0.45" d="M17.1286 94.4253C17.0166 94.4337 16.9556 94.3756 16.9129 94.2957L15.64 91.9295L13.3045 90.631C13.2259 90.5874 13.1772 90.504 13.1772 90.4131C13.1772 90.3223 13.2269 90.2389 13.3055 90.1957L15.6483 88.9101L16.934 86.5514C16.9773 86.472 17.0495 86.4323 17.1498 86.4229C17.2397 86.4229 17.3223 86.473 17.365 86.5524L18.6379 88.9186L20.9734 90.2171C21.052 90.2607 21.1007 90.3446 21.1007 90.435C21.1007 90.5253 21.051 90.6092 20.9724 90.6524L18.6296 91.938L17.3439 94.2967C17.3006 94.3761 17.2181 94.4253 17.1286 94.4253ZM13.9346 90.4151L15.9398 91.53C15.9806 91.5528 16.0145 91.587 16.0371 91.6287L17.1301 93.6599L18.2334 91.6347C18.2561 91.5935 18.29 91.5592 18.3312 91.5364L20.3423 90.433L18.3371 89.3182C18.2964 89.2953 18.2624 89.2611 18.2398 89.2194L17.1473 87.1882L16.0435 89.2134C16.0209 89.2546 15.987 89.2889 15.9457 89.3117L13.9346 90.4151Z" fill="#5800B5"/>
<g opacity="0.45">
<path d="M147.956 244.613C147.821 244.613 147.71 244.502 147.71 244.365V242.598C147.71 242.461 147.821 242.35 147.956 242.35C148.092 242.35 148.202 242.461 148.202 242.598V244.365C148.202 244.502 148.092 244.613 147.956 244.613Z" fill="#5800B5"/>
<path d="M147.956 249.15C147.821 249.15 147.71 249.039 147.71 248.902V247.135C147.71 246.998 147.821 246.887 147.956 246.887C148.092 246.887 148.202 246.998 148.202 247.135V248.902C148.202 249.039 148.092 249.15 147.956 249.15Z" fill="#5800B5"/>
<path d="M146.585 245.999H144.836C144.7 245.999 144.59 245.887 144.59 245.75C144.59 245.613 144.7 245.502 144.836 245.502H146.585C146.721 245.502 146.831 245.613 146.831 245.75C146.831 245.887 146.721 245.999 146.585 245.999Z" fill="#5800B5"/>
<path d="M151.077 245.999H149.328C149.193 245.999 149.083 245.887 149.083 245.75C149.083 245.613 149.193 245.502 149.328 245.502H151.077C151.213 245.502 151.323 245.613 151.323 245.75C151.323 245.887 151.213 245.999 151.077 245.999Z" fill="#5800B5"/>
<path d="M150.163 248.228C150.1 248.228 150.037 248.204 149.989 248.156L148.752 246.905C148.656 246.809 148.656 246.651 148.752 246.554C148.848 246.457 149.004 246.457 149.1 246.554L150.337 247.805C150.432 247.902 150.432 248.059 150.337 248.156C150.289 248.204 150.226 248.228 150.163 248.228Z" fill="#5800B5"/>
<path d="M146.987 245.02C146.924 245.02 146.861 244.996 146.813 244.947L145.576 243.697C145.48 243.601 145.48 243.443 145.576 243.346C145.672 243.249 145.827 243.249 145.923 243.346L147.16 244.596C147.256 244.693 147.256 244.851 147.16 244.947C147.113 244.996 147.05 245.02 146.987 245.02Z" fill="#5800B5"/>
<path d="M148.926 245.02C148.863 245.02 148.8 244.996 148.752 244.947C148.656 244.851 148.656 244.693 148.752 244.596L149.989 243.346C150.085 243.249 150.241 243.249 150.337 243.346C150.432 243.443 150.432 243.601 150.337 243.697L149.1 244.947C149.052 244.996 148.989 245.02 148.926 245.02Z" fill="#5800B5"/>
<path d="M145.75 248.228C145.687 248.228 145.624 248.204 145.576 248.156C145.48 248.059 145.48 247.902 145.576 247.805L146.813 246.554C146.909 246.457 147.064 246.457 147.16 246.554C147.256 246.651 147.256 246.809 147.16 246.905L145.923 248.156C145.875 248.204 145.812 248.228 145.75 248.228Z" fill="#5800B5"/>
</g>
<path d="M36.4886 59.7144C35.8526 59.206 35.2653 58.7496 34.6943 58.2772C32.4276 56.4007 30.4259 54.3088 28.7233 51.9717C28.1074 51.1256 27.5439 50.2491 27.029 49.3474C26.2498 47.9827 25.6923 46.5238 25.2468 45.0219C25.0409 44.3278 24.7968 43.6451 24.5924 42.95C24.0013 40.9429 23.9774 38.8734 24.2591 36.7684C24.6159 34.1001 25.6131 31.6128 27.2301 29.2962C27.2649 29.2466 27.2978 29.195 27.3346 29.1462C27.5538 28.8549 27.5737 28.8489 27.9139 28.9485C29.3207 29.36 30.7635 29.6598 32.2448 29.8249C35.0014 30.1326 37.7633 29.9986 40.5191 29.2828C41.9773 28.904 43.3352 28.3123 44.5303 27.3972C45.405 26.7273 46.1143 25.9409 46.5779 24.9932C47.184 23.7526 47.2689 22.5315 46.5373 21.3937C45.9831 20.532 45.1202 20.0041 44.089 19.6828C42.5116 19.1908 40.8666 19.1695 39.1895 19.4305C37.3958 19.7095 35.6877 20.2659 34.0391 21.0508C31.3209 22.3448 29.0759 24.1523 27.1731 26.352C26.8343 26.7438 26.8284 26.764 26.3438 26.6246C24.9679 26.2282 23.5939 25.8269 22.2279 25.4062C19.7996 24.6588 17.4267 23.796 15.1127 22.8169C14.5867 22.5942 14.0724 22.3509 13.5512 22.1196C13.4213 22.0619 13.303 21.9729 13.0853 21.9676C13.2124 22.152 13.3634 22.2443 13.5028 22.3407C16.0887 24.1278 18.8285 25.6931 21.8406 26.8619C22.9229 27.2822 24.0214 27.6727 25.1154 28.0707C25.6695 28.2722 25.6747 28.2698 25.341 28.7583C23.3894 31.618 22.3824 34.6955 22.115 37.9576C21.9183 40.3562 22.2368 42.6549 23.0609 44.8635C23.6625 46.4771 24.4444 48.0055 25.3718 49.4698C27.4373 52.7312 30.2227 55.3925 33.3614 57.7638C34.2373 58.4256 35.0915 59.1152 36.1081 59.6088C36.1986 59.6528 36.274 59.7315 36.4886 59.7144ZM34.7339 22.6691C35.3839 22.3319 36.346 21.9626 37.3348 21.667C38.979 21.1754 40.6384 20.9217 42.3166 21.1559C42.9802 21.2483 43.6102 21.4255 44.1566 21.7714C44.9911 22.2998 45.245 23.0472 44.9168 23.9761C44.6516 24.7267 44.1412 25.3322 43.5037 25.8594C42.6565 26.5599 41.6773 27.0321 40.6213 27.3596C38.7216 27.9489 36.7825 28.1517 34.8334 28.1633C32.8968 28.1751 31.0197 27.9013 29.1915 27.4297C28.7989 27.3284 28.7953 27.2998 29.0707 26.9758C29.0801 26.9639 29.0912 26.9531 29.1018 26.9413C30.6304 25.2716 32.3878 23.8587 34.7339 22.6691Z" fill="#C8BCEA"/>
<path d="M15.0488 29.5875L17.8558 22.7184L17.8954 22.6225L17.9694 22.5507L23.823 16.8166L1.25571 14.4986L15.0488 29.5875Z" fill="white" stroke="#652AC1"/>
<path d="M17.9574 23.8375L21.214 24.3104L19.1935 22.1821L6.13907 16.8931L17.9574 23.8375Z" fill="#CECEF4" stroke="#652AC1"/>
<path d="M66.8413 42.0859V26.8615C66.8413 19.9543 72.3782 14.3545 79.2077 14.3545H144.299" stroke="#652EFF" stroke-width="1.072" stroke-miterlimit="10" stroke-dasharray="2 2"/>
<path d="M140.845 14.9321H212.993C217.472 14.9321 221.102 18.604 221.102 23.1338V134.962C221.102 139.493 217.471 143.164 212.993 143.164H198.188" stroke="#652EFF" stroke-width="1.072" stroke-miterlimit="10" stroke-dasharray="2 2"/>
<path d="M46.251 25.9905H84.0879C85.5632 25.9905 86.8598 26.4909 87.793 27.5305C88.7308 28.5754 89.3545 30.2243 89.3545 32.6174V96.0608C89.3545 98.4555 88.7312 99.8451 87.832 100.649C86.9222 101.462 85.6285 101.767 84.0879 101.767H46.251C44.71 101.767 43.4158 101.462 42.5059 100.649C41.6067 99.8451 40.9844 98.4554 40.9844 96.0608V32.6174L40.9912 32.177C41.0631 30.0205 41.6658 28.5101 42.5449 27.5305C43.4783 26.4907 44.7758 25.9905 46.251 25.9905Z" fill="white" stroke="#652EFF"/>
<path d="M52.7593 86.1707H77.3348" stroke="#D9CDFC" stroke-width="2" stroke-miterlimit="10" stroke-linecap="round"/>
<path d="M52.7593 90.4578H77.3348" stroke="#D9CDFC" stroke-width="2" stroke-miterlimit="10" stroke-linecap="round"/>
<path d="M64.6548 94.7454H77.3349" stroke="#D9CDFC" stroke-width="2" stroke-miterlimit="10" stroke-linecap="round"/>
<g opacity="0.45">
<path d="M119.95 216.885C120.833 216.885 121.548 216.161 121.548 215.268C121.548 214.374 120.833 213.65 119.95 213.65C119.066 213.65 118.351 214.374 118.351 215.268C118.351 216.161 119.066 216.885 119.95 216.885Z" fill="#652AC1"/>
<path d="M128.423 216.884C129.305 216.884 130.021 216.161 130.021 215.268C130.021 214.375 129.305 213.651 128.423 213.651C127.54 213.651 126.824 214.375 126.824 215.268C126.824 216.161 127.54 216.884 128.423 216.884Z" fill="#652AC1"/>
<path d="M136.896 216.885C137.779 216.885 138.495 216.161 138.495 215.268C138.495 214.374 137.779 213.65 136.896 213.65C136.013 213.65 135.297 214.374 135.297 215.268C135.297 216.161 136.013 216.885 136.896 216.885Z" fill="#652AC1"/>
<path d="M145.559 217.104C146.442 217.104 147.157 216.38 147.157 215.487C147.157 214.594 146.442 213.87 145.559 213.87C144.676 213.87 143.96 214.594 143.96 215.487C143.96 216.38 144.676 217.104 145.559 217.104Z" fill="#652AC1"/>
<path d="M154.032 217.104C154.915 217.104 155.631 216.38 155.631 215.487C155.631 214.594 154.915 213.87 154.032 213.87C153.149 213.87 152.433 214.594 152.433 215.487C152.433 216.38 153.149 217.104 154.032 217.104Z" fill="#652AC1"/>
<path d="M162.503 217.104C163.386 217.104 164.102 216.38 164.102 215.487C164.102 214.594 163.386 213.87 162.503 213.87C161.62 213.87 160.904 214.594 160.904 215.487C160.904 216.38 161.62 217.104 162.503 217.104Z" fill="#652AC1"/>
</g>
<g opacity="0.45">
<path d="M119.95 223.422C120.833 223.422 121.548 222.698 121.548 221.805C121.548 220.912 120.833 220.188 119.95 220.188C119.066 220.188 118.351 220.912 118.351 221.805C118.351 222.698 119.066 223.422 119.95 223.422Z" fill="#652AC1"/>
<path d="M128.423 223.421C129.305 223.421 130.021 222.697 130.021 221.805C130.021 220.912 129.305 220.188 128.423 220.188C127.54 220.188 126.824 220.912 126.824 221.805C126.824 222.697 127.54 223.421 128.423 223.421Z" fill="#652AC1"/>
<path d="M136.896 223.422C137.779 223.422 138.495 222.698 138.495 221.805C138.495 220.912 137.779 220.188 136.896 220.188C136.013 220.188 135.297 220.912 135.297 221.805C135.297 222.698 136.013 223.422 136.896 223.422Z" fill="#652AC1"/>
<path d="M145.559 223.64C146.442 223.64 147.157 222.917 147.157 222.024C147.157 221.131 146.442 220.407 145.559 220.407C144.676 220.407 143.96 221.131 143.96 222.024C143.96 222.917 144.676 223.64 145.559 223.64Z" fill="#652AC1"/>
<path d="M154.032 223.641C154.915 223.641 155.631 222.917 155.631 222.024C155.631 221.131 154.915 220.406 154.032 220.406C153.149 220.406 152.433 221.131 152.433 222.024C152.433 222.917 153.149 223.641 154.032 223.641Z" fill="#652AC1"/>
<path d="M162.503 223.641C163.386 223.641 164.102 222.917 164.102 222.024C164.102 221.131 163.386 220.406 162.503 220.406C161.62 220.406 160.904 221.131 160.904 222.024C160.904 222.917 161.62 223.641 162.503 223.641Z" fill="#652AC1"/>
</g>
<path d="M73.8735 39.1494C78.1675 39.1496 81.638 42.6681 81.6382 46.9971C81.6382 51.3262 78.1676 54.8456 73.8735 54.8457H58.9575C54.6633 54.8457 51.1919 51.3263 51.1919 46.9971C51.1921 42.6686 54.6634 39.1494 58.9575 39.1494H73.8735Z" fill="white" stroke="#652AC1"/>
<path d="M60.5902 51.4917H60.3227C57.8685 51.4917 55.8794 49.4794 55.8794 46.9973C55.8794 44.5152 57.8685 42.5029 60.3227 42.5029H60.5902C63.0444 42.5029 65.0335 44.5152 65.0335 46.9973C65.0335 49.4799 63.0444 51.4917 60.5902 51.4917Z" fill="#652AC1"/>
<path d="M73.8726 62.0276C78.1666 62.0277 81.637 65.5463 81.6372 69.8752C81.6372 74.2044 78.1667 77.7237 73.8726 77.7239H58.9565C54.6623 77.7239 51.1909 74.2045 51.1909 69.8752C51.1911 65.5462 54.6624 62.0276 58.9565 62.0276H73.8726Z" fill="white" stroke="#652AC1"/>
<path d="M72.5414 74.3693H72.2738C69.8197 74.3693 67.8306 72.357 67.8306 69.8755C67.8306 67.3934 69.8197 65.3811 72.2738 65.3811H72.5414C74.9956 65.3811 76.9847 67.3934 76.9847 69.8755C76.9847 72.3576 74.9956 74.3693 72.5414 74.3693Z" fill="#652AC1"/>
<path d="M121.106 40.0503H191.771C198.089 40.0503 203.293 45.724 203.293 52.8286V188.235C203.293 195.34 198.089 201.013 191.771 201.013H121.106C114.788 201.013 109.584 195.34 109.584 188.235V52.8276C109.584 45.7232 114.788 40.0505 121.106 40.0503Z" fill="white" stroke="#652EFF"/>
<path d="M188.577 145.719H125.063C119.095 145.719 114.257 147.629 114.257 149.985V193.488C114.257 195.844 119.096 197.754 125.063 197.754H188.577C194.546 197.754 199.384 195.844 199.384 193.488V149.985C199.384 147.629 194.546 145.719 188.577 145.719Z" fill="white"/>
<path d="M156.238 193.416C157.997 193.416 159.423 191.974 159.423 190.195C159.423 188.415 157.997 186.973 156.238 186.973C154.478 186.973 153.052 188.415 153.052 190.195C153.052 191.974 154.478 193.416 156.238 193.416Z" fill="#652AC1" fill-opacity="0.5"/>
<path d="M162.966 45.7159H149.91C149.415 45.7159 149.014 45.3098 149.014 44.8086C149.014 44.3075 149.416 43.9014 149.91 43.9014H162.966C163.462 43.9014 163.863 44.3075 163.863 44.8086C163.863 45.3098 163.462 45.7159 162.966 45.7159Z" fill="#652EFF"/>
<path opacity="0.5" d="M135.957 135.436C134.592 135.436 133.472 135.036 132.597 134.236C131.733 133.425 131.301 132.14 131.301 130.38V124.076H133.781V130.204C133.781 132.103 134.506 133.052 135.957 133.052C136.736 133.052 137.29 132.791 137.621 132.268C137.952 131.745 138.117 131.057 138.117 130.204V124.076H140.597V130.38C140.597 132.14 140.16 133.425 139.285 134.236C138.421 135.036 137.312 135.436 135.957 135.436ZM142.46 124.076H144.972V135.276H142.46V124.076ZM154.077 125.88H155.829L151.653 137.748H149.901L154.077 125.88ZM164.406 135.436C163.041 135.436 161.921 135.036 161.046 134.236C160.182 133.425 159.75 132.14 159.75 130.38V124.076H162.23V130.204C162.23 132.103 162.956 133.052 164.406 133.052C165.185 133.052 165.74 132.791 166.07 132.268C166.401 131.745 166.566 131.057 166.566 130.204V124.076H169.046V130.38C169.046 132.14 168.609 133.425 167.734 134.236C166.87 135.036 165.761 135.436 164.406 135.436ZM173.855 129.676L170.255 124.076H172.975L175.295 127.916H175.391L177.743 124.076H180.447L176.815 129.676L180.463 135.276H177.743L175.391 131.42H175.295L172.975 135.276H170.239L173.855 129.676Z" fill="#652AC1"/>
<path d="M166.741 85.7263C166.741 79.683 161.841 74.7832 155.798 74.7832C149.754 74.7832 144.854 79.683 144.854 85.7263C144.854 87.9034 145.498 89.9258 146.593 91.6298H146.585L151.36 100.76H159.83L165.009 91.6298H165.002C166.098 89.9258 166.741 87.9034 166.741 85.7263Z" stroke="#652EFF" stroke-width="2.144" stroke-miterlimit="10"/>
<path d="M159.55 103.424V104.622H151.463V103.424H159.55Z" fill="white" stroke="#652EFF"/>
<path d="M159.55 106.795V107.993H151.463V106.795H159.55Z" fill="white" stroke="#652EFF"/>
<path d="M159.55 110.456V111.654H151.463V110.456H159.55Z" fill="white" stroke="#652EFF"/>
<path d="M141.849 77.8831L134.72 70.7529" stroke="#652EFF" stroke-width="2.144" stroke-miterlimit="10" stroke-linecap="round" stroke-linejoin="round"/>
<path d="M169.126 77.8831L176.256 70.7529" stroke="#652EFF" stroke-width="2.144" stroke-miterlimit="10" stroke-linecap="round" stroke-linejoin="round"/>
<path d="M155.798 61.4546V70.7531" stroke="#652EFF" stroke-width="2.144" stroke-miterlimit="10" stroke-linecap="round" stroke-linejoin="round"/>
<path d="M114.542 118.575C117.644 118.575 120.149 121.118 120.149 124.241V124.883C120.149 128.006 117.644 130.549 114.542 130.549H67.5786C64.4763 130.549 61.9712 128.006 61.9712 124.883V124.241C61.9712 121.117 64.4763 118.575 67.5786 118.575H114.542Z" fill="white" stroke="#652EFF"/>
<path d="M67.1284 124.623H113.999" stroke="#652EFF" stroke-width="2.144" stroke-miterlimit="10"/>
<path d="M110.111 124.02V124.236C110.111 126.21 108.511 127.81 106.537 127.81C104.563 127.81 102.962 126.21 102.962 124.236V124.02C102.962 122.046 104.563 120.446 106.537 120.446C108.511 120.446 110.111 122.046 110.111 124.02Z" fill="#652AC1"/>
<path d="M114.542 136.282C117.644 136.282 120.149 138.824 120.149 141.948V142.589C120.149 145.713 117.644 148.255 114.542 148.255H67.5786C64.4764 148.255 61.9714 145.713 61.9712 142.589V141.948C61.9712 138.824 64.4763 136.282 67.5786 136.282H114.542Z" fill="white" stroke="#652EFF"/>
<path d="M67.1284 142.268H113.999" stroke="#652EFF" stroke-width="2" stroke-miterlimit="10"/>
<path d="M76.1587 140.013H76.1597C77.5806 140.013 78.7329 141.165 78.7329 142.587V142.802C78.7329 144.223 77.5806 145.376 76.1597 145.376H76.1587C74.7374 145.376 73.5845 144.223 73.5845 142.802V142.587L73.5981 142.323C73.7302 141.025 74.8264 140.013 76.1587 140.013Z" fill="#652EFF" stroke="#652EFF" stroke-width="2"/>
<path d="M114.542 153.988C117.644 153.988 120.149 156.531 120.149 159.654V160.296C120.149 163.42 117.644 165.962 114.542 165.962H67.5786C64.4764 165.962 61.9714 163.42 61.9712 160.296V159.654C61.9712 156.531 64.4763 153.988 67.5786 153.988H114.542Z" fill="white" stroke="#652EFF"/>
<path d="M67.1284 159.915H113.999" stroke="#652EFF" stroke-width="2.144" stroke-miterlimit="10"/>
<path d="M98.7212 160.232V160.448C98.7212 162.421 97.121 164.022 95.147 164.022C93.1729 164.022 91.5728 162.421 91.5728 160.448V160.232C91.5728 158.258 93.1729 156.658 95.147 156.658C97.121 156.658 98.7212 158.258 98.7212 160.232Z" fill="#652AC1"/>
<path d="M50.6484 204.126H97.0283C100.69 204.126 103.597 206.883 103.597 210.211V253.416C103.597 256.744 100.69 259.5 97.0283 259.5H50.6484C46.9867 259.5 44.0793 256.743 44.0791 253.416V210.211C44.0791 206.883 46.9866 204.126 50.6484 204.126Z" fill="white" stroke="#652EFF"/>
<path d="M65.6177 227.565C68.5895 227.565 71.1391 229.347 72.2983 231.904C73.6026 230.699 75.3381 229.958 77.2485 229.958C80.4904 229.959 83.2282 232.081 84.2075 235.014C85.0365 234.684 85.9379 234.496 86.8853 234.496C90.9503 234.496 94.2368 237.826 94.2368 241.924C94.2368 246.023 90.9506 249.354 86.8853 249.354H58.7661C54.7008 249.354 51.4146 246.023 51.4146 241.924C51.4146 237.99 54.4436 234.764 58.2827 234.512C58.5286 230.638 61.7133 227.565 65.6177 227.565Z" fill="white" stroke="#652EFF"/>
<path d="M71.9453 214.36V224.93" stroke="#8046F8" stroke-width="3.216" stroke-miterlimit="10" stroke-linecap="round" stroke-linejoin="round"/>
<path d="M75.5994 218.628L71.945 214.36L68.29 218.628" stroke="#8046F8" stroke-width="3.216" stroke-miterlimit="10" stroke-linecap="round" stroke-linejoin="round"/>
<path d="M85.9883 218.659V229.229" stroke="#8046F8" stroke-width="3.216" stroke-miterlimit="10" stroke-linecap="round" stroke-linejoin="round"/>
<path d="M89.6419 222.927L85.9875 218.659L82.3325 222.927" stroke="#8046F8" stroke-width="3.216" stroke-miterlimit="10" stroke-linecap="round" stroke-linejoin="round"/>
<path d="M55.7275 218.122V228.692" stroke="#8046F8" stroke-width="3.216" stroke-miterlimit="10" stroke-linecap="round" stroke-linejoin="round"/>
<path d="M59.3826 222.39L55.7282 218.122L52.0732 222.39" stroke="#8046F8" stroke-width="3.216" stroke-miterlimit="10" stroke-linecap="round" stroke-linejoin="round"/>
<path d="M184.582 169.833H184.183C180.515 169.833 177.542 166.826 177.542 163.117V163.117C177.542 159.408 180.515 156.401 184.183 156.401H184.582C188.25 156.401 191.223 159.408 191.223 163.117V163.117C191.223 166.827 188.25 169.833 184.582 169.833Z" fill="#E8E8E8"/>
<path d="M184.582 169.833H184.183C180.515 169.833 177.542 166.826 177.542 163.117V163.117C177.542 159.408 180.515 156.401 184.183 156.401H184.582C188.25 156.401 191.223 159.408 191.223 163.117V163.117C191.223 166.827 188.25 169.833 184.582 169.833Z" fill="#F7FBFE"/>
<path d="M184.582 169.833H184.183C180.515 169.833 177.542 166.826 177.542 163.117V163.117C177.542 159.408 180.515 156.401 184.183 156.401H184.582C188.25 156.401 191.223 159.408 191.223 163.117V163.117C191.223 166.827 188.25 169.833 184.582 169.833Z" fill="white" stroke="#652EFF" stroke-miterlimit="10"/>
<path d="M184.093 166.287C182.649 166.287 181.474 165.113 181.474 163.668C181.474 162.509 182.251 161.474 183.363 161.152L183.497 161.615C182.59 161.878 181.955 162.722 181.955 163.668C181.955 164.846 182.914 165.806 184.093 165.806C185.271 165.806 186.23 164.846 186.23 163.668C186.23 162.722 185.595 161.878 184.688 161.615L184.822 161.152C185.934 161.474 186.711 162.509 186.711 163.668C186.712 165.113 185.538 166.287 184.093 166.287Z" fill="#652AC1"/>
<path d="M184.331 159.702H183.848V162.543H184.331V159.702Z" fill="#652AC1"/>
<path d="M129.614 169.833H129.214C125.547 169.833 122.574 166.826 122.574 163.117V163.117C122.574 159.408 125.547 156.401 129.214 156.401H129.614C133.281 156.401 136.254 159.408 136.254 163.117V163.117C136.254 166.827 133.281 169.833 129.614 169.833Z" fill="#E8E8E8"/>
<path d="M129.614 169.833H129.214C125.547 169.833 122.574 166.826 122.574 163.117V163.117C122.574 159.408 125.547 156.401 129.214 156.401H129.614C133.281 156.401 136.254 159.408 136.254 163.117V163.117C136.254 166.827 133.281 169.833 129.614 169.833Z" fill="#F7FBFE"/>
<path d="M129.614 169.833H129.214C125.547 169.833 122.574 166.826 122.574 163.117V163.117C122.574 159.408 125.547 156.401 129.214 156.401H129.614C133.281 156.401 136.254 159.408 136.254 163.117V163.117C136.254 166.827 133.281 169.833 129.614 169.833Z" fill="white" stroke="#652EFF" stroke-miterlimit="10"/>
<path d="M129.517 166.51L129.834 166.511C131.604 166.437 132.989 164.994 132.989 163.22C132.989 161.447 131.604 160.005 129.834 159.93L129.521 159.929L129.517 159.931C127.768 160.023 126.4 161.466 126.4 163.22C126.4 164.976 127.768 166.417 129.517 166.51ZM127.528 165.351C127.737 165.199 127.963 165.068 128.202 164.964C128.428 165.437 128.743 165.855 129.14 166.209C128.531 166.096 127.965 165.795 127.528 165.351ZM129.566 166.23C129.084 165.868 128.696 165.399 128.439 164.869C128.8 164.737 129.179 164.662 129.566 164.644V166.23ZM129.566 164.388C129.143 164.406 128.729 164.489 128.336 164.634C128.185 164.26 128.097 163.865 128.073 163.456L129.566 163.455V164.388ZM129.566 163.201L128.065 163.202C128.067 162.783 128.136 162.374 128.27 161.983C128.684 162.145 129.119 162.238 129.566 162.257V163.201ZM130.204 166.216C130.619 165.849 130.945 165.412 131.173 164.917C131.43 165.022 131.673 165.153 131.898 165.31C131.444 165.79 130.85 166.107 130.204 166.216ZM132.067 165.118C131.821 164.943 131.554 164.797 131.272 164.683C131.423 164.293 131.512 163.88 131.535 163.455L132.724 163.454C132.678 164.065 132.451 164.639 132.067 165.118ZM132.162 161.449C132.532 161.962 132.729 162.566 132.733 163.199L131.543 163.2C131.541 162.766 131.471 162.34 131.334 161.932C131.628 161.806 131.906 161.643 132.162 161.449ZM132.005 161.248C131.769 161.426 131.515 161.575 131.246 161.693C131.019 161.135 130.661 160.631 130.204 160.225C130.905 160.343 131.538 160.702 132.005 161.248ZM129.821 160.239C130.352 160.647 130.761 161.18 131.009 161.787C130.627 161.923 130.228 161.997 129.821 162.005V160.239ZM129.821 162.261C130.258 162.252 130.686 162.174 131.097 162.026C131.221 162.404 131.286 162.799 131.287 163.2L129.821 163.201V162.261ZM129.821 163.455L131.28 163.454C131.257 163.848 131.174 164.231 131.033 164.593C130.643 164.463 130.236 164.393 129.821 164.385V163.455ZM129.821 164.64C130.201 164.648 130.575 164.712 130.933 164.828C130.682 165.362 130.3 165.834 129.821 166.202V164.64ZM129.566 160.212V162.003C129.151 161.984 128.746 161.897 128.361 161.746C128.617 161.141 129.031 160.614 129.566 160.212ZM129.14 160.232C128.702 160.625 128.354 161.109 128.127 161.643C127.877 161.524 127.64 161.377 127.421 161.205C127.874 160.696 128.477 160.355 129.14 160.232ZM127.26 161.403C127.5 161.592 127.76 161.754 128.035 161.882C127.887 162.304 127.813 162.748 127.81 163.203L126.654 163.203C126.658 162.547 126.867 161.927 127.26 161.403ZM126.664 163.457L127.818 163.456C127.843 163.898 127.937 164.326 128.101 164.729C127.837 164.846 127.587 164.99 127.357 165.16C126.951 164.673 126.712 164.086 126.664 163.457Z" fill="#652AC1"/>
<path d="M166.332 169.833H165.933C162.265 169.833 159.292 166.826 159.292 163.117V163.117C159.292 159.408 162.265 156.401 165.933 156.401H166.332C169.999 156.401 172.973 159.408 172.973 163.117V163.117C172.973 166.827 170 169.833 166.332 169.833Z" fill="#E8E8E8"/>
<path d="M166.332 169.833H165.933C162.265 169.833 159.292 166.826 159.292 163.117V163.117C159.292 159.408 162.265 156.401 165.933 156.401H166.332C169.999 156.401 172.973 159.408 172.973 163.117V163.117C172.973 166.827 170 169.833 166.332 169.833Z" fill="#F7FBFE"/>
<path d="M166.332 169.833H165.933C162.265 169.833 159.292 166.826 159.292 163.117V163.117C159.292 159.408 162.265 156.401 165.933 156.401H166.332C169.999 156.401 172.973 159.408 172.973 163.117V163.117C172.973 166.827 170 169.833 166.332 169.833Z" fill="white" stroke="#652EFF" stroke-miterlimit="10"/>
<path d="M168.197 166.533L166.174 165.402L164.151 166.533L164.537 164.137L162.9 162.44L165.162 162.09L166.174 159.91L167.186 162.09L169.449 162.44L167.812 164.137L168.197 166.533ZM163.559 162.668L164.866 164.024L164.558 165.937L166.174 165.034L167.79 165.937L167.482 164.024L168.79 162.668L166.982 162.389L166.175 160.648L165.367 162.389L163.559 162.668Z" fill="#652AC1"/>
<path d="M147.712 169.833H147.312C143.645 169.833 140.672 166.826 140.672 163.117V163.117C140.672 159.408 143.645 156.401 147.312 156.401H147.712C151.379 156.401 154.353 159.408 154.353 163.117V163.117C154.353 166.827 151.379 169.833 147.712 169.833Z" fill="#E8E8E8"/>
<path d="M147.712 169.833H147.312C143.645 169.833 140.672 166.826 140.672 163.117V163.117C140.672 159.408 143.645 156.401 147.312 156.401H147.712C151.379 156.401 154.353 159.408 154.353 163.117V163.117C154.353 166.827 151.379 169.833 147.712 169.833Z" fill="#F7FBFE"/>
<path d="M147.712 169.833H147.312C143.645 169.833 140.672 166.826 140.672 163.117V163.117C140.672 159.408 143.645 156.401 147.312 156.401H147.712C151.379 156.401 154.353 159.408 154.353 163.117V163.117C154.353 166.827 151.379 169.833 147.712 169.833Z" fill="white" stroke="#652EFF" stroke-miterlimit="10"/>
<path d="M146.576 165.469C146.505 165.469 146.438 165.441 146.388 165.392L144.25 163.254C144.146 163.15 144.146 162.982 144.25 162.879C144.355 162.775 144.522 162.775 144.625 162.879L146.575 164.828L150.457 160.948C150.56 160.843 150.728 160.843 150.832 160.948C150.936 161.051 150.936 161.219 150.832 161.323L146.764 165.392C146.714 165.441 146.646 165.469 146.576 165.469Z" fill="#652AC1"/>
<path d="M43.5765 236.159H35.9035C31.6667 236.159 28.231 232.685 28.231 228.4V55.6859C28.231 51.4003 36.344 47.9255 40.5807 47.9255" stroke="#652EFF" stroke-width="1.072" stroke-miterlimit="10" stroke-dasharray="2 2"/>
<path d="M3.06348 113.735H51.9629C52.7834 113.735 53.4589 114.41 53.459 115.254V169.099C53.459 169.943 52.7835 170.618 51.9629 170.618H3.06348C2.24709 170.618 1.56761 169.939 1.56738 169.1V115.254C1.56748 114.409 2.24285 113.735 3.06348 113.735Z" fill="white" stroke="#652EFF"/>
<path opacity="0.5" d="M8.89795 126.203H46.1281" stroke="#652EFF" stroke-width="2" stroke-miterlimit="10" stroke-linecap="round"/>
<path opacity="0.5" d="M8.89795 132.656H46.1281" stroke="#652EFF" stroke-width="2" stroke-miterlimit="10" stroke-linecap="round"/>
<path opacity="0.5" d="M8.89795 139.108H46.1281" stroke="#652EFF" stroke-width="2" stroke-miterlimit="10" stroke-linecap="round"/>
<path opacity="0.5" d="M8.89795 145.56H46.1281" stroke="#652EFF" stroke-width="2" stroke-miterlimit="10" stroke-linecap="round"/>
<path opacity="0.5" d="M8.89795 152.012H46.1281" stroke="#652EFF" stroke-width="2" stroke-miterlimit="10" stroke-linecap="round"/>
<path opacity="0.5" d="M8.89795 158.464H30.0898" stroke="#652EFF" stroke-width="2" stroke-miterlimit="10" stroke-linecap="round"/>
<path d="M187.26 191.176H212.721C217.814 191.176 221.954 195.354 221.954 200.52V224.942C221.954 230.108 217.814 234.286 212.721 234.286H187.26C182.166 234.286 178.027 230.108 178.027 224.942V200.52C178.027 195.354 182.166 191.176 187.26 191.176Z" fill="white" stroke="#652EFF"/>
<path d="M199.598 200.576H200.381C207.002 200.576 212.388 206.007 212.388 212.731C212.388 219.455 207.002 224.886 200.381 224.886H199.598C192.978 224.886 187.591 219.455 187.591 212.731C187.591 206.008 192.978 200.576 199.598 200.576Z" fill="#F7FBFE" stroke="#652EFF" stroke-width="2"/>
<path d="M200.381 225.886H199.598C192.415 225.886 186.591 219.996 186.591 212.731C186.591 205.466 192.415 199.576 199.598 199.576H200.381C207.565 199.576 213.389 205.466 213.389 212.731C213.389 219.996 207.565 225.886 200.381 225.886Z" stroke="#F4F4F4" stroke-width="1.1145" stroke-miterlimit="10"/>
<path d="M199.773 205.992H200.204C203.876 205.992 206.862 209.004 206.862 212.731C206.863 216.458 203.876 219.469 200.204 219.469H199.773C196.102 219.469 193.116 216.458 193.116 212.731C193.116 209.121 195.918 206.181 199.432 206.001L199.773 205.992Z" fill="#652EFF" stroke="#652EFF"/>
<path d="M211.746 241.02L216.671 243.896L211.746 246.772V241.02Z" fill="#652EFF"/>
<path d="M188.233 246.772L183.307 243.896L188.233 241.02V246.772Z" fill="#652EFF"/>
<path d="M198.889 241.873V245.919" stroke="#652EFF" stroke-width="1.072" stroke-miterlimit="10"/>
<path d="M201.165 241.873V245.919" stroke="#652EFF" stroke-width="1.072" stroke-miterlimit="10"/>
<path d="M201.569 130.094C207.178 130.094 211.734 134.694 211.734 140.38C211.734 146.067 207.178 150.667 201.569 150.667C195.961 150.667 191.404 146.067 191.404 140.38C191.404 134.694 195.961 130.094 201.569 130.094Z" fill="white" stroke="#652EFF"/>
<path d="M201.769 147.363C205.56 147.363 208.634 144.289 208.634 140.498C208.634 136.707 205.56 133.634 201.769 133.634C197.978 133.634 194.905 136.707 194.905 140.498C194.905 144.289 197.978 147.363 201.769 147.363Z" fill="#652EFF"/>
<path d="M147.47 4.30371C153.078 4.30371 157.635 8.90359 157.635 14.5898C157.635 20.2763 153.078 24.877 147.47 24.877C141.861 24.8769 137.305 20.2762 137.305 14.5898C137.305 8.90362 141.861 4.30377 147.47 4.30371Z" fill="white" stroke="#652EFF"/>
<path d="M147.347 21.4213C150.918 21.4213 153.812 18.5269 153.812 14.9565C153.812 11.3861 150.918 8.4917 147.347 8.4917C143.777 8.4917 140.882 11.3861 140.882 14.9565C140.882 18.5269 143.777 21.4213 147.347 21.4213Z" fill="#652EFF"/>
<path opacity="0.45" d="M10.9435 109.41C10.777 109.41 10.6232 109.317 10.544 109.169L8.88946 106.09L5.85338 104.4C5.70776 104.319 5.61768 104.164 5.61768 103.996C5.61768 103.827 5.7096 103.673 5.85521 103.592L8.9013 101.919L10.5722 98.8485C10.6523 98.7012 10.8052 98.6101 10.9708 98.6101H10.9718C11.1383 98.6101 11.2912 98.7031 11.3704 98.8503L13.0249 101.931L16.061 103.621C16.2066 103.702 16.2967 103.857 16.2967 104.025C16.2967 104.194 16.2048 104.348 16.0592 104.428L13.0131 106.103L11.3422 109.173C11.2621 109.319 11.1092 109.41 10.9435 109.41ZM7.02013 103.998L9.44462 105.348C9.52016 105.39 9.58295 105.454 9.62482 105.531L10.9463 107.989L12.2805 105.537C12.3223 105.461 12.3851 105.397 12.4616 105.355L14.8934 104.019L12.4689 102.669C12.3933 102.627 12.3305 102.563 12.2887 102.486L10.9672 100.027L9.633 102.479C9.59113 102.555 9.52835 102.619 9.4519 102.661L7.02013 103.998Z" fill="#8066FD"/>
<path d="M218.98 183.218C218.811 183.218 218.659 183.125 218.58 182.976L216.095 178.352L211.535 175.814C211.389 175.732 211.299 175.578 211.299 175.41C211.299 175.241 211.391 175.087 211.538 175.007L216.11 172.494L218.62 167.882C218.701 167.736 218.853 167.644 219.019 167.644C219.186 167.644 219.34 167.737 219.418 167.885L221.902 172.509L226.462 175.048C226.608 175.13 226.699 175.284 226.698 175.452C226.697 175.621 226.606 175.776 226.46 175.855L221.887 178.367L219.378 182.979C219.298 183.126 219.145 183.218 218.98 183.218ZM212.702 175.414L216.65 177.611C216.726 177.654 216.788 177.717 216.83 177.795L218.981 181.799L221.154 177.806C221.197 177.729 221.259 177.666 221.336 177.624L225.295 175.449L221.347 173.251C221.27 173.208 221.208 173.144 221.167 173.067L219.016 169.063L216.843 173.056C216.8 173.133 216.737 173.196 216.661 173.238L212.702 175.414Z" fill="url(#paint0_linear_821_1796)"/>
<g opacity="0.45">
<path d="M215.277 152.264C215.026 152.264 214.822 152.058 214.822 151.804V148.774C214.822 148.52 215.026 148.314 215.277 148.314C215.528 148.314 215.732 148.52 215.732 148.774V151.804C215.732 152.058 215.528 152.264 215.277 152.264Z" fill="#775BFC"/>
<path d="M215.277 160.043C215.026 160.043 214.822 159.836 214.822 159.582V156.553C214.822 156.299 215.026 156.093 215.277 156.093C215.528 156.093 215.732 156.299 215.732 156.553V159.582C215.732 159.836 215.528 160.043 215.277 160.043Z" fill="#775BFC"/>
<path d="M220.62 154.639H217.625C217.374 154.639 217.17 154.433 217.17 154.179C217.17 153.925 217.374 153.718 217.625 153.718H220.62C220.871 153.718 221.075 153.925 221.075 154.179C221.075 154.433 220.871 154.639 220.62 154.639Z" fill="#775BFC"/>
<path d="M212.928 154.639H209.934C209.683 154.639 209.479 154.433 209.479 154.179C209.479 153.925 209.683 153.718 209.934 153.718H212.928C213.179 153.718 213.383 153.925 213.383 154.179C213.383 154.433 213.179 154.639 212.928 154.639Z" fill="#775BFC"/>
<path d="M211.499 158.46C211.383 158.46 211.266 158.415 211.177 158.326C211 158.146 211 157.855 211.177 157.675L213.294 155.533C213.471 155.354 213.76 155.354 213.937 155.533C214.115 155.713 214.115 156.005 213.937 156.184L211.82 158.326C211.732 158.415 211.616 158.46 211.499 158.46Z" fill="#775BFC"/>
<path d="M216.938 152.959C216.821 152.959 216.705 152.914 216.616 152.824C216.438 152.645 216.438 152.353 216.616 152.174L218.733 150.032C218.911 149.852 219.199 149.852 219.377 150.032C219.554 150.211 219.554 150.503 219.377 150.683L217.259 152.824C217.171 152.915 217.054 152.959 216.938 152.959Z" fill="#775BFC"/>
<path d="M213.617 152.959C213.501 152.959 213.384 152.914 213.295 152.824L211.178 150.683C211.001 150.503 211.001 150.211 211.178 150.032C211.355 149.852 211.644 149.852 211.821 150.032L213.938 152.174C214.116 152.353 214.116 152.645 213.938 152.824C213.849 152.915 213.734 152.959 213.617 152.959Z" fill="#775BFC"/>
<path d="M219.055 158.46C218.939 158.46 218.822 158.415 218.733 158.326L216.616 156.184C216.438 156.005 216.438 155.713 216.616 155.533C216.793 155.354 217.081 155.354 217.259 155.533L219.377 157.675C219.554 157.855 219.554 158.146 219.377 158.326C219.288 158.415 219.172 158.46 219.055 158.46Z" fill="#775BFC"/>
</g>
<g opacity="0.45">
<path d="M121.537 238.786C121.286 238.786 121.082 238.58 121.082 238.326V235.297C121.082 235.043 121.286 234.836 121.537 234.836C121.789 234.836 121.993 235.043 121.993 235.297V238.326C121.993 238.58 121.79 238.786 121.537 238.786Z" fill="#775BFC"/>
<path d="M121.537 246.565C121.286 246.565 121.082 246.358 121.082 246.104V243.075C121.082 242.821 121.286 242.615 121.537 242.615C121.789 242.615 121.993 242.821 121.993 243.075V246.104C121.993 246.359 121.79 246.565 121.537 246.565Z" fill="#775BFC"/>
<path d="M126.879 241.161H123.884C123.633 241.161 123.429 240.955 123.429 240.701C123.429 240.447 123.633 240.24 123.884 240.24H126.879C127.131 240.24 127.334 240.447 127.334 240.701C127.334 240.955 127.131 241.161 126.879 241.161Z" fill="#775BFC"/>
<path d="M119.188 241.161H116.193C115.942 241.161 115.738 240.955 115.738 240.701C115.738 240.447 115.942 240.24 116.193 240.24H119.188C119.44 240.24 119.643 240.447 119.643 240.701C119.643 240.955 119.441 241.161 119.188 241.161Z" fill="#775BFC"/>
<path d="M117.759 244.982C117.643 244.982 117.526 244.936 117.437 244.847C117.26 244.668 117.26 244.376 117.437 244.196L119.555 242.055C119.733 241.875 120.021 241.875 120.199 242.055C120.376 242.234 120.376 242.526 120.199 242.705L118.081 244.847C117.992 244.937 117.876 244.982 117.759 244.982Z" fill="#775BFC"/>
<path d="M123.197 239.482C123.081 239.482 122.964 239.437 122.875 239.347C122.698 239.168 122.698 238.876 122.875 238.697L124.993 236.555C125.171 236.375 125.459 236.375 125.637 236.555C125.814 236.734 125.814 237.026 125.637 237.206L123.519 239.347C123.43 239.437 123.314 239.482 123.197 239.482Z" fill="#775BFC"/>
<path d="M119.877 239.482C119.761 239.482 119.644 239.437 119.555 239.347L117.437 237.206C117.26 237.026 117.26 236.734 117.437 236.555C117.615 236.375 117.903 236.375 118.081 236.555L120.199 238.697C120.376 238.876 120.376 239.168 120.199 239.347C120.11 239.437 119.994 239.482 119.877 239.482Z" fill="#775BFC"/>
<path d="M125.315 244.982C125.199 244.982 125.082 244.936 124.993 244.847L122.875 242.705C122.698 242.526 122.698 242.234 122.875 242.055C123.053 241.875 123.341 241.875 123.519 242.055L125.637 244.196C125.814 244.376 125.814 244.668 125.637 244.847C125.548 244.937 125.432 244.982 125.315 244.982Z" fill="#775BFC"/>
</g>
<g opacity="0.45">
<path d="M232.475 141.276C232.224 141.276 232.02 141.07 232.02 140.816V136.809C232.02 136.555 232.224 136.348 232.475 136.348C232.727 136.348 232.931 136.555 232.931 136.809V140.816C232.931 141.07 232.727 141.276 232.475 141.276Z" fill="#775BFC"/>
<path d="M232.475 151.57C232.224 151.57 232.02 151.364 232.02 151.11V147.101C232.02 146.847 232.224 146.641 232.475 146.641C232.727 146.641 232.931 146.847 232.931 147.101V151.11C232.931 151.364 232.727 151.57 232.475 151.57Z" fill="#775BFC"/>
<path d="M239.545 144.419H235.582C235.331 144.419 235.127 144.213 235.127 143.959C235.127 143.705 235.331 143.499 235.582 143.499H239.545C239.796 143.499 240 143.705 240 143.959C240 144.213 239.796 144.419 239.545 144.419Z" fill="#775BFC"/>
<path d="M229.368 144.419H225.405C225.154 144.419 224.95 144.213 224.95 143.959C224.95 143.705 225.154 143.499 225.405 143.499H229.368C229.619 143.499 229.823 143.705 229.823 143.959C229.823 144.213 229.619 144.419 229.368 144.419Z" fill="#775BFC"/>
<path d="M227.476 149.475C227.359 149.475 227.243 149.43 227.154 149.341C226.976 149.161 226.976 148.869 227.154 148.69L229.956 145.856C230.133 145.676 230.422 145.676 230.599 145.856C230.777 146.035 230.777 146.327 230.599 146.507L227.797 149.341C227.709 149.43 227.592 149.475 227.476 149.475Z" fill="#775BFC"/>
<path d="M234.672 142.197C234.556 142.197 234.439 142.152 234.35 142.063C234.172 141.883 234.172 141.591 234.35 141.412L237.152 138.578C237.33 138.398 237.618 138.398 237.796 138.578C237.973 138.757 237.973 139.049 237.796 139.228L234.993 142.063C234.905 142.152 234.789 142.197 234.672 142.197Z" fill="#775BFC"/>
<path d="M230.278 142.197C230.161 142.197 230.045 142.152 229.956 142.063L227.154 139.228C226.976 139.049 226.976 138.757 227.154 138.578C227.331 138.398 227.62 138.398 227.797 138.578L230.599 141.412C230.777 141.591 230.777 141.883 230.599 142.063C230.511 142.152 230.394 142.197 230.278 142.197Z" fill="#775BFC"/>
<path d="M237.474 149.475C237.358 149.475 237.241 149.43 237.152 149.341L234.35 146.507C234.172 146.327 234.172 146.035 234.35 145.856C234.527 145.676 234.816 145.676 234.993 145.856L237.796 148.69C237.973 148.869 237.973 149.161 237.796 149.341C237.707 149.43 237.591 149.475 237.474 149.475Z" fill="#775BFC"/>
</g>
<g opacity="0.45">
<path d="M129.635 25.2999C129.384 25.2999 129.18 25.0937 129.18 24.8397V20.8321C129.18 20.578 129.384 20.3718 129.635 20.3718C129.886 20.3718 130.09 20.578 130.09 20.8321V24.8397C130.09 25.0937 129.886 25.2999 129.635 25.2999Z" fill="#775BFC"/>
<path d="M129.635 35.5934C129.384 35.5934 129.18 35.3872 129.18 35.1331V31.1255C129.18 30.8715 129.384 30.6653 129.635 30.6653C129.886 30.6653 130.09 30.8715 130.09 31.1255V35.1331C130.09 35.3872 129.886 35.5934 129.635 35.5934Z" fill="#775BFC"/>
<path d="M126.527 28.4436H122.564C122.313 28.4436 122.109 28.2373 122.109 27.9831C122.109 27.729 122.313 27.5227 122.564 27.5227H126.527C126.778 27.5227 126.982 27.729 126.982 27.9831C126.982 28.2373 126.778 28.4436 126.527 28.4436Z" fill="#775BFC"/>
<path d="M136.704 28.4436H132.741C132.49 28.4436 132.286 28.2373 132.286 27.9831C132.286 27.729 132.49 27.5227 132.741 27.5227H136.704C136.955 27.5227 137.159 27.729 137.159 27.9831C137.159 28.2373 136.955 28.4436 136.704 28.4436Z" fill="#775BFC"/>
<path d="M134.634 33.4992C134.517 33.4992 134.401 33.4541 134.312 33.3648L131.51 30.5307C131.332 30.3512 131.332 30.0595 131.51 29.88C131.687 29.7005 131.976 29.7005 132.153 29.88L134.955 32.714C135.133 32.8935 135.133 33.1853 134.955 33.3648C134.867 33.4541 134.75 33.4992 134.634 33.4992Z" fill="#775BFC"/>
<path d="M127.437 26.2204C127.32 26.2204 127.204 26.1753 127.114 26.086L124.312 23.2519C124.135 23.0724 124.135 22.7807 124.312 22.6012C124.49 22.4217 124.778 22.4217 124.956 22.6012L127.758 25.4352C127.935 25.6147 127.935 25.9065 127.758 26.086C127.669 26.1753 127.553 26.2204 127.437 26.2204Z" fill="#775BFC"/>
<path d="M131.832 26.2204C131.715 26.2204 131.599 26.1753 131.51 26.086C131.332 25.9065 131.332 25.6147 131.51 25.4352L134.312 22.6012C134.489 22.4217 134.778 22.4217 134.955 22.6012C135.133 22.7807 135.133 23.0724 134.955 23.2519L132.153 26.086C132.065 26.1753 131.948 26.2204 131.832 26.2204Z" fill="#775BFC"/>
<path d="M124.633 33.4992C124.517 33.4992 124.401 33.4541 124.311 33.3648C124.134 33.1853 124.134 32.8935 124.311 32.714L127.114 29.88C127.291 29.7005 127.579 29.7005 127.757 29.88C127.934 30.0595 127.934 30.3512 127.757 30.5307L124.955 33.3648C124.866 33.4541 124.75 33.4992 124.633 33.4992Z" fill="#775BFC"/>
</g>
<path d="M227.749 77.6558H227.414C226.426 77.6558 225.932 76.4482 226.63 75.742L226.867 75.5021C227.3 75.0641 227.3 74.3536 226.867 73.9157L225.972 73.0106C225.539 72.5727 224.838 72.5727 224.404 73.0106L224.167 73.2515C223.468 73.9568 222.274 73.4571 222.274 72.4578V72.1184C222.274 71.4988 221.778 70.9966 221.166 70.9966H219.901C219.288 70.9966 218.791 71.4988 218.791 72.1184V72.4578C218.791 73.4571 217.597 73.9568 216.899 73.2515L216.662 73.0106C216.229 72.5727 215.527 72.5727 215.093 73.0106L214.199 73.9157C213.766 74.3536 213.766 75.0641 214.199 75.5021L214.437 75.742C215.135 76.4482 214.64 77.6558 213.653 77.6558H213.316C212.705 77.6558 212.208 78.158 212.208 78.7777V80.0564C212.208 80.676 212.705 81.1783 213.316 81.1783H213.653C214.64 81.1783 215.135 82.3858 214.437 83.092L214.199 83.332C213.766 83.77 213.766 84.4804 214.199 84.9184L215.093 85.8234C215.527 86.2614 216.229 86.2614 216.662 85.8234L216.899 85.5835C217.597 84.8773 218.791 85.3769 218.791 86.3762V86.7156C218.791 87.3353 219.288 87.8375 219.901 87.8375H221.166C221.778 87.8375 222.274 87.3353 222.274 86.7156V86.3762C222.274 85.3769 223.468 84.8773 224.167 85.5835L224.404 85.8234C224.838 86.2614 225.539 86.2614 225.972 85.8234L226.867 84.9184C227.3 84.4804 227.3 83.77 226.867 83.332L226.63 83.092C225.932 82.3858 226.427 81.1783 227.414 81.1783H227.749C228.362 81.1783 228.859 80.676 228.859 80.0564V78.7777C228.858 78.158 228.362 77.6558 227.749 77.6558ZM220.533 82.4158C218.895 82.4158 217.568 81.0737 217.568 79.417C217.568 77.7604 218.895 76.4182 220.533 76.4182C222.171 76.4182 223.499 77.7604 223.499 79.417C223.499 81.0737 222.171 82.4158 220.533 82.4158Z" fill="#642CFF"/>
<g opacity="0.45">
<path d="M28.5638 230.922C28.4294 230.922 28.3203 230.811 28.3203 230.675V228.639C28.3203 228.504 28.4294 228.393 28.5638 228.393C28.6983 228.393 28.8074 228.504 28.8074 228.639V230.675C28.8074 230.811 28.6983 230.922 28.5638 230.922Z" fill="#5800B5"/>
<path d="M28.5638 236.15C28.4294 236.15 28.3203 236.04 28.3203 235.904V233.868C28.3203 233.732 28.4294 233.622 28.5638 233.622C28.6983 233.622 28.8074 233.732 28.8074 233.868V235.904C28.8074 236.04 28.6983 236.15 28.5638 236.15Z" fill="#5800B5"/>
<path d="M26.9854 232.517H24.9724C24.838 232.517 24.729 232.407 24.729 232.271C24.729 232.135 24.838 232.025 24.9724 232.025H26.9854C27.1198 232.025 27.2288 232.135 27.2288 232.271C27.2288 232.407 27.1198 232.517 26.9854 232.517Z" fill="#5800B5"/>
<path d="M32.1558 232.517H30.1423C30.008 232.517 29.8989 232.407 29.8989 232.271C29.8989 232.135 30.008 232.025 30.1423 232.025H32.1558C32.2902 232.025 32.3992 232.135 32.3992 232.271C32.3992 232.407 32.2902 232.517 32.1558 232.517Z" fill="#5800B5"/>
<path d="M31.1027 235.087C31.0404 235.087 30.9781 235.063 30.9304 235.015L29.5067 233.574C29.4118 233.478 29.4118 233.322 29.5067 233.226C29.6016 233.13 29.7559 233.13 29.8508 233.226L31.2745 234.667C31.3694 234.763 31.3694 234.919 31.2745 235.015C31.2268 235.063 31.1645 235.087 31.1027 235.087Z" fill="#5800B5"/>
<path d="M27.4474 231.389C27.3851 231.389 27.3228 231.365 27.2751 231.318L25.8515 229.877C25.7565 229.781 25.7565 229.625 25.8515 229.529C25.9464 229.433 26.1007 229.433 26.1956 229.529L27.6192 230.969C27.7141 231.065 27.7141 231.221 27.6192 231.318C27.572 231.365 27.5097 231.389 27.4474 231.389Z" fill="#5800B5"/>
<path d="M29.679 231.389C29.6167 231.389 29.5544 231.365 29.5067 231.318C29.4118 231.221 29.4118 231.065 29.5067 230.969L30.9304 229.529C31.0253 229.433 31.1796 229.433 31.2745 229.529C31.3694 229.625 31.3694 229.781 31.2745 229.877L29.8508 231.318C29.8036 231.365 29.7413 231.389 29.679 231.389Z" fill="#5800B5"/>
<path d="M26.0238 235.087C25.9615 235.087 25.8992 235.063 25.8515 235.015C25.7565 234.919 25.7565 234.763 25.8515 234.667L27.2751 233.226C27.37 233.13 27.5243 233.13 27.6192 233.226C27.7141 233.322 27.7141 233.478 27.6192 233.574L26.1956 235.015C26.1484 235.063 26.0861 235.087 26.0238 235.087Z" fill="#5800B5"/>
</g>
<path opacity="0.45" d="M183.873 16.6188C183.9 16.4485 183.967 16.2864 184.072 16.1436C184.244 15.9072 184.497 15.7529 184.785 15.7091L187.273 15.3297C187.338 13.9498 187.664 12.6184 188.244 11.3676L186.219 9.85608C185.736 9.49625 185.633 8.80666 185.99 8.31828L187.15 6.72783C187.322 6.49167 187.576 6.33707 187.863 6.29325C188.15 6.24944 188.437 6.3213 188.671 6.4958L190.696 8.00727C191.706 7.07785 192.868 6.36954 194.152 5.8995L193.777 3.38277C193.733 3.09231 193.804 2.80175 193.977 2.56565C194.149 2.3292 194.402 2.17496 194.69 2.13114L196.622 1.8362C197.215 1.74584 197.77 2.16007 197.859 2.75953L198.235 5.2759C199.599 5.34178 200.915 5.67181 202.152 6.25842L203.646 4.21029C204.002 3.7225 204.685 3.61819 205.167 3.97832L206.74 5.15157C207.222 5.5117 207.325 6.20193 206.969 6.68936L205.475 8.73791C206.394 9.75969 207.094 10.9345 207.559 12.2337L210.047 11.8539C210.334 11.81 210.621 11.8819 210.855 12.0564C211.089 12.2309 211.241 12.4867 211.285 12.7772L211.576 14.7316C211.62 15.0214 211.549 15.3123 211.376 15.5487C211.204 15.7852 210.951 15.9394 210.663 15.9832L208.175 16.363C208.109 17.7431 207.783 19.0742 207.204 20.3248L209.229 21.8363C209.712 22.1968 209.814 22.887 209.458 23.3744L208.298 24.9649C208.126 25.201 207.872 25.3556 207.585 25.3994C207.298 25.4433 207.011 25.3715 206.777 25.1969L204.752 23.6855C203.742 24.6152 202.58 25.3234 201.296 25.7932L201.671 28.3099C201.715 28.6001 201.644 28.8906 201.471 29.127C201.299 29.3635 201.046 29.5177 200.758 29.5616L198.826 29.8565C198.233 29.9469 197.678 29.5326 197.589 28.9332L197.213 26.4168C195.849 26.351 194.533 26.0209 193.296 25.4343L191.802 27.4824C191.446 27.9702 190.763 28.0746 190.281 27.7147L188.708 26.5415C188.226 26.1814 188.123 25.4918 188.479 25.0033L189.973 22.9548C189.055 21.9334 188.354 20.7585 187.889 19.459L185.401 19.8389C184.808 19.9292 184.253 19.515 184.164 18.9156L183.872 16.9615C183.854 16.8458 183.855 16.7305 183.873 16.6188ZM187.619 15.5136C187.606 15.5892 187.547 15.6498 187.47 15.6618L184.838 16.0636C184.644 16.093 184.473 16.1973 184.357 16.3567C184.241 16.5164 184.193 16.712 184.221 16.908L184.513 18.862C184.573 19.2663 184.948 19.546 185.348 19.4847L187.98 19.0829C188.064 19.0699 188.146 19.12 188.174 19.2015C188.638 20.556 189.364 21.7735 190.331 22.82C190.389 22.8828 190.395 22.9797 190.344 23.0485L188.763 25.2158C188.524 25.5447 188.593 26.0102 188.918 26.2531L190.49 27.4263C190.816 27.6689 191.276 27.5988 191.516 27.2697L193.097 25.1027C193.147 25.0333 193.24 25.0101 193.317 25.0481C194.592 25.6743 195.956 26.0166 197.372 26.0649C197.457 26.068 197.528 26.132 197.541 26.2171L197.938 28.8796C197.999 29.2839 198.373 29.5636 198.773 29.5023L200.705 29.2074C200.899 29.1779 201.07 29.0737 201.186 28.9143C201.302 28.7549 201.35 28.5592 201.321 28.3633L200.924 25.7008C200.91 25.6159 200.96 25.533 201.041 25.5049C202.379 25.0361 203.583 24.3022 204.619 23.3232C204.681 23.2641 204.776 23.2587 204.845 23.3099L206.987 24.9089C207.145 25.0266 207.339 25.0752 207.532 25.0453C207.726 25.0155 207.896 24.9115 208.013 24.7522L209.173 23.1617C209.412 22.8328 209.343 22.3673 209.018 22.1245L206.875 20.5255C206.807 20.4743 206.783 20.3815 206.821 20.3033C207.44 19.0141 207.779 17.6339 207.827 16.2023C207.828 16.1162 207.893 16.0445 207.978 16.0312L210.61 15.6294C210.804 15.6 210.975 15.4957 211.091 15.3363C211.207 15.1769 211.255 14.9812 211.226 14.7854L210.935 12.831C210.905 12.6353 210.802 12.4624 210.645 12.3451C210.487 12.2274 210.294 12.1788 210.1 12.2087L207.468 12.6104C207.383 12.6234 207.302 12.5734 207.274 12.4918C206.81 11.1378 206.084 9.92022 205.117 8.87337C205.058 8.81079 205.052 8.71469 205.103 8.64484L206.684 6.4775C206.923 6.14895 206.855 5.6831 206.53 5.44027L204.957 4.26702C204.632 4.02412 204.172 4.09423 203.931 4.42332L202.35 6.5903C202.3 6.65967 202.207 6.68288 202.131 6.64486C200.856 6.01872 199.492 5.6764 198.075 5.6281C197.99 5.62496 197.919 5.56102 197.907 5.47588L197.509 2.81337C197.449 2.40907 197.074 2.12939 196.675 2.19067L194.743 2.48561C194.549 2.51505 194.378 2.61934 194.262 2.77868C194.145 2.93839 194.097 3.13443 194.126 3.32964L194.524 5.99221C194.537 6.07741 194.488 6.16002 194.407 6.18812C193.068 6.6572 191.864 7.39112 190.829 8.36985C190.767 8.4289 190.672 8.43434 190.603 8.38311L188.46 6.78408C188.303 6.66638 188.109 6.61788 187.916 6.64767C187.722 6.67716 187.551 6.78145 187.435 6.9408L186.275 8.53126C186.035 8.86046 186.104 9.3256 186.429 9.5685L188.572 11.1675C188.641 11.2187 188.664 11.3117 188.626 11.3897C188.007 12.6785 187.669 14.0587 187.621 15.4911C187.621 15.4983 187.62 15.5058 187.619 15.5136ZM192.335 14.9506C192.469 14.113 192.797 13.2951 193.329 12.5666C195.117 10.1155 198.543 9.59262 200.967 11.401C203.39 13.2095 203.907 16.675 202.119 19.126C200.331 21.5771 196.905 22.1 194.481 20.2916C192.778 19.0207 192.016 16.9313 192.335 14.9506ZM193.613 12.7789C191.941 15.0713 192.425 18.3125 194.691 20.0033C196.958 21.6941 200.162 21.2054 201.835 18.9131C203.506 16.6213 203.023 13.3802 200.757 11.6887C198.49 9.9982 195.286 10.4873 193.613 12.7789Z" fill="#5800B5"/>
<path opacity="0.45" d="M3.79258 185.651C3.8072 185.56 3.84293 185.474 3.89864 185.398C3.99071 185.272 4.12588 185.189 4.27913 185.166L5.60701 184.963C5.64158 184.227 5.81575 183.517 6.12541 182.849L5.0446 182.043C4.78701 181.851 4.73191 181.483 4.92236 181.222L5.5414 180.373C5.63326 180.247 5.76846 180.165 5.92171 180.141C6.07497 180.118 6.22806 180.156 6.35282 180.249L7.43363 181.056C7.97279 180.56 8.59251 180.182 9.27792 179.931L9.07756 178.588C9.05444 178.433 9.0922 178.278 9.18424 178.152C9.27632 178.026 9.41148 177.944 9.56474 177.92L10.5958 177.763C10.9123 177.715 11.2086 177.936 11.2562 178.256L11.4565 179.598C12.1846 179.634 12.8869 179.81 13.5471 180.123L14.3444 179.03C14.5344 178.769 14.8986 178.714 15.156 178.906L15.9952 179.532C16.2526 179.724 16.3074 180.093 16.1174 180.353L15.3203 181.446C15.8105 181.991 16.184 182.618 16.4324 183.311L17.7601 183.109C17.9134 183.085 18.0665 183.124 18.1912 183.217C18.3158 183.31 18.3974 183.446 18.4205 183.601L18.5761 184.644C18.5995 184.799 18.5617 184.954 18.4694 185.08C18.3773 185.206 18.2422 185.289 18.0889 185.312L16.7612 185.515C16.726 186.251 16.5521 186.962 16.2426 187.629L17.3235 188.436C17.581 188.628 17.6358 188.996 17.4457 189.256L16.8266 190.105C16.7348 190.231 16.5996 190.314 16.4463 190.337C16.2932 190.36 16.1401 190.322 16.0152 190.229L14.9346 189.422C14.3952 189.918 13.7751 190.296 13.0901 190.547L13.2905 191.89C13.3138 192.045 13.2759 192.2 13.1838 192.326C13.0917 192.452 12.9565 192.535 12.8033 192.558L11.7723 192.715C11.4558 192.764 11.1594 192.543 11.1119 192.223L10.9115 190.88C10.1836 190.845 9.48111 190.669 8.82091 190.356L8.02362 191.449C7.83379 191.709 7.46957 191.765 7.21198 191.573L6.37299 190.946C6.11562 190.754 6.06034 190.386 6.2506 190.126L7.04773 189.032C6.55769 188.487 6.18398 187.86 5.93563 187.167L4.6081 187.37C4.29159 187.418 3.99522 187.197 3.9477 186.877L3.79208 185.834C3.78268 185.772 3.783 185.711 3.79258 185.651ZM5.79145 185.062C5.78496 185.102 5.75316 185.134 5.71231 185.141L4.30747 185.355C4.20407 185.371 4.11282 185.426 4.05071 185.511C3.98877 185.597 3.96317 185.701 3.97852 185.806L4.13414 186.848C4.16644 187.064 4.3664 187.213 4.57954 187.181L5.98418 186.966C6.02913 186.959 6.07268 186.986 6.0877 187.03C6.33535 187.752 6.72263 188.402 7.23885 188.961C7.26964 188.994 7.27319 189.046 7.24585 189.082L6.40215 190.239C6.2744 190.415 6.3112 190.663 6.48484 190.793L7.32383 191.419C7.49749 191.548 7.74317 191.511 7.87133 191.335L8.71499 190.179C8.7418 190.142 8.79108 190.129 8.83222 190.15C9.51257 190.484 10.2406 190.666 10.9962 190.692C11.0417 190.694 11.0797 190.728 11.0863 190.773L11.2983 192.194C11.3306 192.41 11.5306 192.559 11.7437 192.526L12.7747 192.369C12.8781 192.353 12.9694 192.298 13.0315 192.213C13.0934 192.128 13.1188 192.023 13.1036 191.919L12.8915 190.498C12.8844 190.452 12.9109 190.408 12.9539 190.393C13.6681 190.143 14.3107 189.751 14.8633 189.229C14.8965 189.198 14.9471 189.195 14.9838 189.222L16.1272 190.075C16.2113 190.138 16.3147 190.164 16.4179 190.148C16.5212 190.132 16.6124 190.077 16.6745 189.992L17.2936 189.143C17.4211 188.967 17.3845 188.719 17.2111 188.589L16.0675 187.736C16.0309 187.709 16.0182 187.659 16.0387 187.618C16.3687 186.93 16.5495 186.193 16.5753 185.429C16.5758 185.383 16.6105 185.345 16.6557 185.338L18.0603 185.123C18.1637 185.108 18.255 185.052 18.3171 184.967C18.379 184.882 18.4044 184.777 18.3893 184.673L18.2337 183.63C18.2179 183.526 18.1631 183.433 18.079 183.371C17.9949 183.308 17.8917 183.282 17.7884 183.298L16.3836 183.512C16.3386 183.519 16.2951 183.493 16.2801 183.449C16.0326 182.726 15.6451 182.077 15.1289 181.518C15.0977 181.485 15.0943 181.433 15.1219 181.396L15.9656 180.24C16.0932 180.064 16.0566 179.816 15.8831 179.686L15.0439 179.06C14.8703 178.93 14.6246 178.968 14.4965 179.143L13.6528 180.3C13.626 180.337 13.5765 180.349 13.5356 180.329C12.8554 179.995 12.1274 179.812 11.3716 179.786C11.3261 179.785 11.2881 179.751 11.2815 179.705L11.0695 178.284C11.0372 178.069 10.8372 177.919 10.6241 177.952L9.59308 178.109C9.48968 178.125 9.39842 178.181 9.33632 178.266C9.27419 178.351 9.24875 178.456 9.26416 178.56L9.47631 179.981C9.48317 180.026 9.45694 180.07 9.41394 180.085C8.69952 180.335 8.05694 180.727 7.50474 181.249C7.47154 181.281 7.42091 181.284 7.38416 181.256L6.24061 180.403C6.15653 180.34 6.05331 180.315 5.94987 180.33C5.84666 180.346 5.7554 180.402 5.6933 180.487L5.07425 181.336C4.94647 181.511 4.98312 181.759 5.15675 181.889L6.3003 182.742C6.33688 182.77 6.34918 182.819 6.32909 182.861C5.99894 183.549 5.81829 184.285 5.79262 185.05C5.79257 185.053 5.79212 185.057 5.79145 185.062ZM8.30808 184.761C8.37996 184.314 8.55485 183.878 8.83845 183.489C9.79263 182.181 11.6211 181.902 12.9144 182.867C14.2077 183.832 14.4838 185.681 13.5294 186.989C12.5752 188.297 10.7467 188.576 9.45344 187.611C8.54455 186.933 8.13811 185.818 8.30808 184.761ZM8.9904 183.602C8.09826 184.826 8.35629 186.555 9.56566 187.457C10.775 188.36 12.4852 188.099 13.3777 186.876C14.2694 185.653 14.0117 183.923 12.8024 183.02C11.5928 182.118 9.88304 182.379 8.9904 183.602Z" fill="#5800B5"/>
<path opacity="0.45" d="M72.0425 178.678H72.042C71.953 178.678 71.8712 178.628 71.8289 178.549L70.9898 176.988L69.4503 176.131C69.3724 176.087 69.3242 176.005 69.3242 175.915C69.3242 175.824 69.3734 175.742 69.4513 175.699L70.9951 174.85L71.8425 173.294C71.8853 173.215 71.9671 173.166 72.0557 173.166H72.0562C72.1452 173.166 72.227 173.216 72.2693 173.295L73.1084 174.856L74.6479 175.713C74.7258 175.757 74.774 175.839 74.774 175.929C74.774 176.019 74.7248 176.102 74.647 176.145L73.1031 176.994L72.2557 178.55C72.2129 178.629 72.1311 178.678 72.0425 178.678ZM70.0747 175.916L71.2867 176.591C71.3271 176.614 71.3606 176.648 71.383 176.689L72.0435 177.918L72.7108 176.693C72.7332 176.652 72.7668 176.618 72.8077 176.595L74.0235 175.927L72.8116 175.253C72.7712 175.23 72.7376 175.196 72.7152 175.155L72.0547 173.925L71.3874 175.151C71.365 175.192 71.3314 175.226 71.2906 175.248L70.0747 175.916Z" fill="#5800B5"/>
<path opacity="0.45" d="M158.786 259.34C158.696 259.34 158.614 259.29 158.573 259.211L157.312 256.865L154.999 255.578C154.921 255.534 154.873 255.452 154.873 255.362C154.873 255.271 154.922 255.189 155 255.146L157.32 253.871L158.593 251.532C158.636 251.453 158.718 251.404 158.806 251.404H158.807C158.896 251.404 158.978 251.454 159.02 251.533L160.28 253.879L162.594 255.167C162.672 255.21 162.72 255.293 162.72 255.383C162.719 255.473 162.671 255.556 162.592 255.599L160.272 256.874L158.999 259.213C158.957 259.291 158.875 259.34 158.786 259.34ZM155.624 255.363L157.609 256.468C157.65 256.491 157.683 256.525 157.705 256.566L158.788 258.58L159.88 256.572C159.903 256.531 159.937 256.497 159.978 256.475L161.969 255.38L159.984 254.274C159.943 254.251 159.91 254.218 159.887 254.176L158.805 252.162L157.712 254.17C157.689 254.211 157.656 254.245 157.615 254.268L155.624 255.363Z" fill="#5800B5"/>
<g opacity="0.45">
<path d="M98.641 78.1271C98.5066 78.1271 98.3975 78.0168 98.3975 77.881V75.845C98.3975 75.7091 98.5066 75.5989 98.641 75.5989C98.7754 75.5989 98.8845 75.7091 98.8845 75.845V77.881C98.8845 78.0168 98.7754 78.1271 98.641 78.1271Z" fill="#5800B5"/>
<path d="M98.641 83.3556C98.5066 83.3556 98.3975 83.2453 98.3975 83.1095V81.0735C98.3975 80.9377 98.5066 80.8274 98.641 80.8274C98.7754 80.8274 98.8845 80.9377 98.8845 81.0735V83.1095C98.8845 83.2458 98.7754 83.3556 98.641 83.3556Z" fill="#5800B5"/>
<path d="M97.0626 79.7223H95.0495C94.9152 79.7223 94.8062 79.6121 94.8062 79.4764C94.8062 79.3406 94.9152 79.2305 95.0495 79.2305H97.0626C97.1969 79.2305 97.3059 79.3406 97.3059 79.4764C97.3059 79.6121 97.1969 79.7223 97.0626 79.7223Z" fill="#5800B5"/>
<path d="M102.232 79.7223H100.219C100.085 79.7223 99.9756 79.6121 99.9756 79.4764C99.9756 79.3406 100.085 79.2305 100.219 79.2305H102.232C102.367 79.2305 102.476 79.3406 102.476 79.4764C102.476 79.6121 102.367 79.7223 102.232 79.7223Z" fill="#5800B5"/>
<path d="M101.18 82.2923C101.118 82.2923 101.056 82.2681 101.008 82.2204L99.5844 80.7798C99.4895 80.6838 99.4895 80.5277 99.5844 80.4316C99.6793 80.3356 99.8336 80.3356 99.9285 80.4316L101.352 81.8722C101.447 81.9682 101.447 82.1243 101.352 82.2204C101.304 82.2681 101.242 82.2923 101.18 82.2923Z" fill="#5800B5"/>
<path d="M97.525 78.595C97.4627 78.595 97.4004 78.5709 97.3527 78.5231L95.9291 77.0826C95.8342 76.9865 95.8342 76.8304 95.9291 76.7344C96.024 76.6383 96.1783 76.6383 96.2732 76.7344L97.6969 78.1749C97.7918 78.2709 97.7918 78.4271 97.6969 78.5231C97.6496 78.5709 97.5873 78.595 97.525 78.595Z" fill="#5800B5"/>
<path d="M99.7567 78.595C99.6944 78.595 99.6321 78.5709 99.5844 78.5231C99.4895 78.4271 99.4895 78.2709 99.5844 78.1749L101.008 76.7344C101.103 76.6383 101.257 76.6383 101.352 76.7344C101.447 76.8304 101.447 76.9865 101.352 77.0826L99.9285 78.5231C99.8813 78.5709 99.819 78.595 99.7567 78.595Z" fill="#5800B5"/>
<path d="M96.1014 82.2923C96.0391 82.2923 95.9768 82.2681 95.9291 82.2204C95.8342 82.1243 95.8342 81.9682 95.9291 81.8722L97.3527 80.4316C97.4477 80.3356 97.6019 80.3356 97.6969 80.4316C97.7918 80.5277 97.7918 80.6838 97.6969 80.7798L96.2732 82.2204C96.226 82.2681 96.1637 82.2923 96.1014 82.2923Z" fill="#5800B5"/>
</g>
<path d="M28.7119 165.814C31.4274 165.815 33.6376 168.039 33.6377 170.794C33.6377 173.549 31.4275 175.773 28.7119 175.773C25.9963 175.773 23.7861 173.549 23.7861 170.794C23.7862 168.039 25.9963 165.814 28.7119 165.814Z" fill="white" stroke="#652EFF"/>
<path d="M28.7109 168.817C29.785 168.817 30.664 169.697 30.6641 170.794C30.6641 171.891 29.785 172.772 28.7109 172.772C27.6369 172.772 26.7578 171.891 26.7578 170.794C26.7579 169.697 27.6369 168.817 28.7109 168.817Z" fill="#652EFF" stroke="#652EFF"/>
<path d="M28.7119 109.198C31.4274 109.198 33.6376 111.423 33.6377 114.178C33.6377 116.933 31.4275 119.157 28.7119 119.157C25.9963 119.157 23.7861 116.933 23.7861 114.178C23.7862 111.423 25.9963 109.198 28.7119 109.198Z" fill="white" stroke="#652EFF"/>
<path d="M28.711 116.656C30.0659 116.656 31.1642 115.546 31.1642 114.178C31.1642 112.809 30.0659 111.7 28.711 111.7C27.3562 111.7 26.2578 112.809 26.2578 114.178C26.2578 115.546 27.3562 116.656 28.711 116.656Z" fill="#652EFF"/>
<path d="M41.5771 43.3005C44.2926 43.3006 46.5028 45.5253 46.5029 48.28C46.5029 51.0349 44.2927 53.2594 41.5771 53.2595C38.8615 53.2595 36.6514 51.0349 36.6514 48.28C36.6515 45.5252 38.8616 43.3005 41.5771 43.3005Z" fill="white" stroke="#652EFF"/>
<path d="M41.5772 50.7581C42.9321 50.7581 44.0305 49.6488 44.0305 48.2804C44.0305 46.912 42.9321 45.8027 41.5772 45.8027C40.2224 45.8027 39.124 46.912 39.124 48.2804C39.124 49.6488 40.2224 50.7581 41.5772 50.7581Z" fill="#652EFF"/>
<path d="M68.2271 21.9534C70.9426 21.9535 73.1527 24.1781 73.1528 26.9329C73.1528 29.6877 70.9426 31.9122 68.2271 31.9124C65.5114 31.9124 63.3013 29.6878 63.3013 26.9329C63.3014 24.178 65.5115 21.9534 68.2271 21.9534Z" fill="white" stroke="#652EFF"/>
<path d="M68.2276 29.4109C69.5825 29.4109 70.6808 28.3016 70.6808 26.9332C70.6808 25.5648 69.5825 24.4556 68.2276 24.4556C66.8728 24.4556 65.7744 25.5648 65.7744 26.9332C65.7744 28.3016 66.8728 29.4109 68.2276 29.4109Z" fill="#652EFF"/>
<path d="M45.2534 230.811C47.9885 230.811 50.2063 233.028 50.2065 235.763C50.2065 238.498 47.9886 240.716 45.2534 240.716C42.5184 240.716 40.3013 238.498 40.3013 235.763C40.3015 233.028 42.5185 230.811 45.2534 230.811Z" fill="white" stroke="#652EFF"/>
<path d="M45.2534 233.798C46.3387 233.799 47.2183 234.679 47.2183 235.764C47.218 236.849 46.3385 237.729 45.2534 237.729C44.1681 237.729 43.2878 236.849 43.2876 235.764C43.2876 234.679 44.1679 233.798 45.2534 233.798Z" fill="#652EFF" stroke="#652EFF"/>
<defs>
<linearGradient id="paint0_linear_821_1796" x1="211.299" y1="175.431" x2="226.698" y2="175.431" gradientUnits="userSpaceOnUse">
<stop stop-color="#E3F3FE"/>
<stop offset="0.0118" stop-color="#E1F1FE"/>
<stop offset="0.3624" stop-color="#B0ACFD"/>
<stop offset="0.6555" stop-color="#8C7AFD"/>
<stop offset="0.8766" stop-color="#755BFC"/>
<stop offset="1" stop-color="#6D4FFC"/>
</linearGradient>
</defs>
</svg>
