<svg width="283" height="295" viewBox="0 0 283 295" fill="none" xmlns="http://www.w3.org/2000/svg">
<path d="M92.2744 58.5906V42.0505C92.2744 34.5463 98.3582 28.4625 105.862 28.4625H177.384" stroke="#652AC1" stroke-width="1.072" stroke-miterlimit="10" stroke-dasharray="2 2"/>
<path d="M173.588 29.09H252.863C257.784 29.09 261.773 33.0792 261.773 38.0005V159.494C261.773 164.416 257.783 168.404 252.863 168.404H236.596" stroke="#652AC1" stroke-width="1.072" stroke-miterlimit="10" stroke-dasharray="2 2"/>
<path d="M69.6484 41.0611H111.224C112.858 41.0612 114.298 41.6095 115.334 42.7505C116.374 43.896 117.06 45.6986 117.06 48.3043V117.23C117.06 119.837 116.374 121.36 115.373 122.245C114.36 123.14 112.923 123.473 111.224 123.473H69.6484C67.9492 123.473 66.512 123.14 65.499 122.245C64.498 121.36 63.8125 119.837 63.8125 117.23V48.3043C63.8125 45.6986 64.4983 43.896 65.5381 42.7505C66.574 41.6095 68.0142 41.0612 69.6484 41.0611Z" fill="white" stroke="#652EFF"/>
<path d="M76.8008 106.486H103.804" stroke="#D9CDFC" stroke-width="2" stroke-miterlimit="10" stroke-linecap="round"/>
<path d="M76.8008 111.143H103.804" stroke="#D9CDFC" stroke-width="2" stroke-miterlimit="10" stroke-linecap="round"/>
<path d="M89.8711 115.801H103.804" stroke="#D9CDFC" stroke-width="2" stroke-miterlimit="10" stroke-linecap="round"/>
<path d="M150.627 248.497C151.597 248.497 152.384 247.71 152.384 246.74C152.384 245.769 151.597 244.983 150.627 244.983C149.657 244.983 148.87 245.769 148.87 246.74C148.87 247.71 149.657 248.497 150.627 248.497Z" fill="#652AC1"/>
<path d="M159.937 248.496C160.907 248.496 161.693 247.71 161.693 246.74C161.693 245.77 160.907 244.984 159.937 244.984C158.967 244.984 158.181 245.77 158.181 246.74C158.181 247.71 158.967 248.496 159.937 248.496Z" fill="#652AC1"/>
<path d="M169.246 248.497C170.216 248.497 171.003 247.71 171.003 246.74C171.003 245.77 170.216 244.983 169.246 244.983C168.276 244.983 167.489 245.77 167.489 246.74C167.489 247.71 168.276 248.497 169.246 248.497Z" fill="#652AC1"/>
<path d="M178.766 248.734C179.736 248.734 180.522 247.948 180.522 246.978C180.522 246.008 179.736 245.222 178.766 245.222C177.796 245.222 177.01 246.008 177.01 246.978C177.01 247.948 177.796 248.734 178.766 248.734Z" fill="#652AC1"/>
<path d="M188.075 248.735C189.046 248.735 189.832 247.948 189.832 246.978C189.832 246.008 189.046 245.221 188.075 245.221C187.105 245.221 186.318 246.008 186.318 246.978C186.318 247.948 187.105 248.735 188.075 248.735Z" fill="#652AC1"/>
<path d="M197.384 248.735C198.354 248.735 199.141 247.948 199.141 246.978C199.141 246.008 198.354 245.221 197.384 245.221C196.414 245.221 195.627 246.008 195.627 246.978C195.627 247.948 196.414 248.735 197.384 248.735Z" fill="#652AC1"/>
<path d="M150.627 255.599C151.597 255.599 152.384 254.812 152.384 253.842C152.384 252.872 151.597 252.085 150.627 252.085C149.657 252.085 148.87 252.872 148.87 253.842C148.87 254.812 149.657 255.599 150.627 255.599Z" fill="#652AC1"/>
<path d="M159.937 255.598C160.907 255.598 161.693 254.812 161.693 253.842C161.693 252.872 160.907 252.086 159.937 252.086C158.967 252.086 158.181 252.872 158.181 253.842C158.181 254.812 158.967 255.598 159.937 255.598Z" fill="#652AC1"/>
<path d="M169.246 255.599C170.216 255.599 171.003 254.812 171.003 253.842C171.003 252.872 170.216 252.085 169.246 252.085C168.276 252.085 167.489 252.872 167.489 253.842C167.489 254.812 168.276 255.599 169.246 255.599Z" fill="#652AC1"/>
<path d="M178.766 255.837C179.736 255.837 180.522 255.05 180.522 254.08C180.522 253.11 179.736 252.324 178.766 252.324C177.796 252.324 177.01 253.11 177.01 254.08C177.01 255.05 177.796 255.837 178.766 255.837Z" fill="#652AC1"/>
<path d="M188.075 255.837C189.046 255.837 189.832 255.05 189.832 254.08C189.832 253.11 189.046 252.323 188.075 252.323C187.105 252.323 186.318 253.11 186.318 254.08C186.318 255.05 187.105 255.837 188.075 255.837Z" fill="#652AC1"/>
<path d="M197.384 255.837C198.354 255.837 199.141 255.05 199.141 254.08C199.141 253.11 198.354 252.323 197.384 252.323C196.414 252.323 195.627 253.11 195.627 254.08C195.627 255.05 196.414 255.837 197.384 255.837Z" fill="#652AC1"/>
<path d="M100.001 55.4436C104.686 55.4438 108.483 59.2418 108.483 63.927C108.483 68.612 104.686 72.4092 100.001 72.4094H83.6113C78.9261 72.4094 75.1281 68.6122 75.1279 63.927C75.1279 59.2423 78.926 55.4436 83.6113 55.4436H100.001Z" fill="white" stroke="#652AC1"/>
<path d="M85.4047 68.8095H85.1107C82.4141 68.8095 80.2285 66.6233 80.2285 63.9267C80.2285 61.2301 82.4141 59.0439 85.1107 59.0439H85.4047C88.1013 59.0439 90.287 61.2301 90.287 63.9267C90.287 66.6239 88.1013 68.8095 85.4047 68.8095Z" fill="#652AC1"/>
<path d="M100 80.2991C104.685 80.2993 108.482 84.0973 108.482 88.7825C108.482 93.4675 104.685 97.2647 100 97.2649H83.6104C78.9252 97.2649 75.1271 93.4676 75.127 88.7825C75.127 84.0971 78.925 80.2991 83.6104 80.2991H100Z" fill="white" stroke="#652AC1"/>
<path d="M98.5366 93.6642H98.2426C95.546 93.6642 93.3604 91.478 93.3604 88.782C93.3604 86.0854 95.546 83.8992 98.2426 83.8992H98.5366C101.233 83.8992 103.419 86.0854 103.419 88.782C103.419 91.4786 101.233 93.6642 98.5366 93.6642Z" fill="#652AC1"/>
<path d="M151.9 56.3359H229.544C236.523 56.3359 242.254 62.5288 242.254 70.2617V217.371C242.254 225.104 236.523 231.296 229.544 231.296H151.9C144.921 231.296 139.19 225.104 139.189 217.371V70.2607C139.19 62.5279 144.921 56.3359 151.9 56.3359Z" fill="white" stroke="#652EFF"/>
<path d="M226.035 171.18H156.247C149.689 171.18 144.373 173.255 144.373 175.815V223.078C144.373 225.638 149.689 227.713 156.247 227.713H226.035C232.593 227.713 237.909 225.638 237.909 223.078V175.815C237.909 173.255 232.593 171.18 226.035 171.18Z" fill="white"/>
<path d="M190.501 223C192.434 223 194.001 221.433 194.001 219.5C194.001 217.567 192.434 216 190.501 216C188.568 216 187.001 217.567 187.001 219.5C187.001 221.433 188.568 223 190.501 223Z" fill="#652AC1"/>
<path d="M197.894 62.5334H183.549C183.004 62.5334 182.563 62.0924 182.563 61.5482C182.563 61.0039 183.005 60.563 183.549 60.563H197.894C198.439 60.563 198.88 61.0039 198.88 61.5482C198.88 62.0924 198.439 62.5334 197.894 62.5334Z" fill="#652AC1"/>
<path d="M170.16 158.353C168.794 158.353 167.674 157.953 166.8 157.153C165.936 156.342 165.504 155.057 165.504 153.297V146.993H167.984V153.121C167.984 155.02 168.709 155.969 170.16 155.969C170.938 155.969 171.493 155.708 171.824 155.185C172.154 154.662 172.32 153.974 172.32 153.121V146.993H174.8V153.297C174.8 155.057 174.362 156.342 173.488 157.153C172.624 157.953 171.514 158.353 170.16 158.353ZM176.663 146.993H179.175V158.193H176.663V146.993ZM188.28 148.797H190.032L185.856 160.665H184.104L188.28 148.797ZM198.609 158.353C197.244 158.353 196.124 157.953 195.249 157.153C194.385 156.342 193.953 155.057 193.953 153.297V146.993H196.433V153.121C196.433 155.02 197.158 155.969 198.609 155.969C199.388 155.969 199.942 155.708 200.273 155.185C200.604 154.662 200.769 153.974 200.769 153.121V146.993H203.249V153.297C203.249 155.057 202.812 156.342 201.937 157.153C201.073 157.953 199.964 158.353 198.609 158.353ZM208.058 152.593L204.458 146.993H207.178L209.498 150.833H209.594L211.946 146.993H214.65L211.018 152.593L214.666 158.193H211.946L209.594 154.337H209.498L207.178 158.193H204.442L208.058 152.593Z" fill="#652AC1"/>
<path d="M201.973 105.996C201.973 99.393 196.62 94.0396 190.017 94.0396C183.413 94.0396 178.06 99.393 178.06 105.996C178.06 108.375 178.763 110.584 179.96 112.446H179.951L185.168 122.421H194.423L200.081 112.446H200.073C201.27 110.584 201.973 108.375 201.973 105.996Z" stroke="#652EFF" stroke-width="2.144" stroke-miterlimit="10"/>
<path d="M194.16 125.286V126.687H185.231V125.286H194.16Z" fill="white" stroke="#652EFF"/>
<path d="M194.16 128.969V130.371H185.231V128.969H194.16Z" fill="white" stroke="#652EFF"/>
<path d="M194.16 132.969V134.371H185.231V132.969H194.16Z" fill="white" stroke="#652EFF"/>
<path d="M174.776 97.4268L166.986 89.6364" stroke="#652EFF" stroke-width="2.144" stroke-miterlimit="10" stroke-linecap="round" stroke-linejoin="round"/>
<path d="M204.579 97.4268L212.368 89.6364" stroke="#652EFF" stroke-width="2.144" stroke-miterlimit="10" stroke-linecap="round" stroke-linejoin="round"/>
<path d="M190.016 79.477V89.6365" stroke="#652EFF" stroke-width="2.144" stroke-miterlimit="10" stroke-linecap="round" stroke-linejoin="round"/>
<path d="M144.686 141.734C148.061 141.734 150.798 144.471 150.798 147.846V148.543C150.798 151.919 148.061 154.656 144.686 154.656H93.084C89.7083 154.656 86.9717 151.919 86.9717 148.543V147.846C86.9717 144.47 89.7084 141.734 93.084 141.734H144.686Z" fill="white" stroke="#652AC1"/>
<path d="M92.5889 148.261H144.089" stroke="#652AC1" stroke-width="2.144" stroke-miterlimit="10"/>
<path d="M139.754 147.607V147.841C139.754 149.985 138.015 151.724 135.871 151.724C133.726 151.724 131.987 149.985 131.987 147.841V147.607C131.987 145.462 133.726 143.724 135.871 143.724C138.015 143.724 139.754 145.462 139.754 147.607Z" fill="#652AC1"/>
<path d="M144.686 160.971C148.061 160.971 150.798 163.708 150.798 167.083V167.78C150.798 171.156 148.061 173.893 144.686 173.893H93.084C89.7084 173.893 86.9719 171.156 86.9717 167.78V167.083C86.9717 163.708 89.7083 160.971 93.084 160.971H144.686Z" fill="white" stroke="#652AC1"/>
<path d="M92.5889 167.432H144.089" stroke="#652AC1" stroke-width="2" stroke-miterlimit="10"/>
<path d="M99.6064 167.778C99.6066 166.185 100.898 164.895 102.49 164.895C104.082 164.895 105.373 166.185 105.373 167.778V168.012C105.373 169.604 104.081 170.895 102.489 170.895C100.898 170.895 99.6066 169.604 99.6064 168.012V167.778Z" fill="#652AC1" stroke="#652AC1" stroke-width="2"/>
<path d="M144.686 180.208C148.061 180.208 150.798 182.944 150.798 186.32V187.017C150.798 190.393 148.061 193.13 144.686 193.13H93.084C89.7085 193.13 86.9719 190.393 86.9717 187.017V186.32C86.9717 182.944 89.7083 180.208 93.084 180.208H144.686Z" fill="white" stroke="#652AC1"/>
<path d="M92.5889 186.603H144.089" stroke="#652AC1" stroke-width="2.144" stroke-miterlimit="10"/>
<path d="M127.237 186.948V187.182C127.237 189.326 125.498 191.065 123.354 191.065C121.209 191.065 119.471 189.326 119.471 187.182V186.948C119.471 184.804 121.209 183.065 123.354 183.065C125.498 183.065 127.237 184.804 127.237 186.948Z" fill="#652AC1"/>
<path d="M74.4814 215.482H125.443C129.496 215.482 132.71 218.498 132.71 222.135V269.075C132.71 272.712 129.496 275.729 125.443 275.729H74.4814C70.4284 275.729 67.2139 272.711 67.2139 269.075V222.135C67.2141 218.612 70.2304 215.671 74.1035 215.491L74.4814 215.482Z" fill="white" stroke="#652AC1"/>
<path d="M90.9307 241.033C94.1969 241.033 96.9993 242.986 98.2529 245.783C99.6836 244.453 101.599 243.634 103.709 243.634C107.262 243.634 110.266 245.945 111.323 249.141C112.242 248.772 113.244 248.562 114.298 248.562C118.732 248.562 122.327 252.156 122.327 256.591C122.327 261.025 118.732 264.619 114.299 264.619H83.4014C78.9677 264.619 75.3732 261.025 75.373 256.591C75.373 252.319 78.7088 248.828 82.917 248.577C83.1676 244.368 86.6595 241.033 90.9307 241.033Z" fill="white" stroke="#652AC1"/>
<path d="M97.8818 226.644V238.128" stroke="#8046F8" stroke-width="3.216" stroke-miterlimit="10" stroke-linecap="round" stroke-linejoin="round"/>
<path d="M101.898 231.281L97.8822 226.644L93.8662 231.281" stroke="#8046F8" stroke-width="3.216" stroke-miterlimit="10" stroke-linecap="round" stroke-linejoin="round"/>
<path d="M113.312 231.314V242.798" stroke="#8046F8" stroke-width="3.216" stroke-miterlimit="10" stroke-linecap="round" stroke-linejoin="round"/>
<path d="M117.326 235.951L113.311 231.314L109.295 235.951" stroke="#8046F8" stroke-width="3.216" stroke-miterlimit="10" stroke-linecap="round" stroke-linejoin="round"/>
<path d="M80.0625 230.731V242.215" stroke="#8046F8" stroke-width="3.216" stroke-miterlimit="10" stroke-linecap="round" stroke-linejoin="round"/>
<path d="M84.0783 235.368L80.0629 230.731L76.0469 235.368" stroke="#8046F8" stroke-width="3.216" stroke-miterlimit="10" stroke-linecap="round" stroke-linejoin="round"/>
<path d="M221.644 197.378H221.206C217.176 197.378 213.909 194.112 213.909 190.082V190.082C213.909 186.052 217.176 182.785 221.206 182.785H221.644C225.674 182.785 228.941 186.052 228.941 190.082V190.082C228.941 194.112 225.675 197.378 221.644 197.378Z" fill="#E8E8E8"/>
<path d="M221.644 197.378H221.206C217.176 197.378 213.909 194.112 213.909 190.082V190.082C213.909 186.052 217.176 182.785 221.206 182.785H221.644C225.674 182.785 228.941 186.052 228.941 190.082V190.082C228.941 194.112 225.675 197.378 221.644 197.378Z" fill="#F7FBFE"/>
<path d="M221.644 197.378H221.206C217.176 197.378 213.909 194.112 213.909 190.082V190.082C213.909 186.052 217.176 182.785 221.206 182.785H221.644C225.674 182.785 228.941 186.052 228.941 190.082V190.082C228.941 194.112 225.675 197.378 221.644 197.378Z" fill="white" stroke="#652AC1" stroke-miterlimit="10"/>
<path d="M221.109 193.547C219.531 193.547 218.247 192.263 218.247 190.685C218.247 189.418 219.096 188.288 220.311 187.936L220.457 188.442C219.466 188.729 218.773 189.652 218.773 190.685C218.773 191.972 219.821 193.02 221.108 193.02C222.395 193.02 223.443 191.972 223.443 190.685C223.443 189.652 222.75 188.729 221.758 188.442L221.904 187.936C223.12 188.288 223.969 189.418 223.969 190.685C223.97 192.263 222.687 193.547 221.109 193.547Z" fill="#652AC1"/>
<path d="M221.367 186.352H220.84V189.455H221.367V186.352Z" fill="#652AC1"/>
<path d="M161.246 197.378H160.807C156.778 197.378 153.511 194.112 153.511 190.082V190.082C153.511 186.052 156.778 182.785 160.807 182.785H161.246C165.276 182.785 168.543 186.052 168.543 190.082V190.082C168.542 194.112 165.276 197.378 161.246 197.378Z" fill="#E8E8E8"/>
<path d="M161.246 197.378H160.807C156.778 197.378 153.511 194.112 153.511 190.082V190.082C153.511 186.052 156.778 182.785 160.807 182.785H161.246C165.276 182.785 168.543 186.052 168.543 190.082V190.082C168.542 194.112 165.276 197.378 161.246 197.378Z" fill="#F7FBFE"/>
<path d="M161.246 197.378H160.807C156.778 197.378 153.511 194.112 153.511 190.082V190.082C153.511 186.052 156.778 182.785 160.807 182.785H161.246C165.276 182.785 168.543 186.052 168.543 190.082V190.082C168.542 194.112 165.276 197.378 161.246 197.378Z" fill="white" stroke="#652AC1" stroke-miterlimit="10"/>
<path d="M161.14 193.793L161.486 193.793C163.418 193.712 164.93 192.136 164.93 190.196C164.93 188.258 163.418 186.681 161.486 186.599L161.143 186.598L161.14 186.6C159.229 186.701 157.735 188.278 157.735 190.196C157.735 192.115 159.229 193.691 161.14 193.793ZM158.967 192.525C159.195 192.36 159.442 192.216 159.703 192.102C159.95 192.619 160.294 193.077 160.728 193.464C160.063 193.34 159.445 193.012 158.967 192.525ZM161.192 193.486C160.666 193.091 160.243 192.578 159.962 191.998C160.356 191.854 160.77 191.772 161.192 191.753V193.486ZM161.192 191.473C160.731 191.493 160.279 191.583 159.849 191.742C159.685 191.333 159.589 190.901 159.563 190.454L161.192 190.453V191.473ZM161.192 190.175L159.554 190.176C159.556 189.718 159.631 189.271 159.777 188.844C160.229 189.021 160.705 189.122 161.192 189.144V190.175ZM161.889 193.472C162.342 193.07 162.698 192.593 162.948 192.051C163.228 192.165 163.493 192.31 163.739 192.481C163.244 193.005 162.594 193.352 161.889 193.472ZM163.924 192.271C163.655 192.08 163.363 191.92 163.056 191.795C163.221 191.369 163.317 190.917 163.343 190.453L164.641 190.452C164.59 191.12 164.343 191.747 163.924 192.271ZM164.027 188.26C164.431 188.821 164.647 189.481 164.651 190.173L163.352 190.174C163.349 189.7 163.273 189.234 163.123 188.788C163.444 188.65 163.748 188.472 164.027 188.26ZM163.856 188.041C163.599 188.235 163.321 188.398 163.028 188.527C162.78 187.917 162.388 187.366 161.89 186.922C162.655 187.051 163.346 187.443 163.856 188.041ZM161.472 186.937C162.051 187.383 162.498 187.966 162.768 188.63C162.351 188.779 161.915 188.859 161.472 188.868V186.937ZM161.472 189.148C161.948 189.138 162.415 189.052 162.864 188.891C163 189.304 163.071 189.735 163.072 190.174L161.472 190.175V189.148ZM161.472 190.453L163.064 190.452C163.039 190.882 162.948 191.302 162.795 191.698C162.369 191.555 161.924 191.479 161.472 191.47V190.453ZM161.472 191.749C161.886 191.757 162.295 191.827 162.686 191.954C162.412 192.537 161.994 193.054 161.472 193.456V191.749ZM161.192 186.908V188.866C160.739 188.845 160.297 188.75 159.877 188.584C160.157 187.924 160.609 187.347 161.192 186.908ZM160.728 186.93C160.249 187.359 159.869 187.889 159.622 188.472C159.348 188.342 159.09 188.181 158.85 187.993C159.345 187.437 160.004 187.064 160.728 186.93ZM158.674 188.21C158.937 188.416 159.221 188.593 159.52 188.734C159.36 189.195 159.278 189.68 159.275 190.177L158.013 190.178C158.017 189.46 158.246 188.782 158.674 188.21ZM158.024 190.455L159.284 190.454C159.311 190.937 159.414 191.405 159.593 191.846C159.304 191.974 159.031 192.131 158.781 192.317C158.337 191.785 158.076 191.143 158.024 190.455Z" fill="#652AC1"/>
<path d="M201.592 197.378H201.153C197.124 197.378 193.856 194.112 193.856 190.082V190.082C193.856 186.052 197.124 182.785 201.153 182.785H201.592C205.622 182.785 208.889 186.052 208.889 190.082V190.082C208.889 194.112 205.622 197.378 201.592 197.378Z" fill="#E8E8E8"/>
<path d="M201.592 197.378H201.153C197.124 197.378 193.856 194.112 193.856 190.082V190.082C193.856 186.052 197.124 182.785 201.153 182.785H201.592C205.622 182.785 208.889 186.052 208.889 190.082V190.082C208.889 194.112 205.622 197.378 201.592 197.378Z" fill="#F7FBFE"/>
<path d="M201.592 197.378H201.153C197.124 197.378 193.856 194.112 193.856 190.082V190.082C193.856 186.052 197.124 182.785 201.153 182.785H201.592C205.622 182.785 208.889 186.052 208.889 190.082V190.082C208.889 194.112 205.622 197.378 201.592 197.378Z" fill="white" stroke="#652AC1" stroke-miterlimit="10"/>
<path d="M203.642 193.793L201.419 192.564L199.196 193.793L199.62 191.19L197.822 189.346L200.308 188.966L201.42 186.598L202.531 188.966L205.017 189.346L203.219 191.19L203.642 193.793ZM198.546 189.595L199.982 191.067L199.644 193.146L201.42 192.165L203.195 193.146L202.857 191.067L204.293 189.595L202.308 189.291L201.42 187.4L200.532 189.291L198.546 189.595Z" fill="#652AC1"/>
<path d="M181.133 197.378H180.694C176.665 197.378 173.397 194.112 173.397 190.082V190.082C173.397 186.052 176.665 182.785 180.694 182.785H181.133C185.163 182.785 188.43 186.052 188.43 190.082V190.082C188.43 194.112 185.163 197.378 181.133 197.378Z" fill="#E8E8E8"/>
<path d="M181.133 197.378H180.694C176.665 197.378 173.397 194.112 173.397 190.082V190.082C173.397 186.052 176.665 182.785 180.694 182.785H181.133C185.163 182.785 188.43 186.052 188.43 190.082V190.082C188.43 194.112 185.163 197.378 181.133 197.378Z" fill="#F7FBFE"/>
<path d="M181.133 197.378H180.694C176.665 197.378 173.397 194.112 173.397 190.082V190.082C173.397 186.052 176.665 182.785 180.694 182.785H181.133C185.163 182.785 188.43 186.052 188.43 190.082V190.082C188.43 194.112 185.163 197.378 181.133 197.378Z" fill="white" stroke="#652AC1" stroke-miterlimit="10"/>
<path d="M179.831 192.766C179.756 192.766 179.685 192.734 179.631 192.679L177.348 190.29C177.237 190.174 177.237 189.987 177.348 189.871C177.459 189.755 177.638 189.755 177.748 189.871L179.831 192.049L183.976 187.714C184.087 187.597 184.266 187.597 184.377 187.714C184.487 187.83 184.487 188.016 184.377 188.133L180.032 192.679C179.979 192.734 179.907 192.766 179.831 192.766Z" fill="#652AC1"/>
<path d="M66.7111 247.279H58.2801C53.6247 247.279 49.8496 243.505 49.8496 238.849V72.3577C49.8496 67.7017 58.7641 63.9266 63.4194 63.9266" stroke="#652AC1" stroke-width="1.072" stroke-miterlimit="10" stroke-dasharray="2 2"/>
<path d="M22.1943 136.389H75.9248C76.8594 136.389 77.6172 137.148 77.6172 138.083V196.582C77.6172 197.516 76.8594 198.275 75.9248 198.275H22.1943C21.2641 198.275 20.5011 197.512 20.501 196.583V138.083C20.501 137.147 21.2595 136.389 22.1943 136.389Z" fill="white" stroke="#652EFF"/>
<path opacity="0.5" d="M28.6055 149.978H69.5135" stroke="#652EFF" stroke-width="2" stroke-miterlimit="10" stroke-linecap="round"/>
<path opacity="0.5" d="M28.6055 156.988H69.5135" stroke="#652EFF" stroke-width="2" stroke-miterlimit="10" stroke-linecap="round"/>
<path opacity="0.5" d="M28.6055 163.998H69.5135" stroke="#652EFF" stroke-width="2" stroke-miterlimit="10" stroke-linecap="round"/>
<path opacity="0.5" d="M28.6055 171.008H69.5135" stroke="#652EFF" stroke-width="2" stroke-miterlimit="10" stroke-linecap="round"/>
<path opacity="0.5" d="M28.6055 178.017H69.5135" stroke="#652EFF" stroke-width="2" stroke-miterlimit="10" stroke-linecap="round"/>
<path opacity="0.5" d="M28.6055 185.027H51.8908" stroke="#652EFF" stroke-width="2" stroke-miterlimit="10" stroke-linecap="round"/>
<path d="M224.587 220.523H252.563C258.193 220.523 262.757 225.087 262.757 230.717V257.251C262.757 262.881 258.193 267.445 252.563 267.446H224.587C218.957 267.446 214.393 262.882 214.393 257.251V230.717C214.393 225.087 218.957 220.523 224.587 220.523Z" fill="white" stroke="#652AC1"/>
<path d="M238.144 230.692H239.004C246.345 230.692 252.296 236.643 252.296 243.984C252.296 251.325 246.345 257.276 239.004 257.276H238.144C230.803 257.276 224.852 251.325 224.852 243.984C224.852 236.643 230.803 230.692 238.144 230.692Z" fill="#F7FBFE" stroke="#652AC1" stroke-width="2"/>
<path d="M239.004 258.276H238.144C230.251 258.276 223.852 251.877 223.852 243.984C223.852 236.091 230.251 229.692 238.144 229.692H239.004C246.897 229.692 253.296 236.091 253.296 243.984C253.296 251.877 246.897 258.276 239.004 258.276Z" stroke="#F4F4F4" stroke-width="1.1145" stroke-miterlimit="10"/>
<path d="M238.337 236.619H238.811C242.878 236.619 246.175 239.917 246.175 243.983C246.175 248.051 242.878 251.349 238.811 251.349H238.337C234.269 251.349 230.973 248.051 230.973 243.983C230.973 239.917 234.27 236.619 238.337 236.619Z" fill="white" stroke="#652EFF"/>
<path d="M251.492 274.718L256.905 277.843L251.492 280.967V274.718Z" fill="#652AC1"/>
<path d="M225.657 280.967L220.244 277.843L225.657 274.718V280.967Z" fill="#652AC1"/>
<path d="M237.365 275.645V280.041" stroke="#652AC1" stroke-width="1.072" stroke-miterlimit="10"/>
<path d="M239.866 275.645V280.041" stroke="#652AC1" stroke-width="1.072" stroke-miterlimit="10"/>
<path d="M237.282 152.153C244.03 152.153 249.501 157.624 249.501 164.372C249.501 171.12 244.03 176.591 237.282 176.591C230.534 176.591 225.063 171.12 225.063 164.372C225.063 157.624 230.534 152.153 237.282 152.153Z" fill="white" stroke="#652AC1"/>
<path d="M237.501 156.5C241.919 156.5 245.501 160.082 245.501 164.5C245.501 168.918 241.919 172.5 237.501 172.5C233.083 172.5 229.501 168.918 229.501 164.5C229.501 160.082 233.083 156.5 237.501 156.5Z" fill="#F7FBFE" stroke="#652AC1"/>
<path d="M180.867 16.5C187.615 16.5 193.086 21.9705 193.086 28.7188C193.086 35.467 187.615 40.9375 180.867 40.9375C174.119 40.9375 168.648 35.467 168.648 28.7188C168.648 21.9705 174.119 16.5 180.867 16.5Z" fill="white" stroke="#652AC1"/>
<path d="M180.501 20.5C184.919 20.5 188.501 24.0817 188.501 28.5C188.501 32.9183 184.919 36.5 180.501 36.5C176.083 36.5 172.501 32.9183 172.501 28.5C172.501 24.0817 176.083 20.5 180.501 20.5Z" fill="#F7FBFE" stroke="#652AC1"/>
<path d="M30.853 131.733C30.67 131.733 30.501 131.632 30.414 131.472L28.596 128.126L25.26 126.29C25.1 126.202 25.001 126.034 25.001 125.851C25.001 125.668 25.102 125.5 25.262 125.413L28.609 123.595L30.445 120.259C30.533 120.099 30.701 120 30.883 120H30.884C31.067 120 31.235 120.101 31.322 120.261L33.14 123.608L36.476 125.444C36.636 125.532 36.735 125.7 36.735 125.883C36.735 126.066 36.634 126.234 36.474 126.321L33.127 128.14L31.291 131.476C31.203 131.634 31.035 131.733 30.853 131.733ZM26.542 125.854L29.206 127.32C29.289 127.366 29.358 127.435 29.404 127.519L30.856 130.19L32.322 127.526C32.368 127.443 32.437 127.374 32.521 127.328L35.193 125.876L32.529 124.41C32.446 124.364 32.377 124.295 32.331 124.211L30.879 121.539L29.413 124.203C29.367 124.286 29.298 124.355 29.214 124.401L26.542 125.854Z" fill="#8066FD"/>
<path d="M259.44 211.92C259.255 211.92 259.088 211.819 259.001 211.658L256.271 206.634L251.26 203.877C251.1 203.788 251.001 203.62 251.001 203.438C251.001 203.254 251.102 203.087 251.263 203L256.287 200.27L259.045 195.259C259.134 195.1 259.301 195 259.483 195C259.667 195.001 259.836 195.101 259.922 195.262L262.651 200.286L267.662 203.044C267.822 203.133 267.922 203.301 267.921 203.483C267.92 203.667 267.82 203.835 267.659 203.921L262.635 206.65L259.878 211.661C259.79 211.821 259.622 211.92 259.44 211.92ZM252.542 203.442L256.88 205.829C256.964 205.876 257.032 205.944 257.078 206.029L259.442 210.379L261.829 206.041C261.876 205.957 261.945 205.889 262.029 205.843L266.379 203.48L262.041 201.092C261.957 201.045 261.889 200.976 261.843 200.892L259.48 196.542L257.092 200.88C257.045 200.964 256.976 201.032 256.892 201.078L252.542 203.442Z" fill="url(#paint0_linear_58_7)"/>
<path d="M255.372 178.291C255.096 178.291 254.872 178.067 254.872 177.791V174.5C254.872 174.224 255.096 174 255.372 174C255.648 174 255.872 174.224 255.872 174.5V177.791C255.872 178.067 255.648 178.291 255.372 178.291Z" fill="#775BFC"/>
<path d="M255.372 186.742C255.096 186.742 254.872 186.518 254.872 186.242V182.951C254.872 182.675 255.096 182.451 255.372 182.451C255.648 182.451 255.872 182.675 255.872 182.951V186.242C255.872 186.518 255.648 186.742 255.372 186.742Z" fill="#775BFC"/>
<path d="M261.242 180.871H257.952C257.676 180.871 257.452 180.647 257.452 180.371C257.452 180.095 257.676 179.871 257.952 179.871H261.242C261.518 179.871 261.742 180.095 261.742 180.371C261.742 180.647 261.518 180.871 261.242 180.871Z" fill="#775BFC"/>
<path d="M252.791 180.871H249.501C249.225 180.871 249.001 180.647 249.001 180.371C249.001 180.095 249.225 179.871 249.501 179.871H252.791C253.067 179.871 253.291 180.095 253.291 180.371C253.291 180.647 253.067 180.871 252.791 180.871Z" fill="#775BFC"/>
<path d="M251.22 185.023C251.092 185.023 250.964 184.974 250.866 184.877C250.671 184.682 250.671 184.365 250.866 184.17L253.192 181.843C253.387 181.648 253.704 181.648 253.899 181.843C254.094 182.038 254.094 182.355 253.899 182.55L251.573 184.877C251.476 184.974 251.348 185.023 251.22 185.023Z" fill="#775BFC"/>
<path d="M257.196 179.046C257.068 179.046 256.94 178.997 256.842 178.9C256.647 178.705 256.647 178.388 256.842 178.193L259.169 175.866C259.364 175.671 259.681 175.671 259.876 175.866C260.071 176.061 260.071 176.378 259.876 176.573L257.549 178.9C257.452 178.998 257.324 179.046 257.196 179.046Z" fill="#775BFC"/>
<path d="M253.547 179.046C253.419 179.046 253.291 178.997 253.193 178.9L250.867 176.573C250.672 176.378 250.672 176.061 250.867 175.866C251.062 175.671 251.379 175.671 251.574 175.866L253.9 178.193C254.095 178.388 254.095 178.705 253.9 178.9C253.802 178.998 253.675 179.046 253.547 179.046Z" fill="#775BFC"/>
<path d="M259.523 185.023C259.395 185.023 259.267 184.974 259.169 184.877L256.842 182.55C256.647 182.355 256.647 182.038 256.842 181.843C257.037 181.648 257.354 181.648 257.549 181.843L259.876 184.17C260.071 184.365 260.071 184.682 259.876 184.877C259.779 184.974 259.651 185.023 259.523 185.023Z" fill="#775BFC"/>
<path d="M152.372 272.291C152.096 272.291 151.872 272.067 151.872 271.791V268.5C151.872 268.224 152.096 268 152.372 268C152.648 268 152.872 268.224 152.872 268.5V271.791C152.872 272.067 152.649 272.291 152.372 272.291Z" fill="#775BFC"/>
<path d="M152.372 280.742C152.096 280.742 151.872 280.518 151.872 280.242V276.951C151.872 276.675 152.096 276.451 152.372 276.451C152.648 276.451 152.872 276.675 152.872 276.951V280.242C152.872 280.519 152.649 280.742 152.372 280.742Z" fill="#775BFC"/>
<path d="M158.243 274.871H154.952C154.676 274.871 154.452 274.647 154.452 274.371C154.452 274.095 154.676 273.871 154.952 273.871H158.243C158.519 273.871 158.743 274.095 158.743 274.371C158.743 274.647 158.52 274.871 158.243 274.871Z" fill="#775BFC"/>
<path d="M149.792 274.871H146.501C146.225 274.871 146.001 274.647 146.001 274.371C146.001 274.095 146.225 273.871 146.501 273.871H149.792C150.068 273.871 150.292 274.095 150.292 274.371C150.292 274.647 150.069 274.871 149.792 274.871Z" fill="#775BFC"/>
<path d="M148.221 279.022C148.093 279.022 147.965 278.973 147.867 278.876C147.672 278.681 147.672 278.364 147.867 278.169L150.194 275.842C150.389 275.647 150.706 275.647 150.901 275.842C151.096 276.037 151.096 276.354 150.901 276.549L148.574 278.876C148.477 278.974 148.349 279.022 148.221 279.022Z" fill="#775BFC"/>
<path d="M154.197 273.047C154.069 273.047 153.941 272.998 153.843 272.901C153.648 272.706 153.648 272.389 153.843 272.194L156.17 269.867C156.365 269.672 156.682 269.672 156.877 269.867C157.072 270.062 157.072 270.379 156.877 270.574L154.55 272.901C154.453 272.998 154.325 273.047 154.197 273.047Z" fill="#775BFC"/>
<path d="M150.548 273.047C150.42 273.047 150.292 272.998 150.194 272.901L147.867 270.574C147.672 270.379 147.672 270.062 147.867 269.867C148.062 269.672 148.379 269.672 148.574 269.867L150.901 272.194C151.096 272.389 151.096 272.706 150.901 272.901C150.804 272.998 150.676 273.047 150.548 273.047Z" fill="#775BFC"/>
<path d="M156.524 279.022C156.396 279.022 156.268 278.973 156.17 278.876L153.843 276.549C153.648 276.354 153.648 276.037 153.843 275.842C154.038 275.647 154.355 275.647 154.55 275.842L156.877 278.169C157.072 278.364 157.072 278.681 156.877 278.876C156.78 278.974 156.652 279.022 156.524 279.022Z" fill="#775BFC"/>
<path d="M274.269 166.354C273.993 166.354 273.769 166.13 273.769 165.854V161.5C273.769 161.224 273.993 161 274.269 161C274.545 161 274.769 161.224 274.769 161.5V165.854C274.769 166.13 274.545 166.354 274.269 166.354Z" fill="#775BFC"/>
<path d="M274.269 177.537C273.993 177.537 273.769 177.313 273.769 177.037V172.682C273.769 172.406 273.993 172.182 274.269 172.182C274.545 172.182 274.769 172.406 274.769 172.682V177.037C274.769 177.313 274.545 177.537 274.269 177.537Z" fill="#775BFC"/>
<path d="M282.038 169.768H277.684C277.408 169.768 277.184 169.544 277.184 169.268C277.184 168.992 277.408 168.768 277.684 168.768H282.038C282.314 168.768 282.538 168.992 282.538 169.268C282.538 169.544 282.314 169.768 282.038 169.768Z" fill="#775BFC"/>
<path d="M270.855 169.768H266.501C266.225 169.768 266.001 169.544 266.001 169.268C266.001 168.992 266.225 168.768 266.501 168.768H270.855C271.131 168.768 271.355 168.992 271.355 169.268C271.355 169.544 271.131 169.768 270.855 169.768Z" fill="#775BFC"/>
<path d="M268.776 175.261C268.648 175.261 268.52 175.212 268.422 175.115C268.227 174.92 268.227 174.603 268.422 174.408L271.501 171.329C271.696 171.134 272.013 171.134 272.208 171.329C272.403 171.524 272.403 171.841 272.208 172.036L269.129 175.115C269.032 175.212 268.904 175.261 268.776 175.261Z" fill="#775BFC"/>
<path d="M276.683 167.354C276.555 167.354 276.427 167.305 276.329 167.208C276.134 167.013 276.134 166.696 276.329 166.501L279.408 163.422C279.603 163.227 279.92 163.227 280.115 163.422C280.31 163.617 280.31 163.934 280.115 164.129L277.036 167.208C276.939 167.305 276.811 167.354 276.683 167.354Z" fill="#775BFC"/>
<path d="M271.855 167.354C271.727 167.354 271.599 167.305 271.501 167.208L268.422 164.129C268.227 163.934 268.227 163.617 268.422 163.422C268.617 163.227 268.934 163.227 269.129 163.422L272.208 166.501C272.403 166.696 272.403 167.013 272.208 167.208C272.111 167.305 271.983 167.354 271.855 167.354Z" fill="#775BFC"/>
<path d="M279.762 175.261C279.634 175.261 279.506 175.212 279.408 175.115L276.329 172.036C276.134 171.841 276.134 171.524 276.329 171.329C276.524 171.134 276.841 171.134 277.036 171.329L280.115 174.408C280.31 174.603 280.31 174.92 280.115 175.115C280.018 175.212 279.89 175.261 279.762 175.261Z" fill="#775BFC"/>
<path d="M161.269 40.354C160.993 40.354 160.769 40.13 160.769 39.854V35.5C160.769 35.224 160.993 35 161.269 35C161.545 35 161.769 35.224 161.769 35.5V39.854C161.769 40.13 161.545 40.354 161.269 40.354Z" fill="#775BFC"/>
<path d="M161.269 51.537C160.993 51.537 160.769 51.313 160.769 51.037V46.683C160.769 46.407 160.993 46.183 161.269 46.183C161.545 46.183 161.769 46.407 161.769 46.683V51.037C161.769 51.313 161.545 51.537 161.269 51.537Z" fill="#775BFC"/>
<path d="M157.855 43.769H153.501C153.225 43.769 153.001 43.545 153.001 43.269C153.001 42.993 153.225 42.769 153.501 42.769H157.855C158.131 42.769 158.355 42.993 158.355 43.269C158.355 43.545 158.131 43.769 157.855 43.769Z" fill="#775BFC"/>
<path d="M169.038 43.769H164.684C164.408 43.769 164.184 43.545 164.184 43.269C164.184 42.993 164.408 42.769 164.684 42.769H169.038C169.314 42.769 169.538 42.993 169.538 43.269C169.538 43.545 169.314 43.769 169.038 43.769Z" fill="#775BFC"/>
<path d="M166.762 49.262C166.634 49.262 166.506 49.213 166.408 49.116L163.329 46.037C163.134 45.842 163.134 45.525 163.329 45.33C163.524 45.135 163.841 45.135 164.036 45.33L167.115 48.409C167.31 48.604 167.31 48.921 167.115 49.116C167.018 49.213 166.89 49.262 166.762 49.262Z" fill="#775BFC"/>
<path d="M158.855 41.354C158.727 41.354 158.599 41.305 158.501 41.208L155.422 38.129C155.227 37.934 155.227 37.617 155.422 37.422C155.617 37.227 155.934 37.227 156.129 37.422L159.208 40.501C159.403 40.696 159.403 41.013 159.208 41.208C159.11 41.305 158.983 41.354 158.855 41.354Z" fill="#775BFC"/>
<path d="M163.683 41.354C163.555 41.354 163.427 41.305 163.329 41.208C163.134 41.013 163.134 40.696 163.329 40.501L166.408 37.422C166.603 37.227 166.92 37.227 167.115 37.422C167.31 37.617 167.31 37.934 167.115 38.129L164.036 41.208C163.939 41.305 163.811 41.354 163.683 41.354Z" fill="#775BFC"/>
<path d="M155.775 49.262C155.647 49.262 155.519 49.213 155.421 49.116C155.226 48.921 155.226 48.604 155.421 48.409L158.5 45.33C158.695 45.135 159.012 45.135 159.207 45.33C159.402 45.525 159.402 45.842 159.207 46.037L156.128 49.116C156.031 49.213 155.903 49.262 155.775 49.262Z" fill="#775BFC"/>
<path d="M49.8793 81.5121C49.0099 80.8181 48.2071 80.195 47.4266 79.5502C44.3282 76.9888 41.592 74.1332 39.2647 70.943C38.4228 69.788 37.6524 68.5916 36.9487 67.3608C35.8835 65.4978 35.1214 63.5064 34.5125 61.4563C34.231 60.5088 33.8974 59.5769 33.6179 58.6281C32.81 55.8883 32.7773 53.0634 33.1623 50.19C33.6502 46.5476 35.0132 43.1524 37.2236 39.9901C37.2711 39.9224 37.316 39.852 37.3664 39.7854C37.6659 39.3878 37.6931 39.3796 38.1583 39.5156C40.0813 40.0773 42.0534 40.4865 44.0782 40.7119C47.8463 41.1319 51.6217 40.949 55.3887 39.9718C57.3819 39.4549 59.238 38.6472 60.8717 37.3979C62.0674 36.4835 63.0369 35.4102 63.6706 34.1165C64.4991 32.423 64.6152 30.7561 63.6152 29.203C62.8576 28.0268 61.6781 27.3062 60.2685 26.8676C58.1123 26.196 55.8637 26.1669 53.5712 26.5232C51.1193 26.904 48.7844 27.6635 46.5309 28.7349C42.8154 30.5012 39.7466 32.9685 37.1456 35.9713C36.6825 36.5061 36.6744 36.5336 36.012 36.3433C34.1313 35.8022 32.2531 35.2544 30.3858 34.6802C27.0665 33.66 23.823 32.4821 20.6598 31.1457C19.9408 30.8417 19.2379 30.5095 18.5253 30.1938C18.3478 30.115 18.1861 29.9936 17.8886 29.9864C18.0623 30.238 18.2687 30.364 18.4592 30.4956C21.9939 32.9351 25.7391 35.0717 29.8565 36.6673C31.3359 37.2409 32.8374 37.774 34.3329 38.3173C35.0903 38.5923 35.0973 38.5891 34.6413 39.2559C31.9735 43.1595 30.5971 47.3604 30.2316 51.8133C29.9627 55.0874 30.398 58.2252 31.5246 61.2401C32.3469 63.4428 33.4156 65.529 34.6835 67.5279C37.5068 71.9797 41.3142 75.6125 45.6047 78.8495C46.8019 79.7528 47.9695 80.6942 49.3593 81.368C49.483 81.428 49.586 81.5354 49.8793 81.5121ZM47.4807 30.944C48.3692 30.4836 49.6844 29.9796 51.0359 29.576C53.2834 28.905 55.5518 28.5587 57.8458 28.8784C58.7528 29.0045 59.6139 29.2465 60.3608 29.7186C61.5016 30.4399 61.8486 31.4601 61.4001 32.7281C61.0375 33.7527 60.3398 34.5793 59.4684 35.2988C58.3104 36.2551 56.9719 36.8997 55.5284 37.3467C52.9315 38.1511 50.281 38.4279 47.6167 38.4437C44.9696 38.4599 42.4037 38.0861 39.9046 37.4423C39.3679 37.304 39.3631 37.2651 39.7394 36.8228C39.7524 36.8066 39.7674 36.7918 39.7821 36.7757C41.8715 34.4965 44.2738 32.5678 47.4807 30.944Z" fill="#C8BCEA"/>
<path d="M20.6322 40.724L24.5792 31.0804L24.6178 30.9848L24.6915 30.9121L32.9727 22.8123L1.25766 19.5605L20.6322 40.724Z" fill="white" stroke="#652AC1"/>
<path d="M24.4844 32.7146L29.497 33.4419L26.3436 30.1263L6.14767 21.9546L24.4844 32.7146Z" fill="#CECEF4" stroke="#652AC1"/>
<path d="M269.078 97.2348H268.709C267.623 97.2348 267.08 95.9228 267.848 95.1556L268.108 94.8949C268.584 94.4191 268.584 93.6472 268.108 93.1714L267.125 92.1881C266.649 91.7123 265.878 91.7123 265.402 92.1881L265.141 92.4498C264.374 93.2161 263.062 92.6732 263.062 91.5875V91.2188C263.062 90.5456 262.516 90 261.844 90H260.454C259.78 90 259.235 90.5456 259.235 91.2188V91.5875C259.235 92.6732 257.923 93.2161 257.156 92.4498L256.895 92.1881C256.419 91.7123 255.648 91.7123 255.171 92.1881L254.189 93.1714C253.712 93.6472 253.712 94.4191 254.189 94.8949L254.45 95.1556C255.217 95.9228 254.673 97.2348 253.589 97.2348H253.219C252.547 97.2348 252.001 97.7804 252.001 98.4536V99.8428C252.001 100.516 252.547 101.062 253.219 101.062H253.589C254.673 101.062 255.217 102.374 254.45 103.141L254.189 103.402C253.712 103.877 253.712 104.649 254.189 105.125L255.171 106.108C255.648 106.584 256.419 106.584 256.895 106.108L257.156 105.848C257.923 105.08 259.235 105.623 259.235 106.709V107.078C259.235 107.751 259.78 108.296 260.454 108.296H261.844C262.516 108.296 263.062 107.751 263.062 107.078V106.709C263.062 105.623 264.374 105.08 265.141 105.848L265.402 106.108C265.878 106.584 266.649 106.584 267.125 106.108L268.108 105.125C268.584 104.649 268.584 103.877 268.108 103.402L267.848 103.141C267.08 102.374 267.624 101.062 268.709 101.062H269.078C269.751 101.062 270.296 100.516 270.296 99.8428V98.4536C270.296 97.7804 269.751 97.2348 269.078 97.2348ZM261.148 102.406C259.348 102.406 257.89 100.948 257.89 99.1482C257.89 97.3484 259.348 95.8902 261.148 95.8902C262.948 95.8902 264.407 97.3484 264.407 99.1482C264.407 100.948 262.948 102.406 261.148 102.406Z" fill="#642CFF"/>
<path d="M50.2147 263.746C50.0671 263.746 49.9473 263.627 49.9473 263.479V261.267C49.9473 261.12 50.0671 261 50.2147 261C50.3623 261 50.4821 261.12 50.4821 261.267V263.479C50.4821 263.627 50.3623 263.746 50.2147 263.746Z" fill="#5800B5"/>
<path d="M50.2147 269.427C50.0671 269.427 49.9473 269.307 49.9473 269.159V266.947C49.9473 266.8 50.0671 266.68 50.2147 266.68C50.3623 266.68 50.4821 266.8 50.4821 266.947V269.159C50.4821 269.308 50.3623 269.427 50.2147 269.427Z" fill="#5800B5"/>
<path d="M48.4803 265.48H46.2684C46.1208 265.48 46.001 265.361 46.001 265.213C46.001 265.065 46.1208 264.946 46.2684 264.946H48.4803C48.6279 264.946 48.7477 265.065 48.7477 265.213C48.7477 265.361 48.6279 265.48 48.4803 265.48Z" fill="#5800B5"/>
<path d="M54.1615 265.48H51.949C51.8014 265.48 51.6816 265.361 51.6816 265.213C51.6816 265.065 51.8014 264.946 51.949 264.946H54.1615C54.3091 264.946 54.4289 265.065 54.4289 265.213C54.4289 265.361 54.3091 265.48 54.1615 265.48Z" fill="#5800B5"/>
<path d="M53.0056 268.271C52.9372 268.271 52.8687 268.245 52.8163 268.193L51.252 266.628C51.1478 266.524 51.1478 266.355 51.252 266.25C51.3563 266.146 51.5259 266.146 51.6301 266.25L53.1944 267.815C53.2987 267.919 53.2987 268.088 53.1944 268.193C53.142 268.245 53.0736 268.271 53.0056 268.271Z" fill="#5800B5"/>
<path d="M48.9891 264.254C48.9206 264.254 48.8521 264.228 48.7997 264.176L47.2354 262.611C47.1312 262.507 47.1312 262.338 47.2354 262.233C47.3397 262.129 47.5093 262.129 47.6135 262.233L49.1778 263.798C49.2821 263.902 49.2821 264.071 49.1778 264.176C49.126 264.228 49.0575 264.254 48.9891 264.254Z" fill="#5800B5"/>
<path d="M51.4414 264.254C51.3729 264.254 51.3045 264.228 51.252 264.176C51.1478 264.071 51.1478 263.902 51.252 263.798L52.8163 262.233C52.9206 262.129 53.0901 262.129 53.1944 262.233C53.2987 262.338 53.2987 262.507 53.1944 262.611L51.6301 264.176C51.5783 264.228 51.5098 264.254 51.4414 264.254Z" fill="#5800B5"/>
<path d="M47.4248 268.271C47.3563 268.271 47.2879 268.245 47.2354 268.193C47.1312 268.088 47.1312 267.919 47.2354 267.815L48.7997 266.25C48.904 266.146 49.0736 266.146 49.1778 266.25C49.2821 266.355 49.2821 266.524 49.1778 266.628L47.6135 268.193C47.5617 268.245 47.4932 268.271 47.4248 268.271Z" fill="#5800B5"/>
<path d="M220.866 30.9226C220.896 30.7375 220.969 30.5615 221.084 30.4063C221.274 30.1494 221.552 29.9818 221.867 29.9342L224.602 29.5221C224.673 28.0229 225.031 26.5764 225.669 25.2175L223.444 23.5753C222.913 23.1844 222.8 22.4352 223.192 21.9046L224.467 20.1767C224.656 19.9202 224.934 19.7522 225.25 19.7046C225.565 19.657 225.88 19.7351 226.137 19.9246L228.363 21.5668C229.473 20.557 230.749 19.7875 232.16 19.2768L231.748 16.5426C231.7 16.227 231.778 15.9113 231.967 15.6548C232.157 15.3979 232.435 15.2304 232.751 15.1828L234.874 14.8623C235.525 14.7642 236.136 15.2142 236.234 15.8655L236.646 18.5993C238.145 18.6709 239.591 19.0294 240.951 19.6667L242.592 17.4416C242.984 16.9117 243.734 16.7983 244.264 17.1896L245.992 18.4642C246.521 18.8555 246.634 19.6054 246.243 20.1349L244.602 22.3605C245.611 23.4706 246.38 24.747 246.892 26.1584L249.626 25.7458C249.941 25.6982 250.256 25.7763 250.513 25.9658C250.77 26.1554 250.938 26.4334 250.985 26.7489L251.306 28.8722C251.354 29.1871 251.276 29.5032 251.086 29.76C250.897 30.0169 250.618 30.1844 250.303 30.232L247.569 30.6447C247.496 32.144 247.138 33.5902 246.501 34.9488L248.727 36.5909C249.257 36.9826 249.37 37.7325 248.978 38.262L247.703 39.9899C247.514 40.2465 247.236 40.4145 246.92 40.4621C246.605 40.5097 246.29 40.4317 246.033 40.242L243.808 38.6C242.697 39.61 241.42 40.3795 240.01 40.8899L240.422 43.6241C240.47 43.9393 240.392 44.255 240.203 44.5118C240.013 44.7687 239.735 44.9363 239.419 44.9839L237.296 45.3043C236.645 45.4025 236.034 44.9525 235.936 44.3012L235.524 41.5674C234.025 41.4958 232.579 41.1372 231.219 40.4999L229.578 42.7251C229.187 43.2551 228.437 43.3684 227.906 42.9775L226.179 41.7029C225.649 41.3116 225.535 40.5624 225.927 40.0317L227.568 37.8061C226.559 36.6965 225.79 35.4201 225.278 34.0083L222.545 34.4209C221.893 34.5191 221.283 34.0691 221.185 33.4178L220.865 31.2949C220.845 31.1692 220.846 31.0439 220.866 30.9226ZM224.981 29.7218C224.968 29.804 224.903 29.8698 224.818 29.8829L221.926 30.3194C221.713 30.3513 221.525 30.4646 221.397 30.6378C221.27 30.8113 221.217 31.0239 221.248 31.2367L221.569 33.3596C221.635 33.7989 222.047 34.1027 222.486 34.0361L225.378 33.5996C225.471 33.5855 225.56 33.6399 225.591 33.7285C226.101 35.2 226.899 36.5227 227.962 37.6597C228.025 37.7279 228.032 37.8332 227.976 37.908L226.239 40.2626C225.976 40.6199 226.052 41.1257 226.409 41.3896L228.137 42.6641C228.494 42.9276 229 42.8515 229.264 42.4939L231.001 40.1397C231.056 40.0643 231.158 40.039 231.243 40.0804C232.643 40.7607 234.143 41.1326 235.698 41.185C235.792 41.1884 235.87 41.2579 235.884 41.3504L236.32 44.243C236.387 44.6823 236.799 44.9861 237.237 44.9196L239.36 44.5991C239.573 44.5671 239.761 44.4538 239.889 44.2807C240.017 44.1075 240.069 43.8949 240.038 43.6821L239.601 40.7895C239.586 40.6972 239.641 40.6072 239.729 40.5766C241.2 40.0673 242.523 39.27 243.661 38.2064C243.729 38.1422 243.833 38.1363 243.909 38.192L246.263 39.9291C246.436 40.057 246.649 40.1098 246.862 40.0774C247.075 40.0449 247.262 39.932 247.39 39.7589L248.665 38.031C248.928 37.6736 248.852 37.1679 248.495 36.9041L246.14 35.1669C246.065 35.1113 246.039 35.0104 246.081 34.9255C246.761 33.5248 247.133 32.0254 247.186 30.4701C247.187 30.3765 247.259 30.2986 247.352 30.2842L250.244 29.8476C250.457 29.8157 250.645 29.7024 250.772 29.5292C250.9 29.3561 250.952 29.1435 250.921 28.9307L250.601 26.8074C250.568 26.5948 250.455 26.4069 250.282 26.2794C250.109 26.1516 249.896 26.0989 249.684 26.1313L246.791 26.5678C246.699 26.5819 246.609 26.5275 246.578 26.4389C246.068 24.9678 245.271 23.645 244.208 22.5077C244.144 22.4397 244.137 22.3353 244.193 22.2594L245.931 19.9048C246.193 19.5478 246.118 19.0417 245.761 18.7779L244.033 17.5032C243.675 17.2393 243.169 17.3155 242.906 17.673L241.168 20.0273C241.113 20.1027 241.011 20.1279 240.927 20.0866C239.527 19.4063 238.027 19.0344 236.471 18.982C236.378 18.9785 236.299 18.9091 236.286 18.8166L235.849 15.924C235.783 15.4847 235.371 15.1809 234.932 15.2474L232.809 15.5679C232.596 15.5999 232.408 15.7132 232.28 15.8863C232.153 16.0598 232.1 16.2728 232.132 16.4848L232.569 19.3775C232.583 19.4701 232.529 19.5598 232.44 19.5904C230.969 20.1 229.646 20.8973 228.509 21.9607C228.441 22.0248 228.337 22.0307 228.261 21.9751L225.906 20.2378C225.733 20.11 225.521 20.0573 225.308 20.0896C225.095 20.1217 224.907 20.235 224.779 20.4081L223.505 22.136C223.241 22.4937 223.317 22.999 223.674 23.2629L226.029 25.0001C226.104 25.0557 226.13 25.1568 226.088 25.2415C225.409 26.6417 225.037 28.1412 224.984 29.6973C224.984 29.7052 224.983 29.7133 224.981 29.7218ZM230.163 29.1102C230.311 28.2001 230.671 27.3116 231.255 26.5202C233.22 23.8572 236.985 23.2891 239.648 25.2538C242.311 27.2186 242.879 30.9836 240.914 33.6465C238.95 36.3094 235.185 36.8775 232.522 34.9128C230.65 33.532 229.813 31.262 230.163 29.1102ZM231.568 26.7508C229.731 29.2413 230.263 32.7627 232.753 34.5996C235.243 36.4365 238.764 35.9056 240.602 33.4151C242.438 30.9252 241.907 27.404 239.417 25.5663C236.927 23.7297 233.406 24.2612 231.568 26.7508Z" fill="#5800B5"/>
<path d="M22.9962 214.564C23.0122 214.465 23.0515 214.371 23.1127 214.289C23.2139 214.152 23.3624 214.062 23.5308 214.037L24.9898 213.817C25.0278 213.017 25.2192 212.245 25.5595 211.52L24.3719 210.643C24.0888 210.435 24.0283 210.035 24.2376 209.752L24.9178 208.83C25.0187 208.693 25.1672 208.603 25.3356 208.578C25.504 208.552 25.6723 208.594 25.8093 208.695L26.9969 209.572C27.5893 209.033 28.2703 208.622 29.0234 208.35L28.8033 206.89C28.7778 206.722 28.8193 206.554 28.9205 206.417C29.0216 206.28 29.1702 206.19 29.3386 206.165L30.4714 205.994C30.8192 205.941 31.1448 206.182 31.1971 206.529L31.4173 207.988C32.2172 208.026 32.9889 208.218 33.7143 208.558L34.5904 207.37C34.7992 207.087 35.1994 207.027 35.4822 207.236L36.4042 207.916C36.687 208.125 36.7473 208.525 36.5386 208.807L35.6627 209.995C36.2013 210.587 36.6117 211.269 36.8846 212.022L38.3435 211.802C38.5119 211.776 38.6801 211.818 38.8172 211.919C38.9541 212.02 39.0438 212.169 39.0692 212.337L39.2401 213.47C39.2658 213.638 39.2243 213.807 39.1229 213.944C39.0217 214.081 38.8732 214.17 38.7048 214.196L37.2459 214.416C37.2073 215.216 37.0162 215.988 36.6762 216.713L37.8637 217.589C38.1467 217.798 38.207 218.198 37.998 218.481L37.3178 219.403C37.2169 219.54 37.0683 219.629 36.8999 219.655C36.7317 219.68 36.5635 219.638 36.4262 219.537L35.2389 218.661C34.6462 219.2 33.9649 219.611 33.2122 219.883L33.4323 221.342C33.458 221.51 33.4163 221.679 33.3151 221.816C33.2139 221.953 33.0654 222.042 32.897 222.068L31.7642 222.239C31.4164 222.291 31.0907 222.051 31.0385 221.703L30.8183 220.245C30.0186 220.206 29.2467 220.015 28.5212 219.675L27.6452 220.862C27.4366 221.145 27.0364 221.206 26.7534 220.997L25.8315 220.317C25.5487 220.108 25.488 219.708 25.697 219.425L26.5729 218.237C26.0344 217.645 25.6238 216.964 25.3509 216.211L23.8923 216.431C23.5445 216.483 23.2188 216.243 23.1666 215.896L22.9956 214.763C22.9853 214.696 22.9857 214.629 22.9962 214.564ZM25.1925 213.923C25.1854 213.967 25.1504 214.002 25.1056 214.009L23.5619 214.242C23.4483 214.259 23.3481 214.32 23.2798 214.412C23.2117 214.505 23.1836 214.618 23.2005 214.732L23.3715 215.865C23.407 216.099 23.6267 216.261 23.8609 216.226L25.4043 215.993C25.4537 215.985 25.5015 216.014 25.518 216.061C25.7901 216.847 26.2157 217.553 26.7829 218.159C26.8167 218.196 26.8206 218.252 26.7906 218.292L25.8635 219.548C25.7232 219.739 25.7636 220.009 25.9544 220.15L26.8763 220.83C27.0671 220.97 27.337 220.93 27.4779 220.739L28.4049 219.483C28.4343 219.442 28.4885 219.429 28.5337 219.451C29.2812 219.814 30.0812 220.013 30.9115 220.041C30.9614 220.042 31.0031 220.079 31.0105 220.129L31.2434 221.672C31.2789 221.907 31.4986 222.069 31.7328 222.033L32.8656 221.862C32.9793 221.845 33.0795 221.785 33.1478 221.692C33.2158 221.6 33.2437 221.487 33.2271 221.373L32.9939 219.829C32.9862 219.78 33.0152 219.732 33.0625 219.716C33.8472 219.444 34.5533 219.019 35.1605 218.451C35.197 218.417 35.2526 218.414 35.293 218.443L36.5493 219.37C36.6417 219.439 36.7553 219.467 36.8688 219.449C36.9822 219.432 37.0824 219.372 37.1507 219.279L37.8309 218.357C37.9711 218.167 37.9308 217.897 37.7402 217.756L36.4837 216.829C36.4435 216.799 36.4296 216.746 36.4521 216.7C36.8147 215.953 37.0134 215.153 37.0417 214.323C37.0423 214.273 37.0804 214.231 37.13 214.223L38.6734 213.99C38.787 213.973 38.8873 213.913 38.9555 213.821C39.0236 213.728 39.0515 213.615 39.0348 213.501L38.8639 212.368C38.8466 212.255 38.7863 212.154 38.6939 212.086C38.6015 212.018 38.4881 211.99 38.3746 212.007L36.831 212.24C36.7816 212.248 36.7338 212.219 36.7173 212.171C36.4453 211.386 36.0196 210.681 35.4524 210.074C35.4181 210.037 35.4144 209.982 35.4447 209.941L36.3718 208.685C36.5119 208.494 36.4717 208.224 36.2811 208.083L35.359 207.403C35.1683 207.262 34.8983 207.303 34.7575 207.494L33.8305 208.75C33.801 208.79 33.7467 208.804 33.7017 208.782C32.9543 208.419 32.1543 208.22 31.3239 208.192C31.2739 208.19 31.2322 208.153 31.2249 208.104L30.992 206.56C30.9565 206.326 30.7368 206.164 30.5026 206.199L29.3697 206.37C29.2561 206.387 29.1558 206.448 29.0876 206.54C29.0193 206.633 28.9914 206.746 29.0083 206.86L29.2414 208.403C29.2489 208.453 29.2201 208.501 29.1729 208.517C28.3879 208.789 27.6818 209.214 27.0751 209.782C27.0386 209.816 26.9829 209.819 26.9426 209.789L25.686 208.862C25.5937 208.794 25.4802 208.766 25.3666 208.783C25.2532 208.8 25.1529 208.861 25.0847 208.953L24.4045 209.875C24.2641 210.066 24.3043 210.336 24.4951 210.477L25.7516 211.404C25.7918 211.433 25.8053 211.487 25.7833 211.533C25.4205 212.28 25.222 213.08 25.1938 213.91C25.1937 213.914 25.1932 213.919 25.1925 213.923ZM27.9578 213.597C28.0367 213.111 28.2289 212.637 28.5405 212.215C29.589 210.794 31.5981 210.491 33.0191 211.539C34.4401 212.588 34.7435 214.597 33.6949 216.018C32.6464 217.439 30.6373 217.742 29.2163 216.693C28.2176 215.957 27.771 214.745 27.9578 213.597ZM28.7075 212.338C27.7272 213.667 28.0107 215.546 29.3396 216.526C30.6684 217.507 32.5475 217.223 33.5282 215.894C34.508 214.566 34.2249 212.686 32.8961 211.706C31.567 210.726 29.6883 211.009 28.7075 212.338Z" fill="#5800B5"/>
<path d="M97.9878 206.988H97.9873C97.8894 206.988 97.7996 206.934 97.7531 206.848L96.8311 205.152L95.1395 204.221C95.0539 204.173 95.001 204.084 95.001 203.986C95.001 203.888 95.055 203.798 95.1406 203.752L96.8369 202.83L97.768 201.139C97.8151 201.053 97.9049 201 98.0023 201H98.0028C98.1007 201 98.1905 201.054 98.237 201.14L99.159 202.836L100.851 203.767C100.936 203.814 100.989 203.904 100.989 204.002C100.989 204.1 100.935 204.19 100.85 204.236L99.1532 205.158L98.2221 206.849C98.175 206.935 98.0852 206.988 97.9878 206.988ZM95.8256 203.988L97.1573 204.721C97.2017 204.746 97.2386 204.783 97.2632 204.828L97.9889 206.163L98.7221 204.831C98.7467 204.787 98.7836 204.75 98.8285 204.725L100.164 204L98.8328 203.267C98.7884 203.242 98.7515 203.206 98.7269 203.161L98.0012 201.825L97.268 203.156C97.2434 203.201 97.2065 203.238 97.1616 203.262L95.8256 203.988Z" fill="#5800B5"/>
<path d="M193.301 294.621C193.202 294.621 193.112 294.567 193.066 294.482L191.681 291.933L189.14 290.534C189.054 290.487 189.001 290.397 189.001 290.299C189.001 290.201 189.055 290.112 189.141 290.065L191.69 288.68L193.088 286.139C193.136 286.053 193.225 286 193.323 286H193.323C193.422 286 193.511 286.054 193.557 286.14L194.943 288.689L197.485 290.088C197.57 290.135 197.624 290.225 197.623 290.323C197.622 290.421 197.569 290.51 197.483 290.557L194.934 291.942L193.535 294.484C193.488 294.568 193.399 294.621 193.301 294.621ZM189.826 290.301L192.007 291.501C192.052 291.526 192.088 291.563 192.113 291.608L193.302 293.796L194.503 291.614C194.528 291.57 194.565 291.533 194.61 291.508L196.798 290.319L194.616 289.118C194.571 289.093 194.535 289.056 194.51 289.011L193.321 286.823L192.12 289.005C192.095 289.049 192.059 289.086 192.014 289.111L189.826 290.301Z" fill="#5800B5"/>
<path d="M127.215 97.7464C127.067 97.7464 126.947 97.6266 126.947 97.479V95.2671C126.947 95.1195 127.067 94.9997 127.215 94.9997C127.362 94.9997 127.482 95.1195 127.482 95.2671V97.479C127.482 97.6266 127.362 97.7464 127.215 97.7464Z" fill="#5800B5"/>
<path d="M127.215 103.427C127.067 103.427 126.947 103.307 126.947 103.159V100.947C126.947 100.8 127.067 100.68 127.215 100.68C127.362 100.68 127.482 100.8 127.482 100.947V103.159C127.482 103.308 127.362 103.427 127.215 103.427Z" fill="#5800B5"/>
<path d="M125.48 99.4803H123.268C123.121 99.4803 123.001 99.3605 123.001 99.2129C123.001 99.0653 123.121 98.9455 123.268 98.9455H125.48C125.628 98.9455 125.748 99.0653 125.748 99.2129C125.748 99.3605 125.628 99.4803 125.48 99.4803Z" fill="#5800B5"/>
<path d="M131.161 99.4804H128.949C128.801 99.4804 128.682 99.3606 128.682 99.213C128.682 99.0654 128.801 98.9456 128.949 98.9456H131.161C131.309 98.9456 131.429 99.0654 131.429 99.213C131.429 99.3606 131.309 99.4804 131.161 99.4804Z" fill="#5800B5"/>
<path d="M130.006 102.271C129.937 102.271 129.869 102.245 129.816 102.193L128.252 100.628C128.148 100.524 128.148 100.355 128.252 100.25C128.356 100.146 128.526 100.146 128.63 100.25L130.194 101.815C130.299 101.919 130.299 102.088 130.194 102.193C130.142 102.245 130.074 102.271 130.006 102.271Z" fill="#5800B5"/>
<path d="M125.989 98.2539C125.921 98.2539 125.852 98.2277 125.8 98.1758L124.235 96.6115C124.131 96.5072 124.131 96.3377 124.235 96.2334C124.34 96.1291 124.509 96.1291 124.614 96.2334L126.178 97.7977C126.282 97.902 126.282 98.0715 126.178 98.1758C126.126 98.2277 126.058 98.2539 125.989 98.2539Z" fill="#5800B5"/>
<path d="M128.441 98.2539C128.373 98.2539 128.304 98.2277 128.252 98.1758C128.148 98.0715 128.148 97.902 128.252 97.7977L129.816 96.2334C129.921 96.1291 130.09 96.1291 130.194 96.2334C130.299 96.3377 130.299 96.5072 130.194 96.6115L128.63 98.1758C128.578 98.2277 128.51 98.2539 128.441 98.2539Z" fill="#5800B5"/>
<path d="M124.425 102.271C124.356 102.271 124.288 102.245 124.235 102.193C124.131 102.088 124.131 101.919 124.235 101.815L125.8 100.25C125.904 100.146 126.074 100.146 126.178 100.25C126.282 100.355 126.282 100.524 126.178 100.628L124.614 102.193C124.562 102.245 124.493 102.271 124.425 102.271Z" fill="#5800B5"/>
<defs>
<linearGradient id="paint0_linear_58_7" x1="251" y1="203.46" x2="267.921" y2="203.46" gradientUnits="userSpaceOnUse">
<stop stop-color="#E3F3FE"/>
<stop offset="0.0118" stop-color="#E1F1FE"/>
<stop offset="0.3624" stop-color="#B0ACFD"/>
<stop offset="0.6555" stop-color="#8C7AFD"/>
<stop offset="0.8766" stop-color="#755BFC"/>
<stop offset="1" stop-color="#6D4FFC"/>
</linearGradient>
</defs>
</svg>
