<svg width="260" height="281" viewBox="0 0 260 281" fill="none" xmlns="http://www.w3.org/2000/svg">
<path opacity="0.45" d="M18.5561 102.574C18.4347 102.583 18.3687 102.521 18.3223 102.435L16.9434 99.8866L14.4133 98.4882C14.3281 98.4411 14.2754 98.3513 14.2754 98.2535C14.2754 98.1557 14.3292 98.0659 14.4144 98.0194L16.9524 96.6349L18.3452 94.0947C18.3921 94.0092 18.4704 93.9664 18.579 93.9563C18.6764 93.9563 18.7659 94.0103 18.8122 94.0958L20.1912 96.644L22.7212 98.0424C22.8064 98.0894 22.8591 98.1797 22.8591 98.277C22.8591 98.3743 22.8054 98.4647 22.7202 98.5112L20.1821 99.8956L18.7893 102.436C18.7424 102.521 18.653 102.574 18.5561 102.574ZM15.0959 98.2557L17.2681 99.4562C17.3123 99.4808 17.3491 99.5177 17.3736 99.5626L18.5577 101.75L19.753 99.569C19.7775 99.5247 19.8142 99.4878 19.8589 99.4632L22.0376 98.2749L19.8653 97.0743C19.8211 97.0497 19.7844 97.0128 19.7599 96.9679L18.5763 94.7806L17.3805 96.9615C17.356 97.0059 17.3193 97.0428 17.2745 97.0674L15.0959 98.2557Z" fill="#5800B5"/>
<g opacity="0.45">
<path d="M160.287 264.315C160.14 264.315 160.021 264.195 160.021 264.047V262.145C160.021 261.997 160.14 261.877 160.287 261.877C160.434 261.877 160.553 261.997 160.553 262.145V264.047C160.553 264.196 160.434 264.315 160.287 264.315Z" fill="#5800B5"/>
<path d="M160.287 269.201C160.14 269.201 160.021 269.081 160.021 268.934V267.031C160.021 266.883 160.14 266.764 160.287 266.764C160.434 266.764 160.553 266.883 160.553 267.031V268.934C160.553 269.081 160.434 269.201 160.287 269.201Z" fill="#5800B5"/>
<path d="M158.802 265.807H156.907C156.76 265.807 156.641 265.687 156.641 265.54C156.641 265.392 156.76 265.272 156.907 265.272H158.802C158.949 265.272 159.068 265.392 159.068 265.54C159.068 265.687 158.949 265.807 158.802 265.807Z" fill="#5800B5"/>
<path d="M163.668 265.807H161.773C161.626 265.807 161.507 265.687 161.507 265.54C161.507 265.392 161.626 265.272 161.773 265.272H163.668C163.815 265.272 163.934 265.392 163.934 265.54C163.934 265.687 163.815 265.807 163.668 265.807Z" fill="#5800B5"/>
<path d="M162.678 268.208C162.61 268.208 162.541 268.182 162.489 268.13L161.149 266.784C161.045 266.679 161.045 266.51 161.149 266.406C161.253 266.301 161.422 266.301 161.526 266.406L162.866 267.752C162.97 267.856 162.97 268.026 162.866 268.13C162.814 268.182 162.746 268.208 162.678 268.208Z" fill="#5800B5"/>
<path d="M159.236 264.753C159.168 264.753 159.1 264.727 159.048 264.675L157.708 263.329C157.604 263.225 157.604 263.055 157.708 262.951C157.812 262.847 157.98 262.847 158.084 262.951L159.424 264.297C159.528 264.401 159.528 264.571 159.424 264.675C159.373 264.727 159.304 264.753 159.236 264.753Z" fill="#5800B5"/>
<path d="M161.338 264.753C161.269 264.753 161.201 264.727 161.149 264.675C161.045 264.571 161.045 264.401 161.149 264.297L162.489 262.951C162.593 262.847 162.762 262.847 162.866 262.951C162.97 263.055 162.97 263.225 162.866 263.329L161.526 264.675C161.474 264.727 161.406 264.753 161.338 264.753Z" fill="#5800B5"/>
<path d="M157.896 268.208C157.828 268.208 157.76 268.182 157.708 268.13C157.604 268.026 157.604 267.857 157.708 267.752L159.048 266.406C159.152 266.301 159.32 266.301 159.424 266.406C159.528 266.51 159.528 266.679 159.424 266.784L158.084 268.13C158.032 268.182 157.964 268.208 157.896 268.208Z" fill="#5800B5"/>
</g>
<path d="M39.4118 65.385C38.7248 64.8359 38.0904 64.3429 37.4737 63.8326C35.0254 61.8058 32.8633 59.5462 31.0243 57.0218C30.359 56.1079 29.7503 55.1612 29.1942 54.1872C28.3525 52.7131 27.7503 51.1373 27.2692 49.5151C27.0468 48.7654 26.7832 48.028 26.5623 47.2772C25.9239 45.1092 25.8981 42.8739 26.2023 40.6003C26.5877 37.7181 27.6647 35.0314 29.4114 32.5292C29.4489 32.4756 29.4844 32.4199 29.5242 32.3672C29.7609 32.0526 29.7824 32.0461 30.1499 32.1537C31.6694 32.5982 33.2277 32.922 34.8277 33.1004C37.8052 33.4327 40.7884 33.288 43.765 32.5148C45.34 32.1057 46.8067 31.4666 48.0976 30.4781C49.0424 29.7545 49.8084 28.9052 50.3092 27.8815C50.9638 26.5416 51.0556 25.2226 50.2654 23.9936C49.6668 23.0629 48.7347 22.4926 47.6209 22.1456C45.9171 21.6142 44.1403 21.5911 42.3288 21.873C40.3914 22.1744 38.5464 22.7753 36.7658 23.6231C33.8298 25.0208 31.4049 26.9731 29.3497 29.3491C28.9838 29.7723 28.9774 29.7941 28.454 29.6436C26.9679 29.2154 25.4837 28.7819 24.0083 28.3275C21.3854 27.5202 18.8225 26.5882 16.323 25.5307C15.7549 25.2901 15.1994 25.0273 14.6364 24.7774C14.4961 24.7151 14.3684 24.619 14.1332 24.6133C14.2705 24.8125 14.4336 24.9121 14.5841 25.0163C17.3772 26.9466 20.3366 28.6373 23.59 29.8999C24.759 30.3538 25.9455 30.7756 27.1272 31.2055C27.7257 31.4231 27.7312 31.4206 27.3709 31.9482C25.2629 35.0371 24.1752 38.3612 23.8865 41.8847C23.674 44.4755 24.018 46.9584 24.9082 49.344C25.558 51.0869 26.4025 52.7377 27.4043 54.3195C29.6353 57.8422 32.6438 60.7167 36.034 63.2781C36.9801 63.9929 37.9027 64.7379 39.0008 65.271C39.0986 65.3185 39.18 65.4035 39.4118 65.385ZM37.5163 25.3711C38.2183 25.0069 39.2575 24.6081 40.3255 24.2887C42.1015 23.7577 43.8939 23.4837 45.7065 23.7367C46.4232 23.8365 47.1037 24.028 47.6938 24.4016C48.5953 24.9723 48.8695 25.7796 48.5151 26.7829C48.2286 27.5937 47.6773 28.2477 46.9887 28.8171C46.0736 29.5738 45.016 30.0838 43.8754 30.4376C41.8234 31.074 39.729 31.2931 37.6237 31.3056C35.5321 31.3184 33.5045 31.0226 31.5298 30.5131C31.1058 30.4038 31.1019 30.3729 31.3993 30.0229C31.4095 30.0101 31.4214 29.9984 31.433 29.9857C33.084 28.1822 34.9822 26.656 37.5163 25.3711Z" fill="#C8BCEA"/>
<path d="M16.2687 32.9167L19.3234 25.4395L19.363 25.3435L19.437 25.2717L25.8217 19.0185L1.25577 16.495L16.2687 32.9167Z" fill="white" stroke="#652AC1"/>
<path d="M19.382 26.6715L23.0231 27.2007L20.7564 24.8126L6.14035 18.8905L19.382 26.6715Z" fill="#CECEF4" stroke="#652AC1"/>
<path d="M72.4121 46.2087V29.8132C72.4121 22.3747 78.4104 16.3441 85.8091 16.3441H156.326" stroke="#652EFF" stroke-width="1.072" stroke-miterlimit="10" stroke-dasharray="2 2"/>
<path d="M152.583 16.9661H230.743C235.595 16.9661 239.528 20.9204 239.528 25.7987V146.229C239.528 151.108 235.595 155.062 230.743 155.062H214.705" stroke="#652EFF" stroke-width="1.072" stroke-miterlimit="10" stroke-dasharray="2 2"/>
<path d="M50.1055 28.8369H91.0957C92.7048 28.8369 94.1226 29.3791 95.1426 30.5087C96.1668 31.6431 96.8427 33.4289 96.8428 36.0117V104.336C96.8427 106.92 96.1662 108.428 95.1807 109.304C94.1838 110.189 92.7698 110.519 91.0957 110.519H50.1055C48.4313 110.519 47.0164 110.189 46.0195 109.304C45.0342 108.428 44.3585 106.92 44.3584 104.336V36.0117C44.3584 33.4289 45.0353 31.6431 46.0596 30.5087C47.0796 29.3794 48.4969 28.8369 50.1055 28.8369Z" fill="white" stroke="#652EFF"/>
<path d="M57.1562 93.6846H83.7799" stroke="#D9CDFC" stroke-width="2" stroke-miterlimit="10" stroke-linecap="round"/>
<path d="M57.1562 98.3014H83.7799" stroke="#D9CDFC" stroke-width="2" stroke-miterlimit="10" stroke-linecap="round"/>
<path d="M70.043 102.919H83.7798" stroke="#D9CDFC" stroke-width="2" stroke-miterlimit="10" stroke-linecap="round"/>
<g opacity="0.45">
<path d="M129.946 234.453C130.903 234.453 131.678 233.674 131.678 232.712C131.678 231.75 130.903 230.97 129.946 230.97C128.989 230.97 128.214 231.75 128.214 232.712C128.214 233.674 128.989 234.453 129.946 234.453Z" fill="#652AC1"/>
<path d="M139.125 234.453C140.082 234.453 140.857 233.674 140.857 232.712C140.857 231.751 140.082 230.971 139.125 230.971C138.169 230.971 137.394 231.751 137.394 232.712C137.394 233.674 138.169 234.453 139.125 234.453Z" fill="#652AC1"/>
<path d="M148.304 234.454C149.261 234.454 150.037 233.674 150.037 232.712C150.037 231.75 149.261 230.971 148.304 230.971C147.348 230.971 146.572 231.75 146.572 232.712C146.572 233.674 147.348 234.454 148.304 234.454Z" fill="#652AC1"/>
<path d="M157.69 234.689C158.646 234.689 159.421 233.91 159.421 232.948C159.421 231.987 158.646 231.207 157.69 231.207C156.733 231.207 155.958 231.987 155.958 232.948C155.958 233.91 156.733 234.689 157.69 234.689Z" fill="#652AC1"/>
<path d="M166.869 234.69C167.826 234.69 168.601 233.91 168.601 232.948C168.601 231.986 167.826 231.207 166.869 231.207C165.912 231.207 165.137 231.986 165.137 232.948C165.137 233.91 165.912 234.69 166.869 234.69Z" fill="#652AC1"/>
<path d="M176.046 234.69C177.002 234.69 177.778 233.91 177.778 232.948C177.778 231.986 177.002 231.207 176.046 231.207C175.089 231.207 174.313 231.986 174.313 232.948C174.313 233.91 175.089 234.69 176.046 234.69Z" fill="#652AC1"/>
</g>
<g opacity="0.45">
<path d="M129.946 241.494C130.903 241.494 131.678 240.714 131.678 239.752C131.678 238.79 130.903 238.011 129.946 238.011C128.989 238.011 128.214 238.79 128.214 239.752C128.214 240.714 128.989 241.494 129.946 241.494Z" fill="#652AC1"/>
<path d="M139.125 241.493C140.082 241.493 140.857 240.714 140.857 239.752C140.857 238.791 140.082 238.011 139.125 238.011C138.169 238.011 137.394 238.791 137.394 239.752C137.394 240.714 138.169 241.493 139.125 241.493Z" fill="#652AC1"/>
<path d="M148.304 241.494C149.261 241.494 150.037 240.714 150.037 239.752C150.037 238.79 149.261 238.01 148.304 238.01C147.348 238.01 146.572 238.79 146.572 239.752C146.572 240.714 147.348 241.494 148.304 241.494Z" fill="#652AC1"/>
<path d="M157.69 241.729C158.646 241.729 159.421 240.95 159.421 239.988C159.421 239.027 158.646 238.247 157.69 238.247C156.733 238.247 155.958 239.027 155.958 239.988C155.958 240.95 156.733 241.729 157.69 241.729Z" fill="#652AC1"/>
<path d="M166.869 241.73C167.826 241.73 168.601 240.95 168.601 239.988C168.601 239.026 167.826 238.246 166.869 238.246C165.912 238.246 165.137 239.026 165.137 239.988C165.137 240.95 165.912 241.73 166.869 241.73Z" fill="#652AC1"/>
<path d="M176.046 241.73C177.002 241.73 177.778 240.95 177.778 239.988C177.778 239.026 177.002 238.246 176.046 238.246C175.089 238.246 174.313 239.026 174.313 239.988C174.313 240.95 175.089 241.73 176.046 241.73Z" fill="#652AC1"/>
</g>
<path d="M80.0303 43.0848C84.6559 43.085 88.4003 46.8539 88.4004 51.4979C88.4004 56.142 84.656 59.9108 80.0303 59.911H63.8711C59.2452 59.911 55.5 56.1421 55.5 51.4979C55.5001 46.8544 59.2453 43.0848 63.8711 43.0848H80.0303Z" fill="white" stroke="#652AC1"/>
<path d="M65.6396 56.3382H65.3497C62.691 56.3382 60.5361 54.1711 60.5361 51.4981C60.5361 48.8251 62.691 46.658 65.3497 46.658H65.6396C68.2983 46.658 70.4532 48.8251 70.4532 51.4981C70.4532 54.1717 68.2983 56.3382 65.6396 56.3382Z" fill="#652AC1"/>
<path d="M80.0293 67.7228C84.655 67.723 88.3993 71.4918 88.3994 76.1359C88.3994 80.78 84.655 84.5488 80.0293 84.549H63.8701C59.2443 84.549 55.499 80.7801 55.499 76.1359C55.4991 71.4917 59.2443 67.7228 63.8701 67.7228H80.0293Z" fill="white" stroke="#652AC1"/>
<path d="M78.5868 80.9755H78.297C75.6383 80.9755 73.4834 78.8084 73.4834 76.1359C73.4834 73.4629 75.6383 71.2958 78.297 71.2958H78.5868C81.2455 71.2958 83.4004 73.4629 83.4004 76.1359C83.4004 78.8089 81.2455 80.9755 78.5868 80.9755Z" fill="#652AC1"/>
<path d="M131.199 43.978H207.752C214.626 43.978 220.277 50.112 220.276 57.7778V203.6C220.276 211.266 214.626 217.399 207.752 217.399H131.199C124.325 217.399 118.675 211.266 118.675 203.6V57.7768C118.675 50.1112 124.325 43.9783 131.199 43.978Z" fill="white" stroke="#652EFF"/>
<path d="M204.293 157.813H135.486C129.02 157.813 123.779 159.87 123.779 162.407V209.258C123.779 211.795 129.021 213.852 135.486 213.852H204.293C210.759 213.852 216 211.795 216 209.258V162.407C216 159.87 210.759 157.813 204.293 157.813Z" fill="white"/>
<path d="M169.258 209.18C171.164 209.18 172.709 207.627 172.709 205.71C172.709 203.794 171.164 202.241 169.258 202.241C167.353 202.241 165.808 203.794 165.808 205.71C165.808 207.627 167.353 209.18 169.258 209.18Z" fill="#652AC1" fill-opacity="0.5"/>
<path d="M176.548 50.1178H162.404C161.867 50.1178 161.433 49.6805 161.433 49.1408C161.433 48.6011 161.868 48.1638 162.404 48.1638H176.548C177.085 48.1638 177.519 48.6011 177.519 49.1408C177.519 49.6805 177.085 50.1178 176.548 50.1178Z" fill="#652EFF"/>
<path opacity="0.5" d="M148.926 145.266C147.561 145.266 146.441 144.866 145.566 144.066C144.702 143.255 144.27 141.97 144.27 140.21V133.906H146.75V140.034C146.75 141.933 147.475 142.882 148.926 142.882C149.705 142.882 150.259 142.621 150.59 142.098C150.921 141.575 151.086 140.887 151.086 140.034V133.906H153.566V140.21C153.566 141.97 153.129 143.255 152.254 144.066C151.39 144.866 150.281 145.266 148.926 145.266ZM155.429 133.906H157.941V145.106H155.429V133.906ZM167.046 135.71H168.798L164.622 147.578H162.87L167.046 135.71ZM177.375 145.266C176.01 145.266 174.89 144.866 174.015 144.066C173.151 143.255 172.719 141.97 172.719 140.21V133.906H175.199V140.034C175.199 141.933 175.925 142.882 177.375 142.882C178.154 142.882 178.709 142.621 179.039 142.098C179.37 141.575 179.535 140.887 179.535 140.034V133.906H182.015V140.21C182.015 141.97 181.578 143.255 180.703 144.066C179.839 144.866 178.73 145.266 177.375 145.266ZM186.824 139.506L183.224 133.906H185.944L188.264 137.746H188.36L190.712 133.906H193.416L189.784 139.506L193.432 145.106H190.712L188.36 141.25H188.264L185.944 145.106H183.208L186.824 139.506Z" fill="#652AC1"/>
<path d="M180.601 93.2025C180.601 86.6749 175.308 81.3825 168.781 81.3825C162.252 81.3825 156.96 86.6749 156.96 93.2025C156.96 95.5541 157.655 97.7384 158.838 99.5791H158.83L163.987 109.44H173.136L178.73 99.5791H178.722C179.906 97.7384 180.601 95.5541 180.601 93.2025Z" stroke="#652EFF" stroke-width="2.144" stroke-miterlimit="10"/>
<path d="M172.873 112.278V113.652H164.058V112.278H172.873Z" fill="white" stroke="#652EFF"/>
<path d="M172.873 115.92V117.294H164.058V115.92H172.873Z" fill="white" stroke="#652EFF"/>
<path d="M172.873 119.874V121.248H164.058V119.874H172.873Z" fill="white" stroke="#652EFF"/>
<path d="M153.713 84.731L146.013 77.0295" stroke="#652EFF" stroke-width="2.144" stroke-miterlimit="10" stroke-linecap="round" stroke-linejoin="round"/>
<path d="M183.177 84.731L190.877 77.0295" stroke="#652EFF" stroke-width="2.144" stroke-miterlimit="10" stroke-linecap="round" stroke-linejoin="round"/>
<path d="M168.78 66.986V77.0296" stroke="#652EFF" stroke-width="2.144" stroke-miterlimit="10" stroke-linecap="round" stroke-linejoin="round"/>
<path d="M124.088 128.62C127.422 128.62 130.12 131.338 130.12 134.684V135.374C130.12 138.72 127.422 141.437 124.088 141.438H73.2109C69.8763 141.438 67.1777 138.72 67.1777 135.374V134.684C67.1777 131.337 69.8763 128.62 73.2109 128.62H124.088Z" fill="white" stroke="#652EFF"/>
<path d="M72.7227 135.094H123.499" stroke="#652EFF" stroke-width="2.144" stroke-miterlimit="10"/>
<path d="M119.256 134.446V134.678C119.256 136.804 117.532 138.527 115.406 138.527C113.281 138.527 111.557 136.804 111.557 134.678V134.446C111.557 132.32 113.281 130.597 115.406 130.597C117.532 130.597 119.256 132.32 119.256 134.446Z" fill="#652AC1"/>
<path d="M124.088 147.689C127.422 147.689 130.12 150.407 130.12 153.752V154.443C130.12 157.789 127.422 160.506 124.088 160.506H73.2109C69.8763 160.506 67.1777 157.789 67.1777 154.443V153.752C67.1777 150.406 69.8763 147.689 73.2109 147.689H124.088Z" fill="white" stroke="#652EFF"/>
<path d="M72.7227 154.098H123.499" stroke="#652EFF" stroke-width="2" stroke-miterlimit="10"/>
<path d="M82.4951 151.592C84.068 151.592 85.3438 152.867 85.3438 154.441V154.673C85.3437 156.246 84.068 157.521 82.4951 157.521L82.2031 157.507C80.7669 157.361 79.6456 156.148 79.6455 154.673V154.441L79.6602 154.149C79.7965 152.808 80.8627 151.743 82.2031 151.606L82.4951 151.592Z" fill="#652EFF" stroke="#652EFF" stroke-width="2"/>
<path d="M124.088 166.757C127.422 166.758 130.12 169.475 130.12 172.821V173.511C130.12 176.858 127.422 179.575 124.088 179.575H73.2109C69.8763 179.575 67.1777 176.858 67.1777 173.511V172.821C67.1777 169.475 69.8763 166.757 73.2109 166.757H124.088Z" fill="white" stroke="#652EFF"/>
<path d="M72.7227 173.101H123.499" stroke="#652EFF" stroke-width="2.144" stroke-miterlimit="10"/>
<path d="M106.914 173.444V173.675C106.914 175.801 105.191 177.524 103.065 177.524C100.939 177.524 99.2158 175.801 99.2158 173.675V173.444C99.2158 171.318 100.939 169.594 103.065 169.594C105.191 169.594 106.914 171.318 106.914 173.444Z" fill="#652AC1"/>
<path d="M54.8691 220.675H105.114C109.104 220.675 112.272 223.661 112.272 227.265V273.795C112.272 277.4 109.104 280.386 105.114 280.386H54.8691C50.8792 280.386 47.7112 277.399 47.7109 273.795V227.265C47.7111 223.774 50.684 220.862 54.4971 220.683L54.8691 220.675Z" fill="white" stroke="#652EFF"/>
<path d="M71.0869 245.994C74.3081 245.994 77.0709 247.927 78.3096 250.696C79.7203 249.381 81.6075 248.572 83.6865 248.572C87.1925 248.572 90.1537 250.863 91.1982 254.029C92.1033 253.664 93.0892 253.458 94.126 253.458C98.5038 253.458 102.049 257.024 102.049 261.419C102.049 265.815 98.5046 269.382 94.127 269.382H63.6641C59.2862 269.382 55.7413 265.815 55.7412 261.419C55.7412 257.187 59.0276 253.724 63.1797 253.472C63.4287 249.302 66.8709 245.994 71.0869 245.994Z" fill="white" stroke="#652EFF"/>
<path d="M77.9414 231.734V243.118" stroke="#8046F8" stroke-width="3.216" stroke-miterlimit="10" stroke-linecap="round" stroke-linejoin="round"/>
<path d="M81.9 236.331L77.941 231.734L73.9814 236.331" stroke="#8046F8" stroke-width="3.216" stroke-miterlimit="10" stroke-linecap="round" stroke-linejoin="round"/>
<path d="M93.1543 236.364V247.748" stroke="#8046F8" stroke-width="3.216" stroke-miterlimit="10" stroke-linecap="round" stroke-linejoin="round"/>
<path d="M97.1129 240.961L93.1539 236.364L89.1943 240.961" stroke="#8046F8" stroke-width="3.216" stroke-miterlimit="10" stroke-linecap="round" stroke-linejoin="round"/>
<path d="M60.3721 235.786V247.169" stroke="#8046F8" stroke-width="3.216" stroke-miterlimit="10" stroke-linecap="round" stroke-linejoin="round"/>
<path d="M64.3316 240.382L60.3727 235.786L56.4131 240.382" stroke="#8046F8" stroke-width="3.216" stroke-miterlimit="10" stroke-linecap="round" stroke-linejoin="round"/>
<path d="M199.965 183.782H199.533C195.559 183.782 192.339 180.544 192.339 176.55V176.55C192.339 172.555 195.559 169.317 199.533 169.317H199.965C203.939 169.317 207.159 172.555 207.159 176.55V176.55C207.159 180.545 203.939 183.782 199.965 183.782Z" fill="#E8E8E8"/>
<path d="M199.965 183.782H199.533C195.559 183.782 192.339 180.544 192.339 176.55V176.55C192.339 172.555 195.559 169.317 199.533 169.317H199.965C203.939 169.317 207.159 172.555 207.159 176.55V176.55C207.159 180.545 203.939 183.782 199.965 183.782Z" fill="#F7FBFE"/>
<path d="M199.965 183.782H199.533C195.559 183.782 192.339 180.544 192.339 176.55V176.55C192.339 172.555 195.559 169.317 199.533 169.317H199.965C203.939 169.317 207.159 172.555 207.159 176.55V176.55C207.159 180.545 203.939 183.782 199.965 183.782Z" fill="white" stroke="#652EFF" stroke-miterlimit="10"/>
<path d="M199.436 179.975C197.877 179.975 196.607 178.706 196.607 177.146C196.607 175.893 197.446 174.776 198.647 174.428L198.792 174.928C197.812 175.212 197.127 176.124 197.127 177.146C197.127 178.418 198.163 179.454 199.436 179.454C200.708 179.454 201.744 178.418 201.744 177.146C201.744 176.124 201.059 175.212 200.079 174.928L200.223 174.428C201.425 174.776 202.264 175.893 202.264 177.146C202.265 178.706 200.997 179.975 199.436 179.975Z" fill="#652AC1"/>
<path d="M199.692 172.862H199.171V175.931H199.692V172.862Z" fill="#652AC1"/>
<path d="M140.416 183.782H139.983C136.01 183.782 132.789 180.544 132.789 176.55V176.55C132.789 172.555 136.01 169.317 139.983 169.317H140.416C144.389 169.317 147.61 172.555 147.61 176.55V176.55C147.609 180.545 144.389 183.782 140.416 183.782Z" fill="#E8E8E8"/>
<path d="M140.416 183.782H139.983C136.01 183.782 132.789 180.544 132.789 176.55V176.55C132.789 172.555 136.01 169.317 139.983 169.317H140.416C144.389 169.317 147.61 172.555 147.61 176.55V176.55C147.609 180.545 144.389 183.782 140.416 183.782Z" fill="#F7FBFE"/>
<path d="M140.416 183.782H139.983C136.01 183.782 132.789 180.544 132.789 176.55V176.55C132.789 172.555 136.01 169.317 139.983 169.317H140.416C144.389 169.317 147.61 172.555 147.61 176.55V176.55C147.609 180.545 144.389 183.782 140.416 183.782Z" fill="white" stroke="#652EFF" stroke-miterlimit="10"/>
<path d="M140.313 180.214L140.655 180.215C142.567 180.135 144.062 178.577 144.062 176.661C144.062 174.746 142.567 173.188 140.655 173.107L140.316 173.106L140.313 173.108C138.423 173.208 136.945 174.766 136.945 176.661C136.945 178.557 138.423 180.114 140.313 180.214ZM138.164 178.962C138.39 178.799 138.634 178.657 138.892 178.544C139.136 179.055 139.477 179.507 139.905 179.889C139.247 179.767 138.636 179.443 138.164 178.962ZM140.365 179.912C139.844 179.521 139.425 179.014 139.147 178.442C139.537 178.299 139.947 178.218 140.365 178.199V179.912ZM140.365 177.923C139.909 177.942 139.461 178.031 139.036 178.188C138.874 177.784 138.779 177.357 138.753 176.916L140.365 176.915V177.923ZM140.365 176.64L138.744 176.641C138.746 176.188 138.821 175.747 138.965 175.325C139.412 175.5 139.882 175.6 140.365 175.621V176.64ZM141.054 179.897C141.502 179.5 141.854 179.029 142.101 178.494C142.378 178.607 142.641 178.749 142.884 178.919C142.394 179.437 141.752 179.779 141.054 179.897ZM143.066 178.711C142.8 178.522 142.512 178.364 142.208 178.241C142.371 177.819 142.467 177.374 142.492 176.915L143.776 176.914C143.726 177.574 143.481 178.193 143.066 178.711ZM143.169 174.748C143.569 175.302 143.782 175.955 143.786 176.639L142.501 176.639C142.498 176.171 142.422 175.71 142.275 175.27C142.592 175.133 142.893 174.957 143.169 174.748ZM142.999 174.531C142.745 174.723 142.47 174.884 142.18 175.012C141.935 174.409 141.547 173.865 141.055 173.426C141.812 173.554 142.495 173.941 142.999 174.531ZM140.641 173.441C141.214 173.881 141.656 174.457 141.924 175.113C141.511 175.26 141.08 175.34 140.641 175.349V173.441ZM140.641 175.625C141.112 175.616 141.574 175.531 142.018 175.372C142.153 175.78 142.223 176.206 142.224 176.639L140.641 176.64V175.625ZM140.641 176.915L142.217 176.914C142.191 177.339 142.102 177.753 141.95 178.144C141.528 178.004 141.089 177.928 140.641 177.919V176.915ZM140.641 178.195C141.051 178.204 141.455 178.272 141.842 178.398C141.571 178.974 141.158 179.484 140.641 179.882V178.195ZM140.365 173.412V175.346C139.916 175.325 139.479 175.232 139.064 175.068C139.34 174.416 139.788 173.846 140.365 173.412ZM139.905 173.434C139.431 173.858 139.056 174.381 138.811 174.958C138.541 174.829 138.285 174.67 138.048 174.484C138.537 173.935 139.189 173.567 139.905 173.434ZM137.874 174.698C138.134 174.902 138.415 175.077 138.711 175.216C138.552 175.671 138.471 176.151 138.469 176.642L137.22 176.643C137.224 175.934 137.45 175.264 137.874 174.698ZM137.23 176.917L138.477 176.916C138.504 177.393 138.606 177.855 138.782 178.291C138.497 178.417 138.227 178.573 137.979 178.756C137.541 178.23 137.282 177.596 137.23 176.917Z" fill="#652AC1"/>
<path d="M180.194 183.782H179.761C175.789 183.782 172.567 180.544 172.567 176.55V176.55C172.567 172.555 175.789 169.317 179.761 169.317H180.194C184.167 169.317 187.388 172.555 187.388 176.55V176.55C187.388 180.545 184.168 183.782 180.194 183.782Z" fill="#E8E8E8"/>
<path d="M180.194 183.782H179.761C175.789 183.782 172.567 180.544 172.567 176.55V176.55C172.567 172.555 175.789 169.317 179.761 169.317H180.194C184.167 169.317 187.388 172.555 187.388 176.55V176.55C187.388 180.545 184.168 183.782 180.194 183.782Z" fill="#F7FBFE"/>
<path d="M180.194 183.782H179.761C175.789 183.782 172.567 180.544 172.567 176.55V176.55C172.567 172.555 175.789 169.317 179.761 169.317H180.194C184.167 169.317 187.388 172.555 187.388 176.55V176.55C187.388 180.545 184.168 183.782 180.194 183.782Z" fill="white" stroke="#652EFF" stroke-miterlimit="10"/>
<path d="M182.215 180.229L180.023 179.01L177.831 180.229L178.249 177.648L176.477 175.821L178.927 175.444L180.024 173.097L181.119 175.444L183.57 175.821L181.797 177.648L182.215 180.229ZM177.19 176.067L178.606 177.526L178.272 179.587L180.024 178.615L181.774 179.587L181.44 177.526L182.856 176.067L180.899 175.766L180.024 173.891L179.148 175.766L177.19 176.067Z" fill="#652AC1"/>
<path d="M160.022 183.782H159.589C155.617 183.782 152.396 180.544 152.396 176.55V176.55C152.396 172.555 155.617 169.317 159.589 169.317H160.022C163.995 169.317 167.216 172.555 167.216 176.55V176.55C167.216 180.545 163.995 183.782 160.022 183.782Z" fill="#E8E8E8"/>
<path d="M160.022 183.782H159.589C155.617 183.782 152.396 180.544 152.396 176.55V176.55C152.396 172.555 155.617 169.317 159.589 169.317H160.022C163.995 169.317 167.216 172.555 167.216 176.55V176.55C167.216 180.545 163.995 183.782 160.022 183.782Z" fill="#F7FBFE"/>
<path d="M160.022 183.782H159.589C155.617 183.782 152.396 180.544 152.396 176.55V176.55C152.396 172.555 155.617 169.317 159.589 169.317H160.022C163.995 169.317 167.216 172.555 167.216 176.55V176.55C167.216 180.545 163.995 183.782 160.022 183.782Z" fill="white" stroke="#652EFF" stroke-miterlimit="10"/>
<path d="M158.794 179.091C158.718 179.091 158.646 179.06 158.591 179.008L156.282 176.698C156.17 176.586 156.17 176.404 156.282 176.292C156.395 176.18 156.576 176.18 156.688 176.292L158.794 178.398L162.986 174.207C163.098 174.094 163.279 174.094 163.391 174.207C163.503 174.319 163.503 174.499 163.391 174.612L158.997 179.007C158.944 179.06 158.871 179.091 158.794 179.091Z" fill="#652AC1"/>
<path d="M47.2084 255.211H38.8959C34.306 255.211 30.584 251.469 30.584 246.854V60.8548C30.584 56.2396 39.3731 52.4975 43.963 52.4975" stroke="#652EFF" stroke-width="1.072" stroke-miterlimit="10" stroke-dasharray="2 2"/>
<path d="M3.31836 123.331H56.293C57.2081 123.331 57.9559 124.078 57.9561 125.005V182.992C57.9561 183.919 57.2082 184.667 56.293 184.667H3.31836C2.40767 184.667 1.65625 183.915 1.65625 182.993V125.005C1.65635 124.136 2.31307 123.425 3.14941 123.34L3.31836 123.331Z" fill="white" stroke="#652EFF"/>
<path opacity="0.5" d="M9.63965 136.797H49.9726" stroke="#652EFF" stroke-width="2" stroke-miterlimit="10" stroke-linecap="round"/>
<path opacity="0.5" d="M9.63965 143.746H49.9726" stroke="#652EFF" stroke-width="2" stroke-miterlimit="10" stroke-linecap="round"/>
<path opacity="0.5" d="M9.63965 150.694H49.9726" stroke="#652EFF" stroke-width="2" stroke-miterlimit="10" stroke-linecap="round"/>
<path opacity="0.5" d="M9.63965 157.642H49.9726" stroke="#652EFF" stroke-width="2" stroke-miterlimit="10" stroke-linecap="round"/>
<path opacity="0.5" d="M9.63965 164.591H49.9726" stroke="#652EFF" stroke-width="2" stroke-miterlimit="10" stroke-linecap="round"/>
<path opacity="0.5" d="M9.63965 171.539H32.5976" stroke="#652EFF" stroke-width="2" stroke-miterlimit="10" stroke-linecap="round"/>
<path d="M202.866 206.729H230.449C235.993 206.729 240.493 211.249 240.493 216.829V243.132C240.493 248.713 235.993 253.232 230.449 253.232H202.866C197.322 253.232 192.822 248.713 192.822 243.132V216.829C192.822 211.249 197.321 206.729 202.866 206.729Z" fill="white" stroke="#652EFF"/>
<path d="M216.232 216.813H217.081C224.306 216.813 230.172 222.703 230.172 229.98C230.172 237.257 224.306 243.147 217.081 243.147H216.232C209.008 243.147 203.142 237.257 203.142 229.98C203.142 222.817 208.827 216.997 215.896 216.817L216.232 216.813Z" fill="#F7FBFE" stroke="#652EFF" stroke-width="2"/>
<path d="M217.081 244.147H216.233C208.451 244.147 202.142 237.804 202.142 229.98C202.142 222.156 208.451 215.813 216.233 215.813H217.081C224.863 215.813 231.172 222.156 231.172 229.98C231.172 237.804 224.863 244.147 217.081 244.147Z" stroke="#F4F4F4" stroke-width="1.1145" stroke-miterlimit="10"/>
<path d="M216.423 222.684H216.89C220.894 222.684 224.144 225.949 224.144 229.98L224.134 230.356C223.94 234.213 220.768 237.276 216.89 237.276H216.423C212.419 237.276 209.169 234.012 209.169 229.98C209.169 225.949 212.419 222.684 216.423 222.684Z" fill="#652EFF" stroke="#652EFF"/>
<path d="M229.393 260.446L234.729 263.543L229.393 266.64V260.446Z" fill="#652EFF"/>
<path d="M203.92 266.64L198.584 263.543L203.92 260.445V266.64Z" fill="#652EFF"/>
<path d="M215.464 261.364V265.722" stroke="#652EFF" stroke-width="1.072" stroke-miterlimit="10"/>
<path d="M217.93 261.364V265.722" stroke="#652EFF" stroke-width="1.072" stroke-miterlimit="10"/>
<path d="M218.368 140.948C224.471 140.948 229.423 145.922 229.423 152.064C229.423 158.206 224.471 163.181 218.368 163.181C212.266 163.18 207.314 158.206 207.314 152.064C207.314 145.923 212.266 140.948 218.368 140.948Z" fill="white" stroke="#652EFF"/>
<path d="M218.585 159.606C222.68 159.606 226 156.286 226 152.191C226 148.096 222.68 144.777 218.585 144.777C214.49 144.777 211.171 148.096 211.171 152.191C211.171 156.286 214.49 159.606 218.585 159.606Z" fill="#652EFF"/>
<path d="M159.76 5.48188C165.862 5.48188 170.814 10.4562 170.814 16.5981C170.814 22.74 165.862 27.7143 159.76 27.7143C153.657 27.7142 148.706 22.7399 148.706 16.5981C148.706 10.4563 153.657 5.48202 159.76 5.48188Z" fill="white" stroke="#652EFF"/>
<path d="M159.627 23.9752C163.484 23.9752 166.61 20.8489 166.61 16.9924C166.61 13.136 163.484 10.0096 159.627 10.0096C155.771 10.0096 152.645 13.136 152.645 16.9924C152.645 20.8489 155.771 23.9752 159.627 23.9752Z" fill="#652EFF"/>
<path opacity="0.45" d="M11.8557 118.711C11.6752 118.711 11.5086 118.611 11.4228 118.452L9.6304 115.136L6.34128 113.316C6.18353 113.229 6.08594 113.062 6.08594 112.881C6.08594 112.699 6.18552 112.533 6.34327 112.446L9.64321 110.644L11.4534 107.338C11.5402 107.179 11.7058 107.081 11.8852 107.081H11.8862C12.0666 107.081 12.2323 107.181 12.3181 107.34L14.1105 110.657L17.3996 112.477C17.5573 112.564 17.655 112.731 17.655 112.912C17.655 113.094 17.5554 113.26 17.3976 113.347L14.0977 115.15L12.2875 118.456C12.2007 118.613 12.0351 118.711 11.8557 118.711ZM7.60527 112.884L10.2318 114.337C10.3137 114.382 10.3817 114.451 10.427 114.534L11.8586 117.182L13.304 114.541C13.3494 114.459 13.4174 114.39 13.5002 114.345L16.1346 112.905L13.5081 111.452C13.4263 111.407 13.3582 111.338 13.3129 111.255L11.8813 108.606L10.4359 111.247C10.3905 111.329 10.3225 111.398 10.2397 111.443L7.60527 112.884Z" fill="#8066FD"/>
<path d="M237.229 198.197C237.047 198.197 236.882 198.097 236.797 197.937L234.105 192.957L229.165 190.224C229.007 190.136 228.909 189.969 228.909 189.789C228.909 189.607 229.009 189.441 229.167 189.355L234.121 186.649L236.84 181.682C236.928 181.524 237.092 181.425 237.272 181.425C237.453 181.426 237.62 181.525 237.705 181.685L240.395 186.665L245.336 189.398C245.494 189.487 245.592 189.653 245.591 189.834C245.59 190.016 245.492 190.183 245.333 190.268L240.38 192.973L237.661 197.94C237.575 198.099 237.409 198.197 237.229 198.197ZM230.428 189.793L234.705 192.159C234.788 192.206 234.855 192.273 234.901 192.357L237.231 196.669L239.585 192.369C239.631 192.286 239.699 192.219 239.782 192.173L244.071 189.831L239.794 187.463C239.711 187.417 239.644 187.349 239.599 187.265L237.269 182.953L234.915 187.253C234.868 187.337 234.8 187.404 234.717 187.45L230.428 189.793Z" fill="url(#paint0_linear_71_250)"/>
<g opacity="0.45">
<path d="M233.218 164.862C232.946 164.862 232.725 164.64 232.725 164.366V161.104C232.725 160.831 232.946 160.608 233.218 160.608C233.49 160.608 233.711 160.831 233.711 161.104V164.366C233.711 164.64 233.49 164.862 233.218 164.862Z" fill="#775BFC"/>
<path d="M233.218 173.239C232.946 173.239 232.725 173.017 232.725 172.743V169.481C232.725 169.208 232.946 168.986 233.218 168.986C233.49 168.986 233.711 169.208 233.711 169.481V172.743C233.711 173.017 233.49 173.239 233.218 173.239Z" fill="#775BFC"/>
<path d="M239.005 167.42H235.762C235.489 167.42 235.269 167.198 235.269 166.924C235.269 166.65 235.489 166.428 235.762 166.428H239.005C239.277 166.428 239.498 166.65 239.498 166.924C239.498 167.198 239.277 167.42 239.005 167.42Z" fill="#775BFC"/>
<path d="M230.673 167.42H227.429C227.157 167.42 226.937 167.198 226.937 166.924C226.937 166.65 227.157 166.428 227.429 166.428H230.673C230.945 166.428 231.166 166.65 231.166 166.924C231.166 167.198 230.945 167.42 230.673 167.42Z" fill="#775BFC"/>
<path d="M229.125 171.535C228.999 171.535 228.873 171.486 228.776 171.39C228.584 171.197 228.584 170.883 228.776 170.689L231.069 168.383C231.262 168.19 231.574 168.19 231.766 168.383C231.959 168.576 231.959 168.89 231.766 169.084L229.473 171.39C229.377 171.486 229.251 171.535 229.125 171.535Z" fill="#775BFC"/>
<path d="M235.017 165.61C234.89 165.61 234.764 165.562 234.668 165.466C234.475 165.272 234.475 164.958 234.668 164.765L236.962 162.458C237.154 162.265 237.467 162.265 237.659 162.458C237.851 162.651 237.851 162.966 237.659 163.159L235.365 165.466C235.269 165.563 235.143 165.61 235.017 165.61Z" fill="#775BFC"/>
<path d="M231.419 165.61C231.293 165.61 231.167 165.562 231.07 165.466L228.777 163.159C228.585 162.966 228.585 162.651 228.777 162.458C228.969 162.265 229.282 162.265 229.474 162.458L231.767 164.765C231.96 164.958 231.96 165.272 231.767 165.466C231.671 165.563 231.546 165.61 231.419 165.61Z" fill="#775BFC"/>
<path d="M237.311 171.535C237.185 171.535 237.059 171.486 236.962 171.39L234.668 169.084C234.475 168.89 234.475 168.576 234.668 168.383C234.86 168.19 235.172 168.19 235.365 168.383L237.659 170.689C237.851 170.883 237.851 171.197 237.659 171.39C237.563 171.486 237.437 171.535 237.311 171.535Z" fill="#775BFC"/>
</g>
<g opacity="0.45">
<path d="M131.666 258.04C131.394 258.04 131.173 257.818 131.173 257.544V254.282C131.173 254.008 131.394 253.786 131.666 253.786C131.938 253.786 132.159 254.008 132.159 254.282V257.544C132.159 257.818 131.939 258.04 131.666 258.04Z" fill="#775BFC"/>
<path d="M131.666 266.417C131.394 266.417 131.173 266.195 131.173 265.921V262.659C131.173 262.385 131.394 262.163 131.666 262.163C131.938 262.163 132.159 262.385 132.159 262.659V265.921C132.159 266.196 131.939 266.417 131.666 266.417Z" fill="#775BFC"/>
<path d="M137.454 260.598H134.209C133.937 260.598 133.716 260.375 133.716 260.102C133.716 259.828 133.937 259.606 134.209 259.606H137.454C137.726 259.606 137.946 259.828 137.946 260.102C137.946 260.375 137.727 260.598 137.454 260.598Z" fill="#775BFC"/>
<path d="M129.121 260.598H125.877C125.605 260.598 125.384 260.375 125.384 260.102C125.384 259.828 125.605 259.606 125.877 259.606H129.121C129.394 259.606 129.614 259.828 129.614 260.102C129.614 260.375 129.395 260.598 129.121 260.598Z" fill="#775BFC"/>
<path d="M127.573 264.712C127.447 264.712 127.321 264.663 127.224 264.567C127.032 264.374 127.032 264.06 127.224 263.866L129.519 261.56C129.711 261.366 130.023 261.366 130.216 261.56C130.408 261.753 130.408 262.067 130.216 262.26L127.921 264.567C127.826 264.664 127.699 264.712 127.573 264.712Z" fill="#775BFC"/>
<path d="M133.465 258.789C133.339 258.789 133.212 258.74 133.116 258.644C132.924 258.451 132.924 258.137 133.116 257.943L135.41 255.637C135.602 255.444 135.915 255.444 136.107 255.637C136.299 255.83 136.299 256.144 136.107 256.338L133.813 258.644C133.717 258.74 133.591 258.789 133.465 258.789Z" fill="#775BFC"/>
<path d="M129.868 258.789C129.741 258.789 129.615 258.74 129.519 258.644L127.224 256.338C127.032 256.144 127.032 255.83 127.224 255.637C127.417 255.444 127.729 255.444 127.921 255.637L130.216 257.943C130.408 258.137 130.408 258.451 130.216 258.644C130.12 258.74 129.994 258.789 129.868 258.789Z" fill="#775BFC"/>
<path d="M135.759 264.712C135.633 264.712 135.507 264.663 135.41 264.567L133.116 262.26C132.924 262.067 132.924 261.753 133.116 261.56C133.308 261.366 133.621 261.366 133.813 261.56L136.107 263.866C136.299 264.06 136.299 264.374 136.107 264.567C136.012 264.664 135.885 264.712 135.759 264.712Z" fill="#775BFC"/>
</g>
<g opacity="0.45">
<path d="M251.85 153.029C251.577 153.029 251.356 152.807 251.356 152.534V148.218C251.356 147.944 251.577 147.722 251.85 147.722C252.122 147.722 252.343 147.944 252.343 148.218V152.534C252.343 152.807 252.122 153.029 251.85 153.029Z" fill="#775BFC"/>
<path d="M251.85 164.115C251.577 164.115 251.356 163.892 251.356 163.619V159.302C251.356 159.028 251.577 158.806 251.85 158.806C252.122 158.806 252.343 159.028 252.343 159.302V163.619C252.343 163.892 252.122 164.115 251.85 164.115Z" fill="#775BFC"/>
<path d="M259.508 156.414H255.216C254.944 156.414 254.723 156.192 254.723 155.918C254.723 155.644 254.944 155.422 255.216 155.422H259.508C259.781 155.422 260.001 155.644 260.001 155.918C260.001 156.192 259.781 156.414 259.508 156.414Z" fill="#775BFC"/>
<path d="M248.483 156.414H244.19C243.918 156.414 243.697 156.192 243.697 155.918C243.697 155.644 243.918 155.422 244.19 155.422H248.483C248.755 155.422 248.976 155.644 248.976 155.918C248.976 156.192 248.755 156.414 248.483 156.414Z" fill="#775BFC"/>
<path d="M246.434 161.858C246.307 161.858 246.181 161.81 246.085 161.714C245.892 161.52 245.892 161.206 246.085 161.013L249.12 157.961C249.313 157.768 249.625 157.768 249.817 157.961C250.01 158.154 250.01 158.468 249.817 158.662L246.782 161.714C246.686 161.81 246.56 161.858 246.434 161.858Z" fill="#775BFC"/>
<path d="M254.23 154.021C254.103 154.021 253.977 153.972 253.881 153.876C253.688 153.683 253.688 153.368 253.881 153.175L256.916 150.123C257.109 149.93 257.421 149.93 257.613 150.123C257.806 150.316 257.806 150.631 257.613 150.824L254.578 153.876C254.482 153.972 254.356 154.021 254.23 154.021Z" fill="#775BFC"/>
<path d="M249.469 154.021C249.343 154.021 249.217 153.972 249.12 153.876L246.085 150.824C245.892 150.631 245.892 150.316 246.085 150.123C246.277 149.93 246.589 149.93 246.782 150.123L249.817 153.175C250.01 153.368 250.01 153.683 249.817 153.876C249.722 153.972 249.596 154.021 249.469 154.021Z" fill="#775BFC"/>
<path d="M257.265 161.858C257.139 161.858 257.013 161.81 256.916 161.714L253.881 158.662C253.688 158.468 253.688 158.154 253.881 157.961C254.073 157.768 254.385 157.768 254.578 157.961L257.613 161.013C257.806 161.206 257.806 161.52 257.613 161.714C257.518 161.81 257.391 161.858 257.265 161.858Z" fill="#775BFC"/>
</g>
<g opacity="0.45">
<path d="M140.439 28.1316C140.166 28.1316 139.945 27.9095 139.945 27.636V23.32C139.945 23.0465 140.166 22.8244 140.439 22.8244C140.711 22.8244 140.932 23.0465 140.932 23.32V27.636C140.932 27.9095 140.711 28.1316 140.439 28.1316Z" fill="#775BFC"/>
<path d="M140.439 39.2168C140.166 39.2168 139.945 38.9947 139.945 38.7211V34.4052C139.945 34.1316 140.166 33.9096 140.439 33.9096C140.711 33.9096 140.932 34.1316 140.932 34.4052V38.7211C140.932 38.9947 140.711 39.2168 140.439 39.2168Z" fill="#775BFC"/>
<path d="M137.072 31.5172H132.779C132.507 31.5172 132.286 31.295 132.286 31.0213C132.286 30.7476 132.507 30.5255 132.779 30.5255H137.072C137.344 30.5255 137.565 30.7476 137.565 31.0213C137.565 31.295 137.344 31.5172 137.072 31.5172Z" fill="#775BFC"/>
<path d="M148.096 31.5172H143.804C143.531 31.5172 143.311 31.295 143.311 31.0213C143.311 30.7476 143.531 30.5255 143.804 30.5255H148.096C148.368 30.5255 148.589 30.7476 148.589 31.0213C148.589 31.295 148.368 31.5172 148.096 31.5172Z" fill="#775BFC"/>
<path d="M145.854 36.9616C145.728 36.9616 145.602 36.9131 145.505 36.8169L142.469 33.7649C142.277 33.5716 142.277 33.2573 142.469 33.0641C142.662 32.8708 142.974 32.8708 143.166 33.0641L146.202 36.1161C146.394 36.3094 146.394 36.6236 146.202 36.8169C146.107 36.9131 145.98 36.9616 145.854 36.9616Z" fill="#775BFC"/>
<path d="M138.057 29.1228C137.931 29.1228 137.805 29.0742 137.708 28.9781L134.673 25.926C134.48 25.7327 134.48 25.4185 134.673 25.2252C134.865 25.0319 135.177 25.0319 135.37 25.2252L138.405 28.2773C138.598 28.4706 138.598 28.7848 138.405 28.9781C138.309 29.0742 138.183 29.1228 138.057 29.1228Z" fill="#775BFC"/>
<path d="M142.818 29.1228C142.692 29.1228 142.566 29.0742 142.469 28.9781C142.277 28.7848 142.277 28.4706 142.469 28.2773L145.505 25.2252C145.697 25.0319 146.01 25.0319 146.202 25.2252C146.394 25.4185 146.394 25.7327 146.202 25.926L143.166 28.9781C143.071 29.0742 142.945 29.1228 142.818 29.1228Z" fill="#775BFC"/>
<path d="M135.021 36.9616C134.894 36.9616 134.768 36.9131 134.672 36.8169C134.479 36.6236 134.479 36.3094 134.672 36.1161L137.707 33.0641C137.9 32.8708 138.212 32.8708 138.404 33.0641C138.597 33.2573 138.597 33.5716 138.404 33.7649L135.369 36.8169C135.273 36.9131 135.147 36.9616 135.021 36.9616Z" fill="#775BFC"/>
</g>
<path d="M246.73 84.5147H246.367C245.296 84.5147 244.761 83.2143 245.517 82.4538L245.774 82.1953C246.244 81.7237 246.244 80.9585 245.774 80.4869L244.805 79.5122C244.336 79.0406 243.576 79.0406 243.106 79.5122L242.849 79.7716C242.092 80.5312 240.799 79.9931 240.799 78.9169V78.5514C240.799 77.8841 240.261 77.3433 239.598 77.3433H238.227C237.564 77.3433 237.026 77.8841 237.026 78.5514V78.9169C237.026 79.9931 235.732 80.5312 234.976 79.7716L234.719 79.5122C234.25 79.0406 233.489 79.0406 233.019 79.5122L232.051 80.4869C231.581 80.9585 231.581 81.7237 232.051 82.1953L232.308 82.4538C233.064 83.2143 232.528 84.5147 231.459 84.5147H231.094C230.432 84.5147 229.894 85.0556 229.894 85.7229V87.1C229.894 87.7673 230.432 88.3082 231.094 88.3082H231.459C232.528 88.3082 233.064 89.6086 232.308 90.3692L232.051 90.6276C231.581 91.0992 231.581 91.8644 232.051 92.336L233.019 93.3107C233.489 93.7823 234.25 93.7823 234.719 93.3107L234.976 93.0522C235.732 92.2917 237.026 92.8298 237.026 93.906V94.2715C237.026 94.9388 237.564 95.4796 238.227 95.4796H239.598C240.261 95.4796 240.799 94.9388 240.799 94.2715V93.906C240.799 92.8298 242.092 92.2917 242.849 93.0522L243.106 93.3107C243.576 93.7823 244.336 93.7823 244.805 93.3107L245.774 92.336C246.244 91.8644 246.244 91.0992 245.774 90.6276L245.517 90.3692C244.761 89.6086 245.297 88.3082 246.367 88.3082H246.73C247.394 88.3082 247.932 87.7673 247.932 87.1V85.7229C247.931 85.0556 247.394 84.5147 246.73 84.5147ZM238.912 89.6409C237.138 89.6409 235.7 88.1956 235.7 86.4115C235.7 84.6274 237.138 83.182 238.912 83.182C240.687 83.182 242.125 84.6274 242.125 86.4115C242.125 88.1956 240.687 89.6409 238.912 89.6409Z" fill="#642CFF"/>
<g opacity="0.45">
<path d="M30.9445 249.57C30.7989 249.57 30.6807 249.451 30.6807 249.305V247.112C30.6807 246.966 30.7989 246.847 30.9445 246.847C31.0901 246.847 31.2083 246.966 31.2083 247.112V249.305C31.2083 249.451 31.0901 249.57 30.9445 249.57Z" fill="#5800B5"/>
<path d="M30.9445 255.2C30.7989 255.2 30.6807 255.082 30.6807 254.935V252.743C30.6807 252.597 30.7989 252.478 30.9445 252.478C31.0901 252.478 31.2083 252.597 31.2083 252.743V254.935C31.2083 255.082 31.0901 255.2 30.9445 255.2Z" fill="#5800B5"/>
<path d="M29.2345 251.288H27.0537C26.9081 251.288 26.79 251.169 26.79 251.023C26.79 250.877 26.9081 250.758 27.0537 250.758H29.2345C29.38 250.758 29.4981 250.877 29.4981 251.023C29.4981 251.169 29.38 251.288 29.2345 251.288Z" fill="#5800B5"/>
<path d="M34.8356 251.288H32.6543C32.5087 251.288 32.3906 251.17 32.3906 251.023C32.3906 250.877 32.5087 250.759 32.6543 250.759H34.8356C34.9811 250.759 35.0993 250.877 35.0993 251.023C35.0993 251.17 34.9811 251.288 34.8356 251.288Z" fill="#5800B5"/>
<path d="M33.6947 254.056C33.6272 254.056 33.5597 254.03 33.5081 253.978L31.9658 252.427C31.863 252.323 31.863 252.155 31.9658 252.052C32.0686 251.948 32.2358 251.948 32.3386 252.052L33.8809 253.603C33.9837 253.707 33.9837 253.875 33.8809 253.978C33.8292 254.03 33.7617 254.056 33.6947 254.056Z" fill="#5800B5"/>
<path d="M29.7348 250.074C29.6673 250.074 29.5998 250.048 29.5481 249.996L28.0058 248.445C27.903 248.342 27.903 248.173 28.0058 248.07C28.1086 247.967 28.2758 247.967 28.3786 248.07L29.9209 249.621C30.0237 249.725 30.0237 249.893 29.9209 249.996C29.8698 250.048 29.8023 250.074 29.7348 250.074Z" fill="#5800B5"/>
<path d="M32.1524 250.074C32.085 250.074 32.0175 250.048 31.9658 249.996C31.863 249.893 31.863 249.725 31.9658 249.621L33.5081 248.07C33.6109 247.967 33.778 247.967 33.8809 248.07C33.9837 248.173 33.9837 248.342 33.8809 248.445L32.3386 249.996C32.2874 250.048 32.2199 250.074 32.1524 250.074Z" fill="#5800B5"/>
<path d="M28.1925 254.056C28.125 254.056 28.0575 254.03 28.0058 253.978C27.903 253.875 27.903 253.707 28.0058 253.603L29.5481 252.052C29.6509 251.948 29.8181 251.948 29.9209 252.052C30.0237 252.155 30.0237 252.323 29.9209 252.427L28.3786 253.978C28.3275 254.03 28.26 254.056 28.1925 254.056Z" fill="#5800B5"/>
</g>
<path opacity="0.45" d="M199.197 18.7827C199.226 18.5992 199.299 18.4247 199.412 18.2709C199.599 18.0163 199.873 17.8502 200.184 17.803L202.88 17.3944C202.95 15.9084 203.304 14.4745 203.933 13.1275L201.738 11.4997C201.215 11.1122 201.104 10.3696 201.49 9.84361L202.747 8.13081C202.933 7.87649 203.208 7.71 203.519 7.66281C203.83 7.61562 204.141 7.69301 204.394 7.88094L206.588 9.50868C207.683 8.50777 208.941 7.74496 210.333 7.23877L209.926 4.52845C209.879 4.21564 209.956 3.90273 210.142 3.64847C210.329 3.39383 210.604 3.22773 210.915 3.18054L213.008 2.86291C213.65 2.7656 214.252 3.21169 214.349 3.85726L214.755 6.5672C216.233 6.63815 217.659 6.99357 219 7.6253L220.618 5.41962C221.004 4.89431 221.743 4.78198 222.266 5.16981L223.969 6.43331C224.492 6.82114 224.603 7.56447 224.218 8.08939L222.599 10.2955C223.594 11.3959 224.353 12.6611 224.857 14.0602L227.552 13.6512C227.864 13.604 228.174 13.6814 228.428 13.8693C228.68 14.0571 228.846 14.3327 228.893 14.6455L229.209 16.7503C229.256 17.0624 229.18 17.3757 228.992 17.6302C228.805 17.8849 228.531 18.051 228.22 18.0982L225.524 18.5072C225.453 19.9934 225.1 21.4269 224.472 22.7737L226.666 24.4014C227.189 24.7897 227.3 25.533 226.914 26.0579L225.657 27.7707C225.471 28.025 225.196 28.1915 224.885 28.2387C224.574 28.286 224.264 28.2086 224.01 28.0206L221.816 26.3929C220.721 27.3941 219.462 28.1568 218.072 28.6628L218.478 31.3731C218.526 31.6856 218.449 31.9984 218.262 32.2531C218.075 32.5077 217.801 32.6738 217.489 32.721L215.396 33.0386C214.754 33.1359 214.152 32.6898 214.056 32.0443L213.649 29.3343C212.171 29.2634 210.745 28.908 209.405 28.2762L207.786 30.4819C207.401 31.0073 206.661 31.1196 206.138 30.7321L204.435 29.4687C203.913 29.0808 203.8 28.3381 204.187 27.8121L205.805 25.606C204.81 24.5061 204.052 23.2408 203.547 21.8413L200.852 22.2504C200.21 22.3477 199.608 21.9016 199.512 21.2561L199.196 19.1517C199.177 19.0271 199.177 18.9029 199.197 18.7827ZM203.255 17.5924C203.241 17.6738 203.177 17.7391 203.094 17.7521L200.242 18.1847C200.032 18.2164 199.847 18.3287 199.721 18.5003C199.595 18.6724 199.543 18.8831 199.574 19.094L199.89 21.1984C199.956 21.6338 200.362 21.935 200.794 21.869L203.646 21.4363C203.737 21.4223 203.826 21.4762 203.856 21.564C204.359 23.0226 205.145 24.3338 206.193 25.4608C206.256 25.5285 206.263 25.6328 206.207 25.7069L204.494 28.041C204.235 28.3951 204.31 28.8965 204.662 29.1581L206.366 30.4215C206.718 30.6827 207.217 30.6072 207.477 30.2528L209.19 27.9191C209.244 27.8444 209.344 27.8194 209.428 27.8604C210.809 28.5347 212.287 28.9034 213.821 28.9554C213.913 28.9587 213.99 29.0276 214.004 29.1193L214.434 31.9866C214.5 32.422 214.906 32.7232 215.338 32.6572L217.431 32.3396C217.641 32.3079 217.827 32.1956 217.953 32.0239C218.078 31.8523 218.13 31.6415 218.099 31.4306L217.669 28.5632C217.654 28.4718 217.708 28.3825 217.795 28.3522C219.245 27.8474 220.55 27.057 221.671 26.0028C221.739 25.9392 221.842 25.9333 221.916 25.9885L224.237 27.7104C224.408 27.8372 224.618 27.8895 224.828 27.8573C225.037 27.8252 225.222 27.7133 225.348 27.5417L226.605 25.8289C226.864 25.4747 226.79 24.9734 226.438 24.7118L224.116 22.9898C224.042 22.9347 224.016 22.8348 224.058 22.7505C224.728 21.3622 225.095 19.8758 225.147 18.3341C225.148 18.2413 225.219 18.1641 225.31 18.1498L228.162 17.7171C228.372 17.6854 228.557 17.5731 228.683 17.4015C228.809 17.2298 228.86 17.0191 228.83 16.8082L228.514 14.7034C228.482 14.4927 228.37 14.3065 228.2 14.1801C228.029 14.0534 227.819 14.0011 227.61 14.0333L224.758 14.4659C224.667 14.4799 224.578 14.426 224.548 14.3382C224.045 12.88 223.259 11.5688 222.211 10.4414C222.147 10.374 222.14 10.2705 222.197 10.1953L223.909 7.86124C224.168 7.50741 224.094 7.00573 223.742 6.74421L222.038 5.48071C221.686 5.21913 221.187 5.29463 220.927 5.64903L219.214 7.9827C219.16 8.05741 219.059 8.08241 218.976 8.04146C217.595 7.36717 216.117 6.99851 214.583 6.94649C214.491 6.94311 214.414 6.87425 214.4 6.78257L213.97 3.91524C213.904 3.47984 213.498 3.17865 213.065 3.24464L210.972 3.56227C210.762 3.59398 210.577 3.70629 210.451 3.87789C210.325 4.04988 210.273 4.261 210.305 4.47122L210.735 7.33862C210.749 7.43036 210.696 7.51933 210.609 7.54959C209.158 8.05475 207.854 8.84513 206.733 9.89914C206.665 9.96274 206.563 9.9686 206.488 9.91342L204.166 8.1914C203.996 8.06465 203.786 8.01241 203.576 8.04449C203.367 8.07625 203.181 8.18856 203.055 8.36017L201.799 10.073C201.539 10.4275 201.614 10.9284 201.966 11.19L204.288 12.912C204.362 12.9671 204.387 13.0673 204.346 13.1513C203.676 14.5392 203.309 16.0256 203.257 17.5681C203.257 17.5759 203.256 17.584 203.255 17.5924ZM208.364 16.9861C208.51 16.084 208.865 15.2033 209.44 14.4187C211.377 11.7791 215.09 11.216 217.715 13.1635C220.34 15.111 220.901 18.8432 218.964 21.4827C217.026 24.1223 213.314 24.6855 210.689 22.738C208.844 21.3693 208.019 19.1191 208.364 16.9861ZM209.749 14.6473C207.938 17.1161 208.462 20.6066 210.917 22.4275C213.372 24.2483 216.844 23.7221 218.656 21.2534C220.466 18.7853 219.943 15.2949 217.488 13.4733C215.032 11.6528 211.561 12.1795 209.749 14.6473Z" fill="#5800B5"/>
<path opacity="0.45" d="M4.10866 200.818C4.12449 200.72 4.1632 200.627 4.22355 200.545C4.32329 200.409 4.46973 200.32 4.63576 200.295L6.07429 200.077C6.11175 199.284 6.30043 198.519 6.63591 197.8L5.46502 196.931C5.18596 196.724 5.12627 196.328 5.33259 196.048L6.00322 195.134C6.10273 194.998 6.2492 194.909 6.41523 194.884C6.58126 194.859 6.74711 194.9 6.88227 195L8.05315 195.869C8.63724 195.335 9.30861 194.928 10.0511 194.658L9.83408 193.211C9.80904 193.044 9.84994 192.877 9.94966 192.742C10.0494 192.606 10.1958 192.517 10.3619 192.492L11.4788 192.322C11.8217 192.27 12.1428 192.509 12.1942 192.853L12.4113 194.299C13.2001 194.337 13.9609 194.527 14.6761 194.864L15.5399 193.687C15.7457 193.406 16.1403 193.346 16.4191 193.553L17.3282 194.228C17.607 194.435 17.6665 194.831 17.4606 195.111L16.5971 196.289C17.1281 196.876 17.5328 197.551 17.8019 198.298L19.2402 198.079C19.4063 198.054 19.5721 198.095 19.7073 198.196C19.8422 198.296 19.9306 198.443 19.9557 198.61L20.1242 199.733C20.1495 199.9 20.1086 200.067 20.0087 200.203C19.9089 200.339 19.7625 200.427 19.5964 200.452L18.1581 200.671C18.12 201.464 17.9315 202.229 17.5963 202.947L18.7672 203.816C19.0462 204.023 19.1056 204.42 18.8996 204.7L18.2289 205.614C18.1294 205.75 17.983 205.839 17.8169 205.864C17.6511 205.889 17.4853 205.848 17.3499 205.747L16.1792 204.879C15.5949 205.413 14.9231 205.82 14.181 206.09L14.3981 207.536C14.4234 207.703 14.3823 207.87 14.2825 208.006C14.1828 208.142 14.0363 208.231 13.8703 208.256L12.7534 208.425C12.4105 208.477 12.0894 208.239 12.0379 207.895L11.8208 206.448C11.0323 206.411 10.2713 206.221 9.55604 205.884L8.69231 207.061C8.48666 207.341 8.09208 207.401 7.81303 207.194L6.90412 206.52C6.6253 206.313 6.56541 205.917 6.77153 205.636L7.63509 204.459C7.1042 203.872 6.69935 203.197 6.43031 202.45L4.99214 202.668C4.64925 202.72 4.32818 202.482 4.2767 202.138L4.10811 201.015C4.09793 200.948 4.09827 200.882 4.10866 200.818ZM6.27411 200.183C6.26708 200.226 6.23263 200.261 6.18837 200.268L4.66646 200.499C4.55444 200.516 4.45558 200.575 4.3883 200.667C4.32119 200.759 4.29346 200.871 4.31009 200.984L4.47868 202.107C4.51368 202.339 4.7303 202.5 4.9612 202.465L6.4829 202.234C6.53159 202.226 6.57878 202.255 6.59505 202.302C6.86334 203.08 7.28289 203.78 7.84213 204.381C7.87549 204.418 7.87934 204.473 7.84971 204.513L6.93571 205.758C6.7973 205.947 6.83718 206.215 7.02529 206.354L7.9342 207.029C8.12233 207.168 8.38848 207.128 8.52732 206.939L9.44129 205.693C9.47034 205.653 9.52373 205.64 9.5683 205.662C10.3053 206.022 11.0941 206.218 11.9126 206.246C11.9619 206.248 12.003 206.285 12.0103 206.334L12.2399 207.864C12.2749 208.096 12.4915 208.257 12.7224 208.222L13.8394 208.052C13.9514 208.035 14.0502 207.975 14.1175 207.884C14.1846 207.792 14.2121 207.68 14.1957 207.567L13.9659 206.037C13.9582 205.988 13.9869 205.941 14.0334 205.924C14.8072 205.655 15.5033 205.233 16.1019 204.671C16.1379 204.637 16.1928 204.634 16.2326 204.663L17.4712 205.582C17.5623 205.65 17.6743 205.677 17.7862 205.66C17.898 205.643 17.9969 205.583 18.0642 205.492L18.7348 204.578C18.873 204.389 18.8333 204.121 18.6454 203.982L17.4066 203.063C17.3669 203.033 17.3532 202.98 17.3754 202.935C17.7329 202.194 17.9288 201.401 17.9567 200.578C17.9573 200.529 17.9948 200.488 18.0438 200.48L19.5655 200.249C19.6775 200.232 19.7763 200.172 19.8436 200.081C19.9107 199.989 19.9382 199.877 19.9218 199.764L19.7532 198.641C19.7362 198.528 19.6768 198.429 19.5857 198.362C19.4946 198.294 19.3828 198.266 19.2709 198.283L17.749 198.514C17.7003 198.522 17.6531 198.493 17.6368 198.446C17.3687 197.668 16.949 196.968 16.3898 196.367C16.356 196.331 16.3523 196.275 16.3822 196.235L17.2962 194.99C17.4344 194.801 17.3947 194.533 17.2068 194.394L16.2977 193.719C16.1096 193.58 15.8435 193.62 15.7046 193.809L14.7906 195.054C14.7616 195.094 14.708 195.108 14.6636 195.086C13.9268 194.726 13.138 194.529 12.3193 194.502C12.27 194.5 12.2289 194.463 12.2217 194.414L11.992 192.884C11.957 192.652 11.7404 192.491 11.5095 192.526L10.3926 192.696C10.2805 192.713 10.1817 192.772 10.1144 192.864C10.0471 192.956 10.0195 193.068 10.0362 193.181L10.2661 194.711C10.2735 194.76 10.2451 194.807 10.1985 194.823C9.42454 195.093 8.7284 195.515 8.13019 196.077C8.09421 196.111 8.03937 196.114 7.99955 196.085L6.7607 195.166C6.66962 195.098 6.55779 195.07 6.44573 195.087C6.33392 195.104 6.23506 195.164 6.16778 195.256L5.49714 196.17C5.35871 196.359 5.39841 196.626 5.58652 196.766L6.82537 197.685C6.86499 197.714 6.87832 197.768 6.85656 197.813C6.49889 198.553 6.30319 199.346 6.27537 200.17C6.27532 200.174 6.27483 200.178 6.27411 200.183ZM9.00047 199.859C9.07834 199.378 9.26781 198.908 9.57505 198.489C10.6087 197.08 12.5896 196.78 13.9907 197.819C15.3917 198.858 15.6908 200.85 14.6569 202.259C13.6232 203.667 11.6423 203.968 10.2413 202.928C9.25665 202.198 8.81634 200.997 9.00047 199.859ZM9.73966 198.611C8.77317 199.928 9.0527 201.791 10.3629 202.763C11.673 203.734 13.5257 203.454 14.4926 202.136C15.4586 200.819 15.1795 198.957 13.8694 197.984C12.559 197.013 10.7067 197.294 9.73966 198.611Z" fill="#5800B5"/>
<path opacity="0.45" d="M78.0464 193.307H78.0459C77.9494 193.307 77.8608 193.254 77.815 193.169L76.9059 191.488L75.2381 190.565C75.1538 190.518 75.1016 190.429 75.1016 190.332C75.1016 190.235 75.1548 190.146 75.2392 190.1L76.9117 189.186L77.8297 187.51C77.8761 187.425 77.9647 187.372 78.0607 187.372H78.0612C78.1577 187.372 78.2463 187.426 78.2921 187.511L79.2012 189.192L80.869 190.115C80.9533 190.162 81.0055 190.251 81.0055 190.348C81.0055 190.445 80.9523 190.534 80.8679 190.58L79.1954 191.494L78.2774 193.17C78.231 193.255 78.1424 193.307 78.0464 193.307ZM75.9146 190.334L77.2276 191.061C77.2713 191.085 77.3077 191.122 77.332 191.166L78.0475 192.49L78.7704 191.17C78.7946 191.126 78.831 191.089 78.8753 191.065L80.1924 190.346L78.8795 189.619C78.8358 189.595 78.7994 189.558 78.7751 189.514L78.0596 188.19L77.3367 189.51C77.3124 189.554 77.2761 189.59 77.2318 189.615L75.9146 190.334Z" fill="#5800B5"/>
<path opacity="0.45" d="M172.02 280.175C171.922 280.175 171.833 280.121 171.788 280.036L170.422 277.509L167.917 276.123C167.832 276.076 167.78 275.987 167.78 275.89C167.78 275.793 167.834 275.704 167.918 275.658L170.431 274.285L171.81 271.766C171.857 271.681 171.945 271.629 172.041 271.629H172.042C172.139 271.629 172.227 271.682 172.273 271.767L173.638 274.294L176.145 275.681C176.229 275.728 176.282 275.817 176.281 275.914C176.281 276.011 176.228 276.1 176.143 276.146L173.629 277.519L172.251 280.038C172.205 280.122 172.116 280.175 172.02 280.175ZM168.593 275.892L170.744 277.082C170.788 277.106 170.824 277.143 170.849 277.188L172.021 279.357L173.205 277.194C173.23 277.15 173.266 277.113 173.31 277.089L175.468 275.91L173.317 274.719C173.272 274.695 173.237 274.658 173.212 274.614L172.04 272.445L170.856 274.607C170.831 274.651 170.795 274.688 170.751 274.712L168.593 275.892Z" fill="#5800B5"/>
<g opacity="0.45">
<path d="M106.861 85.0219C106.716 85.0219 106.598 84.9032 106.598 84.7569V82.5643C106.598 82.418 106.716 82.2992 106.861 82.2992C107.007 82.2992 107.125 82.418 107.125 82.5643V84.7569C107.125 84.9032 107.007 85.0219 106.861 85.0219Z" fill="#5800B5"/>
<path d="M106.861 90.6526C106.716 90.6526 106.598 90.5339 106.598 90.3876V88.195C106.598 88.0487 106.716 87.9299 106.861 87.9299C107.007 87.9299 107.125 88.0487 107.125 88.195V90.3876C107.125 90.5344 107.007 90.6526 106.861 90.6526Z" fill="#5800B5"/>
<path d="M105.151 86.7403H102.971C102.825 86.7403 102.707 86.6216 102.707 86.4754C102.707 86.3292 102.825 86.2106 102.971 86.2106H105.151C105.297 86.2106 105.415 86.3292 105.415 86.4754C105.415 86.6216 105.297 86.7403 105.151 86.7403Z" fill="#5800B5"/>
<path d="M110.753 86.7404H108.571C108.426 86.7404 108.308 86.6217 108.308 86.4755C108.308 86.3293 108.426 86.2107 108.571 86.2107H110.753C110.898 86.2107 111.016 86.3293 111.016 86.4755C111.016 86.6217 110.898 86.7404 110.753 86.7404Z" fill="#5800B5"/>
<path d="M109.613 89.5077C109.545 89.5077 109.478 89.4817 109.426 89.4302L107.884 87.8789C107.781 87.7755 107.781 87.6073 107.884 87.5039C107.987 87.4005 108.154 87.4005 108.257 87.5039L109.799 89.0553C109.902 89.1587 109.902 89.3268 109.799 89.4302C109.747 89.4817 109.68 89.5077 109.613 89.5077Z" fill="#5800B5"/>
<path d="M105.653 85.5259C105.585 85.5259 105.518 85.4999 105.466 85.4485L103.924 83.8972C103.821 83.7937 103.821 83.6256 103.924 83.5222C104.027 83.4188 104.194 83.4188 104.297 83.5222L105.839 85.0735C105.942 85.1769 105.942 85.3451 105.839 85.4485C105.788 85.4999 105.72 85.5259 105.653 85.5259Z" fill="#5800B5"/>
<path d="M108.07 85.5259C108.003 85.5259 107.935 85.4999 107.884 85.4485C107.781 85.3451 107.781 85.1769 107.884 85.0735L109.426 83.5222C109.529 83.4188 109.696 83.4188 109.799 83.5222C109.902 83.6256 109.902 83.7937 109.799 83.8972L108.257 85.4485C108.205 85.4999 108.138 85.5259 108.07 85.5259Z" fill="#5800B5"/>
<path d="M104.11 89.5077C104.043 89.5077 103.975 89.4817 103.924 89.4302C103.821 89.3268 103.821 89.1587 103.924 89.0553L105.466 87.5039C105.569 87.4005 105.736 87.4005 105.839 87.5039C105.942 87.6073 105.942 87.7755 105.839 87.8789L104.297 89.4302C104.245 89.4817 104.178 89.5077 104.11 89.5077Z" fill="#5800B5"/>
</g>
<path d="M31.1045 179.416C34.0726 179.416 36.4824 181.833 36.4824 184.818C36.4823 187.803 34.0725 190.219 31.1045 190.219C28.1364 190.219 25.7266 187.803 25.7266 184.818C25.7266 181.833 28.1363 179.416 31.1045 179.416Z" fill="white" stroke="#652EFF"/>
<path d="M31.1035 182.649C32.2932 182.649 33.2616 183.618 33.2617 184.817C33.2617 186.017 32.2933 186.986 31.1035 186.986C29.914 186.986 28.9463 186.017 28.9463 184.817C28.9464 183.618 29.914 182.65 31.1035 182.649Z" fill="#652EFF" stroke="#652EFF"/>
<path d="M31.1045 118.445C34.0726 118.445 36.4824 120.862 36.4824 123.846C36.4823 126.831 34.0725 129.248 31.1045 129.248C28.1364 129.248 25.7266 126.831 25.7266 123.846C25.7266 120.861 28.1363 118.445 31.1045 118.445Z" fill="white" stroke="#652EFF"/>
<path d="M31.104 126.515C32.5717 126.515 33.7616 125.32 33.7616 123.846C33.7616 122.373 32.5717 121.178 31.104 121.178C29.6362 121.178 28.4463 122.373 28.4463 123.846C28.4463 125.32 29.6362 126.515 31.104 126.515Z" fill="#652EFF"/>
<path d="M45.042 47.4784C48.0101 47.4785 50.4199 49.8949 50.4199 52.8797C50.4198 55.8645 48.01 58.281 45.042 58.2811C42.0739 58.2811 39.6641 55.8646 39.6641 52.8797C39.6641 49.8948 42.0738 47.4784 45.042 47.4784Z" fill="white" stroke="#652EFF"/>
<path d="M45.0424 55.5479C46.5102 55.5479 47.7001 54.3533 47.7001 52.8797C47.7001 51.406 46.5102 50.2114 45.0424 50.2114C43.5746 50.2114 42.3848 51.406 42.3848 52.8797C42.3848 54.3533 43.5746 55.5479 45.0424 55.5479Z" fill="#652EFF"/>
<path d="M73.9131 24.4892C76.8812 24.4893 79.291 26.9057 79.291 29.8905C79.2909 32.8753 76.8811 35.2918 73.9131 35.2919C70.945 35.2919 68.5352 32.8754 68.5352 29.8905C68.5352 26.9056 70.9449 24.4892 73.9131 24.4892Z" fill="white" stroke="#652EFF"/>
<path d="M73.9135 32.5587C75.3813 32.5587 76.5712 31.3641 76.5712 29.8905C76.5712 28.4168 75.3813 27.2222 73.9135 27.2222C72.4457 27.2222 71.2559 28.4168 71.2559 29.8905C71.2559 31.3641 72.4457 32.5587 73.9135 32.5587Z" fill="#652EFF"/>
<path d="M49.0244 249.395C52.0008 249.395 54.4141 251.808 54.4141 254.785C54.414 257.761 52.0008 260.174 49.0244 260.175C46.048 260.175 43.6349 257.761 43.6348 254.785C43.6348 251.808 46.0479 249.395 49.0244 249.395Z" fill="white" stroke="#652EFF"/>
<path d="M49.0244 252.622C50.2189 252.622 51.1875 253.59 51.1875 254.785C51.1874 255.979 50.2189 256.948 49.0244 256.948C47.8299 256.948 46.8614 255.979 46.8613 254.785C46.8613 253.59 47.8298 252.622 49.0244 252.622Z" fill="#652EFF" stroke="#652EFF"/>
<defs>
<linearGradient id="paint0_linear_71_250" x1="228.908" y1="189.811" x2="245.591" y2="189.811" gradientUnits="userSpaceOnUse">
<stop stop-color="#E3F3FE"/>
<stop offset="0.0118" stop-color="#E1F1FE"/>
<stop offset="0.3624" stop-color="#B0ACFD"/>
<stop offset="0.6555" stop-color="#8C7AFD"/>
<stop offset="0.8766" stop-color="#755BFC"/>
<stop offset="1" stop-color="#6D4FFC"/>
</linearGradient>
</defs>
</svg>
