<svg width="70" height="70" viewBox="0 0 70 70" fill="none" xmlns="http://www.w3.org/2000/svg">
<rect x="0.5" y="0.5" width="69" height="69" rx="34.5" fill="#22B2EF" fill-opacity="0.45" stroke="black"/>
<path fill-rule="evenodd" clip-rule="evenodd" d="M55.4001 34.9996C55.4001 46.2661 46.2666 55.3996 35.0001 55.3996C23.7335 55.3996 14.6001 46.2661 14.6001 34.9996C14.6001 23.733 23.7335 14.5996 35.0001 14.5996C46.2666 14.5996 55.4001 23.733 55.4001 34.9996ZM44.328 29.665C44.8513 29.9863 45.1909 30.5646 45.1909 31.2256L45.2001 40.4056C45.2001 41.4154 44.3739 42.2416 43.3641 42.2416H28.6761C27.6663 42.2416 26.8401 41.4154 26.8401 40.4056V31.2256C26.8401 30.5646 27.1889 29.9863 27.7122 29.665L36.0201 24.7996L44.328 29.665ZM43.3549 31.2348V31.2256L36.0201 26.9294L28.6761 31.2256L36.0201 35.8156L43.3549 31.2348ZM28.6761 40.4056V33.3737L36.0201 37.9821L43.3549 33.4013L43.3641 40.4056H28.6761Z" fill="#22B1EF"/>
</svg>
