<svg width="70" height="70" viewBox="0 0 70 70" fill="none" xmlns="http://www.w3.org/2000/svg">
<rect x="0.5" y="0.5" width="69" height="69" rx="34.5" fill="#EFB822" fill-opacity="0.25" stroke="black"/>
<path fill-rule="evenodd" clip-rule="evenodd" d="M55 36C55 47.0456 46.0456 56 35 56C23.9543 56 15 47.0456 15 36C15 24.9543 23.9543 16 35 16C46.0456 16 55 24.9543 55 36ZM44.145 30.77C44.658 31.085 44.991 31.652 44.991 32.3L45 41.3C45 42.29 44.19 43.1 43.2 43.1H28.8C27.81 43.1 27 42.29 27 41.3V32.3C27 31.652 27.342 31.085 27.855 30.77L36 26L44.145 30.77ZM43.191 32.309V32.3L36 28.088L28.8 32.3L36 36.8L43.191 32.309ZM28.8 41.3V34.406L36 38.924L43.191 34.433L43.2 41.3H28.8Z" fill="#EFB922"/>
</svg>
