<svg width="42" height="32" viewBox="0 0 42 32" fill="none" xmlns="http://www.w3.org/2000/svg">
<path d="M33.1562 31.5279C30.2396 31.5396 27.8191 30.591 25.8947 28.6821C24.0537 26.7728 23.126 24.0265 23.1116 20.4432C23.0961 16.6099 24.1642 12.8139 26.3157 9.05524C28.5506 5.29622 31.6639 2.367 35.6555 0.267578L38.548 4.63098C34.2268 7.64839 31.6588 11.4504 30.8439 16.0371C31.5925 15.7007 32.4669 15.5305 33.4668 15.5265C35.8002 15.5171 37.7198 16.2594 39.2259 17.7534C40.7319 19.2473 41.4896 21.1609 41.499 23.4943C41.5084 25.8276 40.7244 27.7474 39.1471 29.2538C37.5699 30.7601 35.5729 31.5182 33.1562 31.5279ZM10.1564 31.6205C7.23979 31.6322 4.81928 30.6836 2.89492 28.7747C1.05389 26.8654 0.126158 24.1191 0.111737 20.5358C0.0963096 16.7025 1.16437 12.9065 3.31593 9.14781C5.55082 5.38878 8.66406 2.45956 12.6556 0.360143L15.5482 4.72354C11.227 7.74096 8.65895 11.543 7.84407 16.1296C8.59272 15.7933 9.46704 15.6231 10.467 15.6191C12.8003 15.6097 14.72 16.352 16.226 17.8459C17.7321 19.3399 18.4898 21.2535 18.4992 23.5868C18.5086 25.9201 17.7246 27.84 16.1473 29.3463C14.57 30.8527 12.5731 31.6107 10.1564 31.6205Z" fill="white"/>
</svg>
