<svg width="70" height="70" viewBox="0 0 70 70" fill="none" xmlns="http://www.w3.org/2000/svg">
<rect x="0.5" y="0.5" width="69" height="69" rx="34.5" fill="#AF57E9" fill-opacity="0.25" stroke="black"/>
<path d="M47.5233 31.5968C49.5462 31.5968 51.1861 29.957 51.1861 27.9342C51.1861 25.9113 49.5462 24.2715 47.5233 24.2715C45.5003 24.2715 43.8606 25.9113 43.8606 27.9342C43.8606 29.957 45.5003 31.5968 47.5233 31.5968Z" fill="#B47EFF"/>
<path d="M45.8285 47.9712C45.71 48.3132 45.9273 48.6892 46.2893 48.6892V48.6892H46.3161C49.4552 48.6892 51.9999 46.1446 51.9999 43.0056V34.771C51.9999 33.917 51.3076 33.2246 50.4534 33.2246H47.6902C46.9442 33.2246 46.4364 34.0605 46.4242 34.8064V34.8064V44.1623C46.4529 45.4962 46.241 46.7796 45.8285 47.9712Z" fill="#B47EFF"/>
<path d="M42.9249 44.2226C42.9585 45.6614 41.2526 46.0123 40.8411 44.6332C40.6874 44.1178 40.6048 43.5718 40.6047 43.0065V36.1344C40.6047 35.4939 41.124 34.9746 41.7645 34.9746V34.9746C42.4051 34.9746 42.9244 35.4939 42.9244 36.1344V44.2023L42.9249 44.2226V44.2226Z" fill="#B47EFF"/>
<path d="M36.6567 29.8331C36.6567 30.7552 37.4728 31.4916 38.3124 31.1104C40.1444 30.2787 41.4185 28.4334 41.4185 26.2906C41.4185 23.3687 39.0497 21 36.1277 21C33.2057 21 30.8369 23.3687 30.8369 26.2906V26.2906C30.8369 26.4593 30.9774 26.5912 31.1461 26.5912H33.4147C35.2053 26.5912 36.6567 28.0427 36.6567 29.8331V29.8331Z" fill="#B47EFF"/>
<path d="M32.8521 30.4462C32.9781 30.5456 33.1566 30.4523 33.1566 30.2918V30.2918C33.1566 30.1813 33.0658 30.0918 32.9554 30.0918V30.0918C32.7716 30.0918 32.6824 30.3107 32.826 30.4255C32.8347 30.4324 32.8433 30.4393 32.8521 30.4462Z" fill="#B47EFF"/>
<path d="M27.0813 44.4976C26.9063 44.4976 26.7634 44.3567 26.7674 44.1817V44.1817V42.721C26.7674 42.4924 26.9527 42.3072 27.1812 42.3072V42.3072C27.4098 42.3072 27.595 42.1219 27.595 41.8934V35.9636C27.595 35.118 28.2806 34.4324 29.1263 34.4324H30.0536C30.3872 34.4324 30.6575 34.162 30.6575 33.8285V33.8285C30.6575 33.495 30.9279 33.2246 31.2614 33.2246H31.9071C32.5972 33.2246 33.1567 33.7841 33.1567 34.4742V41.2851C33.1567 43.0593 31.7184 44.4976 29.9442 44.4976H27.0813Z" fill="#B47EFF"/>
<path d="M31.3567 52.3485C28.9307 50.946 30.6125 47.9975 33.4147 47.9975V47.9975C35.2052 47.9975 36.6567 46.5461 36.6567 44.7557V39.7504C36.6567 36.1463 39.5784 33.2246 43.1824 33.2246V33.2246C44.0263 33.2455 44.6939 33.9459 44.6743 34.7897V44.1817C44.7923 49.2462 40.7853 53.4489 35.721 53.5728C34.1302 53.5339 32.6437 53.0925 31.3567 52.3485Z" fill="#B47EFF"/>
<path fill-rule="evenodd" clip-rule="evenodd" d="M33.415 28.3398H18.492C17.668 28.3398 17 29.0078 17 29.8318V44.7544C17 45.5783 17.668 46.2463 18.492 46.2463H33.415C34.2389 46.2463 34.9069 45.5783 34.9069 44.7544V29.8318C34.9069 29.0078 34.2389 28.3398 33.415 28.3398ZM21.9076 33.5561C21.9076 34.0394 22.2993 34.4311 22.7825 34.4311H23.4388C24.2845 34.4311 24.9701 35.1167 24.9701 35.9624V41.4309C24.9701 41.9141 25.3618 42.3059 25.8451 42.3059V42.3059C26.3283 42.3059 26.7201 41.9141 26.7201 41.4309V35.9624C26.7201 35.1167 27.4056 34.4311 28.2513 34.4311H28.9076C29.3908 34.4311 29.7826 34.0394 29.7826 33.5561V33.5561C29.7826 33.0729 29.3908 32.6812 28.9076 32.6812H22.7825C22.2993 32.6812 21.9076 33.0729 21.9076 33.5561V33.5561Z" fill="#B47EFF"/>
</svg>
