<svg width="70" height="70" viewBox="0 0 70 70" fill="none" xmlns="http://www.w3.org/2000/svg">
<rect x="0.5" y="0.5" width="69" height="69" rx="34.5" fill="#15BD34" fill-opacity="0.25" stroke="black"/>
<path fill-rule="evenodd" clip-rule="evenodd" d="M46.642 42.2422C46.16 43.6066 44.244 44.7353 42.716 45.0654C41.67 45.2875 40.306 45.4632 35.71 43.5586C30.548 41.42 23.38 33.8019 23.38 28.7324C23.38 26.1516 24.868 23.1465 27.47 23.1465C28.722 23.1465 28.998 23.1709 29.41 24.1592C29.892 25.3235 31.068 28.1922 31.208 28.4863C31.786 29.6927 30.62 30.3989 29.774 31.4492C29.504 31.7653 29.198 32.1072 29.54 32.6953C29.88 33.2715 31.056 35.1881 32.784 36.7266C35.016 38.7152 36.826 39.35 37.474 39.6201C37.956 39.8202 38.532 39.7736 38.884 39.3975C39.33 38.9153 39.884 38.1154 40.448 37.3271C40.846 36.763 41.352 36.6925 41.882 36.8926C42.24 37.0166 46.79 39.1297 46.982 39.4678C47.124 39.7139 47.124 40.8778 46.642 42.2422ZM35.004 14H34.994C23.968 14 15 22.9707 15 34C15 37.7923 16.0602 41.347 17.9055 44.3704C18.4367 45.2408 18.6154 46.296 18.2913 47.2627V47.2627C17.4714 49.7076 19.7778 52.0471 22.2341 51.2622L22.5001 51.1772C23.4497 50.8738 24.4777 51.0318 25.3497 51.5148C28.2146 53.1018 31.5009 54 35.004 54C46.03 54 55 45.0293 55 34C55 22.9707 46.03 14 35.004 14Z" fill="#17B434"/>
</svg>
