<svg width="800" height="730" viewBox="0 0 800 730" fill="none" xmlns="http://www.w3.org/2000/svg">
<mask id="mask0_772_288" style="mask-type:alpha" maskUnits="userSpaceOnUse" x="0" y="0" width="800" height="730">
<rect x="800" y="730" width="800" height="730" transform="rotate(180 800 730)" fill="#D9D9D9"/>
<rect x="799.5" y="729.5" width="799" height="729" transform="rotate(180 799.5 729.5)" stroke="white" stroke-opacity="0.35"/>
</mask>
<g mask="url(#mask0_772_288)">
<path d="M69.9425 265.201C126.897 192.952 194.655 150.597 269.862 116.318C358.448 74.9674 457.352 40.6021 583.634 20.092C712.297 1.68884 868.343 -2.859 1126.18 64.0698C1164.82 74.1746 1213.27 89.8601 1244.71 109.362C1267.71 123.6 1273.62 134.987 1277.96 145.301C1307.11 214.697 1317.16 283.309 1327.64 366.352C1331.02 392.293 1332.78 420.478 1314.16 442.02C1300.69 457.725 1278.86 468.486 1259.77 480.442C1100.17 583.216 1068.58 786.735 995.268 937.774C924.14 1090.74 823.518 1204.31 593.719 1209.2C500.262 1211.39 380.988 1192.07 234.954 1139.69C181.08 1120.59 120.79 1095.34 74.6295 1067.69C29.1557 1040.46 4.1859 1015.42 -18.5643 991.747C-62.6739 945.94 -103.161 900.922 -98.6314 867.318C-95.8144 844.059 -75.0023 825.832 -58.1735 802.214C-40.8996 778.99 -27.6085 750.375 -29.5771 715.421C-32.7768 667.579 -64.7531 618.329 -85.6708 564.18C-101.967 522.425 -76.3823 501.088 -59.0001 471.338C-14.1993 396.072 24.9094 320.959 69.9425 265.201Z" stroke="white" stroke-opacity="0.35" stroke-width="0.2444" stroke-miterlimit="10" stroke-linecap="round" stroke-linejoin="round" stroke-dasharray="0.04 14.23"/>
<path d="M1249.17 482.682C1097.69 588.673 1066.17 788.511 994.11 937.149C924.103 1087.66 825.2 1199.51 603.234 1208.02C512.981 1211.66 398.136 1194.84 257.487 1145.97C205.59 1128.16 147.514 1104.41 102.709 1077.74C58.5521 1051.46 33.8474 1026.7 11.3056 1003.26C-32.3808 957.935 -72.6696 913.235 -69.7672 878.799C-68.0521 854.985 -48.9678 835.826 -33.6468 811.501C-17.9048 787.548 -5.92665 758.431 -8.65047 723.346C-12.8015 675.33 -44.6033 626.507 -65.7807 572.649C-82.2517 531.119 -57.734 509.496 -41.1205 479.735C1.61472 404.499 39.7431 330.291 83.9133 275.309C139.788 204.107 206.588 162.572 280.434 128.736C367.434 87.9415 464.241 53.7173 586.622 31.9199C711.268 12.1275 861.486 4.76112 1107.58 63.9371C1144.47 72.8895 1190.73 87.0788 1221.21 105.872C1243.51 119.6 1249.64 131.096 1254.24 141.551C1285.2 211.849 1297.96 281.871 1310.92 365.913C1315.08 392.165 1317.71 420.698 1300.5 442.871C1288.03 459.043 1267.31 470.33 1249.17 482.682Z" stroke="white" stroke-opacity="0.35" stroke-width="0.4108" stroke-miterlimit="10" stroke-linecap="round" stroke-linejoin="round" stroke-dasharray="0.04 14.2"/>
<path d="M1238.84 485.162C1095.18 594.122 1063.77 790.289 992.954 936.526C924.069 1084.57 826.885 1194.72 612.559 1206.66C525.433 1211.69 414.895 1197.28 279.486 1151.79C229.517 1135.22 173.591 1112.91 130.114 1087.2C87.2482 1061.85 62.816 1037.37 40.484 1014.16C-2.76521 969.331 -42.8395 924.969 -41.4852 889.769C-40.8255 865.441 -23.3995 845.411 -9.53091 820.428C4.74222 795.804 15.4597 766.226 12.0184 731.049C6.96206 682.901 -24.6511 634.521 -46.0558 580.974C-62.6806 539.69 -39.1962 517.807 -23.3279 488.058C17.4035 412.906 54.5686 339.617 97.8784 285.415C152.68 215.262 218.516 174.543 291.009 141.155C376.429 100.924 471.166 66.8641 589.74 43.8658C710.465 22.7699 855.023 12.734 1089.75 64.492C1124.96 72.3412 1169.09 85.1001 1198.64 103.204C1220.26 116.437 1226.58 128.03 1231.43 138.613C1264.1 209.709 1279.41 281.015 1294.73 365.939C1299.62 392.462 1303.08 421.304 1287.21 444.061C1275.71 460.664 1256.06 472.441 1238.84 485.162Z" stroke="white" stroke-opacity="0.35" stroke-width="0.5773" stroke-miterlimit="10" stroke-linecap="round" stroke-linejoin="round" stroke-dasharray="0.04 14.17"/>
<path d="M1228.77 487.873C1092.67 599.556 1061.37 792.067 991.796 935.9C924.036 1081.49 828.568 1189.92 621.69 1205.14C537.61 1211.48 431.265 1199.37 300.956 1157.14C252.862 1141.76 199.031 1120.85 156.852 1096.07C115.246 1071.61 91.0918 1047.42 68.976 1024.45C26.1828 980.132 -13.6538 936.128 -13.7798 900.228C-14.1208 875.432 1.70983 854.588 14.1866 828.999C27.0468 803.751 36.5514 773.761 32.4327 738.524C26.514 690.284 -4.88931 642.361 -26.4942 589.154C-43.2516 548.134 -20.7705 526.018 -5.62844 496.3C33.1627 421.287 69.3793 348.931 111.838 295.517C165.571 226.42 230.437 186.511 301.584 153.577C385.434 113.915 478.13 80.0432 592.987 55.9227C709.887 33.609 848.954 21.0493 1072.68 65.7216C1106.26 72.5176 1148.35 83.9067 1176.98 101.341C1197.94 114.093 1204.44 125.769 1209.53 136.468C1243.79 208.264 1261.51 280.728 1279.05 366.415C1284.63 393.174 1288.87 422.286 1274.3 445.578C1263.72 462.579 1245.11 474.813 1228.77 487.873Z" stroke="white" stroke-opacity="0.35" stroke-width="0.7438" stroke-miterlimit="10" stroke-linecap="round" stroke-linejoin="round" stroke-dasharray="0.04 14.15"/>
<path d="M1218.96 490.815C1090.14 604.98 1058.98 793.85 990.641 935.276C924.003 1078.4 830.25 1185.11 630.636 1203.45C549.528 1211.03 447.261 1201.13 321.911 1162.04C275.639 1147.81 223.849 1128.23 182.94 1104.36C142.568 1080.79 118.696 1056.88 96.8051 1034.16C54.4757 990.361 14.9012 946.733 13.3679 910.195C13.099 861.806 64.4499 818.37 52.6039 745.786C45.8723 697.493 14.6929 650.042 -7.08686 597.199C-23.9568 556.458 -2.44782 534.138 11.9933 504.475C48.9043 429.654 84.1911 358.245 125.799 305.621C178.472 237.589 242.363 198.481 312.168 166.009C394.455 126.923 485.127 93.2582 596.362 68.0993C709.534 44.6523 843.266 29.7099 1056.37 67.6208C1088.37 73.4134 1128.48 83.4889 1156.21 100.279C1176.52 112.565 1183.2 124.313 1188.51 135.114C1224.24 207.509 1244.24 281.009 1263.88 367.343C1270.1 394.305 1275.08 423.646 1261.75 447.424C1252.06 464.782 1234.44 477.443 1218.96 490.815Z" stroke="white" stroke-opacity="0.35" stroke-width="0.9103" stroke-miterlimit="10" stroke-linecap="round" stroke-linejoin="round" stroke-dasharray="0.04 14.12"/>
<path d="M1209.4 493.98C1087.6 610.392 1056.58 795.635 989.482 934.651C923.969 1075.32 831.929 1180.31 639.392 1201.6C561.181 1210.35 462.88 1202.56 342.354 1166.47C297.855 1153.35 248.048 1135.07 208.379 1112.08C169.212 1089.36 145.629 1065.75 123.969 1043.28C82.118 1000.01 42.8259 956.778 39.9582 919.664C37.764 870.409 85.4745 825.302 72.5285 752.826C65.0276 704.524 34.0846 657.555 12.1624 605.101C-4.79897 564.658 15.7651 542.157 29.5265 512.567C64.6168 437.993 98.9856 367.542 139.753 315.715C191.374 248.751 254.278 210.439 322.752 178.436C403.48 139.93 492.158 106.497 599.859 80.3755C709.393 55.8773 837.949 38.6923 1040.79 70.1622C1071.27 74.9964 1109.46 83.8237 1136.33 99.9838C1156 111.818 1162.84 123.625 1168.35 134.513C1205.45 207.412 1227.58 281.827 1249.19 368.696C1256.02 395.824 1261.7 425.355 1249.55 449.575C1240.71 467.27 1224.06 480.322 1209.4 493.98Z" stroke="white" stroke-opacity="0.35" stroke-width="1.0767" stroke-miterlimit="10" stroke-linecap="round" stroke-linejoin="round" stroke-dasharray="0.04 14.1"/>
<path d="M1200.1 497.368C1085.04 615.795 1054.19 797.422 988.325 934.027C923.937 1072.23 833.608 1175.51 647.97 1199.58C572.579 1209.45 478.132 1203.66 362.295 1170.47C319.521 1158.41 271.64 1141.37 233.188 1119.24C195.201 1097.34 171.912 1074.04 150.49 1051.83C109.131 1009.1 70.1414 966.283 66.0078 928.656C61.9871 878.624 106.197 831.97 92.2163 759.657C83.9885 711.383 53.303 664.914 31.2624 612.871C14.2285 572.745 33.8799 550.09 46.9833 520.589C80.3154 446.315 113.782 376.839 153.712 325.811C204.287 259.922 266.198 222.398 333.348 190.869C412.529 152.956 499.129 119.641 603.354 92.5917C709.306 67.0713 832.883 47.8171 1025.94 73.3464C1054.93 77.2448 1091.29 84.9062 1117.31 100.456C1136.37 111.853 1143.35 123.709 1149.05 134.67C1187.41 207.979 1211.55 283.186 1235 370.481C1242.4 397.743 1248.73 427.429 1237.72 452.042C1229.69 470.036 1213.97 483.451 1200.1 497.368Z" stroke="white" stroke-opacity="0.35" stroke-width="1.2432" stroke-miterlimit="10" stroke-linecap="round" stroke-linejoin="round" stroke-dasharray="0.04 14.07"/>
<path d="M1191.03 500.968C1082.47 621.185 1051.8 799.214 987.167 933.402C923.903 1069.15 835.281 1170.7 656.366 1197.41C583.72 1208.32 493.023 1204.45 381.742 1174.03C340.641 1162.98 294.633 1147.14 257.37 1125.85C220.534 1104.75 197.545 1081.76 176.366 1059.81C135.516 1017.63 96.8452 975.248 91.5145 937.17C85.7463 886.428 126.375 838.341 111.662 766.278C102.61 718.065 72.3408 672.117 50.2024 620.504C33.1149 580.714 51.8813 557.927 64.3497 528.539C95.9801 454.617 128.558 386.123 167.659 335.903C217.189 271.094 278.103 234.354 343.935 203.304C421.576 165.986 506.211 132.923 607.067 105.057C709.557 78.6371 828.27 57.4157 1011.79 77.1585C1039.36 80.1879 1073.94 86.7199 1099.13 101.679C1117.59 112.654 1124.7 124.545 1130.58 135.568C1170.09 209.192 1196.1 285.077 1221.27 372.689C1229.2 400.05 1236.14 429.852 1226.22 454.816C1218.97 473.076 1204.14 486.82 1191.03 500.968Z" stroke="white" stroke-opacity="0.35" stroke-width="1.4097" stroke-miterlimit="10" stroke-linecap="round" stroke-linejoin="round" stroke-dasharray="0.04 14.04"/>
<path d="M1182.21 504.783C1079.9 626.563 1049.42 801.008 986.011 932.779C923.873 1066.07 836.956 1165.9 664.584 1195.08C594.616 1206.97 507.555 1204.91 400.7 1177.16C361.226 1167.08 317.04 1152.39 280.937 1131.91C245.228 1111.6 222.545 1088.91 201.616 1067.23C161.281 1025.63 122.955 983.688 116.493 945.219C109.091 893.866 146.467 844.476 130.879 772.692C121.169 724.588 91.2028 679.159 68.9979 628.006C51.8779 588.565 69.7859 565.676 81.6399 536.416C111.627 462.897 143.334 395.404 181.607 345.993C230.102 282.266 290.011 246.307 354.531 215.744C430.636 179.026 513.324 146.232 610.9 117.625C710.016 90.3814 824.015 67.3259 998.332 81.5837C1024.53 83.7877 1057.4 89.2465 1081.78 103.633C1099.66 114.198 1106.88 126.113 1112.92 137.186C1153.49 211.035 1181.24 287.483 1208 375.304C1216.44 402.731 1223.95 432.614 1215.06 457.884C1208.55 476.383 1194.58 490.427 1182.21 504.783Z" stroke="white" stroke-opacity="0.35" stroke-width="1.5761" stroke-miterlimit="10" stroke-linecap="round" stroke-linejoin="round" stroke-dasharray="0.04 14.02"/>
<path d="M1173.62 508.803C1077.3 631.931 1047.04 802.802 984.853 932.154C923.84 1062.98 838.628 1161.09 672.63 1192.59C605.268 1205.41 521.741 1205.07 419.183 1179.86C381.289 1170.72 338.868 1157.13 303.903 1137.44C269.298 1117.89 246.921 1095.52 226.249 1074.11C186.444 1033.08 148.482 991.611 140.955 952.804C132.011 900.928 166.267 850.352 149.864 778.901C139.543 730.941 109.89 686.048 87.6468 635.375C70.5114 596.302 87.591 573.333 98.8506 544.222C127.253 471.156 158.098 404.672 195.551 356.079C243.018 293.443 301.916 258.257 365.129 228.183C439.705 192.074 520.474 159.57 614.849 130.294C710.675 102.303 820.107 77.5429 985.56 86.6133C1010.44 88.0368 1041.66 92.478 1065.25 106.311C1082.56 116.481 1089.89 128.409 1096.07 139.516C1137.59 213.499 1166.96 290.4 1195.2 378.325C1204.09 405.786 1212.13 435.716 1204.23 461.247C1198.43 479.952 1185.29 494.267 1173.62 508.803Z" stroke="white" stroke-opacity="0.35" stroke-width="1.7426" stroke-miterlimit="10" stroke-linecap="round" stroke-linejoin="round" stroke-dasharray="0.04 13.99"/>
<path d="M1165.26 513.026C1074.7 637.288 1044.66 804.6 983.696 931.529C923.808 1059.9 840.296 1156.28 680.503 1189.95C615.673 1203.63 535.58 1204.92 437.193 1182.15C400.834 1173.9 360.125 1161.37 326.271 1142.45C292.741 1123.63 270.679 1101.58 250.269 1080.45C211.008 1040.01 173.428 999.023 164.902 959.939C154.51 907.618 185.778 855.973 168.618 784.913C157.726 737.133 128.406 692.79 106.144 642.618C89.013 603.93 105.346 580.946 115.978 551.961C142.992 479.496 172.847 413.933 209.489 366.164C255.934 304.624 313.814 270.204 375.726 240.627C448.78 205.131 527.651 172.934 618.904 143.061C711.526 114.398 816.533 88.0587 973.45 92.2305C997.052 92.9156 1026.68 96.3941 1049.51 109.691C1066.27 119.478 1073.68 131.408 1080 142.539C1122.38 216.569 1153.23 293.811 1182.84 381.74C1192.15 409.205 1200.69 439.145 1193.72 464.895C1188.6 483.776 1176.25 498.334 1165.26 513.026Z" stroke="white" stroke-opacity="0.35" stroke-width="1.9091" stroke-miterlimit="10" stroke-linecap="round" stroke-linejoin="round" stroke-dasharray="0.03 13.96"/>
<path d="M1157.12 517.448C1072.08 642.631 1042.28 806.402 982.538 930.903C923.777 1056.82 841.967 1151.46 688.208 1187.17C625.843 1201.64 549.08 1204.48 454.742 1184.03C419.872 1176.63 380.83 1165.12 348.06 1146.93C315.582 1128.84 293.839 1107.11 273.699 1086.26C234.992 1046.42 197.814 1005.94 188.352 966.633C176.603 913.948 205.012 861.35 187.159 790.731C175.736 743.17 146.758 699.385 124.507 649.739C107.4 611.451 122.965 588.44 133.036 559.634C158.588 487.73 187.596 423.192 223.429 376.247C268.855 315.808 325.711 282.15 386.332 253.075C457.869 218.197 534.861 186.328 623.073 155.926C712.573 126.665 813.294 98.8702 962.001 98.4297C984.379 98.4187 1012.52 100.978 1034.56 113.764C1050.81 123.175 1058.27 135.103 1064.71 146.246C1107.83 220.238 1140.06 297.711 1170.92 385.544C1180.62 412.98 1189.61 442.897 1183.54 468.827C1179.06 487.853 1167.47 502.623 1157.12 517.448Z" stroke="white" stroke-opacity="0.35" stroke-width="2.0756" stroke-miterlimit="10" stroke-linecap="round" stroke-linejoin="round" stroke-dasharray="0.03 13.94"/>
<path d="M1149.2 522.065C1069.45 647.969 1039.91 808.204 981.382 930.279C923.748 1053.74 843.632 1146.65 695.751 1184.24C635.788 1199.45 562.251 1203.73 471.839 1185.51C438.416 1178.93 400.933 1168.39 369.281 1150.92C337.77 1133.52 316.41 1112.11 296.544 1091.55C258.402 1052.32 221.643 1012.35 211.31 972.888C198.291 919.918 223.971 866.48 205.483 796.353C193.569 749.044 164.95 705.833 142.732 656.733C125.664 618.86 140.486 595.846 150.019 567.24C174.168 495.942 202.339 432.442 237.369 386.328C281.784 326.994 337.611 294.093 396.943 265.525C466.97 231.271 542.105 199.748 627.354 168.888C713.812 139.097 810.385 109.971 951.195 105.196C972.391 104.532 999.064 106.229 1020.38 118.518C1036.1 127.567 1043.63 139.477 1050.17 150.621C1093.96 224.488 1127.43 302.091 1159.43 389.726C1169.49 417.104 1178.89 446.964 1173.66 473.03C1169.79 492.175 1158.93 507.13 1149.2 522.065Z" stroke="white" stroke-opacity="0.35" stroke-width="2.242" stroke-miterlimit="10" stroke-linecap="round" stroke-linejoin="round" stroke-dasharray="0.03 13.91"/>
<path d="M1141.5 526.869C1066.81 653.29 1037.54 810.008 980.227 929.654C923.72 1050.66 845.298 1141.83 703.129 1181.16C645.499 1197.05 575.094 1202.7 488.489 1186.59C456.467 1180.78 420.546 1171.18 389.932 1154.4C359.426 1137.68 338.395 1116.6 318.808 1096.34C281.244 1057.72 244.924 1018.29 233.781 978.716C219.581 925.54 242.654 871.37 223.59 801.788C211.222 754.764 182.883 712.168 160.816 663.607C143.738 626.19 157.912 603.173 166.926 574.779C189.717 504.139 217.071 441.686 251.304 396.407C294.71 338.184 349.502 306.032 407.553 277.977C476.079 244.352 549.375 213.194 631.737 181.941C715.232 151.694 807.79 121.349 941.01 112.514C961.074 111.235 986.33 112.123 1006.94 123.93C1022.15 132.631 1029.73 144.514 1036.37 155.647C1080.72 229.307 1115.33 306.933 1148.35 394.278C1158.73 421.567 1168.51 451.338 1164.09 477.501C1160.79 496.738 1150.63 511.85 1141.5 526.869Z" stroke="white" stroke-opacity="0.35" stroke-width="2.4085" stroke-miterlimit="10" stroke-linecap="round" stroke-linejoin="round" stroke-dasharray="0.03 13.88"/>
<path d="M1134 531.859C1063.89 658.396 1035.17 811.817 979.066 929.03C923.688 1047.57 846.958 1137.02 710.343 1177.94C654.982 1194.46 587.609 1201.39 504.699 1187.29C474.035 1182.22 439.628 1173.5 410.034 1157.4C380.503 1141.34 359.809 1120.59 340.509 1100.62C303.534 1062.64 267.669 1023.76 255.775 984.121C240.482 930.812 261.071 876.023 241.485 807.034C228.707 760.336 200.746 718.335 178.765 670.361C161.759 633.394 175.245 610.416 183.759 582.254C205.246 512.314 231.796 450.922 265.234 406.483C307.642 349.374 361.394 317.97 418.167 290.431C485.193 257.439 556.672 226.662 636.219 195.083C716.825 164.443 805.503 133.002 931.436 120.374C950.411 118.523 974.315 118.65 994.224 129.991C1008.94 138.357 1016.57 150.203 1023.28 161.312C1068.11 234.684 1103.74 312.233 1137.69 399.191C1148.35 426.363 1158.48 456.013 1154.81 482.236C1152.06 501.534 1142.53 516.752 1134 531.859Z" stroke="white" stroke-opacity="0.35" stroke-width="2.575" stroke-miterlimit="10" stroke-linecap="round" stroke-linejoin="round" stroke-dasharray="0.03 13.86"/>
<path d="M1126.71 537.032C1061.2 663.683 1032.81 813.627 977.908 928.406C923.658 1044.49 848.613 1132.2 717.402 1174.58C664.246 1191.67 599.812 1199.79 520.478 1187.6C491.13 1183.23 458.193 1175.35 429.589 1159.91C401.016 1144.49 380.661 1124.07 361.652 1104.41C325.279 1067.07 289.887 1028.75 277.302 989.112C260.997 935.748 279.223 880.441 259.172 812.097C246.022 765.755 218.452 724.366 196.584 676.997C179.665 640.496 192.491 617.578 200.522 589.664C220.76 520.47 246.51 460.149 279.162 416.554C320.573 360.567 373.277 329.904 428.781 302.888C494.314 270.536 563.997 240.157 640.802 208.316C718.6 177.351 803.521 144.925 922.463 128.765C940.393 126.377 962.994 125.793 982.232 136.683C996.462 144.725 1004.12 156.524 1010.91 167.598C1056.11 240.606 1092.65 317.978 1127.42 404.458C1138.34 431.486 1148.77 460.983 1145.82 487.227C1143.59 506.56 1134.69 521.882 1126.71 537.032Z" stroke="white" stroke-opacity="0.35" stroke-width="2.7415" stroke-miterlimit="10" stroke-linecap="round" stroke-linejoin="round" stroke-dasharray="0.03 13.83"/>
<path d="M1119.62 542.378C1058.5 668.958 1030.44 815.439 976.753 927.779C923.63 1041.41 850.273 1127.37 724.308 1171.09C673.289 1188.68 611.708 1197.92 535.838 1187.54C507.763 1183.83 476.25 1176.76 448.616 1161.95C420.976 1147.14 400.964 1127.07 382.254 1107.72C346.493 1071.02 311.592 1033.29 298.373 993.696C281.141 940.346 297.119 884.629 276.658 816.978C263.174 771.026 236.008 730.259 214.271 683.516C197.458 647.493 209.642 624.659 217.215 597.011C236.247 528.606 261.221 469.369 293.088 426.622C333.511 371.76 385.162 341.831 439.398 315.341C503.446 283.634 571.347 253.67 645.482 221.628C720.545 190.406 801.837 157.106 914.075 137.668C931.004 134.783 952.358 133.536 970.941 143.992C984.7 151.72 992.341 163.466 999.22 174.491C1044.49 247.08 1082.07 324.168 1117.55 410.069C1128.69 436.923 1139.46 466.252 1137.11 492.463C1135.41 511.819 1127.08 527.208 1119.62 542.378Z" stroke="white" stroke-opacity="0.35" stroke-width="2.9079" stroke-miterlimit="10" stroke-linecap="round" stroke-linejoin="round" stroke-dasharray="0.03 13.8"/>
<path d="M1112.73 547.897C1055.79 674.223 1028.08 817.25 975.594 927.153C923.6 1038.33 851.926 1122.55 731.063 1167.46C682.124 1185.51 623.299 1195.79 550.784 1187.12C523.944 1184.03 493.809 1177.73 467.12 1163.53C440.394 1149.32 420.73 1129.59 402.32 1110.56C367.182 1074.52 332.789 1037.38 318.994 997.887C300.915 944.626 314.763 888.599 293.945 821.686C280.164 776.159 253.414 736.024 231.83 689.926C215.14 654.398 226.711 631.667 233.839 604.301C251.719 536.731 275.922 478.586 307.012 436.691C346.452 382.96 397.042 353.761 450.021 327.805C512.587 296.746 578.728 267.213 650.259 235.032C722.654 203.615 800.441 169.548 906.258 147.085C922.228 143.739 942.385 141.875 960.331 151.912C973.63 159.338 981.282 171.016 988.205 181.988C1033.69 254.065 1071.95 330.779 1108.05 416.023C1119.39 442.676 1130.4 471.794 1128.68 497.952C1127.44 517.288 1119.69 532.727 1112.73 547.897Z" stroke="white" stroke-opacity="0.35" stroke-width="3.0744" stroke-miterlimit="10" stroke-linecap="round" stroke-linejoin="round" stroke-dasharray="0.03 13.78"/>
<path d="M1106.02 553.585C1053.07 679.478 1025.72 819.067 974.438 926.53C923.573 1035.25 853.577 1117.72 737.666 1163.7C690.749 1182.15 634.591 1193.38 565.32 1186.33C539.675 1183.84 510.874 1178.26 485.114 1164.66C459.28 1151.03 440.028 1131.64 421.863 1112.93C387.469 1077.54 353.487 1041.03 339.173 1001.68C320.326 948.582 332.157 892.346 311.035 826.22C296.995 781.149 270.673 741.658 249.264 696.223C232.712 661.204 243.693 638.598 250.394 611.53C267.169 544.836 290.618 487.795 320.931 446.758C359.392 394.16 408.919 365.688 460.643 340.268C521.73 309.861 586.129 280.776 655.126 248.514C724.928 216.966 799.326 182.239 898.997 156.992C914.049 153.224 933.062 150.786 950.385 160.42C963.24 167.557 970.888 179.158 977.842 190.062C1023.45 261.556 1062.31 337.799 1098.93 422.302C1110.43 448.73 1121.65 477.605 1120.52 503.673C1119.7 522.971 1112.5 538.436 1106.02 553.585Z" stroke="white" stroke-opacity="0.35" stroke-width="3.2409" stroke-miterlimit="10" stroke-linecap="round" stroke-linejoin="round" stroke-dasharray="0.03 13.75"/>
<path d="M1099.5 559.437C1050.34 684.72 1023.37 820.885 973.284 925.908C923.562 1032.19 855.383 1113.18 744.126 1159.81C699.221 1178.72 645.59 1190.72 579.465 1185.2C554.975 1183.26 527.465 1178.37 502.608 1165.35C477.643 1152.28 458.748 1133.24 440.897 1114.86C407.149 1080.14 373.705 1044.26 358.925 1005.11C339.387 952.232 349.315 895.883 327.94 830.589C313.67 786.006 287.791 747.169 266.581 702.416C250.18 667.921 260.593 645.46 266.888 618.703C282.606 552.926 305.308 497.003 334.855 456.826C372.342 405.37 420.801 377.618 471.272 352.738C530.89 322.99 593.563 294.366 660.089 262.082C727.362 230.459 798.491 195.175 892.285 167.383C906.459 163.226 924.378 160.259 941.097 169.504C953.516 176.36 961.152 187.88 968.131 198.704C1013.78 269.542 1053.12 345.225 1090.17 428.904C1101.81 455.077 1113.2 483.683 1112.62 509.628C1112.21 528.859 1105.53 544.33 1099.5 559.437Z" stroke="white" stroke-opacity="0.35" stroke-width="3.4074" stroke-miterlimit="10" stroke-linecap="round" stroke-linejoin="round" stroke-dasharray="0.03 13.73"/>
<path d="M1093.16 565.446C1047.59 689.953 1021.01 822.704 972.125 925.281C923.534 1029.11 857.039 1108.36 750.44 1155.79C707.442 1175.01 656.301 1187.81 593.214 1183.71C569.844 1182.3 543.582 1178.06 519.604 1165.6C495.489 1153.07 476.957 1134.38 459.422 1116.33C426.328 1082.29 393.44 1047.06 378.248 1008.15C358.096 955.564 366.227 899.201 344.649 834.786C330.191 790.722 304.764 752.548 283.773 708.497C267.543 674.537 277.41 652.242 283.313 625.815C298.018 560.997 319.989 506.198 348.77 466.884C385.29 416.571 432.672 389.537 481.899 365.201C540.051 336.116 601.012 307.969 665.133 275.719C729.946 244.082 797.916 208.341 886.099 178.237C899.429 173.724 916.305 170.274 932.435 179.143C944.432 185.73 952.049 197.155 959.032 207.893C1004.65 278.007 1044.38 353.044 1081.76 435.814C1093.51 461.712 1105.04 490.018 1104.98 515.807C1104.94 534.948 1098.76 550.402 1093.16 565.446Z" stroke="white" stroke-opacity="0.35" stroke-width="3.5738" stroke-miterlimit="10" stroke-linecap="round" stroke-linejoin="round" stroke-dasharray="0.03 13.7"/>
<path d="M1086.99 571.609C1044.83 695.175 1018.66 824.522 970.967 924.657C923.505 1026.03 858.69 1103.54 756.613 1151.65C715.465 1171.12 666.732 1184.65 606.578 1181.9C584.289 1180.98 559.235 1177.34 536.119 1165.42C512.836 1153.42 494.666 1135.09 477.453 1117.37C445.022 1084.02 412.708 1049.44 397.156 1010.82C376.464 958.6 382.902 902.318 361.171 838.819C346.558 795.304 321.594 757.805 300.841 714.475C284.797 681.065 294.141 658.954 299.668 632.87C313.408 569.05 334.657 515.387 362.679 476.945C398.232 427.778 444.536 401.458 492.523 377.668C549.212 349.249 608.482 321.595 670.258 289.435C732.679 257.843 797.605 221.745 880.428 189.551C892.959 184.719 908.836 180.825 924.395 189.335C935.979 195.662 943.566 206.985 950.546 217.626C996.046 286.948 1036.07 361.25 1073.7 443.034C1085.53 468.628 1097.17 496.61 1097.58 522.209C1097.9 541.237 1092.18 556.646 1086.99 571.609Z" stroke="white" stroke-opacity="0.35" stroke-width="3.7403" stroke-miterlimit="10" stroke-linecap="round" stroke-linejoin="round" stroke-dasharray="0.03 13.67"/>
<path d="M1080.99 577.925C1042.06 700.386 1016.31 826.347 969.809 924.031C923.48 1022.95 860.341 1098.72 762.65 1147.39C723.299 1167.07 676.894 1181.24 619.575 1179.74C598.329 1179.28 574.445 1176.23 552.171 1164.83C529.699 1153.34 511.895 1135.36 495.011 1117.99C463.254 1085.33 431.525 1051.43 415.663 1013.14C394.504 961.344 399.355 905.23 377.519 842.697C362.783 799.76 338.296 762.947 317.8 720.352C301.957 687.507 310.799 665.599 315.969 639.874C328.784 577.09 349.327 524.575 376.594 487.005C411.187 438.991 456.407 413.378 503.156 390.141C558.39 362.392 615.981 335.242 675.476 303.225C735.562 271.733 797.55 235.371 875.262 201.312C887.029 196.192 901.953 191.897 916.954 200.058C928.139 206.135 935.682 217.35 942.653 227.883C987.967 296.346 1028.18 369.831 1065.98 450.55C1077.85 475.818 1089.59 503.45 1090.43 528.825C1091.06 547.714 1085.8 563.06 1080.99 577.925Z" stroke="white" stroke-opacity="0.35" stroke-width="3.9068" stroke-miterlimit="10" stroke-linecap="round" stroke-linejoin="round" stroke-dasharray="0.03 13.65"/>
<path d="M1075.16 584.384C1039.28 705.588 1013.96 828.169 968.653 923.407C923.453 1019.87 861.987 1093.9 768.553 1143.01C730.942 1162.84 686.781 1177.6 632.203 1177.27C611.966 1177.24 589.208 1174.72 567.757 1163.83C546.075 1152.83 528.645 1135.21 512.089 1118.18C481.017 1086.23 449.891 1053.01 433.771 1015.11C412.216 963.797 415.582 907.942 393.69 846.414C378.862 804.085 354.864 767.967 334.647 726.127C319.018 693.859 327.378 672.176 332.208 646.82C344.141 585.113 363.988 533.753 390.501 497.06C424.143 450.203 468.272 425.293 513.789 402.612C567.569 375.537 623.499 348.905 680.768 317.084C738.583 285.744 797.737 249.213 870.583 213.503C881.622 208.127 895.636 203.471 910.097 211.298C920.891 217.132 928.383 228.229 935.331 238.646C980.384 306.186 1020.71 378.769 1058.57 458.349C1070.47 483.267 1082.26 510.523 1083.5 535.645C1084.44 554.378 1079.6 569.638 1075.16 584.384Z" stroke="white" stroke-opacity="0.35" stroke-width="4.0733" stroke-miterlimit="10" stroke-linecap="round" stroke-linejoin="round" stroke-dasharray="0.03 13.62"/>
<path d="M1069.49 590.986C1036.48 710.778 1011.61 829.996 967.494 922.781C923.429 1016.79 863.63 1089.07 774.321 1138.51C738.397 1158.46 696.405 1173.72 644.474 1174.48C625.213 1174.84 603.542 1172.83 582.894 1162.44C561.987 1151.91 544.93 1134.66 528.712 1117.97C498.33 1086.74 467.822 1054.22 451.49 1016.73C429.61 965.969 431.59 910.462 409.687 849.981C394.803 808.286 371.3 772.874 351.381 731.806C335.978 700.126 343.882 678.684 348.385 653.714C359.481 593.119 378.641 542.925 404.41 507.113C437.103 461.417 480.137 437.207 524.425 415.084C576.757 388.688 631.04 362.589 686.14 331.012C741.745 299.879 798.167 263.266 866.382 226.112C876.725 220.513 889.883 215.531 903.814 223.039C914.227 228.642 921.659 239.612 928.576 249.904C973.296 316.457 1013.63 388.061 1051.49 466.429C1063.39 490.975 1075.2 517.827 1076.81 542.666C1078.03 561.222 1073.58 576.375 1069.49 590.986Z" stroke="white" stroke-opacity="0.35" stroke-width="4.2397" stroke-miterlimit="10" stroke-linecap="round" stroke-linejoin="round" stroke-dasharray="0.03 13.59"/>
<path d="M1063.97 597.725C1033.68 715.959 1009.26 831.822 966.334 922.155C923.401 1013.71 865.268 1084.24 779.959 1133.89C745.67 1153.91 705.772 1169.61 656.392 1171.38C638.07 1172.1 617.454 1170.57 597.588 1160.65C577.436 1150.58 560.757 1133.69 544.88 1117.36C515.198 1086.84 485.322 1055.04 468.829 1018.01C446.688 967.86 447.38 912.788 425.511 853.396C410.602 812.364 387.609 777.666 368.004 737.386C352.849 706.308 360.31 685.125 364.504 660.555C374.804 601.11 393.287 552.091 418.312 517.163C450.059 472.634 491.996 449.118 535.059 427.56C585.947 401.845 638.597 376.292 691.586 345.009C745.036 314.133 798.827 277.53 862.637 239.134C872.319 233.34 884.656 228.076 898.076 235.273C908.12 240.654 915.483 251.49 922.356 261.647C966.682 327.153 1006.94 397.698 1044.71 474.785C1056.58 498.936 1068.4 525.362 1070.34 549.889C1071.81 568.241 1067.73 583.269 1063.97 597.725Z" stroke="white" stroke-opacity="0.35" stroke-width="4.4062" stroke-miterlimit="10" stroke-linecap="round" stroke-linejoin="round" stroke-dasharray="0.03 13.57"/>
<path d="M1058.6 604.597C1030.86 721.129 1006.92 833.652 965.179 921.531C923.379 1010.64 866.907 1079.4 785.473 1129.17C752.77 1149.21 714.89 1165.29 667.972 1167.97C650.557 1169.04 630.955 1167.95 611.852 1158.48C592.437 1148.85 576.142 1132.34 560.612 1116.36C531.638 1086.57 502.409 1055.49 485.801 1018.97C463.469 969.487 462.965 914.933 441.174 856.666C426.267 816.325 403.793 782.349 384.524 742.875C369.626 712.41 376.67 691.506 380.565 667.347C390.11 609.089 407.928 561.253 432.216 527.215C463.023 483.854 503.855 461.03 545.698 440.037C595.147 415.009 646.176 390.011 697.109 359.07C748.461 328.502 799.713 291.991 859.346 252.552C868.403 246.591 879.962 241.079 892.879 247.979C902.566 253.147 909.85 263.841 916.671 273.854C960.528 338.255 1000.63 407.668 1038.22 483.4C1050.05 507.134 1061.84 533.113 1064.09 557.296C1065.78 575.428 1062.06 590.308 1058.6 604.597Z" stroke="white" stroke-opacity="0.35" stroke-width="4.5727" stroke-miterlimit="10" stroke-linecap="round" stroke-linejoin="round" stroke-dasharray="0.03 13.54"/>
<path d="M1053.37 611.595C1028.03 726.289 1004.58 835.482 964.019 920.905C923.351 1007.56 868.536 1074.57 790.861 1124.33C759.697 1144.35 723.757 1160.74 679.215 1164.27C662.675 1165.65 644.053 1164.97 625.697 1155.94C607.004 1146.74 591.092 1130.6 575.911 1114.98C547.657 1085.93 519.085 1055.58 502.408 1019.61C479.945 970.85 478.34 916.893 456.671 859.79C441.798 820.166 419.855 786.922 400.937 748.269C386.309 718.431 392.953 697.819 396.57 674.088C405.397 617.048 422.561 570.41 446.114 537.26C475.986 495.073 515.712 472.936 556.338 452.513C604.346 428.171 653.771 403.743 702.697 373.19C752.007 342.977 800.815 306.641 856.484 266.349C864.948 260.252 875.768 254.527 888.198 261.143C897.533 266.106 904.732 276.65 911.492 286.513C954.819 349.747 994.674 417.957 1032.03 492.27C1043.78 515.569 1055.52 541.073 1058.03 564.888C1059.94 582.78 1056.54 597.494 1053.37 611.595Z" stroke="white" stroke-opacity="0.35" stroke-width="4.7392" stroke-miterlimit="10" stroke-linecap="round" stroke-linejoin="round" stroke-dasharray="0.03 13.51"/>
<path d="M1048.29 618.72C1025.19 731.439 1002.23 837.314 962.863 920.282C923.326 1004.48 870.167 1069.73 796.13 1119.39C766.453 1139.34 732.388 1155.98 690.133 1160.29C674.438 1161.94 656.759 1161.64 639.135 1153.03C621.145 1144.25 605.622 1128.48 590.797 1113.23C563.266 1084.92 535.371 1055.32 518.665 1019.94C496.139 971.958 493.521 918.677 472.013 862.778C457.204 823.894 435.8 791.394 417.255 753.577C402.909 724.376 409.172 704.076 412.521 680.783C420.67 624.997 437.189 579.56 460.012 547.308C488.954 506.297 527.566 484.844 566.98 464.993C662.353 419.659 752.443 364.407 854.045 280.523C861.946 274.315 872.068 268.413 884.025 274.756C893.019 279.521 900.125 289.907 906.812 299.611C949.541 361.626 989.079 428.559 1026.11 501.387C1037.77 524.23 1049.43 549.239 1052.19 572.656C1054.27 590.287 1051.19 604.819 1048.29 618.72Z" stroke="white" stroke-opacity="0.35" stroke-width="4.9056" stroke-miterlimit="10" stroke-linecap="round" stroke-linejoin="round" stroke-dasharray="0.03 13.49"/>
<path d="M1043.34 625.962C1022.34 736.578 999.897 839.147 961.705 919.657C923.304 1001.41 871.793 1064.89 801.281 1114.34C773.044 1134.19 740.782 1151.02 700.734 1156.02C685.851 1157.93 669.081 1157.98 652.172 1149.78C634.869 1141.39 619.735 1126 605.27 1111.12C578.473 1083.56 551.262 1054.72 534.575 1019.96C512.044 972.811 508.502 920.288 487.201 865.627C472.486 827.512 451.632 795.763 433.471 758.796C419.425 730.243 425.324 710.271 428.422 687.429C435.929 632.929 451.813 588.706 473.909 557.351C501.925 517.522 539.423 496.746 577.625 477.473C669.933 433.344 757.311 379.732 852.015 295.054C859.384 288.764 868.845 282.718 880.341 288.798C889.002 293.372 896.008 303.596 902.613 313.132C944.689 373.872 983.826 439.462 1020.47 510.742C1032.01 533.109 1043.57 557.603 1046.54 580.598C1048.78 597.95 1045.98 612.278 1043.34 625.962Z" stroke="white" stroke-opacity="0.35" stroke-width="5.0721" stroke-miterlimit="10" stroke-linecap="round" stroke-linejoin="round" stroke-dasharray="0.03 13.46"/>
<path d="M1038.53 633.32C1019.48 741.707 997.558 840.981 960.549 919.031C923.282 998.328 873.416 1060.04 806.313 1109.19C779.473 1128.89 748.948 1145.85 711.023 1151.47C696.924 1153.61 681.03 1153.98 664.817 1146.18C648.186 1138.17 633.445 1123.17 619.344 1108.66C593.288 1081.86 566.774 1053.79 550.147 1019.69C527.675 973.426 523.29 921.73 502.235 868.344C487.64 831.021 467.343 800.029 449.589 763.933C435.849 736.038 441.404 716.408 444.266 694.031C451.17 640.853 466.43 597.849 487.801 567.395C514.895 528.751 551.268 508.651 588.265 489.956C677.525 447.05 762.186 395.073 850.372 309.935C857.238 303.588 866.074 297.431 877.121 303.258C885.457 307.654 892.353 317.704 898.87 327.065C940.229 386.479 978.894 450.658 1015.08 520.33C1026.48 542.203 1037.92 566.157 1041.06 588.707C1043.45 605.761 1040.93 619.87 1038.53 633.32Z" stroke="white" stroke-opacity="0.35" stroke-width="5.2386" stroke-miterlimit="10" stroke-linecap="round" stroke-linejoin="round" stroke-dasharray="0.03 13.43"/>
<path d="M1033.83 640.79C1016.6 746.827 995.22 842.817 959.391 918.407C923.257 995.255 875.035 1055.2 811.238 1103.94C785.749 1123.46 756.894 1140.49 721.012 1146.66C707.667 1149 692.619 1149.66 677.088 1142.24C661.11 1134.61 646.768 1119.99 633.034 1105.85C607.725 1079.82 581.926 1052.53 565.398 1019.12C543.039 973.798 537.898 923.009 517.125 870.932C502.676 834.425 482.95 804.201 465.615 768.983C452.198 741.76 457.426 722.491 460.061 700.586C466.394 648.76 481.039 606.982 501.694 577.436C527.867 539.98 563.119 520.553 598.912 502.438C685.144 460.772 767.081 410.422 849.113 325.149C855.502 318.771 863.751 312.532 874.359 318.118C882.384 322.338 889.158 332.211 895.578 341.391C936.163 399.425 974.284 462.134 1009.95 530.136C1021.19 551.497 1032.47 574.896 1035.78 596.971C1038.29 613.712 1036.01 627.583 1033.83 640.79Z" stroke="white" stroke-opacity="0.35" stroke-width="5.405" stroke-miterlimit="10" stroke-linecap="round" stroke-linejoin="round" stroke-dasharray="0.03 13.41"/>
<path d="M1029.26 648.365C1013.71 751.934 992.884 844.653 958.233 917.78C923.233 992.179 876.652 1050.34 816.051 1098.59C791.867 1117.88 764.621 1134.93 730.71 1141.59C718.088 1144.11 703.855 1145.03 688.987 1137.98C673.654 1130.7 659.707 1116.47 646.346 1102.71C621.795 1077.45 596.718 1050.95 580.33 1018.27C558.14 973.94 552.325 924.124 531.872 873.39C517.595 837.723 498.45 808.275 481.55 773.952C468.467 747.409 473.385 728.515 475.81 707.097C481.609 656.65 495.648 616.114 515.587 587.472C540.847 551.208 574.97 532.452 609.561 514.921C692.784 474.511 771.992 425.781 848.221 340.688C854.164 334.299 861.861 328.016 872.039 333.367C879.755 337.42 886.405 347.109 892.721 356.099C932.479 412.705 969.984 473.879 1005.06 540.157C1016.12 560.988 1027.24 583.81 1030.67 605.389C1033.28 621.8 1031.23 635.418 1029.26 648.365Z" stroke="white" stroke-opacity="0.35" stroke-width="5.5715" stroke-miterlimit="10" stroke-linecap="round" stroke-linejoin="round" stroke-dasharray="0.03 13.38"/>
<path d="M1024.8 656.043C1010.82 757.033 990.551 846.489 957.076 917.155C923.214 989.103 878.261 1045.49 820.756 1093.15C797.839 1112.18 772.136 1129.19 740.117 1136.27C728.197 1138.94 714.743 1140.1 700.528 1133.4C685.819 1126.47 672.277 1112.62 659.29 1099.25C635.499 1074.76 611.159 1049.06 594.949 1017.15C572.984 973.854 566.569 925.083 546.477 875.724C532.4 840.919 513.84 812.255 497.394 778.842C484.653 752.99 489.281 734.487 491.504 713.565C496.799 664.53 510.244 625.237 529.472 597.51C553.823 562.442 586.813 544.35 620.203 527.404C700.433 488.265 776.903 441.15 847.674 356.537C853.193 350.165 860.366 343.86 870.131 348.988C877.547 352.881 884.066 362.379 890.266 371.172C929.144 426.304 965.966 485.885 1000.39 550.385C1011.26 570.668 1022.18 592.893 1025.71 613.955C1028.42 630.02 1026.59 643.368 1024.8 656.043Z" stroke="white" stroke-opacity="0.35" stroke-width="5.738" stroke-miterlimit="10" stroke-linecap="round" stroke-linejoin="round" stroke-dasharray="0.03 13.36"/>
<path d="M1020.45 663.817C1007.91 762.121 988.217 848.329 955.916 916.53C923.188 986.031 879.867 1040.63 825.354 1087.62C803.661 1106.35 779.443 1123.26 749.248 1130.7C737.998 1133.5 725.301 1134.87 711.719 1128.51C697.621 1121.91 684.484 1108.45 671.876 1095.47C648.858 1071.76 625.263 1046.88 609.268 1015.77C587.578 973.553 580.644 925.89 560.947 877.94C547.093 844.019 529.13 816.144 513.15 783.654C500.767 758.503 505.115 740.403 507.153 719.992C511.981 672.396 524.838 634.358 543.357 607.543C566.803 573.676 598.653 556.246 630.852 539.889C708.105 502.036 781.831 456.529 847.469 372.686C852.593 366.351 859.277 360.054 868.633 364.969C875.759 368.707 882.137 378.008 888.219 386.599C926.164 440.209 962.238 498.143 995.954 560.81C1006.61 580.529 1017.32 602.142 1020.93 622.662C1023.69 638.366 1022.06 651.429 1020.45 663.817Z" stroke="white" stroke-opacity="0.35" stroke-width="5.9045" stroke-miterlimit="10" stroke-linecap="round" stroke-linejoin="round" stroke-dasharray="0.03 13.33"/>
<path d="M1016.21 671.686C1004.99 767.2 985.886 850.168 954.758 915.905C923.167 982.954 881.47 1035.76 829.852 1082C809.344 1100.39 786.553 1117.16 758.107 1124.89C747.503 1127.79 735.531 1129.35 722.572 1123.32C709.072 1117.04 696.344 1103.98 684.12 1091.38C661.876 1068.47 639.039 1044.41 623.298 1014.12C601.94 973.037 594.557 926.551 575.286 880.04C561.68 847.023 544.322 819.949 528.825 788.395C516.808 763.955 520.896 746.273 522.76 726.38C527.148 680.252 539.428 643.473 557.241 617.579C579.783 584.913 610.498 568.141 641.5 552.376C715.793 515.823 786.768 471.917 847.586 389.121C852.34 382.847 858.564 376.584 867.524 381.293C874.365 384.887 880.597 393.983 886.55 402.364C923.511 454.409 958.778 510.638 991.727 571.423C1002.14 590.563 1012.62 611.546 1016.29 631.506C1019.11 646.829 1017.65 659.594 1016.21 671.686Z" stroke="white" stroke-opacity="0.35" stroke-width="6.071" stroke-miterlimit="10" stroke-linecap="round" stroke-linejoin="round" stroke-dasharray="0.03 13.3"/>
<path d="M1012.07 679.642C1002.06 772.269 983.555 852.008 953.601 915.279C923.147 979.88 883.068 1030.9 834.255 1076.29C814.89 1094.31 793.471 1110.88 766.708 1118.85C756.724 1121.84 745.45 1123.56 733.097 1117.84C720.182 1111.87 707.866 1099.2 696.028 1087C674.566 1064.88 652.498 1041.65 637.041 1012.23C616.062 972.315 608.3 927.067 589.494 882.026C576.16 849.934 559.415 823.668 544.411 793.061C532.772 769.339 536.617 752.09 538.317 732.727C542.297 688.093 554.007 652.583 571.12 627.608C592.763 596.148 622.334 580.033 652.148 564.86C723.493 529.62 791.709 487.311 848.011 405.829C852.416 399.636 858.212 393.434 866.784 397.947C873.349 401.397 879.428 410.285 885.247 418.451C921.18 468.89 955.575 523.36 987.705 582.215C997.872 600.762 1008.1 621.098 1011.8 640.477C1014.65 655.408 1013.36 667.862 1012.07 679.642Z" stroke="white" stroke-opacity="0.35" stroke-width="6.2374" stroke-miterlimit="10" stroke-linecap="round" stroke-linejoin="round" stroke-dasharray="0.03 13.28"/>
<path d="M1008.03 687.685C999.116 777.329 981.225 853.85 952.443 914.655C923.126 976.81 884.663 1026.03 838.559 1070.49C820.303 1088.12 800.198 1104.44 775.054 1112.59C765.669 1115.64 755.064 1117.5 743.306 1112.09C730.963 1106.41 719.059 1094.14 707.611 1082.33C686.938 1061.01 665.65 1038.63 650.514 1010.09C629.961 971.394 621.894 927.444 603.583 883.903C590.542 852.757 574.419 827.305 559.926 797.659C548.676 774.667 552.287 757.862 553.836 739.04C557.438 695.925 568.589 661.693 585.003 637.642C605.751 607.392 634.177 591.929 662.799 577.35C731.213 543.435 796.663 502.718 848.74 422.807C852.816 416.712 858.212 410.598 866.407 414.92C872.702 418.235 878.619 426.909 884.295 434.852C919.154 483.644 952.624 536.307 983.88 593.185C993.78 611.123 1003.74 630.796 1007.45 649.575C1010.32 664.098 1009.18 676.223 1008.03 687.685Z" stroke="white" stroke-opacity="0.35" stroke-width="6.4039" stroke-miterlimit="10" stroke-linecap="round" stroke-linejoin="round" stroke-dasharray="0.03 13.25"/>
<path d="M1004.07 695.806C996.163 782.38 978.898 855.692 951.287 914.03C923.107 973.736 886.254 1021.15 842.773 1064.61C825.59 1081.81 806.746 1097.84 783.154 1106.1C774.342 1109.2 764.383 1111.17 753.208 1106.05C741.425 1100.66 729.939 1088.8 718.883 1077.38C699.005 1056.87 678.503 1035.33 663.723 1007.72C643.644 970.281 635.335 927.686 617.55 885.672C604.825 855.491 589.334 830.859 575.362 802.187C564.509 779.931 567.906 763.587 569.315 745.311C572.567 703.744 583.165 670.795 598.884 647.67C618.741 618.631 646.016 603.819 673.452 589.837C738.948 557.257 801.626 518.123 849.75 440.027C853.522 434.05 858.542 428.048 866.37 432.188C872.399 435.374 878.152 443.825 883.68 451.545C917.419 498.649 949.912 549.458 980.244 604.315C989.863 621.631 999.538 640.625 1003.23 658.786C1006.1 672.888 1005.1 684.677 1004.07 695.806Z" stroke="white" stroke-opacity="0.35" stroke-width="6.5704" stroke-miterlimit="10" stroke-linecap="round" stroke-linejoin="round" stroke-dasharray="0.03 13.22"/>
<path d="M1000.2 704.003C993.199 787.42 976.569 857.535 950.127 913.403C923.084 970.661 887.837 1016.27 846.891 1058.65C830.746 1075.38 813.114 1091.08 791.017 1099.41C782.754 1102.53 773.417 1104.59 762.81 1099.76C751.572 1094.64 740.505 1083.18 729.844 1072.17C710.77 1052.46 691.067 1031.78 676.67 1005.12C657.106 968.974 648.623 927.795 631.397 887.335C619.01 858.139 604.155 834.332 590.722 806.648C580.276 785.138 583.47 769.264 584.748 751.547C587.678 711.55 597.732 679.89 612.759 657.696C631.729 629.873 657.85 615.708 684.103 602.323C746.691 571.093 806.591 533.534 851.027 457.487C854.517 451.647 859.188 445.779 866.654 449.744C872.425 452.808 878.004 461.032 883.377 468.517C915.956 513.899 947.418 562.807 976.777 615.6C986.097 632.28 995.472 650.582 999.137 668.106C1002 681.779 1001.12 693.216 1000.2 704.003Z" stroke="white" stroke-opacity="0.35" stroke-width="6.7368" stroke-miterlimit="10" stroke-linecap="round" stroke-linejoin="round" stroke-dasharray="0.03 13.2"/>
<path d="M996.409 712.272C990.23 792.451 974.243 859.378 948.971 912.779C923.067 967.589 889.42 1011.39 850.926 1052.62C835.782 1068.86 819.314 1084.17 798.648 1092.51C790.918 1095.64 782.172 1097.77 772.125 1093.21C761.425 1088.36 750.777 1077.3 740.517 1066.69C722.248 1047.8 703.353 1027.99 689.372 1002.3C670.371 967.491 661.772 927.781 645.133 888.903C633.104 860.707 618.893 837.737 606.008 811.047C595.981 790.291 598.986 774.901 600.143 757.751C602.777 719.348 612.297 688.986 626.635 667.722C644.719 641.117 669.687 627.598 694.755 614.812C754.451 584.94 811.563 548.952 852.559 475.175C855.783 469.49 860.131 463.778 867.244 467.575C872.759 470.518 878.163 478.512 883.375 485.758C914.755 529.378 945.135 576.347 973.478 627.036C982.487 643.069 991.544 660.664 995.162 677.536C998 690.762 997.226 701.838 996.409 712.272Z" stroke="white" stroke-opacity="0.35" stroke-width="6.9033" stroke-miterlimit="10" stroke-linecap="round" stroke-linejoin="round" stroke-dasharray="0.03 13.17"/>
<path d="M992.696 720.607C987.247 797.472 971.915 861.224 947.812 912.152C923.046 964.514 890.997 1006.5 854.875 1046.51C840.7 1062.22 825.346 1077.12 806.059 1085.42C798.837 1088.53 790.664 1090.71 781.163 1086.41C770.988 1081.81 760.762 1071.17 750.905 1060.96C733.449 1042.9 715.369 1023.96 701.834 999.27C683.435 965.829 674.784 927.637 658.76 890.367C647.11 863.191 633.551 841.059 621.226 815.379C611.625 795.382 614.454 780.491 615.503 763.916C617.863 727.127 626.857 698.073 640.509 677.743C657.714 652.36 681.524 639.483 705.407 627.296C762.218 598.794 816.54 564.37 854.334 493.073C857.313 487.557 861.36 482.021 868.128 485.657C873.396 488.489 878.616 496.242 883.664 503.248C913.804 545.073 943.059 590.058 970.341 638.606C979.025 653.981 987.751 670.855 991.302 687.058C994.099 699.833 993.42 710.534 992.696 720.607Z" stroke="white" stroke-opacity="0.35" stroke-width="7.0698" stroke-miterlimit="10" stroke-linecap="round" stroke-linejoin="round" stroke-dasharray="0.03 13.14"/>
<path d="M989.053 729.005C984.251 802.484 969.59 863.068 946.654 911.527C923.028 961.442 892.566 1001.61 858.742 1040.33C845.506 1055.49 831.221 1069.92 813.255 1078.14C806.523 1081.21 798.9 1083.42 789.936 1079.38C780.273 1075.03 770.475 1064.79 761.023 1055C744.382 1037.76 727.127 1019.7 714.066 996.037C696.31 964.002 687.661 927.381 672.281 891.744C661.026 865.603 648.127 844.318 636.377 819.657C627.211 800.43 629.877 786.044 630.825 770.054C632.942 734.906 641.368 707.092 654.381 687.768C670.658 663.521 693.355 651.372 716.058 639.786C769.998 612.661 821.522 579.797 856.336 511.178C859.087 505.848 862.856 500.507 869.282 503.988C874.31 506.707 879.34 514.224 884.217 520.979C913.084 560.981 941.169 603.941 967.35 650.312C975.697 665.015 984.076 681.16 987.543 696.679C990.29 708.987 989.698 719.301 989.053 729.005Z" stroke="white" stroke-opacity="0.35" stroke-width="7.2363" stroke-miterlimit="10" stroke-linecap="round" stroke-linejoin="round" stroke-dasharray="0.03 13.12"/>
<path d="M985.476 737.463C981.247 807.49 967.265 864.914 945.495 910.903C923.01 958.374 894.134 996.717 862.529 1034.07C850.203 1048.66 836.939 1062.59 820.247 1070.68C813.983 1073.7 806.889 1075.92 798.449 1072.13C789.292 1068.01 779.92 1058.18 770.875 1048.8C755.062 1032.39 738.662 1015.2 726.075 992.609C709.034 961.982 700.408 927.009 685.696 893.031C674.856 867.942 662.625 847.511 651.456 823.877C642.734 805.429 645.249 791.559 646.107 776.163C647.998 742.673 655.919 716.173 668.248 697.793C683.647 674.772 705.182 663.261 726.706 652.279C777.784 626.541 826.503 595.228 858.551 529.475C861.089 524.342 864.6 519.22 870.696 522.548C875.484 525.163 880.322 532.432 885.021 538.937C912.582 577.081 939.451 617.985 964.495 662.143C972.493 676.165 980.51 691.566 983.879 706.387C986.568 718.215 986.048 728.137 985.476 737.463Z" stroke="white" stroke-opacity="0.35" stroke-width="7.4027" stroke-miterlimit="10" stroke-linecap="round" stroke-linejoin="round" stroke-dasharray="0.03 13.09"/>
<path d="M981.961 745.972C978.234 812.484 964.94 866.759 944.34 910.277C922.992 955.303 895.695 991.814 866.243 1027.76C854.794 1041.73 842.516 1055.13 827.041 1063.04C821.23 1066 814.643 1068.21 806.72 1064.65C798.056 1060.76 789.114 1051.35 780.482 1042.38C765.492 1026.81 749.935 1010.5 737.874 988.988C721.548 959.832 713.035 926.525 699.017 894.227C688.611 870.203 677.052 850.629 666.48 828.038C658.208 810.371 660.585 797.032 661.36 782.235C663.053 750.425 670.463 725.249 682.118 707.81C696.644 686.015 717.013 675.143 737.359 664.765C785.585 640.42 831.49 610.655 860.971 547.942C863.314 543.023 866.586 538.136 872.353 541.318C876.907 543.832 881.546 550.851 886.065 557.098C912.284 593.356 937.862 632.218 961.773 674.082C969.397 687.43 977.058 702.06 980.309 716.17C982.927 727.515 982.468 737.032 981.961 745.972Z" stroke="white" stroke-opacity="0.35" stroke-width="7.5692" stroke-miterlimit="10" stroke-linecap="round" stroke-linejoin="round" stroke-dasharray="0.03 13.06"/>
<path d="M978.5 754.531C975.21 817.468 962.616 868.606 943.18 909.651C922.973 952.23 897.253 986.909 869.878 1021.37C859.281 1034.72 847.945 1047.54 833.645 1055.23C828.265 1058.11 822.168 1060.3 814.75 1056.96C806.57 1053.29 798.06 1044.29 789.842 1035.74C775.685 1021.01 760.975 1005.6 749.466 985.187C733.893 957.532 725.541 925.932 712.243 895.339C702.286 872.397 691.407 853.688 681.442 832.146C673.632 815.267 675.878 802.467 676.582 788.279C678.093 758.166 685.007 734.32 695.985 717.826C709.644 697.265 728.845 687.024 748.012 677.251C793.391 654.308 836.479 626.081 863.575 566.574C865.736 561.881 868.79 557.243 874.236 560.287C878.563 562.703 882.995 569.466 887.329 575.455C912.18 609.799 936.468 646.539 959.169 686.129C966.424 698.777 973.698 712.642 976.824 726.029C979.359 736.881 978.954 745.984 978.5 754.531Z" stroke="white" stroke-opacity="0.35" stroke-width="7.7357" stroke-miterlimit="10" stroke-linecap="round" stroke-linejoin="round" stroke-dasharray="0.03 13.04"/>
<path d="M975.091 763.137C972.176 822.447 960.292 870.454 942.022 909.026C922.956 949.162 898.803 982 873.445 1014.92C863.674 1027.62 853.24 1039.83 840.068 1047.27C835.105 1050.05 829.478 1052.19 822.556 1049.08C814.851 1045.62 806.777 1037.04 798.972 1028.9C785.654 1015.02 771.797 1000.52 760.861 981.216C746.073 955.092 737.933 925.242 725.374 896.373C715.885 874.524 705.693 856.687 696.342 836.204C688.998 820.123 691.129 807.871 691.764 794.299C693.118 765.901 699.54 743.391 709.848 727.845C722.64 708.515 740.667 698.909 758.659 689.74C801.197 668.207 841.468 641.514 866.348 585.366C868.343 580.912 871.194 576.539 876.323 579.447C880.427 581.77 884.649 588.274 888.794 593.997C912.247 626.402 935.213 660.992 956.675 698.279C963.551 710.218 970.428 723.31 973.416 735.961C975.857 746.306 975.496 754.991 975.091 763.137Z" stroke="white" stroke-opacity="0.35" stroke-width="7.9022" stroke-miterlimit="10" stroke-linecap="round" stroke-linejoin="round" stroke-dasharray="0.03 13.01"/>
<path d="M971.727 771.782C969.136 827.414 957.969 872.299 940.864 908.4C922.939 946.09 900.349 977.085 876.947 1008.41C867.971 1020.43 858.405 1032.01 846.316 1039.15C841.755 1041.82 836.581 1043.9 830.147 1041.01C822.91 1037.75 815.27 1029.59 807.885 1021.87C795.409 1008.84 782.413 995.241 772.075 977.078C758.104 952.513 750.222 924.451 738.426 897.33C729.415 876.59 719.918 859.626 711.192 840.213C704.322 824.931 706.346 813.243 706.926 800.29C708.137 773.625 714.077 752.456 723.716 737.861C735.644 719.768 752.499 710.79 769.314 702.228C809.023 682.106 846.464 656.945 869.288 604.295C871.127 600.09 873.791 595.999 878.61 598.772C882.495 601.006 886.503 607.247 890.453 612.703C912.484 643.146 934.096 675.559 954.287 710.516C960.772 721.739 967.247 734.047 970.079 745.955C972.42 755.786 972.093 764.043 971.727 771.782Z" stroke="white" stroke-opacity="0.35" stroke-width="8.0686" stroke-miterlimit="10" stroke-linecap="round" stroke-linejoin="round" stroke-dasharray="0.03 12.98"/>
<path d="M968.404 780.464C966.081 832.375 955.644 874.146 939.705 907.773C922.925 943.021 901.89 972.165 880.379 1001.85C872.178 1013.17 863.446 1024.08 852.399 1030.88C848.224 1033.43 843.485 1035.44 837.531 1032.75C830.752 1029.69 823.552 1021.94 816.586 1014.65C804.952 1002.47 792.826 989.791 783.105 972.784C769.979 949.802 762.4 923.568 751.386 898.212C742.873 878.59 734.074 862.508 725.985 844.173C719.595 829.699 721.522 818.578 722.052 806.255C723.138 781.339 728.604 761.519 737.575 747.875C748.644 731.02 764.327 722.672 779.963 714.715C816.845 696.013 851.451 672.377 872.369 623.353C874.067 619.405 876.558 615.612 881.071 618.255C884.737 620.402 888.527 626.373 892.28 631.56C912.864 660.017 933.092 690.227 951.99 722.833C958.075 733.333 964.138 744.848 966.808 756.001C969.038 765.316 968.733 773.136 968.404 780.464Z" stroke="white" stroke-opacity="0.35" stroke-width="8.2351" stroke-miterlimit="10" stroke-linecap="round" stroke-linejoin="round" stroke-dasharray="0.03 12.96"/>
<path d="M965.118 789.178C963.027 837.326 953.323 875.994 938.546 907.149C922.91 939.954 903.427 967.242 883.753 995.228C876.299 1005.83 868.387 1016.08 858.326 1022.48C854.528 1024.9 850.202 1026.81 844.72 1024.32C838.392 1021.45 831.63 1014.13 825.09 1007.26C814.306 995.933 803.052 984.174 793.969 968.34C781.718 946.97 774.484 922.596 764.274 899.026C756.272 880.536 748.177 865.338 740.73 848.091C734.828 834.426 736.666 823.884 737.156 812.197C738.133 789.046 743.132 770.577 751.438 757.889C761.648 742.276 776.153 734.555 790.614 727.203C824.673 709.924 856.447 687.809 875.585 642.529C877.149 638.849 879.484 635.365 883.693 637.882C887.144 639.945 890.716 645.647 894.266 650.558C913.381 677.01 932.202 704.996 949.779 735.23C955.458 744.999 961.099 755.715 963.593 766.103C965.705 774.89 965.42 782.266 965.118 789.178Z" stroke="white" stroke-opacity="0.35" stroke-width="8.4016" stroke-miterlimit="10" stroke-linecap="round" stroke-linejoin="round" stroke-dasharray="0.03 12.93"/>
<path d="M961.862 797.92C959.958 842.274 950.998 877.842 937.388 906.524C922.894 936.886 904.955 962.31 887.065 988.554C880.341 998.414 873.196 1007.94 864.102 1013.94C860.662 1016.21 856.739 1018.02 851.724 1015.73C845.839 1013.03 839.522 1006.14 833.404 999.697C823.472 989.233 813.099 978.399 804.673 963.754C793.325 944.018 786.473 921.535 777.082 899.772C769.601 882.425 762.219 868.115 755.423 851.965C750.017 839.115 751.775 829.164 752.23 818.116C753.118 796.743 757.652 779.636 765.299 767.902C774.651 753.532 787.977 746.435 801.264 739.69C832.506 723.837 861.441 703.241 878.918 661.809C880.359 658.406 882.549 655.24 886.458 657.633C889.697 659.614 893.043 665.041 896.388 669.675C914.015 694.1 931.398 719.845 947.635 747.684C952.903 756.718 958.109 766.628 960.425 776.243C962.413 784.501 962.141 791.43 961.862 797.92Z" stroke="white" stroke-opacity="0.35" stroke-width="8.568" stroke-miterlimit="10" stroke-linecap="round" stroke-linejoin="round" stroke-dasharray="0.03 12.91"/>
<path d="M958.633 806.685C956.881 847.21 948.676 879.69 936.229 905.898C922.878 933.816 906.481 957.375 890.32 981.83C884.304 990.935 877.898 999.708 869.735 1005.27C866.639 1007.39 863.11 1009.08 858.554 1006.98C853.106 1004.46 847.233 997.996 841.539 991.975C832.462 982.378 822.975 972.469 815.226 959.031C804.803 940.951 798.373 920.39 789.82 900.453C782.872 884.253 776.207 870.838 770.074 855.796C765.166 843.765 766.854 834.413 767.279 824.009C768.089 804.428 772.169 788.687 779.157 777.912C787.658 764.787 799.804 758.313 811.914 752.175C840.341 737.752 866.44 718.676 882.353 681.18C883.683 678.058 885.737 675.229 889.349 677.498C892.379 679.4 895.497 684.549 898.636 688.905C914.757 711.283 930.687 734.768 945.558 760.197C950.411 768.488 955.175 777.587 957.302 786.424C959.159 794.144 958.899 800.621 958.633 806.685Z" stroke="white" stroke-opacity="0.35" stroke-width="8.7345" stroke-miterlimit="10" stroke-linecap="round" stroke-linejoin="round" stroke-dasharray="0.03 12.88"/>
<path d="M955.426 815.468C953.801 852.14 946.355 881.536 935.071 905.271C922.863 930.747 907.998 952.429 893.519 975.057C888.19 983.384 882.499 991.382 875.235 996.491C872.473 998.436 869.318 999.997 865.216 998.08C860.198 995.733 854.77 989.697 849.505 984.107C841.287 975.38 832.687 966.401 825.632 954.183C816.158 937.779 810.188 919.166 802.485 901.073C796.086 886.033 790.143 873.519 784.675 859.591C780.275 848.382 781.897 839.635 782.302 829.887C783.047 812.107 786.685 797.738 793.013 787.923C800.664 776.047 811.624 770.193 822.56 764.662C848.178 751.67 871.44 734.115 885.881 700.633C887.106 697.802 889.036 695.313 892.353 697.463C895.174 699.291 898.061 704.155 900.988 708.229C915.585 728.546 930.04 749.757 943.536 772.761C947.963 780.307 952.286 788.587 954.215 796.638C955.937 803.817 955.677 809.834 955.426 815.468Z" stroke="white" stroke-opacity="0.35" stroke-width="8.901" stroke-miterlimit="10" stroke-linecap="round" stroke-linejoin="round" stroke-dasharray="0.03 12.85"/>
<path d="M952.234 824.265C950.715 857.067 944.033 883.384 933.913 904.646C922.85 927.678 909.513 947.481 896.671 968.239C892.01 975.772 887.006 982.977 880.61 987.598C878.172 989.361 875.38 990.784 871.727 989.049C867.131 986.866 862.153 981.263 857.318 976.1C849.964 968.247 842.256 960.203 835.906 949.218C827.406 934.514 821.926 917.868 815.089 901.638C809.246 887.761 804.032 876.151 799.239 863.349C795.352 852.963 796.916 844.835 797.307 835.741C797.996 819.776 801.196 806.784 806.869 797.932C813.673 787.306 823.449 782.072 833.208 777.146C856.018 765.589 876.45 749.556 889.487 720.154C890.613 717.618 892.43 715.481 895.452 717.51C898.069 719.265 900.719 723.844 903.436 727.633C916.5 745.874 929.461 764.8 941.563 785.366C945.56 792.16 949.43 799.619 951.158 806.878C952.737 813.51 952.477 819.065 952.234 824.265Z" stroke="white" stroke-opacity="0.35" stroke-width="9.0675" stroke-miterlimit="10" stroke-linecap="round" stroke-linejoin="round" stroke-dasharray="0.03 12.83"/>
<path d="M949.055 833.074C947.623 861.986 941.708 885.232 932.756 904.019C922.836 924.612 911.021 942.525 899.772 961.38C895.761 968.102 891.42 974.491 885.869 978.6C883.743 980.177 881.304 981.445 878.091 979.886C873.915 977.864 869.385 972.693 864.981 967.962C858.492 960.986 851.683 953.876 846.056 944.139C838.547 931.149 833.597 916.496 827.634 902.146C822.359 889.442 817.879 878.739 813.765 867.071C810.394 857.512 811.909 850.008 812.29 841.578C812.93 827.432 815.704 815.831 820.724 807.94C826.681 798.565 835.272 793.951 843.855 789.63C863.856 779.508 881.472 765.012 893.154 739.731C894.19 737.491 895.896 735.72 898.629 737.628C901.045 739.314 903.457 743.6 905.957 747.107C917.475 763.256 928.928 779.885 939.624 798.004C943.189 804.044 946.604 810.677 948.124 817.141C949.558 823.22 949.291 828.308 949.055 833.074Z" stroke="white" stroke-opacity="0.35" stroke-width="9.2339" stroke-miterlimit="10" stroke-linecap="round" stroke-linejoin="round" stroke-dasharray="0.03 12.8"/>
</g>
</svg>
