<svg width="52" height="52" viewBox="0 0 52 52" fill="none" xmlns="http://www.w3.org/2000/svg">
<rect x="0.5" y="0.5" width="51" height="51" rx="25.5" fill="#22B2EF" fill-opacity="0.45" stroke="black"/>
<path fill-rule="evenodd" clip-rule="evenodd" d="M41 26C41 34.2842 34.2842 41 26 41C17.7157 41 11 34.2842 11 26C11 17.7157 17.7157 11 26 11C34.2842 11 41 17.7157 41 26ZM32.8587 22.0775C33.2435 22.3137 33.4933 22.739 33.4933 23.225L33.5 29.975C33.5 30.7175 32.8925 31.325 32.15 31.325H21.35C20.6075 31.325 20 30.7175 20 29.975V23.225C20 22.739 20.2565 22.3137 20.6412 22.0775L26.75 18.5L32.8587 22.0775ZM32.1433 23.2317V23.225L26.75 20.066L21.35 23.225L26.75 26.6L32.1433 23.2317ZM21.35 29.975V24.8045L26.75 28.193L32.1433 24.8247L32.15 29.975H21.35Z" fill="#22B1EF"/>
</svg>
