<svg width="36" height="35" viewBox="0 0 36 35" fill="none" xmlns="http://www.w3.org/2000/svg">
<rect x="0.0738525" width="35.0561" height="35" rx="17.5" fill="#57F676"/>
<path fill-rule="evenodd" clip-rule="evenodd" d="M27.1262 16.8694C26.9969 11.7824 22.8008 7.69922 17.6335 7.69922C12.5303 7.69922 8.36912 11.6896 8.14679 16.6964C8.14233 16.8338 8.13787 16.9718 8.13787 17.1092C8.13787 18.8887 8.63532 20.5495 9.49789 21.9697L7.78613 27.0165L13.0448 25.3476C14.4056 26.093 15.9709 26.5199 17.6328 26.5199C22.8796 26.5199 27.1292 22.3075 27.1292 17.1099C27.1307 17.029 27.1307 16.9496 27.1262 16.8694ZM17.6343 25.0187C16.0118 25.0187 14.5045 24.5391 13.2426 23.7091L10.1746 24.6854L11.171 21.747C10.2147 20.4418 9.65033 18.8397 9.65033 17.1084C9.65033 16.8508 9.66371 16.5932 9.69048 16.3408C10.0816 12.337 13.4962 9.19888 17.635 9.19888C21.8282 9.19888 25.2732 12.4165 25.593 16.4915C25.6108 16.6957 25.6197 16.8998 25.6197 17.1084C25.619 21.4723 22.0356 25.0187 17.6343 25.0187Z" fill="black"/>
<path fill-rule="evenodd" clip-rule="evenodd" d="M21.9852 19.0098C21.7502 18.8947 20.6066 18.335 20.3932 18.26C20.1798 18.1805 20.0244 18.1449 19.869 18.3758C19.7135 18.6067 19.2644 19.1256 19.1313 19.2763C18.993 19.4315 18.8599 19.4493 18.6242 19.3342C18.3922 19.2192 17.6419 18.9794 16.7518 18.1895C16.0633 17.5814 15.5918 16.8271 15.4587 16.5963C15.3249 16.3654 15.4446 16.2414 15.5613 16.1263C15.6677 16.0194 15.7926 15.8553 15.9123 15.7224C15.9435 15.6824 15.9703 15.6467 15.9963 15.6111C16.0499 15.5272 16.09 15.447 16.1428 15.3357C16.2231 15.1805 16.1837 15.0469 16.1257 14.9318C16.0684 14.816 15.6015 13.6801 15.4052 13.2183C15.2141 12.7565 15.0185 12.8367 14.8809 12.8367C14.7471 12.8367 14.5917 12.8145 14.4363 12.8145C14.2801 12.8145 14.0266 12.8724 13.8131 13.1032C13.6005 13.3341 12.9996 13.8932 12.9996 15.0298C12.9996 15.2963 13.0487 15.5621 13.1201 15.816C13.3551 16.6282 13.8622 17.2986 13.9507 17.4136C14.066 17.5644 15.5606 19.9697 17.9259 20.8977C20.2958 21.8161 20.2958 21.5102 20.7219 21.4701C21.1487 21.4345 22.1005 20.9148 22.2908 20.3736C22.4872 19.8361 22.4871 19.3743 22.4291 19.2771C22.3726 19.1828 22.2165 19.1249 21.9852 19.0098Z" fill="black"/>
</svg>
