<svg width="52" height="52" viewBox="0 0 52 52" fill="none" xmlns="http://www.w3.org/2000/svg">
<path d="M26 0.5C40.0833 0.5 51.5 11.9167 51.5 26C51.5 40.0833 40.0833 51.5 26 51.5C11.9167 51.5 0.5 40.0833 0.5 26C0.5 11.9167 11.9167 0.5 26 0.5Z" fill="#AF57E9" fill-opacity="0.25" stroke="black"/>
<path d="M37.1629 21.0836C38.8968 21.0836 40.3024 19.678 40.3024 17.9441C40.3024 16.2103 38.8968 14.8047 37.1629 14.8047C35.4289 14.8047 34.0234 16.2103 34.0234 17.9441C34.0234 19.678 35.4289 21.0836 37.1629 21.0836Z" fill="#974DFF"/>
<path d="M35.7103 35.1184C35.6087 35.4116 35.795 35.7339 36.1053 35.7339V35.7339H36.1282C38.8189 35.7339 41.0001 33.5528 41.0001 30.8622V23.804C41.0001 23.072 40.4067 22.4785 39.6745 22.4785H37.306C36.6666 22.4785 36.2313 23.195 36.2209 23.8343V23.8343V31.8537C36.2455 32.997 36.0639 34.0971 35.7103 35.1184Z" fill="#974DFF"/>
<path d="M33.2214 31.9053C33.2502 33.1386 31.788 33.4394 31.4353 32.2573C31.3035 31.8156 31.2327 31.3476 31.2327 30.863V24.9726C31.2327 24.4236 31.6778 23.9785 32.2268 23.9785V23.9785C32.7758 23.9785 33.2209 24.4236 33.2209 24.9726V31.8879L33.2214 31.9053V31.9053Z" fill="#974DFF"/>
<path d="M27.8486 19.5712C27.8486 20.3616 28.5481 20.9928 29.2678 20.6661C30.8381 19.9532 31.9301 18.3715 31.9301 16.5348C31.9301 14.0303 29.8997 12 27.3952 12C24.8906 12 22.8602 14.0303 22.8602 16.5348V16.5348C22.8602 16.6794 22.9807 16.7925 23.1253 16.7925H25.0697C26.6045 16.7925 27.8486 18.0366 27.8486 19.5712V19.5712Z" fill="#974DFF"/>
<path d="M24.5875 20.0967C24.6955 20.182 24.8486 20.102 24.8486 19.9644V19.9644C24.8486 19.8697 24.7708 19.793 24.6761 19.793V19.793C24.5186 19.793 24.4421 19.9806 24.5652 20.079C24.5726 20.0849 24.5801 20.0908 24.5875 20.0967Z" fill="#974DFF"/>
<path d="M19.6411 32.1411C19.4911 32.1411 19.3686 32.0203 19.372 31.8703V31.8703V30.6183C19.372 30.4224 19.5308 30.2636 19.7267 30.2636V30.2636C19.9226 30.2636 20.0814 30.1048 20.0814 29.9089V24.8263C20.0814 24.1014 20.669 23.5138 21.3939 23.5138H22.1888C22.4747 23.5138 22.7064 23.282 22.7064 22.9961V22.9961C22.7064 22.7103 22.9382 22.4785 23.224 22.4785H23.7775C24.369 22.4785 24.8486 22.9581 24.8486 23.5496V29.3875C24.8486 30.9083 23.6158 32.1411 22.095 32.1411H19.6411Z" fill="#974DFF"/>
<path d="M23.3058 38.8704C21.2264 37.6683 22.6679 35.141 25.0698 35.141V35.141C26.6046 35.141 27.8487 33.8969 27.8487 32.3623V28.072C27.8487 24.9828 30.353 22.4785 33.4422 22.4785V22.4785C34.1655 22.4964 34.7377 23.0968 34.7209 23.82V31.8703C34.822 36.2113 31.3875 39.8136 27.0466 39.9198C25.6831 39.8865 24.409 39.5082 23.3058 38.8704Z" fill="#974DFF"/>
<path fill-rule="evenodd" clip-rule="evenodd" d="M25.07 18.291H12.2788C11.5726 18.291 11 18.8635 11 19.5698V32.3607C11 33.0668 11.5725 33.6394 12.2788 33.6394H25.07C25.7762 33.6394 26.3488 33.0668 26.3488 32.3607V19.5698C26.3488 18.8635 25.7762 18.291 25.07 18.291ZM15.2065 22.7621C15.2065 23.1763 15.5423 23.5121 15.9565 23.5121H16.519C17.2439 23.5121 17.8315 24.0997 17.8315 24.8246V29.5119C17.8315 29.9261 18.1673 30.2619 18.5815 30.2619V30.2619C18.9957 30.2619 19.3315 29.9261 19.3315 29.5119V24.8246C19.3315 24.0997 19.9191 23.5121 20.644 23.5121H21.2065C21.6207 23.5121 21.9565 23.1763 21.9565 22.7621V22.7621C21.9565 22.3479 21.6207 22.0122 21.2065 22.0122H15.9565C15.5423 22.0122 15.2065 22.3479 15.2065 22.7621V22.7621Z" fill="#974DFF"/>
</svg>
