<svg width="36" height="35" viewBox="0 0 36 35" fill="none" xmlns="http://www.w3.org/2000/svg">
<rect x="0.30542" width="35.0561" height="35" rx="17.5" fill="#DF4B38"/>
<path d="M19.8602 16.9902H12.7358L12.744 19.0274H17.5476C16.9795 21.5077 15.2261 23.0289 12.8726 23.0289C9.786 23.0289 7.2838 20.5307 7.2838 17.449C7.2838 14.3673 9.786 11.8691 12.8726 11.8691C14.3405 11.8691 15.6753 12.4348 16.6724 13.3584L18.2488 12.002C16.8657 10.6412 14.9681 9.80078 12.8734 9.80078C8.64234 9.80078 5.21289 13.2255 5.21289 17.4498C5.21289 21.674 8.64234 25.098 12.8734 25.098C16.9364 25.098 19.8721 22.0044 19.8721 17.7801L19.8602 16.9902Z" fill="white"/>
<path d="M30.0999 17.0749H27.159V14.1387H25.283V17.0749H22.342V18.948H25.283V21.8842H27.159V18.948H30.0999V17.0749Z" fill="white"/>
</svg>
