<svg width="36" height="35" viewBox="0 0 36 35" fill="none" xmlns="http://www.w3.org/2000/svg">
<rect x="0.768433" width="35.0561" height="35" rx="17.5" fill="url(#paint0_radial_315_6449)"/>
<path d="M18.1489 9.43792C20.7307 9.43792 21.0363 9.44758 22.0557 9.49435C22.9986 9.53741 23.5102 9.6948 23.8515 9.82694C24.3029 10.0022 24.6249 10.2115 24.9632 10.5493C25.3015 10.8871 25.5112 11.2086 25.6867 11.6592C25.8191 11.9992 25.9767 12.5107 26.0198 13.4521C26.0667 14.4699 26.0764 14.7751 26.0764 17.3527C26.0764 19.9303 26.0659 20.2354 26.0198 21.2533C25.9767 22.1946 25.8191 22.7054 25.6867 23.0454C25.5112 23.4961 25.3015 23.8183 24.9632 24.1561C24.6249 24.4939 24.3029 24.7025 23.8515 24.8777C23.511 25.0098 22.9986 25.1672 22.0557 25.2103C21.0363 25.2563 20.7307 25.266 18.1489 25.266C15.5672 25.266 15.2615 25.2563 14.2421 25.2103C13.2992 25.1672 12.7876 25.0098 12.4463 24.8777C11.9949 24.7025 11.673 24.4931 11.3346 24.1561C10.9963 23.8183 10.7866 23.4968 10.6111 23.0454C10.4788 22.7054 10.3211 22.1946 10.278 21.2533C10.2311 20.2354 10.2215 19.9303 10.2215 17.3527C10.2215 14.7751 10.2311 14.4699 10.278 13.4521C10.3211 12.5107 10.4788 12 10.6111 11.6592C10.7866 11.2086 10.9963 10.8871 11.3346 10.5493C11.673 10.2115 11.9949 10.0022 12.4463 9.82694C12.7869 9.6948 13.2992 9.53741 14.2421 9.49435C15.2615 9.44832 15.5672 9.43792 18.1489 9.43792ZM18.1489 7.69922C15.5233 7.69922 15.1939 7.71036 14.1625 7.75787C13.1334 7.80464 12.4307 7.96797 11.8157 8.20628C11.18 8.4535 10.6409 8.78313 10.1032 9.31988C9.56562 9.85664 9.23546 10.3949 8.98785 11.0296C8.74841 11.6436 8.58482 12.3452 8.53872 13.3727C8.49187 14.4024 8.48071 14.7313 8.48071 17.3527C8.48071 19.9741 8.49187 20.303 8.53872 21.3327C8.58556 22.3602 8.74916 23.0618 8.98785 23.6757C9.23472 24.3097 9.56488 24.8487 10.1032 25.3855C10.6409 25.9222 11.18 26.2519 11.8157 26.4991C12.4307 26.7374 13.1334 26.9007 14.1625 26.9475C15.1939 26.9943 15.5233 27.0054 18.1489 27.0054C20.7745 27.0054 21.104 26.9943 22.1353 26.9475C23.1644 26.9007 23.8671 26.7374 24.4821 26.4991C25.1179 26.2519 25.6577 25.9222 26.1946 25.3855C26.7322 24.8487 27.0624 24.3105 27.31 23.6757C27.5494 23.0618 27.713 22.3602 27.7591 21.3327C27.806 20.303 27.8171 19.9741 27.8171 17.3527C27.8171 14.7313 27.806 14.4024 27.7591 13.3727C27.7123 12.3452 27.5487 11.6436 27.31 11.0296C27.0631 10.3949 26.7322 9.8559 26.1946 9.31988C25.657 8.78313 25.1179 8.4535 24.4821 8.20628C23.8671 7.96797 23.1644 7.80464 22.1353 7.75787C21.1032 7.71036 20.7745 7.69922 18.1489 7.69922Z" fill="white"/>
<path d="M18.1484 12.3965C15.4061 12.3965 13.1835 14.6155 13.1835 17.3535C13.1835 20.0915 15.4061 22.3105 18.1484 22.3105C20.8908 22.3105 23.1134 20.0915 23.1134 17.3535C23.1134 14.6155 20.8901 12.3965 18.1484 12.3965ZM18.1484 20.5711C16.3683 20.5711 14.9257 19.1308 14.9257 17.3535C14.9257 15.5762 16.3683 14.1359 18.1484 14.1359C19.9286 14.1359 21.3712 15.5762 21.3712 17.3535C21.3712 19.1308 19.9279 20.5711 18.1484 20.5711Z" fill="white"/>
<path d="M24.4699 12.2011C24.4699 12.8411 23.9502 13.36 23.3092 13.36C22.6682 13.36 22.1492 12.8411 22.1492 12.2011C22.1492 11.5619 22.6682 11.043 23.3092 11.043C23.9502 11.043 24.4699 11.5619 24.4699 12.2011Z" fill="white"/>
<defs>
<radialGradient id="paint0_radial_315_6449" cx="0" cy="0" r="1" gradientUnits="userSpaceOnUse" gradientTransform="translate(6.72797 27.65) rotate(-40.1911) scale(35.7951 35.7856)">
<stop offset="0.015" stop-color="#F0C84E"/>
<stop offset="0.26" stop-color="#E37F46"/>
<stop offset="0.545" stop-color="#C74178"/>
<stop offset="0.735" stop-color="#A33D93"/>
<stop offset="1" stop-color="#7A38B2"/>
</radialGradient>
</defs>
</svg>
