<svg width="52" height="52" viewBox="0 0 52 52" fill="none" xmlns="http://www.w3.org/2000/svg">
<path d="M26 0.5C40.0833 0.5 51.5 11.9167 51.5 26C51.5 40.0833 40.0833 51.5 26 51.5C11.9167 51.5 0.5 40.0833 0.5 26C0.5 11.9167 11.9167 0.5 26 0.5Z" fill="#15BD34" fill-opacity="0.25" stroke="black"/>
<path fill-rule="evenodd" clip-rule="evenodd" d="M34.7315 32.1816C34.37 33.2049 32.933 34.0515 31.787 34.2991C31.0025 34.4656 29.9795 34.5974 26.5325 33.1689C22.661 31.565 17.285 25.8515 17.285 22.0493C17.285 20.1137 18.401 17.8599 20.3525 17.8599C21.2915 17.8599 21.4985 17.8782 21.8075 18.6194C22.169 19.4927 23.051 21.6442 23.156 21.8647C23.5895 22.7695 22.715 23.2992 22.0805 24.0869C21.878 24.324 21.6485 24.5804 21.905 25.0215C22.16 25.4536 23.042 26.8911 24.338 28.0449C26.012 29.5364 27.3695 30.0125 27.8555 30.2151C28.217 30.3651 28.649 30.3302 28.913 30.0481C29.2475 29.6865 29.663 29.0865 30.086 28.4954C30.3845 28.0722 30.764 28.0194 31.1615 28.1694C31.43 28.2625 34.8425 29.8473 34.9865 30.1008C35.093 30.2854 35.093 31.1583 34.7315 32.1816ZM26.003 11H25.9955C17.726 11 11 17.728 11 26C11 28.8442 11.7952 31.5102 13.1791 33.7778C13.5775 34.4306 13.7116 35.222 13.4684 35.947V35.947C12.8536 37.7807 14.5834 39.5353 16.4256 38.9466L16.6251 38.8829C17.3373 38.6553 18.1083 38.7739 18.7623 39.1361C20.911 40.3263 23.3757 41 26.003 41C34.2725 41 41 34.272 41 26C41 17.728 34.2725 11 26.003 11Z" fill="#17B434"/>
</svg>
