<svg width="1600" height="615" viewBox="0 0 1600 615" fill="none" xmlns="http://www.w3.org/2000/svg">
<rect width="1600" height="615" fill="url(#paint0_radial_466_4404)"/>
<path opacity="0.3" d="M901.16 500V0H445C450.72 23.13 457.38 45.94 467.52 67.62C489.41 114.44 527.43 154.12 573.85 178.61C592.7 188.55 612.75 196.01 632.55 203.93C684.18 224.58 735.34 249.15 776.24 286.41C838.08 342.74 870.41 421.91 898.57 500H901.16Z" fill="url(#paint1_linear_466_4404)"/>
<path opacity="0.3" d="M1 492.73L1 0L345.5 0C331.88 48.58 302.06 93.02 261.77 124.65C245.01 137.81 226.62 148.74 208.56 160.08C161.47 189.66 115.55 223 81.99 267C32.55 331.79 14.57 412.89 1 492.73Z" fill="url(#paint2_linear_466_4404)"/>
<path opacity="0.3" d="M1356 374.35V0H1590.03C1579.66 30.53 1563.18 59.17 1541.63 83.5C1527.51 99.45 1511.37 113.5 1495.64 127.89C1454.61 165.44 1415.42 206.47 1390.28 255.769C1371.24 293.11 1361.16 333.2 1356 374.35Z" fill="url(#paint3_linear_466_4404)"/>
<path opacity="0.3" d="M1 147V615H404C385.646 572.327 359.534 531.124 326.13 492.842C291.728 453.434 250.129 417.271 209.932 380.546C129.943 307.398 54.3469 230.357 1 147Z" fill="url(#paint4_linear_466_4404)"/>
<path opacity="0.3" d="M1590 148V615H1188C1206.31 572.418 1232.36 531.303 1265.68 493.103C1299.99 453.779 1341.49 417.694 1381.59 381.047C1461.38 308.055 1536.79 231.179 1590 148Z" fill="url(#paint5_linear_466_4404)"/>
<path opacity="0.15" d="M513.5 382C555.75 382 590 347.75 590 305.5C590 263.25 555.75 229 513.5 229C471.25 229 437 263.25 437 305.5C437 347.75 471.25 382 513.5 382Z" fill="url(#paint6_linear_466_4404)"/>
<path opacity="0.15" d="M1276.88 155.359C1253.04 155.161 1233.56 174.325 1233.36 198.164C1233.16 222.003 1252.33 241.489 1276.16 241.688C1300 241.886 1319.49 222.722 1319.69 198.883C1319.89 175.044 1300.72 155.558 1276.88 155.359Z" fill="url(#paint7_linear_466_4404)"/>
<path opacity="0.15" d="M1444.85 551.689C1474.03 559.97 1504.41 543.023 1512.69 513.836C1520.97 484.65 1504.02 454.276 1474.84 445.995C1445.65 437.713 1415.28 454.66 1406.99 483.847C1398.71 513.034 1415.66 543.408 1444.85 551.689Z" fill="url(#paint8_linear_466_4404)"/>
<path opacity="0.25" d="M1177.5 269C1219.75 269 1254 234.75 1254 192.5C1254 150.25 1219.75 116 1177.5 116C1135.25 116 1101 150.25 1101 192.5C1101 234.75 1135.25 269 1177.5 269Z" fill="url(#paint9_linear_466_4404)"/>
<path opacity="0.25" d="M1091.5 358C1133.75 358 1168 323.75 1168 281.5C1168 239.25 1133.75 205 1091.5 205C1049.25 205 1015 239.25 1015 281.5C1015 323.75 1049.25 358 1091.5 358Z" fill="url(#paint10_linear_466_4404)"/>
<path opacity="0.25" d="M421.5 298C463.75 298 498 263.75 498 221.5C498 179.25 463.75 145 421.5 145C379.25 145 345 179.25 345 221.5C345 263.75 379.25 298 421.5 298Z" fill="url(#paint11_linear_466_4404)"/>
<g opacity="0.3">
<path d="M1304.74 117.128C1306.3 117.128 1307.56 115.867 1307.56 114.313C1307.56 112.758 1306.3 111.498 1304.74 111.498C1303.19 111.498 1301.93 112.758 1301.93 114.313C1301.93 115.867 1303.19 117.128 1304.74 117.128Z" fill="white" fill-opacity="0.45"/>
<path d="M1317 104.866C1318.56 104.866 1319.82 103.606 1319.82 102.051C1319.82 100.496 1318.56 99.2358 1317 99.2358C1315.45 99.2358 1314.19 100.496 1314.19 102.051C1314.19 103.606 1315.45 104.866 1317 104.866Z" fill="white" fill-opacity="0.45"/>
<path d="M1329.26 92.6036C1330.82 92.6036 1332.08 91.3433 1332.08 89.7886C1332.08 88.2339 1330.82 86.9736 1329.26 86.9736C1327.71 86.9736 1326.45 88.2339 1326.45 89.7886C1326.45 91.3433 1327.71 92.6036 1329.26 92.6036Z" fill="white" fill-opacity="0.45"/>
<path d="M1341.53 80.3419C1343.08 80.3419 1344.34 79.0816 1344.34 77.5269C1344.34 75.9722 1343.08 74.7119 1341.53 74.7119C1339.97 74.7119 1338.71 75.9722 1338.71 77.5269C1338.71 79.0816 1339.97 80.3419 1341.53 80.3419Z" fill="white" fill-opacity="0.45"/>
<path d="M1353.79 68.0797C1355.34 68.0797 1356.6 66.8194 1356.6 65.2647C1356.6 63.71 1355.34 62.4497 1353.79 62.4497C1352.23 62.4497 1350.97 63.71 1350.97 65.2647C1350.97 66.8194 1352.23 68.0797 1353.79 68.0797Z" fill="white" fill-opacity="0.45"/>
<path d="M1366.05 55.818C1367.61 55.818 1368.87 54.5577 1368.87 53.003C1368.87 51.4483 1367.61 50.188 1366.05 50.188C1364.5 50.188 1363.24 51.4483 1363.24 53.003C1363.24 54.5577 1364.5 55.818 1366.05 55.818Z" fill="white" fill-opacity="0.45"/>
<path d="M1378.31 43.5558C1379.87 43.5558 1381.13 42.2955 1381.13 40.7408C1381.13 39.1861 1379.87 37.9258 1378.31 37.9258C1376.76 37.9258 1375.5 39.1861 1375.5 40.7408C1375.5 42.2955 1376.76 43.5558 1378.31 43.5558Z" fill="white" fill-opacity="0.45"/>
<path d="M1313.67 126.054C1315.22 126.054 1316.48 124.794 1316.48 123.239C1316.48 121.684 1315.22 120.424 1313.67 120.424C1312.11 120.424 1310.85 121.684 1310.85 123.239C1310.85 124.794 1312.11 126.054 1313.67 126.054Z" fill="white" fill-opacity="0.45"/>
<path d="M1325.93 113.792C1327.48 113.792 1328.74 112.532 1328.74 110.977C1328.74 109.422 1327.48 108.162 1325.93 108.162C1324.37 108.162 1323.11 109.422 1323.11 110.977C1323.11 112.532 1324.37 113.792 1325.93 113.792Z" fill="white" fill-opacity="0.45"/>
<path d="M1338.19 101.53C1339.75 101.53 1341.01 100.27 1341.01 98.7149C1341.01 97.1602 1339.75 95.8999 1338.19 95.8999C1336.64 95.8999 1335.38 97.1602 1335.38 98.7149C1335.38 100.27 1336.64 101.53 1338.19 101.53Z" fill="white" fill-opacity="0.45"/>
<path d="M1350.45 89.2682C1352.01 89.2682 1353.27 88.0079 1353.27 86.4532C1353.27 84.8985 1352.01 83.6382 1350.45 83.6382C1348.9 83.6382 1347.64 84.8985 1347.64 86.4532C1347.64 88.0079 1348.9 89.2682 1350.45 89.2682Z" fill="white" fill-opacity="0.45"/>
<path d="M1362.71 77.006C1364.27 77.006 1365.53 75.7457 1365.53 74.191C1365.53 72.6363 1364.27 71.376 1362.71 71.376C1361.16 71.376 1359.9 72.6363 1359.9 74.191C1359.9 75.7457 1361.16 77.006 1362.71 77.006Z" fill="white" fill-opacity="0.45"/>
<path d="M1374.98 64.7443C1376.53 64.7443 1377.79 63.4839 1377.79 61.9293C1377.79 60.3746 1376.53 59.1143 1374.98 59.1143C1373.42 59.1143 1372.16 60.3746 1372.16 61.9293C1372.16 63.4839 1373.42 64.7443 1374.98 64.7443Z" fill="white" fill-opacity="0.45"/>
<path d="M1387.24 52.482C1388.79 52.482 1390.05 51.2217 1390.05 49.667C1390.05 48.1124 1388.79 46.8521 1387.24 46.8521C1385.68 46.8521 1384.42 48.1124 1384.42 49.667C1384.42 51.2217 1385.68 52.482 1387.24 52.482Z" fill="white" fill-opacity="0.45"/>
<path d="M1322.59 134.98C1324.15 134.98 1325.41 133.719 1325.41 132.165C1325.41 130.61 1324.15 129.35 1322.59 129.35C1321.04 129.35 1319.78 130.61 1319.78 132.165C1319.78 133.719 1321.04 134.98 1322.59 134.98Z" fill="white" fill-opacity="0.45"/>
<path d="M1334.85 122.718C1336.41 122.718 1337.67 121.458 1337.67 119.903C1337.67 118.348 1336.41 117.088 1334.85 117.088C1333.3 117.088 1332.04 118.348 1332.04 119.903C1332.04 121.458 1333.3 122.718 1334.85 122.718Z" fill="white" fill-opacity="0.45"/>
<path d="M1347.12 110.456C1348.67 110.456 1349.93 109.195 1349.93 107.641C1349.93 106.086 1348.67 104.826 1347.12 104.826C1345.56 104.826 1344.3 106.086 1344.3 107.641C1344.3 109.195 1345.56 110.456 1347.12 110.456Z" fill="white" fill-opacity="0.45"/>
<path d="M1359.38 98.194C1360.93 98.194 1362.19 96.9336 1362.19 95.379C1362.19 93.8243 1360.93 92.564 1359.38 92.564C1357.82 92.564 1356.56 93.8243 1356.56 95.379C1356.56 96.9336 1357.82 98.194 1359.38 98.194Z" fill="white" fill-opacity="0.45"/>
<path d="M1371.64 85.9308C1373.2 85.9308 1374.46 84.6705 1374.46 83.1158C1374.46 81.5611 1373.2 80.3008 1371.64 80.3008C1370.09 80.3008 1368.83 81.5611 1368.83 83.1158C1368.83 84.6705 1370.09 85.9308 1371.64 85.9308Z" fill="white" fill-opacity="0.45"/>
<path d="M1383.9 73.67C1385.46 73.67 1386.72 72.4097 1386.72 70.855C1386.72 69.3004 1385.46 68.04 1383.9 68.04C1382.35 68.04 1381.09 69.3004 1381.09 70.855C1381.09 72.4097 1382.35 73.67 1383.9 73.67Z" fill="white" fill-opacity="0.45"/>
<path d="M1396.16 61.4078C1397.72 61.4078 1398.98 60.1475 1398.98 58.5928C1398.98 57.0381 1397.72 55.7778 1396.16 55.7778C1394.61 55.7778 1393.35 57.0381 1393.35 58.5928C1393.35 60.1475 1394.61 61.4078 1396.16 61.4078Z" fill="white" fill-opacity="0.45"/>
<path d="M1331.52 143.906C1333.07 143.906 1334.33 142.646 1334.33 141.091C1334.33 139.537 1333.07 138.276 1331.52 138.276C1329.96 138.276 1328.7 139.537 1328.7 141.091C1328.7 142.646 1329.96 143.906 1331.52 143.906Z" fill="white" fill-opacity="0.45"/>
<path d="M1343.78 131.644C1345.33 131.644 1346.59 130.384 1346.59 128.829C1346.59 127.274 1345.33 126.014 1343.78 126.014C1342.23 126.014 1340.96 127.274 1340.96 128.829C1340.96 130.384 1342.23 131.644 1343.78 131.644Z" fill="white" fill-opacity="0.45"/>
<path d="M1356.04 119.382C1357.6 119.382 1358.86 118.122 1358.86 116.567C1358.86 115.012 1357.6 113.752 1356.04 113.752C1354.49 113.752 1353.23 115.012 1353.23 116.567C1353.23 118.122 1354.49 119.382 1356.04 119.382Z" fill="white" fill-opacity="0.45"/>
<path d="M1368.3 107.119C1369.86 107.119 1371.12 105.859 1371.12 104.304C1371.12 102.75 1369.86 101.489 1368.3 101.489C1366.75 101.489 1365.49 102.75 1365.49 104.304C1365.49 105.859 1366.75 107.119 1368.3 107.119Z" fill="white" fill-opacity="0.45"/>
<path d="M1380.57 94.857C1382.12 94.857 1383.38 93.5967 1383.38 92.042C1383.38 90.4874 1382.12 89.2271 1380.57 89.2271C1379.01 89.2271 1377.75 90.4874 1377.75 92.042C1377.75 93.5967 1379.01 94.857 1380.57 94.857Z" fill="white" fill-opacity="0.45"/>
<path d="M1392.83 82.5953C1394.38 82.5953 1395.64 81.335 1395.64 79.7803C1395.64 78.2257 1394.38 76.9653 1392.83 76.9653C1391.27 76.9653 1390.01 78.2257 1390.01 79.7803C1390.01 81.335 1391.27 82.5953 1392.83 82.5953Z" fill="white" fill-opacity="0.45"/>
<path d="M1405.09 70.3331C1406.65 70.3331 1407.91 69.0728 1407.91 67.5181C1407.91 65.9634 1406.65 64.7031 1405.09 64.7031C1403.54 64.7031 1402.28 65.9634 1402.28 67.5181C1402.28 69.0728 1403.54 70.3331 1405.09 70.3331Z" fill="white" fill-opacity="0.45"/>
<path d="M1340.44 152.831C1342 152.831 1343.26 151.57 1343.26 150.016C1343.26 148.461 1342 147.201 1340.44 147.201C1338.89 147.201 1337.63 148.461 1337.63 150.016C1337.63 151.57 1338.89 152.831 1340.44 152.831Z" fill="white" fill-opacity="0.45"/>
<path d="M1352.71 140.569C1354.26 140.569 1355.52 139.309 1355.52 137.754C1355.52 136.199 1354.26 134.939 1352.71 134.939C1351.15 134.939 1349.89 136.199 1349.89 137.754C1349.89 139.309 1351.15 140.569 1352.71 140.569Z" fill="white" fill-opacity="0.45"/>
<path d="M1364.97 128.307C1366.52 128.307 1367.78 127.046 1367.78 125.492C1367.78 123.937 1366.52 122.677 1364.97 122.677C1363.41 122.677 1362.15 123.937 1362.15 125.492C1362.15 127.046 1363.41 128.307 1364.97 128.307Z" fill="white" fill-opacity="0.45"/>
<path d="M1377.23 116.045C1378.78 116.045 1380.05 114.785 1380.05 113.23C1380.05 111.675 1378.78 110.415 1377.23 110.415C1375.68 110.415 1374.42 111.675 1374.42 113.23C1374.42 114.785 1375.68 116.045 1377.23 116.045Z" fill="white" fill-opacity="0.45"/>
<path d="M1389.49 103.783C1391.05 103.783 1392.31 102.523 1392.31 100.968C1392.31 99.4132 1391.05 98.1528 1389.49 98.1528C1387.94 98.1528 1386.68 99.4132 1386.68 100.968C1386.68 102.523 1387.94 103.783 1389.49 103.783Z" fill="white" fill-opacity="0.45"/>
<path d="M1401.75 91.5211C1403.31 91.5211 1404.57 90.2608 1404.57 88.7061C1404.57 87.1514 1403.31 85.8911 1401.75 85.8911C1400.2 85.8911 1398.94 87.1514 1398.94 88.7061C1398.94 90.2608 1400.2 91.5211 1401.75 91.5211Z" fill="white" fill-opacity="0.45"/>
<path d="M1414.02 79.2589C1415.57 79.2589 1416.83 77.9986 1416.83 76.4439C1416.83 74.8892 1415.57 73.6289 1414.02 73.6289C1412.46 73.6289 1411.2 74.8892 1411.2 76.4439C1411.2 77.9986 1412.46 79.2589 1414.02 79.2589Z" fill="white" fill-opacity="0.45"/>
<path d="M1349.37 161.757C1350.92 161.757 1352.18 160.497 1352.18 158.942C1352.18 157.387 1350.92 156.127 1349.37 156.127C1347.82 156.127 1346.55 157.387 1346.55 158.942C1346.55 160.497 1347.82 161.757 1349.37 161.757Z" fill="white" fill-opacity="0.45"/>
<path d="M1361.63 149.495C1363.19 149.495 1364.45 148.235 1364.45 146.68C1364.45 145.126 1363.19 143.865 1361.63 143.865C1360.08 143.865 1358.82 145.126 1358.82 146.68C1358.82 148.235 1360.08 149.495 1361.63 149.495Z" fill="white" fill-opacity="0.45"/>
<path d="M1373.89 137.233C1375.45 137.233 1376.71 135.973 1376.71 134.418C1376.71 132.863 1375.45 131.603 1373.89 131.603C1372.34 131.603 1371.08 132.863 1371.08 134.418C1371.08 135.973 1372.34 137.233 1373.89 137.233Z" fill="white" fill-opacity="0.45"/>
<path d="M1386.16 124.971C1387.71 124.971 1388.97 123.711 1388.97 122.156C1388.97 120.602 1387.71 119.341 1386.16 119.341C1384.6 119.341 1383.34 120.602 1383.34 122.156C1383.34 123.711 1384.6 124.971 1386.16 124.971Z" fill="white" fill-opacity="0.45"/>
<path d="M1398.42 112.709C1399.97 112.709 1401.23 111.449 1401.23 109.894C1401.23 108.339 1399.97 107.079 1398.42 107.079C1396.86 107.079 1395.6 108.339 1395.6 109.894C1395.6 111.449 1396.86 112.709 1398.42 112.709Z" fill="white" fill-opacity="0.45"/>
<path d="M1410.68 100.447C1412.23 100.447 1413.49 99.1871 1413.49 97.6324C1413.49 96.0777 1412.23 94.8174 1410.68 94.8174C1409.13 94.8174 1407.86 96.0777 1407.86 97.6324C1407.86 99.1871 1409.13 100.447 1410.68 100.447Z" fill="white" fill-opacity="0.45"/>
<path d="M1422.94 88.1852C1424.5 88.1852 1425.76 86.9249 1425.76 85.3702C1425.76 83.8155 1424.5 82.5552 1422.94 82.5552C1421.39 82.5552 1420.13 83.8155 1420.13 85.3702C1420.13 86.9249 1421.39 88.1852 1422.94 88.1852Z" fill="white" fill-opacity="0.45"/>
<path d="M1358.3 170.683C1359.85 170.683 1361.11 169.422 1361.11 167.868C1361.11 166.313 1359.85 165.053 1358.3 165.053C1356.74 165.053 1355.48 166.313 1355.48 167.868C1355.48 169.422 1356.74 170.683 1358.3 170.683Z" fill="white" fill-opacity="0.45"/>
<path d="M1370.56 158.421C1372.11 158.421 1373.37 157.161 1373.37 155.606C1373.37 154.051 1372.11 152.791 1370.56 152.791C1369 152.791 1367.74 154.051 1367.74 155.606C1367.74 157.161 1369 158.421 1370.56 158.421Z" fill="white" fill-opacity="0.45"/>
<path d="M1382.82 146.159C1384.37 146.159 1385.63 144.898 1385.63 143.344C1385.63 141.789 1384.37 140.529 1382.82 140.529C1381.27 140.529 1380.01 141.789 1380.01 143.344C1380.01 144.898 1381.27 146.159 1382.82 146.159Z" fill="white" fill-opacity="0.45"/>
<path d="M1395.08 133.897C1396.64 133.897 1397.9 132.637 1397.9 131.082C1397.9 129.527 1396.64 128.267 1395.08 128.267C1393.53 128.267 1392.27 129.527 1392.27 131.082C1392.27 132.637 1393.53 133.897 1395.08 133.897Z" fill="white" fill-opacity="0.45"/>
<path d="M1407.34 121.635C1408.9 121.635 1410.16 120.375 1410.16 118.82C1410.16 117.265 1408.9 116.005 1407.34 116.005C1405.79 116.005 1404.53 117.265 1404.53 118.82C1404.53 120.375 1405.79 121.635 1407.34 121.635Z" fill="white" fill-opacity="0.45"/>
<path d="M1419.61 109.373C1421.16 109.373 1422.42 108.113 1422.42 106.558C1422.42 105.003 1421.16 103.743 1419.61 103.743C1418.05 103.743 1416.79 105.003 1416.79 106.558C1416.79 108.113 1418.05 109.373 1419.61 109.373Z" fill="white" fill-opacity="0.45"/>
<path d="M1431.87 97.111C1433.42 97.111 1434.68 95.8506 1434.68 94.296C1434.68 92.7413 1433.42 91.481 1431.87 91.481C1430.31 91.481 1429.05 92.7413 1429.05 94.296C1429.05 95.8506 1430.31 97.111 1431.87 97.111Z" fill="white" fill-opacity="0.45"/>
<path d="M1295.82 108.202C1297.37 108.202 1298.63 106.941 1298.63 105.387C1298.63 103.832 1297.37 102.572 1295.82 102.572C1294.26 102.572 1293 103.832 1293 105.387C1293 106.941 1294.26 108.202 1295.82 108.202Z" fill="white" fill-opacity="0.45"/>
<path d="M1308.08 95.9401C1309.63 95.9401 1310.89 94.6797 1310.89 93.1251C1310.89 91.5704 1309.63 90.3101 1308.08 90.3101C1306.52 90.3101 1305.26 91.5704 1305.26 93.1251C1305.26 94.6797 1306.52 95.9401 1308.08 95.9401Z" fill="white" fill-opacity="0.45"/>
<path d="M1320.34 83.6778C1321.89 83.6778 1323.15 82.4175 1323.15 80.8629C1323.15 79.3082 1321.89 78.0479 1320.34 78.0479C1318.78 78.0479 1317.52 79.3082 1317.52 80.8629C1317.52 82.4175 1318.78 83.6778 1320.34 83.6778Z" fill="white" fill-opacity="0.45"/>
<path d="M1332.6 71.4161C1334.16 71.4161 1335.42 70.1558 1335.42 68.6011C1335.42 67.0465 1334.16 65.7861 1332.6 65.7861C1331.05 65.7861 1329.79 67.0465 1329.79 68.6011C1329.79 70.1558 1331.05 71.4161 1332.6 71.4161Z" fill="white" fill-opacity="0.45"/>
<path d="M1344.86 59.1539C1346.42 59.1539 1347.68 57.8936 1347.68 56.3389C1347.68 54.7842 1346.42 53.5239 1344.86 53.5239C1343.31 53.5239 1342.05 54.7842 1342.05 56.3389C1342.05 57.8936 1343.31 59.1539 1344.86 59.1539Z" fill="white" fill-opacity="0.45"/>
<path d="M1357.13 46.8922C1358.68 46.8922 1359.94 45.6319 1359.94 44.0772C1359.94 42.5225 1358.68 41.2622 1357.13 41.2622C1355.57 41.2622 1354.31 42.5225 1354.31 44.0772C1354.31 45.6319 1355.57 46.8922 1357.13 46.8922Z" fill="white" fill-opacity="0.45"/>
<path d="M1369.39 34.63C1370.94 34.63 1372.2 33.3697 1372.2 31.815C1372.2 30.2603 1370.94 29 1369.39 29C1367.83 29 1366.57 30.2603 1366.57 31.815C1366.57 33.3697 1367.83 34.63 1369.39 34.63Z" fill="white" fill-opacity="0.45"/>
</g>
<defs>
<radialGradient id="paint0_radial_466_4404" cx="0" cy="0" r="1" gradientUnits="userSpaceOnUse" gradientTransform="translate(1344 44.5652) rotate(156.26) scale(1253.09 2784.44)">
<stop offset="0.177885" stop-color="#080071"/>
<stop offset="0.317308"/>
<stop offset="0.509615" stop-color="#080071"/>
<stop offset="0.668269" stop-color="#221348"/>
</radialGradient>
<linearGradient id="paint1_linear_466_4404" x1="887" y1="102" x2="641.203" y2="263.545" gradientUnits="userSpaceOnUse">
<stop stop-color="#1B1464" stop-opacity="0"/>
<stop offset="0.1318" stop-color="#1C1A69" stop-opacity="0"/>
<stop offset="0.3038" stop-color="#1D2A76" stop-opacity="0"/>
<stop offset="0.4984" stop-color="#20458D" stop-opacity="0"/>
<stop offset="0.7092" stop-color="#236BAC" stop-opacity="0"/>
<stop offset="0.931" stop-color="#279BD4" stop-opacity="0.931"/>
<stop offset="1" stop-color="#29ABE2"/>
</linearGradient>
<linearGradient id="paint2_linear_466_4404" x1="11.6939" y1="100.517" x2="223.719" y2="207.309" gradientUnits="userSpaceOnUse">
<stop stop-color="#1B1464" stop-opacity="0"/>
<stop offset="0.1318" stop-color="#1C1A69" stop-opacity="0"/>
<stop offset="0.3038" stop-color="#1D2A76" stop-opacity="0"/>
<stop offset="0.4984" stop-color="#20458D" stop-opacity="0"/>
<stop offset="0.7092" stop-color="#236BAC" stop-opacity="0"/>
<stop offset="0.931" stop-color="#279BD4" stop-opacity="0.931"/>
<stop offset="1" stop-color="#29ABE2"/>
</linearGradient>
<linearGradient id="paint3_linear_466_4404" x1="1363.26" y1="76.3674" x2="1513.39" y2="143.979" gradientUnits="userSpaceOnUse">
<stop stop-color="#1B1464" stop-opacity="0"/>
<stop offset="0.1318" stop-color="#1C1A69" stop-opacity="0"/>
<stop offset="0.3038" stop-color="#1D2A76" stop-opacity="0"/>
<stop offset="0.4984" stop-color="#20458D" stop-opacity="0"/>
<stop offset="0.7092" stop-color="#236BAC" stop-opacity="0"/>
<stop offset="0.931" stop-color="#279BD4" stop-opacity="0.931"/>
<stop offset="1" stop-color="#29ABE2"/>
</linearGradient>
<linearGradient id="paint4_linear_466_4404" x1="-220.255" y1="557.456" x2="249.103" y2="445.935" gradientUnits="userSpaceOnUse">
<stop stop-color="white" stop-opacity="0"/>
<stop offset="0.1318" stop-color="white" stop-opacity="0"/>
<stop offset="0.3038" stop-color="white" stop-opacity="0"/>
<stop offset="0.4984" stop-color="#20458D" stop-opacity="0"/>
<stop offset="0.7092" stop-color="#236BAC" stop-opacity="0"/>
<stop offset="1" stop-color="#4D00FF"/>
</linearGradient>
<linearGradient id="paint5_linear_466_4404" x1="1810.71" y1="557.579" x2="1342.49" y2="446.369" gradientUnits="userSpaceOnUse">
<stop stop-color="white" stop-opacity="0"/>
<stop offset="0.1318" stop-color="white" stop-opacity="0"/>
<stop offset="0.3038" stop-color="white" stop-opacity="0"/>
<stop offset="0.4984" stop-color="#20458D" stop-opacity="0"/>
<stop offset="0.7092" stop-color="#236BAC" stop-opacity="0"/>
<stop offset="0.884615" stop-color="#D400FF" stop-opacity="0.931"/>
<stop offset="1" stop-color="#D400FF"/>
</linearGradient>
<linearGradient id="paint6_linear_466_4404" x1="458.805" y1="250.805" x2="567.624" y2="359.624" gradientUnits="userSpaceOnUse">
<stop stop-color="white"/>
<stop offset="0.0063" stop-color="white" stop-opacity="0.9937"/>
<stop offset="0.0568" stop-color="white" stop-opacity="0.9432"/>
<stop offset="0.1129" stop-color="white" stop-opacity="0.8871"/>
<stop offset="0.1736" stop-color="white" stop-opacity="0.8264"/>
<stop offset="0.2402" stop-color="white" stop-opacity="0.7598"/>
<stop offset="0.3146" stop-color="white" stop-opacity="0.6854"/>
<stop offset="0.4006" stop-color="white" stop-opacity="0.5994"/>
<stop offset="0.505" stop-color="white" stop-opacity="0.495"/>
<stop offset="0.6473" stop-color="white" stop-opacity="0.3527"/>
<stop offset="1" stop-color="#1B1464" stop-opacity="0"/>
</linearGradient>
<linearGradient id="paint7_linear_466_4404" x1="1307.13" y1="229.641" x2="1246.24" y2="167.731" gradientUnits="userSpaceOnUse">
<stop stop-color="white"/>
<stop offset="0.0063" stop-color="white" stop-opacity="0.9937"/>
<stop offset="0.0568" stop-color="white" stop-opacity="0.9432"/>
<stop offset="0.1129" stop-color="white" stop-opacity="0.8871"/>
<stop offset="0.1736" stop-color="white" stop-opacity="0.8264"/>
<stop offset="0.2402" stop-color="white" stop-opacity="0.7598"/>
<stop offset="0.3146" stop-color="white" stop-opacity="0.6854"/>
<stop offset="0.4006" stop-color="white" stop-opacity="0.5994"/>
<stop offset="0.505" stop-color="white" stop-opacity="0.495"/>
<stop offset="0.6473" stop-color="white" stop-opacity="0.3527"/>
<stop offset="1" stop-color="#1B1464" stop-opacity="0"/>
</linearGradient>
<linearGradient id="paint8_linear_466_4404" x1="1432.78" y1="450.337" x2="1486.62" y2="546.84" gradientUnits="userSpaceOnUse">
<stop stop-color="white"/>
<stop offset="0.0063" stop-color="white" stop-opacity="0.9937"/>
<stop offset="0.0568" stop-color="white" stop-opacity="0.9432"/>
<stop offset="0.1129" stop-color="white" stop-opacity="0.8871"/>
<stop offset="0.1736" stop-color="white" stop-opacity="0.8264"/>
<stop offset="0.2402" stop-color="white" stop-opacity="0.7598"/>
<stop offset="0.3146" stop-color="white" stop-opacity="0.6854"/>
<stop offset="0.4006" stop-color="white" stop-opacity="0.5994"/>
<stop offset="0.505" stop-color="white" stop-opacity="0.495"/>
<stop offset="0.6473" stop-color="white" stop-opacity="0.3527"/>
<stop offset="1" stop-color="#1B1464" stop-opacity="0"/>
</linearGradient>
<linearGradient id="paint9_linear_466_4404" x1="1122.81" y1="137.805" x2="1231.62" y2="246.624" gradientUnits="userSpaceOnUse">
<stop stop-color="white"/>
<stop offset="0.0063" stop-color="white" stop-opacity="0.9937"/>
<stop offset="0.0568" stop-color="white" stop-opacity="0.9432"/>
<stop offset="0.1129" stop-color="white" stop-opacity="0.8871"/>
<stop offset="0.1736" stop-color="white" stop-opacity="0.8264"/>
<stop offset="0.2402" stop-color="white" stop-opacity="0.7598"/>
<stop offset="0.3146" stop-color="white" stop-opacity="0.6854"/>
<stop offset="0.4006" stop-color="white" stop-opacity="0.5994"/>
<stop offset="0.505" stop-color="white" stop-opacity="0.495"/>
<stop offset="0.6473" stop-color="white" stop-opacity="0.3527"/>
<stop offset="1" stop-color="#1B1464" stop-opacity="0"/>
</linearGradient>
<linearGradient id="paint10_linear_466_4404" x1="1036.81" y1="226.805" x2="1145.62" y2="335.624" gradientUnits="userSpaceOnUse">
<stop stop-color="white"/>
<stop offset="0.0063" stop-color="white" stop-opacity="0.9937"/>
<stop offset="0.0568" stop-color="white" stop-opacity="0.9432"/>
<stop offset="0.1129" stop-color="white" stop-opacity="0.8871"/>
<stop offset="0.1736" stop-color="white" stop-opacity="0.8264"/>
<stop offset="0.2402" stop-color="white" stop-opacity="0.7598"/>
<stop offset="0.3146" stop-color="white" stop-opacity="0.6854"/>
<stop offset="0.4006" stop-color="white" stop-opacity="0.5994"/>
<stop offset="0.505" stop-color="white" stop-opacity="0.495"/>
<stop offset="0.6473" stop-color="white" stop-opacity="0.3527"/>
<stop offset="1" stop-color="#1B1464" stop-opacity="0"/>
</linearGradient>
<linearGradient id="paint11_linear_466_4404" x1="366.805" y1="166.805" x2="475.624" y2="275.624" gradientUnits="userSpaceOnUse">
<stop stop-color="white"/>
<stop offset="0.0063" stop-color="white" stop-opacity="0.9937"/>
<stop offset="0.0568" stop-color="white" stop-opacity="0.9432"/>
<stop offset="0.1129" stop-color="white" stop-opacity="0.8871"/>
<stop offset="0.1736" stop-color="white" stop-opacity="0.8264"/>
<stop offset="0.2402" stop-color="white" stop-opacity="0.7598"/>
<stop offset="0.3146" stop-color="white" stop-opacity="0.6854"/>
<stop offset="0.4006" stop-color="white" stop-opacity="0.5994"/>
<stop offset="0.505" stop-color="white" stop-opacity="0.495"/>
<stop offset="0.6473" stop-color="white" stop-opacity="0.3527"/>
<stop offset="1" stop-color="#1B1464" stop-opacity="0"/>
</linearGradient>
</defs>
</svg>
