<svg width="1116" height="788" viewBox="0 0 1116 788" fill="none" xmlns="http://www.w3.org/2000/svg">
<g opacity="0.3">
<g opacity="0.3">
<path d="M406.298 336.082L386.966 192.416L315.021 240.647L406.298 336.082Z" stroke="#BC185D" stroke-width="0.834" stroke-miterlimit="10"/>
<path d="M315.02 240.648L265.544 158.761L379.06 132.769L315.02 240.648Z" stroke="#BC185D" stroke-width="0.834" stroke-miterlimit="10"/>
<path d="M315.02 240.647L242.968 267.495L302.299 322.22L315.02 240.647Z" stroke="#BC185D" stroke-width="0.834" stroke-miterlimit="10"/>
<path d="M302.299 322.221L406.298 336.083L335.921 378.758L302.299 322.221Z" stroke="#BC185D" stroke-width="0.834" stroke-miterlimit="10"/>
<path d="M302.299 322.221L406.298 336.083L335.921 378.758L302.299 322.221Z" stroke="#BC185D" stroke-width="0.834" stroke-miterlimit="10"/>
<path d="M302.299 322.221L406.298 336.083L335.921 378.758L302.299 322.221Z" stroke="#BC185D" stroke-width="0.834" stroke-miterlimit="10"/>
<path d="M335.92 378.758L398.81 422.344L309.754 514.038L335.92 378.758Z" stroke="#BC185D" stroke-width="0.834" stroke-miterlimit="10"/>
<path d="M309.754 514.038L428.626 499.501L409.588 567.748L309.754 514.038Z" stroke="#BC185D" stroke-width="0.834" stroke-miterlimit="10"/>
<path d="M474.666 531.326L409.588 567.748L464.529 610.71L474.666 531.326Z" stroke="#BC185D" stroke-width="0.834" stroke-miterlimit="10"/>
<path d="M464.529 610.71L551.873 611.15L517.498 543.8L464.529 610.71Z" stroke="#BC185D" stroke-width="0.834" stroke-miterlimit="10"/>
<path d="M464.529 610.71L551.873 611.15L517.498 543.8L464.529 610.71Z" stroke="#BC185D" stroke-width="0.834" stroke-miterlimit="10"/>
<path d="M464.529 610.71L551.873 611.15L517.498 543.8L464.529 610.71Z" stroke="#BC185D" stroke-width="0.834" stroke-miterlimit="10"/>
<path d="M551.873 611.15L580.987 539.964L627.134 588.851L551.873 611.15Z" stroke="#BC185D" stroke-width="0.834" stroke-miterlimit="10"/>
<path d="M551.873 611.15L580.987 539.964L627.134 588.851L551.873 611.15Z" stroke="#BC185D" stroke-width="0.834" stroke-miterlimit="10"/>
<path d="M627.134 588.851L641.967 465.368L711.226 592.566L627.134 588.851Z" stroke="#BC185D" stroke-width="0.834" stroke-miterlimit="10"/>
<path d="M265.544 158.761L242.968 267.495L134.451 201.509L265.544 158.761Z" stroke="#BC185D" stroke-width="0.834" stroke-miterlimit="10"/>
<path d="M265.544 158.761L242.968 267.495L134.451 201.509L265.544 158.761Z" stroke="#BC185D" stroke-width="0.834" stroke-miterlimit="10"/>
<path d="M265.544 158.761L242.968 267.495L134.451 201.509L265.544 158.761Z" stroke="#BC185D" stroke-width="0.834" stroke-miterlimit="10"/>
<path d="M302.299 322.221L217.929 350.303L275.482 436.765L302.299 322.221Z" stroke="#BC185D" stroke-width="0.834" stroke-miterlimit="10"/>
<path d="M641.967 465.368L783.727 444.758L788.35 555.974L641.967 465.368Z" stroke="#BC185D" stroke-width="0.834" stroke-miterlimit="10"/>
<path d="M659.817 361.466L783.728 444.758L778.374 350.309L659.817 361.466Z" stroke="#BC185D" stroke-width="0.834" stroke-miterlimit="10"/>
<path d="M659.816 361.465L766.119 274.669L700.705 269.802L659.816 361.465Z" stroke="#BC185D" stroke-width="0.834" stroke-miterlimit="10"/>
<path d="M700.704 269.802L641.246 266.614L638.889 193.685L700.704 269.802Z" stroke="#BC185D" stroke-width="0.834" stroke-miterlimit="10"/>
<path d="M538.219 201.004L500.187 139.211L638.889 193.686L538.219 201.004Z" stroke="#BC185D" stroke-width="0.834" stroke-miterlimit="10"/>
<path d="M500.187 139.211L440.876 188.952L478.195 206.681L500.187 139.211Z" stroke="#BC185D" stroke-width="0.834" stroke-miterlimit="10"/>
<path d="M440.877 188.952L386.966 192.416L428.028 238.814L440.877 188.952Z" stroke="#BC185D" stroke-width="0.834" stroke-miterlimit="10"/>
<path d="M638.889 193.685L787.903 130.294L725.512 211.4L638.889 193.685Z" stroke="#BC185D" stroke-width="0.834" stroke-miterlimit="10"/>
<path d="M766.119 274.669L725.512 211.4L833.529 205.033L766.119 274.669Z" stroke="#BC185D" stroke-width="0.834" stroke-miterlimit="10"/>
<path d="M766.119 274.669L725.512 211.4L833.529 205.033L766.119 274.669Z" stroke="#BC185D" stroke-width="0.834" stroke-miterlimit="10"/>
<path d="M766.119 274.669L778.374 350.309L910.024 325.283L766.119 274.669Z" stroke="#BC185D" stroke-width="0.834" stroke-miterlimit="10"/>
<path d="M464.529 610.709L375.033 674.782L447.878 725.954L464.529 610.709Z" stroke="#BC185D" stroke-width="0.834" stroke-miterlimit="10"/>
<path d="M375.033 674.783L266.032 576.121L309.754 514.039L375.033 674.783Z" stroke="#BC185D" stroke-width="0.834" stroke-miterlimit="10"/>
<path d="M266.032 576.121L196.661 552.993L211.058 685.403L266.032 576.121Z" stroke="#BC185D" stroke-width="0.834" stroke-miterlimit="10"/>
<path d="M211.058 685.403L375.033 674.783L319.973 736.325L211.058 685.403Z" stroke="#BC185D" stroke-width="0.834" stroke-miterlimit="10"/>
<path d="M211.057 685.402L165.45 735.545L223.568 774.066L211.057 685.402Z" stroke="#BC185D" stroke-width="0.834" stroke-miterlimit="10"/>
<path d="M196.661 552.993L275.482 436.765L309.755 514.038L196.661 552.993Z" stroke="#BC185D" stroke-width="0.834" stroke-miterlimit="10"/>
<path d="M196.661 552.993L275.482 436.765L309.755 514.038L196.661 552.993Z" stroke="#BC185D" stroke-width="0.834" stroke-miterlimit="10"/>
<path d="M34.3028 489.111L196.66 552.993L149.381 453.129L34.3028 489.111Z" stroke="#BC185D" stroke-width="0.834" stroke-miterlimit="10"/>
<path d="M149.381 453.129L116.71 378.949L275.482 436.765L149.381 453.129Z" stroke="#BC185D" stroke-width="0.834" stroke-miterlimit="10"/>
<path d="M116.71 378.949L217.929 350.303L117.21 279.82L116.71 378.949Z" stroke="#BC185D" stroke-width="0.834" stroke-miterlimit="10"/>
<path d="M116.71 378.949L217.929 350.303L117.21 279.82L116.71 378.949Z" stroke="#BC185D" stroke-width="0.834" stroke-miterlimit="10"/>
<path d="M242.968 267.496L217.929 350.303L158.394 271.606L242.968 267.496Z" stroke="#BC185D" stroke-width="0.834" stroke-miterlimit="10"/>
<path d="M158.395 271.606L117.21 279.82L134.451 201.51L158.395 271.606Z" stroke="#BC185D" stroke-width="0.834" stroke-miterlimit="10"/>
<path d="M30.8095 325.063L116.71 378.949" stroke="#BC185D" stroke-width="0.834" stroke-miterlimit="10"/>
<path d="M134.45 201.509L2.99292 187.889L68.405 257.545L134.45 201.509Z" stroke="#BC185D" stroke-width="0.834" stroke-miterlimit="10"/>
<path d="M117.209 279.82L68.405 257.546L30.8095 325.063L117.209 279.82Z" stroke="#BC185D" stroke-width="0.834" stroke-miterlimit="10"/>
<path d="M106.355 119.731L134.45 201.509L214.951 105.376L106.355 119.731Z" stroke="#BC185D" stroke-width="0.834" stroke-miterlimit="10"/>
<path d="M214.951 105.377L257.086 36.9105L265.544 158.761L214.951 105.377Z" stroke="#BC185D" stroke-width="0.834" stroke-miterlimit="10"/>
<path d="M257.086 36.9097L379.06 132.768L410.062 23.4275L257.086 36.9097Z" stroke="#BC185D" stroke-width="0.834" stroke-miterlimit="10"/>
<path d="M257.086 36.9097L379.06 132.768L410.062 23.4275L257.086 36.9097Z" stroke="#BC185D" stroke-width="0.834" stroke-miterlimit="10"/>
<path d="M379.06 132.768L386.966 192.415L500.187 139.21L379.06 132.768Z" stroke="#BC185D" stroke-width="0.834" stroke-miterlimit="10"/>
<path d="M379.06 132.768L386.966 192.415L500.187 139.21L379.06 132.768Z" stroke="#BC185D" stroke-width="0.834" stroke-miterlimit="10"/>
<path d="M379.06 132.768L386.966 192.415L500.187 139.21L379.06 132.768Z" stroke="#BC185D" stroke-width="0.834" stroke-miterlimit="10"/>
<path d="M500.187 139.21L410.062 23.4277L527.751 26.3958L500.187 139.21Z" stroke="#BC185D" stroke-width="0.834" stroke-miterlimit="10"/>
<path d="M527.751 26.396L629.966 26.9111L575.3 105.249L527.751 26.396Z" stroke="#BC185D" stroke-width="0.834" stroke-miterlimit="10"/>
<path d="M575.3 105.25L500.187 139.211L626.623 120.41L575.3 105.25Z" stroke="#BC185D" stroke-width="0.834" stroke-miterlimit="10"/>
<path d="M575.3 105.25L500.187 139.211L626.623 120.41L575.3 105.25Z" stroke="#BC185D" stroke-width="0.834" stroke-miterlimit="10"/>
<path d="M638.889 193.685L626.623 120.41L688.445 137.568L638.889 193.685Z" stroke="#BC185D" stroke-width="0.834" stroke-miterlimit="10"/>
<path d="M629.966 26.9115L626.623 120.41L708.85 3.55276L629.966 26.9115Z" stroke="#BC185D" stroke-width="0.834" stroke-miterlimit="10"/>
<path d="M833.529 205.033L910.024 325.283L1043.09 276.064L833.529 205.033Z" stroke="#BC185D" stroke-width="0.834" stroke-miterlimit="10"/>
<path d="M783.727 444.758L910.024 325.283L925.686 431.619L783.727 444.758Z" stroke="#BC185D" stroke-width="0.834" stroke-miterlimit="10"/>
<path d="M783.727 444.758L910.024 325.283L925.686 431.619L783.727 444.758Z" stroke="#BC185D" stroke-width="0.834" stroke-miterlimit="10"/>
<path d="M783.727 444.758L910.024 325.283L925.686 431.619L783.727 444.758Z" stroke="#BC185D" stroke-width="0.834" stroke-miterlimit="10"/>
<path d="M910.024 325.283L1003.36 445.865L1103.42 391.344L910.024 325.283Z" stroke="#BC185D" stroke-width="0.834" stroke-miterlimit="10"/>
<path d="M788.35 555.974L925.686 431.619L897.793 566.893L788.35 555.974Z" stroke="#BC185D" stroke-width="0.834" stroke-miterlimit="10"/>
<path d="M711.227 592.566L619.971 641.513L717.077 685.215L711.227 592.566Z" stroke="#BC185D" stroke-width="0.834" stroke-miterlimit="10"/>
<path d="M619.971 641.513L551.873 611.15L555.535 731.438L619.971 641.513Z" stroke="#BC185D" stroke-width="0.834" stroke-miterlimit="10"/>
<path d="M464.529 610.71L555.535 731.438L475.053 770.797L464.529 610.71Z" stroke="#BC185D" stroke-width="0.834" stroke-miterlimit="10"/>
<path d="M711.227 592.565L788.35 555.974L885.55 681.928L711.227 592.565Z" stroke="#BC185D" stroke-width="0.834" stroke-miterlimit="10"/>
<path d="M711.227 592.565L788.35 555.974L885.55 681.928L711.227 592.565Z" stroke="#BC185D" stroke-width="0.834" stroke-miterlimit="10"/>
<path d="M897.793 566.893L885.55 681.929L971.152 666.379L897.793 566.893Z" stroke="#BC185D" stroke-width="0.834" stroke-miterlimit="10"/>
<path d="M925.686 431.618L1003.36 445.865L1058.92 563.384L925.686 431.618Z" stroke="#BC185D" stroke-width="0.834" stroke-miterlimit="10"/>
<path d="M1058.92 563.384L897.793 566.892L1047.38 625.194L1058.92 563.384Z" stroke="#BC185D" stroke-width="0.834" stroke-miterlimit="10"/>
<path d="M1058.92 563.384L897.793 566.892L1047.38 625.194L1058.92 563.384Z" stroke="#BC185D" stroke-width="0.834" stroke-miterlimit="10"/>
<path d="M1058.92 563.384L897.793 566.892L1047.38 625.194L1058.92 563.384Z" stroke="#BC185D" stroke-width="0.834" stroke-miterlimit="10"/>
<path d="M885.55 681.928L717.077 685.215L896.687 786.311L885.55 681.928Z" stroke="#BC185D" stroke-width="0.834" stroke-miterlimit="10"/>
<path d="M971.152 666.378L1047.38 625.194L1111.56 745.928L971.152 666.378Z" stroke="#BC185D" stroke-width="0.834" stroke-miterlimit="10"/>
<path d="M833.529 205.033L787.903 130.294L927.668 38.3465L833.529 205.033Z" stroke="#BC185D" stroke-width="0.834" stroke-miterlimit="10"/>
<path d="M688.445 137.567L708.85 3.55231L765.873 37.5308L688.445 137.567Z" stroke="#BC185D" stroke-width="0.834" stroke-miterlimit="10"/>
<path d="M787.903 130.293L688.444 137.567L801.312 40.9491L787.903 130.293Z" stroke="#BC185D" stroke-width="0.834" stroke-miterlimit="10"/>
<path d="M833.529 205.033L938.812 141.421L981.061 221.65L833.529 205.033Z" stroke="#BC185D" stroke-width="0.834" stroke-miterlimit="10"/>
<path d="M981.061 221.65L1043.09 276.064L1114.28 206.448L981.061 221.65Z" stroke="#BC185D" stroke-width="0.834" stroke-miterlimit="10"/>
<path d="M981.061 221.65L1043.09 276.064L1114.28 206.448L981.061 221.65Z" stroke="#BC185D" stroke-width="0.834" stroke-miterlimit="10"/>
<path d="M938.811 141.42L927.668 38.3459L1089.21 39.16L938.811 141.42Z" stroke="#BC185D" stroke-width="0.834" stroke-miterlimit="10"/>
<path d="M938.811 141.42L927.668 38.3459L1089.21 39.16L938.811 141.42Z" stroke="#BC185D" stroke-width="0.834" stroke-miterlimit="10"/>
<path d="M938.811 141.42L927.668 38.3459L1089.21 39.16L938.811 141.42Z" stroke="#BC185D" stroke-width="0.834" stroke-miterlimit="10"/>
<path d="M619.971 641.513L623.465 746.924L673.724 716.941L619.971 641.513Z" stroke="#BC185D" stroke-width="0.834" stroke-miterlimit="10"/>
<path d="M717.077 685.215L691.902 733.116L728.904 738.385L717.077 685.215Z" stroke="#BC185D" stroke-width="0.834" stroke-miterlimit="10"/>
</g>
<path d="M627.056 592.011C629.159 592.021 630.872 590.325 630.883 588.222C630.893 586.119 629.197 584.406 627.094 584.395C624.992 584.385 623.278 586.081 623.268 588.184C623.257 590.287 624.953 592 627.056 592.011Z" fill="#BB185D"/>
<path d="M399.219 424.495C400.549 424.501 401.633 423.428 401.64 422.098C401.646 420.768 400.574 419.684 399.243 419.678C397.913 419.671 396.829 420.744 396.823 422.074C396.816 423.404 397.889 424.488 399.219 424.495Z" fill="#BB185D"/>
<path d="M925.673 434.08C927.003 434.086 928.086 433.014 928.092 431.685C928.099 430.356 927.027 429.273 925.698 429.266C924.368 429.259 923.285 430.331 923.279 431.661C923.272 432.99 924.344 434.073 925.673 434.08Z" fill="#BB185D"/>
<path d="M1004 448.513C1005.33 448.52 1006.41 447.447 1006.42 446.117C1006.43 444.787 1005.35 443.703 1004.02 443.696C1002.69 443.69 1001.61 444.762 1001.6 446.093C1001.6 447.423 1002.67 448.507 1004 448.513Z" fill="#BB185D"/>
<path d="M910.01 327.905C911.341 327.912 912.424 326.839 912.431 325.508C912.438 324.178 911.365 323.095 910.035 323.088C908.705 323.081 907.621 324.154 907.614 325.484C907.607 326.814 908.68 327.898 910.01 327.905Z" fill="#BB185D"/>
<path d="M833.598 207.414C834.928 207.421 836.012 206.348 836.019 205.017C836.025 203.687 834.952 202.604 833.622 202.597C832.292 202.59 831.208 203.663 831.202 204.993C831.195 206.323 832.268 207.407 833.598 207.414Z" fill="#BB185D"/>
<path d="M787.964 134.234C789.977 134.244 791.617 132.62 791.627 130.607C791.637 128.595 790.014 126.955 788.001 126.944C785.988 126.934 784.348 128.558 784.338 130.571C784.328 132.584 785.951 134.224 787.964 134.234Z" fill="#BB185D"/>
<path d="M981.668 224.358C982.998 224.364 984.082 223.291 984.089 221.961C984.096 220.631 983.023 219.547 981.693 219.541C980.362 219.534 979.279 220.607 979.272 221.937C979.265 223.267 980.338 224.351 981.668 224.358Z" fill="#BB185D"/>
<path d="M939.013 144.045C940.344 144.051 941.427 142.979 941.434 141.648C941.441 140.318 940.368 139.234 939.038 139.228C937.708 139.221 936.624 140.294 936.617 141.624C936.61 142.954 937.683 144.038 939.013 144.045Z" fill="#BB185D"/>
<path d="M580.926 542.271C582.256 542.277 583.339 541.205 583.345 539.876C583.352 538.547 582.28 537.464 580.951 537.457C579.621 537.45 578.538 538.522 578.532 539.852C578.525 541.181 579.597 542.264 580.926 542.271Z" fill="#BB185D"/>
<path d="M517.408 546.832C519.197 546.841 520.655 545.398 520.664 543.609C520.673 541.82 519.229 540.362 517.44 540.353C515.651 540.344 514.193 541.787 514.184 543.576C514.175 545.366 515.618 546.823 517.408 546.832Z" fill="#BB185D"/>
<path d="M474.387 533.635C475.717 533.642 476.8 532.569 476.806 531.24C476.813 529.911 475.741 528.828 474.412 528.821C473.082 528.815 471.999 529.887 471.993 531.216C471.986 532.545 473.058 533.628 474.387 533.635Z" fill="#BB185D"/>
<path d="M428.938 501.82C430.268 501.827 431.352 500.754 431.359 499.424C431.365 498.094 430.292 497.01 428.962 497.003C427.632 496.996 426.548 498.069 426.542 499.399C426.535 500.73 427.608 501.813 428.938 501.82Z" fill="#BB185D"/>
<path d="M409.898 570.079C411.229 570.086 412.312 569.013 412.319 567.683C412.326 566.353 411.253 565.269 409.923 565.262C408.593 565.256 407.509 566.329 407.502 567.659C407.495 568.989 408.568 570.073 409.898 570.079Z" fill="#BB185D"/>
<path d="M309.745 516.228C311.074 516.235 312.157 515.163 312.164 513.834C312.17 512.504 311.098 511.421 309.769 511.415C308.44 511.408 307.357 512.48 307.35 513.809C307.343 515.139 308.416 516.222 309.745 516.228Z" fill="#BB185D"/>
<path d="M266.235 578.859C267.565 578.866 268.649 577.793 268.656 576.463C268.662 575.132 267.59 574.049 266.259 574.042C264.929 574.035 263.845 575.108 263.839 576.438C263.832 577.768 264.905 578.852 266.235 578.859Z" fill="#BB185D"/>
<path d="M197.025 555.616C198.354 555.623 199.437 554.551 199.444 553.222C199.45 551.892 198.378 550.809 197.049 550.803C195.72 550.796 194.637 551.868 194.63 553.197C194.623 554.527 195.696 555.61 197.025 555.616Z" fill="#BB185D"/>
<path d="M211.045 687.881C212.374 687.887 213.457 686.815 213.464 685.486C213.47 684.157 212.398 683.074 211.069 683.067C209.74 683.06 208.657 684.133 208.65 685.462C208.643 686.791 209.715 687.874 211.045 687.881Z" fill="#BB185D"/>
<path d="M375.505 677.533C376.835 677.54 377.918 676.467 377.925 675.137C377.932 673.807 376.859 672.723 375.529 672.716C374.199 672.71 373.115 673.782 373.108 675.113C373.102 676.443 374.174 677.526 375.505 677.533Z" fill="#BB185D"/>
<path d="M464.519 612.684C465.849 612.69 466.932 611.618 466.938 610.289C466.945 608.96 465.873 607.877 464.544 607.87C463.214 607.863 462.131 608.935 462.125 610.265C462.118 611.594 463.19 612.677 464.519 612.684Z" fill="#BB185D"/>
<path d="M551.863 613.124C553.192 613.131 554.275 612.059 554.282 610.729C554.289 609.4 553.217 608.317 551.887 608.31C550.558 608.304 549.475 609.376 549.468 610.705C549.462 612.034 550.534 613.117 551.863 613.124Z" fill="#BB185D"/>
<path d="M620.291 644.57C621.621 644.577 622.705 643.504 622.712 642.174C622.718 640.843 621.645 639.76 620.315 639.753C618.985 639.746 617.901 640.819 617.895 642.149C617.888 643.479 618.961 644.563 620.291 644.57Z" fill="#BB185D"/>
<path d="M711.573 594.844C712.903 594.85 713.987 593.778 713.993 592.447C714 591.117 712.927 590.033 711.597 590.027C710.267 590.02 709.183 591.093 709.176 592.423C709.17 593.753 710.242 594.837 711.573 594.844Z" fill="#BB185D"/>
<path d="M788.986 558.385C790.316 558.391 791.4 557.319 791.407 555.988C791.413 554.658 790.34 553.575 789.01 553.568C787.68 553.561 786.596 554.634 786.59 555.964C786.583 557.294 787.656 558.378 788.986 558.385Z" fill="#BB185D"/>
<path d="M971.358 668.583C972.688 668.59 973.772 667.517 973.779 666.187C973.785 664.857 972.712 663.773 971.382 663.767C970.052 663.76 968.968 664.833 968.962 666.163C968.955 667.493 970.028 668.577 971.358 668.583Z" fill="#BB185D"/>
<path d="M897.773 570.858C899.607 570.868 901.101 569.388 901.11 567.555C901.119 565.721 899.64 564.227 897.806 564.217C895.973 564.208 894.479 565.687 894.469 567.521C894.46 569.355 895.939 570.849 897.773 570.858Z" fill="#BB185D"/>
<path d="M717.279 688.1C718.608 688.107 719.691 687.034 719.697 685.705C719.704 684.376 718.632 683.293 717.303 683.286C715.974 683.28 714.891 684.352 714.884 685.681C714.877 687.01 715.949 688.093 717.279 688.1Z" fill="#BB185D"/>
<path d="M886.18 685.657C888.174 685.667 889.799 684.059 889.809 682.064C889.819 680.07 888.211 678.445 886.216 678.435C884.222 678.425 882.597 680.034 882.587 682.028C882.577 684.022 884.186 685.647 886.18 685.657Z" fill="#BB185D"/>
<path d="M499.946 143.879C502.467 143.892 504.52 141.859 504.533 139.339C504.546 136.819 502.513 134.765 499.992 134.752C497.472 134.74 495.419 136.773 495.406 139.293C495.393 141.813 497.426 143.867 499.946 143.879Z" fill="#BB185D"/>
<path d="M405.523 340.181C408.042 340.193 410.095 338.161 410.107 335.642C410.12 333.122 408.088 331.07 405.569 331.057C403.049 331.044 400.997 333.076 400.984 335.596C400.971 338.115 403.003 340.168 405.523 340.181Z" fill="#BB185D"/>
<path d="M538.386 202.928C539.715 202.934 540.798 201.862 540.804 200.533C540.811 199.204 539.739 198.121 538.41 198.114C537.081 198.107 535.998 199.18 535.991 200.509C535.984 201.838 537.056 202.921 538.386 202.928Z" fill="#BB185D"/>
<path d="M638.94 195.985C640.27 195.992 641.353 194.919 641.36 193.589C641.367 192.259 640.294 191.175 638.964 191.168C637.634 191.162 636.55 192.235 636.543 193.565C636.537 194.895 637.609 195.979 638.94 195.985Z" fill="#BB185D"/>
<path d="M626.998 122.873C628.328 122.88 629.412 121.807 629.419 120.476C629.425 119.146 628.352 118.063 627.022 118.056C625.692 118.049 624.608 119.122 624.602 120.452C624.595 121.782 625.668 122.866 626.998 122.873Z" fill="#BB185D"/>
<path d="M575.341 107.656C576.671 107.663 577.754 106.591 577.76 105.261C577.767 103.932 576.695 102.849 575.366 102.842C574.036 102.836 572.954 103.908 572.947 105.237C572.94 106.566 574.012 107.649 575.341 107.656Z" fill="#BB185D"/>
<path d="M478.612 209.906C479.942 209.912 481.026 208.839 481.033 207.509C481.039 206.179 479.966 205.095 478.636 205.089C477.306 205.082 476.222 206.155 476.216 207.485C476.209 208.815 477.282 209.899 478.612 209.906Z" fill="#BB185D"/>
<path d="M428.066 241.285C429.396 241.292 430.48 240.219 430.487 238.889C430.493 237.559 429.42 236.475 428.09 236.468C426.76 236.461 425.676 237.534 425.67 238.865C425.663 240.195 426.736 241.278 428.066 241.285Z" fill="#BB185D"/>
<path d="M315.17 242.837C316.5 242.844 317.582 241.772 317.589 240.443C317.596 239.113 316.524 238.03 315.195 238.024C313.865 238.017 312.782 239.089 312.776 240.418C312.769 241.748 313.841 242.831 315.17 242.837Z" fill="#BB185D"/>
<path d="M243.117 269.946C244.446 269.953 245.529 268.881 245.536 267.551C245.542 266.222 244.47 265.139 243.141 265.132C241.812 265.126 240.729 266.198 240.722 267.527C240.715 268.856 241.787 269.939 243.117 269.946Z" fill="#BB185D"/>
<path d="M302.446 325.166C304.087 325.174 305.423 323.851 305.432 322.21C305.44 320.569 304.116 319.232 302.476 319.224C300.835 319.215 299.498 320.539 299.489 322.18C299.481 323.821 300.805 325.158 302.446 325.166Z" fill="#BB185D"/>
<path d="M217.482 353.27C219.123 353.279 220.46 351.955 220.469 350.314C220.477 348.673 219.153 347.336 217.512 347.328C215.872 347.32 214.535 348.643 214.526 350.284C214.518 351.925 215.842 353.262 217.482 353.27Z" fill="#BB185D"/>
<path d="M158.488 274.335C159.817 274.341 160.9 273.269 160.907 271.94C160.914 270.611 159.841 269.528 158.512 269.521C157.183 269.514 156.1 270.586 156.093 271.916C156.087 273.245 157.159 274.328 158.488 274.335Z" fill="#BB185D"/>
<path d="M117.412 282.66C118.741 282.666 119.824 281.594 119.831 280.265C119.837 278.936 118.765 277.853 117.436 277.846C116.107 277.839 115.024 278.912 115.017 280.241C115.01 281.57 116.083 282.653 117.412 282.66Z" fill="#BB185D"/>
<path d="M68.2865 259.736C69.6166 259.743 70.7004 258.67 70.7071 257.34C70.7138 256.01 69.6409 254.926 68.3108 254.919C66.9806 254.912 65.8968 255.985 65.8901 257.315C65.8834 258.646 66.9563 259.729 68.2865 259.736Z" fill="#BB185D"/>
<path d="M116.912 381.788C118.242 381.795 119.325 380.722 119.331 379.393C119.338 378.064 118.266 376.981 116.937 376.974C115.607 376.968 114.524 378.04 114.518 379.369C114.511 380.698 115.583 381.781 116.912 381.788Z" fill="#BB185D"/>
<path d="M150.015 455.537C151.344 455.544 152.427 454.472 152.434 453.142C152.441 451.813 151.368 450.73 150.039 450.723C148.71 450.717 147.627 451.789 147.62 453.118C147.614 454.447 148.686 455.53 150.015 455.537Z" fill="#BB185D"/>
<path d="M276.007 439.453C277.337 439.46 278.42 438.387 278.426 437.058C278.433 435.729 277.361 434.646 276.032 434.639C274.702 434.633 273.619 435.705 273.613 437.034C273.606 438.363 274.678 439.446 276.007 439.453Z" fill="#BB185D"/>
<path d="M336.018 381.166C337.348 381.172 338.432 380.099 338.438 378.769C338.445 377.439 337.372 376.355 336.042 376.349C334.712 376.342 333.628 377.415 333.621 378.745C333.615 380.075 334.687 381.159 336.018 381.166Z" fill="#BB185D"/>
<path d="M266.18 161.17C267.509 161.177 268.592 160.105 268.599 158.776C268.606 157.447 267.533 156.364 266.204 156.357C264.875 156.35 263.792 157.422 263.785 158.752C263.779 160.081 264.851 161.164 266.18 161.17Z" fill="#BB185D"/>
<path d="M215.262 108C216.591 108.006 217.674 106.934 217.681 105.605C217.688 104.276 216.616 103.193 215.286 103.186C213.957 103.179 212.874 104.251 212.867 105.581C212.861 106.91 213.933 107.993 215.262 108Z" fill="#BB185D"/>
<path d="M105.692 122.567C107.022 122.574 108.106 121.501 108.113 120.171C108.119 118.84 107.047 117.757 105.716 117.75C104.386 117.743 103.303 118.816 103.296 120.146C103.289 121.476 104.362 122.56 105.692 122.567Z" fill="#BB185D"/>
<path d="M134.434 204.79C136.365 204.8 137.939 203.242 137.948 201.311C137.958 199.38 136.4 197.806 134.469 197.796C132.538 197.787 130.964 199.344 130.955 201.276C130.945 203.207 132.503 204.78 134.434 204.79Z" fill="#BB185D"/>
<path d="M441.194 191.521C442.523 191.527 443.606 190.455 443.613 189.126C443.62 187.797 442.548 186.714 441.218 186.707C439.889 186.7 438.806 187.772 438.799 189.102C438.793 190.431 439.865 191.514 441.194 191.521Z" fill="#BB185D"/>
<path d="M387.05 196.638C389.289 196.649 391.114 194.843 391.125 192.604C391.136 190.364 389.33 188.54 387.091 188.529C384.852 188.517 383.027 190.324 383.016 192.563C383.005 194.802 384.811 196.626 387.05 196.638Z" fill="#BB185D"/>
<path d="M379.039 136.821C381.278 136.833 383.103 135.027 383.114 132.787C383.125 130.548 381.319 128.724 379.08 128.713C376.841 128.701 375.016 130.507 375.005 132.747C374.994 134.986 376.8 136.81 379.039 136.821Z" fill="#BB185D"/>
<path d="M726.255 214.026C727.584 214.033 728.667 212.961 728.674 211.632C728.681 210.302 727.608 209.219 726.279 209.213C724.95 209.206 723.867 210.278 723.86 211.607C723.854 212.936 724.926 214.019 726.255 214.026Z" fill="#BB185D"/>
<path d="M688.877 141.726C691.084 141.737 692.882 139.957 692.893 137.751C692.904 135.544 691.124 133.746 688.917 133.735C686.711 133.724 684.913 135.504 684.902 137.71C684.89 139.917 686.67 141.715 688.877 141.726Z" fill="#BB185D"/>
<path d="M766.107 277.076C767.437 277.082 768.521 276.01 768.527 274.679C768.534 273.349 767.461 272.265 766.131 272.259C764.801 272.252 763.717 273.325 763.71 274.655C763.704 275.985 764.776 277.069 766.107 277.076Z" fill="#BB185D"/>
<path d="M701.99 271.936C703.321 271.943 704.404 270.87 704.411 269.54C704.418 268.21 703.345 267.126 702.015 267.119C700.685 267.112 699.601 268.185 699.594 269.515C699.587 270.846 700.66 271.929 701.99 271.936Z" fill="#BB185D"/>
<path d="M640.979 269.221C642.309 269.228 643.393 268.155 643.4 266.825C643.406 265.495 642.333 264.411 641.003 264.404C639.673 264.398 638.589 265.471 638.583 266.801C638.576 268.131 639.649 269.215 640.979 269.221Z" fill="#BB185D"/>
<path d="M659.791 364.196C661.12 364.202 662.203 363.13 662.21 361.801C662.216 360.472 661.144 359.389 659.815 359.382C658.486 359.375 657.403 360.447 657.396 361.777C657.389 363.106 658.462 364.189 659.791 364.196Z" fill="#BB185D"/>
<path d="M642.333 467.777C643.663 467.784 644.747 466.711 644.754 465.38C644.761 464.05 643.688 462.967 642.358 462.96C641.027 462.953 639.944 464.026 639.937 465.356C639.93 466.686 641.003 467.77 642.333 467.777Z" fill="#BB185D"/>
<path d="M783.714 447.402C785.044 447.408 786.128 446.335 786.134 445.005C786.141 443.675 785.068 442.591 783.738 442.585C782.408 442.578 781.324 443.651 781.317 444.981C781.311 446.311 782.384 447.395 783.714 447.402Z" fill="#BB185D"/>
<g opacity="0.45">
<path opacity="0.5" d="M613.086 63.9718L575.353 105.17L616.144 143.039L613.086 63.9718Z" fill="#D58AB1"/>
<path opacity="0.5" d="M346.84 226.359L344.639 148.807L379.059 132.768L346.84 226.359Z" fill="#D58AB1"/>
<path opacity="0.5" d="M766.119 274.668L795.954 332.882L847.805 286.342L766.119 274.668Z" fill="#D58AB1"/>
<path opacity="0.5" d="M821.118 219.458L847.805 286.341L940.759 275.548L821.118 219.458Z" fill="#D58AB1"/>
<path opacity="0.7" d="M795.954 332.882L736.625 405.958L850.448 447.739L795.954 332.882Z" fill="#D58AB1"/>
<path opacity="0.5" d="M727.289 486.5L679.621 532.262L764.587 578.53L727.289 486.5Z" fill="#D58AB1"/>
<path opacity="0.5" d="M221.932 455.903L273.19 520.982L316.483 460.296L221.932 455.903Z" fill="#D58AB1"/>
<path opacity="0.5" d="M273.19 520.982L239.154 578.721L288.48 621.486L273.19 520.982Z" fill="#D58AB1"/>
<path opacity="0.9" d="M362.01 301.664L412.114 259.061L346.84 226.36L362.01 301.664Z" fill="#D58AB1"/>
<path opacity="0.3" d="M228.916 184.276L346.84 226.359L282.927 266.546L228.916 184.276Z" fill="#D58AB1"/>
<path opacity="0.3" d="M764.588 578.531L749.994 667.469L819.084 623.311L764.588 578.531Z" fill="#D58AB1"/>
<path opacity="0.5" d="M850.448 447.739L809.587 498.924L861.294 523.945L850.448 447.739Z" fill="#D58AB1"/>
<path opacity="0.5" d="M674.785 163.23L728.751 196.437L783.067 98.0899L674.785 163.23Z" fill="#D58AB1"/>
<path opacity="0.5" d="M439.138 85.99L428.244 161.987L499.683 194.728L439.138 85.99Z" fill="#D58AB1"/>
<path opacity="0.5" d="M232.987 62.0564L311.64 139.825L318.488 62.4873L232.987 62.0564Z" fill="#D58AB1"/>
<path opacity="0.5" d="M267.98 710.145L311.513 643.014L326.908 710.442L267.98 710.145Z" fill="#D58AB1"/>
<path opacity="0.5" d="M53.2328 525.595L157.285 513.054L52.8044 610.609L53.2328 525.595Z" fill="#D58AB1"/>
<path opacity="0.5" d="M54.4131 291.383L54.0285 367.706L141.765 335.881L54.4131 291.383Z" fill="#D58AB1"/>
<path opacity="0.5" d="M487.445 711.251L537.478 627.275L575.61 711.695L487.445 711.251Z" fill="#D58AB1"/>
<path opacity="0.5" d="M228.916 184.276L224.447 128.101L147.784 170.045L228.916 184.276Z" fill="#D58AB1"/>
<path opacity="0.5" d="M288.48 621.485L367.646 597.477L311.513 643.014L288.48 621.485Z" fill="#D58AB1"/>
<path opacity="0.5" d="M861.294 523.945L943.85 512.698L897.79 567.539L861.294 523.945Z" fill="#D58AB1"/>
<path opacity="0.5" d="M940.759 275.548L938.812 141.42L981.681 221.95L940.759 275.548Z" fill="#D58AB1"/>
<path opacity="0.3" d="M386.498 525.439L367.75 576.962L446.753 574.953L386.498 525.439Z" fill="#D58AB1"/>
<path opacity="0.5" d="M367.772 401.162L352.755 423.762L379.943 428.653L367.772 401.162Z" fill="#D58AB1"/>
<path opacity="0.5" d="M748.201 444.578L733.186 467.177L760.373 472.068L748.201 444.578Z" fill="#D58AB1"/>
<path opacity="0.5" d="M722.038 300.687L707.022 323.287L725.564 350.777L722.038 300.687Z" fill="#D58AB1"/>
<path opacity="0.8" d="M604.581 160.732L557.736 194.904L608.108 210.823L604.581 160.732Z" fill="#D58AB1"/>
</g>
</g>
</svg>
