<svg width="1117" height="789" viewBox="0 0 1117 789" fill="none" xmlns="http://www.w3.org/2000/svg">
<path d="M406.921 336.958L387.589 193.292L315.644 241.524L406.921 336.958Z" stroke="#C5C6E9" stroke-width="0.834" stroke-miterlimit="10"/>
<path d="M315.644 241.524L266.167 159.638L379.683 133.646L315.644 241.524Z" stroke="#C5C6E9" stroke-width="0.834" stroke-miterlimit="10"/>
<path d="M315.643 241.524L243.591 268.372L302.922 323.096L315.643 241.524Z" stroke="#C5C6E9" stroke-width="0.834" stroke-miterlimit="10"/>
<path d="M302.922 323.097L406.921 336.959L336.544 379.634L302.922 323.097Z" stroke="#C5C6E9" stroke-width="0.834" stroke-miterlimit="10"/>
<path d="M302.922 323.097L406.921 336.959L336.544 379.634L302.922 323.097Z" stroke="#C5C6E9" stroke-width="0.834" stroke-miterlimit="10"/>
<path d="M302.922 323.097L406.921 336.959L336.544 379.634L302.922 323.097Z" stroke="#C5C6E9" stroke-width="0.834" stroke-miterlimit="10"/>
<path d="M336.543 379.634L399.433 423.221L310.377 514.915L336.543 379.634Z" stroke="#C5C6E9" stroke-width="0.834" stroke-miterlimit="10"/>
<path d="M310.378 514.914L429.249 500.377L410.211 568.624L310.378 514.914Z" stroke="#C5C6E9" stroke-width="0.834" stroke-miterlimit="10"/>
<path d="M475.289 532.203L410.211 568.624L465.152 611.586L475.289 532.203Z" stroke="#C5C6E9" stroke-width="0.834" stroke-miterlimit="10"/>
<path d="M465.152 611.587L552.496 612.027L518.121 544.676L465.152 611.587Z" stroke="#C5C6E9" stroke-width="0.834" stroke-miterlimit="10"/>
<path d="M465.152 611.587L552.496 612.027L518.121 544.676L465.152 611.587Z" stroke="#C5C6E9" stroke-width="0.834" stroke-miterlimit="10"/>
<path d="M465.152 611.587L552.496 612.027L518.121 544.676L465.152 611.587Z" stroke="#C5C6E9" stroke-width="0.834" stroke-miterlimit="10"/>
<path d="M552.496 612.026L581.61 540.84L627.757 589.727L552.496 612.026Z" stroke="#C5C6E9" stroke-width="0.834" stroke-miterlimit="10"/>
<path d="M552.496 612.026L581.61 540.84L627.757 589.727L552.496 612.026Z" stroke="#C5C6E9" stroke-width="0.834" stroke-miterlimit="10"/>
<path d="M627.757 589.728L642.591 466.244L711.85 593.442L627.757 589.728Z" stroke="#C5C6E9" stroke-width="0.834" stroke-miterlimit="10"/>
<path d="M266.167 159.638L243.591 268.372L135.074 202.386L266.167 159.638Z" stroke="#C5C6E9" stroke-width="0.834" stroke-miterlimit="10"/>
<path d="M266.167 159.638L243.591 268.372L135.074 202.386L266.167 159.638Z" stroke="#C5C6E9" stroke-width="0.834" stroke-miterlimit="10"/>
<path d="M266.167 159.638L243.591 268.372L135.074 202.386L266.167 159.638Z" stroke="#C5C6E9" stroke-width="0.834" stroke-miterlimit="10"/>
<path d="M302.923 323.097L218.553 351.18L276.105 437.641L302.923 323.097Z" stroke="#C5C6E9" stroke-width="0.834" stroke-miterlimit="10"/>
<path d="M642.59 466.244L784.35 445.634L788.973 556.85L642.59 466.244Z" stroke="#C5C6E9" stroke-width="0.834" stroke-miterlimit="10"/>
<path d="M660.44 362.342L784.351 445.635L778.997 351.186L660.44 362.342Z" stroke="#C5C6E9" stroke-width="0.834" stroke-miterlimit="10"/>
<path d="M660.44 362.342L766.742 275.545L701.328 270.679L660.44 362.342Z" stroke="#C5C6E9" stroke-width="0.834" stroke-miterlimit="10"/>
<path d="M701.328 270.679L641.869 267.49L639.512 194.562L701.328 270.679Z" stroke="#C5C6E9" stroke-width="0.834" stroke-miterlimit="10"/>
<path d="M538.842 201.88L500.81 140.087L639.512 194.562L538.842 201.88Z" stroke="#C5C6E9" stroke-width="0.834" stroke-miterlimit="10"/>
<path d="M500.81 140.087L441.5 189.829L478.818 207.557L500.81 140.087Z" stroke="#C5C6E9" stroke-width="0.834" stroke-miterlimit="10"/>
<path d="M441.5 189.829L387.589 193.292L428.651 239.69L441.5 189.829Z" stroke="#C5C6E9" stroke-width="0.834" stroke-miterlimit="10"/>
<path d="M639.512 194.562L788.527 131.171L726.136 212.277L639.512 194.562Z" stroke="#C5C6E9" stroke-width="0.834" stroke-miterlimit="10"/>
<path d="M766.742 275.545L726.135 212.277L834.152 205.909L766.742 275.545Z" stroke="#C5C6E9" stroke-width="0.834" stroke-miterlimit="10"/>
<path d="M766.742 275.545L726.135 212.277L834.152 205.909L766.742 275.545Z" stroke="#C5C6E9" stroke-width="0.834" stroke-miterlimit="10"/>
<path d="M766.742 275.545L778.997 351.186L910.647 326.16L766.742 275.545Z" stroke="#C5C6E9" stroke-width="0.834" stroke-miterlimit="10"/>
<path d="M465.153 611.586L375.656 675.658L448.501 726.83L465.153 611.586Z" stroke="#C5C6E9" stroke-width="0.834" stroke-miterlimit="10"/>
<path d="M375.656 675.659L266.655 576.998L310.377 514.915L375.656 675.659Z" stroke="#C5C6E9" stroke-width="0.834" stroke-miterlimit="10"/>
<path d="M266.656 576.997L197.284 553.869L211.681 686.279L266.656 576.997Z" stroke="#C5C6E9" stroke-width="0.834" stroke-miterlimit="10"/>
<path d="M211.681 686.279L375.657 675.659L320.596 737.201L211.681 686.279Z" stroke="#C5C6E9" stroke-width="0.834" stroke-miterlimit="10"/>
<path d="M211.68 686.279L166.073 736.422L224.192 774.943L211.68 686.279Z" stroke="#C5C6E9" stroke-width="0.834" stroke-miterlimit="10"/>
<path d="M197.284 553.869L276.105 437.641L310.378 514.914L197.284 553.869Z" stroke="#C5C6E9" stroke-width="0.834" stroke-miterlimit="10"/>
<path d="M197.284 553.869L276.105 437.641L310.378 514.914L197.284 553.869Z" stroke="#C5C6E9" stroke-width="0.834" stroke-miterlimit="10"/>
<path d="M34.9259 489.987L197.283 553.87L150.004 454.006L34.9259 489.987Z" stroke="#C5C6E9" stroke-width="0.834" stroke-miterlimit="10"/>
<path d="M150.004 454.005L117.333 379.825L276.105 437.641L150.004 454.005Z" stroke="#C5C6E9" stroke-width="0.834" stroke-miterlimit="10"/>
<path d="M117.333 379.825L218.553 351.179L117.833 280.696L117.333 379.825Z" stroke="#C5C6E9" stroke-width="0.834" stroke-miterlimit="10"/>
<path d="M117.333 379.825L218.553 351.179L117.833 280.696L117.333 379.825Z" stroke="#C5C6E9" stroke-width="0.834" stroke-miterlimit="10"/>
<path d="M243.591 268.372L218.552 351.18L159.017 272.483L243.591 268.372Z" stroke="#C5C6E9" stroke-width="0.834" stroke-miterlimit="10"/>
<path d="M159.018 272.482L117.833 280.696L135.074 202.386L159.018 272.482Z" stroke="#C5C6E9" stroke-width="0.834" stroke-miterlimit="10"/>
<path d="M31.4327 325.939L117.333 379.826" stroke="#C5C6E9" stroke-width="0.834" stroke-miterlimit="10"/>
<path d="M135.074 202.386L3.61609 188.765L69.0281 258.422L135.074 202.386Z" stroke="#C5C6E9" stroke-width="0.834" stroke-miterlimit="10"/>
<path d="M117.833 280.697L69.0281 258.423L31.4327 325.94L117.833 280.697Z" stroke="#C5C6E9" stroke-width="0.834" stroke-miterlimit="10"/>
<path d="M106.978 120.607L135.074 202.386L215.574 106.253L106.978 120.607Z" stroke="#C5C6E9" stroke-width="0.834" stroke-miterlimit="10"/>
<path d="M215.574 106.254L257.709 37.7873L266.167 159.638L215.574 106.254Z" stroke="#C5C6E9" stroke-width="0.834" stroke-miterlimit="10"/>
<path d="M257.709 37.7859L379.683 133.644L410.685 24.3037L257.709 37.7859Z" stroke="#C5C6E9" stroke-width="0.834" stroke-miterlimit="10"/>
<path d="M257.709 37.7859L379.683 133.644L410.685 24.3037L257.709 37.7859Z" stroke="#C5C6E9" stroke-width="0.834" stroke-miterlimit="10"/>
<path d="M379.683 133.645L387.589 193.292L500.81 140.087L379.683 133.645Z" stroke="#C5C6E9" stroke-width="0.834" stroke-miterlimit="10"/>
<path d="M379.683 133.645L387.589 193.292L500.81 140.087L379.683 133.645Z" stroke="#C5C6E9" stroke-width="0.834" stroke-miterlimit="10"/>
<path d="M379.683 133.645L387.589 193.292L500.81 140.087L379.683 133.645Z" stroke="#C5C6E9" stroke-width="0.834" stroke-miterlimit="10"/>
<path d="M500.81 140.086L410.685 24.3042L528.375 27.2722L500.81 140.086Z" stroke="#C5C6E9" stroke-width="0.834" stroke-miterlimit="10"/>
<path d="M528.375 27.2725L630.589 27.7876L575.923 106.126L528.375 27.2725Z" stroke="#C5C6E9" stroke-width="0.834" stroke-miterlimit="10"/>
<path d="M575.923 106.126L500.81 140.087L627.246 121.286L575.923 106.126Z" stroke="#C5C6E9" stroke-width="0.834" stroke-miterlimit="10"/>
<path d="M575.923 106.126L500.81 140.087L627.246 121.286L575.923 106.126Z" stroke="#C5C6E9" stroke-width="0.834" stroke-miterlimit="10"/>
<path d="M639.512 194.562L627.246 121.286L689.068 138.444L639.512 194.562Z" stroke="#C5C6E9" stroke-width="0.834" stroke-miterlimit="10"/>
<path d="M630.589 27.7877L627.246 121.286L709.473 4.42898L630.589 27.7877Z" stroke="#C5C6E9" stroke-width="0.834" stroke-miterlimit="10"/>
<path d="M834.153 205.909L910.647 326.159L1043.72 276.941L834.153 205.909Z" stroke="#C5C6E9" stroke-width="0.834" stroke-miterlimit="10"/>
<path d="M784.35 445.634L910.647 326.159L926.309 432.495L784.35 445.634Z" stroke="#C5C6E9" stroke-width="0.834" stroke-miterlimit="10"/>
<path d="M784.35 445.634L910.647 326.159L926.309 432.495L784.35 445.634Z" stroke="#C5C6E9" stroke-width="0.834" stroke-miterlimit="10"/>
<path d="M784.35 445.634L910.647 326.159L926.309 432.495L784.35 445.634Z" stroke="#C5C6E9" stroke-width="0.834" stroke-miterlimit="10"/>
<path d="M910.647 326.16L1003.99 446.742L1104.04 392.22L910.647 326.16Z" stroke="#C5C6E9" stroke-width="0.834" stroke-miterlimit="10"/>
<path d="M788.973 556.851L926.309 432.495L898.416 567.769L788.973 556.851Z" stroke="#C5C6E9" stroke-width="0.834" stroke-miterlimit="10"/>
<path d="M711.85 593.442L620.594 642.389L717.7 686.091L711.85 593.442Z" stroke="#C5C6E9" stroke-width="0.834" stroke-miterlimit="10"/>
<path d="M620.594 642.39L552.496 612.027L556.158 732.315L620.594 642.39Z" stroke="#C5C6E9" stroke-width="0.834" stroke-miterlimit="10"/>
<path d="M465.152 611.586L556.158 732.314L475.676 771.673L465.152 611.586Z" stroke="#C5C6E9" stroke-width="0.834" stroke-miterlimit="10"/>
<path d="M711.85 593.442L788.973 556.851L886.173 682.805L711.85 593.442Z" stroke="#C5C6E9" stroke-width="0.834" stroke-miterlimit="10"/>
<path d="M711.85 593.442L788.973 556.851L886.173 682.805L711.85 593.442Z" stroke="#C5C6E9" stroke-width="0.834" stroke-miterlimit="10"/>
<path d="M898.417 567.769L886.174 682.805L971.776 667.255L898.417 567.769Z" stroke="#C5C6E9" stroke-width="0.834" stroke-miterlimit="10"/>
<path d="M926.309 432.495L1003.99 446.741L1059.55 564.261L926.309 432.495Z" stroke="#C5C6E9" stroke-width="0.834" stroke-miterlimit="10"/>
<path d="M1059.55 564.261L898.416 567.769L1048.01 626.071L1059.55 564.261Z" stroke="#C5C6E9" stroke-width="0.834" stroke-miterlimit="10"/>
<path d="M1059.55 564.261L898.416 567.769L1048.01 626.071L1059.55 564.261Z" stroke="#C5C6E9" stroke-width="0.834" stroke-miterlimit="10"/>
<path d="M1059.55 564.261L898.416 567.769L1048.01 626.071L1059.55 564.261Z" stroke="#C5C6E9" stroke-width="0.834" stroke-miterlimit="10"/>
<path d="M886.173 682.805L717.7 686.091L897.311 787.188L886.173 682.805Z" stroke="#C5C6E9" stroke-width="0.834" stroke-miterlimit="10"/>
<path d="M971.775 667.255L1048 626.071L1112.19 746.805L971.775 667.255Z" stroke="#C5C6E9" stroke-width="0.834" stroke-miterlimit="10"/>
<path d="M834.152 205.909L788.526 131.17L928.291 39.223L834.152 205.909Z" stroke="#C5C6E9" stroke-width="0.834" stroke-miterlimit="10"/>
<path d="M689.068 138.444L709.473 4.42902L766.496 38.4075L689.068 138.444Z" stroke="#C5C6E9" stroke-width="0.834" stroke-miterlimit="10"/>
<path d="M788.526 131.17L689.068 138.444L801.935 41.8256L788.526 131.17Z" stroke="#C5C6E9" stroke-width="0.834" stroke-miterlimit="10"/>
<path d="M834.153 205.909L939.435 142.297L981.684 222.527L834.153 205.909Z" stroke="#C5C6E9" stroke-width="0.834" stroke-miterlimit="10"/>
<path d="M981.684 222.526L1043.72 276.941L1114.91 207.324L981.684 222.526Z" stroke="#C5C6E9" stroke-width="0.834" stroke-miterlimit="10"/>
<path d="M981.684 222.526L1043.72 276.941L1114.91 207.324L981.684 222.526Z" stroke="#C5C6E9" stroke-width="0.834" stroke-miterlimit="10"/>
<path d="M939.435 142.297L928.291 39.2227L1089.83 40.0367L939.435 142.297Z" stroke="#C5C6E9" stroke-width="0.834" stroke-miterlimit="10"/>
<path d="M939.435 142.297L928.291 39.2227L1089.83 40.0367L939.435 142.297Z" stroke="#C5C6E9" stroke-width="0.834" stroke-miterlimit="10"/>
<path d="M939.435 142.297L928.291 39.2227L1089.83 40.0367L939.435 142.297Z" stroke="#C5C6E9" stroke-width="0.834" stroke-miterlimit="10"/>
<path d="M620.594 642.389L624.089 747.8L674.347 717.817L620.594 642.389Z" stroke="#C5C6E9" stroke-width="0.834" stroke-miterlimit="10"/>
<path d="M717.7 686.091L692.525 733.992L729.527 739.261L717.7 686.091Z" stroke="#C5C6E9" stroke-width="0.834" stroke-miterlimit="10"/>
<path d="M627.679 592.887C629.782 592.897 631.495 591.201 631.506 589.098C631.517 586.996 629.82 585.282 627.718 585.272C625.615 585.261 623.901 586.957 623.891 589.06C623.88 591.163 625.576 592.876 627.679 592.887Z" fill="#6C5DB1"/>
<path d="M399.842 425.371C401.172 425.378 402.256 424.305 402.263 422.975C402.27 421.645 401.197 420.561 399.867 420.554C398.536 420.547 397.453 421.62 397.446 422.95C397.439 424.281 398.512 425.364 399.842 425.371Z" fill="#6C5DB1"/>
<path d="M926.297 434.956C927.626 434.963 928.709 433.891 928.715 432.561C928.722 431.232 927.65 430.149 926.321 430.142C924.992 430.136 923.909 431.208 923.902 432.537C923.895 433.866 924.967 434.949 926.297 434.956Z" fill="#6C5DB1"/>
<path d="M1004.62 449.39C1005.95 449.396 1007.04 448.324 1007.04 446.993C1007.05 445.663 1005.98 444.579 1004.65 444.573C1003.32 444.566 1002.23 445.639 1002.23 446.969C1002.22 448.299 1003.29 449.383 1004.62 449.39Z" fill="#6C5DB1"/>
<path d="M910.634 328.781C911.964 328.788 913.047 327.715 913.054 326.385C913.061 325.055 911.988 323.971 910.658 323.964C909.328 323.958 908.244 325.03 908.237 326.361C908.23 327.691 909.303 328.775 910.634 328.781Z" fill="#6C5DB1"/>
<path d="M834.221 208.29C835.551 208.297 836.635 207.224 836.642 205.894C836.649 204.564 835.576 203.48 834.245 203.473C832.915 203.466 831.831 204.539 831.825 205.869C831.818 207.2 832.891 208.283 834.221 208.29Z" fill="#6C5DB1"/>
<path d="M788.587 135.11C790.6 135.12 792.24 133.496 792.25 131.484C792.26 129.471 790.637 127.831 788.624 127.821C786.611 127.81 784.971 129.434 784.961 131.447C784.951 133.46 786.574 135.1 788.587 135.11Z" fill="#6C5DB1"/>
<path d="M982.291 225.234C983.622 225.241 984.705 224.168 984.712 222.838C984.719 221.508 983.646 220.424 982.316 220.417C980.986 220.411 979.902 221.484 979.895 222.814C979.889 224.144 980.961 225.228 982.291 225.234Z" fill="#6C5DB1"/>
<path d="M939.637 144.921C940.967 144.928 942.05 143.855 942.057 142.525C942.064 141.194 940.991 140.111 939.661 140.104C938.331 140.097 937.247 141.17 937.24 142.5C937.233 143.83 938.306 144.914 939.637 144.921Z" fill="#6C5DB1"/>
<path d="M581.55 543.147C582.879 543.153 583.962 542.081 583.969 540.752C583.975 539.423 582.903 538.34 581.574 538.333C580.245 538.326 579.162 539.398 579.155 540.728C579.148 542.057 580.22 543.14 581.55 543.147Z" fill="#6C5DB1"/>
<path d="M518.031 547.709C519.82 547.718 521.278 546.275 521.287 544.485C521.296 542.696 519.853 541.238 518.063 541.229C516.274 541.22 514.816 542.663 514.807 544.453C514.798 546.242 516.241 547.7 518.031 547.709Z" fill="#6C5DB1"/>
<path d="M475.011 534.511C476.34 534.518 477.423 533.446 477.43 532.117C477.436 530.787 476.364 529.704 475.035 529.698C473.706 529.691 472.623 530.763 472.616 532.092C472.609 533.422 473.681 534.505 475.011 534.511Z" fill="#6C5DB1"/>
<path d="M429.561 502.696C430.891 502.703 431.975 501.63 431.982 500.3C431.989 498.97 430.916 497.886 429.585 497.879C428.255 497.873 427.172 498.945 427.165 500.276C427.158 501.606 428.231 502.69 429.561 502.696Z" fill="#6C5DB1"/>
<path d="M410.522 570.956C411.852 570.963 412.936 569.89 412.942 568.56C412.949 567.23 411.876 566.146 410.546 566.139C409.216 566.132 408.132 567.205 408.125 568.535C408.119 569.866 409.192 570.949 410.522 570.956Z" fill="#6C5DB1"/>
<path d="M310.368 517.105C311.697 517.112 312.78 516.04 312.787 514.71C312.794 513.381 311.721 512.298 310.392 512.291C309.063 512.285 307.98 513.357 307.973 514.686C307.967 516.015 309.039 517.098 310.368 517.105Z" fill="#6C5DB1"/>
<path d="M266.858 579.735C268.188 579.742 269.272 578.669 269.279 577.339C269.286 576.009 268.213 574.925 266.882 574.918C265.552 574.912 264.469 575.985 264.462 577.315C264.455 578.645 265.528 579.729 266.858 579.735Z" fill="#6C5DB1"/>
<path d="M197.648 556.493C198.977 556.5 200.06 555.428 200.067 554.099C200.074 552.769 199.002 551.686 197.672 551.68C196.343 551.673 195.26 552.745 195.253 554.074C195.247 555.404 196.319 556.487 197.648 556.493Z" fill="#6C5DB1"/>
<path d="M211.668 688.756C212.997 688.763 214.08 687.691 214.087 686.362C214.093 685.033 213.021 683.949 211.692 683.943C210.363 683.936 209.28 685.008 209.273 686.337C209.266 687.667 210.339 688.75 211.668 688.756Z" fill="#6C5DB1"/>
<path d="M376.128 678.41C377.458 678.416 378.542 677.343 378.548 676.013C378.555 674.683 377.482 673.599 376.152 673.593C374.822 673.586 373.738 674.659 373.731 675.989C373.725 677.319 374.798 678.403 376.128 678.41Z" fill="#6C5DB1"/>
<path d="M465.143 613.56C466.472 613.567 467.555 612.495 467.561 611.165C467.568 609.836 466.496 608.753 465.167 608.747C463.838 608.74 462.755 609.812 462.748 611.141C462.741 612.47 463.813 613.553 465.143 613.56Z" fill="#6C5DB1"/>
<path d="M552.486 614.001C553.816 614.007 554.899 612.935 554.905 611.606C554.912 610.277 553.84 609.194 552.511 609.187C551.181 609.18 550.098 610.252 550.092 611.582C550.085 612.911 551.157 613.994 552.486 614.001Z" fill="#6C5DB1"/>
<path d="M620.914 645.446C622.244 645.453 623.328 644.38 623.335 643.05C623.342 641.72 622.269 640.636 620.939 640.629C619.608 640.623 618.525 641.696 618.518 643.026C618.511 644.356 619.584 645.44 620.914 645.446Z" fill="#6C5DB1"/>
<path d="M712.196 595.72C713.526 595.727 714.61 594.654 714.616 593.324C714.623 591.994 713.55 590.91 712.22 590.903C710.89 590.897 709.806 591.969 709.8 593.3C709.793 594.63 710.866 595.714 712.196 595.72Z" fill="#6C5DB1"/>
<path d="M789.609 559.261C790.939 559.268 792.023 558.195 792.03 556.865C792.037 555.535 790.964 554.451 789.633 554.444C788.303 554.438 787.22 555.51 787.213 556.841C787.206 558.171 788.279 559.255 789.609 559.261Z" fill="#6C5DB1"/>
<path d="M971.981 669.46C973.311 669.467 974.395 668.394 974.402 667.064C974.408 665.733 973.335 664.65 972.005 664.643C970.675 664.636 969.591 665.709 969.585 667.039C969.578 668.369 970.651 669.453 971.981 669.46Z" fill="#6C5DB1"/>
<path d="M898.396 571.735C900.23 571.744 901.724 570.265 901.733 568.431C901.743 566.597 900.263 565.103 898.43 565.094C896.596 565.085 895.102 566.564 895.092 568.398C895.083 570.231 896.562 571.726 898.396 571.735Z" fill="#6C5DB1"/>
<path d="M717.902 688.977C719.231 688.983 720.314 687.911 720.321 686.582C720.327 685.253 719.255 684.17 717.926 684.163C716.597 684.156 715.514 685.228 715.507 686.558C715.5 687.887 716.572 688.97 717.902 688.977Z" fill="#6C5DB1"/>
<path d="M886.803 686.534C888.798 686.544 890.422 684.935 890.432 682.941C890.442 680.947 888.834 679.322 886.84 679.312C884.845 679.302 883.22 680.91 883.21 682.904C883.2 684.899 884.809 686.524 886.803 686.534Z" fill="#6C5DB1"/>
<path d="M500.57 144.756C503.09 144.768 505.143 142.736 505.156 140.215C505.169 137.695 503.136 135.642 500.616 135.629C498.095 135.616 496.042 137.649 496.029 140.169C496.017 142.69 498.049 144.743 500.57 144.756Z" fill="#6C5DB1"/>
<path d="M406.146 341.057C408.665 341.07 410.718 339.038 410.731 336.518C410.743 333.999 408.711 331.946 406.192 331.934C403.673 331.921 401.62 333.953 401.607 336.472C401.595 338.992 403.627 341.044 406.146 341.057Z" fill="#6C5DB1"/>
<path d="M539.009 203.804C540.338 203.811 541.421 202.739 541.428 201.41C541.434 200.08 540.362 198.997 539.033 198.991C537.704 198.984 536.621 200.056 536.614 201.385C536.607 202.715 537.679 203.798 539.009 203.804Z" fill="#6C5DB1"/>
<path d="M639.563 196.862C640.893 196.869 641.977 195.796 641.983 194.465C641.99 193.135 640.917 192.052 639.587 192.045C638.257 192.038 637.173 193.111 637.166 194.441C637.16 195.771 638.233 196.855 639.563 196.862Z" fill="#6C5DB1"/>
<path d="M627.621 123.75C628.951 123.756 630.035 122.683 630.042 121.353C630.048 120.023 628.976 118.939 627.645 118.933C626.315 118.926 625.232 119.999 625.225 121.329C625.218 122.659 626.291 123.743 627.621 123.75Z" fill="#6C5DB1"/>
<path d="M575.965 108.532C577.294 108.539 578.377 107.467 578.384 106.138C578.39 104.808 577.318 103.725 575.989 103.719C574.66 103.712 573.577 104.784 573.57 106.113C573.563 107.443 574.635 108.526 575.965 108.532Z" fill="#6C5DB1"/>
<path d="M479.235 210.782C480.565 210.788 481.649 209.716 481.656 208.385C481.662 207.055 480.59 205.971 479.259 205.965C477.929 205.958 476.846 207.031 476.839 208.361C476.832 209.691 477.905 210.775 479.235 210.782Z" fill="#6C5DB1"/>
<path d="M428.689 242.162C430.019 242.168 431.103 241.095 431.11 239.765C431.116 238.435 430.044 237.351 428.713 237.345C427.383 237.338 426.299 238.411 426.293 239.741C426.286 241.071 427.359 242.155 428.689 242.162Z" fill="#6C5DB1"/>
<path d="M315.793 243.713C317.123 243.72 318.206 242.648 318.212 241.319C318.219 239.99 317.147 238.907 315.818 238.9C314.488 238.893 313.405 239.965 313.399 241.294C313.392 242.624 314.464 243.707 315.793 243.713Z" fill="#6C5DB1"/>
<path d="M243.74 270.822C245.069 270.829 246.152 269.757 246.159 268.428C246.166 267.098 245.093 266.015 243.764 266.009C242.435 266.002 241.352 267.074 241.345 268.403C241.338 269.733 242.411 270.816 243.74 270.822Z" fill="#6C5DB1"/>
<path d="M303.069 326.042C304.71 326.05 306.047 324.727 306.055 323.086C306.063 321.445 304.74 320.108 303.099 320.1C301.458 320.092 300.121 321.415 300.113 323.056C300.104 324.697 301.428 326.034 303.069 326.042Z" fill="#6C5DB1"/>
<path d="M218.106 354.147C219.747 354.155 221.084 352.832 221.092 351.191C221.1 349.55 219.777 348.213 218.136 348.205C216.495 348.197 215.158 349.52 215.15 351.161C215.141 352.802 216.465 354.139 218.106 354.147Z" fill="#6C5DB1"/>
<path d="M159.111 275.211C160.44 275.218 161.523 274.146 161.53 272.816C161.537 271.487 160.465 270.404 159.135 270.397C157.806 270.391 156.723 271.463 156.716 272.792C156.71 274.121 157.782 275.204 159.111 275.211Z" fill="#6C5DB1"/>
<path d="M118.035 283.537C119.364 283.543 120.447 282.471 120.454 281.142C120.461 279.813 119.388 278.73 118.059 278.723C116.73 278.716 115.647 279.788 115.64 281.118C115.634 282.447 116.706 283.53 118.035 283.537Z" fill="#6C5DB1"/>
<path d="M68.9097 260.613C70.2398 260.619 71.3236 259.547 71.3303 258.216C71.337 256.886 70.2641 255.803 68.9339 255.796C67.6038 255.789 66.52 256.862 66.5133 258.192C66.5066 259.522 67.5795 260.606 68.9097 260.613Z" fill="#6C5DB1"/>
<path d="M117.535 382.664C118.865 382.671 119.948 381.599 119.954 380.269C119.961 378.94 118.889 377.857 117.56 377.851C116.23 377.844 115.147 378.916 115.141 380.245C115.134 381.574 116.206 382.657 117.535 382.664Z" fill="#6C5DB1"/>
<path d="M150.638 456.414C151.967 456.421 153.05 455.349 153.057 454.019C153.064 452.69 151.992 451.607 150.662 451.601C149.333 451.594 148.25 452.666 148.243 453.995C148.237 455.324 149.309 456.407 150.638 456.414Z" fill="#6C5DB1"/>
<path d="M276.631 440.329C277.96 440.335 279.043 439.263 279.05 437.934C279.056 436.605 277.984 435.522 276.655 435.515C275.326 435.508 274.243 436.58 274.236 437.91C274.229 439.239 275.301 440.322 276.631 440.329Z" fill="#6C5DB1"/>
<path d="M336.641 382.042C337.971 382.049 339.055 380.976 339.061 379.646C339.068 378.315 337.995 377.232 336.665 377.225C335.335 377.218 334.251 378.291 334.244 379.621C334.238 380.952 335.311 382.035 336.641 382.042Z" fill="#6C5DB1"/>
<path d="M266.803 162.047C268.132 162.054 269.215 160.982 269.222 159.652C269.229 158.323 268.157 157.24 266.827 157.233C265.498 157.227 264.415 158.299 264.408 159.628C264.402 160.957 265.474 162.04 266.803 162.047Z" fill="#6C5DB1"/>
<path d="M215.885 108.876C217.214 108.883 218.297 107.811 218.304 106.481C218.311 105.152 217.239 104.069 215.909 104.062C214.58 104.056 213.497 105.128 213.491 106.457C213.484 107.786 214.556 108.869 215.885 108.876Z" fill="#6C5DB1"/>
<path d="M106.315 123.443C107.646 123.45 108.729 122.377 108.736 121.047C108.743 119.717 107.67 118.633 106.34 118.626C105.009 118.62 103.926 119.693 103.919 121.023C103.912 122.353 104.985 123.437 106.315 123.443Z" fill="#6C5DB1"/>
<path d="M135.057 205.667C136.988 205.676 138.562 204.119 138.572 202.187C138.581 200.256 137.024 198.683 135.092 198.673C133.161 198.663 131.588 200.221 131.578 202.152C131.568 204.083 133.126 205.657 135.057 205.667Z" fill="#6C5DB1"/>
<path d="M441.817 192.397C443.146 192.404 444.229 191.332 444.236 190.002C444.243 188.673 443.171 187.59 441.841 187.583C440.512 187.577 439.429 188.649 439.423 189.978C439.416 191.307 440.488 192.39 441.817 192.397Z" fill="#6C5DB1"/>
<path d="M387.673 197.514C389.912 197.525 391.737 195.719 391.748 193.48C391.759 191.241 389.953 189.416 387.714 189.405C385.475 189.394 383.651 191.2 383.639 193.439C383.628 195.678 385.434 197.503 387.673 197.514Z" fill="#6C5DB1"/>
<path d="M379.662 137.698C381.901 137.709 383.726 135.903 383.737 133.664C383.748 131.424 381.942 129.6 379.703 129.589C377.464 129.578 375.639 131.384 375.628 133.623C375.617 135.862 377.423 137.686 379.662 137.698Z" fill="#6C5DB1"/>
<path d="M726.878 214.903C728.207 214.91 729.29 213.837 729.297 212.508C729.304 211.179 728.232 210.096 726.902 210.089C725.573 210.083 724.49 211.155 724.483 212.484C724.477 213.813 725.549 214.896 726.878 214.903Z" fill="#6C5DB1"/>
<path d="M689.5 142.602C691.707 142.613 693.505 140.834 693.516 138.627C693.527 136.42 691.747 134.622 689.541 134.611C687.334 134.6 685.536 136.38 685.525 138.586C685.514 140.793 687.294 142.591 689.5 142.602Z" fill="#6C5DB1"/>
<path d="M766.73 277.952C768.06 277.959 769.144 276.886 769.15 275.556C769.157 274.226 768.084 273.142 766.754 273.135C765.424 273.128 764.34 274.201 764.333 275.532C764.327 276.862 765.4 277.945 766.73 277.952Z" fill="#6C5DB1"/>
<path d="M702.614 272.813C703.944 272.819 705.028 271.746 705.034 270.416C705.041 269.086 703.968 268.002 702.638 267.996C701.308 267.989 700.224 269.062 700.217 270.392C700.211 271.722 701.284 272.806 702.614 272.813Z" fill="#6C5DB1"/>
<path d="M641.602 270.098C642.932 270.104 644.016 269.031 644.023 267.701C644.03 266.371 642.957 265.287 641.626 265.281C640.296 265.274 639.213 266.347 639.206 267.677C639.199 269.007 640.272 270.091 641.602 270.098Z" fill="#6C5DB1"/>
<path d="M660.414 365.072C661.743 365.079 662.826 364.006 662.833 362.677C662.84 361.348 661.767 360.265 660.438 360.258C659.109 360.252 658.026 361.324 658.019 362.653C658.013 363.982 659.085 365.065 660.414 365.072Z" fill="#6C5DB1"/>
<path d="M642.956 468.653C644.287 468.66 645.37 467.587 645.377 466.257C645.384 464.927 644.311 463.843 642.981 463.836C641.651 463.83 640.567 464.903 640.56 466.233C640.553 467.563 641.626 468.647 642.956 468.653Z" fill="#6C5DB1"/>
<path d="M784.337 448.278C785.667 448.285 786.751 447.212 786.758 445.882C786.764 444.552 785.691 443.468 784.361 443.461C783.031 443.455 781.947 444.528 781.941 445.858C781.934 447.188 783.007 448.272 784.337 448.278Z" fill="#6C5DB1"/>
<path opacity="0.5" d="M613.709 64.8483L575.976 106.047L616.767 143.916L613.709 64.8483Z" fill="#DFE0F6"/>
<path opacity="0.5" d="M347.463 227.235L345.262 149.683L379.683 133.644L347.463 227.235Z" fill="#DFE0F6"/>
<path opacity="0.5" d="M766.742 275.545L796.577 333.759L848.428 287.218L766.742 275.545Z" fill="#DFE0F6"/>
<path opacity="0.5" d="M821.742 220.334L848.428 287.217L941.382 276.424L821.742 220.334Z" fill="#DFE0F6"/>
<path opacity="0.7" d="M796.577 333.759L737.248 406.835L851.071 448.615L796.577 333.759Z" fill="#DFE0F6"/>
<path opacity="0.5" d="M727.912 487.377L680.244 533.139L765.211 579.407L727.912 487.377Z" fill="#DFE0F6"/>
<path opacity="0.5" d="M222.555 456.779L273.813 521.858L317.106 461.173L222.555 456.779Z" fill="#DFE0F6"/>
<path opacity="0.5" d="M273.813 521.858L239.777 579.597L289.103 622.362L273.813 521.858Z" fill="#DFE0F6"/>
<path opacity="0.9" d="M362.634 302.54L412.737 259.937L347.463 227.236L362.634 302.54Z" fill="#DFE0F6"/>
<path opacity="0.3" d="M229.539 185.152L347.463 227.236L283.55 267.422L229.539 185.152Z" fill="#DFE0F6"/>
<path opacity="0.3" d="M765.211 579.407L750.617 668.346L819.707 624.188L765.211 579.407Z" fill="#DFE0F6"/>
<path opacity="0.5" d="M851.071 448.616L810.21 499.801L861.917 524.822L851.071 448.616Z" fill="#DFE0F6"/>
<path opacity="0.5" d="M675.408 164.107L729.374 197.314L783.691 98.9664L675.408 164.107Z" fill="#DFE0F6"/>
<path opacity="0.5" d="M439.761 86.8664L428.867 162.864L500.307 195.605L439.761 86.8664Z" fill="#DFE0F6"/>
<path opacity="0.5" d="M233.61 62.9331L312.263 140.702L319.111 63.364L233.61 62.9331Z" fill="#DFE0F6"/>
<path opacity="0.5" d="M268.604 711.021L312.136 643.891L327.531 711.318L268.604 711.021Z" fill="#DFE0F6"/>
<path opacity="0.5" d="M53.8559 526.472L157.908 513.931L53.4275 611.486L53.8559 526.472Z" fill="#DFE0F6"/>
<path opacity="0.5" d="M55.0363 292.259L54.6516 368.582L142.388 336.757L55.0363 292.259Z" fill="#DFE0F6"/>
<path opacity="0.5" d="M488.068 712.127L538.101 628.151L576.233 712.572L488.068 712.127Z" fill="#DFE0F6"/>
<path opacity="0.5" d="M229.539 185.152L225.07 128.977L148.407 170.922L229.539 185.152Z" fill="#DFE0F6"/>
<path opacity="0.5" d="M289.103 622.361L368.269 598.354L312.136 643.891L289.103 622.361Z" fill="#DFE0F6"/>
<path opacity="0.5" d="M861.917 524.822L944.474 513.575L898.413 568.415L861.917 524.822Z" fill="#DFE0F6"/>
<path opacity="0.5" d="M941.382 276.424L939.435 142.297L982.304 222.826L941.382 276.424Z" fill="#DFE0F6"/>
<path opacity="0.3" d="M387.121 526.315L368.373 577.838L447.376 575.83L387.121 526.315Z" fill="#DFE0F6"/>
<path opacity="0.5" d="M368.395 402.038L353.378 424.639L380.567 429.529L368.395 402.038Z" fill="#DFE0F6"/>
<path opacity="0.5" d="M748.825 445.454L733.809 468.053L760.996 472.944L748.825 445.454Z" fill="#DFE0F6"/>
<path opacity="0.5" d="M722.661 301.563L707.645 324.164L726.187 351.653L722.661 301.563Z" fill="#DFE0F6"/>
<path opacity="0.8" d="M605.205 161.608L558.36 195.78L608.731 211.699L605.205 161.608Z" fill="#DFE0F6"/>
</svg>
