<svg width="1600" height="690" viewBox="0 0 1600 690" fill="none" xmlns="http://www.w3.org/2000/svg">
<g clip-path="url(#clip0_3_28)">
<path d="M1600 0H0V690H1600V0Z" fill="url(#paint0_radial_3_28)"/>
<mask id="mask0_3_28" style="mask-type:alpha" maskUnits="userSpaceOnUse" x="0" y="0" width="1600" height="690">
<path d="M1600 0H0V690H1600V0Z" fill="url(#paint1_radial_3_28)"/>
</mask>
<g mask="url(#mask0_3_28)">
<g opacity="0.5">
<g opacity="0.75" filter="url(#filter0_f_3_28)">
<path d="M539.752 172.185C706.818 172.185 842.252 308.29 842.252 476.185C842.252 644.08 706.818 780.185 539.752 780.185C372.686 780.185 237.252 644.08 237.252 476.185C237.252 308.29 372.686 172.185 539.752 172.185Z" fill="url(#paint2_radial_3_28)" fill-opacity="0.75"/>
</g>
</g>
<path opacity="0.1" d="M2 418V1H323C318.975 20.2904 314.288 39.314 307.153 57.3951C291.749 96.443 264.994 129.536 232.328 149.961C219.063 158.251 204.954 164.472 191.021 171.078C154.689 188.3 118.688 208.791 89.9063 239.866C46.3894 286.845 23.6388 352.873 3.82258 418H2Z" fill="url(#paint3_linear_3_28)"/>
<path opacity="0.1" d="M1505.39 577.736L1492.07 0L1046 10.2803C1052.21 36.8775 1059.33 63.0837 1069.82 87.9058C1092.48 141.512 1130.71 186.504 1176.76 213.756C1195.45 224.816 1215.26 232.984 1234.83 241.689C1285.87 264.386 1336.55 291.623 1377.54 333.754C1439.51 397.448 1473.24 488.198 1502.85 577.794L1505.39 577.736Z" fill="url(#paint4_linear_3_28)"/>
<path opacity="0.1" d="M679.5 304C721.75 304 756 269.75 756 227.5C756 185.25 721.75 151 679.5 151C637.25 151 603 185.25 603 227.5C603 269.75 637.25 304 679.5 304Z" fill="url(#paint5_linear_3_28)"/>
<path opacity="0.1" d="M619.5 232C661.75 232 696 197.75 696 155.5C696 113.25 661.75 79 619.5 79C577.25 79 543 113.25 543 155.5C543 197.75 577.25 232 619.5 232Z" fill="url(#paint6_linear_3_28)"/>
<path opacity="0.1" d="M515.77 49.6365C473.522 49.285 438.988 83.2492 438.636 125.497C438.285 167.746 472.249 202.28 514.497 202.631C556.746 202.983 591.28 169.019 591.631 126.77C591.983 84.5219 558.018 49.988 515.77 49.6365Z" fill="url(#paint7_linear_3_28)"/>
<path opacity="0.05" d="M755.959 561.795C785.139 570.076 815.519 553.128 823.799 523.941C832.079 494.755 815.129 464.381 785.949 456.1C756.759 447.818 726.389 464.765 718.099 493.952C709.819 523.139 726.769 553.514 755.959 561.795Z" fill="url(#paint8_linear_3_28)"/>
<path opacity="0.15" d="M1012.33 146.146C1017.3 117.19 997.859 89.685 968.904 84.7115C939.948 79.738 912.443 99.1795 907.469 128.135C902.496 157.091 921.937 184.596 950.893 189.57C979.849 194.543 1007.35 175.102 1012.33 146.146Z" fill="url(#paint9_linear_3_28)"/>
<g opacity="0.25" filter="url(#filter1_f_3_28)">
<path d="M1534.5 -209C1675.06 -209 1789 -94.6088 1789 46.5C1789 187.609 1675.06 302 1534.5 302C1393.94 302 1280 187.609 1280 46.5C1280 -94.6088 1393.94 -209 1534.5 -209Z" fill="url(#paint10_radial_3_28)"/>
</g>
<g opacity="0.2" filter="url(#filter2_f_3_28)">
<path d="M111 367C242.444 367 349 472.885 349 603.5C349 734.115 242.444 840 111 840C-20.4438 840 -127 734.115 -127 603.5C-127 472.885 -20.4438 367 111 367Z" fill="url(#paint11_radial_3_28)"/>
</g>
</g>
</g>
<defs>
<filter id="filter0_f_3_28" x="-12.748" y="-77.815" width="1105" height="1108" filterUnits="userSpaceOnUse" color-interpolation-filters="sRGB">
<feFlood flood-opacity="0" result="BackgroundImageFix"/>
<feBlend mode="normal" in="SourceGraphic" in2="BackgroundImageFix" result="shape"/>
<feGaussianBlur stdDeviation="125" result="effect1_foregroundBlur_3_28"/>
</filter>
<filter id="filter1_f_3_28" x="1030" y="-459" width="1009" height="1011" filterUnits="userSpaceOnUse" color-interpolation-filters="sRGB">
<feFlood flood-opacity="0" result="BackgroundImageFix"/>
<feBlend mode="normal" in="SourceGraphic" in2="BackgroundImageFix" result="shape"/>
<feGaussianBlur stdDeviation="125" result="effect1_foregroundBlur_3_28"/>
</filter>
<filter id="filter2_f_3_28" x="-377" y="117" width="976" height="973" filterUnits="userSpaceOnUse" color-interpolation-filters="sRGB">
<feFlood flood-opacity="0" result="BackgroundImageFix"/>
<feBlend mode="normal" in="SourceGraphic" in2="BackgroundImageFix" result="shape"/>
<feGaussianBlur stdDeviation="125" result="effect1_foregroundBlur_3_28"/>
</filter>
<radialGradient id="paint0_radial_3_28" cx="0" cy="0" r="1" gradientUnits="userSpaceOnUse" gradientTransform="translate(1344 49.9998) rotate(153.737) scale(1279.1 3060.49)">
<stop offset="0.0673077" stop-color="#0F0065"/>
<stop offset="1" stop-color="#3400C7"/>
</radialGradient>
<radialGradient id="paint1_radial_3_28" cx="0" cy="0" r="1" gradientUnits="userSpaceOnUse" gradientTransform="translate(789 402.055) rotate(154.242) scale(461.896 1133.85)">
<stop offset="0.0673077" stop-color="white"/>
<stop offset="1" stop-color="#F3F3F4"/>
</radialGradient>
<radialGradient id="paint2_radial_3_28" cx="0" cy="0" r="1" gradientUnits="userSpaceOnUse" gradientTransform="translate(311.977 222.535) rotate(40.7113) scale(476.276 499.26)">
<stop offset="0.0677083" stop-color="#212CFF"/>
<stop offset="0.552885" stop-color="white"/>
<stop offset="1" stop-color="white"/>
</radialGradient>
<linearGradient id="paint3_linear_3_28" x1="11.9644" y1="86.068" x2="201.392" y2="191.115" gradientUnits="userSpaceOnUse">
<stop stop-color="white" stop-opacity="0"/>
<stop offset="0.1318" stop-color="white" stop-opacity="0"/>
<stop offset="0.3038" stop-color="white" stop-opacity="0"/>
<stop offset="0.4984" stop-color="white" stop-opacity="0"/>
<stop offset="0.7092" stop-color="white" stop-opacity="0"/>
<stop offset="0.931" stop-color="white"/>
<stop offset="1" stop-color="white"/>
</linearGradient>
<linearGradient id="paint4_linear_3_28" x1="1480.94" y1="118.178" x2="1221.45" y2="270.444" gradientUnits="userSpaceOnUse">
<stop stop-color="white" stop-opacity="0"/>
<stop offset="0.1318" stop-color="white" stop-opacity="0"/>
<stop offset="0.3038" stop-color="white" stop-opacity="0"/>
<stop offset="0.4984" stop-color="white" stop-opacity="0"/>
<stop offset="0.7092" stop-color="white" stop-opacity="0"/>
<stop offset="0.931" stop-color="white"/>
<stop offset="1" stop-color="white"/>
</linearGradient>
<linearGradient id="paint5_linear_3_28" x1="624.805" y1="172.805" x2="733.624" y2="281.624" gradientUnits="userSpaceOnUse">
<stop stop-color="white"/>
<stop offset="0.0063" stop-color="white" stop-opacity="0.9937"/>
<stop offset="0.0568" stop-color="white" stop-opacity="0.9432"/>
<stop offset="0.1129" stop-color="white" stop-opacity="0.8871"/>
<stop offset="0.1736" stop-color="white" stop-opacity="0.8264"/>
<stop offset="0.2402" stop-color="white" stop-opacity="0.7598"/>
<stop offset="0.3146" stop-color="white" stop-opacity="0.6854"/>
<stop offset="0.4006" stop-color="white" stop-opacity="0.5994"/>
<stop offset="0.505" stop-color="white" stop-opacity="0.495"/>
<stop offset="0.6473" stop-color="white" stop-opacity="0.3527"/>
<stop offset="1" stop-color="#1B1464" stop-opacity="0"/>
</linearGradient>
<linearGradient id="paint6_linear_3_28" x1="564.805" y1="100.805" x2="673.624" y2="209.624" gradientUnits="userSpaceOnUse">
<stop stop-color="white"/>
<stop offset="0.0063" stop-color="white" stop-opacity="0.9937"/>
<stop offset="0.0568" stop-color="white" stop-opacity="0.9432"/>
<stop offset="0.1129" stop-color="white" stop-opacity="0.8871"/>
<stop offset="0.1736" stop-color="white" stop-opacity="0.8264"/>
<stop offset="0.2402" stop-color="white" stop-opacity="0.7598"/>
<stop offset="0.3146" stop-color="white" stop-opacity="0.6854"/>
<stop offset="0.4006" stop-color="white" stop-opacity="0.5994"/>
<stop offset="0.505" stop-color="white" stop-opacity="0.495"/>
<stop offset="0.6473" stop-color="white" stop-opacity="0.3527"/>
<stop offset="1" stop-color="#1B1464" stop-opacity="0"/>
</linearGradient>
<linearGradient id="paint7_linear_3_28" x1="569.371" y1="181.282" x2="461.462" y2="71.5617" gradientUnits="userSpaceOnUse">
<stop stop-color="white"/>
<stop offset="0.0063" stop-color="white" stop-opacity="0.9937"/>
<stop offset="0.0568" stop-color="white" stop-opacity="0.9432"/>
<stop offset="0.1129" stop-color="white" stop-opacity="0.8871"/>
<stop offset="0.1736" stop-color="white" stop-opacity="0.8264"/>
<stop offset="0.2402" stop-color="white" stop-opacity="0.7598"/>
<stop offset="0.3146" stop-color="white" stop-opacity="0.6854"/>
<stop offset="0.4006" stop-color="white" stop-opacity="0.5994"/>
<stop offset="0.505" stop-color="white" stop-opacity="0.495"/>
<stop offset="0.6473" stop-color="white" stop-opacity="0.3527"/>
<stop offset="1" stop-color="#1B1464" stop-opacity="0"/>
</linearGradient>
<linearGradient id="paint8_linear_3_28" x1="743.889" y1="460.442" x2="797.729" y2="556.945" gradientUnits="userSpaceOnUse">
<stop stop-color="white"/>
<stop offset="0.0063" stop-color="white" stop-opacity="0.9937"/>
<stop offset="0.0568" stop-color="white" stop-opacity="0.9432"/>
<stop offset="0.1129" stop-color="white" stop-opacity="0.8871"/>
<stop offset="0.1736" stop-color="white" stop-opacity="0.8264"/>
<stop offset="0.2402" stop-color="white" stop-opacity="0.7598"/>
<stop offset="0.3146" stop-color="white" stop-opacity="0.6854"/>
<stop offset="0.4006" stop-color="white" stop-opacity="0.5994"/>
<stop offset="0.505" stop-color="white" stop-opacity="0.495"/>
<stop offset="0.6473" stop-color="white" stop-opacity="0.3527"/>
<stop offset="1" stop-color="#1B1464" stop-opacity="0"/>
</linearGradient>
<linearGradient id="paint9_linear_3_28" x1="915.975" y1="168.187" x2="1003.36" y2="106.418" gradientUnits="userSpaceOnUse">
<stop stop-color="white"/>
<stop offset="0.0063" stop-color="white" stop-opacity="0.9937"/>
<stop offset="0.0568" stop-color="white" stop-opacity="0.9432"/>
<stop offset="0.1129" stop-color="white" stop-opacity="0.8871"/>
<stop offset="0.1736" stop-color="white" stop-opacity="0.8264"/>
<stop offset="0.2402" stop-color="white" stop-opacity="0.7598"/>
<stop offset="0.3146" stop-color="white" stop-opacity="0.6854"/>
<stop offset="0.4006" stop-color="white" stop-opacity="0.5994"/>
<stop offset="0.505" stop-color="white" stop-opacity="0.495"/>
<stop offset="0.6473" stop-color="white" stop-opacity="0.3527"/>
<stop offset="1" stop-color="#1B1464" stop-opacity="0"/>
</linearGradient>
<radialGradient id="paint10_radial_3_28" cx="0" cy="0" r="1" gradientUnits="userSpaceOnUse" gradientTransform="translate(1342.87 -166.683) rotate(40.6823) scale(400.527 419.791)">
<stop offset="0.0677083" stop-color="#212CFF"/>
<stop offset="0.552885" stop-color="#FF0505"/>
<stop offset="1" stop-color="#FF0606"/>
</radialGradient>
<radialGradient id="paint11_radial_3_28" cx="0" cy="0" r="1" gradientUnits="userSpaceOnUse" gradientTransform="translate(-68.2083 406.17) rotate(40.3924) scale(372.942 390.259)">
<stop offset="0.0677083" stop-color="white"/>
<stop offset="0.552885" stop-color="#FF0505"/>
<stop offset="1" stop-color="#FF0606"/>
</radialGradient>
<clipPath id="clip0_3_28">
<rect width="1600" height="690" fill="white"/>
</clipPath>
</defs>
</svg>
