<svg width="800" height="730" viewBox="0 0 800 730" fill="none" xmlns="http://www.w3.org/2000/svg">
<mask id="mask0_781_596" style="mask-type:alpha" maskUnits="userSpaceOnUse" x="0" y="0" width="800" height="730">
<rect x="0.5" y="0.5" width="799" height="729" fill="#D9D9D9" stroke="#E8E8E8"/>
</mask>
<g mask="url(#mask0_781_596)">
<path d="M730.058 464.799C673.103 537.048 605.345 579.403 530.138 613.682C441.552 655.033 342.648 689.398 216.366 709.908C87.7029 728.311 -68.343 732.859 -326.18 665.93C-364.825 655.825 -413.265 640.14 -444.712 620.638C-467.713 606.4 -473.625 595.013 -477.955 584.699C-507.107 515.303 -517.16 446.691 -527.638 363.648C-531.024 337.707 -532.784 309.522 -514.161 287.98C-500.692 272.275 -478.857 261.514 -459.772 249.558C-300.174 146.784 -268.58 -56.7349 -195.268 -207.774C-124.14 -360.744 -23.5185 -474.312 206.281 -479.202C299.738 -481.391 419.012 -462.065 565.046 -409.686C618.92 -390.591 679.21 -365.336 725.371 -337.688C770.844 -310.456 795.814 -285.416 818.564 -261.747C862.674 -215.94 903.161 -170.922 898.631 -137.318C895.814 -114.059 875.002 -95.8316 858.174 -72.2141C840.9 -48.9904 827.608 -20.3755 829.577 14.5793C832.777 62.4209 864.753 111.671 885.671 165.82C901.967 207.575 876.382 228.912 859 258.662C814.199 333.928 775.091 409.041 730.058 464.799Z" stroke="#E8E8E8" stroke-width="0.2444" stroke-miterlimit="10" stroke-linecap="round" stroke-linejoin="round" stroke-dasharray="0.04 14.23"/>
<path d="M-449.168 247.318C-297.685 141.327 -266.171 -58.5108 -194.11 -207.149C-124.103 -357.657 -25.2005 -469.513 196.766 -478.017C287.019 -481.656 401.864 -464.842 542.513 -415.974C594.41 -398.165 652.486 -374.408 697.291 -347.743C741.448 -321.46 766.153 -296.699 788.694 -273.258C832.381 -227.935 872.67 -183.235 869.767 -148.799C868.052 -124.985 848.968 -105.826 833.647 -81.5009C817.905 -57.5485 805.927 -28.4312 808.65 6.65372C812.801 54.6702 844.603 103.493 865.781 157.351C882.252 198.881 857.734 220.504 841.121 250.265C798.385 325.501 760.257 399.709 716.087 454.691C660.212 525.893 593.412 567.428 519.566 601.264C432.566 642.058 335.759 676.283 213.378 698.08C88.7318 717.873 -61.4862 725.239 -307.575 666.063C-344.475 657.11 -390.728 642.921 -421.21 624.128C-443.513 610.4 -449.639 598.904 -454.235 588.449C-485.204 518.151 -497.957 448.129 -510.924 364.087C-515.082 337.835 -517.714 309.302 -500.496 287.129C-488.028 270.957 -467.306 259.67 -449.168 247.318Z" stroke="#E8E8E8" stroke-width="0.4108" stroke-miterlimit="10" stroke-linecap="round" stroke-linejoin="round" stroke-dasharray="0.04 14.2"/>
<path d="M-438.837 244.838C-295.183 135.878 -263.77 -60.2888 -192.954 -206.526C-124.069 -354.573 -26.8853 -464.716 187.441 -476.664C274.567 -481.685 385.105 -467.281 520.514 -421.793C570.483 -405.222 626.409 -382.911 669.886 -357.203C712.752 -331.848 737.184 -307.367 759.516 -284.16C802.765 -239.331 842.84 -194.969 841.485 -159.769C840.826 -135.441 823.399 -115.411 809.531 -90.4284C795.258 -65.8035 784.54 -36.226 787.982 -1.04899C793.038 47.0995 824.651 95.4791 846.056 149.026C862.681 190.31 839.196 212.193 823.328 241.942C782.596 317.094 745.431 390.383 702.122 444.585C647.32 514.738 581.484 555.457 508.991 588.845C423.571 629.076 328.834 663.136 210.26 686.134C89.5351 707.23 -55.0234 717.266 -289.747 665.508C-324.96 657.659 -369.093 644.9 -398.638 626.796C-420.26 613.563 -426.582 601.97 -431.432 591.387C-464.101 520.291 -479.41 448.985 -494.733 364.061C-499.619 337.538 -503.08 308.696 -487.209 285.939C-475.708 269.336 -456.058 257.559 -438.837 244.838Z" stroke="#E8E8E8" stroke-width="0.5773" stroke-miterlimit="10" stroke-linecap="round" stroke-linejoin="round" stroke-dasharray="0.04 14.17"/>
<path d="M-428.768 242.127C-292.667 130.444 -261.369 -62.0675 -191.796 -205.9C-124.036 -351.487 -28.5682 -459.915 178.31 -475.141C262.39 -481.475 368.735 -469.373 499.044 -427.142C547.138 -411.765 600.969 -390.846 643.148 -366.07C684.754 -341.615 708.908 -317.422 731.024 -294.452C773.817 -250.132 813.654 -206.128 813.78 -170.228C814.121 -145.432 798.29 -124.588 785.813 -98.9994C772.953 -73.7506 763.449 -43.7613 767.567 -8.52446C773.486 39.7159 804.889 87.639 826.494 140.846C843.252 181.866 820.771 203.982 805.628 233.7C766.837 308.713 730.621 381.069 688.162 434.483C634.429 503.58 569.563 543.489 498.416 576.423C414.566 616.085 321.87 649.957 207.013 674.077C90.1133 696.391 -48.9536 708.951 -272.682 664.278C-306.263 657.482 -348.345 646.093 -376.978 628.659C-397.936 615.907 -404.441 604.231 -409.528 593.532C-443.785 521.736 -461.508 449.272 -479.054 363.585C-484.631 336.826 -488.872 307.714 -474.299 284.422C-463.718 267.421 -445.106 255.187 -428.768 242.127Z" stroke="#E8E8E8" stroke-width="0.7438" stroke-miterlimit="10" stroke-linecap="round" stroke-linejoin="round" stroke-dasharray="0.04 14.15"/>
<path d="M-418.958 239.185C-290.14 125.02 -258.976 -63.8505 -190.641 -205.276C-124.003 -348.403 -30.2505 -455.114 169.364 -473.451C250.472 -481.03 352.739 -471.132 478.089 -432.036C524.361 -417.805 576.151 -398.231 617.06 -374.362C657.432 -350.786 681.304 -326.882 703.195 -304.161C745.524 -260.361 785.099 -216.733 786.632 -180.195C786.901 -131.806 735.55 -88.3704 747.396 -15.7862C754.128 32.5067 785.307 79.9576 807.087 132.801C823.957 173.542 802.448 195.862 788.007 225.525C751.096 300.346 715.809 371.755 674.201 424.379C621.528 492.411 557.637 531.519 487.832 563.991C405.545 603.077 314.873 636.742 203.638 661.901C90.4665 685.348 -43.266 700.29 -256.369 662.379C-288.373 656.587 -328.476 646.511 -356.215 629.721C-376.525 617.435 -383.203 605.687 -388.506 594.886C-424.241 522.491 -444.239 448.991 -463.878 362.657C-470.099 335.695 -475.08 306.354 -461.749 282.576C-452.057 265.218 -434.443 252.557 -418.958 239.185Z" stroke="#E8E8E8" stroke-width="0.9103" stroke-miterlimit="10" stroke-linecap="round" stroke-linejoin="round" stroke-dasharray="0.04 14.12"/>
<path d="M-409.402 236.02C-287.595 119.608 -256.582 -65.6353 -189.482 -204.651C-123.969 -345.317 -31.9294 -450.312 160.608 -471.595C238.819 -480.352 337.12 -472.56 457.646 -436.474C502.145 -423.347 551.952 -405.069 591.621 -382.081C630.788 -359.355 654.371 -335.75 676.031 -313.277C717.882 -270.008 757.174 -226.778 760.042 -189.664C762.236 -140.409 714.526 -95.3018 727.471 -22.8259C734.972 25.476 765.915 72.4451 787.838 124.899C804.799 165.342 784.235 187.843 770.474 217.433C735.383 292.007 701.014 362.458 660.247 414.285C608.626 481.249 545.722 519.561 477.248 551.564C396.52 590.07 307.842 623.503 200.141 649.624C90.6068 674.123 -37.9492 691.308 -240.786 659.838C-271.266 655.004 -309.458 646.176 -336.325 630.016C-356.001 618.182 -362.836 606.375 -368.347 595.487C-405.45 522.588 -427.584 448.173 -449.189 361.304C-456.023 334.176 -461.696 304.645 -449.554 280.425C-440.713 262.73 -424.064 249.678 -409.402 236.02Z" stroke="#E8E8E8" stroke-width="1.0767" stroke-miterlimit="10" stroke-linecap="round" stroke-linejoin="round" stroke-dasharray="0.04 14.1"/>
<path d="M-400.096 232.632C-285.044 114.205 -254.192 -67.4224 -188.325 -204.027C-123.937 -342.234 -33.6078 -445.51 152.03 -469.58C227.421 -479.448 321.868 -473.662 437.705 -440.472C480.479 -428.406 528.36 -411.371 566.812 -389.241C604.799 -367.343 628.088 -344.04 649.51 -321.825C690.869 -279.1 729.859 -236.283 733.992 -198.656C738.013 -148.624 693.803 -101.97 707.784 -29.6574C716.012 18.6169 746.697 65.0858 768.738 117.129C785.771 157.255 766.12 179.91 753.017 209.411C719.685 283.685 686.218 353.161 646.288 404.189C595.713 470.078 533.802 507.602 466.652 539.131C387.471 577.044 300.871 610.359 196.646 637.408C90.6941 662.929 -32.8825 682.183 -225.938 656.654C-254.928 652.755 -291.293 645.094 -317.311 629.544C-336.374 618.147 -343.349 606.291 -349.048 595.33C-387.411 522.021 -411.549 446.814 -434.996 359.519C-442.4 332.257 -448.728 302.571 -437.721 277.958C-429.689 259.964 -413.965 246.549 -400.096 232.632Z" stroke="#E8E8E8" stroke-width="1.2432" stroke-miterlimit="10" stroke-linecap="round" stroke-linejoin="round" stroke-dasharray="0.04 14.07"/>
<path d="M-391.032 229.032C-282.475 108.815 -251.804 -69.2142 -187.167 -203.402C-123.903 -339.149 -35.2814 -440.703 143.634 -467.405C216.28 -478.321 306.977 -474.446 418.258 -444.029C459.359 -432.98 505.367 -417.141 542.63 -395.847C579.466 -374.754 602.455 -351.758 623.634 -329.806C664.484 -287.634 703.155 -245.248 708.486 -207.17C714.254 -156.428 673.625 -108.341 688.338 -36.278C697.39 11.9348 727.659 57.8834 749.798 109.496C766.885 149.286 748.119 172.073 735.65 201.461C704.02 275.383 671.442 343.877 632.341 394.097C582.811 458.906 521.897 495.646 456.065 526.696C378.424 564.014 293.789 597.077 192.933 624.943C90.443 651.363 -28.2704 672.584 -211.786 652.842C-239.356 649.812 -273.94 643.28 -299.131 628.321C-317.593 617.346 -324.701 605.455 -330.575 594.432C-370.092 520.808 -396.104 444.923 -421.267 357.311C-429.202 329.95 -436.144 300.148 -426.221 275.184C-418.97 256.924 -404.143 243.18 -391.032 229.032Z" stroke="#E8E8E8" stroke-width="1.4097" stroke-miterlimit="10" stroke-linecap="round" stroke-linejoin="round" stroke-dasharray="0.04 14.04"/>
<path d="M-382.208 225.217C-279.896 103.437 -249.42 -71.0079 -186.011 -202.779C-123.873 -336.067 -36.9564 -435.897 135.416 -465.075C205.384 -476.973 292.445 -474.912 399.3 -447.158C438.774 -437.082 482.96 -422.394 519.063 -401.912C554.772 -381.6 577.455 -358.914 598.384 -337.232C638.719 -295.625 677.045 -253.688 683.507 -215.219C690.909 -163.866 653.533 -114.476 669.121 -42.6915C678.831 5.41221 708.797 50.8408 731.002 101.994C748.122 141.435 730.214 164.324 718.36 193.584C688.373 267.103 656.666 334.596 618.393 384.007C569.898 447.734 509.989 483.693 445.469 514.256C369.364 550.974 286.676 583.768 189.1 612.375C89.9838 639.619 -24.0146 662.674 -198.332 648.416C-224.529 646.212 -257.4 640.754 -281.783 626.367C-299.662 615.802 -306.882 603.887 -312.92 592.814C-353.492 518.965 -381.242 442.517 -408.003 354.696C-416.436 327.269 -423.947 297.386 -415.06 272.116C-408.554 253.617 -394.583 239.573 -382.208 225.217Z" stroke="#E8E8E8" stroke-width="1.5761" stroke-miterlimit="10" stroke-linecap="round" stroke-linejoin="round" stroke-dasharray="0.04 14.02"/>
<path d="M-373.618 221.197C-277.304 98.0691 -247.038 -72.802 -184.853 -202.154C-123.84 -332.984 -38.6276 -431.087 127.37 -462.59C194.732 -475.408 278.259 -475.07 380.817 -449.862C418.711 -440.72 461.132 -427.133 496.097 -407.441C530.702 -387.888 553.079 -365.517 573.751 -344.107C613.556 -303.078 651.518 -261.611 659.045 -222.804C667.989 -170.928 633.733 -120.352 650.136 -48.9008C660.457 -0.94129 690.11 43.9519 712.353 94.6251C729.489 133.698 712.409 156.667 701.149 185.778C672.747 258.844 641.902 325.328 604.449 373.921C556.982 436.557 498.084 471.743 434.871 501.817C360.295 537.926 279.526 570.43 185.151 599.706C89.3248 627.697 -20.1066 652.457 -185.56 643.387C-210.436 641.963 -241.655 637.522 -265.252 623.689C-282.561 613.519 -289.886 601.591 -296.071 590.484C-337.593 516.501 -366.957 439.6 -395.2 351.675C-404.088 324.214 -412.133 294.284 -404.232 268.753C-398.435 250.048 -385.293 235.733 -373.618 221.197Z" stroke="#E8E8E8" stroke-width="1.7426" stroke-miterlimit="10" stroke-linecap="round" stroke-linejoin="round" stroke-dasharray="0.04 13.99"/>
<path d="M-365.256 216.974C-274.697 92.7123 -244.658 -74.6004 -183.696 -201.529C-123.808 -329.901 -40.2963 -426.277 119.497 -459.953C184.327 -473.632 264.42 -474.922 362.807 -452.152C399.166 -443.902 439.875 -431.372 473.729 -412.446C507.259 -393.631 529.321 -371.581 549.731 -350.448C588.992 -310.009 626.572 -269.023 635.098 -229.939C645.49 -177.618 614.222 -125.973 631.382 -54.9135C642.274 -7.13332 671.594 37.2097 693.856 87.3816C710.987 126.07 694.654 149.054 684.022 178.039C657.008 250.504 627.153 316.067 590.511 363.836C544.066 425.376 486.186 459.796 424.274 489.373C351.22 524.869 272.349 557.066 181.096 586.939C88.4744 615.602 -16.533 641.941 -173.45 637.769C-197.052 637.084 -226.683 633.606 -249.512 620.309C-266.266 610.522 -273.684 598.592 -280.002 587.461C-322.376 513.431 -353.232 436.189 -382.838 348.26C-392.151 320.795 -400.685 290.855 -393.723 265.105C-388.604 246.224 -376.253 231.666 -365.256 216.974Z" stroke="#E8E8E8" stroke-width="1.9091" stroke-miterlimit="10" stroke-linecap="round" stroke-linejoin="round" stroke-dasharray="0.03 13.96"/>
<path d="M-357.119 212.552C-272.081 87.3688 -242.283 -76.4021 -182.538 -200.903C-123.777 -326.819 -41.9672 -421.465 111.792 -457.168C174.157 -471.645 250.92 -474.476 345.258 -454.032C380.128 -446.634 419.17 -435.116 451.94 -416.935C484.418 -398.835 506.161 -377.109 526.301 -356.263C565.008 -316.418 602.186 -275.936 611.648 -236.633C623.397 -183.948 594.988 -131.35 612.841 -60.7311C624.264 -13.1697 653.242 30.6148 675.493 80.2607C692.6 118.549 677.035 141.56 666.964 170.366C641.412 242.27 612.404 306.808 576.571 353.753C531.145 414.192 474.289 447.85 413.668 476.925C342.131 511.803 265.139 543.672 176.927 574.074C87.427 603.335 -13.2942 631.13 -162.001 631.57C-184.379 631.581 -212.517 629.022 -234.559 616.236C-250.806 606.825 -258.272 594.897 -264.708 583.754C-307.835 509.762 -340.06 432.289 -370.918 344.456C-380.619 317.02 -389.606 287.103 -383.536 261.173C-379.058 242.147 -367.468 227.377 -357.119 212.552Z" stroke="#E8E8E8" stroke-width="2.0756" stroke-miterlimit="10" stroke-linecap="round" stroke-linejoin="round" stroke-dasharray="0.03 13.94"/>
<path d="M-349.204 207.935C-269.45 82.0313 -239.91 -78.2036 -181.382 -200.279C-123.748 -323.736 -43.6322 -416.651 104.249 -454.237C164.212 -469.451 237.749 -473.735 328.161 -455.51C361.584 -448.928 399.067 -438.391 430.719 -420.916C462.23 -403.524 483.59 -382.113 503.456 -361.554C541.598 -322.32 578.357 -282.355 588.69 -242.888C601.709 -189.918 576.029 -136.48 594.517 -66.3531C606.431 -19.0441 635.05 24.167 657.268 73.2667C674.336 111.14 659.514 134.154 649.981 162.76C625.832 234.058 597.661 297.558 562.631 343.672C518.216 403.006 462.389 435.907 403.057 464.475C333.03 498.729 257.895 530.252 172.646 561.112C86.1877 590.903 -10.3851 620.029 -151.195 624.804C-172.391 625.468 -199.064 623.771 -220.376 611.482C-236.099 602.433 -243.63 590.523 -250.171 579.379C-293.958 505.512 -327.43 427.909 -359.428 340.274C-369.485 312.896 -378.888 283.036 -373.663 256.97C-369.789 237.825 -358.927 222.87 -349.204 207.935Z" stroke="#E8E8E8" stroke-width="2.242" stroke-miterlimit="10" stroke-linecap="round" stroke-linejoin="round" stroke-dasharray="0.03 13.91"/>
<path d="M-341.5 203.131C-266.809 76.7097 -237.539 -80.0081 -180.227 -199.654C-123.72 -320.655 -45.2984 -411.833 96.8714 -451.159C154.501 -467.054 224.906 -472.704 311.511 -456.593C343.533 -450.783 379.454 -441.177 410.068 -424.401C440.574 -407.685 461.605 -386.603 481.192 -366.34C518.756 -327.724 555.076 -288.293 566.219 -248.716C580.419 -195.54 557.346 -141.37 576.41 -71.7877C588.778 -24.7642 617.117 17.8318 639.184 66.3931C656.262 103.81 642.088 126.827 633.074 155.221C610.283 225.861 582.929 288.314 548.696 333.593C505.29 391.816 450.498 423.968 392.447 452.023C323.921 485.648 250.625 516.806 168.263 548.059C84.768 578.306 -7.79008 608.651 -141.01 617.486C-161.074 618.765 -186.33 617.877 -206.935 606.07C-222.148 597.369 -229.732 585.486 -236.367 574.353C-280.717 500.693 -315.326 423.067 -348.352 335.722C-358.731 308.433 -368.51 278.662 -364.088 252.499C-360.791 233.262 -350.628 218.15 -341.5 203.131Z" stroke="#E8E8E8" stroke-width="2.4085" stroke-miterlimit="10" stroke-linecap="round" stroke-linejoin="round" stroke-dasharray="0.03 13.88"/>
<path d="M-334.004 198.141C-263.886 71.6035 -235.172 -81.8166 -179.066 -199.03C-123.688 -317.574 -46.9583 -407.016 89.6573 -447.94C145.018 -464.458 212.391 -471.387 295.301 -457.289C325.965 -452.216 360.372 -443.495 389.966 -427.397C419.497 -411.336 440.191 -390.587 459.491 -370.623C496.466 -332.636 532.331 -293.756 544.225 -254.121C559.518 -200.812 538.929 -146.023 558.515 -77.0335C571.293 -30.3357 599.254 11.6645 621.235 59.6387C638.241 96.6059 624.755 119.584 616.241 147.746C594.754 217.686 568.204 279.078 534.766 323.517C492.358 380.626 438.606 412.03 381.833 439.569C314.807 472.561 243.328 503.338 163.781 534.917C83.1751 565.557 -5.50312 596.998 -131.436 609.626C-150.411 611.477 -174.315 611.35 -194.224 600.009C-208.94 591.643 -216.567 579.797 -223.284 568.688C-268.109 495.316 -303.735 417.767 -337.686 330.809C-348.351 303.637 -358.476 273.987 -354.807 247.764C-352.056 228.466 -342.53 213.248 -334.004 198.141Z" stroke="#E8E8E8" stroke-width="2.575" stroke-miterlimit="10" stroke-linecap="round" stroke-linejoin="round" stroke-dasharray="0.03 13.86"/>
<path d="M-326.714 192.968C-261.2 66.3173 -232.806 -83.6272 -177.908 -198.406C-123.658 -314.493 -48.6131 -402.196 82.5979 -444.584C135.754 -461.668 200.188 -469.793 279.522 -457.603C308.87 -453.231 341.807 -445.353 370.411 -429.909C398.984 -414.486 419.339 -394.073 438.348 -374.415C474.721 -337.066 510.113 -298.753 522.698 -259.112C539.003 -205.748 520.777 -150.441 540.828 -82.0966C553.978 -35.7546 581.548 5.63362 603.416 53.0031C620.335 89.5044 607.509 112.422 599.478 140.336C579.24 209.53 553.49 269.851 520.838 313.446C479.427 369.433 426.723 400.096 371.219 427.112C305.686 459.464 236.003 489.843 159.198 521.684C81.3995 552.649 -3.52131 585.075 -122.463 601.235C-140.393 603.623 -162.994 604.207 -182.232 593.317C-196.462 585.275 -204.12 573.476 -210.906 562.402C-256.114 489.394 -292.648 412.022 -327.419 325.542C-338.34 298.514 -348.774 269.017 -345.818 242.773C-343.585 223.44 -334.694 208.118 -326.714 192.968Z" stroke="#E8E8E8" stroke-width="2.7415" stroke-miterlimit="10" stroke-linecap="round" stroke-linejoin="round" stroke-dasharray="0.03 13.83"/>
<path d="M-319.623 187.622C-258.503 61.0422 -230.439 -85.4387 -176.753 -197.779C-123.63 -311.411 -50.2729 -397.373 75.692 -441.085C126.711 -458.681 188.292 -467.922 264.162 -457.543C292.237 -453.832 323.75 -446.759 351.384 -431.951C379.024 -417.142 399.036 -397.072 417.746 -377.721C453.507 -341.022 488.408 -303.288 501.627 -263.696C518.859 -210.346 502.881 -154.629 523.342 -86.9778C536.826 -41.0261 563.992 -0.258943 585.729 46.4841C602.542 82.5074 590.358 105.341 582.785 132.989C563.753 201.394 538.779 260.631 506.912 303.378C466.489 358.24 414.838 388.169 360.602 414.659C296.554 446.366 228.653 476.33 154.518 508.372C79.4551 539.594 -1.83665 572.894 -114.075 592.332C-131.004 595.217 -152.358 596.464 -170.941 586.008C-184.7 578.28 -192.341 566.534 -199.22 555.509C-244.493 482.92 -282.069 405.832 -317.546 319.931C-328.693 293.077 -339.456 263.748 -337.113 237.537C-335.406 218.181 -327.079 202.792 -319.623 187.622Z" stroke="#E8E8E8" stroke-width="2.9079" stroke-miterlimit="10" stroke-linecap="round" stroke-linejoin="round" stroke-dasharray="0.03 13.8"/>
<path d="M-312.728 182.103C-255.793 55.7774 -228.079 -87.2497 -175.594 -197.153C-123.6 -308.329 -51.9261 -392.547 68.9375 -437.458C117.876 -455.508 176.701 -465.786 249.216 -457.118C276.056 -454.034 306.191 -447.725 332.88 -433.534C359.606 -419.323 379.27 -399.595 397.68 -380.561C432.818 -344.519 467.211 -307.381 481.006 -267.887C499.085 -214.626 485.237 -158.599 506.055 -91.6862C519.836 -46.1592 546.586 -6.02449 568.17 40.0738C584.86 75.6023 573.289 98.3326 566.161 125.699C548.281 193.269 524.078 251.414 492.988 293.309C453.548 347.04 402.958 376.239 349.979 402.195C287.413 433.254 221.272 462.787 149.741 494.968C77.346 526.385 -0.441041 560.452 -106.258 582.915C-122.228 586.261 -142.385 588.125 -160.331 578.088C-173.63 570.662 -181.282 558.984 -188.205 548.012C-233.686 475.935 -271.955 399.221 -308.053 313.977C-319.394 287.324 -330.396 258.206 -328.682 232.048C-327.436 212.712 -319.686 197.273 -312.728 182.103Z" stroke="#E8E8E8" stroke-width="3.0744" stroke-miterlimit="10" stroke-linecap="round" stroke-linejoin="round" stroke-dasharray="0.03 13.78"/>
<path d="M-306.022 176.415C-253.07 50.5223 -225.722 -89.067 -174.438 -196.53C-123.573 -305.25 -53.5771 -387.72 62.3342 -433.698C109.251 -452.153 165.409 -463.385 234.68 -456.333C260.325 -453.841 289.126 -448.257 314.886 -434.662C340.72 -421.032 359.972 -401.643 378.137 -382.934C412.531 -347.542 446.513 -311.031 460.827 -271.684C479.674 -218.582 467.843 -162.346 488.965 -96.2197C503.005 -51.1491 529.327 -11.6579 550.736 33.7766C567.288 68.7962 556.307 91.4019 549.606 118.47C532.831 185.164 509.382 242.205 479.069 283.242C440.608 335.84 391.081 364.312 339.357 389.732C278.27 420.139 213.871 449.224 144.874 481.486C75.0719 513.034 0.674146 547.761 -98.997 573.008C-114.049 576.776 -133.062 579.214 -150.385 569.58C-163.24 562.443 -170.888 550.842 -177.842 539.938C-223.447 468.444 -262.306 392.201 -298.927 307.698C-310.431 281.27 -321.646 252.395 -320.516 226.327C-319.704 207.029 -312.504 191.564 -306.022 176.415Z" stroke="#E8E8E8" stroke-width="3.2409" stroke-miterlimit="10" stroke-linecap="round" stroke-linejoin="round" stroke-dasharray="0.03 13.75"/>
<path d="M-299.503 170.563C-250.337 45.2797 -223.367 -90.8848 -173.284 -195.908C-123.562 -302.186 -55.3834 -383.179 55.8744 -429.811C100.779 -448.721 154.41 -460.724 220.535 -455.2C245.025 -453.265 272.535 -448.368 297.392 -435.351C322.357 -422.282 341.252 -403.239 359.103 -384.858C392.851 -350.138 426.295 -314.257 441.075 -275.107C460.613 -222.232 450.685 -165.883 472.06 -100.589C486.33 -56.0063 512.209 -17.1693 533.419 27.5839C549.82 62.0792 539.407 84.5398 533.112 111.297C517.394 177.074 494.692 232.997 465.145 273.174C427.658 324.63 379.199 352.382 328.728 377.262C269.11 407.01 206.437 435.634 139.911 467.918C72.638 499.541 1.50946 534.825 -92.2852 562.617C-106.459 566.774 -124.378 569.741 -141.097 560.496C-153.516 553.64 -161.152 542.12 -168.131 531.296C-213.775 460.458 -253.122 384.775 -290.171 301.096C-301.81 274.923 -313.201 246.317 -312.62 220.372C-312.212 201.141 -305.53 185.67 -299.503 170.563Z" stroke="#E8E8E8" stroke-width="3.4074" stroke-miterlimit="10" stroke-linecap="round" stroke-linejoin="round" stroke-dasharray="0.03 13.73"/>
<path d="M-293.16 164.554C-247.59 40.0472 -221.01 -92.7042 -172.125 -195.281C-123.534 -299.105 -57.0391 -378.359 49.5602 -425.79C92.5583 -445.007 143.699 -457.807 206.786 -453.715C230.156 -452.304 256.418 -448.057 280.396 -435.598C304.511 -423.072 323.043 -404.383 340.578 -386.331C373.672 -352.291 406.56 -317.056 421.752 -278.145C441.904 -225.564 433.773 -169.201 455.351 -104.786C469.809 -60.7219 495.236 -22.5483 516.227 21.5025C532.457 55.4629 522.59 77.758 516.687 104.185C501.982 169.003 480.011 223.802 451.23 263.116C414.71 313.429 367.328 340.463 318.101 364.799C259.949 393.884 198.988 422.031 134.867 454.281C70.054 485.918 2.084 521.659 -86.0991 551.763C-99.4292 556.276 -116.305 559.726 -132.435 550.857C-144.432 544.27 -152.049 532.845 -159.032 522.107C-204.645 451.993 -244.381 376.956 -281.765 294.186C-293.511 268.288 -305.044 239.982 -304.978 214.193C-304.942 195.052 -298.756 179.598 -293.16 164.554Z" stroke="#E8E8E8" stroke-width="3.5738" stroke-miterlimit="10" stroke-linecap="round" stroke-linejoin="round" stroke-dasharray="0.03 13.7"/>
<path d="M-286.991 158.391C-244.832 34.8247 -218.655 -94.5221 -170.967 -194.657C-123.505 -296.027 -58.6904 -373.542 43.3872 -421.651C84.5351 -441.124 133.268 -454.646 193.422 -451.896C215.711 -450.977 240.765 -447.342 263.881 -435.423C287.164 -423.421 305.334 -405.087 322.547 -387.372C354.978 -354.02 387.292 -319.443 402.844 -280.823C423.536 -228.6 417.098 -172.318 438.829 -108.819C453.442 -65.3038 478.406 -27.8054 499.159 15.5254C515.203 48.9348 505.859 71.0455 500.332 97.1301C486.592 160.95 465.343 214.613 437.321 253.055C401.768 302.222 355.464 328.542 307.477 352.332C250.788 380.751 191.518 408.405 129.742 440.565C67.3209 472.157 2.39451 508.255 -80.4279 540.449C-92.9589 545.281 -108.836 549.175 -124.395 540.665C-135.979 534.338 -143.566 523.015 -150.546 512.374C-196.046 443.052 -236.072 368.75 -273.702 286.966C-285.525 261.372 -297.175 233.39 -297.58 207.791C-297.898 188.763 -292.181 173.354 -286.991 158.391Z" stroke="#E8E8E8" stroke-width="3.7403" stroke-miterlimit="10" stroke-linecap="round" stroke-linejoin="round" stroke-dasharray="0.03 13.67"/>
<path d="M-280.994 152.075C-242.059 29.6136 -216.307 -96.3469 -169.809 -194.031C-123.48 -292.947 -60.3415 -368.72 37.3503 -417.387C76.7011 -437.067 123.106 -451.24 180.425 -449.745C201.671 -449.285 225.555 -446.228 247.829 -434.833C270.301 -423.34 288.105 -405.362 304.989 -387.986C336.746 -355.331 368.475 -321.427 384.337 -283.141C405.496 -231.344 400.645 -175.23 422.481 -112.697C437.217 -69.7596 461.704 -32.9471 482.2 9.64825C498.043 42.4925 489.201 64.4005 484.031 90.1264C471.216 152.91 450.673 205.425 423.406 242.995C388.813 291.009 343.593 316.622 296.844 339.859C241.61 367.608 184.019 394.758 124.524 426.775C64.4385 458.267 2.45044 494.629 -75.2617 528.688C-87.0295 533.808 -101.953 538.103 -116.954 529.942C-128.139 523.865 -135.682 512.65 -142.653 502.117C-187.967 433.654 -228.184 360.169 -265.976 279.45C-277.853 254.182 -289.586 226.55 -290.426 201.175C-291.063 182.286 -285.798 166.94 -280.994 152.075Z" stroke="#E8E8E8" stroke-width="3.9068" stroke-miterlimit="10" stroke-linecap="round" stroke-linejoin="round" stroke-dasharray="0.03 13.65"/>
<path d="M-275.16 145.616C-239.278 24.4118 -213.957 -98.1694 -168.653 -193.407C-123.453 -289.871 -61.9869 -363.897 31.447 -413.006C69.0583 -432.843 113.219 -447.595 167.797 -447.27C188.034 -447.236 210.792 -444.721 232.243 -433.832C253.925 -422.83 271.355 -405.215 287.911 -388.18C318.983 -356.232 350.109 -323.013 366.229 -285.106C387.784 -233.797 384.418 -177.942 406.31 -116.414C421.138 -74.0854 445.136 -37.967 465.353 3.87251C480.982 36.1412 472.622 57.8239 467.792 83.1798C455.859 144.887 436.012 196.247 409.499 232.94C375.857 279.797 331.728 304.707 286.211 327.388C232.431 354.463 176.501 381.095 119.232 412.916C61.417 444.256 2.26286 480.787 -70.5832 516.497C-81.622 521.873 -95.6362 526.529 -110.097 518.702C-120.891 512.868 -128.383 501.771 -135.331 491.354C-180.384 423.814 -220.708 351.231 -258.568 271.651C-270.472 246.733 -282.259 219.477 -283.503 194.355C-284.445 175.622 -279.598 160.362 -275.16 145.616Z" stroke="#E8E8E8" stroke-width="4.0733" stroke-miterlimit="10" stroke-linecap="round" stroke-linejoin="round" stroke-dasharray="0.03 13.62"/>
<path d="M-269.486 139.014C-236.484 19.2216 -211.607 -99.9957 -167.494 -192.781C-123.429 -286.791 -63.6301 -359.07 25.6789 -408.505C61.6031 -428.457 103.595 -443.719 155.526 -444.478C174.787 -444.843 196.458 -442.834 217.106 -432.436C238.013 -421.907 255.07 -404.656 271.288 -387.972C301.67 -356.736 332.178 -324.216 348.51 -286.728C370.39 -235.969 368.41 -180.462 390.313 -119.981C405.197 -78.2863 428.7 -42.8741 448.619 -1.80588C464.022 29.8745 456.118 51.3165 451.615 76.2857C440.519 136.881 421.359 187.075 395.59 222.887C362.897 268.583 319.863 292.793 275.575 314.916C223.243 341.312 168.96 367.411 113.86 398.988C58.2548 430.121 1.83286 466.734 -66.3816 503.888C-76.725 509.487 -89.8834 514.469 -103.814 506.961C-114.227 501.358 -121.659 490.388 -128.576 480.096C-173.296 413.543 -213.634 341.939 -251.487 263.571C-263.388 239.025 -275.204 212.173 -276.815 187.334C-278.028 168.778 -273.577 153.625 -269.486 139.014Z" stroke="#E8E8E8" stroke-width="4.2397" stroke-miterlimit="10" stroke-linecap="round" stroke-linejoin="round" stroke-dasharray="0.03 13.59"/>
<path d="M-263.968 132.275C-233.677 14.0408 -209.263 -101.822 -166.334 -192.155C-123.401 -283.714 -65.2683 -354.238 20.0412 -403.891C54.3296 -423.908 94.2276 -439.612 143.608 -441.376C161.93 -442.104 182.546 -440.573 202.412 -430.645C222.564 -420.575 239.243 -403.691 255.12 -387.358C284.802 -356.844 314.678 -325.035 331.171 -288.013C353.312 -237.86 352.62 -182.788 374.489 -123.396C389.398 -82.3638 412.391 -47.6656 431.996 -7.38554C447.151 23.6917 439.69 44.8749 435.496 69.4452C425.196 128.89 406.713 177.909 381.688 212.837C349.941 257.366 308.004 280.882 264.941 302.44C214.053 328.155 161.403 353.708 108.414 384.991C54.964 415.867 1.17309 452.47 -62.637 490.866C-72.3186 496.66 -84.6564 501.924 -98.0764 494.727C-108.12 489.346 -115.483 478.51 -122.356 468.353C-166.682 402.847 -206.943 332.302 -244.706 255.215C-256.582 231.064 -268.398 204.638 -270.343 180.111C-271.809 161.759 -267.733 146.731 -263.968 132.275Z" stroke="#E8E8E8" stroke-width="4.4062" stroke-miterlimit="10" stroke-linecap="round" stroke-linejoin="round" stroke-dasharray="0.03 13.57"/>
<path d="M-258.601 125.403C-230.86 8.87105 -206.918 -103.652 -165.179 -191.531C-123.379 -280.638 -66.9068 -349.405 14.527 -399.166C47.2296 -419.205 85.1101 -435.288 132.028 -437.971C149.443 -439.039 169.045 -437.95 188.148 -428.477C207.563 -418.849 223.858 -402.335 239.388 -386.36C268.362 -356.574 297.591 -325.488 314.199 -288.972C336.531 -239.487 337.035 -184.933 358.826 -126.666C373.733 -86.3249 396.207 -52.349 415.476 -12.8754C430.374 17.5896 423.33 38.4941 419.435 62.6531C409.89 120.911 392.072 168.747 367.784 202.785C336.977 246.146 296.145 268.97 254.302 289.963C204.853 314.991 153.824 339.989 102.891 370.93C51.5392 401.498 0.287149 438.009 -59.3459 477.448C-68.4033 483.409 -79.9622 488.921 -92.8795 482.021C-102.566 476.853 -109.85 466.159 -116.671 456.146C-160.528 391.745 -200.629 322.332 -238.223 246.6C-250.05 222.866 -261.841 196.887 -264.087 172.704C-265.781 154.572 -262.055 139.692 -258.601 125.403Z" stroke="#E8E8E8" stroke-width="4.5727" stroke-miterlimit="10" stroke-linecap="round" stroke-linejoin="round" stroke-dasharray="0.03 13.54"/>
<path d="M-253.375 118.405C-228.03 3.71099 -204.575 -105.482 -164.019 -190.905C-123.351 -277.559 -68.5358 -344.57 9.13879 -394.329C40.3029 -414.346 76.2427 -430.74 120.785 -434.27C137.325 -435.646 155.947 -434.97 174.303 -425.935C192.996 -416.736 208.908 -400.596 224.089 -384.98C252.343 -355.93 280.915 -325.581 297.592 -289.611C320.055 -240.85 321.66 -186.893 343.329 -129.79C358.202 -90.166 380.145 -56.9224 399.063 -18.2693C413.691 11.5688 407.047 32.1806 403.43 55.912C394.603 112.952 377.439 159.59 353.886 192.74C324.014 234.927 284.288 257.064 243.662 277.487C195.654 301.829 146.229 326.257 97.3035 356.81C47.9932 387.023 -0.814615 423.359 -56.4839 463.651C-64.9477 469.748 -75.7683 475.473 -88.1983 468.857C-97.5333 463.894 -104.732 453.35 -111.492 443.487C-154.819 380.253 -194.674 312.043 -232.025 237.73C-243.781 214.431 -255.518 188.927 -258.035 165.112C-259.937 147.22 -256.542 132.506 -253.375 118.405Z" stroke="#E8E8E8" stroke-width="4.7392" stroke-miterlimit="10" stroke-linecap="round" stroke-linejoin="round" stroke-dasharray="0.03 13.51"/>
<path d="M-248.291 111.28C-225.189 -1.43923 -202.233 -107.314 -162.863 -190.282C-123.326 -274.481 -70.1674 -339.732 3.86995 -389.387C33.5466 -409.341 67.6124 -425.984 109.867 -430.285C125.562 -431.942 143.241 -431.644 160.865 -423.035C178.855 -414.248 194.378 -398.483 209.203 -383.232C236.734 -354.923 264.629 -325.325 281.335 -289.938C303.861 -241.958 306.479 -188.677 327.987 -132.778C342.796 -93.8945 364.2 -61.3942 382.745 -23.5772C397.091 5.62411 390.828 25.9241 387.479 49.2174C379.33 105.003 362.811 150.44 339.988 182.692C311.046 223.703 272.434 245.156 233.02 265.007C137.647 310.341 47.5571 365.593 -54.0447 449.477C-61.9456 455.685 -72.0684 461.587 -84.0252 455.244C-93.0195 450.479 -100.125 440.093 -106.812 430.389C-149.541 368.374 -189.079 301.441 -226.111 228.613C-237.771 205.77 -249.43 180.761 -252.186 157.344C-254.271 139.713 -251.188 125.181 -248.291 111.28Z" stroke="#E8E8E8" stroke-width="4.9056" stroke-miterlimit="10" stroke-linecap="round" stroke-linejoin="round" stroke-dasharray="0.03 13.49"/>
<path d="M-243.342 104.038C-222.337 -6.57754 -199.897 -109.147 -161.705 -189.657C-123.304 -271.407 -71.7933 -334.89 -1.28075 -384.34C26.9556 -404.187 59.2177 -421.019 99.2659 -426.015C114.149 -427.926 130.919 -427.978 147.828 -419.778C165.131 -411.39 180.265 -396.002 194.73 -381.12C221.527 -353.564 248.738 -324.723 265.425 -289.958C287.956 -242.811 291.498 -190.288 312.799 -135.627C327.514 -97.512 348.368 -65.763 366.529 -28.796C380.575 -0.243446 374.676 19.7288 371.578 42.5706C364.071 97.0706 348.187 141.294 326.091 172.649C298.075 212.478 260.577 233.254 222.375 252.527C130.067 296.656 42.6886 350.268 -52.0155 434.946C-59.384 441.236 -68.8452 447.282 -80.3411 441.202C-89.0023 436.628 -96.008 426.404 -102.613 416.868C-144.689 356.128 -183.826 290.538 -220.469 219.258C-232.013 196.891 -243.569 172.397 -246.536 149.402C-248.78 132.05 -245.983 117.722 -243.342 104.038Z" stroke="#E8E8E8" stroke-width="5.0721" stroke-miterlimit="10" stroke-linecap="round" stroke-linejoin="round" stroke-dasharray="0.03 13.46"/>
<path d="M-238.526 96.6797C-219.476 -11.7069 -197.558 -110.981 -160.549 -189.031C-123.282 -268.328 -73.4158 -330.044 -6.31323 -379.19C20.527 -398.891 51.0523 -415.852 88.9772 -421.47C103.076 -423.611 118.97 -423.981 135.183 -416.178C151.814 -408.173 166.555 -393.167 180.656 -378.658C206.712 -351.858 233.226 -323.789 249.853 -289.685C272.325 -243.426 276.71 -191.73 297.765 -138.344C312.36 -101.021 332.657 -70.0292 350.411 -33.9326C364.151 -6.03802 358.596 13.5916 355.734 35.9693C348.83 89.1472 333.57 132.151 312.199 162.605C285.105 201.249 248.732 221.349 211.735 240.044C122.475 282.95 37.8137 334.927 -50.3724 420.065C-57.2381 426.412 -66.0745 432.569 -77.1213 426.742C-85.4572 422.346 -92.3529 412.296 -98.8698 402.935C-140.229 343.521 -178.894 279.342 -215.079 209.67C-226.483 187.797 -237.916 163.843 -241.064 141.293C-243.453 124.239 -240.929 110.13 -238.526 96.6797Z" stroke="#E8E8E8" stroke-width="5.2386" stroke-miterlimit="10" stroke-linecap="round" stroke-linejoin="round" stroke-dasharray="0.03 13.43"/>
<path d="M-233.833 89.2098C-216.6 -16.8268 -195.22 -112.817 -159.391 -188.407C-123.257 -265.255 -75.0348 -325.196 -11.238 -373.941C14.2508 -393.457 43.1065 -410.486 78.988 -416.662C92.3329 -419.002 107.381 -419.665 122.912 -412.242C138.89 -404.609 153.232 -389.986 166.966 -375.852C192.275 -349.816 218.074 -322.53 234.602 -289.121C256.961 -243.798 262.102 -193.009 282.875 -140.932C297.324 -104.425 317.05 -74.201 334.385 -38.9832C347.802 -11.7599 342.574 7.50884 339.939 29.4139C333.606 81.2403 318.961 123.018 298.306 152.564C272.133 190.02 236.881 209.447 201.088 227.562C114.856 269.228 32.9195 319.578 -49.1132 404.851C-55.5019 411.229 -63.7514 417.468 -74.3591 411.882C-82.3842 407.662 -89.1577 397.789 -95.5779 388.609C-136.163 330.575 -174.284 267.866 -209.945 199.864C-221.191 178.503 -232.474 155.104 -235.777 133.029C-238.289 116.288 -236.014 102.417 -233.833 89.2098Z" stroke="#E8E8E8" stroke-width="5.405" stroke-miterlimit="10" stroke-linecap="round" stroke-linejoin="round" stroke-dasharray="0.03 13.41"/>
<path d="M-229.26 81.6345C-213.711 -21.934 -192.884 -114.653 -158.233 -187.78C-123.233 -262.179 -76.6517 -320.341 -16.0505 -368.595C8.13345 -387.884 35.3791 -404.93 69.2904 -411.591C81.912 -414.11 96.1455 -415.035 111.013 -407.978C126.346 -400.702 140.293 -386.467 153.654 -372.711C178.205 -347.446 203.282 -320.95 219.67 -288.273C241.86 -243.94 247.675 -194.124 268.128 -143.39C282.405 -107.723 301.55 -78.275 318.45 -43.9523C331.533 -17.4093 326.615 1.48512 324.19 22.9029C318.391 73.3502 304.352 113.886 284.413 142.528C259.153 178.792 225.03 197.548 190.439 215.079C107.216 255.489 28.0083 304.219 -48.2215 389.312C-54.1638 395.701 -61.8605 401.984 -72.0386 396.633C-79.7555 392.58 -86.4054 382.891 -92.7206 373.901C-132.479 317.295 -169.984 256.121 -205.057 189.843C-216.124 169.012 -227.238 146.19 -230.669 124.611C-233.277 108.2 -231.232 94.5822 -229.26 81.6345Z" stroke="#E8E8E8" stroke-width="5.5715" stroke-miterlimit="10" stroke-linecap="round" stroke-linejoin="round" stroke-dasharray="0.03 13.38"/>
<path d="M-224.802 73.9574C-210.816 -27.0333 -190.551 -116.489 -157.076 -187.155C-123.214 -259.103 -78.2614 -315.487 -20.7557 -363.153C2.16107 -382.182 27.8643 -399.185 59.8825 -406.266C71.8033 -408.939 85.2568 -410.099 99.4718 -403.398C114.181 -396.465 127.723 -382.62 140.71 -369.246C164.501 -344.757 188.841 -319.064 205.051 -287.152C227.016 -243.854 233.431 -195.083 253.523 -145.724C267.6 -110.919 286.16 -82.2545 302.606 -48.8423C315.347 -22.9896 310.719 -4.487 308.496 16.435C303.201 65.4696 289.756 104.763 270.528 132.49C246.177 167.558 213.187 185.65 179.797 202.596C99.5669 241.735 23.0975 288.85 -47.6738 373.463C-53.1933 379.835 -60.3662 386.14 -70.1305 381.012C-77.5467 377.119 -84.0655 367.621 -90.2663 358.828C-129.144 303.696 -165.966 244.115 -200.391 179.615C-211.258 159.332 -222.18 137.107 -225.715 116.045C-228.416 99.98 -226.585 86.632 -224.802 73.9574Z" stroke="#E8E8E8" stroke-width="5.738" stroke-miterlimit="10" stroke-linecap="round" stroke-linejoin="round" stroke-dasharray="0.03 13.36"/>
<path d="M-220.454 66.1832C-207.907 -32.1207 -188.217 -118.329 -155.916 -186.53C-123.188 -256.031 -79.8666 -310.627 -25.354 -357.621C-3.66139 -376.349 20.5565 -393.26 50.7523 -400.697C62.0023 -403.497 74.6989 -404.869 88.2808 -398.51C102.379 -391.908 115.516 -378.455 128.124 -365.466C151.142 -341.759 174.737 -316.88 190.732 -285.766C212.422 -243.553 219.356 -195.89 239.053 -147.94C252.907 -114.019 270.87 -86.1442 286.85 -53.6544C299.233 -28.5032 294.885 -10.403 292.847 10.0085C288.019 57.6043 275.162 95.6425 256.643 122.457C233.197 156.324 201.347 173.754 169.148 190.111C91.8947 227.964 18.1689 273.471 -47.4695 357.314C-52.5927 363.649 -59.2769 369.946 -68.6334 365.031C-75.7595 361.293 -82.1371 351.992 -88.2194 343.401C-126.164 289.791 -162.238 231.857 -195.954 169.19C-206.606 149.471 -217.317 127.858 -220.927 107.338C-223.694 91.6344 -222.06 78.5713 -220.454 66.1832Z" stroke="#E8E8E8" stroke-width="5.9045" stroke-miterlimit="10" stroke-linecap="round" stroke-linejoin="round" stroke-dasharray="0.03 13.33"/>
<path d="M-216.213 58.3136C-204.99 -37.1996 -185.886 -120.168 -154.758 -185.905C-123.167 -252.954 -81.4701 -305.764 -29.8522 -351.996C-9.34372 -370.392 13.4471 -387.157 41.8935 -394.889C52.4968 -397.794 64.4687 -399.353 77.4283 -393.322C90.9278 -387.042 103.656 -373.981 115.88 -361.381C138.124 -338.466 160.961 -314.406 176.702 -284.124C198.06 -243.037 205.443 -196.551 224.714 -150.04C238.32 -117.023 255.678 -89.9494 271.175 -58.3948C283.192 -33.9549 279.104 -16.2731 277.24 3.62C272.852 49.7482 260.572 86.5265 242.759 112.421C220.217 145.087 189.502 161.859 158.5 177.624C84.207 214.177 13.232 258.083 -47.5857 340.879C-52.3397 347.153 -58.5641 353.416 -67.5239 348.707C-74.3653 345.113 -80.5971 336.017 -86.5497 327.636C-123.511 275.591 -158.778 219.362 -191.727 158.577C-202.144 139.437 -212.624 118.454 -216.288 98.4942C-219.108 83.1706 -217.654 70.406 -216.213 58.3136Z" stroke="#E8E8E8" stroke-width="6.071" stroke-miterlimit="10" stroke-linecap="round" stroke-linejoin="round" stroke-dasharray="0.03 13.3"/>
<path d="M-212.071 50.3581C-202.056 -42.2694 -183.555 -122.009 -153.601 -185.279C-123.147 -249.88 -83.0683 -300.897 -34.255 -346.287C-14.89 -364.314 6.52927 -380.883 33.2916 -388.849C43.2764 -391.84 54.5504 -393.559 66.903 -387.844C79.8177 -381.87 92.134 -369.205 103.972 -356.999C125.434 -334.878 147.502 -311.651 162.959 -282.229C183.938 -242.315 191.7 -197.068 210.506 -152.026C223.84 -119.935 240.585 -93.6681 255.589 -63.0613C267.228 -39.339 263.383 -22.0906 261.683 -2.72768C257.703 41.9069 245.993 77.4163 228.88 102.392C207.237 133.852 177.666 149.966 147.852 165.14C76.5066 200.38 8.29091 242.689 -48.011 324.171C-52.4164 330.364 -58.2123 336.566 -66.7842 332.053C-73.3491 328.603 -79.4279 319.715 -85.2467 311.548C-121.18 261.11 -155.575 206.639 -187.705 147.784C-197.872 129.237 -208.103 108.901 -211.799 89.5232C-214.65 74.5917 -213.364 62.1381 -212.071 50.3581Z" stroke="#E8E8E8" stroke-width="6.2374" stroke-miterlimit="10" stroke-linecap="round" stroke-linejoin="round" stroke-dasharray="0.03 13.28"/>
<path d="M-208.026 42.3152C-199.116 -47.3296 -181.225 -123.85 -152.443 -184.655C-123.126 -246.81 -84.6634 -296.027 -38.5594 -340.492C-20.3032 -358.12 -0.197808 -374.445 24.9464 -382.586C34.3311 -385.641 44.9359 -387.496 56.6938 -382.088C69.0366 -376.41 80.9409 -364.145 92.3893 -352.333C113.062 -331.012 134.35 -308.626 149.486 -280.093C170.039 -241.395 178.106 -197.444 196.417 -153.903C209.458 -122.757 225.581 -97.305 240.074 -67.6592C251.324 -44.6673 247.713 -27.8627 246.164 -9.04057C242.562 34.0744 231.411 68.3071 214.997 92.3581C194.249 122.608 165.823 138.071 137.201 152.649C68.7866 186.565 3.33694 227.282 -48.7395 307.193C-52.8158 313.287 -58.2116 319.402 -66.4074 315.08C-72.7022 311.764 -78.6186 303.091 -84.2947 295.148C-119.154 246.356 -152.624 193.692 -183.88 136.814C-193.78 118.877 -203.741 99.2035 -207.45 80.4247C-210.319 65.9021 -209.181 53.777 -208.026 42.3152Z" stroke="#E8E8E8" stroke-width="6.4039" stroke-miterlimit="10" stroke-linecap="round" stroke-linejoin="round" stroke-dasharray="0.03 13.25"/>
<path d="M-204.07 34.1941C-196.163 -52.3801 -178.898 -125.693 -151.287 -184.031C-123.107 -243.736 -86.254 -291.152 -42.7726 -334.613C-25.5898 -351.809 -6.74591 -367.842 16.8456 -376.103C25.6578 -379.199 35.6174 -381.169 46.7918 -376.054C58.5751 -370.663 70.0614 -358.799 81.117 -347.384C100.995 -326.869 121.497 -305.332 136.277 -277.721C156.356 -240.281 164.665 -197.686 182.45 -155.672C195.175 -125.492 210.666 -100.859 224.638 -72.187C235.491 -49.9317 232.094 -33.5872 230.685 -15.3114C227.433 26.2558 216.835 59.2048 201.116 82.3297C181.259 111.368 153.984 126.181 126.548 140.163C61.0519 172.742 -1.62591 211.877 -49.7496 289.973C-53.5215 295.949 -58.5416 301.952 -66.3702 297.811C-72.399 294.626 -78.152 286.174 -83.6796 278.455C-117.419 231.35 -149.912 180.541 -180.244 125.685C-189.863 108.369 -199.538 89.3747 -203.233 71.2142C-206.103 57.1117 -205.099 45.323 -204.07 34.1941Z" stroke="#E8E8E8" stroke-width="6.5704" stroke-miterlimit="10" stroke-linecap="round" stroke-linejoin="round" stroke-dasharray="0.03 13.22"/>
<path d="M-200.199 25.9974C-193.199 -57.4204 -176.569 -127.535 -150.127 -183.403C-123.084 -240.661 -87.8369 -286.273 -46.891 -328.654C-30.7457 -345.385 -13.1138 -361.081 8.98323 -369.409C17.2459 -372.528 26.583 -374.588 37.1904 -369.757C48.4277 -364.641 59.4949 -353.179 70.1557 -342.167C89.2304 -322.464 108.933 -301.784 123.33 -275.12C142.894 -238.974 151.377 -197.795 168.603 -157.335C180.99 -128.139 195.845 -104.332 209.278 -76.6476C219.724 -55.1381 216.53 -39.2641 215.252 -21.5467C212.322 18.4503 202.268 50.1099 187.241 72.3044C168.271 100.127 142.15 114.292 115.897 127.677C53.3091 158.907 -6.59096 196.466 -51.0269 272.513C-54.5173 278.353 -59.1878 284.221 -66.6545 280.256C-72.4246 277.192 -78.0039 268.968 -83.3771 261.483C-115.956 216.101 -147.418 167.193 -176.777 114.4C-186.097 97.7197 -195.472 79.4183 -199.137 61.8937C-201.999 48.2205 -201.118 36.7836 -200.199 25.9974Z" stroke="#E8E8E8" stroke-width="6.7368" stroke-miterlimit="10" stroke-linecap="round" stroke-linejoin="round" stroke-dasharray="0.03 13.2"/>
<path d="M-196.409 17.7281C-190.23 -62.4511 -174.243 -129.378 -148.971 -182.779C-123.067 -237.589 -89.4195 -281.393 -50.9261 -322.62C-35.7818 -338.855 -19.3138 -354.174 1.35239 -362.513C9.08205 -365.636 17.8277 -367.767 27.8746 -363.21C38.5754 -358.357 49.2228 -347.301 59.4831 -336.692C77.752 -317.805 96.6473 -297.99 110.628 -272.304C129.629 -237.491 138.228 -197.781 154.867 -158.903C166.896 -130.707 181.107 -107.737 193.992 -81.0465C204.019 -60.2906 201.014 -44.9012 199.857 -27.7513C197.223 10.6523 187.703 41.0141 173.365 62.2783C155.281 88.8828 130.313 102.402 105.245 115.188C45.5492 145.06 -11.563 181.048 -52.5586 254.825C-55.7828 260.51 -60.1315 266.222 -67.2439 262.425C-72.7586 259.482 -78.1631 251.488 -83.3754 244.242C-114.755 200.622 -145.135 153.653 -173.478 102.964C-182.487 86.931 -191.544 69.3359 -195.162 52.4641C-198 39.2377 -197.226 28.1625 -196.409 17.7281Z" stroke="#E8E8E8" stroke-width="6.9033" stroke-miterlimit="10" stroke-linecap="round" stroke-linejoin="round" stroke-dasharray="0.03 13.17"/>
<path d="M-192.696 9.3927C-187.247 -67.4727 -171.915 -131.224 -147.812 -182.152C-123.046 -234.514 -90.9969 -276.502 -54.8747 -316.51C-40.6996 -332.222 -25.3458 -347.118 -6.05861 -355.421C1.16333 -358.528 9.33575 -360.709 18.8374 -356.414C29.0123 -351.815 39.2382 -341.166 49.0951 -330.964C66.5511 -312.899 84.6311 -293.957 98.1657 -269.27C116.565 -235.829 125.216 -197.637 141.24 -160.367C152.89 -133.192 166.449 -111.059 178.774 -85.3788C188.375 -65.3827 185.546 -50.4913 184.497 -33.9166C182.137 2.87252 173.143 31.9267 159.491 52.2563C142.286 77.6399 118.476 90.5172 94.5935 102.704C37.7819 131.205 -16.5397 165.63 -54.3345 236.927C-57.3132 242.443 -61.3604 247.979 -68.1279 244.343C-73.3956 241.511 -78.616 233.758 -83.6639 226.752C-113.804 184.926 -143.059 139.941 -170.341 91.394C-179.025 76.0192 -187.751 59.1443 -191.302 42.9415C-194.099 30.167 -193.42 19.466 -192.696 9.3927Z" stroke="#E8E8E8" stroke-width="7.0698" stroke-miterlimit="10" stroke-linecap="round" stroke-linejoin="round" stroke-dasharray="0.03 13.14"/>
<path d="M-189.053 0.994617C-184.251 -72.4846 -169.59 -133.068 -146.654 -181.527C-123.028 -231.442 -92.5658 -271.61 -58.7418 -310.326C-45.5064 -325.487 -31.221 -339.922 -13.2552 -348.139C-6.52327 -351.215 1.1001 -353.425 10.0636 -349.384C19.7273 -345.029 29.5252 -334.792 38.9769 -324.996C55.6182 -307.76 72.8728 -289.696 85.9339 -266.037C103.69 -234.003 112.339 -197.381 127.719 -161.744C138.974 -135.603 151.873 -114.318 163.623 -89.6569C172.789 -70.4305 170.123 -56.0441 169.175 -40.0545C167.058 -4.90591 158.632 22.9073 145.619 42.2316C129.342 66.4791 106.645 78.6277 83.9425 90.2133C30.0016 117.339 -21.5221 150.203 -56.3364 218.822C-59.0872 224.151 -62.8561 229.492 -69.2823 226.012C-74.31 223.293 -79.3398 215.776 -84.2173 209.02C-113.084 169.018 -141.169 126.058 -167.35 79.6878C-175.697 64.985 -184.076 48.8396 -187.543 33.3205C-190.29 21.0132 -189.698 10.6985 -189.053 0.994617Z" stroke="#E8E8E8" stroke-width="7.2363" stroke-miterlimit="10" stroke-linecap="round" stroke-linejoin="round" stroke-dasharray="0.03 13.12"/>
<path d="M-185.476 -7.46275C-181.247 -77.4903 -167.265 -134.914 -145.495 -180.903C-123.01 -228.374 -94.134 -266.717 -62.5286 -304.075C-50.203 -318.657 -36.9389 -332.592 -20.2472 -340.678C-13.983 -343.702 -6.88925 -345.924 1.5514 -342.128C10.708 -338.009 20.0804 -328.183 29.125 -318.8C44.9381 -302.394 61.338 -285.196 73.9249 -262.609C90.9663 -231.982 99.5923 -197.009 114.304 -163.031C125.144 -137.942 137.375 -117.511 148.544 -93.877C157.266 -75.4287 154.751 -61.5585 153.893 -46.1631C152.002 -12.6726 144.081 13.8266 131.752 32.2072C116.353 55.2281 94.8176 66.7393 73.2941 77.7206C22.2156 103.459 -26.5033 134.772 -58.5515 200.525C-61.0885 205.658 -64.5997 210.78 -70.6957 207.452C-75.484 204.837 -80.3219 197.568 -85.0209 191.063C-112.582 152.919 -139.451 112.015 -164.495 67.8569C-172.493 53.8346 -180.51 38.4341 -183.879 23.6128C-186.568 11.7854 -186.048 1.86256 -185.476 -7.46275Z" stroke="#E8E8E8" stroke-width="7.4027" stroke-miterlimit="10" stroke-linecap="round" stroke-linejoin="round" stroke-dasharray="0.03 13.09"/>
<path d="M-181.961 -15.9723C-178.234 -82.4835 -164.94 -136.759 -144.34 -180.277C-122.992 -225.303 -95.6954 -261.814 -66.2428 -297.756C-54.7945 -311.734 -42.5161 -325.13 -27.041 -333.041C-21.2297 -335.998 -14.6432 -338.211 -6.71952 -334.652C1.94408 -330.762 10.8862 -321.347 19.5185 -312.378C34.5081 -296.809 50.0651 -280.501 62.126 -258.988C78.4522 -229.832 86.9654 -196.525 100.983 -164.227C111.389 -140.203 122.948 -120.629 133.52 -98.0382C141.792 -80.3708 139.415 -67.0317 138.64 -52.2354C136.947 -20.4248 129.537 4.75061 117.882 22.1903C103.356 43.9846 82.9872 54.8571 62.6407 65.2347C14.4152 89.5802 -31.4905 119.345 -60.971 182.058C-63.3137 186.977 -66.586 191.864 -72.353 188.682C-76.9066 186.168 -81.5457 179.149 -86.0649 172.902C-112.284 136.644 -137.862 97.7819 -161.773 55.9183C-169.397 42.5695 -177.058 27.9399 -180.309 13.8305C-182.927 2.48504 -182.468 -7.03185 -181.961 -15.9723Z" stroke="#E8E8E8" stroke-width="7.5692" stroke-miterlimit="10" stroke-linecap="round" stroke-linejoin="round" stroke-dasharray="0.03 13.06"/>
<path d="M-178.5 -24.531C-175.21 -87.4677 -162.616 -138.606 -143.18 -179.651C-122.973 -222.23 -97.253 -256.909 -69.8784 -291.366C-59.2809 -304.715 -47.945 -317.538 -33.6445 -325.232C-28.265 -328.109 -22.1681 -330.297 -14.7502 -326.965C-6.56952 -323.294 1.94046 -314.294 10.1581 -305.74C24.3149 -291.01 39.0248 -275.602 50.5344 -255.187C66.1066 -227.532 74.4588 -195.932 87.7575 -165.339C97.7136 -142.397 108.593 -123.688 118.558 -102.146C126.368 -85.2673 124.122 -72.4668 123.418 -58.2788C121.907 -28.1664 114.993 -4.3204 104.015 12.1742C90.3559 32.7349 71.1554 42.9757 51.9882 52.7488C6.60919 75.6918 -36.4792 103.919 -63.5746 163.426C-65.7365 168.119 -68.7899 172.757 -74.2356 169.713C-78.5634 167.297 -82.9953 160.534 -87.3289 154.545C-112.18 120.201 -136.468 83.4606 -159.169 43.8714C-166.424 31.2235 -173.698 17.3577 -176.824 3.9714C-179.359 -6.88077 -178.954 -15.984 -178.5 -24.531Z" stroke="#E8E8E8" stroke-width="7.7357" stroke-miterlimit="10" stroke-linecap="round" stroke-linejoin="round" stroke-dasharray="0.03 13.04"/>
<path d="M-175.091 -33.137C-172.176 -92.4463 -160.292 -140.454 -142.022 -179.026C-122.956 -219.162 -98.8027 -252 -73.4454 -284.92C-63.674 -297.616 -53.2405 -309.833 -40.0681 -317.267C-35.105 -320.047 -29.4782 -322.191 -22.556 -319.082C-14.8506 -315.618 -6.77696 -307.04 1.02779 -298.903C14.3463 -285.019 28.2026 -270.516 39.1392 -251.215C53.9267 -225.092 62.0674 -195.242 74.6264 -166.373C84.1151 -144.524 94.3069 -126.686 103.658 -106.204C111.002 -90.1223 108.871 -77.8705 108.236 -64.2984C106.882 -35.9004 100.46 -13.3909 90.1525 2.15512C77.3599 21.485 59.3326 31.0912 41.3407 40.2599C-1.19723 61.7935 -41.4678 88.486 -66.3483 144.634C-68.343 149.088 -71.1939 153.461 -76.3231 150.554C-80.4273 148.231 -84.6492 141.726 -88.7942 136.003C-112.247 103.598 -135.213 69.0084 -156.675 31.7217C-163.551 19.7824 -170.428 6.6904 -173.416 -5.96088C-175.857 -16.3057 -175.496 -24.9911 -175.091 -33.137Z" stroke="#E8E8E8" stroke-width="7.9022" stroke-miterlimit="10" stroke-linecap="round" stroke-linejoin="round" stroke-dasharray="0.03 13.01"/>
<path d="M-171.727 -41.7817C-169.136 -97.4137 -157.969 -142.299 -140.864 -178.4C-122.939 -216.09 -100.349 -247.085 -76.9466 -278.412C-67.9713 -290.431 -58.4048 -302.009 -46.3164 -309.147C-41.755 -311.816 -36.5806 -313.905 -30.1471 -311.005C-22.91 -307.746 -15.2696 -299.586 -7.88534 -291.869C4.5908 -278.836 17.5871 -265.241 27.9253 -247.078C41.8963 -222.513 49.7777 -194.451 61.5737 -167.329C70.5853 -146.59 80.0823 -129.626 88.8077 -110.213C95.6782 -94.931 93.6535 -83.2425 93.0737 -70.2899C91.8633 -43.6252 85.9227 -22.4557 76.2841 -7.86109C64.3563 10.2324 47.5015 19.2103 30.6859 27.7718C-9.02253 47.8944 -46.464 73.0555 -69.288 125.705C-71.1273 129.91 -73.7912 134.001 -78.6096 131.228C-82.4949 128.995 -86.5027 122.753 -90.4532 117.297C-112.484 86.8543 -134.096 54.4409 -154.287 19.4842C-160.772 8.26116 -167.247 -4.04652 -170.079 -15.9543C-172.42 -25.7855 -172.093 -34.0425 -171.727 -41.7817Z" stroke="#E8E8E8" stroke-width="8.0686" stroke-miterlimit="10" stroke-linecap="round" stroke-linejoin="round" stroke-dasharray="0.03 12.98"/>
<path d="M-168.404 -50.464C-166.081 -102.375 -155.644 -144.146 -139.705 -177.773C-122.925 -213.021 -101.89 -242.165 -80.3792 -271.846C-72.1782 -283.168 -63.4462 -294.076 -52.3994 -300.88C-48.2238 -303.426 -43.4854 -305.441 -37.5313 -302.748C-30.7517 -299.685 -23.5522 -291.945 -16.5863 -284.653C-4.95249 -272.47 7.17448 -259.791 16.8948 -242.784C30.0206 -219.802 37.5997 -193.568 48.6136 -168.212C57.1266 -148.59 65.9262 -132.508 74.015 -114.173C80.4051 -99.6992 78.478 -88.5776 77.9478 -76.2551C76.8621 -51.3391 71.3955 -31.5195 62.4248 -17.8749C51.3564 -1.01996 35.673 7.32768 20.0367 15.2847C-16.8447 33.9873 -51.4513 57.6226 -72.3695 106.647C-74.0667 110.595 -76.5579 114.388 -81.0713 111.745C-84.7368 109.598 -88.5268 103.627 -92.2799 98.44C-112.864 69.9831 -133.092 39.7733 -151.99 7.16691C-158.075 -3.33279 -164.138 -14.8478 -166.808 -26.0008C-169.038 -35.3163 -168.733 -43.1356 -168.404 -50.464Z" stroke="#E8E8E8" stroke-width="8.2351" stroke-miterlimit="10" stroke-linecap="round" stroke-linejoin="round" stroke-dasharray="0.03 12.96"/>
<path d="M-165.118 -59.1776C-163.027 -107.326 -153.323 -145.994 -138.546 -177.149C-122.91 -209.954 -103.427 -237.242 -83.7533 -265.228C-76.2988 -275.829 -68.387 -286.078 -58.3255 -292.476C-54.5276 -294.9 -50.2021 -296.81 -44.7196 -294.319C-38.3918 -291.446 -31.6297 -284.129 -25.0901 -277.257C-14.3057 -265.933 -3.05237 -254.174 6.03072 -238.34C18.2817 -216.97 25.5162 -192.596 35.7257 -169.026C43.7276 -150.536 51.823 -135.338 59.2705 -118.091C65.1725 -104.426 63.3341 -93.8843 62.8437 -82.1975C61.8667 -59.0465 56.8682 -40.5774 48.5618 -27.8891C38.3522 -12.2762 23.8467 -4.55468 9.38619 2.79656C-24.6729 20.0756 -56.4468 42.1907 -75.5847 87.4707C-77.1494 91.1506 -79.4837 94.6346 -83.6935 92.118C-87.1437 90.0549 -90.7158 84.353 -94.2657 79.4417C-113.381 52.9898 -132.202 25.0039 -149.779 -5.22961C-155.458 -14.9989 -161.099 -25.7149 -163.593 -36.1033C-165.705 -44.8904 -165.42 -52.2658 -165.118 -59.1776Z" stroke="#E8E8E8" stroke-width="8.4016" stroke-miterlimit="10" stroke-linecap="round" stroke-linejoin="round" stroke-dasharray="0.03 12.93"/>
<path d="M-161.862 -67.9201C-159.958 -112.274 -150.998 -147.842 -137.388 -176.524C-122.894 -206.886 -104.955 -232.31 -87.0649 -258.554C-80.341 -268.415 -73.1955 -277.94 -64.1021 -283.939C-60.6623 -286.213 -56.7392 -288.021 -51.7242 -285.726C-45.8393 -283.034 -39.5216 -276.142 -33.4038 -269.697C-23.4724 -259.234 -13.099 -248.399 -4.67323 -233.754C6.67536 -214.018 13.527 -191.535 22.9178 -169.772C30.3987 -152.425 37.7809 -138.116 44.5771 -121.965C49.9834 -109.116 48.2254 -99.1643 47.7699 -88.1167C46.8823 -66.7433 42.3483 -49.6359 34.7015 -37.9026C25.349 -23.5325 12.0226 -16.435 -1.26389 -9.69031C-32.5059 6.163 -61.4413 26.7587 -78.9184 68.191C-80.3595 71.5941 -82.5491 74.7593 -86.4581 72.3669C-89.6966 70.3859 -93.0429 64.9585 -96.3882 60.3245C-114.015 35.9 -131.398 10.1551 -147.635 -17.6845C-152.903 -26.7178 -158.109 -36.6283 -160.425 -46.2431C-162.413 -54.501 -162.141 -61.4298 -161.862 -67.9201Z" stroke="#E8E8E8" stroke-width="8.568" stroke-miterlimit="10" stroke-linecap="round" stroke-linejoin="round" stroke-dasharray="0.03 12.91"/>
<path d="M-158.633 -76.6844C-156.881 -117.209 -148.676 -149.69 -136.229 -175.898C-122.878 -203.816 -106.481 -227.375 -90.3202 -251.83C-84.3041 -260.935 -77.8978 -269.708 -69.7352 -275.275C-66.6394 -277.388 -63.1097 -279.079 -58.5541 -276.976C-53.1062 -274.46 -47.2325 -267.995 -41.5393 -261.975C-32.4622 -252.378 -22.9746 -242.469 -15.2255 -229.031C-4.80293 -210.951 1.62704 -190.39 10.1804 -170.453C17.1279 -154.253 23.7934 -140.838 29.9264 -125.796C34.8341 -113.765 33.146 -104.413 32.7213 -94.0092C31.9107 -74.4282 27.8306 -58.6869 20.8428 -47.912C12.3421 -34.7868 0.196394 -28.3126 -11.9137 -22.1751C-40.341 -7.75166 -66.4397 11.3239 -82.3532 48.8207C-83.6829 51.9419 -85.7374 54.7715 -89.3492 52.502C-92.3789 50.6001 -95.4967 45.4515 -98.6359 41.0955C-114.757 18.7169 -130.687 -4.76753 -145.558 -30.197C-150.411 -38.4881 -155.175 -47.5869 -157.302 -56.4237C-159.159 -64.1441 -158.899 -70.6212 -158.633 -76.6844Z" stroke="#E8E8E8" stroke-width="8.7345" stroke-miterlimit="10" stroke-linecap="round" stroke-linejoin="round" stroke-dasharray="0.03 12.88"/>
<path d="M-155.426 -85.4673C-153.801 -122.14 -146.355 -151.536 -135.071 -175.27C-122.863 -200.746 -107.998 -222.429 -93.5194 -245.057C-88.1899 -253.384 -82.4992 -261.382 -75.2346 -266.491C-72.4734 -268.436 -69.3184 -269.997 -65.2162 -268.08C-60.1977 -265.733 -54.7695 -259.697 -49.5046 -254.107C-41.2869 -245.38 -32.687 -236.401 -25.6317 -224.183C-16.158 -207.779 -10.1879 -189.166 -2.48517 -171.073C3.9137 -156.033 9.85664 -143.518 15.3247 -129.591C19.7249 -118.382 18.1031 -109.635 17.6975 -99.8866C16.9532 -82.1071 13.3153 -67.7382 6.98713 -57.9231C-0.66415 -46.047 -11.6243 -40.1926 -22.5604 -34.6616C-48.1783 -21.6702 -71.4402 -4.11479 -85.8808 29.3677C-87.1056 32.198 -89.0356 34.6876 -92.3526 32.5368C-95.1736 30.7091 -98.0613 25.845 -100.988 21.7712C-115.585 1.45382 -130.04 -19.7566 -143.536 -42.7605C-147.963 -50.3064 -152.286 -58.5872 -154.215 -66.6377C-155.937 -73.8163 -155.677 -79.8333 -155.426 -85.4673Z" stroke="#E8E8E8" stroke-width="8.901" stroke-miterlimit="10" stroke-linecap="round" stroke-linejoin="round" stroke-dasharray="0.03 12.85"/>
<path d="M-152.234 -94.2649C-150.715 -127.067 -144.033 -153.383 -133.913 -174.646C-122.85 -197.678 -109.513 -217.481 -96.6713 -238.239C-92.0099 -245.772 -87.0055 -252.977 -80.6105 -257.597C-78.1715 -259.361 -75.38 -260.784 -71.7265 -259.048C-67.1314 -256.866 -62.1532 -251.262 -57.3176 -246.1C-49.9635 -238.247 -42.2559 -230.203 -35.9056 -219.218C-27.4056 -204.514 -21.9265 -187.868 -15.0891 -171.638C-9.24589 -157.761 -4.03212 -146.151 0.760892 -133.348C4.64844 -122.963 3.08412 -114.835 2.69294 -105.741C2.00382 -89.7754 -1.19607 -76.7836 -6.86939 -67.932C-13.673 -57.3056 -23.4494 -52.0717 -33.2079 -47.1458C-56.0176 -35.5886 -76.4498 -19.5562 -89.4871 9.84664C-90.6135 12.3818 -92.4301 14.5189 -95.4516 12.4903C-98.0691 10.7348 -100.719 6.15642 -103.436 2.36702C-116.5 -15.8737 -129.461 -34.7997 -141.563 -55.3654C-145.56 -62.1598 -149.43 -69.6184 -151.158 -76.8775C-152.737 -83.5095 -152.477 -89.065 -152.234 -94.2649Z" stroke="#E8E8E8" stroke-width="9.0675" stroke-miterlimit="10" stroke-linecap="round" stroke-linejoin="round" stroke-dasharray="0.03 12.83"/>
<path d="M-149.055 -103.074C-147.623 -131.987 -141.708 -155.232 -132.756 -174.019C-122.836 -194.612 -111.021 -212.526 -99.7723 -231.38C-95.7615 -238.102 -91.4198 -244.492 -85.869 -248.6C-83.7434 -250.177 -81.3042 -251.445 -78.0912 -249.887C-73.9149 -247.865 -69.3846 -242.694 -64.9814 -237.962C-58.4915 -230.987 -51.6828 -223.876 -46.0557 -214.14C-38.5465 -201.149 -33.597 -186.496 -27.6339 -172.147C-22.3588 -159.443 -17.8792 -148.739 -13.7655 -137.071C-10.3935 -127.512 -11.9088 -120.008 -12.2898 -111.578C-12.9296 -97.4322 -15.7044 -85.831 -20.7239 -77.9399C-26.6811 -68.5655 -35.272 -63.9513 -43.8553 -59.6299C-63.8561 -49.5082 -81.4716 -35.0121 -93.1538 -9.73116C-94.1899 -7.49117 -95.8957 -5.72061 -98.6293 -7.62851C-101.045 -9.31401 -103.457 -13.6002 -105.957 -17.1073C-117.475 -33.2567 -128.928 -49.8855 -139.624 -68.0038C-143.189 -74.044 -146.604 -80.6774 -148.124 -87.141C-149.558 -93.2207 -149.291 -98.3085 -149.055 -103.074Z" stroke="#E8E8E8" stroke-width="9.2339" stroke-miterlimit="10" stroke-linecap="round" stroke-linejoin="round" stroke-dasharray="0.03 12.8"/>
</g>
</svg>
