<svg width="800" height="730" viewBox="0 0 800 730" fill="none" xmlns="http://www.w3.org/2000/svg">
<mask id="mask0_775_474" style="mask-type:alpha" maskUnits="userSpaceOnUse" x="0" y="0" width="800" height="730">
<path d="M799.5 729.5H0.5V0.5H799.5V729.5Z" fill="#D9D9D9" stroke="#E8E8E8"/>
</mask>
<g mask="url(#mask0_775_474)">
<path d="M730.058 265.201C673.104 192.952 605.345 150.597 530.138 116.318C441.552 74.9678 342.649 40.6018 216.366 20.0918C87.7032 1.6888 -68.3427 -2.85918 -326.18 64.0698C-364.825 74.1748 -413.265 89.8598 -444.712 109.362C-467.713 123.6 -473.624 134.987 -477.955 145.301C-507.107 214.697 -517.16 283.309 -527.637 366.352C-531.023 392.293 -532.784 420.478 -514.16 442.02C-500.692 457.725 -478.857 468.487 -459.771 480.443C-300.173 583.216 -268.579 786.735 -195.268 937.774C-124.14 1090.74 -23.5182 1204.31 206.281 1209.2C299.739 1211.39 419.012 1192.06 565.047 1139.69C618.92 1120.59 679.21 1095.34 725.371 1067.69C770.845 1040.46 795.814 1015.42 818.565 991.748C862.674 945.941 903.161 900.922 898.632 867.318C895.815 844.06 875.003 825.831 858.174 802.214C840.9 778.99 827.609 750.375 829.577 715.421C832.777 667.579 864.753 618.329 885.671 564.18C901.968 522.425 876.383 501.088 859 471.338C814.199 396.072 775.091 320.959 730.058 265.201Z" stroke="#E8E8E8" stroke-width="0.2444" stroke-miterlimit="10" stroke-linecap="round" stroke-linejoin="round" stroke-dasharray="0.04 14.23"/>
<path d="M-449.168 482.682C-297.685 588.673 -266.171 788.511 -194.11 937.149C-124.103 1087.66 -25.2004 1199.51 196.766 1208.02C287.019 1211.66 401.864 1194.84 542.513 1145.97C594.41 1128.16 652.486 1104.41 697.291 1077.74C741.448 1051.46 766.153 1026.7 788.694 1003.26C832.381 957.935 872.67 913.235 869.767 878.799C868.052 854.985 848.968 835.826 833.647 811.501C817.905 787.548 805.927 758.431 808.65 723.346C812.801 675.33 844.603 626.507 865.781 572.649C882.252 531.119 857.734 509.496 841.121 479.735C798.385 404.499 760.257 330.291 716.087 275.309C660.212 204.107 593.412 162.572 519.566 128.736C432.566 87.942 335.759 53.7169 213.378 31.9199C88.7319 12.1269 -61.4861 4.76089 -307.575 63.9369C-344.475 72.8899 -390.728 87.0789 -421.21 105.872C-443.513 119.6 -449.639 131.096 -454.235 141.551C-485.204 211.849 -497.957 281.871 -510.924 365.913C-515.082 392.165 -517.714 420.698 -500.496 442.871C-488.028 459.043 -467.306 470.33 -449.168 482.682Z" stroke="#E8E8E8" stroke-width="0.4108" stroke-miterlimit="10" stroke-linecap="round" stroke-linejoin="round" stroke-dasharray="0.04 14.2"/>
<path d="M-438.837 485.162C-295.182 594.122 -263.77 790.289 -192.954 936.526C-124.068 1084.57 -26.8849 1194.72 187.442 1206.66C274.567 1211.68 385.105 1197.28 520.515 1151.79C570.484 1135.22 626.409 1112.91 669.886 1087.2C712.752 1061.85 737.184 1037.37 759.516 1014.16C802.766 969.331 842.84 924.969 841.486 889.769C840.826 865.441 823.4 845.411 809.531 820.428C795.258 795.803 784.541 766.226 787.982 731.049C793.038 682.9 824.651 634.521 846.056 580.974C862.681 539.69 839.197 517.807 823.328 488.058C782.597 412.906 745.432 339.617 702.122 285.415C647.321 215.263 581.485 174.544 508.992 141.155C423.571 100.924 328.834 66.8637 210.26 43.8657C89.5356 22.7697 -55.0229 12.7337 -289.747 64.4917C-324.96 72.3407 -369.092 85.0997 -398.638 103.204C-420.259 116.437 -426.581 128.03 -431.432 138.613C-464.101 209.709 -479.41 281.015 -494.732 365.939C-499.619 392.462 -503.079 421.304 -487.209 444.061C-475.708 460.664 -456.058 472.441 -438.837 485.162Z" stroke="#E8E8E8" stroke-width="0.5773" stroke-miterlimit="10" stroke-linecap="round" stroke-linejoin="round" stroke-dasharray="0.04 14.17"/>
<path d="M-428.768 487.874C-292.667 599.556 -261.369 792.068 -191.796 935.901C-124.036 1081.49 -28.5681 1189.91 178.31 1205.14C262.39 1211.48 368.735 1199.37 499.044 1157.14C547.138 1141.76 600.969 1120.85 643.148 1096.07C684.754 1071.61 708.908 1047.42 731.024 1024.45C773.817 980.133 813.654 936.128 813.78 900.228C814.121 875.432 798.29 854.588 785.813 828.999C772.953 803.751 763.449 773.761 767.567 738.524C773.486 690.284 804.889 642.361 826.494 589.155C843.252 548.134 820.771 526.018 805.628 496.3C766.837 421.287 730.621 348.931 688.162 295.517C634.429 226.42 569.563 186.512 498.416 153.578C414.566 113.916 321.87 80.0427 207.013 55.9227C90.1134 33.6087 -48.9535 21.0497 -272.682 65.7217C-306.263 72.5177 -348.345 83.9067 -376.978 101.341C-397.936 114.093 -404.441 125.769 -409.528 136.469C-443.785 208.264 -461.508 280.728 -479.054 366.415C-484.631 393.174 -488.872 422.286 -474.299 445.578C-463.718 462.579 -445.106 474.814 -428.768 487.874Z" stroke="#E8E8E8" stroke-width="0.7438" stroke-miterlimit="10" stroke-linecap="round" stroke-linejoin="round" stroke-dasharray="0.04 14.15"/>
<path d="M-418.958 490.815C-290.139 604.98 -258.976 793.85 -190.641 935.276C-124.002 1078.4 -30.25 1185.11 169.365 1203.45C250.472 1211.03 352.739 1201.13 478.09 1162.04C524.361 1147.8 576.151 1128.23 617.061 1104.36C657.433 1080.79 681.304 1056.88 703.195 1034.16C745.525 990.36 785.099 946.733 786.632 910.195C786.901 861.806 735.55 818.37 747.396 745.786C754.128 697.493 785.307 650.042 807.087 597.199C823.957 556.458 802.448 534.138 788.007 504.475C751.096 429.653 715.809 358.245 674.201 305.621C621.528 237.589 557.638 198.481 487.833 166.009C405.546 126.922 314.873 93.2576 203.638 68.0986C90.4669 44.6516 -43.2656 29.7096 -256.368 67.6206C-288.373 73.4126 -328.475 83.4886 -356.214 100.279C-376.525 112.565 -383.202 124.313 -388.505 135.114C-424.241 207.509 -444.238 281.009 -463.877 367.343C-470.099 394.305 -475.079 423.646 -461.749 447.424C-452.056 464.782 -434.443 477.443 -418.958 490.815Z" stroke="#E8E8E8" stroke-width="0.9103" stroke-miterlimit="10" stroke-linecap="round" stroke-linejoin="round" stroke-dasharray="0.04 14.12"/>
<path d="M-409.402 493.98C-287.595 610.392 -256.582 795.635 -189.482 934.651C-123.969 1075.32 -31.9296 1180.31 160.608 1201.59C238.819 1210.35 337.12 1202.56 457.646 1166.47C502.145 1153.35 551.952 1135.07 591.621 1112.08C630.788 1089.35 654.371 1065.75 676.031 1043.28C717.882 1000.01 757.174 956.778 760.042 919.664C762.236 870.409 714.526 825.302 727.471 752.826C734.972 704.524 765.915 657.555 787.838 605.101C804.799 564.658 784.235 542.158 770.474 512.567C735.383 437.993 701.014 367.542 660.247 315.715C608.626 248.751 545.722 210.439 477.248 178.436C396.52 139.93 307.842 106.497 200.141 80.3756C90.6067 55.8766 -37.9494 38.6916 -240.786 70.1616C-271.266 74.9966 -309.458 83.8236 -336.325 99.9836C-356.001 111.818 -362.836 123.626 -368.347 134.513C-405.45 207.412 -427.584 281.827 -449.189 368.696C-456.023 395.824 -461.696 425.355 -449.554 449.575C-440.713 467.27 -424.064 480.322 -409.402 493.98Z" stroke="#E8E8E8" stroke-width="1.0767" stroke-miterlimit="10" stroke-linecap="round" stroke-linejoin="round" stroke-dasharray="0.04 14.1"/>
<path d="M-400.096 497.368C-285.044 615.795 -254.191 797.422 -188.325 934.027C-123.936 1072.23 -33.6074 1175.51 152.031 1199.58C227.422 1209.45 321.869 1203.66 437.705 1170.47C480.479 1158.41 528.36 1141.37 566.813 1119.24C604.8 1097.34 628.088 1074.04 649.511 1051.82C690.87 1009.1 729.859 966.283 733.993 928.656C738.013 878.624 693.804 831.97 707.784 759.657C716.012 711.383 746.697 664.914 768.738 612.871C785.772 572.745 766.121 550.09 753.017 520.589C719.685 446.315 686.218 376.839 646.289 325.811C595.714 259.922 533.803 222.398 466.653 190.869C387.471 152.956 300.871 119.641 196.647 92.5916C90.6945 67.0706 -32.8821 47.8166 -225.937 73.3456C-254.928 77.2446 -291.293 84.9056 -317.31 100.456C-336.373 111.853 -343.348 123.709 -349.048 134.67C-387.411 207.979 -411.548 283.186 -434.995 370.481C-442.399 397.743 -448.728 427.429 -437.72 452.042C-429.689 470.036 -413.965 483.451 -400.096 497.368Z" stroke="#E8E8E8" stroke-width="1.2432" stroke-miterlimit="10" stroke-linecap="round" stroke-linejoin="round" stroke-dasharray="0.04 14.07"/>
<path d="M-391.032 500.968C-282.475 621.185 -251.804 799.215 -187.167 933.402C-123.903 1069.15 -35.2813 1170.7 143.634 1197.41C216.28 1208.32 306.977 1204.45 418.259 1174.03C459.36 1162.98 505.367 1147.14 542.63 1125.85C579.466 1104.75 602.455 1081.76 623.634 1059.81C664.484 1017.64 703.155 975.249 708.486 937.171C714.254 886.428 673.625 838.341 688.339 766.278C697.391 718.066 727.659 672.117 749.798 620.504C766.885 580.714 748.119 557.927 735.65 528.539C704.02 454.617 671.442 386.124 632.342 335.904C582.811 271.094 521.897 234.355 456.065 203.305C378.424 165.986 293.789 132.923 192.934 105.057C90.4431 78.637 -28.2702 57.4161 -211.786 77.1591C-239.356 80.1881 -273.94 86.7201 -299.131 101.679C-317.593 112.654 -324.701 124.545 -330.575 135.568C-370.092 209.192 -396.104 285.078 -421.267 372.689C-429.202 400.05 -436.144 429.853 -426.221 454.816C-418.97 473.076 -404.143 486.821 -391.032 500.968Z" stroke="#E8E8E8" stroke-width="1.4097" stroke-miterlimit="10" stroke-linecap="round" stroke-linejoin="round" stroke-dasharray="0.04 14.04"/>
<path d="M-382.207 504.783C-279.896 626.563 -249.419 801.008 -186.01 932.779C-123.873 1066.07 -36.9558 1165.9 135.417 1195.08C205.384 1206.97 292.445 1204.91 399.3 1177.16C438.774 1167.08 482.96 1152.39 519.064 1131.91C554.773 1111.6 577.456 1088.92 598.385 1067.23C638.72 1025.63 677.045 983.689 683.507 945.219C690.91 893.866 653.534 844.476 669.122 772.692C678.832 724.588 708.798 679.159 731.003 628.006C748.123 588.565 730.215 565.676 718.361 536.416C688.373 462.897 656.667 395.404 618.393 345.993C569.898 282.267 509.989 246.307 445.469 215.744C369.365 179.026 286.676 146.232 189.101 117.625C89.9844 90.382 -24.0141 67.326 -198.331 81.584C-224.528 83.788 -257.4 89.2471 -281.783 103.633C-299.662 114.198 -306.882 126.113 -312.92 137.186C-353.492 211.035 -381.241 287.483 -408.003 375.304C-416.435 402.732 -423.947 432.614 -415.059 457.884C-408.553 476.383 -394.583 490.427 -382.207 504.783Z" stroke="#E8E8E8" stroke-width="1.5761" stroke-miterlimit="10" stroke-linecap="round" stroke-linejoin="round" stroke-dasharray="0.04 14.02"/>
<path d="M-373.618 508.803C-277.304 631.93 -247.038 802.802 -184.853 932.154C-123.84 1062.98 -38.6276 1161.09 127.37 1192.59C194.732 1205.41 278.26 1205.07 380.817 1179.86C418.711 1170.72 461.132 1157.13 496.097 1137.44C530.702 1117.89 553.08 1095.52 573.751 1074.11C613.556 1033.08 651.518 991.611 659.045 952.804C667.989 900.927 633.733 850.352 650.136 778.9C660.457 730.941 690.11 686.048 712.353 635.375C729.489 596.302 712.409 573.333 701.15 544.222C672.747 471.156 641.902 404.672 604.449 356.079C556.983 293.443 498.084 258.257 434.871 228.183C360.296 192.074 279.527 159.57 185.151 130.294C89.3248 102.303 -20.1066 77.5427 -185.56 86.6127C-210.436 88.0367 -241.655 92.4777 -265.252 106.311C-282.561 116.481 -289.886 128.409 -296.071 139.516C-337.593 213.499 -366.957 290.4 -395.2 378.325C-404.088 405.786 -412.133 435.716 -404.231 461.246C-398.434 479.952 -385.292 494.267 -373.618 508.803Z" stroke="#E8E8E8" stroke-width="1.7426" stroke-miterlimit="10" stroke-linecap="round" stroke-linejoin="round" stroke-dasharray="0.04 13.99"/>
<path d="M-365.255 513.026C-274.697 637.287 -244.658 804.6 -183.695 931.529C-123.807 1059.9 -40.2961 1156.28 119.497 1189.95C184.327 1203.63 264.42 1204.92 362.808 1182.15C399.166 1173.9 439.875 1161.37 473.729 1142.45C507.26 1123.63 529.321 1101.58 549.731 1080.45C588.992 1040.01 626.573 999.023 635.098 959.939C645.49 907.618 614.222 855.973 631.382 784.913C642.274 737.133 671.595 692.79 693.856 642.618C710.987 603.93 694.654 580.946 684.022 551.961C657.008 479.496 627.154 413.933 590.512 366.164C544.067 304.624 486.187 270.204 424.274 240.627C351.221 205.131 272.349 172.934 181.096 143.061C88.4747 114.398 -16.5326 88.0586 -173.449 92.2306C-197.052 92.9156 -226.682 96.3936 -249.512 109.691C-266.266 119.478 -273.684 131.408 -280.002 142.539C-322.376 216.569 -353.232 293.811 -382.837 381.74C-392.15 409.205 -400.685 439.145 -393.722 464.895C-388.603 483.776 -376.253 498.334 -365.255 513.026Z" stroke="#E8E8E8" stroke-width="1.9091" stroke-miterlimit="10" stroke-linecap="round" stroke-linejoin="round" stroke-dasharray="0.03 13.96"/>
<path d="M-357.119 517.448C-272.081 642.631 -242.282 806.402 -182.537 930.903C-123.777 1056.82 -41.967 1151.46 111.792 1187.17C174.157 1201.64 250.92 1204.48 345.258 1184.03C380.128 1176.63 419.171 1165.12 451.94 1146.93C484.418 1128.83 506.161 1107.11 526.301 1086.26C565.008 1046.42 602.186 1005.94 611.648 966.633C623.397 913.948 594.988 861.35 612.841 790.731C624.264 743.17 653.242 699.385 675.493 649.739C692.6 611.451 677.035 588.44 666.964 559.634C641.412 487.73 612.404 423.192 576.571 376.247C531.145 315.808 474.289 282.15 413.668 253.075C342.131 218.197 265.14 186.328 176.927 155.926C87.4272 126.665 -13.294 98.8697 -162.001 98.4297C-184.379 98.4187 -212.517 100.978 -234.559 113.765C-250.806 123.175 -258.272 135.103 -264.707 146.246C-307.835 220.238 -340.06 297.711 -370.918 385.544C-380.619 412.98 -389.606 442.897 -383.536 468.827C-379.057 487.853 -367.468 502.623 -357.119 517.448Z" stroke="#E8E8E8" stroke-width="2.0756" stroke-miterlimit="10" stroke-linecap="round" stroke-linejoin="round" stroke-dasharray="0.03 13.94"/>
<path d="M-349.204 522.065C-269.45 647.968 -239.91 808.203 -181.382 930.279C-123.748 1053.74 -43.6323 1146.65 104.249 1184.24C164.212 1199.45 237.749 1203.73 328.161 1185.51C361.584 1178.93 399.067 1168.39 430.719 1150.92C462.23 1133.52 483.59 1112.11 503.456 1091.55C541.598 1052.32 578.357 1012.35 588.69 972.888C601.709 919.917 576.029 866.48 594.517 796.353C606.431 749.044 635.05 705.833 657.268 656.733C674.336 618.86 659.514 595.846 649.981 567.24C625.832 495.942 597.661 432.442 562.631 386.328C518.216 326.993 462.389 294.093 403.057 265.525C333.03 231.271 257.895 199.748 172.646 168.888C86.1876 139.097 -10.3852 109.97 -151.195 105.196C-172.391 104.532 -199.064 106.229 -220.376 118.518C-236.099 127.567 -243.63 139.477 -250.171 150.621C-293.958 224.488 -327.43 302.091 -359.428 389.726C-369.485 417.104 -378.888 446.964 -373.663 473.03C-369.789 492.175 -358.927 507.13 -349.204 522.065Z" stroke="#E8E8E8" stroke-width="2.242" stroke-miterlimit="10" stroke-linecap="round" stroke-linejoin="round" stroke-dasharray="0.03 13.91"/>
<path d="M-341.499 526.87C-266.808 653.29 -237.538 810.008 -180.226 929.655C-123.72 1050.65 -45.2979 1141.83 96.8719 1181.16C154.501 1197.05 224.907 1202.7 311.511 1186.59C343.534 1180.78 379.454 1171.18 410.069 1154.4C440.575 1137.68 461.605 1116.6 481.192 1096.34C518.756 1057.72 555.076 1018.29 566.219 978.716C580.419 925.54 557.347 871.37 576.411 801.787C588.778 754.764 617.117 712.168 639.184 663.607C656.263 626.19 642.088 603.173 633.074 574.779C610.284 504.139 582.929 441.686 548.697 396.407C505.29 338.184 450.499 306.032 392.447 277.977C323.922 244.352 250.626 213.193 168.264 181.94C84.7685 151.693 -7.78961 121.35 -141.01 112.514C-161.073 111.236 -186.33 112.123 -206.935 123.93C-222.147 132.632 -229.731 144.514 -236.367 155.646C-280.717 229.306 -315.326 306.933 -348.352 394.278C-358.73 421.567 -368.51 451.338 -364.087 477.502C-360.79 496.739 -350.628 511.85 -341.499 526.87Z" stroke="#E8E8E8" stroke-width="2.4085" stroke-miterlimit="10" stroke-linecap="round" stroke-linejoin="round" stroke-dasharray="0.03 13.88"/>
<path d="M-334.004 531.86C-263.886 658.396 -235.172 811.817 -179.066 929.03C-123.688 1047.57 -46.9585 1137.02 89.6571 1177.94C145.018 1194.46 212.391 1201.39 295.301 1187.29C325.965 1182.22 360.372 1173.5 389.966 1157.4C419.497 1141.34 440.191 1120.59 459.491 1100.62C496.466 1062.64 532.331 1023.76 544.225 984.121C559.518 930.812 538.929 876.023 558.515 807.033C571.293 760.336 599.254 718.335 621.235 670.361C638.241 633.394 624.755 610.416 616.241 582.254C594.754 512.315 568.204 450.922 534.766 406.483C492.358 349.374 438.606 317.971 381.833 290.432C314.807 257.44 243.328 226.662 163.781 195.084C83.1749 164.444 -5.50331 133.003 -131.436 120.375C-150.411 118.523 -174.315 118.65 -194.224 129.992C-208.94 138.357 -216.567 150.204 -223.284 161.312C-268.109 234.684 -303.735 312.234 -337.686 399.191C-348.351 426.363 -358.476 456.014 -354.807 482.236C-352.056 501.534 -342.53 516.752 -334.004 531.86Z" stroke="#E8E8E8" stroke-width="2.575" stroke-miterlimit="10" stroke-linecap="round" stroke-linejoin="round" stroke-dasharray="0.03 13.86"/>
<path d="M-326.714 537.032C-261.2 663.682 -232.806 813.627 -177.908 928.406C-123.658 1044.49 -48.6129 1132.2 82.5981 1174.58C135.754 1191.67 200.188 1199.79 279.522 1187.6C308.87 1183.23 341.807 1175.35 370.411 1159.91C398.984 1144.49 419.339 1124.07 438.348 1104.41C474.721 1067.07 510.113 1028.75 522.698 989.112C539.003 935.748 520.777 880.441 540.828 812.096C553.978 765.754 581.548 724.366 603.416 676.997C620.335 640.495 607.509 617.578 599.478 589.664C579.24 520.47 553.49 460.149 520.838 416.554C479.427 360.568 426.723 329.904 371.219 302.888C305.686 270.536 236.003 240.157 159.198 208.316C81.3997 177.351 -3.52116 144.925 -122.463 128.765C-140.393 126.377 -162.994 125.793 -182.232 136.684C-196.462 144.725 -204.12 156.524 -210.906 167.599C-256.114 240.606 -292.648 317.979 -327.419 404.458C-338.34 431.486 -348.774 460.983 -345.818 487.227C-343.585 506.56 -334.694 521.882 -326.714 537.032Z" stroke="#E8E8E8" stroke-width="2.7415" stroke-miterlimit="10" stroke-linecap="round" stroke-linejoin="round" stroke-dasharray="0.03 13.83"/>
<path d="M-319.623 542.378C-258.503 668.958 -230.439 815.439 -176.753 927.779C-123.63 1041.41 -50.2728 1127.37 75.6921 1171.09C126.711 1188.68 188.292 1197.92 264.162 1187.54C292.237 1183.83 323.75 1176.76 351.384 1161.95C379.024 1147.14 399.036 1127.07 417.746 1107.72C453.508 1071.02 488.408 1033.29 501.627 993.696C518.859 940.347 502.881 884.63 523.342 816.978C536.826 771.026 563.992 730.259 585.729 683.516C602.542 647.493 590.358 624.66 582.785 597.012C563.753 528.606 538.779 469.369 506.912 426.622C466.489 371.76 414.838 341.831 360.602 315.342C296.554 283.634 228.653 253.67 154.518 221.628C79.4551 190.407 -1.83664 157.106 -114.075 137.668C-131.004 134.783 -152.358 133.536 -170.941 143.993C-184.7 151.721 -192.341 163.466 -199.22 174.492C-244.493 247.08 -282.069 324.168 -317.546 410.069C-328.693 436.924 -339.456 466.252 -337.113 492.463C-335.406 511.82 -327.079 527.209 -319.623 542.378Z" stroke="#E8E8E8" stroke-width="2.9079" stroke-miterlimit="10" stroke-linecap="round" stroke-linejoin="round" stroke-dasharray="0.03 13.8"/>
<path d="M-312.728 547.897C-255.793 674.223 -228.079 817.25 -175.594 927.153C-123.6 1038.33 -51.9262 1122.55 68.9374 1167.46C117.876 1185.51 176.701 1195.79 249.216 1187.12C276.056 1184.03 306.191 1177.73 332.88 1163.53C359.606 1149.32 379.27 1129.59 397.68 1110.56C432.818 1074.52 467.211 1037.38 481.006 997.888C499.085 944.626 485.237 888.599 506.055 821.686C519.836 776.159 546.586 736.025 568.17 689.926C584.86 654.398 573.289 631.668 566.161 604.302C548.281 536.731 524.078 478.586 492.988 436.692C453.548 382.96 402.958 353.761 349.979 327.806C287.413 296.746 221.272 267.214 149.741 235.032C77.3459 203.616 -0.441147 169.548 -106.258 147.085C-122.228 143.74 -142.385 141.876 -160.331 151.912C-173.63 159.338 -181.282 171.016 -188.205 181.988C-233.686 254.065 -271.955 330.779 -308.053 416.023C-319.394 442.676 -330.396 471.794 -328.682 497.952C-327.436 517.288 -319.686 532.727 -312.728 547.897Z" stroke="#E8E8E8" stroke-width="3.0744" stroke-miterlimit="10" stroke-linecap="round" stroke-linejoin="round" stroke-dasharray="0.03 13.78"/>
<path d="M-306.022 553.585C-253.07 679.478 -225.722 819.067 -174.438 926.53C-123.573 1035.25 -53.5768 1117.72 62.3344 1163.7C109.251 1182.15 165.41 1193.38 234.68 1186.33C260.325 1183.84 289.126 1178.26 314.886 1164.66C340.72 1151.03 359.972 1131.64 378.138 1112.93C412.531 1077.54 446.513 1041.03 460.828 1001.68C479.675 948.582 467.843 892.347 488.965 826.22C503.005 781.149 529.327 741.658 550.736 696.224C567.288 661.204 556.307 638.598 549.606 611.531C532.831 544.836 509.382 487.795 479.069 446.758C440.608 394.16 391.081 365.689 339.358 340.268C278.27 309.862 213.872 280.776 144.875 248.514C75.0722 216.966 0.674423 182.24 -98.9968 156.993C-114.049 153.224 -133.061 150.786 -150.385 160.42C-163.239 167.557 -170.887 179.159 -177.842 190.062C-223.447 261.556 -262.305 337.8 -298.927 422.302C-310.431 448.73 -321.646 477.605 -320.516 503.673C-319.703 522.971 -312.504 538.437 -306.022 553.585Z" stroke="#E8E8E8" stroke-width="3.2409" stroke-miterlimit="10" stroke-linecap="round" stroke-linejoin="round" stroke-dasharray="0.03 13.75"/>
<path d="M-299.503 559.437C-250.337 684.72 -223.366 820.884 -173.284 925.908C-123.561 1032.19 -55.383 1113.18 55.8747 1159.81C100.779 1178.72 154.411 1190.72 220.535 1185.2C245.025 1183.26 272.535 1178.37 297.392 1165.35C322.357 1152.28 341.253 1133.24 359.103 1114.86C392.851 1080.14 426.296 1044.26 441.075 1005.11C460.613 952.232 450.685 895.883 472.061 830.589C486.33 786.006 512.21 747.169 533.42 702.416C549.82 667.92 539.407 645.46 533.112 618.703C517.394 552.926 494.692 497.003 465.146 456.826C427.658 405.37 379.2 377.618 328.728 352.738C269.11 322.99 206.437 294.366 139.912 262.082C72.6383 230.459 1.50982 195.175 -92.2849 167.383C-106.459 163.226 -124.378 160.259 -141.097 169.504C-153.516 176.36 -161.152 187.88 -168.13 198.704C-213.775 269.542 -253.122 345.225 -290.171 428.904C-301.81 455.077 -313.2 483.683 -312.62 509.628C-312.212 528.859 -305.53 544.33 -299.503 559.437Z" stroke="#E8E8E8" stroke-width="3.4074" stroke-miterlimit="10" stroke-linecap="round" stroke-linejoin="round" stroke-dasharray="0.03 13.73"/>
<path d="M-293.16 565.446C-247.59 689.953 -221.01 822.704 -172.125 925.28C-123.534 1029.1 -57.0391 1108.36 49.5602 1155.79C92.5583 1175.01 143.699 1187.81 206.786 1183.71C230.156 1182.3 256.418 1178.06 280.397 1165.6C304.511 1153.07 323.044 1134.38 340.578 1116.33C373.672 1082.29 406.56 1047.06 421.752 1008.14C441.904 955.564 433.774 899.201 455.352 834.786C469.81 790.722 495.236 752.548 516.227 708.497C532.457 674.537 522.59 652.242 516.687 625.815C501.983 560.996 480.011 506.198 451.23 466.884C414.71 416.571 367.328 389.536 318.101 365.201C259.949 336.115 198.988 307.969 134.868 275.719C70.054 244.082 2.08399 208.341 -86.0992 178.237C-99.4292 173.724 -116.304 170.274 -132.434 179.143C-144.432 185.73 -152.049 197.155 -159.031 207.893C-204.645 278.007 -244.381 353.044 -281.765 435.814C-293.511 461.711 -305.044 490.018 -304.977 515.807C-304.942 534.948 -298.756 550.402 -293.16 565.446Z" stroke="#E8E8E8" stroke-width="3.5738" stroke-miterlimit="10" stroke-linecap="round" stroke-linejoin="round" stroke-dasharray="0.03 13.7"/>
<path d="M-286.99 571.61C-244.832 695.175 -218.655 824.522 -170.967 924.657C-123.505 1026.03 -58.6902 1103.54 43.3873 1151.65C84.5353 1171.12 133.268 1184.65 193.423 1181.9C215.712 1180.98 240.766 1177.34 263.881 1165.42C287.165 1153.42 305.334 1135.09 322.547 1117.37C354.978 1084.02 387.293 1049.44 402.845 1010.82C423.536 958.6 417.098 902.318 438.829 838.819C453.443 795.304 478.407 757.806 499.159 714.475C515.203 681.065 505.859 658.955 500.333 632.87C486.593 569.05 465.344 515.388 437.321 476.945C401.769 427.778 355.465 401.458 307.477 377.669C250.789 349.249 191.518 321.596 129.743 289.435C67.321 257.843 2.39471 221.745 -80.4278 189.551C-92.9587 184.719 -108.835 180.826 -124.394 189.335C-135.979 195.662 -143.565 206.985 -150.546 217.626C-196.046 286.949 -236.071 361.251 -273.701 443.034C-285.525 468.628 -297.174 496.611 -297.58 522.21C-297.897 541.237 -292.181 556.647 -286.99 571.61Z" stroke="#E8E8E8" stroke-width="3.7403" stroke-miterlimit="10" stroke-linecap="round" stroke-linejoin="round" stroke-dasharray="0.03 13.67"/>
<path d="M-280.994 577.925C-242.059 700.386 -216.307 826.347 -169.809 924.03C-123.48 1022.95 -60.3412 1098.72 37.3505 1147.39C76.7013 1167.07 123.106 1181.24 180.425 1179.74C201.671 1179.28 225.555 1176.23 247.829 1164.83C270.301 1153.34 288.105 1135.36 304.989 1117.99C336.746 1085.33 368.475 1051.43 384.337 1013.14C405.496 961.344 400.645 905.23 422.481 842.697C437.217 799.759 461.704 762.947 482.2 720.352C498.043 687.507 489.202 665.599 484.031 639.873C471.216 577.09 450.673 524.575 423.406 487.005C388.813 438.991 343.593 413.377 296.844 390.141C241.61 362.392 184.019 335.242 124.524 303.225C64.4387 271.733 2.45065 235.37 -75.2614 201.311C-87.0292 196.192 -101.952 191.897 -116.954 200.058C-128.139 206.135 -135.682 217.35 -142.653 227.883C-187.967 296.345 -228.184 369.831 -265.975 450.55C-277.853 475.818 -289.586 503.45 -290.426 528.825C-291.063 547.714 -285.798 563.06 -280.994 577.925Z" stroke="#E8E8E8" stroke-width="3.9068" stroke-miterlimit="10" stroke-linecap="round" stroke-linejoin="round" stroke-dasharray="0.03 13.65"/>
<path d="M-275.159 584.384C-239.278 705.588 -213.956 828.169 -168.653 923.407C-123.453 1019.87 -61.9865 1093.9 31.4474 1143.01C69.0587 1162.84 113.219 1177.6 167.797 1177.27C188.034 1177.24 210.792 1174.72 232.244 1163.83C253.925 1152.83 271.356 1135.21 287.911 1118.18C318.983 1086.23 350.11 1053.01 366.23 1015.11C387.785 963.797 384.419 907.942 406.311 846.415C421.139 804.085 445.137 767.967 465.354 726.127C480.982 693.859 472.622 672.176 467.792 646.82C455.859 585.113 436.012 533.754 409.499 497.06C375.857 450.204 331.728 425.293 286.212 402.612C232.432 375.537 176.501 348.906 119.233 317.084C61.4172 285.744 2.26318 249.213 -70.5829 213.503C-81.6217 208.127 -95.6358 203.471 -110.097 211.298C-120.89 217.133 -128.382 228.23 -135.331 238.646C-180.384 306.187 -220.708 378.769 -258.568 458.349C-270.472 483.267 -282.259 510.523 -283.502 535.645C-284.444 554.378 -279.597 569.639 -275.159 584.384Z" stroke="#E8E8E8" stroke-width="4.0733" stroke-miterlimit="10" stroke-linecap="round" stroke-linejoin="round" stroke-dasharray="0.03 13.62"/>
<path d="M-269.486 590.987C-236.484 710.778 -211.607 829.996 -167.494 922.781C-123.429 1016.79 -63.63 1089.07 25.679 1138.5C61.6032 1158.46 103.595 1173.72 155.526 1174.48C174.787 1174.84 196.458 1172.83 217.106 1162.44C238.013 1151.91 255.071 1134.66 271.288 1117.97C301.67 1086.74 332.178 1054.22 348.51 1016.73C370.39 965.969 368.41 910.462 390.314 849.981C405.197 808.286 428.7 772.874 448.62 731.806C464.022 700.126 456.118 678.684 451.615 653.714C440.519 593.119 421.359 542.925 395.591 507.113C362.897 461.418 319.863 437.207 275.575 415.085C223.243 388.688 168.961 362.589 113.86 331.012C58.2549 299.879 1.83295 263.266 -66.3815 226.112C-76.725 220.514 -89.8833 215.531 -103.814 223.039C-114.227 228.642 -121.658 239.613 -128.575 249.904C-173.296 316.458 -213.634 388.061 -251.487 466.429C-263.387 490.975 -275.204 517.827 -276.815 542.666C-278.028 561.222 -273.576 576.376 -269.486 590.987Z" stroke="#E8E8E8" stroke-width="4.2397" stroke-miterlimit="10" stroke-linecap="round" stroke-linejoin="round" stroke-dasharray="0.03 13.59"/>
<path d="M-263.968 597.725C-233.676 715.959 -209.262 831.822 -166.334 922.155C-123.4 1013.71 -65.2681 1084.24 20.0415 1133.89C54.3299 1153.91 94.2279 1169.61 143.608 1171.38C161.931 1172.1 182.546 1170.57 202.412 1160.64C222.564 1150.57 239.243 1133.69 255.12 1117.36C284.802 1086.84 314.679 1055.03 331.171 1018.01C353.312 967.86 352.621 912.788 374.489 853.396C389.398 812.364 412.391 777.665 431.996 737.385C447.151 706.308 439.69 685.125 435.497 660.555C425.196 601.109 406.713 552.091 381.688 517.163C349.941 472.634 308.004 449.118 264.941 427.56C214.054 401.845 161.404 376.292 108.414 345.009C54.9643 314.133 1.17339 277.53 -62.6368 239.134C-72.3183 233.34 -84.6561 228.076 -98.0761 235.273C-108.12 240.654 -115.483 251.49 -122.356 261.647C-166.682 327.153 -206.943 397.698 -244.705 474.785C-256.581 498.936 -268.398 525.362 -270.342 549.889C-271.809 568.241 -267.732 583.269 -263.968 597.725Z" stroke="#E8E8E8" stroke-width="4.4062" stroke-miterlimit="10" stroke-linecap="round" stroke-linejoin="round" stroke-dasharray="0.03 13.57"/>
<path d="M-258.6 604.597C-230.86 721.129 -206.917 833.652 -165.179 921.531C-123.379 1010.64 -66.9065 1079.4 14.5273 1129.17C47.2299 1149.21 85.1104 1165.29 132.028 1167.97C149.444 1169.04 169.046 1167.95 188.149 1158.48C207.563 1148.85 223.859 1132.33 239.389 1116.36C268.362 1086.57 297.591 1055.49 314.2 1018.97C336.532 969.487 337.036 914.933 358.827 856.666C373.733 816.325 396.207 782.349 415.476 742.875C430.374 712.41 423.331 691.506 419.436 667.347C409.89 609.09 392.073 561.253 367.785 527.215C336.978 483.854 296.145 461.03 254.302 440.037C204.854 415.009 153.824 390.011 102.891 359.07C51.5394 328.502 0.287434 291.991 -59.3457 252.552C-68.403 246.591 -79.9619 241.079 -92.8792 247.979C-102.566 253.147 -109.849 263.841 -116.67 273.854C-160.528 338.255 -200.628 407.668 -238.222 483.4C-250.05 507.134 -261.841 533.113 -264.086 557.297C-265.78 575.428 -262.055 590.308 -258.6 604.597Z" stroke="#E8E8E8" stroke-width="4.5727" stroke-miterlimit="10" stroke-linecap="round" stroke-linejoin="round" stroke-dasharray="0.03 13.54"/>
<path d="M-253.374 611.596C-228.03 726.289 -204.575 835.482 -164.019 920.905C-123.351 1007.56 -68.5357 1074.57 9.13895 1124.33C40.303 1144.35 76.2429 1160.74 120.785 1164.27C137.325 1165.65 155.947 1164.97 174.303 1155.94C192.997 1146.74 208.909 1130.6 224.089 1114.98C252.344 1085.93 280.915 1055.58 297.593 1019.61C320.055 970.85 321.66 916.893 343.33 859.79C358.202 820.166 380.146 786.922 399.063 748.269C413.692 718.431 407.048 697.819 403.431 674.088C394.604 617.048 377.44 570.41 353.887 537.26C324.015 495.073 284.289 472.936 243.662 452.514C195.654 428.171 146.229 403.743 97.3036 373.19C47.9933 342.978 -0.814453 306.641 -56.4837 266.349C-64.9475 260.252 -75.7681 254.527 -88.1981 261.144C-97.5331 266.107 -104.732 276.65 -111.491 286.513C-154.819 349.748 -194.674 417.957 -232.025 492.27C-243.781 515.57 -255.518 541.074 -258.035 564.888C-259.937 582.78 -256.542 597.494 -253.374 611.596Z" stroke="#E8E8E8" stroke-width="4.7392" stroke-miterlimit="10" stroke-linecap="round" stroke-linejoin="round" stroke-dasharray="0.03 13.51"/>
<path d="M-248.291 618.72C-225.189 731.439 -202.233 837.315 -162.863 920.282C-123.326 1004.48 -70.167 1069.73 3.87033 1119.39C33.547 1139.34 67.6128 1155.98 109.868 1160.28C125.562 1161.94 143.242 1161.64 160.865 1153.03C178.856 1144.25 194.378 1128.48 209.204 1113.23C236.735 1084.92 264.63 1055.32 281.336 1019.94C303.861 971.958 306.479 918.677 327.987 862.778C342.797 823.895 364.201 791.394 382.745 753.577C397.092 724.376 390.828 704.076 387.479 680.783C379.33 624.997 362.811 579.56 339.988 547.308C311.047 506.297 272.434 484.845 233.021 464.993C137.648 419.66 47.5575 364.407 -54.0444 280.523C-61.9452 274.315 -72.068 268.413 -84.0248 274.756C-93.0191 279.522 -100.125 289.907 -106.811 299.611C-149.54 361.627 -189.079 428.559 -226.111 501.387C-237.771 524.23 -249.43 549.24 -252.186 572.656C-254.271 590.287 -251.187 604.819 -248.291 618.72Z" stroke="#E8E8E8" stroke-width="4.9056" stroke-miterlimit="10" stroke-linecap="round" stroke-linejoin="round" stroke-dasharray="0.03 13.49"/>
<path d="M-243.342 625.962C-222.337 736.578 -199.896 839.147 -161.705 919.657C-123.304 1001.41 -71.793 1064.89 -1.28052 1114.34C26.9559 1134.19 59.218 1151.02 99.2662 1156.01C114.15 1157.93 130.919 1157.98 147.829 1149.78C165.131 1141.39 180.265 1126 194.73 1111.12C221.528 1083.56 248.738 1054.72 265.425 1019.96C287.956 972.811 291.498 920.288 312.799 865.627C327.514 827.512 348.368 795.763 366.529 758.796C380.576 730.243 374.676 710.271 371.579 687.429C364.072 632.929 348.187 588.706 326.091 557.351C298.076 517.523 260.578 496.746 222.376 477.473C130.067 433.344 42.6888 379.732 -52.0152 295.054C-59.3838 288.765 -68.8449 282.718 -80.3408 288.798C-89.0021 293.372 -96.0077 303.596 -102.613 313.132C-144.689 373.872 -183.826 439.462 -220.469 510.742C-232.012 533.11 -243.569 557.603 -246.536 580.598C-248.78 597.95 -245.982 612.278 -243.342 625.962Z" stroke="#E8E8E8" stroke-width="5.0721" stroke-miterlimit="10" stroke-linecap="round" stroke-linejoin="round" stroke-dasharray="0.03 13.46"/>
<path d="M-238.525 633.32C-219.476 741.706 -197.557 840.981 -160.548 919.03C-123.281 998.328 -73.4153 1060.04 -6.31276 1109.19C20.5274 1128.89 51.0528 1145.85 88.9777 1151.47C103.076 1153.61 118.971 1153.98 135.183 1146.18C151.814 1138.17 166.555 1123.17 180.656 1108.66C206.712 1081.86 233.226 1053.79 249.853 1019.68C272.325 973.426 276.71 921.73 297.765 868.344C312.361 831.021 332.657 800.029 350.411 763.932C364.152 736.038 358.596 716.408 355.734 694.03C348.831 640.852 333.57 597.849 312.199 567.395C285.105 528.751 248.732 508.651 211.736 489.956C122.475 447.05 37.8142 395.073 -50.372 309.935C-57.2376 303.588 -66.074 297.431 -77.1208 303.258C-85.4567 307.654 -92.3525 317.704 -98.8693 327.065C-140.229 386.479 -178.894 450.658 -215.079 520.33C-226.483 542.203 -237.916 566.157 -241.064 588.706C-243.452 605.761 -240.929 619.87 -238.525 633.32Z" stroke="#E8E8E8" stroke-width="5.2386" stroke-miterlimit="10" stroke-linecap="round" stroke-linejoin="round" stroke-dasharray="0.03 13.43"/>
<path d="M-233.832 640.79C-216.599 746.827 -195.22 842.817 -159.39 918.407C-123.256 995.255 -75.0342 1055.2 -11.2374 1103.94C14.2514 1123.46 43.107 1140.49 78.9886 1146.66C92.3335 1149 107.381 1149.66 122.913 1142.24C138.89 1134.61 153.233 1119.99 166.966 1105.85C192.276 1079.82 218.075 1052.53 234.602 1019.12C256.961 973.798 262.103 923.009 282.876 870.932C297.324 834.425 317.051 804.201 334.386 768.983C347.803 741.76 342.574 722.491 339.939 700.586C333.606 648.76 318.961 606.982 298.307 577.436C272.133 539.98 236.881 520.553 201.089 502.438C114.856 460.772 32.9201 410.422 -49.1127 325.149C-55.5014 318.771 -63.7508 312.532 -74.3585 318.118C-82.3837 322.338 -89.1572 332.211 -95.5773 341.391C-136.163 399.426 -174.283 462.135 -209.945 530.137C-221.19 551.497 -232.474 574.896 -235.776 596.971C-238.288 613.713 -236.013 627.584 -233.832 640.79Z" stroke="#E8E8E8" stroke-width="5.405" stroke-miterlimit="10" stroke-linecap="round" stroke-linejoin="round" stroke-dasharray="0.03 13.41"/>
<path d="M-229.26 648.365C-213.711 751.934 -192.884 844.653 -158.233 917.78C-123.233 992.179 -76.6518 1050.34 -16.0506 1098.59C8.13335 1117.88 35.379 1134.93 69.2903 1141.59C81.9119 1144.11 96.1454 1145.03 111.013 1137.98C126.346 1130.7 140.293 1116.47 153.654 1102.71C178.205 1077.45 203.282 1050.95 219.67 1018.27C241.86 973.94 247.675 924.124 268.128 873.39C282.405 837.723 301.55 808.275 318.45 773.952C331.533 747.409 326.615 728.515 324.19 707.097C318.391 656.65 304.352 616.114 284.413 587.473C259.153 551.209 225.03 532.452 190.439 514.921C107.216 474.511 28.0082 425.782 -48.2216 340.688C-54.1639 334.3 -61.8606 328.016 -72.0387 333.367C-79.7556 337.42 -86.4055 347.109 -92.7207 356.099C-132.479 412.705 -169.984 473.879 -205.057 540.158C-216.124 560.988 -227.238 583.81 -230.669 605.389C-233.277 621.8 -231.232 635.418 -229.26 648.365Z" stroke="#E8E8E8" stroke-width="5.5715" stroke-miterlimit="10" stroke-linecap="round" stroke-linejoin="round" stroke-dasharray="0.03 13.38"/>
<path d="M-224.802 656.042C-210.815 757.033 -190.55 846.489 -157.076 917.155C-123.213 989.103 -78.2611 1045.49 -20.7554 1093.15C2.16136 1112.18 27.8646 1129.18 59.8828 1136.27C71.8036 1138.94 85.2571 1140.1 99.4721 1133.4C114.181 1126.46 127.723 1112.62 140.711 1099.25C164.501 1074.76 188.841 1049.06 205.051 1017.15C227.016 973.854 233.431 925.083 253.523 875.724C267.601 840.919 286.16 812.254 302.607 778.842C315.348 752.989 310.719 734.487 308.496 713.565C303.201 664.53 289.756 625.237 270.529 597.51C246.178 562.442 213.188 544.349 179.797 527.404C99.5672 488.265 23.0978 441.15 -47.6735 356.537C-53.193 350.165 -60.3659 343.86 -70.1302 348.988C-77.5464 352.881 -84.0652 362.379 -90.266 371.172C-129.144 426.304 -165.966 485.885 -200.39 550.385C-211.258 570.668 -222.18 592.893 -225.714 613.954C-228.415 630.02 -226.585 643.368 -224.802 656.042Z" stroke="#E8E8E8" stroke-width="5.738" stroke-miterlimit="10" stroke-linecap="round" stroke-linejoin="round" stroke-dasharray="0.03 13.36"/>
<path d="M-220.453 663.817C-207.907 762.121 -188.217 848.329 -155.916 916.531C-123.188 986.031 -79.8662 1040.63 -25.3537 1087.62C-3.66106 1106.35 20.5569 1123.26 50.7527 1130.7C62.0026 1133.5 74.6992 1134.87 88.2812 1128.51C102.379 1121.91 115.516 1108.45 128.124 1095.47C151.143 1071.76 174.737 1046.88 190.732 1015.77C212.422 973.553 219.356 925.89 239.053 877.94C252.907 844.019 270.871 816.144 286.85 783.654C299.234 758.503 294.885 740.403 292.847 719.992C288.019 672.396 275.163 634.358 256.643 607.543C233.197 573.676 201.347 556.246 169.148 539.889C91.8951 502.036 18.1692 456.529 -47.4691 372.686C-52.5924 366.351 -59.2766 360.054 -68.6331 364.969C-75.7592 368.707 -82.1368 378.008 -88.2191 386.599C-126.163 440.209 -162.238 498.143 -195.954 560.81C-206.606 580.529 -217.317 602.142 -220.927 622.662C-223.694 638.366 -222.06 651.429 -220.453 663.817Z" stroke="#E8E8E8" stroke-width="5.9045" stroke-miterlimit="10" stroke-linecap="round" stroke-linejoin="round" stroke-dasharray="0.03 13.33"/>
<path d="M-216.213 671.686C-204.989 767.199 -185.886 850.168 -154.758 915.905C-123.167 982.954 -81.4699 1035.76 -29.852 1082C-9.34356 1100.39 13.4473 1117.16 41.8936 1124.89C52.4969 1127.79 64.4689 1129.35 77.4285 1123.32C90.928 1117.04 103.656 1103.98 115.88 1091.38C138.124 1068.47 160.962 1044.41 176.702 1014.12C198.06 973.037 205.443 926.551 224.714 880.04C238.32 847.023 255.678 819.949 271.176 788.394C283.193 763.955 279.104 746.273 277.24 726.38C272.852 680.251 260.572 643.473 242.759 617.579C220.217 584.913 189.502 568.141 158.5 552.376C84.2072 515.823 13.2321 471.917 -47.5855 389.121C-52.3395 382.848 -58.564 376.584 -67.5238 381.293C-74.3652 384.887 -80.5969 393.983 -86.5495 402.364C-123.511 454.409 -158.778 510.638 -191.726 571.423C-202.144 590.564 -212.624 611.546 -216.288 631.505C-219.108 646.829 -217.653 659.594 -216.213 671.686Z" stroke="#E8E8E8" stroke-width="6.071" stroke-miterlimit="10" stroke-linecap="round" stroke-linejoin="round" stroke-dasharray="0.03 13.3"/>
<path d="M-212.071 679.642C-202.056 772.269 -183.555 852.009 -153.601 915.279C-123.147 979.88 -83.0681 1030.9 -34.2548 1076.29C-14.8898 1094.31 6.52943 1110.88 33.2918 1118.85C43.2766 1121.84 54.5506 1123.56 66.9032 1117.84C79.8179 1111.87 92.1342 1099.2 103.972 1087C125.434 1064.88 147.502 1041.65 162.959 1012.23C183.938 972.315 191.7 927.068 210.506 882.026C223.84 849.935 240.585 823.668 255.589 793.061C267.228 769.339 263.383 752.09 261.683 732.727C257.703 688.093 245.993 652.583 228.88 627.608C207.237 596.149 177.666 580.033 147.852 564.859C76.5068 529.619 8.29106 487.311 -48.0108 405.83C-52.4162 399.637 -58.2121 393.434 -66.784 397.947C-73.3489 401.397 -79.4277 410.285 -85.2465 418.452C-121.18 468.89 -155.575 523.361 -187.705 582.216C-197.872 600.763 -208.103 621.099 -211.799 640.476C-214.65 655.408 -213.364 667.862 -212.071 679.642Z" stroke="#E8E8E8" stroke-width="6.2374" stroke-miterlimit="10" stroke-linecap="round" stroke-linejoin="round" stroke-dasharray="0.03 13.28"/>
<path d="M-208.026 687.685C-199.116 777.329 -181.225 853.85 -152.443 914.655C-123.126 976.81 -84.6635 1026.03 -38.5595 1070.49C-20.3033 1088.12 -0.197882 1104.44 24.9463 1112.59C34.331 1115.64 44.9358 1117.5 56.6937 1112.09C69.0365 1106.41 80.9408 1094.14 92.3892 1082.33C113.062 1061.01 134.35 1038.63 149.486 1010.09C170.039 971.395 178.106 927.444 196.417 883.903C209.458 852.757 225.581 827.305 240.075 797.659C251.324 774.667 247.713 757.863 246.164 739.04C242.562 695.925 231.411 661.693 214.997 637.642C194.249 607.392 165.823 591.93 137.201 577.351C68.7866 543.435 3.33687 502.718 -48.7396 422.807C-52.8159 416.713 -58.2116 410.598 -66.4075 414.921C-72.7023 418.236 -78.6187 426.909 -84.2948 434.852C-119.153 483.645 -152.624 536.308 -183.879 593.186C-193.78 611.123 -203.741 630.796 -207.45 649.575C-210.319 664.098 -209.181 676.223 -208.026 687.685Z" stroke="#E8E8E8" stroke-width="6.4039" stroke-miterlimit="10" stroke-linecap="round" stroke-linejoin="round" stroke-dasharray="0.03 13.25"/>
<path d="M-204.07 695.806C-196.163 782.38 -178.898 855.693 -151.287 914.031C-123.106 973.736 -86.2539 1021.15 -42.7725 1064.61C-25.5897 1081.81 -6.74577 1097.84 16.8457 1106.1C25.6579 1109.2 35.6175 1111.17 46.792 1106.05C58.5752 1100.66 70.0616 1088.8 81.1171 1077.38C100.995 1056.87 121.497 1035.33 136.277 1007.72C156.356 970.281 164.665 927.686 182.45 885.672C195.175 855.492 210.667 830.859 224.639 802.187C235.491 779.931 232.094 763.587 230.685 745.311C227.433 703.744 216.835 670.795 201.116 647.67C181.259 618.632 153.985 603.819 126.549 589.837C61.052 557.258 -1.62577 518.123 -49.7495 440.027C-53.5214 434.051 -58.5414 428.048 -66.37 432.189C-72.3989 435.374 -78.1518 443.826 -83.6795 451.545C-117.419 498.65 -149.912 549.459 -180.244 604.315C-189.862 621.631 -199.537 640.625 -203.232 658.785C-206.103 672.888 -205.099 684.677 -204.07 695.806Z" stroke="#E8E8E8" stroke-width="6.5704" stroke-miterlimit="10" stroke-linecap="round" stroke-linejoin="round" stroke-dasharray="0.03 13.22"/>
<path d="M-200.198 704.002C-193.199 787.42 -176.569 857.535 -150.127 913.403C-123.084 970.661 -87.8366 1016.27 -46.8907 1058.65C-30.7454 1075.38 -13.1135 1091.08 8.9836 1099.41C17.2462 1102.53 26.5833 1104.59 37.1907 1099.76C48.428 1094.64 59.4952 1083.18 70.1561 1072.17C89.2308 1052.46 108.934 1031.78 123.33 1005.12C142.894 968.974 151.377 927.795 168.603 887.335C180.99 858.139 195.845 834.333 209.279 806.647C219.724 785.138 216.531 769.264 215.252 751.546C212.322 711.549 202.268 679.89 187.241 657.695C168.272 629.873 142.151 615.708 115.897 602.324C53.3094 571.093 -6.59058 533.534 -51.0266 457.487C-54.517 451.648 -59.1875 445.779 -66.6541 449.745C-72.4242 452.808 -78.0036 461.032 -83.3768 468.517C-115.956 513.899 -147.417 562.807 -176.777 615.6C-186.097 632.28 -195.472 650.581 -199.137 668.106C-201.999 681.779 -201.118 693.216 -200.198 704.002Z" stroke="#E8E8E8" stroke-width="6.7368" stroke-miterlimit="10" stroke-linecap="round" stroke-linejoin="round" stroke-dasharray="0.03 13.2"/>
<path d="M-196.409 712.272C-190.23 792.451 -174.242 859.378 -148.97 912.78C-123.066 967.589 -89.4195 1011.39 -50.9261 1052.62C-35.7818 1068.86 -19.3138 1084.17 1.35239 1092.51C9.08205 1095.64 17.8277 1097.77 27.8746 1093.21C38.5754 1088.36 49.2228 1077.3 59.4832 1066.69C77.7521 1047.8 96.6473 1027.99 110.628 1002.3C129.629 967.491 138.228 927.781 154.867 888.903C166.896 860.707 181.107 837.737 193.992 811.047C204.019 790.291 201.014 774.901 199.857 757.751C197.223 719.348 187.703 688.986 173.365 667.722C155.281 641.117 130.314 627.598 105.246 614.813C45.5492 584.94 -11.563 548.952 -52.5586 475.175C-55.7828 469.49 -60.1315 463.778 -67.2438 467.575C-72.7586 470.518 -78.1631 478.512 -83.3754 485.759C-114.755 529.378 -145.135 576.347 -173.478 627.036C-182.487 643.069 -191.544 660.664 -195.162 677.536C-198 690.762 -197.226 701.838 -196.409 712.272Z" stroke="#E8E8E8" stroke-width="6.9033" stroke-miterlimit="10" stroke-linecap="round" stroke-linejoin="round" stroke-dasharray="0.03 13.17"/>
<path d="M-192.696 720.607C-187.247 797.473 -171.915 861.225 -147.812 912.152C-123.046 964.515 -90.9969 1006.5 -54.8746 1046.51C-40.6996 1062.22 -25.3458 1077.12 -6.05861 1085.42C1.16333 1088.53 9.33576 1090.71 18.8375 1086.41C29.0123 1081.81 39.2383 1071.17 49.0951 1060.96C66.5511 1042.9 84.6311 1023.96 98.1658 999.27C116.565 965.83 125.216 927.637 141.24 890.367C152.89 863.192 166.449 841.059 178.775 815.379C188.375 795.382 185.546 780.491 184.498 763.916C182.137 727.127 173.143 698.073 159.491 677.743C142.286 652.36 118.476 639.483 94.5935 627.296C37.7819 598.795 -16.5396 564.37 -54.3345 493.073C-57.3132 487.558 -61.3604 482.021 -68.1279 485.657C-73.3956 488.489 -78.616 496.242 -83.6639 503.248C-113.803 545.074 -143.059 590.059 -170.34 638.606C-179.025 653.981 -187.751 670.855 -191.301 687.058C-194.099 699.833 -193.42 710.534 -192.696 720.607Z" stroke="#E8E8E8" stroke-width="7.0698" stroke-miterlimit="10" stroke-linecap="round" stroke-linejoin="round" stroke-dasharray="0.03 13.14"/>
<path d="M-189.052 729.005C-184.25 802.485 -169.59 863.068 -146.654 911.527C-123.028 961.443 -92.5653 1001.61 -58.7413 1040.33C-45.506 1055.49 -31.2206 1069.92 -13.2547 1078.14C-6.52283 1081.21 1.10053 1083.42 10.0641 1079.38C19.7278 1075.03 29.5257 1064.79 38.9773 1055C55.6186 1037.76 72.8733 1019.7 85.9343 996.037C103.69 964.003 112.339 927.381 127.72 891.744C138.974 865.603 151.873 844.318 163.623 819.657C172.789 800.431 170.123 786.044 169.175 770.054C167.059 734.906 158.632 707.093 145.619 687.768C129.343 663.521 106.646 651.372 83.9429 639.787C30.002 612.661 -21.5216 579.797 -56.336 511.178C-59.0868 505.849 -62.8557 500.508 -69.2819 503.988C-74.3095 506.707 -79.3393 514.224 -84.2169 520.98C-113.084 560.982 -141.168 603.942 -167.35 650.312C-175.697 665.015 -184.076 681.16 -187.543 696.679C-190.29 708.987 -189.697 719.301 -189.052 729.005Z" stroke="#E8E8E8" stroke-width="7.2363" stroke-miterlimit="10" stroke-linecap="round" stroke-linejoin="round" stroke-dasharray="0.03 13.12"/>
<path d="M-185.475 737.463C-181.247 807.49 -167.265 864.914 -145.494 910.903C-123.009 958.374 -94.1335 996.717 -62.5282 1034.08C-50.2026 1048.66 -36.9385 1062.59 -20.2468 1070.68C-13.9825 1073.7 -6.88882 1075.92 1.55183 1072.13C10.7085 1068.01 20.0808 1058.18 29.1254 1048.8C44.9386 1032.39 61.3385 1015.2 73.9254 992.609C90.9668 961.982 99.5928 927.009 114.304 893.031C125.144 867.942 137.376 847.511 148.544 823.877C157.266 805.429 154.751 791.559 153.894 776.163C152.002 742.673 144.081 716.174 131.753 697.793C116.353 674.772 94.8181 663.261 73.2946 652.28C22.2161 626.541 -26.5028 595.229 -58.551 529.475C-61.088 524.342 -64.5992 519.221 -70.6952 522.548C-75.4835 525.163 -80.3214 532.432 -85.0204 538.937C-112.582 577.081 -139.45 617.985 -164.495 662.143C-172.492 676.166 -180.51 691.566 -183.879 706.387C-186.568 718.215 -186.047 728.137 -185.475 737.463Z" stroke="#E8E8E8" stroke-width="7.4027" stroke-miterlimit="10" stroke-linecap="round" stroke-linejoin="round" stroke-dasharray="0.03 13.09"/>
<path d="M-181.961 745.972C-178.234 812.483 -164.94 866.759 -144.339 910.277C-122.991 955.303 -95.6949 991.814 -66.2423 1027.76C-54.794 1041.73 -42.5157 1055.13 -27.0405 1063.04C-21.2292 1066 -14.6428 1068.21 -6.71904 1064.65C1.94457 1060.76 10.8866 1051.35 19.5189 1042.38C34.5086 1026.81 50.0655 1010.5 62.1265 988.988C78.4527 959.832 86.9659 926.525 100.983 894.227C111.389 870.203 122.948 850.629 133.521 828.038C141.793 810.37 139.416 797.031 138.64 782.235C136.947 750.424 129.537 725.249 117.883 707.809C103.356 686.015 82.9877 675.143 62.6412 664.765C14.4157 640.419 -31.49 610.655 -60.9705 547.942C-63.3132 543.023 -66.5855 538.136 -72.3525 541.318C-76.9061 543.832 -81.5452 550.851 -86.0644 557.098C-112.284 593.356 -137.862 632.218 -161.772 674.081C-169.396 687.43 -177.057 702.06 -180.309 716.169C-182.927 727.515 -182.468 737.031 -181.961 745.972Z" stroke="#E8E8E8" stroke-width="7.5692" stroke-miterlimit="10" stroke-linecap="round" stroke-linejoin="round" stroke-dasharray="0.03 13.06"/>
<path d="M-178.5 754.531C-175.21 817.468 -162.616 868.606 -143.18 909.651C-122.973 952.231 -97.2529 986.91 -69.8782 1021.37C-59.2808 1034.72 -47.9449 1047.54 -33.6443 1055.23C-28.2648 1058.11 -22.1679 1060.3 -14.75 1056.96C-6.56933 1053.29 1.94064 1044.29 10.1583 1035.74C24.315 1021.01 39.0249 1005.6 50.5346 985.187C66.1068 957.532 74.459 925.933 87.7577 895.339C97.7137 872.397 108.593 853.688 118.558 832.146C126.368 815.267 124.122 802.467 123.419 788.279C121.908 758.166 114.994 734.32 104.015 717.826C90.3561 697.265 71.1556 687.024 51.9884 677.251C6.60938 654.308 -36.479 626.082 -63.5744 566.574C-65.7363 561.881 -68.7897 557.244 -74.2355 560.287C-78.5632 562.703 -82.9951 569.466 -87.3287 575.455C-112.179 609.799 -136.468 646.539 -159.169 686.129C-166.424 698.776 -173.697 712.642 -176.824 726.029C-179.359 736.881 -178.954 745.984 -178.5 754.531Z" stroke="#E8E8E8" stroke-width="7.7357" stroke-miterlimit="10" stroke-linecap="round" stroke-linejoin="round" stroke-dasharray="0.03 13.04"/>
<path d="M-175.091 763.137C-172.176 822.446 -160.291 870.454 -142.022 909.026C-122.956 949.162 -98.8024 982 -73.4451 1014.92C-63.6737 1027.62 -53.2402 1039.83 -40.0678 1047.27C-35.1047 1050.05 -29.4779 1052.19 -22.5558 1049.08C-14.8504 1045.62 -6.77665 1037.04 1.02809 1028.9C14.3466 1015.02 28.2029 1000.52 39.1394 981.216C53.927 955.092 62.0676 925.242 74.6267 896.373C84.1153 874.524 94.3072 856.687 103.659 836.204C111.003 820.122 108.871 807.871 108.236 794.298C106.883 765.9 100.46 743.391 90.1527 727.845C77.3602 708.515 59.3329 698.909 41.3409 689.74C-1.19693 668.207 -41.4675 641.514 -66.348 585.366C-68.3427 580.912 -71.1937 576.539 -76.3228 579.447C-80.427 581.77 -84.6489 588.274 -88.7939 593.997C-112.247 626.402 -135.213 660.992 -156.675 698.278C-163.551 710.218 -170.427 723.31 -173.415 735.961C-175.857 746.306 -175.496 754.991 -175.091 763.137Z" stroke="#E8E8E8" stroke-width="7.9022" stroke-miterlimit="10" stroke-linecap="round" stroke-linejoin="round" stroke-dasharray="0.03 13.01"/>
<path d="M-171.726 771.781C-169.135 827.413 -157.969 872.299 -140.863 908.4C-122.939 946.09 -100.349 977.085 -76.9462 1008.41C-67.9709 1020.43 -58.4044 1032.01 -46.316 1039.15C-41.7546 1041.82 -36.5802 1043.9 -30.1467 1041C-22.9096 1037.75 -15.2692 1029.59 -7.88499 1021.87C4.59116 1008.84 17.5875 995.241 27.9256 977.078C41.8967 952.513 49.7781 924.451 61.5741 897.33C70.5857 876.59 80.0826 859.626 88.8081 840.213C95.6786 824.931 93.6539 813.242 93.0741 800.29C91.8637 773.625 85.9231 752.455 76.2845 737.861C64.3567 719.767 47.5019 710.789 30.6863 702.228C-9.02217 682.105 -46.4637 656.944 -69.2877 604.295C-71.1269 600.09 -73.7908 595.999 -78.6092 598.772C-82.4946 601.005 -86.5023 607.247 -90.4528 612.703C-112.483 643.145 -134.096 675.559 -154.287 710.516C-160.772 721.739 -167.247 734.046 -170.079 745.954C-172.42 755.785 -172.092 764.042 -171.726 771.781Z" stroke="#E8E8E8" stroke-width="8.0686" stroke-miterlimit="10" stroke-linecap="round" stroke-linejoin="round" stroke-dasharray="0.03 12.98"/>
<path d="M-168.404 780.464C-166.081 832.375 -155.644 874.146 -139.705 907.773C-122.925 943.022 -101.89 972.165 -80.3791 1001.85C-72.178 1013.17 -63.446 1024.08 -52.3992 1030.88C-48.2237 1033.43 -43.4853 1035.44 -37.5311 1032.75C-30.7516 1029.68 -23.5521 1021.94 -16.5861 1014.65C-4.95236 1002.47 7.17462 989.791 16.895 972.784C30.0207 949.802 37.5999 923.568 48.6138 898.212C57.1268 878.591 65.9263 862.508 74.0152 844.173C80.4052 829.699 78.4781 818.578 77.948 806.255C76.8622 781.339 71.3957 761.52 62.4249 747.875C51.3565 731.02 35.6731 722.672 20.0368 714.715C-16.8446 696.013 -51.4511 672.377 -72.3693 623.353C-74.0665 619.405 -76.5577 615.612 -81.0712 618.256C-84.7366 620.402 -88.5266 626.374 -92.2798 631.56C-112.864 660.017 -133.092 690.227 -151.99 722.833C-158.074 733.333 -164.138 744.848 -166.807 756.001C-169.037 765.316 -168.733 773.136 -168.404 780.464Z" stroke="#E8E8E8" stroke-width="8.2351" stroke-miterlimit="10" stroke-linecap="round" stroke-linejoin="round" stroke-dasharray="0.03 12.96"/>
<path d="M-165.118 789.177C-163.026 837.326 -153.322 875.994 -138.546 907.149C-122.91 939.954 -103.427 967.242 -83.753 995.228C-76.2986 1005.83 -68.3867 1016.08 -58.3252 1022.48C-54.5274 1024.9 -50.2018 1026.81 -44.7194 1024.32C-38.3916 1021.45 -31.6294 1014.13 -25.0898 1007.26C-14.3055 995.933 -3.05213 984.174 6.03096 968.34C18.282 946.97 25.5164 922.596 35.726 899.026C43.7279 880.536 51.8232 865.339 59.2708 848.091C65.1728 834.426 63.3344 823.884 62.8439 812.197C61.8669 789.046 56.8685 770.577 48.562 757.889C38.3525 742.276 23.847 734.554 9.38643 727.203C-24.6726 709.924 -56.4466 687.809 -75.5844 642.529C-77.1492 638.849 -79.4834 635.365 -83.6932 637.882C-87.1434 639.945 -90.7156 645.647 -94.2654 650.558C-113.381 677.01 -132.201 704.996 -149.778 735.229C-155.458 744.999 -161.099 755.715 -163.592 766.103C-165.704 774.89 -165.42 782.266 -165.118 789.177Z" stroke="#E8E8E8" stroke-width="8.4016" stroke-miterlimit="10" stroke-linecap="round" stroke-linejoin="round" stroke-dasharray="0.03 12.93"/>
<path d="M-161.862 797.92C-159.958 842.274 -150.997 877.842 -137.388 906.524C-122.894 936.886 -104.955 962.31 -87.0645 988.554C-80.3407 998.415 -73.1952 1007.94 -64.1017 1013.94C-60.6619 1016.21 -56.7388 1018.02 -51.7239 1015.73C-45.839 1013.03 -39.5213 1006.14 -33.4035 999.697C-23.4721 989.234 -13.0987 978.399 -4.6729 963.754C6.67568 944.018 13.5273 921.535 22.9182 899.772C30.3991 882.425 37.7813 868.116 44.5774 851.965C49.9837 839.116 48.2258 829.164 47.7703 818.117C46.8827 796.743 42.3487 779.636 34.7018 767.902C25.3493 753.532 12.0229 746.435 -1.26357 739.69C-32.5055 723.837 -61.441 703.241 -78.9181 661.809C-80.3592 658.406 -82.5487 655.241 -86.4578 657.633C-89.6962 659.614 -93.0425 665.041 -96.3879 669.675C-114.015 694.1 -131.398 719.845 -147.634 747.684C-152.902 756.718 -158.109 766.628 -160.424 776.243C-162.413 784.501 -162.141 791.43 -161.862 797.92Z" stroke="#E8E8E8" stroke-width="8.568" stroke-miterlimit="10" stroke-linecap="round" stroke-linejoin="round" stroke-dasharray="0.03 12.91"/>
<path d="M-158.633 806.684C-156.881 847.209 -148.676 879.69 -136.229 905.898C-122.878 933.816 -106.481 957.375 -90.3197 981.83C-84.3037 990.935 -77.8974 999.708 -69.7348 1005.27C-66.639 1007.39 -63.1093 1009.08 -58.5537 1006.98C-53.1058 1004.46 -47.2321 997.996 -41.5389 991.975C-32.4618 982.378 -22.9742 972.469 -15.2251 959.031C-4.80255 940.951 1.62743 920.39 10.1808 900.453C17.1283 884.253 23.7938 870.838 29.9268 855.796C34.8345 843.765 33.1464 834.413 32.7217 824.009C31.9111 804.428 27.831 788.687 20.8432 777.912C12.3426 764.787 0.196771 758.313 -11.9133 752.175C-40.3406 737.752 -66.4393 718.676 -82.3528 681.179C-83.6825 678.058 -85.7369 675.229 -89.3488 677.498C-92.3784 679.4 -95.4963 684.549 -98.6354 688.905C-114.757 711.283 -130.687 734.768 -145.558 760.197C-150.411 768.488 -155.175 777.587 -157.302 786.424C-159.159 794.144 -158.899 800.621 -158.633 806.684Z" stroke="#E8E8E8" stroke-width="8.7345" stroke-miterlimit="10" stroke-linecap="round" stroke-linejoin="round" stroke-dasharray="0.03 12.88"/>
<path d="M-155.426 815.467C-153.801 852.14 -146.355 881.536 -135.07 905.271C-122.863 930.746 -107.998 952.429 -93.519 975.057C-88.1894 983.384 -82.4988 991.382 -75.2341 996.491C-72.473 998.436 -69.318 999.997 -65.2158 998.08C-60.1972 995.733 -54.7691 989.697 -49.5041 984.107C-41.2865 975.38 -32.6866 966.401 -25.6313 954.183C-16.1576 937.779 -10.1875 919.166 -2.48479 901.073C3.91408 886.033 9.85702 873.518 15.3251 859.591C19.7253 848.382 18.1035 839.635 17.6979 829.887C16.9537 812.107 13.3157 797.738 6.98752 787.923C-0.66376 776.047 -11.6239 770.193 -22.56 764.662C-48.1779 751.67 -71.4398 734.115 -85.8804 700.632C-87.1052 697.802 -89.0352 695.312 -92.3522 697.463C-95.1731 699.291 -98.0608 704.155 -100.988 708.229C-115.585 728.546 -130.04 749.757 -143.536 772.76C-147.963 780.306 -152.286 788.587 -154.215 796.638C-155.937 803.816 -155.677 809.833 -155.426 815.467Z" stroke="#E8E8E8" stroke-width="8.901" stroke-miterlimit="10" stroke-linecap="round" stroke-linejoin="round" stroke-dasharray="0.03 12.85"/>
<path d="M-152.234 824.265C-150.715 857.067 -144.032 883.383 -133.912 904.646C-122.85 927.678 -109.512 947.481 -96.6706 968.239C-92.0092 975.772 -87.0048 982.977 -80.6098 987.597C-78.1708 989.361 -75.3793 990.784 -71.7258 989.048C-67.1307 986.866 -62.1525 981.262 -57.3169 976.1C-49.9628 968.247 -42.2552 960.203 -35.9049 949.218C-27.405 934.514 -21.9258 917.868 -15.0884 901.638C-9.24522 887.761 -4.03143 876.151 0.761581 863.348C4.64913 852.963 3.0848 844.835 2.69362 835.741C2.00449 819.775 -1.19538 806.784 -6.8687 797.932C-13.6723 787.306 -23.4487 782.072 -33.2072 777.146C-56.0169 765.589 -76.4492 749.556 -89.4864 720.153C-90.6128 717.618 -92.4294 715.481 -95.4509 717.51C-98.0685 719.265 -100.719 723.844 -103.435 727.633C-116.499 745.874 -129.461 764.8 -141.562 785.365C-145.559 792.16 -149.43 799.618 -151.158 806.877C-152.737 813.509 -152.477 819.065 -152.234 824.265Z" stroke="#E8E8E8" stroke-width="9.0675" stroke-miterlimit="10" stroke-linecap="round" stroke-linejoin="round" stroke-dasharray="0.03 12.83"/>
</g>
</svg>
