<svg width="36" height="35" viewBox="0 0 36 35" fill="none" xmlns="http://www.w3.org/2000/svg">
<rect x="0.30542" width="35.0561" height="35" rx="17.5" fill="#DF4B38"/>
<path d="M19.8604 16.9902H12.7361L12.7442 19.0274H17.5479C16.9798 21.5077 15.2264 23.0289 12.8729 23.0289C9.78624 23.0289 7.28404 20.5307 7.28404 17.449C7.28404 14.3673 9.78624 11.8691 12.8729 11.8691C14.3407 11.8691 15.6755 12.4348 16.6727 13.3584L18.2491 12.002C16.866 10.6412 14.9683 9.80078 12.8736 9.80078C8.64259 9.80078 5.21313 13.2255 5.21313 17.4498C5.21313 21.674 8.64259 25.098 12.8736 25.098C16.9366 25.098 19.8723 22.0044 19.8723 17.7801L19.8604 16.9902Z" fill="white"/>
<path d="M30.1002 17.0749H27.1593V14.1387H25.2832V17.0749H22.3423V18.948H25.2832V21.8842H27.1593V18.948H30.1002V17.0749Z" fill="white"/>
</svg>
