<svg width="36" height="35" viewBox="0 0 36 35" fill="none" xmlns="http://www.w3.org/2000/svg">
<rect x="0.768555" width="35.0561" height="35" rx="17.5" fill="url(#paint0_radial_2_16107)"/>
<path d="M18.1487 9.43792C20.7304 9.43792 21.036 9.44758 22.0555 9.49435C22.9984 9.53741 23.51 9.6948 23.8513 9.82694C24.3026 10.0022 24.6246 10.2115 24.963 10.5493C25.3013 10.8871 25.511 11.2086 25.6865 11.6592C25.8188 11.9992 25.9765 12.5107 26.0196 13.4521C26.0664 14.4699 26.0761 14.7751 26.0761 17.3527C26.0761 19.9303 26.0657 20.2354 26.0196 21.2533C25.9765 22.1946 25.8188 22.7054 25.6865 23.0454C25.511 23.4961 25.3013 23.8183 24.963 24.1561C24.6246 24.4939 24.3026 24.7025 23.8513 24.8777C23.5107 25.0098 22.9984 25.1672 22.0555 25.2103C21.036 25.2563 20.7304 25.266 18.1487 25.266C15.5669 25.266 15.2613 25.2563 14.2418 25.2103C13.299 25.1672 12.7874 25.0098 12.4461 24.8777C11.9947 24.7025 11.6727 24.4931 11.3344 24.1561C10.996 23.8183 10.7864 23.4968 10.6109 23.0454C10.4785 22.7054 10.3209 22.1946 10.2777 21.2533C10.2309 20.2354 10.2212 19.9303 10.2212 17.3527C10.2212 14.7751 10.2309 14.4699 10.2777 13.4521C10.3209 12.5107 10.4785 12 10.6109 11.6592C10.7864 11.2086 10.996 10.8871 11.3344 10.5493C11.6727 10.2115 11.9947 10.0022 12.4461 9.82694C12.7866 9.6948 13.299 9.53741 14.2418 9.49435C15.2613 9.44832 15.5669 9.43792 18.1487 9.43792ZM18.1487 7.69922C15.523 7.69922 15.1936 7.71036 14.1623 7.75787C13.1331 7.80464 12.4304 7.96797 11.8155 8.20628C11.1797 8.4535 10.6406 8.78313 10.103 9.31988C9.56538 9.85664 9.23522 10.3949 8.9876 11.0296C8.74817 11.6436 8.58457 12.3452 8.53847 13.3727C8.49162 14.4024 8.48047 14.7313 8.48047 17.3527C8.48047 19.9741 8.49162 20.303 8.53847 21.3327C8.58532 22.3602 8.74891 23.0618 8.9876 23.6757C9.23448 24.3097 9.56463 24.8487 10.103 25.3855C10.6406 25.9222 11.1797 26.2519 11.8155 26.4991C12.4304 26.7374 13.1331 26.9007 14.1623 26.9475C15.1936 26.9943 15.523 27.0054 18.1487 27.0054C20.7743 27.0054 21.1037 26.9943 22.1351 26.9475C23.1642 26.9007 23.8669 26.7374 24.4818 26.4991C25.1176 26.2519 25.6575 25.9222 26.1943 25.3855C26.732 24.8487 27.0621 24.3105 27.3097 23.6757C27.5492 23.0618 27.7128 22.3602 27.7589 21.3327C27.8057 20.303 27.8169 19.9741 27.8169 17.3527C27.8169 14.7313 27.8057 14.4024 27.7589 13.3727C27.712 12.3452 27.5484 11.6436 27.3097 11.0296C27.0629 10.3949 26.732 9.8559 26.1943 9.31988C25.6567 8.78313 25.1176 8.4535 24.4818 8.20628C23.8669 7.96797 23.1642 7.80464 22.1351 7.75787C21.103 7.71036 20.7743 7.69922 18.1487 7.69922Z" fill="white"/>
<path d="M18.1483 12.3965C15.406 12.3965 13.1833 14.6155 13.1833 17.3535C13.1833 20.0915 15.406 22.3105 18.1483 22.3105C20.8907 22.3105 23.1133 20.0915 23.1133 17.3535C23.1133 14.6155 20.8899 12.3965 18.1483 12.3965ZM18.1483 20.5711C16.3682 20.5711 14.9256 19.1308 14.9256 17.3535C14.9256 15.5762 16.3682 14.1359 18.1483 14.1359C19.9285 14.1359 21.3711 15.5762 21.3711 17.3535C21.3711 19.1308 19.9277 20.5711 18.1483 20.5711Z" fill="white"/>
<path d="M24.4697 12.2011C24.4697 12.8411 23.9499 13.36 23.3089 13.36C22.668 13.36 22.1489 12.8411 22.1489 12.2011C22.1489 11.5619 22.668 11.043 23.3089 11.043C23.9499 11.043 24.4697 11.5619 24.4697 12.2011Z" fill="white"/>
<defs>
<radialGradient id="paint0_radial_2_16107" cx="0" cy="0" r="1" gradientUnits="userSpaceOnUse" gradientTransform="translate(6.72809 27.65) rotate(-40.1911) scale(35.7951 35.7856)">
<stop offset="0.015" stop-color="#F0C84E"/>
<stop offset="0.26" stop-color="#E37F46"/>
<stop offset="0.545" stop-color="#C74178"/>
<stop offset="0.735" stop-color="#A33D93"/>
<stop offset="1" stop-color="#7A38B2"/>
</radialGradient>
</defs>
</svg>
