<svg width="45" height="50" viewBox="0 0 45 50" fill="none" xmlns="http://www.w3.org/2000/svg">
<path d="M21.5083 45.5273C22.6605 45.1955 23.7934 45.7423 24.2622 46.8359C24.516 47.4608 24.5356 47.6563 24.3012 48.3398C23.9888 49.2187 22.9926 49.9998 22.1919 50C21.4106 50 20.4341 49.2968 20.0825 48.4961C19.5747 47.2461 20.2192 45.8984 21.5083 45.5273ZM14.145 32.8125C16.1176 34.785 17.6802 35.586 20.8637 36.2305L21.3911 36.3281V40.0391C21.3911 43.6906 21.3908 43.7305 20.9614 43.8477C20.7075 43.9258 20.2192 44.2188 19.8481 44.4922L19.2036 44.9805L18.559 44.6094C18.2075 44.3945 15.3363 42.7538 12.1919 40.9375L6.44967 37.6172V36.2305L6.43014 34.8438L9.55514 33.0859L12.6606 31.3281L14.145 32.8125ZM32.5239 32.1289C33.1099 32.4415 34.5552 33.2422 35.727 33.9062L37.8559 35.0977L37.8755 36.3672L37.9145 37.6172L32.1723 40.9375C29.0087 42.7536 26.1379 44.3941 25.7856 44.6094L25.1411 44.9805L24.4965 44.4922C24.1256 44.2188 23.6373 43.9259 23.4028 43.8477C22.9536 43.7305 22.9536 43.6914 22.9536 40.0391V36.3281L23.5004 36.2305C26.6058 35.5859 28.227 34.7851 30.0825 32.9102L31.4497 31.543L32.5239 32.1289ZM41.02 34.2578C42.0161 33.8086 43.1684 34.1992 43.7348 35.1758C44.4181 36.3086 43.9691 37.8125 42.7583 38.3789C41.7818 38.8476 40.9027 38.6326 40.1411 37.7539C39.5943 37.129 39.5161 36.9528 39.6137 36.1914C39.7114 35.2344 40.1411 34.6484 41.02 34.2578ZM1.95748 34.1387C2.81685 33.8656 4.06694 34.4513 4.53561 35.3691C5.49257 37.2245 3.46131 39.2555 1.58639 38.377C-0.308163 37.4785 -0.0737897 34.8223 1.95748 34.1387ZM20.6098 15.5674C26.9183 14.5519 32.5043 20.0011 31.6059 26.2705C31.0395 30.2158 28.2855 33.2626 24.3794 34.2783C19.4184 35.5674 14.2427 32.3838 12.895 27.208C11.9379 23.5556 13.5981 19.2197 16.7622 17.1299C17.7388 16.4854 19.6138 15.7236 20.6098 15.5674ZM38.9106 16.6016C38.9503 16.602 39.3994 16.8362 39.9458 17.1289L40.9223 17.6758L40.9028 25V32.3242L39.809 32.9688L38.7153 33.5938L35.5122 31.8164C32.9731 30.3906 32.3286 29.9609 32.4458 29.707C33.52 27.1289 33.7153 24.1601 32.9536 21.6992C32.6997 20.918 32.5434 20.2148 32.6215 20.1562C32.6807 20.0973 34.1063 19.2576 35.8051 18.3203C37.4848 17.3828 38.8911 16.6016 38.9106 16.6016ZM5.10201 16.8164C5.22243 16.7988 6.76423 17.5988 8.51998 18.5938C10.2776 19.5702 11.7426 20.3906 11.7622 20.4102C11.7791 20.4183 11.6238 21.0009 11.3911 21.6797C10.7856 23.5352 10.7856 26.3672 11.3911 28.3008C11.6448 29.0814 11.7813 29.8038 11.684 29.8828C11.6059 29.9609 10.1605 30.7813 8.50045 31.7188L5.47311 33.418L4.45748 32.8711L3.42232 32.3242V17.6758L4.16451 17.2656C4.55506 17.0313 4.98485 16.8359 5.10201 16.8164ZM24.3012 18.0674C23.5786 17.6768 21.7818 17.5206 20.8442 17.7549C18.7543 18.2822 18.1293 20.9775 19.4379 23.8096C20.1605 25.3719 20.1408 25.4502 18.8715 25.6846C17.7388 25.8994 16.938 26.3683 16.5083 27.0518C15.9418 27.9502 15.9418 31.1728 16.4887 31.8564L16.8598 32.3252H27.4848L27.8559 31.8564C28.4027 31.1725 28.4027 27.9502 27.8364 27.0518C27.4067 26.3682 26.6058 25.8994 25.4731 25.6846C24.2426 25.4502 24.2036 25.3721 24.9067 23.9658C26.1175 21.5245 25.844 18.8487 24.3012 18.0674ZM22.1723 26.1719C22.4457 26.172 22.7778 26.3477 22.895 26.543C23.0514 26.7968 23.6178 27.0313 24.5551 27.2461C25.3363 27.4219 26.0786 27.6563 26.2153 27.7734C26.3715 27.9104 26.4692 28.4768 26.4692 29.3164V30.6641H17.8754V29.3164C17.8754 28.4766 17.9731 27.9102 18.1294 27.7734C18.2665 27.6562 19.0086 27.4218 19.7895 27.2461C20.7268 27.0313 21.2934 26.7969 21.4497 26.543C21.5669 26.3477 21.8989 26.1719 22.1723 26.1719ZM21.1567 19.4727C22.0551 19.2384 23.1684 19.3555 23.5395 19.7266C24.6137 20.8007 23.2856 24.7262 21.9965 24.3164C21.059 24.0234 20.1997 21.4844 20.6098 20.2344C20.7271 19.8634 20.981 19.5117 21.1567 19.4727ZM19.1059 5.09766C19.204 5.07869 19.5555 5.29326 19.8872 5.54688C20.2387 5.80075 20.7075 6.07423 20.9614 6.15234C21.3908 6.26948 21.3911 6.30945 21.3911 9.96094V13.6719L20.8637 13.7695C19.1842 14.1211 17.8363 14.5509 16.8012 15.0977C15.6881 15.6835 13.2666 17.8513 12.8559 18.6133C12.6997 18.9258 12.3479 18.7694 9.41842 17.1484C6.56683 15.5469 6.19576 15.293 6.31295 14.9414C6.37148 14.7801 6.41823 14.3665 6.43014 13.9229V12.4023L12.6801 8.75C16.137 6.75789 19.0278 5.11719 19.1059 5.09766ZM25.2192 5.13672C25.3213 5.15887 28.2298 6.79847 31.6645 8.76953L37.895 12.3828V13.7695L37.9145 15.1562L34.7895 16.9141L31.684 18.6719L30.1997 17.1875C28.227 15.2149 26.6644 14.4141 23.5004 13.7695L22.9536 13.6719V6.28906L23.5004 6.09375C23.7934 5.99603 24.2427 5.7226 24.5161 5.48828C24.7895 5.27347 25.102 5.09766 25.2192 5.13672ZM1.50826 11.6396C2.46519 11.1516 3.38334 11.3663 4.18404 12.2256C4.7697 12.8698 4.82856 13.0265 4.73092 13.8076C4.63325 14.784 4.18378 15.3701 3.28561 15.7412C0.746518 16.8154 -0.9527 12.8897 1.50826 11.6396ZM41.0005 11.5234C42.4457 10.9376 44.0472 12.0899 44.0473 13.6719C44.0473 15.1172 42.5434 16.25 41.1958 15.8203C39.6332 15.293 39.0668 13.5156 40.0825 12.3047C40.3559 11.9532 40.7856 11.6016 41.0005 11.5234ZM22.1723 0C22.934 0.000194339 23.9302 0.722756 24.2622 1.50391C24.887 3.02722 23.8713 4.49201 22.1723 4.49219C21.0395 4.49219 20.3169 3.98431 20.0044 2.94922C19.7114 1.99218 20.1411 0.937504 21.0395 0.390625C21.3911 0.175841 21.8989 0 22.1723 0Z" fill="white"/>
</svg>
