<svg width="44" height="50" viewBox="0 0 44 50" fill="none" xmlns="http://www.w3.org/2000/svg">
<path d="M20.6768 44.8945C21.5934 44.4987 22.2604 44.5195 23.0938 44.957C23.8854 45.3737 24.5732 46.4785 24.5732 47.291C24.573 48.5826 23.1558 49.999 21.8643 49.999C21.0518 49.9989 19.9687 49.3111 19.5313 48.5195C18.8023 47.2279 19.3644 45.4571 20.6768 44.8945ZM6.59376 37.71C6.67798 37.7105 17.1775 43.7305 18.0732 44.293C18.5105 44.5845 18.5104 44.6267 18.2188 45.21L17.9063 45.8145L16.1768 44.8145C15.2393 44.2728 12.5523 42.7096 10.1982 41.3555C7.8441 40.0013 5.90593 38.8766 5.86426 38.835C5.82306 38.8135 5.94848 38.5423 6.13575 38.251C6.34396 37.9595 6.53129 37.71 6.59376 37.71ZM37.0938 37.7295C37.2609 37.7097 37.9684 38.7507 37.8643 38.834C37.8141 38.8805 35.3176 40.337 32.2813 42.084C29.2396 43.834 26.5518 45.3753 26.3018 45.542C25.8644 45.8127 25.8023 45.7918 25.5107 45.2295C25.2607 44.7503 25.2607 44.5625 25.4482 44.4375C25.5996 44.3509 28.2431 42.7897 31.3438 41C34.4269 39.2084 37.0313 37.7295 37.0938 37.7295ZM22.4893 43.124H21.2393V40.416H22.4893V43.124ZM19.1563 11.3525C24.6562 10.2484 30.3018 12.6031 33.4268 17.3115C36.5725 21.9991 36.552 27.9368 33.4063 32.7285C30.5313 37.1035 25.1767 39.5195 20.0518 38.7695C13.7187 37.8527 9.01043 33.1448 8.09375 26.8115C7.0521 19.6864 11.9688 12.7901 19.1563 11.3525ZM1.19825 33.876C3.01068 32.8762 5.19825 34.1267 5.19825 36.1475C5.19793 38.1681 3.07244 39.3759 1.23926 38.4385C-0.38533 37.584 -0.426605 34.7509 1.19825 33.876ZM39.7598 33.8965C40.4473 33.459 41.6976 33.4388 42.4893 33.8555C43.6558 34.4597 44.0934 36.2093 43.4268 37.501C42.8227 38.6675 40.9896 39.126 39.7813 38.418C38.1355 37.4388 38.1141 34.9174 39.7598 33.8965ZM22.9063 13.1025C22.0938 12.5401 21.2187 12.4568 20.4063 12.8525C19.5521 13.29 18.7393 14.4365 18.7393 15.1865C18.7394 15.999 19.4275 17.1241 20.1357 17.499L20.7813 17.8115L19.9268 18.2275C18.8644 18.7483 18.3227 19.4569 18.2393 20.4775C18.1768 21.2067 18.0728 21.2904 16.9063 21.8945C15.4272 22.6237 14.5107 23.5822 13.7607 25.207C12.2608 28.457 13.8437 32.4569 17.2393 34.0195C18.635 34.6653 21.1559 34.6448 22.6143 33.999C23.8225 33.4574 25.3642 31.9574 25.9893 30.749L26.3857 29.916L26.7607 31.957C27.2607 34.6862 27.8438 35.3532 29.4063 34.9365C29.7395 34.8531 30.1142 34.52 30.3018 34.166C30.6143 33.5827 30.5934 33.2696 29.9893 29.832C29.1769 25.1867 29.1977 25.2493 26.5732 25.166L24.6768 25.1035L24.6143 24.207L24.5518 23.332H26.5518C29.1974 23.332 29.9684 22.9156 29.9893 21.499C29.9893 21.0408 29.8228 20.6448 29.4688 20.3115C29.0105 19.8324 28.8228 19.79 26.8232 19.79H24.6768L24.1143 19.082C23.8018 18.6863 23.1979 18.2491 22.7813 18.124L22.0313 17.874L22.6563 17.5615C24.4062 16.7073 24.5312 14.2484 22.9063 13.1025ZM8.36426 32.584C8.57255 32.8131 8.73926 33.1045 8.73926 33.2295C8.7383 33.4174 6.84335 34.584 6.55176 34.584C6.50947 34.5827 6.32245 34.333 6.15626 34.0215C5.86459 33.459 5.88576 33.4378 6.94825 32.792L8.01075 32.1465L8.36426 32.584ZM36.7598 32.7715C37.8639 33.4382 37.8639 33.4375 37.5723 34C37.4056 34.3333 37.2184 34.584 37.1768 34.584C36.9267 34.5837 34.9933 33.4193 34.9893 33.2715C34.9893 33.1882 35.1349 32.8961 35.3223 32.6045L35.6348 32.125L36.7598 32.7715ZM20.0313 19.833C20.4485 19.4166 22.7185 19.6046 22.9268 20.042C23.0309 20.2502 23.1976 20.583 23.3018 20.7705C23.4476 21.083 23.8649 21.1667 25.9482 21.25C29.1768 21.3958 29.1351 21.7497 25.8857 21.833C24.2618 21.8746 23.3864 21.979 23.2813 22.1455C23.0104 22.5622 23.0935 26.146 23.3643 26.417C23.5309 26.5837 24.3644 26.667 25.7393 26.667H27.8643L28.1982 28.4795C28.8232 31.9794 29.0101 33.3337 28.8643 33.4795C28.6352 33.7085 28.5725 33.4995 28.0518 30.4375C27.7393 28.6876 27.4059 27.3747 27.2393 27.2705C27.0913 27.1665 25.5717 27.083 23.8857 27.083C20.8858 27.083 20.7809 27.0625 20.3018 26.5625C19.802 26.0835 19.7813 25.958 19.7813 23.0625C19.7813 20.9792 19.8646 19.9997 20.0313 19.833ZM18.1563 24.6445C18.3021 26.6029 18.4274 26.9153 19.3232 27.7695C20.094 28.4986 21.0521 28.7282 23.3018 28.749H25.0313L24.8857 29.3115C24.3024 31.7698 21.3856 33.4568 18.7607 32.8945C14.4483 31.9778 13.3021 26.0404 16.9688 23.582L18.0107 22.874L18.1563 24.6445ZM3.32325 31.874H1.86426V18.124H3.32325V31.874ZM41.8643 31.874H40.4063V18.124H41.8643V31.874ZM6.55176 15.415C6.8016 15.415 8.73678 16.5805 8.73926 16.7275C8.73926 16.8109 8.59375 17.1029 8.40625 17.3945L8.09375 17.874L6.96876 17.2275C5.86502 16.5611 5.86479 16.5612 6.15626 15.999C6.32238 15.6668 6.50928 15.4167 6.55176 15.415ZM37.1143 15.4365C37.1976 15.4157 37.4056 15.6657 37.5723 15.999C37.8639 16.5614 37.8638 16.5609 36.7598 17.2275L35.6348 17.874L35.3223 17.3945C35.1348 17.1029 34.9893 16.8109 34.9893 16.7275C34.9903 16.6438 35.4483 16.3111 35.9893 15.999C36.5307 15.6866 37.0307 15.4367 37.1143 15.4365ZM1.19825 11.582C3.01056 10.5823 5.19794 11.832 5.19825 13.8525C5.19825 15.8734 3.07258 17.082 1.23926 16.1445C-0.385365 15.2901 -0.426617 12.457 1.19825 11.582ZM39.7598 11.6045C40.4472 11.167 41.6976 11.1459 42.4893 11.5625C43.6559 12.1667 44.0934 13.9173 43.4268 15.209C42.8225 16.3755 40.9895 16.8333 39.7813 16.125C38.1355 15.1459 38.1142 12.6254 39.7598 11.6045ZM21.4482 14.167C22.1563 14.1671 22.4893 14.5219 22.4893 15.251C22.4892 15.6258 22.3227 15.9379 21.9688 16.167C21.4896 16.4795 21.4059 16.4795 20.9268 16.167C20.3646 15.7918 20.2188 14.8544 20.6563 14.417C20.8022 14.2713 21.1567 14.167 21.4482 14.167ZM30.3438 6.81152C32.8434 8.24887 35.5719 9.81164 36.3848 10.291C37.2172 10.7488 37.9047 11.1858 37.9063 11.249C37.9063 11.3115 37.7181 11.5827 37.5098 11.8535L37.1348 12.3535L31.6357 9.16602C28.6149 7.41598 25.9271 5.85287 25.6563 5.70703C25.2189 5.41545 25.2191 5.37428 25.5107 4.79102L25.8232 4.18652L30.3438 6.81152ZM17.8438 4.1875C17.8656 4.169 18.032 4.43921 18.2188 4.79199C18.5938 5.52117 19.3644 4.97949 12.0938 9.16699L6.59376 12.334L6.21876 11.8545C6.01095 11.5843 5.82411 11.3143 5.82325 11.251C5.82325 11.1885 8.53161 9.58369 11.8232 7.66699C15.1147 5.77121 17.8229 4.1875 17.8438 4.1875ZM22.4893 9.58398H21.2393V6.875H22.4893V9.58398ZM21.8643 0C22.1559 0 22.7188 0.166663 23.0938 0.375C23.8853 0.791782 24.5732 1.89558 24.5732 2.70801C24.5732 3.99967 23.1559 5.41602 21.8643 5.41602C20.5727 5.41584 19.1563 3.99959 19.1563 2.70801C19.1563 1.89549 19.8441 0.791674 20.6357 0.375C21.0106 0.166747 21.5726 9.32853e-05 21.8643 0Z" fill="white"/>
</svg>
