<svg width="52" height="50" viewBox="0 0 52 50" fill="none" xmlns="http://www.w3.org/2000/svg">
<path d="M47.6632 12.8105C48.1285 12.325 48.5328 12.4259 48.9171 13.0732L49.2414 13.6601L49.9289 13.0732C50.6773 12.4057 51.0209 12.3452 51.466 12.8105C51.9312 13.2555 51.8708 13.5992 51.2033 14.3476L50.6164 15.0351L51.2033 15.3593C52.4371 16.0674 51.729 16.9375 49.9083 16.9375H48.6544L47.0968 18.4951C46.2269 19.365 45.5187 20.1339 45.5187 20.2148C45.5203 20.2977 45.9442 20.9241 46.4894 21.6308C51.2635 27.983 51.0414 37.1675 45.9435 43.459C43.5767 46.4123 40.3197 48.4956 36.5167 49.5273C34.251 50.1544 29.9417 50.1547 27.6759 49.5478C21.1821 47.7878 16.2455 42.75 14.6271 36.2158C14.1215 34.1319 14.1625 29.8635 14.7492 27.7597C16.4283 21.5089 20.9395 16.8964 27.2511 14.9746C28.8491 14.4891 29.355 14.4492 32.0656 14.4492C34.7966 14.4492 35.2824 14.4893 36.921 14.9951C39.2271 15.7031 41.0273 16.5733 42.6456 17.7871C43.3527 18.3325 43.9793 18.7566 44.0617 18.7578C44.1426 18.7578 44.9113 18.0497 45.7609 17.2002L47.339 15.622V14.3681C47.339 13.4983 47.4407 13.033 47.6632 12.8105ZM35.1613 17.2607C27.2109 15.6221 19.4826 20.4773 17.2775 28.4882C16.792 30.2684 16.792 34.1526 17.2775 35.9531C18.6936 41.2533 23.0231 45.5829 28.3234 46.999C30.124 47.4844 34.0081 47.4845 35.7882 46.999C42.3831 45.1985 46.9346 39.6549 47.2785 33.0195C47.3998 30.673 47.0353 28.3467 46.1857 26.3642C45.6394 25.0492 44.102 22.5406 43.6974 22.2978C43.5555 22.2175 43.2116 22.3996 42.8478 22.7431L42.2414 23.3496L42.9699 24.3613C46.6517 29.4997 46.2264 36.6007 41.9376 41.2334C39.3078 44.0653 36.0308 45.5021 32.1671 45.5224C28.4651 45.5427 25.2686 44.2271 22.6994 41.6377C17.298 36.2363 17.3988 27.6183 22.9621 22.4394C27.6352 18.0496 34.7363 17.5843 39.9152 21.3066L40.9259 22.0351L41.5333 21.4277C41.8771 21.0637 42.0596 20.7197 41.9787 20.5781C41.7354 20.1733 39.2274 18.636 37.9328 18.0898C37.2653 17.8066 36.0109 17.4428 35.1613 17.2607ZM31.965 21.4082C27.3122 21.4486 23.1242 24.685 21.7687 29.2568C21.4046 30.511 21.3435 33.3635 21.6671 34.7392C22.4966 38.3401 25.9363 41.7789 29.5372 42.6084C30.913 42.932 33.7655 42.8719 35.0197 42.5078C40.5624 40.869 43.8999 35.2654 42.5851 29.7226C42.2817 28.4482 41.392 26.5464 40.7042 25.6562L40.3195 25.1709L39.713 25.8379L39.1056 26.5263L39.672 27.416C40.6228 28.913 40.9464 30.1879 40.9464 32.2109C40.9261 35.1644 39.7933 37.4503 37.4669 39.2304C33.8862 41.9614 28.7274 41.5162 25.6525 38.2187C22.6992 35.0629 22.4568 30.2283 25.046 26.8095C26.8263 24.4831 29.1121 23.3503 32.0656 23.33C34.0886 23.33 35.3635 23.6537 36.8605 24.6045L37.7501 25.1709L38.4376 24.5634L39.1261 23.957L38.6203 23.5527C37.7908 22.8851 35.8688 21.9948 34.5539 21.6914C33.8459 21.5296 32.6933 21.4082 31.965 21.4082ZM41.0675 10.8691C41.0675 12.8667 41.0278 14.5024 40.9874 14.5107C40.947 14.5107 40.4006 14.288 39.7736 14.0049C37.2853 12.9124 35.5653 12.5881 32.0656 12.6084C28.3433 12.6084 26.8869 12.9124 23.9738 14.2881C18.5928 16.7965 14.9312 21.0646 13.2521 26.749C12.2811 30.006 12.3213 34.902 13.3732 37.9365C13.575 38.542 13.7571 39.0872 13.758 39.1299C13.758 39.1501 11.0874 39.1904 7.85073 39.1904C2.26727 39.1904 1.88215 39.1705 1.25502 38.7861C-0.0392789 37.9975 0.00111589 38.5013 0.00111602 22.0966V7.22751H41.0675V10.8691ZM33.8664 26.1211C31.6411 25.4535 29.2735 26.0809 27.6349 27.7802C26.5022 28.9333 26.0166 30.1472 25.9357 31.9677C25.8548 33.4041 25.9161 33.6675 26.4826 34.8408C27.2108 36.3173 28.1613 37.2275 29.6984 37.9355C30.6086 38.3401 31.0137 38.4217 32.3283 38.3408C34.1287 38.2599 35.3431 37.7532 36.4962 36.6406C38.4987 34.6783 39.0043 31.361 37.6085 29.0752L37.2042 28.4072L36.5167 29.0752C36.0719 29.4998 35.8895 29.8231 35.9904 29.9648C36.3545 30.4099 36.6583 32.0084 36.5167 32.8379C36.3347 34.1325 35.3633 35.4272 34.1496 36.0341C32.3289 36.9445 30.4065 36.6407 28.9904 35.2246C26.2599 32.4935 28.2221 27.7598 32.0656 27.7597C32.7736 27.7597 33.5425 27.9022 33.9269 28.1045C34.5538 28.4078 34.5743 28.407 35.2013 27.7597L35.8488 27.0927L35.3429 26.749C35.0395 26.5669 34.3923 26.2829 33.8664 26.1211ZM20.8781 0.00582776C39.0826 0.0462822 39.2269 0.0460117 39.7931 0.470672C40.7439 1.17867 41.0881 2.06872 41.0275 3.78805L40.9669 5.30563H28.6261L28.5255 4.25387C28.4649 3.62694 28.2623 3.04042 28.0197 2.77731C27.1296 1.80628 26.9067 1.76559 20.5343 1.76559C14.2026 1.76559 13.9394 1.80573 13.0695 2.7363C12.8672 2.9791 12.6445 3.62652 12.5636 4.23337L12.4425 5.30563L6.23158 5.36618L0.00111602 5.42673V3.78805C0.00116831 1.60344 0.547701 0.572237 1.9435 0.147429C2.26833 0.0462944 10.7843 -0.0143982 20.8781 0.00582776ZM20.5343 3.58688C24.6804 3.58688 26.2793 3.64711 26.4621 3.82907C26.6037 3.97068 26.7042 4.37606 26.7042 4.7402V5.4072H14.3644V4.7402C14.3644 4.37606 14.466 3.97068 14.6076 3.82907C14.7917 3.64734 16.3906 3.58688 20.5343 3.58688ZM3.13686 1.76559C2.20628 1.76559 1.82143 2.02839 1.82143 2.67575C1.82144 3.32309 2.20629 3.58591 3.13686 3.58591C4.06742 3.5859 4.4513 3.32309 4.45131 2.67575C4.45131 2.43299 4.35073 2.14939 4.20912 2.00778C4.06736 1.86624 3.602 1.76559 3.13686 1.76559ZM7.58705 1.76559C6.65675 1.76566 6.2726 2.02848 6.2726 2.67575C6.27261 3.323 6.65676 3.58583 7.58705 3.58591C8.51762 3.58591 8.90247 3.32309 8.90248 2.67575C8.90248 2.43299 8.80093 2.14939 8.65932 2.00778C8.51732 1.86634 8.05198 1.76559 7.58705 1.76559ZM36.6173 1.76559C34.3718 1.76559 33.9874 1.88679 33.9874 2.67575C33.9875 3.46469 34.3719 3.5859 36.6173 3.58591C38.8628 3.58591 39.2472 3.46469 39.2472 2.67575C39.2472 2.43299 39.1457 2.14939 39.004 2.00778C38.8412 1.84621 38.012 1.76559 36.6173 1.76559Z" fill="white"/>
</svg>
