<svg width="50" height="50" viewBox="0 0 50 50" fill="none" xmlns="http://www.w3.org/2000/svg">
<path d="M10.3496 32.8162H8.88477C7.5766 32.8162 7.34266 32.8749 6.93262 33.3045L6.44434 33.7732V42.5994L6.93262 43.0681L7.40039 43.5554H16.2275L16.6963 43.0681C17.1259 42.6581 17.1836 42.4233 17.1836 41.115V39.6502H23.042V49.9998H0V26.9578H10.3496V32.8162ZM14.0596 35.9422V38.1677C14.0596 40.0228 14.0009 40.4139 13.7471 40.5115C13.5708 40.57 12.7122 40.6287 11.8145 40.6287C10.9163 40.6287 10.0568 40.5701 9.88086 40.5115C9.627 40.4139 9.56836 40.0228 9.56836 38.1677V35.9422H14.0596ZM45.5381 35.9021C45.9097 35.6874 49.1701 35.7069 49.6191 35.9412C49.9508 36.1364 49.9902 36.371 49.9902 38.1668C49.9902 39.6508 49.9121 40.2566 49.7168 40.4129C49.541 40.5691 48.7399 40.6277 47.4316 40.5886L45.4014 40.53L45.3428 38.3035C45.3037 36.6438 45.3623 36.0193 45.5381 35.9021ZM23.042 36.7224H17.1836V35.2576C17.1836 33.9493 17.1259 33.7145 16.6963 33.3045C16.2862 32.8749 16.0515 32.8172 14.7432 32.8172H13.2783V26.9588H23.042V36.7224ZM42.1787 5.30251C42.1787 6.57173 42.2179 6.72844 42.7451 7.25563C43.2724 7.78287 43.429 7.82204 44.6982 7.82204H46.084V32.8172H44.6982C43.4291 32.8172 43.2723 32.8555 42.7451 33.3826C42.2179 33.9098 42.1787 34.0665 42.1787 35.3357V36.7224L34.1729 36.6834L26.1475 36.6248V25.9041L29.4277 22.6238C31.2226 20.8289 32.764 19.3453 32.8447 19.3425C32.9424 19.3425 33.001 20.0068 33.001 20.8074C33.001 22.1157 33.0597 22.3504 33.4893 22.7605C33.7431 23.0338 34.0948 23.2488 34.2705 23.2488C34.7391 23.2488 35.6767 22.7214 35.8135 22.3699C35.8721 22.1942 35.9307 20.4758 35.9307 18.5427C35.9307 13.7978 36.2036 14.0701 31.459 14.0701C29.5258 14.0701 27.8066 14.1287 27.6309 14.1873C27.2794 14.3241 26.7521 15.2616 26.752 15.7302C26.752 15.9059 26.9669 16.2577 27.2402 16.5115C27.6503 16.9411 27.885 16.9998 29.1934 16.9998C29.994 16.9998 30.6582 17.0779 30.6582 17.156C30.6563 17.2359 29.1333 18.7972 27.2988 20.6121L23.9209 23.9314L18.6094 23.8728L13.2783 23.8142V7.82204H14.5674C16.6959 7.82204 17.1641 7.3724 17.1836 5.32204V3.91676H42.1787V5.30251ZM47.7246 0.0486006L49.8926 0.107194V4.59841L47.6074 4.657L45.3037 4.71559V2.49001C45.3037 1.25979 45.3623 0.204835 45.4404 0.126726C45.5207 0.0682598 46.5544 0.0291014 47.7246 0.0486006ZM9.60742 0.24489C9.95891 -0.106594 13.747 -0.0675196 14.04 0.283952C14.1962 0.459679 14.2549 1.26005 14.2158 2.56813L14.1572 4.59938L11.9316 4.65798C10.2718 4.69703 9.64646 4.63841 9.5293 4.46266C9.27551 4.05235 9.33412 0.518837 9.60742 0.24489Z" fill="white"/>
</svg>
