<svg width="62" height="50" viewBox="0 0 62 50" fill="none" xmlns="http://www.w3.org/2000/svg">
<path d="M61.0234 42.8594V50.002H39.5947V42.8594H61.0234ZM35.7852 42.8838L19.9043 42.8125C4.90635 42.7411 3.95265 42.7165 3.16699 42.2881C1.21474 41.2405 0.309696 39.7646 0.119141 37.3125L0 35.7168H35.7852V42.8838ZM61.0234 39.2861H39.5947V25H47.5479L46.4287 26.1436L45.3096 27.2861L46.6191 28.5723L47.9287 29.8809L51.1426 26.667C52.9037 24.9059 54.3561 23.3589 54.3574 23.2148C54.3574 23.072 52.9044 21.5246 51.1426 19.7627L47.9287 16.5479L46.6191 17.8574L45.3096 19.1436L47.5479 21.4287H39.5947V14.2861H61.0234V39.2861ZM50.0713 10.7139H35.7852V21.4287H27.833L28.9521 20.2861L30.0713 19.1426L28.7617 17.8574L27.4521 16.5479L24.2383 19.7617C22.4781 21.5219 21.0262 23.0685 21.0234 23.2139C21.0234 23.3567 22.4764 24.9051 24.2383 26.667L27.4521 29.8809L28.7617 28.5713L30.0713 27.2861L28.9521 26.1426L27.833 25H35.7852V32.1426H3.64258V0H50.0713V10.7139Z" fill="white"/>
</svg>
