<svg width="34" height="50" viewBox="0 0 34 50" fill="none" xmlns="http://www.w3.org/2000/svg">
<path d="M14.292 0.261886C16.7554 -0.285525 19.1606 0.0273235 21.6045 1.18083C23.97 2.31481 25.7294 4.0945 26.8633 6.49919C27.7821 8.41501 27.9774 9.39254 28.0752 12.6574L28.1729 15.4924L29.1904 15.6291C30.5194 15.805 31.0668 16.0203 31.8486 16.6847C32.6892 17.3885 33.2372 18.5616 33.2373 19.7345V20.6535L31.2432 20.7121L29.2295 20.7707L29.1699 21.7883L29.1113 22.8244H33.2373V25.9523H26.9805V28.1027H33.2373V31.2306H29.1309V33.382H33.2373V34.3009C33.2176 35.9822 32.2007 37.5074 30.6562 38.1525C30.0501 38.4066 28.8962 38.465 23.7549 38.465H17.5957V43.7433H19.7471V45.8947H32.2598V47.8498H19.7471V50.0002H13.4902V47.8498H0.977539V45.8947H13.4902V43.7433H15.6406V38.465H9.48242C4.34154 38.465 3.18725 38.4065 2.58105 38.1525C1.03663 37.5074 0.0197047 35.9822 0 34.3009V33.382H4.10547V31.2306H0V28.1027H6.25684V25.9523H0V22.8244H4.125L4.06641 21.7883L4.00781 20.7707L2.01367 20.7121L0 20.6535V19.7345C0.000121419 18.5617 0.547174 17.3885 1.3877 16.6847C2.1697 16.02 2.71754 15.805 4.04688 15.6291L5.06348 15.4924L5.16113 12.6574C5.25889 9.39246 5.4552 8.41507 6.37402 6.49919C7.87947 3.2928 10.7923 1.00483 14.292 0.261886ZM21.0957 23.215C21.0553 23.2163 19.5702 24.6624 17.792 26.4406L14.5654 29.6672L13.3926 28.4943L12.2002 27.3205L10.6748 28.8849L12.5127 30.7424C13.5287 31.7584 14.4472 32.5987 14.5654 32.5998C14.8195 32.5998 22.4764 24.9436 22.4844 24.6623C22.4844 24.5645 22.1907 24.1928 21.8389 23.841C21.4869 23.4891 21.1544 23.215 21.0957 23.215ZM17.6934 7.39861C16.4423 7.08589 15.8166 7.16361 14.5654 7.82829C12.9429 8.6494 12.4932 9.78342 12.4932 13.009L12.4736 15.4924H20.7637L20.7441 13.0285C20.7441 10.1157 20.4894 9.27458 19.3164 8.27751C18.9058 7.90613 18.1625 7.51588 17.6934 7.39861Z" fill="white"/>
</svg>
