<svg width="51" height="50" viewBox="0 0 51 50" fill="none" xmlns="http://www.w3.org/2000/svg">
<path d="M21.8418 18.3037C23.4061 17.9322 26.6134 17.9322 28.1973 18.2842C30.485 18.8317 32.5966 20.0244 34.3564 21.8037C37.0939 24.5412 38.1697 26.9656 38.3066 30.7002C38.424 33.5551 38.1109 34.9832 36.7812 37.7012C35.4712 40.3017 35.5105 40.5954 37.4463 42.5898L38.8545 44.0361L37.7783 45.0146C30.4456 51.6625 19.652 51.6626 12.3584 45.0146L11.2832 44.0361L12.6123 42.6875C13.9811 41.2992 14.4114 40.419 14.1768 39.5195C14.1181 39.2458 13.7075 38.3856 13.2969 37.623C12.2801 35.7263 11.7715 33.6336 11.7715 31.3066C11.7715 28.9407 12.1433 27.3374 13.1797 25.2256C14.7831 21.9797 18.3026 19.1642 21.8418 18.3037ZM9.91406 32.9883C10.2465 35.0218 10.7355 36.6253 11.5176 38.1309C11.9673 39.0303 12.3584 39.9305 12.3584 40.1064C12.3579 40.3022 11.8499 40.8884 11.2441 41.4551L10.1094 42.4531L9.66016 41.9053C8.15448 40.0281 6.80512 36.293 6.43359 32.8906L6.35547 32.2646H9.79688L9.91406 32.9883ZM43.7627 32.2656L43.6064 33.5557C43.2936 36.2737 42.276 39.1098 40.8877 41.2803C40.106 42.4723 40.1056 42.4727 39.6758 42.1211C38.5221 41.1629 37.7793 40.3802 37.7793 40.1064C37.7795 39.9496 38.1705 39.0116 38.6592 38.0537C39.4413 36.4698 39.6947 35.6089 40.2422 32.6953C40.3204 32.2849 40.4192 32.2656 42.042 32.2656H43.7627ZM50.0977 38.9521L49.668 39.7148C49.0422 40.849 48.3772 41.0644 45.6201 41.0645C44.3129 41.0645 43.2586 41.0252 43.2539 40.9668C43.2539 40.9081 43.4499 40.4771 43.665 40.0273C45.8549 35.745 46.207 29.5855 44.5449 24.7168C43.1566 20.6105 40.0274 16.5046 36.5469 14.2168C34.8065 13.0631 31.9904 11.7915 30.1523 11.3418C28.0209 10.7943 24.0512 10.6188 21.9785 10.9512C14.3722 12.1636 8.05662 17.4821 5.59277 24.7168C3.9307 29.5857 4.2827 35.745 6.47266 40.0273C6.68775 40.4771 6.88281 40.9081 6.88281 40.9668C6.8779 41.0252 5.82368 41.0645 4.5166 41.0645C1.75987 41.0644 1.09541 40.8488 0.469727 39.7148L0.0390625 38.9521V7.23535H50.0977V38.9521ZM29.3311 21.7451C29.0182 21.4323 28.2953 21.4518 28.0215 21.7842C27.8846 21.9406 27.2781 23.3293 26.6523 24.874C25.5966 27.533 25.4987 27.6699 24.9512 27.7285C23.5434 27.8458 23.0936 28.0218 22.2529 28.7646C19.6328 31.0719 20.962 35.3147 24.4229 35.7256C26.867 35.9993 28.9792 34.0642 28.9795 31.5811C28.9795 30.8184 28.3533 29.4685 27.7275 28.8428L27.2393 28.3545L28.4121 25.4795C29.6244 22.4488 29.7026 22.1166 29.3311 21.7451ZM25.0684 29.5273C25.9092 29.5273 26.8281 30.4473 26.8281 31.2881C26.8278 32.1288 25.9091 33.0479 25.0684 33.0479C24.2277 33.0477 23.3089 32.1287 23.3086 31.2881C23.3086 30.8579 23.4849 30.4858 23.876 30.0947C24.2669 29.7038 24.6383 29.5274 25.0684 29.5273ZM38.9131 18.7725C39.0698 18.773 39.7932 19.6922 40.6924 21.0605C42.2372 23.3679 43.274 26.1646 43.6064 29.0195L43.7822 30.3291L42.0029 30.2705L40.2227 30.2119L40.0859 29.0391C39.7926 26.7317 38.698 24.1106 37.2119 22.1943L36.4688 21.2168L37.6416 19.9854C38.3064 19.3205 38.874 18.7725 38.9131 18.7725ZM11.1855 18.792C11.2289 18.7771 11.8134 19.3231 12.4756 19.9658L13.6885 21.1582L12.9062 22.1748C11.4983 24.0129 10.0117 27.6114 10.0117 29.1953C10.0117 30.251 9.89438 30.3096 8.07617 30.3096H6.375L6.53125 29.0195C6.94189 25.578 8.44769 21.9991 10.5791 19.418C10.8528 19.0856 11.1269 18.792 11.1855 18.792ZM27.3369 12.752C30.8371 13.1626 34.6504 14.8246 37.1729 17.0146L37.6416 17.4248L36.4102 18.6768L35.1777 19.9277L34.4736 19.3613C32.5183 17.7971 29.6638 16.5648 27.3174 16.2715L26.1436 16.1348L26.085 14.3555L26.0264 12.5752L27.3369 12.752ZM24.0518 14.2578C24.1104 16.0562 24.0321 16.2324 23.0352 16.2324C21.3731 16.2324 17.8333 17.6985 15.9561 19.126L14.9395 19.9082L13.707 18.6572L12.4951 17.4248L12.9648 17.0146C15.585 14.7856 19.4171 13.1236 22.7607 12.752L23.9932 12.6152L24.0518 14.2578ZM25.0684 0C46.3616 0 47.8879 0.0201785 48.5137 0.352539C49.6869 0.939128 49.9999 1.56436 50.0586 3.53906L50.1367 5.2793H34.0635V4.63477C34.0635 3.75483 33.496 2.71837 32.7139 2.20996C32.0492 1.76031 32.0096 1.75977 25.0684 1.75977C18.1268 1.75977 18.0877 1.76022 17.4229 2.20996C16.6407 2.71839 16.0732 3.75487 16.0732 4.63477V5.2793H0L0.078125 3.53906C0.136809 1.56444 0.449979 0.939107 1.62305 0.352539C2.24878 0.0201211 3.77396 1.06964e-07 25.0684 0ZM25.1465 3.75488L32.0107 3.81348L32.0693 4.53711L32.1279 5.2793H18.0293V4.63477C18.0293 4.26336 18.0878 3.91137 18.166 3.85254C18.2442 3.77432 21.3726 3.73533 25.1465 3.75488ZM3.16797 1.75977C2.3664 1.75977 1.79905 2.15089 1.79883 2.71777C1.79883 3.26529 2.20981 3.51953 3.16797 3.51953C4.45832 3.51946 4.96642 2.8162 4.22363 2.07324C4.04767 1.89728 3.59811 1.7598 3.16797 1.75977ZM8.7207 2.07324C8.38829 1.72134 7.15696 1.66189 6.64844 1.97461C6.2378 2.20926 6.17927 2.93318 6.53125 3.28516C6.66819 3.42198 7.1763 3.5195 7.7041 3.51953C8.42761 3.51953 8.68243 3.44175 8.83887 3.14844C9.11261 2.62051 9.09223 2.42521 8.7207 2.07324ZM12.0654 1.75977C11.1661 1.75977 10.794 2.0141 10.7939 2.63965C10.7939 3.28493 11.1853 3.51953 12.2021 3.51953C13.023 3.51952 13.1795 3.46115 13.375 3.03125C13.551 2.6207 13.5314 2.48363 13.2383 2.15137C12.9841 1.87769 12.6322 1.75983 12.0654 1.75977ZM45.6201 1.75977C43.7625 1.75977 43.4691 1.79939 43.1562 2.15137C42.8631 2.48367 42.8436 2.62068 43.0195 3.03125C43.2345 3.5198 43.2742 3.51953 45.5615 3.51953C47.9275 3.51953 48.3379 3.40215 48.3379 2.71777C48.3377 2.52235 48.2011 2.22965 48.0254 2.07324C47.7907 1.81904 47.2626 1.75977 45.6201 1.75977Z" fill="white"/>
</svg>
