<svg width="35" height="35" viewBox="0 0 35 35" fill="none" xmlns="http://www.w3.org/2000/svg">
<path fill-rule="evenodd" clip-rule="evenodd" d="M35 17.5C35 27.1649 27.1649 35 17.5 35C7.83501 35 0 27.1649 0 17.5C0 7.83501 7.83501 0 17.5 0C27.1649 0 35 7.83501 35 17.5ZM25.5019 12.9237C25.9508 13.1994 26.2421 13.6955 26.2421 14.2625L26.25 22.1375C26.25 23.0037 25.5413 23.7125 24.675 23.7125H12.075C11.2087 23.7125 10.5 23.0037 10.5 22.1375V14.2625C10.5 13.6955 10.7992 13.1994 11.2481 12.9237L18.375 8.75L25.5019 12.9237ZM24.6671 14.2704V14.2625L18.375 10.577L12.075 14.2625L18.375 18.2L24.6671 14.2704ZM12.075 22.1375V16.1052L18.375 20.0585L24.6671 16.1289L24.675 22.1375H12.075Z" fill="#EFB922"/>
</svg>
