<svg width="45" height="50" viewBox="0 0 45 50" fill="none" xmlns="http://www.w3.org/2000/svg">
<path d="M27.0635 41.2107V44.7722C27.0635 46.7094 26.9805 48.5431 26.8555 48.8347C26.4805 49.8135 25.7301 50.0007 22.0645 50.0007C18.3988 50.0007 17.6484 49.8134 17.2734 48.8347C17.1485 48.5431 17.0654 46.7094 17.0654 44.7722V41.2107L17.669 40.6062L18.2734 40.0027H25.8555L27.0635 41.2107ZM9.37891 40.6062L9.98243 41.2107V44.9812C9.98243 48.6461 9.96216 48.7512 9.48341 49.3132L8.98341 49.8972L5.4004 49.9597C-0.119562 50.0639 -0.0777747 50.1047 0.0263755 44.6472L0.0888755 41.0027L0.671883 40.5027C1.23429 40.0236 1.3388 40.0027 5.00489 40.0027H8.77442L9.37891 40.6062ZM39.1445 40.0027C42.7898 40.0027 42.8946 40.0236 43.457 40.5027L44.04 41.0027L44.1025 44.6472C44.2067 50.1047 44.2484 50.0639 38.7285 49.9597L35.1455 49.8972L34.6455 49.3132C34.1667 48.7303 34.1455 48.646 34.1455 44.8972V41.0857L34.792 40.5437C35.4164 40.0025 35.459 40.0027 39.1445 40.0027ZM22.8975 32.9197H31.2295C39.2491 32.9197 39.5612 32.9412 39.7695 33.3162C39.8737 33.5459 39.9785 34.7119 39.9785 35.9197V38.1277H38.3115V34.3777H22.8975V38.1277H21.2315V34.3777H5.81641V38.1277H4.1504V35.9197C4.1504 34.7124 4.25433 33.5465 4.35841 33.3162C4.56671 32.9412 4.87986 32.9197 12.8994 32.9197H21.2315V31.2957C21.2315 30.4007 21.2937 29.5888 21.377 29.5252C21.4394 29.4418 21.8143 29.3787 22.21 29.3787H22.8975V32.9197ZM41.0195 26.8582L40.4785 27.2742C39.9161 27.7116 39.8116 27.7117 22.752 27.7117H5.5879L5.0879 27.1912L4.56739 26.6912V6.67359H41.0195V26.8582ZM26.293 7.6941C24.6057 7.04837 21.585 6.94451 19.9395 7.48609C18.1899 8.04849 17.0648 8.79856 15.7734 10.1941C12.1285 14.1101 12.2328 19.797 16.0029 23.5671C19.9189 27.4829 26.1051 27.3578 29.8545 23.3171C33.7914 19.0678 33.2294 12.5266 28.626 9.02711C28.0011 8.54802 26.9387 7.94405 26.293 7.6941ZM20.96 8.98707C24.5636 8.13303 28.2304 9.88309 29.876 13.1951C30.8133 15.0906 31.0006 16.6739 30.5215 18.5486C29.4175 22.8604 25.4593 25.3808 21.21 24.4851C19.3564 24.1102 18.2523 23.4639 16.8984 21.9851C12.8995 17.6109 15.1696 10.362 20.96 8.98707ZM26.8135 13.3406C26.6666 13.3418 25.292 14.5915 23.793 16.0906L21.0225 18.8611L19.6065 17.4441C18.7733 16.6318 18.0234 16.0486 17.7734 16.0486C17.1903 16.0486 16.5869 16.7567 16.7324 17.2566C16.899 17.7563 20.6655 21.4613 21.0225 21.4646C21.1891 21.4646 22.7933 19.9855 24.6055 18.1941C27.2717 15.5487 27.8965 14.8197 27.8965 14.3406C27.8964 13.9866 27.7509 13.6954 27.501 13.5496C27.2719 13.4454 26.9593 13.3406 26.8135 13.3406ZM22.752 0.00855159C43.0812 0.00855003 41.0197 -0.303434 41.0195 2.84156V4.79957H4.56739V2.92554C4.56739 1.19685 4.60896 0.988187 5.0879 0.530036L5.5879 0.00855159H22.752ZM13.6494 2.61304C13.4412 2.07165 12.7955 1.88376 12.3164 2.21656C11.5249 2.75814 11.8579 3.75855 12.8369 3.75855C13.3366 3.75836 13.8364 3.07124 13.6494 2.61304ZM16.2734 1.90406C15.1072 2.02918 14.9406 3.7583 16.0859 3.75855C17.0025 3.75855 17.3772 2.86229 16.7315 2.21656C16.5649 2.02931 16.3567 1.88325 16.2734 1.90406ZM9.96192 2.27906C9.50394 1.82112 9.39923 1.82149 8.89942 2.11304C8.44157 2.36327 8.42047 3.19652 8.83692 3.55054C9.00349 3.69629 9.35788 3.7587 9.64942 3.67554C10.316 3.5089 10.4827 2.79981 9.96192 2.27906Z" fill="white"/>
</svg>
