<svg width="33" height="30" viewBox="0 0 33 30" fill="none" xmlns="http://www.w3.org/2000/svg">
<path d="M28.1116 9.76033C29.9746 9.76033 31.485 8.25005 31.485 6.387C31.485 4.52397 29.9746 3.01367 28.1116 3.01367C26.2485 3.01367 24.7383 4.52397 24.7383 6.387C24.7383 8.25005 26.2485 9.76033 28.1116 9.76033Z" fill="#974DFF"/>
<path d="M26.5507 24.8414C26.4416 25.1564 26.6418 25.5027 26.9752 25.5027H26.9998C29.8909 25.5027 32.2345 23.1591 32.2345 20.268V12.684C32.2345 11.8975 31.5969 11.2598 30.8103 11.2598H28.2654C27.5784 11.2598 27.1106 12.0296 27.0994 12.7166V21.3334C27.1258 22.5619 26.9307 23.744 26.5507 24.8414Z" fill="#974DFF"/>
<path d="M23.8763 21.3885C23.9073 22.7137 22.3362 23.0368 21.9572 21.7666C21.8156 21.292 21.7396 20.7891 21.7395 20.2685V13.9393C21.7395 13.3493 22.2177 12.8711 22.8077 12.8711C23.3976 12.8711 23.8758 13.3493 23.8758 13.9393V21.3698L23.8763 21.3885Z" fill="#974DFF"/>
<path d="M18.1036 8.13527C18.1036 8.98457 18.8552 9.66275 19.6285 9.31168C21.3157 8.54572 22.4891 6.84619 22.4891 4.8726C22.4891 2.18154 20.3075 0 17.6164 0C14.9253 0 12.7437 2.18154 12.7437 4.8726C12.7437 5.02799 12.873 5.14951 13.0284 5.14951H15.1177C16.7668 5.14951 18.1036 6.48631 18.1036 8.13527Z" fill="#974DFF"/>
<path d="M14.5996 8.69944C14.7157 8.79104 14.8801 8.70506 14.8801 8.55721C14.8801 8.4555 14.7965 8.37305 14.6948 8.37305C14.5255 8.37305 14.4434 8.57465 14.5756 8.68035C14.5836 8.68674 14.5916 8.6931 14.5996 8.69944Z" fill="#974DFF"/>
<path d="M9.28482 21.6422C9.12365 21.6422 8.992 21.5124 8.99574 21.3513V20.0059C8.99574 19.7954 9.16636 19.6248 9.37684 19.6248C9.58732 19.6248 9.75795 19.4542 9.75795 19.2437V13.7824C9.75795 13.0035 10.3893 12.3721 11.1682 12.3721H12.0223C12.3295 12.3721 12.5785 12.1231 12.5785 11.8159C12.5785 11.5088 12.8275 11.2598 13.1347 11.2598H13.7293C14.3649 11.2598 14.8802 11.775 14.8802 12.4106V18.6836C14.8802 20.3176 13.5556 21.6422 11.9216 21.6422H9.28482Z" fill="#974DFF"/>
<path d="M13.2222 28.8728C10.988 27.5812 12.5369 24.8656 15.1176 24.8656C16.7667 24.8656 18.1035 23.5288 18.1035 21.8799V17.2699C18.1035 13.9506 20.7943 11.2598 24.1136 11.2598C24.8908 11.279 25.5057 11.9241 25.4876 12.7012V21.3513C25.5963 26.0157 21.9059 29.8864 17.2417 30.0005C15.7766 29.9646 14.4076 29.5581 13.2222 28.8728Z" fill="#974DFF"/>
<path fill-rule="evenodd" clip-rule="evenodd" d="M15.118 6.75977H1.37408C0.615211 6.75977 0 7.37495 0 8.13382V21.8776C0 22.6364 0.615195 23.2516 1.37408 23.2516H15.118C15.8768 23.2516 16.492 22.6364 16.492 21.8776V8.13382C16.492 7.37495 15.8768 6.75977 15.118 6.75977ZM4.51979 11.564C4.51979 12.009 4.88058 12.3698 5.32564 12.3698H5.93005C6.70892 12.3698 7.34031 13.0012 7.34031 13.7801V18.8166C7.34031 19.2617 7.70111 19.6225 8.14617 19.6225C8.59124 19.6225 8.95203 19.2617 8.95203 18.8166V13.7801C8.95203 13.0012 9.58343 12.3698 10.3623 12.3698H10.9667C11.4118 12.3698 11.7726 12.009 11.7726 11.564C11.7726 11.1189 11.4118 10.7581 10.9667 10.7581H5.32564C4.88058 10.7581 4.51979 11.1189 4.51979 11.564Z" fill="#974DFF"/>
</svg>
