<svg width="35" height="35" viewBox="0 0 35 35" fill="none" xmlns="http://www.w3.org/2000/svg">
<path fill-rule="evenodd" clip-rule="evenodd" d="M27.6868 24.7119C27.265 25.9058 25.5885 26.8934 24.2515 27.1823C23.3363 27.3766 22.1427 27.5303 18.1212 25.8638C13.6045 23.9925 7.3325 17.3267 7.3325 12.8909C7.3325 10.6327 8.6345 8.00317 10.9113 8.00317C12.0068 8.00317 12.2483 8.02454 12.6088 8.88928C13.0305 9.9081 14.0595 12.4182 14.182 12.6755C14.6878 13.7311 13.6675 14.349 12.9272 15.2681C12.691 15.5446 12.4233 15.8438 12.7225 16.3584C13.02 16.8626 14.049 18.5396 15.561 19.8857C17.514 21.6258 19.0977 22.1813 19.6647 22.4176C20.0865 22.5927 20.5905 22.5519 20.8985 22.2228C21.2888 21.8009 21.7735 21.101 22.267 20.4113C22.6152 19.9176 23.058 19.856 23.5218 20.031C23.835 20.1395 27.8162 21.9885 27.9842 22.2843C28.1085 22.4996 28.1085 23.518 27.6868 24.7119ZM17.5035 0H17.4947C7.84699 0 0 7.84936 0 17.5C0 20.8182 0.927704 23.9286 2.54234 26.5741C3.00713 27.3357 3.1635 28.259 2.87986 29.1049C2.16251 31.2441 4.18062 33.2912 6.32987 32.6044L6.56261 32.53C7.39346 32.2645 8.29299 32.4028 9.05599 32.8255C11.5628 34.2141 14.4383 35 17.5035 35C27.1512 35 35 27.1506 35 17.5C35 7.84936 27.1512 0 17.5035 0Z" fill="#17B434"/>
</svg>
