<svg width="36" height="35" viewBox="0 0 36 35" fill="none" xmlns="http://www.w3.org/2000/svg">
<rect x="0.0739746" width="35.0561" height="35" rx="17.5" fill="#57F676"/>
<path fill-rule="evenodd" clip-rule="evenodd" d="M27.126 16.8694C26.9966 11.7824 22.8005 7.69922 17.6333 7.69922C12.53 7.69922 8.36888 11.6896 8.14654 16.6964C8.14208 16.8338 8.13762 16.9718 8.13762 17.1092C8.13762 18.8887 8.63507 20.5495 9.49764 21.9697L7.78589 27.0165L13.0446 25.3476C14.4054 26.093 15.9706 26.5199 17.6326 26.5199C22.8793 26.5199 27.129 22.3075 27.129 17.1099C27.1305 17.029 27.1305 16.9496 27.126 16.8694ZM17.634 25.0187C16.0115 25.0187 14.5043 24.5391 13.2424 23.7091L10.1743 24.6854L11.1707 21.747C10.2145 20.4418 9.65009 18.8397 9.65009 17.1084C9.65009 16.8508 9.66346 16.5932 9.69023 16.3408C10.0814 12.337 13.496 9.19888 17.6348 9.19888C21.8279 9.19888 25.273 12.4165 25.5927 16.4915C25.6106 16.6957 25.6195 16.8998 25.6195 17.1084C25.6187 21.4723 22.0354 25.0187 17.634 25.0187Z" fill="white"/>
<path fill-rule="evenodd" clip-rule="evenodd" d="M21.9851 19.0098C21.7501 18.8947 20.6065 18.335 20.3931 18.26C20.1797 18.1805 20.0242 18.1449 19.8688 18.3758C19.7134 18.6067 19.2643 19.1256 19.1312 19.2763C18.9929 19.4315 18.8598 19.4493 18.6241 19.3342C18.3921 19.2192 17.6418 18.9794 16.7517 18.1895C16.0631 17.5814 15.5917 16.8271 15.4586 16.5963C15.3247 16.3654 15.4445 16.2414 15.5612 16.1263C15.6675 16.0194 15.7925 15.8553 15.9122 15.7224C15.9434 15.6824 15.9702 15.6467 15.9962 15.6111C16.0497 15.5272 16.0899 15.447 16.1427 15.3357C16.223 15.1805 16.1836 15.0469 16.1256 14.9318C16.0683 14.816 15.6014 13.6801 15.405 13.2183C15.2139 12.7565 15.0184 12.8367 14.8808 12.8367C14.747 12.8367 14.5915 12.8145 14.4361 12.8145C14.28 12.8145 14.0264 12.8724 13.813 13.1032C13.6004 13.3341 12.9995 13.8932 12.9995 15.0298C12.9995 15.2963 13.0486 15.5621 13.12 15.816C13.355 16.6282 13.8621 17.2986 13.9506 17.4136C14.0658 17.5644 15.5604 19.9697 17.9258 20.8977C20.2956 21.8161 20.2957 21.5102 20.7217 21.4701C21.1486 21.4345 22.1004 20.9148 22.2907 20.3736C22.487 19.8361 22.487 19.3743 22.429 19.2771C22.3725 19.1828 22.2164 19.1249 21.9851 19.0098Z" fill="white"/>
</svg>
