<svg width="36" height="35" viewBox="0 0 36 35" fill="none" xmlns="http://www.w3.org/2000/svg">
<rect x="0.842041" width="35.0561" height="35" rx="17.5" fill="#C3271A"/>
<path d="M29.5535 12.3086C29.2902 11.318 28.5153 10.5383 27.5319 10.2738C25.7484 9.79297 18.5966 9.79297 18.5966 9.79297C18.5966 9.79297 11.4443 9.79297 9.66078 10.2738C8.67681 10.5383 7.90192 11.3186 7.6392 12.3086C7.16138 14.1036 7.16138 17.8491 7.16138 17.8491C7.16138 17.8491 7.16138 21.5946 7.6392 23.3902C7.90252 24.3808 8.67741 25.1605 9.66078 25.425C11.4443 25.9059 18.5966 25.9059 18.5966 25.9059C18.5966 25.9059 25.7484 25.9059 27.5319 25.425C28.5159 25.1605 29.2908 24.3802 29.5535 23.3902C30.0319 21.5952 30.0319 17.8491 30.0319 17.8491C30.0319 17.8491 30.0319 14.1042 29.5535 12.3086Z" fill="white"/>
<path d="M16.2571 21.2528V14.4512L22.235 17.852L16.2571 21.2528Z" fill="#C3271A"/>
</svg>
