<svg width="36" height="35" viewBox="0 0 36 35" fill="none" xmlns="http://www.w3.org/2000/svg">
<rect x="0.610596" width="35.0561" height="35" rx="17.5" fill="#00AEF7"/>
<path d="M8.31625 17.508C8.31625 22.9427 12.7094 27.3491 18.13 27.3491C18.7593 27.3491 19.3737 27.288 19.9696 27.174C20.8322 27.6971 21.8441 27.9988 22.9266 27.9988C26.0894 27.9981 28.6541 25.426 28.6541 22.2535C28.6541 21.141 28.3376 20.1039 27.7922 19.2239C27.8896 18.6666 27.9438 18.0929 27.9438 17.5072C27.9438 12.0711 23.5492 7.66537 18.13 7.66537C17.5126 7.66537 16.9086 7.72497 16.3224 7.8345C15.4554 7.30474 14.4375 7 13.3491 7C10.1855 7 7.62158 9.5713 7.62158 12.7439C7.62158 13.8496 7.93437 14.8823 8.47301 15.7585C8.37197 16.327 8.31625 16.9104 8.31625 17.508ZM18.2348 10.5153C21.4005 10.7016 23.2535 12.0979 23.434 13.4018C23.5217 14.2542 22.957 14.9166 21.9771 14.9166C20.5446 14.9166 20.399 13.0024 17.9339 13.0024C16.8224 13.0024 15.8833 13.4659 15.8833 14.4717C15.8833 16.5736 23.7825 15.3532 23.7825 19.9802C23.7825 22.6476 21.6539 24.3948 18.4755 24.3948C15.6805 24.3948 12.8713 23.1245 12.8862 20.9369C12.8907 20.276 13.3818 19.671 14.0348 19.671C15.6812 19.671 15.6656 22.1238 18.2868 22.1238C20.1249 22.1238 20.7527 21.1179 20.7527 20.4168C20.7527 17.885 12.8067 19.4378 12.8067 14.6752C12.8067 12.0979 14.9182 10.3201 18.2348 10.5153Z" fill="white"/>
</svg>
