<svg width="47" height="55" viewBox="0 0 47 55" fill="none" xmlns="http://www.w3.org/2000/svg">
<path d="M33.9409 6.91081H32.6576V3.33008H33.9427L33.9409 6.91081ZM14.3353 3.33008H13.052V6.91081H14.3353V3.33008ZM46.4813 27.1867L46.8538 28.4185L45.4298 28.8535C44.0984 29.2474 42.6885 28.5581 42.1592 27.2977L37.8584 29.7935C37.5234 30.0602 36.9459 29.8794 36.8336 29.4569C36.8247 29.4246 36.8193 29.3942 36.8158 29.362L35.4808 24.3597C35.0727 24.4922 34.6396 24.5638 34.1886 24.5638H33.0497V38.2422C33.0497 38.5985 32.7628 38.8867 32.4081 38.8867H29.4851V50.1785C31.5009 50.4901 33.0497 52.2446 33.0497 54.3555C33.0497 54.7118 32.7628 55 32.4081 55H25.2788C24.9241 55 24.6371 54.7118 24.6371 54.3555C24.6371 52.2446 26.186 50.4901 28.2018 50.1785V38.8867H18.7911V50.1785C20.8069 50.4901 22.3557 52.2446 22.3557 54.3555C22.3557 54.7118 22.0688 55 21.7141 55H14.5848C14.2301 55 13.9432 54.7118 13.9432 54.3555C13.9432 52.2446 15.492 50.4901 17.5078 50.1785V38.8867H14.5848C14.2301 38.8867 13.9432 38.5985 13.9432 38.2422V24.562H12.8007C12.3694 24.562 11.9523 24.4958 11.5602 24.3758L10.2395 29.3262C10.2377 29.3691 10.2306 29.4139 10.2181 29.4569C10.1076 29.8669 9.56932 30.0549 9.22355 29.8167L4.88358 27.2995C4.35779 28.5617 2.95154 29.251 1.62014 28.8589L0.144369 28.422L0.506182 27.1867L1.98195 27.6217C2.73231 27.8438 3.53436 27.4069 3.75537 26.6478C3.86231 26.2826 3.81953 25.8958 3.63595 25.5575C3.45237 25.2191 3.15116 24.9738 2.78756 24.8682L1.93561 24.6175L0.648768 25.373L0 24.2594L1.52211 23.3643C1.67361 23.2729 1.8554 23.2515 2.02651 23.3016L3.14581 23.631C3.83914 23.8351 4.41304 24.3006 4.7606 24.9398C4.92992 25.2495 5.03508 25.5843 5.07607 25.9245L9.18256 28.3057L10.3838 23.7975C9.30375 23.0312 8.59439 21.7655 8.59439 20.3385C8.59439 18.0093 10.4819 16.1133 12.8007 16.1133H13.9449V14.9674C13.9449 14.6112 14.2319 14.3229 14.5866 14.3229H22.8566V10.2409H16.3671C16.0124 10.2409 15.7255 9.95264 15.7255 9.59635V0.644531C15.7255 0.288249 16.0124 0 16.3671 0H30.6257C30.9804 0 31.2674 0.288249 31.2674 0.644531V9.59635C31.2674 9.95264 30.9804 10.2409 30.6257 10.2409H24.1381V14.3229H32.4081C32.7628 14.3229 33.0497 14.6112 33.0497 14.9674V16.1133H34.1886C36.5092 16.1133 38.3949 18.0093 38.3949 20.3385C38.3949 21.7458 37.7052 22.9954 36.65 23.7635L37.862 28.3057L41.9667 25.9245C42.0077 25.5843 42.1129 25.2513 42.284 24.9398C42.6315 24.3006 43.2054 23.8351 43.897 23.631L45.0127 23.3034C45.1909 23.2497 45.3763 23.2747 45.5296 23.3696L47 24.2648L46.3352 25.3659L45.1072 24.6175L44.2588 24.8664C43.8934 24.9738 43.5922 25.2191 43.4068 25.5575C43.2232 25.894 43.1805 26.2826 43.2892 26.6478C43.512 27.4051 44.3122 27.8455 45.0626 27.62L46.4813 27.1867ZM13.9432 17.4006H12.8007C11.1895 17.4006 9.87766 18.7183 9.87766 20.3367C9.87766 21.9552 11.1895 23.2729 12.8007 23.2729H13.9449L13.9432 17.4006ZM18.1495 51.4193C16.7575 51.4193 15.59 52.4004 15.2977 53.7091H21.0012C20.7089 52.4004 19.5414 51.4193 18.1495 51.4193ZM29.9841 8.95182V1.28906H17.0088V8.95182H29.9841ZM28.8434 51.4193C27.4532 51.4193 26.284 52.4004 25.9899 53.7091H31.6951C31.4028 52.4004 30.2336 51.4193 28.8434 51.4193ZM31.7664 15.612H15.2264V37.5977H31.7664V15.612ZM37.1116 20.3385C37.1116 18.7201 35.8016 17.4023 34.1886 17.4023H33.0497V23.2747H34.1886C35.7999 23.2747 37.1116 21.957 37.1116 20.3385ZM27.7027 5.12044C27.7027 6.46322 26.6155 7.55534 25.2788 7.55534H21.7141C20.3774 7.55534 19.2901 6.46322 19.2901 5.12044C19.2901 3.77767 20.3774 2.68555 21.7141 2.68555H25.2788C26.6155 2.68555 27.7027 3.77767 27.7027 5.12044ZM26.4195 5.12044C26.4195 4.48844 25.9079 3.97461 25.2788 3.97461H21.7141C21.0849 3.97461 20.5734 4.48844 20.5734 5.12044C20.5734 5.75244 21.0849 6.26628 21.7141 6.26628H25.2788C25.9079 6.26628 26.4195 5.75244 26.4195 5.12044Z" fill="url(#paint0_linear_2_15254)"/>
<defs>
<linearGradient id="paint0_linear_2_15254" x1="0.801929" y1="3.17104e-07" x2="26.7562" y2="0.375846" gradientUnits="userSpaceOnUse">
<stop offset="0.0336538" stop-color="#3800A0"/>
<stop offset="0.456731" stop-color="#720C7D"/>
<stop offset="1" stop-color="#E61F4A"/>
</linearGradient>
</defs>
</svg>
