<svg width="55" height="55" viewBox="0 0 55 55" fill="none" xmlns="http://www.w3.org/2000/svg">
<path d="M53.7813 1.26602L53.748 1.23668L53.7265 1.21125C52.9498 0.435636 51.8971 0 50.7995 0C49.7019 0 48.6492 0.435636 47.8725 1.21125L33.8155 15.2683L25.6986 13.5723L29.849 9.41933C29.9681 9.28757 30.032 9.11506 30.0276 8.93748C30.0231 8.7599 29.9506 8.59082 29.825 8.46522C29.6994 8.33961 29.5304 8.26707 29.3528 8.26261C29.1753 8.25815 29.0028 8.3221 28.871 8.44125L24.0791 13.2339L16.0208 11.5496L20.0402 7.52576C20.1593 7.394 20.2233 7.22149 20.2188 7.04391C20.2143 6.86633 20.1418 6.69725 20.0162 6.57165C19.8906 6.44604 19.7216 6.3735 19.544 6.36904C19.3665 6.36458 19.194 6.42853 19.0622 6.54767L14.3994 11.2073L7.98408 9.87316C7.05222 9.67598 6.08577 9.71593 5.17336 9.98936C4.26095 10.2628 3.43177 10.7609 2.76185 11.4381L0.203545 13.9811C0.123668 14.0608 0.0644544 14.1587 0.0310541 14.2665C-0.00234612 14.3742 -0.00892169 14.4885 0.0118993 14.5993C0.0327203 14.7102 0.0803073 14.8143 0.150522 14.9026C0.220737 14.9909 0.311453 15.0607 0.414781 15.1059L23.7446 25.3269L15.0331 34.0455L5.75827 35.1077C5.32225 35.1606 4.90648 35.3221 4.54905 35.5774C4.19161 35.8327 3.90395 36.1737 3.71241 36.569L2.19269 40.2466C2.15174 40.3471 2.13467 40.4558 2.14282 40.5641C2.15096 40.6724 2.1841 40.7773 2.23963 40.8706C2.2959 40.9634 2.37318 41.0416 2.46526 41.0991C2.55733 41.1565 2.6616 41.1915 2.76967 41.2012L10.2118 41.9054C10.3705 42.5781 10.7085 43.1953 11.1898 43.6914C11.2059 43.7098 11.2236 43.7268 11.2426 43.7422L11.2739 43.7774C11.7748 44.2702 12.4001 44.6178 13.0831 44.7829L13.7872 52.2261C13.7969 52.3342 13.8319 52.4385 13.8893 52.5306C13.9467 52.6227 14.025 52.7 14.1177 52.7562C14.211 52.8118 14.3159 52.8449 14.4242 52.8531C14.5325 52.8612 14.6411 52.8441 14.7417 52.8032L18.4716 51.2598C18.8547 51.0648 19.1838 50.7781 19.4295 50.4252C19.6752 50.0723 19.8299 49.6642 19.8798 49.2371L20.9458 39.961L29.669 31.2521L39.8964 54.5853C39.9419 54.6884 40.0118 54.779 40.1 54.8492C40.1883 54.9194 40.2922 54.9671 40.403 54.9882C40.4456 54.996 40.4888 54.9999 40.5321 55C40.7144 55.0017 40.8902 54.9314 41.021 54.8043L43.5793 52.2457C44.2551 51.5747 44.7522 50.7454 45.0255 49.8331C45.2988 48.9209 45.3396 47.9547 45.144 47.0227L43.8023 40.6065L48.4456 35.9371C48.5647 35.8054 48.6287 35.6329 48.6242 35.4553C48.6197 35.2777 48.5472 35.1086 48.4216 34.983C48.296 34.8574 48.127 34.7849 47.9494 34.7804C47.7719 34.7759 47.5994 34.8399 47.4676 34.959L43.4483 38.9809L41.7643 30.9215L46.5562 26.1289C46.6753 25.9971 46.7393 25.8246 46.7348 25.6471C46.7303 25.4695 46.6578 25.3004 46.5322 25.1748C46.4066 25.0492 46.2376 24.9766 46.06 24.9722C45.8825 24.9677 45.71 25.0317 45.5783 25.1508L41.422 29.2979L39.7262 21.1876L53.7813 7.13452C54.1675 6.74976 54.4741 6.29249 54.6832 5.78895C54.8923 5.28542 55 4.74553 55 4.20027C55 3.65502 54.8923 3.11513 54.6832 2.6116C54.4741 2.10806 54.1675 1.65079 53.7813 1.26602ZM52.8033 6.14079L38.4842 20.4638C38.4015 20.5445 38.3403 20.6445 38.3061 20.7549C38.272 20.8653 38.266 20.9824 38.2886 21.0957L43.7651 47.2907C43.9149 47.9962 43.8861 48.7279 43.6811 49.4194C43.4761 50.1109 43.1016 50.7401 42.5916 51.25L40.7511 53.0927L30.5238 29.7674C30.479 29.6637 30.4093 29.5727 30.3209 29.5024C30.2326 29.4321 30.1282 29.3847 30.0172 29.3644C29.9748 29.3551 29.9315 29.3505 29.8881 29.3507C29.7059 29.3498 29.5305 29.42 29.3991 29.5463L19.7996 39.1472C19.6906 39.2586 19.6218 39.4031 19.604 39.558L18.5107 49.0747C18.4891 49.2662 18.4224 49.4497 18.316 49.6103C18.2095 49.7708 18.0664 49.9037 17.8985 49.9981L15.0859 51.16L14.4131 44.1432C14.399 43.9891 14.3334 43.8441 14.227 43.7316C14.1206 43.6192 13.9795 43.5457 13.8263 43.5231C13.2582 43.46 12.724 43.2206 12.2988 42.8385C12.2766 42.8111 12.2551 42.7857 12.2342 42.7622C12.2099 42.7387 12.1837 42.7171 12.156 42.6976C11.7759 42.2726 11.5392 41.7388 11.4793 41.1718C11.4567 41.0186 11.3832 40.8775 11.2708 40.7711C11.1584 40.6646 11.0134 40.5991 10.8592 40.585L3.83563 39.9199L4.97396 37.1597C5.06486 36.9795 5.19881 36.8245 5.36394 36.7085C5.52908 36.5925 5.72029 36.519 5.92061 36.4946L15.436 35.4011C15.5908 35.3833 15.7353 35.3145 15.8468 35.2055L25.4463 25.6047C25.5256 25.5247 25.5844 25.4266 25.6173 25.3188C25.6503 25.211 25.6566 25.0969 25.6356 24.9861C25.6146 24.8754 25.567 24.7715 25.4969 24.6833C25.4268 24.5951 25.3362 24.5252 25.2331 24.4799L1.89539 14.2432L3.73784 12.4025C4.24802 11.893 4.87723 11.5188 5.56848 11.3139C6.25972 11.1089 6.99117 11.0797 7.69656 11.2288L33.8879 16.706C34.0011 16.7298 34.1186 16.7244 34.2291 16.6901C34.3397 16.6559 34.4397 16.5941 34.5196 16.5104L48.8368 2.19129C49.3468 1.68319 50.0351 1.39452 50.755 1.38684C51.4748 1.37917 52.1691 1.6531 52.6899 2.15021C52.73 2.20597 52.7789 2.25485 52.8346 2.29497C53.3355 2.81489 53.6126 3.51052 53.6064 4.2325C53.6001 4.95447 53.3111 5.64522 52.8014 6.15644L52.8033 6.14079Z" fill="url(#paint0_linear_2_15904)"/>
<defs>
<linearGradient id="paint0_linear_2_15904" x1="0.938427" y1="3.17104e-07" x2="31.3081" y2="0.514643" gradientUnits="userSpaceOnUse">
<stop offset="0.0336538" stop-color="#3800A0"/>
<stop offset="0.456731" stop-color="#720C7D"/>
<stop offset="1" stop-color="#E61F4A"/>
</linearGradient>
</defs>
</svg>
