<svg width="54" height="55" viewBox="0 0 54 55" fill="none" xmlns="http://www.w3.org/2000/svg">
<path d="M54 55H0V53.7109H26.352V41.8247C26.3502 41.54 26.244 35.8682 20.2806 34.0635C19.8954 35.4779 18.7722 37.0964 16.2 37.0964C16.0416 37.0964 12.2886 37.0534 8.5428 33.3276C8.289 33.0752 8.289 32.667 8.5428 32.4146C12.2886 28.6888 16.0416 28.6458 16.2 28.6458C19.4814 28.6458 20.4048 31.2812 20.4462 32.7655C23.5818 33.6553 25.3512 35.5065 26.352 37.304V25.7096H27.648V37.3058C28.6488 35.5083 30.42 33.6571 33.5538 32.7673C33.5952 31.283 34.5186 28.6476 37.8 28.6476C37.9584 28.6476 41.7114 28.6906 45.459 32.4163C45.7128 32.6688 45.7128 33.077 45.459 33.3294C41.7114 37.0534 37.9584 37.0964 37.8 37.0964C35.2278 37.0964 34.1046 35.4779 33.7194 34.0635C27.7542 35.8682 27.648 41.54 27.6462 41.8247V53.7109H54V55ZM34.9812 33.7573C35.2206 34.6274 35.8992 35.8073 37.8 35.8073C37.8306 35.8073 40.8816 35.75 44.0622 32.8711C40.887 29.9993 37.8414 29.9349 37.8 29.9349C35.5122 29.9349 34.9974 31.6393 34.8822 32.4647C35.7624 32.3107 36.7308 32.2248 37.8018 32.2248V33.5156C36.756 33.5156 35.82 33.6016 34.9812 33.7573ZM9.9378 32.8711C13.1184 35.7482 16.1694 35.8073 16.2018 35.8073C18.1026 35.8073 18.7794 34.631 19.0188 33.7573C18.18 33.6016 17.244 33.5156 16.2 33.5156V32.2266C17.2692 32.2266 18.2394 32.3125 19.1196 32.4665C19.0062 31.6429 18.4914 29.9349 16.2 29.9349C16.1694 29.9349 13.1184 29.994 9.9378 32.8711ZM27 26.3524C24.9876 26.3524 23.2974 24.9541 22.8618 23.0814C21.2634 24.0249 19.044 23.7725 17.6958 22.4279C16.8948 21.6312 16.452 20.5695 16.452 19.4416C16.452 18.6735 16.6572 17.9359 17.0406 17.2913C15.1596 16.8599 13.752 15.1787 13.752 13.1771C13.752 11.1755 15.1578 9.49251 17.0406 9.05924C16.6572 8.41471 16.452 7.67887 16.452 6.91081C16.452 5.78288 16.8948 4.72119 17.6958 3.92448C19.0926 2.53516 21.2292 2.31673 22.86 3.27458C23.2956 1.40007 24.9858 0 27 0C29.0124 0 30.7044 1.40006 31.14 3.27279C32.7636 2.31494 34.9038 2.53158 36.3042 3.92269C37.1052 4.72119 37.548 5.78288 37.548 6.91081C37.548 7.67887 37.3428 8.4165 36.9594 9.06104C38.8404 9.49251 40.248 11.1737 40.248 13.1771C40.248 15.1805 38.8404 16.8599 36.9576 17.2931C37.3428 17.9377 37.548 18.6735 37.548 19.4434C37.548 20.5713 37.1052 21.633 36.3042 22.4297C34.956 23.7725 32.7402 24.0267 31.1382 23.0832C30.7026 24.9541 29.0124 26.3524 27 26.3524ZM24.0498 22.043C24.0498 22.0716 24.048 22.1003 24.048 22.1289C24.048 23.7474 25.3728 25.0651 27 25.0651C28.6272 25.0651 29.952 23.7474 29.952 22.1289C29.952 22.1003 29.952 22.0734 29.952 22.0448C29.6244 21.6312 29.3832 21.1639 29.232 20.6626C27.8172 21.0798 26.1864 21.0798 24.7698 20.6626C24.6186 21.1639 24.3756 21.6294 24.0498 22.043ZM30.4434 20.1899C30.5748 20.693 30.8376 21.146 31.212 21.5166C32.3298 22.6302 34.272 22.6284 35.3862 21.5184C35.946 20.9634 36.2502 20.2257 36.2502 19.4416C36.2502 18.6574 35.9442 17.9198 35.3862 17.3647C35.01 16.9906 34.5546 16.731 34.0506 16.602C33.282 18.1597 32.0094 19.4255 30.4434 20.1899ZM19.9494 16.6038C19.449 16.7345 18.9846 16.9977 18.612 17.3665C18.054 17.9215 17.748 18.6574 17.748 19.4416C17.748 20.2257 18.0558 20.9634 18.612 21.5166C19.728 22.6266 21.6684 22.6266 22.7844 21.5166C23.1606 21.1442 23.4216 20.6912 23.5548 20.1882C21.9906 19.4272 20.718 18.1597 19.9494 16.6038ZM27 6.65837C23.3874 6.65837 20.448 9.58203 20.448 13.1753C20.448 16.7686 23.3874 19.6922 27 19.6922C30.6126 19.6922 33.552 16.7686 33.552 13.1753C33.552 9.58203 30.6126 6.65837 27 6.65837ZM35.91 16.1097L36 16.1133C37.6272 16.1133 38.952 14.7956 38.952 13.1771C38.952 11.5586 37.629 10.2409 36 10.2409L35.9118 10.2445C35.4978 10.5685 35.028 10.8102 34.524 10.9588C34.7364 11.6606 34.848 12.4054 34.848 13.1771C34.848 13.9487 34.7346 14.6935 34.524 15.3989C35.0244 15.5475 35.496 15.7892 35.91 16.1097ZM18 10.2391C16.3728 10.2391 15.048 11.5568 15.048 13.1753C15.048 14.7938 16.3728 16.1133 18 16.1133L18.09 16.1115C18.504 15.791 18.9756 15.5493 19.476 15.3989C19.2654 14.6935 19.152 13.9487 19.152 13.1771C19.152 12.4072 19.2636 11.6624 19.4742 10.9588C18.9702 10.8084 18.5022 10.5685 18.0882 10.2445L18 10.2391ZM20.7 3.9764C19.944 3.9764 19.188 4.26286 18.612 4.83398C18.054 5.389 17.748 6.12663 17.748 6.91081C17.748 7.69499 18.0558 8.43262 18.612 8.98584C18.9864 9.36003 19.4436 9.61963 19.9476 9.75212C20.7144 8.1945 21.9888 6.92692 23.5548 6.16423C23.4234 5.66471 23.1624 5.20996 22.7862 4.83577C22.2102 4.26286 21.4542 3.9764 20.7 3.9764ZM30.4434 6.16243C32.0094 6.92692 33.2838 8.1945 34.0524 9.75033C34.5546 9.62142 35.01 9.36003 35.3862 8.98584C35.946 8.43083 36.2502 7.6932 36.2502 6.90902C36.2502 6.12484 35.9442 5.38721 35.3862 4.83219C34.236 3.68815 32.3622 3.68815 31.2138 4.83219C30.8358 5.20817 30.5748 5.66113 30.4434 6.16243ZM24.048 4.3112C24.3756 4.72477 24.6186 5.19027 24.768 5.69157C26.1828 5.27441 27.8136 5.27441 29.2302 5.69157C29.3796 5.19027 29.6226 4.72477 29.9484 4.3112L29.952 4.22526C29.952 2.60677 28.629 1.28906 27 1.28906C25.371 1.28906 24.048 2.60498 24.048 4.22526C24.048 4.25391 24.048 4.28255 24.048 4.3112Z" fill="url(#paint0_linear_2_15902)"/>
<defs>
<linearGradient id="paint0_linear_2_15902" x1="0.921365" y1="3.17104e-07" x2="30.7392" y2="0.496104" gradientUnits="userSpaceOnUse">
<stop offset="0.0336538" stop-color="#3800A0"/>
<stop offset="0.456731" stop-color="#720C7D"/>
<stop offset="1" stop-color="#E61F4A"/>
</linearGradient>
</defs>
</svg>
