<svg width="54" height="55" viewBox="0 0 54 55" fill="none" xmlns="http://www.w3.org/2000/svg">
<path d="M4.61751 14.5331H14.7418C13.736 18.2756 13.1606 22.5226 13.1606 27.0331H14.5143C14.5143 22.4962 15.0953 18.2361 16.103 14.5331H26.3213V27.0331H27.675V14.5331H37.8933C38.901 18.2361 39.4819 22.4962 39.4819 27.0331H40.8375C40.8375 22.5226 40.2622 18.2756 39.2582 14.5331H49.3806C51.4525 18.2361 52.6445 22.4962 52.6445 27.0331H54C54 12.1273 41.8885 0 27.0019 0C12.1153 0 0 12.1273 0 27.0331H1.35367C1.35367 22.4962 2.54564 18.2361 4.61751 14.5331ZM16.5034 13.1777C18.611 6.44578 22.202 1.88253 26.3213 1.42508V13.1777H16.5034ZM27.675 13.1777V1.42508C31.7942 1.88253 35.3833 6.44578 37.4928 13.1777H27.675ZM48.5553 13.1777H38.8577C37.2841 8.05911 34.8757 4.04179 31.9935 1.85241C38.9292 3.23042 44.8515 7.42093 48.5553 13.1777ZM22.0027 1.85241C19.1224 4.04179 16.7121 8.05911 15.1404 13.1777H5.44099C9.14477 7.42093 15.0671 3.23042 22.0027 1.85241ZM39.4819 32.6807V33.6973L32.6384 32.003H27.47C26.3946 32.003 25.3568 32.3946 24.5502 33.1043L23.6591 33.8855H14.5143V32.6807C14.5143 32.3061 14.2116 32.003 13.8375 32.003H0.676833V33.3603H13.1606V48.9458H0.676833V50.3031H13.8375C14.2116 50.3031 14.5143 50 14.5143 49.6254V48.4206H16.3079L20.3464 54.1472C20.8502 54.7101 21.5496 55 22.2546 55C22.766 55 23.2793 54.8475 23.7249 54.5331L24.9338 53.6822C25.0052 53.7086 25.0616 53.7613 25.1368 53.782C25.3568 53.8385 25.5787 53.8686 25.7986 53.8686C26.2423 53.8686 26.6804 53.7519 27.0733 53.5222L28.6376 52.6186C28.9233 52.724 29.2185 52.7974 29.525 52.7974C29.9574 52.7974 30.3973 52.6864 30.7997 52.4548L32.3658 51.5493C32.6516 51.6547 32.9467 51.7282 33.2532 51.7282C33.6856 51.7282 34.1274 51.6171 34.5298 51.3855C35.5864 50.7737 35.9925 49.5218 35.6447 48.4187H39.4838V49.6235C39.4838 49.9981 39.7865 50.3012 40.1606 50.3012H53.3213V48.9458H40.8375V33.3584H53.3194V32.003H40.1588C39.7846 32.003 39.4819 32.3061 39.4819 32.6807ZM33.8511 50.2127C33.2776 50.544 32.5369 50.3464 32.206 49.7722L29.3858 44.8814L28.2127 45.5572L31.1644 50.6777L30.1228 51.2782C29.5475 51.6152 28.8105 51.4138 28.4778 50.8396L26.5977 47.5791L26.1276 46.7639L24.9563 47.4398L25.4264 48.253L27.3065 51.5135L27.3102 51.5173L27.4399 51.7413L26.3965 52.3437C26.122 52.5056 25.7986 52.5471 25.4884 52.4642C25.1782 52.3814 24.9206 52.1837 24.7589 51.9089L22.8751 48.6427L21.7019 49.3185L23.582 52.5791L23.5858 52.5847L23.7437 52.8577L22.9465 53.4206C22.4483 53.7726 21.7658 53.6935 21.4048 53.3001L17.2122 47.3475C17.0844 47.1668 16.8795 47.0595 16.6595 47.0595H14.5143V35.241H22.1099L18.564 38.3471C18.3008 38.5749 18.1429 38.9062 18.1316 39.2526C18.1184 39.6009 18.2519 39.9416 18.5001 40.1883C20.1019 41.7922 22.6438 41.9315 24.4111 40.5158L26.2968 39.0041H29.4046L34.291 48.5636C34.62 49.1416 34.4226 49.8814 33.8511 50.2127ZM35.0393 47.0632L30.4199 38.0196C30.3033 37.7937 30.0702 37.6506 29.8183 37.6506H26.0581C25.9039 37.6506 25.7554 37.7033 25.6351 37.7993L23.5632 39.4597C22.3355 40.4424 20.572 40.3483 19.4533 39.3694L25.4414 34.1227C26.0017 33.6295 26.7217 33.3603 27.47 33.3603L32.4748 33.3396L39.4819 35.0941V47.0632H35.0393Z" fill="url(#paint0_linear_2_15246)"/>
<defs>
<linearGradient id="paint0_linear_2_15246" x1="0.921365" y1="3.17104e-07" x2="30.7392" y2="0.496104" gradientUnits="userSpaceOnUse">
<stop offset="0.0336538" stop-color="#3800A0"/>
<stop offset="0.456731" stop-color="#720C7D"/>
<stop offset="1" stop-color="#E61F4A"/>
</linearGradient>
</defs>
</svg>
