<svg width="54" height="55" viewBox="0 0 54 55" fill="none" xmlns="http://www.w3.org/2000/svg">
<path d="M54 55H0V53.6956H17.352V28.9855C17.352 28.7391 17.4906 28.5127 17.7102 28.4022L26.352 24.0525V0H27.648V5.93659L29.952 7.09601V0H31.2498V7.74819L36.2916 10.2862C36.5094 10.3967 36.648 10.6232 36.648 10.8696V53.6956H54V55ZM27.648 53.6956H35.352V51.3768H27.648V53.6956ZM18.648 53.6956H26.352V51.3768H18.648V53.6956ZM27.648 50.0725H35.352V47.5054L27.648 43.6268V50.0725ZM18.648 50.0725H26.352V43.6268L18.648 47.5054V50.0725ZM28.449 42.5725L35.3502 46.0471V39.0978L28.449 42.5725ZM18.648 39.0978V46.0471L25.551 42.5725L18.648 39.0978ZM27.648 34.5688V41.5181L34.551 38.0435L27.648 34.5688ZM19.449 38.0435L26.352 41.5181V34.5688L19.449 38.0435ZM28.449 33.5145L35.3502 36.9891V30.0399L28.449 33.5145ZM18.648 30.0399V36.9891L25.551 33.5145L18.648 30.0399ZM27.648 25.5127V32.4601L34.551 28.9855L27.648 25.5127ZM19.449 28.9855L26.352 32.4601V25.5127L19.449 28.9855ZM28.449 24.4565L35.3502 27.9293V20.9819L28.449 24.4565ZM27.648 16.4547V23.4022L34.551 19.9275L27.648 16.4547ZM28.449 15.3986L35.3502 18.8714V11.9257L28.449 15.3986ZM27.648 7.39674V14.3442L34.551 10.8696L27.648 7.39674Z" fill="url(#paint0_linear_2_15265)"/>
<defs>
<linearGradient id="paint0_linear_2_15265" x1="0.921365" y1="3.17104e-07" x2="30.7392" y2="0.496104" gradientUnits="userSpaceOnUse">
<stop offset="0.0336538" stop-color="#3800A0"/>
<stop offset="0.456731" stop-color="#720C7D"/>
<stop offset="1" stop-color="#E61F4A"/>
</linearGradient>
</defs>
</svg>
