<svg width="55" height="55" viewBox="0 0 55 55" fill="none" xmlns="http://www.w3.org/2000/svg">
<path d="M54.3555 55H13.1771C12.8208 55 12.5326 54.7118 12.5326 54.3555V29.7362C5.43376 28.5706 0 22.3903 0 14.9674C0 6.71387 6.71387 0 14.9674 0C22.3903 0 28.5706 5.43376 29.7362 12.5326H54.3555C54.7118 12.5326 55 12.8208 55 13.1771V54.3555C55 54.7118 54.7118 55 54.3555 55ZM13.8216 53.7109H53.7109V47.4626L45.4036 39.1535L40.4891 44.0698C40.2367 44.3223 39.8285 44.3223 39.576 44.0698L27.5 31.992L13.8216 45.6722V53.7109ZM45.4036 37.5977C45.5684 37.5977 45.7349 37.6603 45.8602 37.7856L53.7109 45.6382V13.8216H29.8919C29.9206 14.1994 29.9349 14.5825 29.9349 14.9674C29.9349 23.221 23.221 29.9349 14.9674 29.9349C14.5825 29.9349 14.1994 29.9188 13.8216 29.8919V43.8478L27.0452 30.6242C27.2977 30.3717 27.7041 30.3717 27.9565 30.6242L40.0326 42.702L44.9471 37.7856C45.0724 37.6603 45.2389 37.5977 45.4036 37.5977ZM14.9674 1.28906C7.42464 1.28906 1.28906 7.42464 1.28906 14.9674C1.28906 22.5103 7.42464 28.6458 14.9674 28.6458C18.7756 28.6458 22.2256 27.0811 24.707 24.562H9.59635C9.24007 24.562 8.95182 24.2738 8.95182 23.9175V18.5464C8.95182 18.1901 9.24007 17.9019 9.59635 17.9019H28.3289C28.5366 16.9565 28.6458 15.9736 28.6458 14.9674C28.6458 14.7275 28.6405 14.4876 28.6279 14.2513H16.7578C16.4015 14.2513 16.1133 13.9631 16.1133 13.6068V7.80599C16.1133 7.44971 16.4015 7.16146 16.7578 7.16146H26.1948C23.7205 3.61475 19.6099 1.28906 14.9674 1.28906ZM10.2409 23.2729H25.8296C26.7624 22.0555 27.4964 20.6787 27.9798 19.1909H10.2409V23.2729ZM17.4023 12.9622H28.499C28.2609 11.3509 27.7417 9.8291 26.9915 8.44873H17.4023V12.9622ZM43.6133 28.1445C41.2822 28.1445 39.388 26.2485 39.388 23.9193C39.388 21.59 41.284 19.694 43.6133 19.694C45.9425 19.694 47.8385 21.59 47.8385 23.9193C47.8385 26.2485 45.9443 28.1445 43.6133 28.1445ZM43.6133 20.9831C41.9948 20.9831 40.6771 22.3008 40.6771 23.9193C40.6771 25.5378 41.993 26.8555 43.6133 26.8555C45.2336 26.8555 46.5495 25.5378 46.5495 23.9193C46.5495 22.3008 45.2318 20.9831 43.6133 20.9831Z" fill="url(#paint0_linear_2_15906)"/>
<defs>
<linearGradient id="paint0_linear_2_15906" x1="0.938427" y1="3.17104e-07" x2="31.3081" y2="0.514643" gradientUnits="userSpaceOnUse">
<stop offset="0.0336538" stop-color="#3800A0"/>
<stop offset="0.456731" stop-color="#720C7D"/>
<stop offset="1" stop-color="#E61F4A"/>
</linearGradient>
</defs>
</svg>
