<svg width="41" height="55" viewBox="0 0 41 55" fill="none" xmlns="http://www.w3.org/2000/svg">
<path d="M22.4901 49.3066H18.4703C18.2144 49.3066 17.9689 49.4083 17.788 49.5893C17.607 49.7702 17.5054 50.0156 17.5054 50.2716C17.5054 50.5275 17.607 50.7729 17.788 50.9538C17.9689 51.1348 18.2144 51.2365 18.4703 51.2365H22.4901C22.746 51.2365 22.9914 51.1348 23.1724 50.9538C23.3534 50.7729 23.455 50.5275 23.455 50.2716C23.455 50.0156 23.3534 49.7702 23.1724 49.5893C22.9914 49.4083 22.746 49.3066 22.4901 49.3066Z" fill="url(#paint0_linear_2_15266)"/>
<path d="M40.6903 11.1061C40.6907 10.9942 40.6711 10.8831 40.6325 10.7781C40.6177 10.7534 40.6047 10.7275 40.5939 10.7009C40.5746 10.6623 40.5649 10.6333 40.5456 10.5947L34.3605 0.878072C34.1912 0.608864 33.9563 0.387069 33.6778 0.233485C33.3994 0.0799011 33.0864 -0.000438126 32.7684 1.79702e-06H7.93158C7.61356 -0.000438126 7.30064 0.0799011 7.02216 0.233485C6.74369 0.387069 6.50878 0.608864 6.33947 0.878072L0.154386 10.5947C0.135088 10.6333 0.125439 10.6623 0.106141 10.7009C0.0952472 10.7275 0.0823437 10.7534 0.0675436 10.7781C0.0288628 10.8831 0.00925714 10.9942 0.00964934 11.1061L0 11.1158V15.564C0.00491154 16.5913 0.338072 17.5902 0.950844 18.4147C1.56362 19.2393 2.42391 19.8464 3.40614 20.1474V49.4228C3.40895 50.9028 3.99877 52.3212 5.04618 53.3668C6.09358 54.4124 7.51301 54.9997 8.99298 55H31.707C33.187 54.9997 34.6064 54.4124 35.6538 53.3668C36.7012 52.3212 37.291 50.9028 37.2939 49.4228V20.1474C38.2761 19.8464 39.1364 19.2393 39.7492 18.4147C40.3619 17.5902 40.6951 16.5913 40.7 15.564V11.1158L40.6903 11.1061ZM32.7298 1.91053L37.9693 10.1509H32.6237L29.1789 1.91053H32.7298ZM27.0851 1.91053L30.5298 10.1509H25.0877L24.1903 1.92018L27.0851 1.91053ZM31.0123 12.0807V15.564C31.0123 16.3318 30.7073 17.0681 30.1644 17.6109C29.6216 18.1538 28.8853 18.4588 28.1175 18.4588H28.0886C27.3209 18.4588 26.5846 18.1538 26.0417 17.6109C25.4988 17.0681 25.1939 16.3318 25.1939 15.564V12.0807H31.0123ZM18.4491 1.92018H22.2509L23.1482 10.1509H17.5518L18.4491 1.92018ZM17.436 12.0807H23.264V15.564C23.264 16.3318 22.9591 17.0681 22.4162 17.6109C21.8733 18.1538 21.137 18.4588 20.3693 18.4588H20.3307C19.563 18.4588 18.8267 18.1538 18.2838 17.6109C17.7409 17.0681 17.436 16.3318 17.436 15.564V12.0807ZM16.5096 1.92018L15.6123 10.1509H10.1702L13.6149 1.92983L16.5096 1.92018ZM15.5061 12.0807V15.564C15.5061 16.3318 15.2012 17.0681 14.6583 17.6109C14.1154 18.1538 13.3791 18.4588 12.6114 18.4588H12.5825C11.8147 18.4588 11.0784 18.1538 10.5356 17.6109C9.9927 17.0681 9.68772 16.3318 9.68772 15.564V12.0807H15.5061ZM7.93158 1.92983H11.5211L8.07632 10.1509H2.72105L7.93158 1.92983ZM4.86316 18.4588H4.82456C4.05683 18.4588 3.32054 18.1538 2.77767 17.6109C2.23481 17.0681 1.92982 16.3318 1.92982 15.564V12.0807H7.75789V15.564C7.75789 16.3318 7.45291 17.0681 6.91004 17.6109C6.36718 18.1538 5.63089 18.4588 4.86316 18.4588ZM35.364 49.4228C35.361 50.3909 34.9744 51.3183 34.2889 52.0019C33.6035 52.6855 32.6751 53.0697 31.707 53.0702H8.99298C8.02491 53.0697 7.09648 52.6855 6.41105 52.0019C5.72561 51.3183 5.33903 50.3909 5.33597 49.4228V47.4833H35.364V49.4228ZM35.364 45.5535H5.33597V20.3404C6.00278 20.2767 6.64879 20.0737 7.23221 19.7446C7.81563 19.4155 8.32345 18.9676 8.72281 18.4298C9.16735 19.0362 9.74837 19.5295 10.4189 19.8698C11.0894 20.2101 11.8305 20.3878 12.5825 20.3886H12.6114C13.3633 20.3878 14.1045 20.2101 14.775 19.8698C15.4455 19.5295 16.0265 19.0362 16.4711 18.4298C16.9156 19.0362 17.4966 19.5295 18.1671 19.8698C18.8376 20.2101 19.5788 20.3878 20.3307 20.3886H20.3693C21.1212 20.3878 21.8624 20.2101 22.5329 19.8698C23.2034 19.5295 23.7844 19.0362 24.2289 18.4298C24.6735 19.0362 25.2545 19.5295 25.925 19.8698C26.5955 20.2101 27.3367 20.3878 28.0886 20.3886H28.1175C28.8694 20.3878 29.6106 20.2101 30.2811 19.8698C30.9516 19.5295 31.5326 19.0362 31.9772 18.4298C32.3765 18.9676 32.8844 19.4155 33.4678 19.7446C34.0512 20.0737 34.6972 20.2767 35.364 20.3404V45.5535ZM38.7702 15.564C38.7702 16.3318 38.4652 17.0681 37.9223 17.6109C37.3795 18.1538 36.6432 18.4588 35.8754 18.4588H35.8368C35.0691 18.4588 34.3328 18.1538 33.79 17.6109C33.2471 17.0681 32.9421 16.3318 32.9421 15.564V12.0807H38.7702V15.564Z" fill="url(#paint1_linear_2_15266)"/>
<path d="M30.2403 39.1373L25.078 33.975C25.9466 32.2508 26.1726 30.2736 25.7155 28.3979C25.2584 26.5222 24.1481 24.8707 22.5836 23.7395C21.0191 22.6082 19.1028 22.0713 17.1783 22.225C15.2539 22.3787 13.4471 23.2129 12.0819 24.578C10.7168 25.9432 9.88258 27.75 9.72891 29.6744C9.57524 31.5989 10.1121 33.5152 11.2434 35.0797C12.3746 36.6442 14.0261 37.7545 15.9018 38.2116C17.7775 38.6687 19.7547 38.4427 21.4789 37.5741L26.6412 42.7364C27.1215 43.1985 27.764 43.4538 28.4306 43.4474C29.0971 43.441 29.7345 43.1733 30.2059 42.702C30.6772 42.2306 30.9449 41.5932 30.9513 40.9267C30.9577 40.2601 30.7025 39.6176 30.2403 39.1373ZM17.8315 36.5127C16.3992 36.5143 15.0107 36.0192 13.9026 35.1116C12.7945 34.2041 12.0354 32.9404 11.7547 31.5359C11.474 30.1313 11.6891 28.6729 12.3633 27.4092C13.0375 26.1455 14.129 25.1547 15.4519 24.6057C16.7748 24.0567 18.2472 23.9834 19.618 24.3984C20.9889 24.8134 22.1734 25.6909 22.9697 26.8815C23.766 28.072 24.1248 29.5019 23.9849 30.9274C23.845 32.3528 23.2151 33.6856 22.2026 34.6987C21.6298 35.2746 20.9487 35.7314 20.1985 36.0428C19.4482 36.3541 18.6438 36.5139 17.8315 36.5127ZM28.8798 41.3662C28.7651 41.4811 28.6099 41.5465 28.4475 41.5483C28.2852 41.5501 28.1286 41.4882 28.0113 41.3759L23.1096 36.4741C23.2729 36.3461 23.4276 36.2075 23.5728 36.0592C23.7155 35.9151 23.8508 35.7637 23.978 35.6057L28.8798 40.4978C28.9371 40.5547 28.9825 40.6223 29.0136 40.6968C29.0446 40.7713 29.0606 40.8513 29.0606 40.932C29.0606 41.0127 29.0446 41.0927 29.0136 41.1672C28.9825 41.2417 28.9371 41.3093 28.8798 41.3662Z" fill="url(#paint2_linear_2_15266)"/>
<defs>
<linearGradient id="paint0_linear_2_15266" x1="17.6069" y1="49.3066" x2="20.8841" y2="49.4779" gradientUnits="userSpaceOnUse">
<stop offset="0.0336538" stop-color="#3800A0"/>
<stop offset="0.456731" stop-color="#720C7D"/>
<stop offset="1" stop-color="#E61F4A"/>
</linearGradient>
<linearGradient id="paint1_linear_2_15266" x1="0.694436" y1="3.17104e-07" x2="23.1709" y2="0.281855" gradientUnits="userSpaceOnUse">
<stop offset="0.0336538" stop-color="#3800A0"/>
<stop offset="0.456731" stop-color="#720C7D"/>
<stop offset="1" stop-color="#E61F4A"/>
</linearGradient>
<linearGradient id="paint2_linear_2_15266" x1="10.0657" y1="22.1992" x2="21.7985" y2="22.398" gradientUnits="userSpaceOnUse">
<stop offset="0.0336538" stop-color="#3800A0"/>
<stop offset="0.456731" stop-color="#720C7D"/>
<stop offset="1" stop-color="#E61F4A"/>
</linearGradient>
</defs>
</svg>
