<svg width="22" height="55" viewBox="0 0 22 55" fill="none" xmlns="http://www.w3.org/2000/svg">
<path d="M19.6463 55H2.35202V53.7109H10.3765V29.917C4.60027 29.5822 0 24.6121 0 18.5482V0.644531C0 0.288249 0.278437 0 0.622592 0H17.9168C18.1693 0 18.3959 0.155762 18.4927 0.397461C18.5896 0.63737 18.5342 0.914876 18.3578 1.09928L13.6088 6.01562L16.6284 9.1416C16.8723 9.39404 16.8723 9.80046 16.6284 10.0529L11.4401 15.424L10.5599 14.5127L15.3071 9.59635L12.2876 6.47038C12.0437 6.21794 12.0437 5.81152 12.2876 5.55908L16.4122 1.28727H1.24518V18.5482C1.24518 24.1162 5.62063 28.6458 10.9991 28.6458C16.3776 28.6458 20.7531 24.1162 20.7531 18.5482V4.22526H22V18.5482C22 24.6103 17.3997 29.5822 11.6235 29.917V53.7109H19.6463V55Z" fill="url(#paint0_linear_2_15893)"/>
<defs>
<linearGradient id="paint0_linear_2_15893" x1="0.375371" y1="3.17104e-07" x2="12.5262" y2="0.082363" gradientUnits="userSpaceOnUse">
<stop offset="0.0336538" stop-color="#3800A0"/>
<stop offset="0.456731" stop-color="#720C7D"/>
<stop offset="1" stop-color="#E61F4A"/>
</linearGradient>
</defs>
</svg>
