<svg width="57" height="55" viewBox="0 0 57 55" fill="none" xmlns="http://www.w3.org/2000/svg">
<path d="M57 25.585V29.415H55.6191V25.585H57ZM31.3769 40.6372H42.8843V39.2584H31.3769V40.6372ZM18.642 25.585H17.2611V29.415H18.642V25.585ZM31.3769 36.8071H42.8843V35.4283H31.3769V36.8071ZM53.1642 38.0327C53.1642 39.9956 51.5628 41.5947 49.5969 41.5947C47.6311 41.5947 46.0296 39.9956 46.0296 38.0327C46.0296 36.0698 47.6311 34.4707 49.5969 34.4707C51.5628 34.4707 53.1642 36.0698 53.1642 38.0327ZM51.7833 38.0327C51.7833 36.8282 50.8033 35.8496 49.5969 35.8496C48.3905 35.8496 47.4105 36.8282 47.4105 38.0327C47.4105 39.2373 48.3905 40.2159 49.5969 40.2159C50.8033 40.2159 51.7833 39.2373 51.7833 38.0327ZM28.2315 38.0327C28.2315 39.9956 26.632 41.5947 24.6642 41.5947C22.6964 41.5947 21.0969 39.9956 21.0969 38.0327C21.0969 36.0698 22.6964 34.4707 24.6642 34.4707C26.632 34.4707 28.2315 36.0698 28.2315 38.0327ZM26.8506 38.0327C26.8506 36.8282 25.8686 35.8496 24.6642 35.8496C23.4598 35.8496 22.4778 36.8282 22.4778 38.0327C22.4778 39.2373 23.4598 40.2159 24.6642 40.2159C25.8686 40.2159 26.8506 39.2373 26.8506 38.0327ZM57 33.2451V46.6504C57 47.8473 56.1849 48.8585 55.0821 49.163V54.3106C55.0821 54.6917 54.7733 55 54.3917 55H50.5559C50.1742 55 49.8654 54.6917 49.8654 54.3106V49.2549H24.3957V54.3106C24.3957 54.6917 24.0869 55 23.7052 55H19.8694C19.4878 55 19.179 54.6917 19.179 54.3106V49.163C18.0743 48.8604 17.2611 47.8473 17.2611 46.6504V35.8821C12.965 36.3092 12.8883 40.71 12.8883 40.9072V44.7354C12.8883 47.2288 10.8572 49.2549 8.36205 49.2549C5.86686 49.2549 3.8358 47.2288 3.8358 44.7354V14.7133C1.66857 14.3781 0 12.5205 0 10.2646V4.5195C0 4.13841 0.308782 3.83008 0.690444 3.83008H1.9179V0.689415C1.9179 0.308322 2.22668 0 2.60834 0C2.99001 0 3.29879 0.308322 3.29879 0.689415V3.83008H5.7537V0.689415C5.7537 0.308322 6.06248 0 6.44415 0C6.82581 0 7.13459 0.308322 7.13459 0.689415V3.83008H8.36205C8.74371 3.83008 9.05249 4.13841 9.05249 4.5195V10.2646C9.05249 12.5205 7.38392 14.38 5.21669 14.7133V44.7354C5.21669 46.4666 6.62826 47.876 8.36205 47.876C10.0958 47.876 11.5074 46.4666 11.5074 44.7354V40.9053C11.5074 38.7853 12.731 34.8595 17.2611 34.4976V33.2451C17.2611 32.0003 18.1414 30.9547 19.3152 30.7L22.6715 17.2928C22.9611 16.1323 24.0006 15.3222 25.2012 15.3222H49.0561C50.2547 15.3222 51.2962 16.1323 51.5877 17.2928L54.944 30.7C56.1178 30.9547 57 32.0003 57 33.2451ZM1.38089 7.66017H7.6716V5.20891H1.38089V7.66017ZM7.6716 10.2646V9.039H1.38089V10.2646C1.38089 11.9958 2.79246 13.4053 4.52625 13.4053C6.26003 13.4053 7.6716 11.9958 7.6716 10.2646ZM23.8702 18.1929H50.3909L50.249 17.626C50.1128 17.0803 49.6238 16.6992 49.058 16.6992H25.2031C24.6393 16.6992 24.1502 17.0803 24.0121 17.626L23.8702 18.1929ZM20.7536 30.6407H53.5075L50.7361 19.5717H23.525L20.7536 30.6407ZM23.0148 49.2549H20.5599V53.6193H23.0148V49.2549ZM53.7012 49.2549H51.2463V53.6193H53.6993L53.7012 49.2549ZM55.6191 45.4248H18.642V46.6504C18.642 47.3264 19.1924 47.876 19.8694 47.876H54.3917C55.0687 47.876 55.6191 47.3264 55.6191 46.6504V45.4248ZM55.6191 33.2451C55.6191 32.5691 55.0687 32.0195 54.3917 32.0195H19.8694C19.1924 32.0195 18.642 32.5691 18.642 33.2451V44.046H55.6191V33.2451Z" fill="url(#paint0_linear_2_15905)"/>
<defs>
<linearGradient id="paint0_linear_2_15905" x1="0.972552" y1="3.17104e-07" x2="32.4459" y2="0.55274" gradientUnits="userSpaceOnUse">
<stop offset="0.0336538" stop-color="#3800A0"/>
<stop offset="0.456731" stop-color="#720C7D"/>
<stop offset="1" stop-color="#E61F4A"/>
</linearGradient>
</defs>
</svg>
