<svg width="54" height="55" viewBox="0 0 54 55" fill="none" xmlns="http://www.w3.org/2000/svg">
<path d="M15.5601 34.462C17.9156 34.462 19.8301 32.5474 19.8301 30.1919C19.8301 27.8364 17.9156 25.9219 15.5601 25.9219C13.2046 25.9219 11.29 27.8364 11.29 30.1919C11.29 32.5474 13.2046 34.462 15.5601 34.462ZM15.5601 27.558C17.0105 27.558 18.2057 28.7415 18.2057 30.2035C18.2057 31.6655 17.0105 32.8375 15.5601 32.8375C14.1097 32.8375 12.9145 31.6539 12.9145 30.1919C12.9145 28.7299 14.0981 27.558 15.5601 27.558Z" fill="url(#paint0_linear_2_15237)"/>
<path d="M0.847046 41.1572L5.62764 40.9251C6.31223 42.8049 7.28692 44.557 8.51688 46.1466L6.31224 52.3312C6.09177 52.9462 6.1846 53.6192 6.55591 54.153C6.92721 54.6867 7.54219 55 8.18038 55H12.404C13.2394 55 13.9937 54.4662 14.2838 53.6772L15.038 51.5654C17.788 52.9694 20.8397 53.712 23.9494 53.712C27.0591 53.712 30.1108 52.9694 32.8608 51.5654L33.615 53.6772C33.8935 54.4662 34.6477 55 35.4947 55H39.7183C40.3681 55 40.9715 54.6867 41.3428 54.153C41.7141 53.6192 41.807 52.9462 41.5865 52.3312L39.3702 46.1466C41.0992 43.9072 42.3291 41.308 42.9557 38.5696C44.9863 38.5464 46.634 36.8755 46.634 34.8449C46.634 32.8956 45.1255 31.2827 43.211 31.1319C42.7816 28.4167 41.7721 25.8291 40.2753 23.5316C46.1234 22.8354 50.6835 17.846 50.6835 11.8122C50.6951 5.30274 45.3924 0 38.8829 0C32.3734 0 27.0823 5.30274 27.0823 11.8122C27.0823 12.9146 27.2331 13.9937 27.5232 15.0264C26.3513 14.8059 25.1561 14.7015 23.961 14.7015C22.2669 14.7015 20.5844 14.9219 18.9599 15.3513C16.1519 13.2278 12.7753 12.462 9.17827 13.135C6.38186 13.6688 4.44409 14.8755 4.36287 14.9219C4.15401 15.0496 4.01477 15.27 3.99156 15.5137C3.96835 15.7574 4.04958 16.0011 4.22363 16.1751L9.34072 21.2922C7.72785 23.1023 6.46308 25.2257 5.63924 27.4884L0.85865 27.2563C0.638186 27.2447 0.417722 27.3259 0.255274 27.4768C0.0928271 27.6276 0 27.8481 0 28.0686V40.3449C0 40.5654 0.0928271 40.7743 0.255274 40.9367C0.406118 41.0875 0.626582 41.1688 0.847046 41.1572ZM45.0327 34.8449C45.0327 35.8776 44.2785 36.7479 43.2922 36.9219C43.2922 36.8871 43.3038 36.8523 43.3038 36.8059C43.327 36.6551 43.3386 36.5042 43.3618 36.3534C43.3734 36.2838 43.3734 36.2141 43.385 36.1445C43.4082 35.9705 43.4198 35.7964 43.4314 35.6108C43.4314 35.5643 43.443 35.5063 43.443 35.4599C43.4546 35.2975 43.4662 35.1466 43.4662 34.9842C43.4662 34.9146 43.4662 34.8449 43.4778 34.7753C43.4778 34.6129 43.4894 34.4388 43.4894 34.2764C43.4894 34.2532 43.4894 34.2184 43.4894 34.1951C43.4894 34.1487 43.4894 34.0907 43.4894 34.0443C43.4894 33.8819 43.4894 33.731 43.4778 33.5686C43.4778 33.4757 43.4662 33.3829 43.4662 33.2901C43.4662 33.1624 43.4546 33.0464 43.443 32.9188C43.443 32.884 43.443 32.8376 43.4314 32.8027C44.3481 33.0232 45.0327 33.8586 45.0327 34.8449ZM38.8829 1.62447C44.4989 1.62447 49.0707 6.1962 49.0707 11.8122C49.0707 17.3354 44.6498 21.8376 39.173 21.9884C39.0918 21.884 39.0105 21.7911 38.9293 21.6867C38.8945 21.6519 38.8597 21.6171 38.8365 21.5707C38.7901 21.5127 38.7321 21.4546 38.6856 21.385C38.6508 21.3386 38.6044 21.3038 38.5696 21.2574C38.5232 21.1994 38.4768 21.153 38.4304 21.0949C38.3956 21.0485 38.3491 21.0021 38.3027 20.9673C38.2563 20.9209 38.2099 20.8629 38.1635 20.8165C38.1171 20.77 38.0823 20.7236 38.0359 20.6888C37.9894 20.6424 37.943 20.596 37.8966 20.538C37.8502 20.4916 37.8038 20.4451 37.769 20.4103C37.7226 20.3639 37.6762 20.3175 37.6297 20.2711C37.5833 20.2247 37.5369 20.1783 37.4905 20.1435C37.4557 20.1086 37.4093 20.0622 37.3629 20.0274C37.8618 20.1203 38.3724 20.1667 38.8945 20.1667C43.501 20.1667 47.2489 16.4188 47.2489 11.8122C47.2489 7.2057 43.501 3.45781 38.8945 3.45781C34.288 3.45781 30.5401 7.2057 30.5401 11.8122C30.5401 13.4947 31.039 15.0728 31.9093 16.384C31.8513 16.3608 31.7932 16.3259 31.7352 16.3027C31.6772 16.2795 31.6308 16.2563 31.5728 16.2331C31.5032 16.2099 31.4451 16.1751 31.3755 16.1519C31.3175 16.1287 31.2711 16.1055 31.2131 16.0823C31.1435 16.0591 31.0738 16.0243 31.0158 16.0011C30.9578 15.9778 30.9114 15.9546 30.8534 15.943C30.7837 15.9198 30.7141 15.8966 30.6445 15.8618C30.5981 15.8386 30.5401 15.827 30.4937 15.8038C30.424 15.7806 30.3428 15.7458 30.2616 15.7226C30.2152 15.711 30.1688 15.6878 30.1224 15.6762C30.0295 15.6413 29.9483 15.6181 29.8555 15.5949C29.8207 15.5833 29.7859 15.5717 29.751 15.5601C29.635 15.5253 29.5074 15.4905 29.3797 15.4557C28.9272 14.2954 28.7067 13.0654 28.7067 11.8006C28.7067 6.1962 33.2785 1.62447 38.8829 1.62447ZM32.1529 11.8122C32.1529 8.09916 35.1698 5.08228 38.8829 5.08228C42.596 5.08228 45.6129 8.09916 45.6129 11.8122C45.6129 15.5253 42.596 18.5422 38.8829 18.5422C35.1698 18.5422 32.1529 15.5253 32.1529 11.8122ZM1.62447 28.9156L6.16139 29.1361C6.5211 29.1593 6.85759 28.9272 6.97363 28.5791C7.79747 26.0728 9.21308 23.7405 11.0464 21.8259C11.3481 21.5127 11.3481 21.0021 11.0348 20.6888L6.14979 15.8038C8.23839 14.8291 13.5295 13.0306 18.2637 16.8597C18.4726 17.0222 18.7394 17.0802 18.9947 17.0105C20.596 16.5464 22.2669 16.3143 23.9494 16.3143C25.5158 16.3143 27.0591 16.5116 28.5559 16.9177C29.0316 17.0454 29.4958 17.1846 29.9483 17.347C30.1804 17.4283 30.4008 17.5211 30.6329 17.6023C30.7489 17.6487 30.8534 17.6951 30.9694 17.7416C31.1202 17.7996 31.2595 17.8692 31.4103 17.9388C33.3597 18.8439 35.1582 20.097 36.6667 21.6287C37.1772 22.1508 37.6646 22.7078 38.1171 23.288C40.0781 25.8291 41.3196 28.8576 41.7025 32.0485C41.7837 32.7563 41.8302 33.4757 41.8302 34.1951C41.8302 35.3207 41.7257 36.4462 41.5169 37.5369C40.9715 40.4262 39.6951 43.1762 37.827 45.4736C37.6529 45.6941 37.5949 45.9958 37.6878 46.2627L40.0548 52.8766C40.1129 53.0274 40.0548 53.1551 40.0084 53.2131C39.962 53.2711 39.8692 53.3755 39.7067 53.3755H35.4831C35.3323 53.3755 35.193 53.2827 35.135 53.1319L34.0559 50.1266C33.9747 49.8945 33.8006 49.7205 33.5686 49.6392C33.4757 49.6044 33.3829 49.5928 33.2901 49.5928C33.1508 49.5928 33.0116 49.6276 32.884 49.6973C30.1804 51.2637 27.0823 52.0992 23.9378 52.0992C20.7932 52.0992 17.6951 51.2753 14.9916 49.6973C14.7827 49.5812 14.5274 49.558 14.307 49.6392C14.0749 49.7205 13.9008 49.9061 13.8196 50.1266L12.7405 53.1319C12.6941 53.2827 12.5548 53.3755 12.3924 53.3755H8.19198C8.02953 53.3755 7.93671 53.2827 7.89029 53.2247C7.84388 53.1667 7.78586 53.0506 7.84388 52.8882L10.211 46.2743C10.3038 46.0074 10.2574 45.7057 10.0717 45.4852C8.69093 43.7911 7.64662 41.8882 6.97363 39.8228C6.85759 39.4747 6.5211 39.2426 6.16139 39.2658L1.62447 39.4863V28.9156Z" fill="url(#paint1_linear_2_15237)"/>
<path d="M39.4978 16.2794V15.5948C40.9483 15.4555 41.9345 14.6201 41.9345 13.3553C41.9345 12.1254 41.1919 11.4292 39.4514 10.9998V8.79519C39.8459 8.88801 40.2289 9.06206 40.635 9.29413C40.751 9.36375 40.867 9.39856 40.9831 9.39856C41.3428 9.39856 41.6213 9.12008 41.6213 8.77198C41.6213 8.4935 41.4588 8.33105 41.2732 8.22662C40.751 7.89012 40.1708 7.68126 39.4978 7.60004V7.34476C39.4978 7.06628 39.2774 6.85742 38.9989 6.85742C38.7204 6.85742 38.4999 7.07789 38.4999 7.34476V7.58843C37.0727 7.70447 36.098 8.55152 36.098 9.78147C36.098 10.3036 36.2257 10.7213 36.4926 11.0578C36.8755 11.5568 37.5601 11.8817 38.5464 12.137V14.388C37.9198 14.272 37.386 14.0051 36.8523 13.6222C36.7478 13.541 36.6086 13.4946 36.4694 13.4946C36.1097 13.4946 35.8428 13.773 35.8428 14.1211C35.8428 14.3648 35.9588 14.5389 36.1561 14.6665C36.8523 15.1538 37.6413 15.4671 38.4999 15.56V16.2678C38.4999 16.5462 38.732 16.7551 38.9989 16.7551C39.2658 16.7551 39.4978 16.5462 39.4978 16.2794ZM39.4514 12.3458C40.3333 12.6243 40.5886 12.926 40.5886 13.4365C40.5886 13.9819 40.1824 14.3532 39.4514 14.4344V12.3458ZM38.5464 10.7562C38.3723 10.6981 38.2215 10.6401 38.0938 10.5821C37.5949 10.3384 37.4556 10.0716 37.4556 9.68865C37.4556 9.1897 37.827 8.79519 38.558 8.72557V10.7562H38.5464Z" fill="url(#paint2_linear_2_15237)"/>
<path d="M20.1087 10.5469C22 10.5469 23.5433 9.00368 23.5433 7.11233C23.5433 5.22098 22 3.67773 20.1087 3.67773C18.2173 3.67773 16.6741 5.22098 16.6741 7.11233C16.6741 9.00368 18.2057 10.5469 20.1087 10.5469ZM20.1087 5.30221C21.1066 5.30221 21.9188 6.11444 21.9188 7.11233C21.9188 8.11022 21.1066 8.92246 20.1087 8.92246C19.1108 8.92246 18.2985 8.11022 18.2985 7.11233C18.2985 6.11444 19.1108 5.30221 20.1087 5.30221Z" fill="url(#paint3_linear_2_15237)"/>
<path d="M45.9727 27.0468C45.9727 28.9962 47.5623 30.5859 49.5117 30.5859C51.4611 30.5859 53.0507 28.9962 53.0507 27.0468C53.0507 25.0975 51.4611 23.5078 49.5117 23.5078C47.5623 23.5078 45.9727 25.0859 45.9727 27.0468ZM51.4262 27.0468C51.4262 28.1027 50.5676 28.9614 49.5117 28.9614C48.4558 28.9614 47.5971 28.1027 47.5971 27.0468C47.5971 25.9909 48.4558 25.1323 49.5117 25.1323C50.5676 25.1323 51.4262 25.9909 51.4262 27.0468Z" fill="url(#paint4_linear_2_15237)"/>
<defs>
<linearGradient id="paint0_linear_2_15237" x1="11.4358" y1="25.9219" x2="16.1514" y2="26.0018" gradientUnits="userSpaceOnUse">
<stop offset="0.0336538" stop-color="#3800A0"/>
<stop offset="0.456731" stop-color="#720C7D"/>
<stop offset="1" stop-color="#E61F4A"/>
</linearGradient>
<linearGradient id="paint1_linear_2_15237" x1="0.864779" y1="3.17104e-07" x2="28.8522" y2="0.437052" gradientUnits="userSpaceOnUse">
<stop offset="0.0336538" stop-color="#3800A0"/>
<stop offset="0.456731" stop-color="#720C7D"/>
<stop offset="1" stop-color="#E61F4A"/>
</linearGradient>
<linearGradient id="paint2_linear_2_15237" x1="35.9467" y1="6.85742" x2="39.311" y2="6.89251" gradientUnits="userSpaceOnUse">
<stop offset="0.0336538" stop-color="#3800A0"/>
<stop offset="0.456731" stop-color="#720C7D"/>
<stop offset="1" stop-color="#E61F4A"/>
</linearGradient>
<linearGradient id="paint3_linear_2_15237" x1="16.7913" y1="3.67773" x2="20.5843" y2="3.74201" gradientUnits="userSpaceOnUse">
<stop offset="0.0336538" stop-color="#3800A0"/>
<stop offset="0.456731" stop-color="#720C7D"/>
<stop offset="1" stop-color="#E61F4A"/>
</linearGradient>
<linearGradient id="paint4_linear_2_15237" x1="46.0934" y1="23.5078" x2="50.0018" y2="23.574" gradientUnits="userSpaceOnUse">
<stop offset="0.0336538" stop-color="#3800A0"/>
<stop offset="0.456731" stop-color="#720C7D"/>
<stop offset="1" stop-color="#E61F4A"/>
</linearGradient>
</defs>
</svg>
