<svg width="53" height="55" viewBox="0 0 53 55" fill="none" xmlns="http://www.w3.org/2000/svg">
<path d="M5.0195 52.4832H3.69081V48.782H5.0195V52.4832ZM5.0195 33.9771H3.69081V37.6783H5.0195V33.9771ZM41.9276 41.3795H40.5989V45.0808H41.9294L41.9276 41.3795ZM5.0195 41.3795H3.69081V45.0808H5.0195V41.3795ZM27.1643 33.9771V30.2759H25.8357V33.9771H27.1643ZM21.6281 33.9771V30.2759H20.2994V33.9771H21.6281ZM32.7006 33.9771V30.2759H31.3719V33.9771H32.7006ZM49.3092 48.782H47.9805V52.4832H49.311L49.3092 48.782ZM49.3092 33.9771H47.9805V37.6783H49.311L49.3092 33.9771ZM12.4011 41.3795H11.0724V45.0808H12.4011V41.3795ZM41.9276 48.782H40.5989V52.4832H41.9294L41.9276 48.782ZM53 30.2759V54.3338C53 54.7021 52.7029 55 52.3357 55H0.664345C0.29711 55 0 54.7021 0 54.3338V30.2759C0 30.2037 0.0202994 30.1371 0.0405988 30.0723C0.046135 30.0575 0.0405988 30.0427 0.046135 30.0279L3.73694 20.7749C3.93809 20.2697 4.77037 20.2697 4.97152 20.7749L8.66233 30.0279C8.66786 30.0427 8.66417 30.0575 8.66786 30.0723C8.69001 30.1371 8.71031 30.2037 8.71031 30.2759V37.0121H44.2897V30.2759C44.2897 30.1945 44.31 30.1186 44.3358 30.0464C44.3377 30.0409 44.3358 30.0335 44.3377 30.0279L44.3395 30.0224C44.3414 30.0187 44.3432 30.015 44.3432 30.0113L48.0266 20.7749C48.2278 20.2697 49.0582 20.2697 49.2594 20.7749L52.9428 30.0113C52.9446 30.015 52.9465 30.0187 52.9483 30.0224L52.9502 30.0279C52.952 30.0335 52.9502 30.039 52.952 30.0446C52.9815 30.1168 53 30.1945 53 30.2759ZM1.6461 29.6097H7.06605L4.35515 22.8161L1.6461 29.6097ZM7.38162 30.9421H1.32869V53.6676H7.38162V30.9421ZM44.2897 38.3446H8.71031V53.6657H44.2897V38.3446ZM45.9339 29.6097H51.3557L48.6448 22.8161L45.9339 29.6097ZM51.6713 30.9421H45.6184V53.6676H51.6695L51.6713 30.9421ZM49.3092 41.3795H47.9805V45.0808H49.311L49.3092 41.3795ZM12.4011 48.782H11.0724V52.4832H12.4011V48.782ZM36.3914 48.782H35.0627V52.4832H36.3932L36.3914 48.782ZM36.3914 41.3795H35.0627V45.0808H36.3932L36.3914 41.3795ZM17.9373 41.3795H16.6086V45.0808H17.9373V41.3795ZM17.9373 48.782H16.6086V52.4832H17.9373V48.782ZM23.4735 45.0808C23.4735 43.4078 24.8318 42.0458 26.5 42.0458C28.1682 42.0458 29.5265 43.406 29.5265 45.0808V52.4832H30.857V45.0808C30.857 42.6713 28.9027 40.7133 26.5018 40.7133C24.101 40.7133 22.1467 42.6731 22.1467 45.0808V52.4832H23.4754V45.0808H23.4735ZM17.9373 33.9771H16.6086V26.5747C16.6086 26.4711 16.6326 26.3693 16.6788 26.2767L25.8357 7.91134V4.36743V0.666218C25.8357 0.297948 26.1328 0 26.5 0H32.0362C32.4034 0 32.7006 0.297948 32.7006 0.666218V4.36743C32.7006 4.7357 32.4034 5.03365 32.0362 5.03365H27.1643V7.91134L36.3212 26.2767C36.3655 26.3693 36.3914 26.4711 36.3914 26.5747V33.9771H35.0627V27.2409H17.9373V33.9771ZM34.6511 25.9085L26.5 9.55838L18.347 25.9085H34.6511ZM31.3719 1.33244H27.1643V3.70121H31.3719V1.33244Z" fill="url(#paint0_linear_2_15264)"/>
<defs>
<linearGradient id="paint0_linear_2_15264" x1="0.904303" y1="3.17104e-07" x2="30.1702" y2="0.477905" gradientUnits="userSpaceOnUse">
<stop offset="0.0336538" stop-color="#3800A0"/>
<stop offset="0.456731" stop-color="#720C7D"/>
<stop offset="1" stop-color="#E61F4A"/>
</linearGradient>
</defs>
</svg>
