<svg width="55" height="55" viewBox="0 0 55 55" fill="none" xmlns="http://www.w3.org/2000/svg">
<path d="M29.3377 49.6289C29.0065 49.6289 28.7255 49.3765 28.6968 49.0417C28.5429 47.3319 27.4973 45.6077 25.5083 45.6077C23.675 45.6077 22.6008 46.6497 21.464 48.3327C21.2653 48.6299 20.8678 48.7051 20.5688 48.5081C20.2734 48.3094 20.1964 47.9066 20.3952 47.613C21.5517 45.9014 22.9696 44.3169 25.5065 44.3169C28.294 44.3169 29.7782 46.707 29.9787 48.9253C30.0109 49.2798 29.7495 49.5931 29.395 49.6253C29.3771 49.6271 29.3574 49.6289 29.3377 49.6289ZM34.9575 48.2754C34.8429 48.2754 34.7266 48.2432 34.6209 48.1787C31.7887 46.4456 30.0986 43.7619 30.0986 40.9976C30.0986 40.0003 30.2991 38.9046 30.6357 38.0631C30.7664 37.7284 31.1513 37.5726 31.4718 37.7033C31.8048 37.834 31.9641 38.2082 31.8316 38.5394C31.504 39.3612 31.3894 40.3494 31.3894 40.9976C31.3894 43.2731 32.8861 45.6042 35.2941 47.0794C35.5984 47.2656 35.6951 47.6613 35.5071 47.9639C35.3854 48.1662 35.1741 48.2754 34.9575 48.2754ZM16.7519 46.7786C16.5424 46.7786 16.3383 46.6766 16.2148 46.4904C16.0179 46.1932 16.0984 45.7922 16.3956 45.597C20.4346 42.9186 23.7001 40.3244 26.9817 37.1841C28.695 35.5441 31.5685 32.257 31.5685 28.6709C31.5685 26.5153 30.1165 24.2254 27.4275 24.2254C25.0339 24.2254 23.1988 26.9808 21.4264 29.6431C20.4793 31.0664 19.5842 32.4092 18.587 33.3849C15.8693 36.04 13.0603 37.6173 9.93441 39.2627C9.61932 39.4292 9.22724 39.3057 9.06432 38.9941C8.89782 38.6772 9.01956 38.2887 9.33466 38.124C12.3692 36.5252 15.0941 34.998 17.6882 32.4629C18.587 31.5838 19.4463 30.2948 20.354 28.9305C22.3162 25.9836 24.3446 22.9381 27.4293 22.9381C30.8291 22.9381 32.8611 25.8529 32.8611 28.6727C32.8611 32.7404 29.737 36.3354 27.8751 38.1169C24.5361 41.3127 21.2169 43.9517 17.11 46.673C16.9972 46.7428 16.8736 46.7786 16.7519 46.7786ZM40.6077 45.1315C40.529 45.1315 40.4484 45.1172 40.3714 45.0868C35.602 43.2122 34.5995 39.3558 34.5995 36.45C34.5995 35.1968 34.8465 34.0259 35.1043 32.7834C35.4087 31.3296 35.7238 29.8293 35.7238 27.9261C35.7238 24.5387 32.8414 19.8444 27.4239 19.8444C22.855 19.8444 20.089 23.3696 18.8466 25.4715C17.6327 27.5251 14.2526 32.5076 9.07327 34.4233C8.7367 34.5433 8.36789 34.3786 8.24436 34.042C8.12083 33.7072 8.2927 33.3366 8.6257 33.2131C11.9503 31.9849 15.3555 28.8464 17.7366 24.8162C19.1187 22.478 22.2141 18.5553 27.4239 18.5553C33.16 18.5553 37.0128 23.4001 37.0128 27.9243C37.0128 29.96 36.6691 31.5999 36.3665 33.0448C36.1087 34.2694 35.8885 35.3257 35.8885 36.4464C35.8885 38.9512 36.746 42.2759 40.8423 43.8836C41.1735 44.0125 41.3364 44.3867 41.2057 44.7197C41.109 44.9757 40.8655 45.1315 40.6077 45.1315ZM12.8956 43.9373C12.6789 43.9373 12.4677 43.8263 12.346 43.6294C12.1598 43.3268 12.2546 42.9294 12.5572 42.7432C17.2281 39.8696 23.5049 35.1073 26.8868 28.7568C27.0551 28.4417 27.4418 28.32 27.7587 28.4919C28.072 28.6602 28.1919 29.0505 28.0237 29.3638C24.5057 35.9666 18.0373 40.883 13.2322 43.8407C13.1283 43.9051 13.0119 43.9373 12.8956 43.9373ZM43.32 41.6439C43.2341 41.6439 43.1464 41.626 43.0622 41.5902C39.8075 40.1758 39.1504 38.0685 39.1504 35.1287C39.1504 33.265 39.3653 32.3304 39.5926 31.3368C39.8325 30.293 40.0778 29.2116 40.0778 26.7821C40.0778 21.3537 35.2404 15.4956 27.4239 15.4956C21.5177 15.4956 18.6568 18.4479 16.2309 21.4718C15.9642 21.8066 15.6705 22.1951 15.3537 22.6195C13.8265 24.6533 11.7372 27.4391 9.09297 28.5098C8.76176 28.644 8.38758 28.4847 8.25331 28.1553C8.11904 27.8258 8.27838 27.4499 8.60779 27.3156C10.9191 26.3792 12.8848 23.7581 14.3207 21.846C14.6483 21.411 14.9491 21.0099 15.223 20.6662C17.844 17.397 20.9448 14.2083 27.4221 14.2083C36.0353 14.2083 41.3668 20.736 41.3668 26.7839C41.3668 29.3602 41.0911 30.5651 40.8476 31.6286C40.6364 32.547 40.4376 33.4154 40.4376 35.1323C40.4376 38.099 41.1985 39.3826 43.5725 40.4121C43.9001 40.5535 44.0487 40.9331 43.9073 41.2607C43.8052 41.4989 43.5689 41.6439 43.32 41.6439ZM43.9073 37.3452C43.7748 37.3452 43.6423 37.3058 43.5277 37.2217C43.2395 37.0122 43.1768 36.6076 43.3863 36.3211C44.6556 34.5827 45.4433 31.548 45.4433 28.4006C45.4433 26.6854 45.3073 24.8055 44.3101 22.6803C44.1597 22.3581 44.2975 21.9731 44.6216 21.8228C44.9367 21.6742 45.327 21.8102 45.4791 22.1325C46.5838 24.4922 46.7342 26.6263 46.7342 28.4006C46.7342 31.8595 45.873 35.1055 44.4282 37.0802C44.3011 37.2521 44.1042 37.3452 43.9073 37.3452ZM9.8986 21.8872C9.77686 21.8872 9.65333 21.8532 9.54412 21.7816C9.24693 21.5864 9.16458 21.1854 9.35972 20.8882C12.4749 16.158 17.7384 9.87028 27.4239 9.87028C34.1465 9.87028 40.3678 13.2254 44.0702 18.8454C44.2653 19.1444 44.183 19.5436 43.8858 19.7388C43.5886 19.9339 43.1893 19.8551 42.9924 19.5544C39.53 14.2961 33.7097 11.1593 27.4239 11.1593C18.3596 11.1593 13.3879 17.1177 10.4357 21.599C10.314 21.7869 10.1081 21.8872 9.8986 21.8872ZM42.9029 13.2021C42.7346 13.2021 42.5681 13.1377 42.4428 13.0088C38.5113 8.993 33.1225 6.67806 27.6584 6.66016C27.6316 6.66016 27.6047 6.66016 27.5779 6.66016C21.7594 6.66016 16.5639 8.83008 12.5483 12.939C12.2994 13.1932 11.8894 13.195 11.637 12.9497C11.3828 12.7008 11.3774 12.2926 11.6262 12.0384C15.889 7.67529 21.4031 5.37109 27.5779 5.37109C27.6065 5.37109 27.6352 5.37109 27.6638 5.37109C33.468 5.39079 39.1898 7.84538 43.363 12.1064C43.6137 12.3607 43.6083 12.7689 43.3541 13.0177C43.2269 13.1413 43.064 13.2021 42.9029 13.2021ZM54.3537 55H47.1925V53.7109H53.7092V47.194H55V54.3555C54.9982 54.7118 54.71 55 54.3537 55ZM7.80574 55H0.64451C0.288239 55 0 54.7118 0 54.3555V47.194H1.28902V53.7109H7.80574V55ZM54.9982 7.80599H53.7092V1.28906H47.1925V0H54.3537C54.71 0 54.9982 0.288249 54.9982 0.644531V7.80599ZM1.28902 7.80599H0V0.644531C0 0.288249 0.288239 0 0.64451 0H7.80574V1.28906H1.28902V7.80599Z" fill="url(#paint0_linear_2_15271)"/>
<defs>
<linearGradient id="paint0_linear_2_15271" x1="0.938427" y1="3.17104e-07" x2="31.3081" y2="0.514643" gradientUnits="userSpaceOnUse">
<stop offset="0.0336538" stop-color="#3800A0"/>
<stop offset="0.456731" stop-color="#720C7D"/>
<stop offset="1" stop-color="#E61F4A"/>
</linearGradient>
</defs>
</svg>
