<svg width="51" height="55" viewBox="0 0 51 55" fill="none" xmlns="http://www.w3.org/2000/svg">
<path d="M25.5 55C25.1466 55 24.8607 54.7118 24.8607 54.3555V40.0326C24.8607 39.6763 25.1466 39.388 25.5 39.388C25.8534 39.388 26.1393 39.6763 26.1393 40.0326V54.3555C26.1393 54.7118 25.8534 55 25.5 55ZM22.6268 47.527C22.5433 47.527 22.4581 47.5091 22.3764 47.4751C20.6024 46.7106 19.3629 44.7305 19.3629 42.6554C19.3629 40.4712 20.2828 38.8044 22.2592 37.4061C22.5505 37.2038 22.9464 37.2736 23.1489 37.5636C23.3513 37.8555 23.2821 38.2583 22.9926 38.4624C21.3447 39.6261 20.6397 40.883 20.6397 42.6554C20.6397 44.2292 21.5596 45.7241 22.8754 46.2899C23.2004 46.4295 23.3513 46.8073 23.2128 47.1367C23.1116 47.3802 22.8754 47.527 22.6268 47.527ZM28.3714 47.527C28.1796 47.527 27.9878 47.4375 27.8618 47.271C27.6487 46.9881 27.7037 46.5817 27.9843 46.3669C29.6251 45.1136 30.3549 44.2113 30.3549 42.1864C30.3549 39.6798 27.9062 37.9862 25.3135 36.1958C22.3977 34.1816 19.3843 32.0994 19.3843 28.5474C19.3843 26.5672 20.5367 24.7607 22.3214 23.9461C22.6428 23.8029 23.0228 23.9443 23.1684 24.2684C23.314 24.5924 23.1702 24.9756 22.8488 25.1224C21.5205 25.7275 20.6628 27.0721 20.6628 28.5492C20.6628 31.4209 23.2732 33.2256 26.0363 35.1359C28.7887 37.0373 31.6353 39.0013 31.6353 42.1882C31.6353 44.7161 30.6249 45.9676 28.7585 47.3963C28.6431 47.4823 28.5064 47.527 28.3714 47.527ZM28.3714 34.3839C28.1796 34.3839 27.9878 34.2944 27.8618 34.1279C27.6487 33.8433 27.7037 33.4386 27.9843 33.2238C29.6251 31.9723 30.3549 31.0718 30.3549 29.0451C30.3549 26.8071 28.4016 25.2173 26.1375 23.6292V31.0843C26.1375 31.4406 25.8516 31.7288 25.4982 31.7288C25.1448 31.7288 24.8589 31.4406 24.8589 31.0843V22.743C22.0923 20.8237 19.3825 18.7773 19.3825 15.4079C19.3825 13.4259 20.535 11.6195 22.3196 10.8066C22.641 10.6634 23.021 10.8048 23.1666 11.1289C23.3123 11.453 23.1684 11.8361 22.847 11.9829C21.5187 12.5881 20.661 13.9326 20.661 15.4097C20.661 17.8696 22.5753 19.5454 24.8589 21.1746V8.40218C22.8506 8.09066 21.3074 6.3361 21.3074 4.22526C21.3074 1.896 23.188 0 25.4982 0C27.8103 0 29.689 1.896 29.689 4.22526C29.689 6.3361 28.1459 8.09066 26.1375 8.40218V22.0627C28.858 23.9408 31.6335 25.8976 31.6335 29.0451C31.6335 31.5749 30.6231 32.8281 28.7568 34.2533C28.6431 34.3392 28.5064 34.3839 28.3714 34.3839ZM25.5 7.15967C25.5178 7.15967 25.5355 7.15967 25.5533 7.16146C27.1337 7.13281 28.4123 5.82764 28.4123 4.22526C28.4123 2.60677 27.1071 1.28906 25.5 1.28906C23.8929 1.28906 22.5877 2.60677 22.5877 4.22526C22.5877 5.82764 23.8663 7.13281 25.4467 7.16146C25.4645 7.15967 25.4822 7.15967 25.5 7.15967ZM30.8273 22.7734C30.5876 22.7734 30.3567 22.6374 30.2502 22.4028C30.0992 22.0806 30.236 21.6974 30.5556 21.5452C32.4042 20.6662 33.9083 18.1794 33.9083 15.9987C33.9083 12.6077 35.7888 10.7422 39.1983 10.7422H50.3607C50.7141 10.7422 51 11.0304 51 11.3867C51 11.743 50.7141 12.0312 50.3607 12.0312H39.1983C37.1064 12.0312 35.8687 12.7671 35.4017 14.3229H46.8092C47.1626 14.3229 47.4485 14.6112 47.4485 14.9674C47.4485 15.3237 47.1626 15.612 46.8092 15.612H35.1957C35.1886 15.7373 35.1868 15.8662 35.1868 15.9987C35.1868 16.5967 35.0856 17.2484 34.8956 17.9054H43.2204C43.5737 17.9054 43.8596 18.1937 43.8596 18.55C43.8596 18.9062 43.5737 19.1945 43.2204 19.1945H34.4072C33.7111 20.6608 32.5782 22.0089 31.1008 22.7108C31.012 22.7537 30.9196 22.7734 30.8273 22.7734ZM20.1727 22.7734C20.0804 22.7734 19.988 22.7537 19.901 22.7126C18.4236 22.0107 17.2906 20.6626 16.5963 19.1963H7.74234C7.38896 19.1963 7.10306 18.908 7.10306 18.5518C7.10306 18.1955 7.38896 17.9072 7.74234 17.9072H16.1062C15.9162 17.2484 15.8167 16.5985 15.8167 16.0005C15.8167 15.868 15.8132 15.7391 15.8079 15.6138H4.19081C3.83743 15.612 3.55153 15.3237 3.55153 14.9674C3.55153 14.6112 3.83743 14.3229 4.19081 14.3229H15.6019C15.1349 12.7671 13.8971 12.0312 11.8053 12.0312H0.639276C0.285898 12.0312 0 11.743 0 11.3867C0 11.0304 0.285898 10.7422 0.639276 10.7422H11.8053C14.7957 10.7422 16.607 12.1763 17.0101 14.8117C17.0189 14.8529 17.026 14.894 17.0278 14.9388C17.0722 15.2736 17.0953 15.6263 17.0953 15.9987C17.0953 18.1794 18.5976 20.668 20.4444 21.5452C20.764 21.6974 20.9008 22.0806 20.7498 22.4028C20.6415 22.6374 20.4124 22.7734 20.1727 22.7734ZM28.3714 20.9849C28.1707 20.9849 27.9719 20.89 27.8476 20.7109C27.6451 20.4191 27.7162 20.0181 28.0038 19.814C29.6535 18.6484 30.3549 17.3934 30.3549 15.6209C30.3549 14.0472 29.4351 12.554 28.1193 11.9865C27.7943 11.8468 27.6433 11.4673 27.7836 11.1414C27.9221 10.8138 28.3004 10.6616 28.6236 10.8013C30.3958 11.564 31.6353 13.5459 31.6353 15.6209C31.6353 17.8052 30.7136 19.472 28.739 20.8703C28.6271 20.9473 28.4975 20.9849 28.3714 20.9849Z" fill="url(#paint0_linear_2_15253)"/>
<defs>
<linearGradient id="paint0_linear_2_15253" x1="0.870178" y1="3.17104e-07" x2="29.0323" y2="0.442526" gradientUnits="userSpaceOnUse">
<stop offset="0.0336538" stop-color="#3800A0"/>
<stop offset="0.456731" stop-color="#720C7D"/>
<stop offset="1" stop-color="#E61F4A"/>
</linearGradient>
</defs>
</svg>
