<svg width="55" height="55" viewBox="0 0 55 55" fill="none" xmlns="http://www.w3.org/2000/svg">
<path d="M41.8229 55C34.5558 55 28.6458 49.0882 28.6458 41.8229C28.6458 39.7264 29.1525 37.646 30.1104 35.8037C30.8945 34.2622 31.9795 32.8926 33.29 31.7826C31.3385 29.9492 28.9985 28.5241 26.4813 27.6432C26.2378 27.5591 26.0695 27.3371 26.0516 27.0811C26.0337 26.825 26.168 26.5815 26.3971 26.4634C30.8659 24.1484 33.6392 19.6278 33.6392 14.6649C33.6392 7.29036 27.6719 1.29085 20.3367 1.29085C12.9228 1.29085 6.89111 7.29036 6.89111 14.6649C6.89111 19.6224 9.66797 24.1502 14.1367 26.4831C14.3641 26.6012 14.5002 26.8447 14.4805 27.1007C14.4608 27.3568 14.2943 27.577 14.0508 27.6629C6.41667 30.3449 1.28727 37.5099 1.28727 45.495V54.3555H0V45.4932C0 37.4132 4.91276 30.1175 12.3589 26.9378C8.16048 24.2397 5.60384 19.6493 5.60384 14.6631C5.60384 6.5778 12.2139 0 20.3385 0C28.3844 0 34.93 6.5778 34.93 14.6631C34.93 19.6546 32.3752 24.2362 28.1785 26.9199C30.4451 27.8903 32.5435 29.2778 34.3284 30.9894C34.3857 30.95 34.4448 30.9089 34.5057 30.8695C36.6702 29.4157 39.2018 28.6458 41.8229 28.6458C49.09 28.6458 55 34.5558 55 41.8229C55 49.09 49.09 55 41.8229 55ZM41.8229 29.9349C39.4596 29.9349 37.1751 30.6296 35.2201 31.9419C33.5407 33.0519 32.1711 34.5898 31.2562 36.3909C30.3914 38.056 29.9349 39.9323 29.9349 41.8211C29.9349 48.3757 35.2684 53.7091 41.8229 53.7091C48.3774 53.7091 53.7109 48.3757 53.7109 41.8211C53.7109 35.2666 48.3774 29.9349 41.8229 29.9349ZM42.4674 48.0892H41.1784V46.0482H38.2422V44.7591H43.6133C44.2453 44.7591 44.7591 44.2453 44.7591 43.6133C44.7591 42.9813 44.2453 42.4674 43.6133 42.4674H40.0326C38.6898 42.4674 37.5977 41.3753 37.5977 40.0326C37.5977 38.6898 38.6898 37.5977 40.0326 37.5977H41.1784V35.5566H42.4692V37.5977H45.4036V38.8885H40.0326C39.4006 38.8885 38.8867 39.4023 38.8867 40.0343C38.8867 40.6663 39.4006 41.1802 40.0326 41.1802H43.6133C44.9561 41.1802 46.0482 42.2723 46.0482 43.6151C46.0482 44.9578 44.9561 46.05 43.6133 46.05H42.4674V48.0892Z" fill="url(#paint0_linear_2_15908)"/>
<defs>
<linearGradient id="paint0_linear_2_15908" x1="0.938427" y1="3.17104e-07" x2="31.3081" y2="0.514643" gradientUnits="userSpaceOnUse">
<stop offset="0.0336538" stop-color="#3800A0"/>
<stop offset="0.456731" stop-color="#720C7D"/>
<stop offset="1" stop-color="#E61F4A"/>
</linearGradient>
</defs>
</svg>
