<svg width="57" height="55" viewBox="0 0 57 55" fill="none" xmlns="http://www.w3.org/2000/svg">
<path d="M55.5227 24.5492C55.904 24.5492 56.213 24.2402 56.213 23.8588V10.993C56.213 9.51141 55.1048 8.00586 53.6902 7.56539L30.3492 0.293632C29.0919 -0.0978775 27.1213 -0.0978775 25.864 0.293632L2.52263 7.56539C1.1082 8.00586 0 9.51141 0 10.993V44.012C0 45.4935 1.10788 46.9991 2.52263 47.4402L25.8638 54.7111C26.4824 54.904 27.2727 55.0003 28.066 55C28.8868 55 29.7105 54.8972 30.3494 54.6925L34.4194 53.3863C34.7822 53.2699 34.8485 53.0347 34.8485 52.5846L34.7727 38.3723C34.7703 37.9923 34.7542 37.6115 33.7675 37.7649L32.2317 37.9776L35.8441 30.4718L39.5067 36.6808L38.2407 36.9713C38.2407 36.9713 37.6892 37.0202 37.6892 37.6461C37.6892 41.1403 37.6604 51.6225 37.6604 51.6225C37.6604 52.4082 38.2404 52.3371 38.563 52.2809L47.1236 49.5193C47.4501 49.414 47.6039 49.267 47.6039 48.6362L47.5382 35.9466C47.5382 35.0627 47.124 34.9357 46.7481 34.9907L45.1195 35.228L48.3751 28.1182L51.905 34.0094L50.41 34.3024C50.0359 34.3758 49.8772 34.6138 49.8772 35.1514V47.9754C49.8772 48.5192 50.2185 48.9393 50.8623 48.6223L53.7653 47.539C55.1383 47.0267 56.2135 45.4771 56.2135 44.012V31.1566C56.2135 30.7752 55.9044 30.4661 55.523 30.4661C55.1416 30.4661 54.8327 30.7752 54.8327 31.1566V44.012C54.8327 44.8937 54.1083 45.9375 53.2828 46.2458L51.258 47.0013V35.5434L52.3946 35.3209C52.8126 35.2391 53.1435 34.9877 53.302 34.6314C53.4606 34.2749 53.4257 33.861 53.2067 33.4957L49.2732 26.9318C49.0351 26.5346 48.6712 26.3201 48.2764 26.3416C47.8806 26.3632 47.5434 26.6172 47.3504 27.0378L43.6497 35.1214C43.4589 35.5387 43.4854 35.9593 43.7229 36.2761C43.9221 36.5417 44.2334 36.6853 44.5966 36.6853C44.6658 36.6853 44.7375 36.6801 44.8101 36.6693L46.1603 36.4717L46.2222 48.3595L39.0436 50.6757L39.0693 38.1976C39.0693 38.1976 39.6504 38.0945 39.9525 37.9953C40.3644 37.86 40.7077 37.6316 40.866 37.2639C41.0236 36.8964 40.9879 36.4716 40.7679 36.0984L36.7858 29.3495C36.5445 28.941 36.1787 28.7199 35.77 28.7341C35.3657 28.7511 35.0162 29.006 34.8104 29.4333L30.7781 37.8151C30.5728 38.242 30.5916 38.6741 30.8299 39.0012C31.0315 39.2779 31.3535 39.4277 31.7322 39.4277C31.8011 39.4277 31.8717 39.4228 31.9437 39.4129L33.3971 39.2107L33.4666 52.2422L29.9286 53.3774C28.9394 53.6944 27.2669 53.7017 26.2754 53.3932L2.93403 46.1221C2.10727 45.864 1.38173 44.8785 1.38173 44.012V10.993C1.38173 10.1267 2.10727 9.14106 2.93403 8.88348L26.2754 1.61188C27.2689 1.30281 28.9468 1.30281 29.9399 1.61188L53.2815 8.88348C54.1081 9.14106 54.8337 10.1267 54.8337 10.993V23.8589C54.8322 24.2403 55.1413 24.5492 55.5227 24.5492Z" fill="url(#paint0_linear_2_15272)"/>
<path d="M50.1265 12.8363L29.5527 19.2456C28.782 19.4853 27.4306 19.4853 26.6604 19.2456L6.08578 12.8363C5.72175 12.7226 5.33466 12.9255 5.22143 13.29C5.10788 13.654 5.31113 14.0411 5.67548 14.1544L26.2494 20.5637C26.7701 20.7257 27.4385 20.807 28.1065 20.807C28.7746 20.807 29.4428 20.7259 29.9633 20.5637L50.5372 14.1544C50.9013 14.0411 51.1048 13.654 50.991 13.29C50.8777 12.9255 50.49 12.7226 50.1265 12.8363Z" fill="url(#paint1_linear_2_15272)"/>
<defs>
<linearGradient id="paint0_linear_2_15272" x1="0.959132" y1="3.17104e-07" x2="31.9985" y2="0.537596" gradientUnits="userSpaceOnUse">
<stop offset="0.0336538" stop-color="#3800A0"/>
<stop offset="0.456731" stop-color="#720C7D"/>
<stop offset="1" stop-color="#E61F4A"/>
</linearGradient>
<linearGradient id="paint1_linear_2_15272" x1="5.97195" y1="12.8047" x2="31.0507" y2="15.2387" gradientUnits="userSpaceOnUse">
<stop offset="0.0336538" stop-color="#3800A0"/>
<stop offset="0.456731" stop-color="#720C7D"/>
<stop offset="1" stop-color="#E61F4A"/>
</linearGradient>
</defs>
</svg>
