<svg width="55" height="55" viewBox="0 0 55 55" fill="none" xmlns="http://www.w3.org/2000/svg">
<path d="M3.33008 4.86979C1.12077 4.86979 0 3.44824 0 0.644531C0 0.288249 0.288249 0 0.644531 0C1.00081 0 1.28906 0.288249 1.28906 0.644531C1.28906 3.22445 2.27018 3.58073 3.33008 3.58073C5.26009 3.58073 6.66015 5.35677 6.66015 7.80599C6.66015 8.16227 6.37191 8.45052 6.01562 8.45052C5.65934 8.45052 5.37109 8.16227 5.37109 7.80599C5.37109 6.34684 4.67106 4.86979 3.33008 4.86979ZM5.12044 1.28906C7.44791 1.28906 8.95182 2.79297 8.95182 5.12044C8.95182 5.47673 9.24007 5.76497 9.59635 5.76497C9.95263 5.76497 10.2409 5.47673 10.2409 5.12044C10.2409 2.05892 8.18375 0.00179034 5.12044 0.00179034C4.76416 0.00179034 4.47591 0.290039 4.47591 0.646322C4.47591 1.0026 4.76416 1.28906 5.12044 1.28906ZM16.7578 34.0169C16.4015 34.0169 16.1133 34.3052 16.1133 34.6615V38.2422C16.1133 38.5985 16.4015 38.8867 16.7578 38.8867C17.1141 38.8867 17.4023 38.5985 17.4023 38.2422V34.6615C17.4023 34.3052 17.1141 34.0169 16.7578 34.0169ZM55 40.3799V54.3555C55 54.7118 54.7117 55 54.3554 55H2.4349C2.07861 55 1.79036 54.7118 1.79036 54.3555V9.59635C1.79036 9.24007 2.07861 8.95182 2.4349 8.95182H9.59635C9.95263 8.95182 10.2409 9.24007 10.2409 9.59635V28.1374L20.8971 21.5793C21.0959 21.4557 21.3465 21.4521 21.5488 21.5649C21.7529 21.6813 21.8782 21.8962 21.8782 22.1289V28.1803L33.4458 21.5703C33.6463 21.4557 33.8898 21.4575 34.0885 21.5721C34.2873 21.6867 34.4108 21.8997 34.4108 22.1307V28.1392L45.0653 21.5811C45.2622 21.4575 45.5146 21.4539 45.7169 21.5667C45.921 21.6813 46.0482 21.8962 46.0482 22.1289V34.0169H48.6872C49.5394 34.0169 51.695 34.1924 53.3117 35.8127C54.436 36.9388 55.0036 38.4767 55 40.3799ZM46.0482 37.5977H48.5099C50.1141 37.5977 51.4193 38.8867 51.4193 40.4694V53.7109H53.7091V40.3799C53.7127 38.8294 53.2723 37.5994 52.3986 36.724C51.5141 35.8377 50.1248 35.3078 48.6872 35.3078H46.0482V37.5977ZM46.0482 38.8867V53.7091H50.1284V40.4676C50.1284 39.5957 49.4033 38.8849 48.5099 38.8849H46.0482V38.8867ZM3.07943 10.2409V21.4844H8.95182V10.2409H3.07943ZM8.95182 53.7109V22.7734H3.07943V53.7109H8.95182ZM10.2409 53.7109H23.2747V43.6133C23.2747 43.257 23.563 42.9688 23.9193 42.9688H31.0807C31.437 42.9688 31.7253 43.257 31.7253 43.6133V53.7109H44.7573V23.2819L34.1029 29.84C33.9059 29.96 33.6553 29.9671 33.4512 29.8543C33.2488 29.7397 33.1217 29.5249 33.1217 29.2904V23.2389L21.5542 29.849C21.3537 29.96 21.1102 29.9618 20.9114 29.8472C20.7109 29.7326 20.5892 29.5195 20.5892 29.2904V23.2819L10.2409 29.6502V53.7109ZM30.4362 44.2578H24.5638V53.7091H30.4362V44.2578ZM23.9193 38.8867C24.2755 38.8867 24.5638 38.5985 24.5638 38.2422V34.6615C24.5638 34.3052 24.2755 34.0169 23.9193 34.0169C23.563 34.0169 23.2747 34.3052 23.2747 34.6615V38.2422C23.2747 38.5985 23.563 38.8867 23.9193 38.8867ZM31.0807 38.8867C31.437 38.8867 31.7253 38.5985 31.7253 38.2422V34.6615C31.7253 34.3052 31.437 34.0169 31.0807 34.0169C30.7244 34.0169 30.4362 34.3052 30.4362 34.6615V38.2422C30.4362 38.5985 30.7244 38.8867 31.0807 38.8867ZM38.2422 38.8867C38.5985 38.8867 38.8867 38.5985 38.8867 38.2422V34.6615C38.8867 34.3052 38.5985 34.0169 38.2422 34.0169C37.8859 34.0169 37.5976 34.3052 37.5976 34.6615V38.2422C37.5976 38.5985 37.8859 38.8867 38.2422 38.8867Z" fill="url(#paint0_linear_2_15252)"/>
<defs>
<linearGradient id="paint0_linear_2_15252" x1="0.938427" y1="3.17104e-07" x2="31.3081" y2="0.514643" gradientUnits="userSpaceOnUse">
<stop offset="0.0336538" stop-color="#3800A0"/>
<stop offset="0.456731" stop-color="#720C7D"/>
<stop offset="1" stop-color="#E61F4A"/>
</linearGradient>
</defs>
</svg>
