<svg width="57" height="55" viewBox="0 0 57 55" fill="none" xmlns="http://www.w3.org/2000/svg">
<path d="M56.332 55H0.667969V53.6676H56.332V55ZM56.332 42.0458H0.667969C0.29873 42.0458 0 41.7478 0 41.3795V0.666218C0 0.297948 0.29873 0 0.667969 0H56.332C56.7013 0 57 0.297948 57 0.666218V41.3795C57 41.7478 56.7013 42.0458 56.332 42.0458ZM1.33594 40.7133H55.6641V1.33244H1.33594V40.7133ZM21.0874 31.2974C20.9724 31.2974 20.8555 31.266 20.7534 31.2068C20.5475 31.0883 20.4194 30.8681 20.4194 30.6294V11.3979C20.4194 11.161 20.5456 10.9389 20.7534 10.8205C20.9594 10.7039 21.2154 10.7039 21.4214 10.8205L38.1206 20.4381C38.3266 20.5565 38.4564 20.7767 38.4564 21.0155C38.4564 21.2542 38.3284 21.4744 38.1206 21.5929L21.4214 31.2086C21.3175 31.266 21.2024 31.2974 21.0874 31.2974ZM21.7554 12.5508V29.4746L36.4507 21.0136L21.7554 12.5508Z" fill="url(#paint0_linear_2_15276)"/>
<defs>
<linearGradient id="paint0_linear_2_15276" x1="0.972552" y1="3.17104e-07" x2="32.4459" y2="0.55274" gradientUnits="userSpaceOnUse">
<stop offset="0.0336538" stop-color="#3800A0"/>
<stop offset="0.456731" stop-color="#720C7D"/>
<stop offset="1" stop-color="#E61F4A"/>
</linearGradient>
</defs>
</svg>
