<svg width="55" height="55" viewBox="0 0 55 55" fill="none" xmlns="http://www.w3.org/2000/svg">
<path d="M55 53.2256H53.2258V54.9998H55V53.2256Z" fill="url(#paint0_linear_2_15255)"/>
<path d="M55 19.5161V17.7419H37.2581V19.5161H39.0323V27.5H37.2581V29.2742H39.0323V37.2581H36.2823L32.921 5.32258H34.5968V0H23.9516V5.32258H25.6273L22.2661 37.2581H20.8157L7.05952 20.9222C6.87234 19.14 5.37935 17.7419 3.54839 17.7419C1.59145 17.7419 0 19.3334 0 21.2903C0 22.9394 1.1346 24.3162 2.66129 24.7127V53.2258H0V55H51.4516V53.2258H49.6774V44.3548H55V37.2581H53.2258V29.2742H55V27.5H53.2258V19.5161H55ZM40.8064 19.5161H51.4516V27.5H40.8064V19.5161ZM40.8064 29.2742H51.4516V37.2581H40.8064V29.2742ZM34.4442 36.7382L26.9802 29.2742H33.6582L34.4442 36.7382ZM33.3877 26.7034L27.7173 20.4032H32.7241L33.3877 26.7034ZM26.9447 9.75806L27.4113 5.32258H31.1371L31.6037 9.75806H26.9447ZM31.7909 11.5323L32.4056 17.3738L28.317 11.5323H31.7909ZM31.1185 18.629H26.0106L26.6785 12.2854L31.1185 18.629ZM25.7258 1.77419H32.8226V3.54839H32.7339H25.8145H25.7258V1.77419ZM25.7728 20.8938L31.7181 27.5H25.0773L25.7728 20.8938ZM24.8502 29.653L32.4553 37.2581H24.0492L24.8502 29.653ZM18.496 37.2581H14.6602L13.4404 35.4839H17.0021L18.496 37.2581ZM12.8594 30.564L15.5082 33.7097H12.2206L11.8285 33.1393L12.8594 30.564ZM11.5642 29.0249L10.6212 31.3819L7.39661 26.6919L10.843 28.1689L11.5642 29.0249ZM6.58048 23.1071L8.30056 25.1501L5.74573 24.0554C6.0775 23.7902 6.36048 23.4726 6.58048 23.1071ZM1.77419 21.2903C1.77419 20.3119 2.56992 19.5161 3.54839 19.5161C4.52685 19.5161 5.32258 20.3119 5.32258 21.2903C5.32258 22.2688 4.52685 23.0645 3.54839 23.0645C2.56992 23.0645 1.77419 22.2688 1.77419 21.2903ZM11.5323 53.2258H4.43548V25.5173L9.82903 33.3619L9.82193 33.3806L9.84943 33.3912L12.5072 37.2581H6.20968V44.3548H11.5323V53.2258ZM20.4032 49.6774H19.5161V51.4516H20.4032V53.2258H13.3065V51.4516H17.7419V49.6774H13.3065V44.3548H20.4032V49.6774ZM39.0323 53.2258H22.1774V44.3548H39.0323V53.2258ZM47.9032 49.6774H47.0161V51.4516H47.9032V53.2258H40.8064V51.4516H45.2419V49.6774H40.8064V44.3548H47.9032V49.6774ZM53.2258 42.5806H7.98387V39.0323H22.0798H36.4685H53.2258V42.5806Z" fill="url(#paint1_linear_2_15255)"/>
<path d="M44.3548 21.29H42.5806V23.0642H44.3548V21.29Z" fill="url(#paint2_linear_2_15255)"/>
<path d="M47.9033 21.29H46.1292V23.0642H47.9033V21.29Z" fill="url(#paint3_linear_2_15255)"/>
<path d="M49.6775 33.71H47.9033V35.4842H49.6775V33.71Z" fill="url(#paint4_linear_2_15255)"/>
<path d="M46.1289 33.71H44.3547V35.4842H46.1289V33.71Z" fill="url(#paint5_linear_2_15255)"/>
<defs>
<linearGradient id="paint0_linear_2_15255" x1="53.2561" y1="53.2256" x2="54.2358" y2="53.2422" gradientUnits="userSpaceOnUse">
<stop offset="0.0336538" stop-color="#3800A0"/>
<stop offset="0.456731" stop-color="#720C7D"/>
<stop offset="1" stop-color="#E61F4A"/>
</linearGradient>
<linearGradient id="paint1_linear_2_15255" x1="0.938427" y1="3.17104e-07" x2="31.3081" y2="0.514643" gradientUnits="userSpaceOnUse">
<stop offset="0.0336538" stop-color="#3800A0"/>
<stop offset="0.456731" stop-color="#720C7D"/>
<stop offset="1" stop-color="#E61F4A"/>
</linearGradient>
<linearGradient id="paint2_linear_2_15255" x1="42.6108" y1="21.29" x2="43.5905" y2="21.3066" gradientUnits="userSpaceOnUse">
<stop offset="0.0336538" stop-color="#3800A0"/>
<stop offset="0.456731" stop-color="#720C7D"/>
<stop offset="1" stop-color="#E61F4A"/>
</linearGradient>
<linearGradient id="paint3_linear_2_15255" x1="46.1594" y1="21.29" x2="47.1391" y2="21.3066" gradientUnits="userSpaceOnUse">
<stop offset="0.0336538" stop-color="#3800A0"/>
<stop offset="0.456731" stop-color="#720C7D"/>
<stop offset="1" stop-color="#E61F4A"/>
</linearGradient>
<linearGradient id="paint4_linear_2_15255" x1="47.9336" y1="33.71" x2="48.9133" y2="33.7266" gradientUnits="userSpaceOnUse">
<stop offset="0.0336538" stop-color="#3800A0"/>
<stop offset="0.456731" stop-color="#720C7D"/>
<stop offset="1" stop-color="#E61F4A"/>
</linearGradient>
<linearGradient id="paint5_linear_2_15255" x1="44.385" y1="33.71" x2="45.3647" y2="33.7266" gradientUnits="userSpaceOnUse">
<stop offset="0.0336538" stop-color="#3800A0"/>
<stop offset="0.456731" stop-color="#720C7D"/>
<stop offset="1" stop-color="#E61F4A"/>
</linearGradient>
</defs>
</svg>
