<svg width="57" height="55" viewBox="0 0 57 55" fill="none" xmlns="http://www.w3.org/2000/svg">
<path d="M44.5312 12.9538V13.62C44.5312 34.124 44.1342 42.0555 41.5625 53.6658H38.4453V5.55163H29.168V0.666196C29.168 0.297938 28.8692 0 28.5 0C28.1308 0 27.832 0.297938 27.832 0.666196V5.55163H18.5547V53.6658H13.8455C12.94 49.0357 12.4688 44.2835 12.4688 39.5276C12.4688 32.9378 13.3445 26.4091 15.072 20.1173L15.174 19.7434L6.94316 11.5344L6.52568 12.3505C2.19502 20.8149 0 29.9584 0 39.5276C0 44.3094 0.586328 49.0579 1.70518 53.6658H0V55H57V54.332V53.6658V12.9538H44.5312ZM44.4106 45.7454H47.0547V44.413H44.5999C45.6445 36.7314 45.8616 28.5909 45.8672 14.2862H46.3886C46.3904 28.2208 46.5166 37.7381 53.4802 53.6658H42.93C43.5367 50.8973 44.0247 48.3251 44.4106 45.7454ZM19.8906 6.88402H37.1094V53.6658H19.8906V6.88402ZM7.30313 13.7773L13.6822 20.1395C13.3371 21.4237 13.0495 22.7247 12.773 24.0275L5.80947 17.0805C6.27334 15.9683 6.76689 14.8673 7.30313 13.7773ZM1.68848 45.7454H4.37891V44.413H1.5623C1.44727 43.0103 1.37305 41.6058 1.35635 40.1938H4.37891V38.8614H1.35449C1.43242 31.772 2.75537 24.9305 5.28066 18.437L12.4558 25.593C12.2034 26.9254 11.9715 28.2633 11.7934 29.6087H8.08984V30.9411H11.6542C11.3276 33.7854 11.1328 36.6482 11.1328 39.5276C11.1328 44.2835 11.5985 49.032 12.4892 53.6658H3.07266C2.42695 51.0676 1.97236 48.4195 1.68848 45.7454ZM54.933 53.6658C47.8414 37.6604 47.7264 28.6908 47.7245 14.2862H55.6622V18.5054H52.6211V19.8378H55.6641V22.2065H52.6211V23.5389H55.6641V53.6658H54.933ZM35.9219 11.1033V12.4357H21.0781V11.1033H35.9219ZM21.0781 16.6549H35.9219V17.9873H21.0781V16.6549ZM21.0781 22.2065H35.9219V23.5389H21.0781V22.2065ZM21.0781 27.7582H35.9219V29.0905H21.0781V27.7582ZM21.0781 33.3098H35.9219V34.644H21.0781V33.3098ZM21.0781 38.8614H35.9219V40.1957H21.0781V38.8614ZM21.0781 44.413H35.9219V45.7473H21.0781V44.413Z" fill="url(#paint0_linear_2_15203)"/>
<defs>
<linearGradient id="paint0_linear_2_15203" x1="0.972552" y1="3.17104e-07" x2="32.4459" y2="0.55274" gradientUnits="userSpaceOnUse">
<stop offset="0.0336538" stop-color="#3800A0"/>
<stop offset="0.456731" stop-color="#720C7D"/>
<stop offset="1" stop-color="#E61F4A"/>
</linearGradient>
</defs>
</svg>
