<svg width="60" height="45" viewBox="0 0 60 45" fill="none" xmlns="http://www.w3.org/2000/svg">
<path d="M29.6584 4.97168C19.6987 4.97168 11.5959 13.0745 11.5959 23.0342C11.5959 32.994 19.6987 41.0969 29.6584 41.0969C39.6182 41.0969 47.721 32.994 47.721 23.0342C47.721 13.0745 39.6182 4.97168 29.6584 4.97168ZM29.6584 40.1399C20.2264 40.1399 12.5531 32.4662 12.5531 23.0342C12.5531 13.6022 20.2264 5.92882 29.6584 5.92882C39.0905 5.92882 46.764 13.6022 46.764 23.0342C46.764 32.4662 39.0905 40.1399 29.6584 40.1399Z" fill="url(#paint0_linear_2_15247)"/>
<path d="M29.6587 8.34961C21.5612 8.34961 14.9734 14.9374 14.9734 23.0347C14.9734 31.1322 21.5612 37.7199 29.6587 37.7199C37.756 37.7199 44.3437 31.1321 44.3437 23.0347C44.3438 14.9374 37.756 8.34961 29.6587 8.34961ZM29.6587 36.763C22.089 36.763 15.9304 30.6047 15.9304 23.0348C15.9304 15.4651 22.089 9.30675 29.6587 9.30675C37.2283 9.30675 43.3868 15.465 43.3868 23.0347C43.3868 30.6047 37.2285 36.763 29.6587 36.763Z" fill="url(#paint1_linear_2_15247)"/>
<path d="M59.9852 7.2059C59.9852 3.23244 57.559 0 54.5769 0C51.5947 0 49.1687 3.23244 49.1687 7.2059C49.1687 10.9643 51.3396 14.0581 54.0984 14.382V19.5684H52.9607V44.3548H56.1927V19.5682H55.0552V14.3819C57.8141 14.058 59.9852 10.9643 59.9852 7.2059ZM55.236 20.5254V43.3976H53.9179V20.5254H55.236ZM54.5769 13.4548C52.1225 13.4548 50.1258 10.6514 50.1258 7.20577C50.1258 3.76013 52.1225 0.956746 54.5769 0.956746C57.0313 0.956746 59.0281 3.76013 59.0281 7.20577C59.0281 10.6514 57.0313 13.4548 54.5769 13.4548Z" fill="url(#paint2_linear_2_15247)"/>
<path d="M8.89273 10.1328C8.89273 12.1586 7.36617 13.8336 5.40324 14.0708V1.54785H4.44623V14.0708C2.4833 13.8336 0.957008 12.1586 0.957008 10.1328V1.54785H0V10.1328C0 12.6869 1.95442 14.7926 4.44623 15.034V20.2141H3.30872V45.0005H6.54088V20.2141H5.40311V15.034C7.89492 14.7926 9.84947 12.6869 9.84947 10.1328V1.54785H8.8926L8.89273 10.1328ZM5.58388 21.1711V44.0434H4.26573V21.1711H5.58388Z" fill="url(#paint3_linear_2_15247)"/>
<defs>
<linearGradient id="paint0_linear_2_15247" x1="12.2123" y1="4.97168" x2="32.1597" y2="5.30971" gradientUnits="userSpaceOnUse">
<stop offset="0.0336538" stop-color="#3800A0"/>
<stop offset="0.456731" stop-color="#720C7D"/>
<stop offset="1" stop-color="#E61F4A"/>
</linearGradient>
<linearGradient id="paint1_linear_2_15247" x1="15.4745" y1="8.34961" x2="31.6921" y2="8.62443" gradientUnits="userSpaceOnUse">
<stop offset="0.0336538" stop-color="#3800A0"/>
<stop offset="0.456731" stop-color="#720C7D"/>
<stop offset="1" stop-color="#E61F4A"/>
</linearGradient>
<linearGradient id="paint2_linear_2_15247" x1="49.3533" y1="2.55729e-07" x2="55.3275" y2="0.0246884" gradientUnits="userSpaceOnUse">
<stop offset="0.0336538" stop-color="#3800A0"/>
<stop offset="0.456731" stop-color="#720C7D"/>
<stop offset="1" stop-color="#E61F4A"/>
</linearGradient>
<linearGradient id="paint3_linear_2_15247" x1="0.168055" y1="1.54785" x2="5.60818" y2="1.56875" gradientUnits="userSpaceOnUse">
<stop offset="0.0336538" stop-color="#3800A0"/>
<stop offset="0.456731" stop-color="#720C7D"/>
<stop offset="1" stop-color="#E61F4A"/>
</linearGradient>
</defs>
</svg>
