<svg width="55" height="55" viewBox="0 0 55 55" fill="none" xmlns="http://www.w3.org/2000/svg">
<path d="M40.3573 53.1237L39.711 52.0082C46.2352 48.2269 50.1293 41.7421 50.1311 34.6629H51.422C51.4184 42.2058 47.2826 49.106 40.3573 53.1237ZM49.9413 27.3008C49.7193 27.3008 49.5027 27.1862 49.3827 26.9785L44.1548 17.9406L42.0904 19.133C41.9472 19.2153 41.7789 19.2386 41.616 19.201L39.2383 18.6245C39.4066 19.3425 39.3959 20.0944 39.2007 20.8267C38.8856 21.9976 38.1355 22.9752 37.0845 23.5821C36.9359 23.6681 36.7568 23.6895 36.5975 23.6466C36.431 23.6036 36.2913 23.4944 36.2054 23.3476L34.5385 20.4597L33.1922 21.2367L32.5494 20.1195L33.894 19.3442L32.3131 16.6049C32.2271 16.4563 32.2039 16.2809 32.2486 16.1162C32.2934 15.9514 32.4008 15.81 32.5494 15.7241C34.3165 14.7017 36.4955 15.0151 37.9152 16.3382L38.6063 13.9874C38.6529 13.828 38.7603 13.6938 38.9035 13.6114L40.9195 12.4494L35.7739 3.51176C35.5967 3.20382 35.7041 2.80993 36.012 2.63089L40.42 0.0867348C40.565 0.000795748 40.7405 -0.0224794 40.9088 0.0222805C41.0735 0.0670404 41.2149 0.174464 41.3009 0.323067L46.4429 9.26252L48.0954 8.31003C48.4016 8.13457 48.7973 8.23662 48.9745 8.54636L51.5187 12.9525C51.6046 13.1011 51.6279 13.2766 51.5831 13.4413C51.5384 13.606 51.4309 13.7475 51.2823 13.8334L49.6799 14.7572L54.9133 23.7916C54.9992 23.9402 55.0225 24.1157 54.9777 24.2822C54.9347 24.4469 54.8255 24.5883 54.6769 24.6743L50.2618 27.2184C50.1616 27.2739 50.0523 27.3008 49.9413 27.3008ZM45.2738 17.2978L50.1777 25.7771L53.4756 23.8757L48.5645 15.3982L45.2738 17.2978ZM33.7848 16.5727L36.9681 22.0889C37.4444 21.67 37.7863 21.1203 37.9546 20.4937C38.1748 19.6737 38.0692 18.8179 37.6574 18.0766C37.6467 18.0605 37.6359 18.0444 37.627 18.0283C37.6162 18.0122 37.6073 17.9943 37.6001 17.9782C36.8052 16.6551 35.1956 16.0983 33.7848 16.5727ZM38.9948 17.2405L41.6697 17.8887L50.0792 13.0385L48.1796 9.74951L39.7701 14.5997L38.9948 17.2405ZM37.2134 3.42403L42.0349 11.8049L45.3257 9.90527L40.5059 1.52442L37.2134 3.42403ZM17.6533 55C15.7877 55 13.9902 54.7082 12.3018 54.1693C12.2409 54.1585 12.1801 54.1388 12.1246 54.112C11.002 53.7413 9.92954 53.2597 8.91797 52.6814C8.88753 52.6707 8.85888 52.6564 8.83024 52.6403C8.80159 52.6241 8.77295 52.6044 8.74788 52.5848C3.51813 49.516 0 43.8351 0 37.3467C0 34.2153 0.820002 31.2701 2.2559 28.717C2.26127 28.708 2.26664 28.6973 2.27201 28.6883C5.30316 23.3225 11.0629 19.6934 17.6515 19.6934C27.3859 19.6934 35.3048 27.6123 35.3048 37.3467C35.3066 47.0811 27.3877 55 17.6533 55ZM13.6768 53.2221C14.9498 53.5408 16.2819 53.7109 17.6533 53.7109C25.6761 53.7109 32.3686 47.9082 33.7544 40.2794H31.2872C30.5603 40.2794 29.8835 39.8873 29.5219 39.2588L26.8076 34.5393C26.4477 33.9127 26.4477 33.1375 26.8058 32.5108L30.1145 26.7511C27.2624 23.3995 23.0836 21.2098 18.3999 20.9986L20.3496 24.3753C20.8241 25.1988 20.6719 26.2301 19.9772 26.88L15.6803 30.844C15.4278 31.0803 15.3723 31.4581 15.546 31.7606L22.0774 43.1028C22.55 43.9228 22.3997 44.9487 21.7104 45.6004L13.6768 53.2221ZM10.0423 51.831C10.7513 52.2052 11.4908 52.5293 12.2535 52.796L20.8241 44.664C21.0783 44.4223 21.1338 44.0463 20.9602 43.7456L14.4288 32.4034C13.9544 31.578 14.1083 30.5503 14.8012 29.9004L19.0982 25.9365C19.3506 25.7019 19.4061 25.3224 19.2307 25.0216L16.9103 20.9986C11.2365 21.2546 6.30578 24.4111 3.57005 29.0178L5.31927 32.0292C5.45176 32.2584 5.69883 32.3998 5.96381 32.3998H10.4488C11.1757 32.3998 11.8506 32.7919 12.2123 33.4186L14.0546 36.6073C14.5291 37.429 14.3787 38.4585 13.6858 39.1084L11.2168 41.4306C10.9626 41.6687 10.9089 42.0447 11.0826 42.3473L12.7136 45.1725C13.0771 45.8027 13.0753 46.5816 12.7136 47.21L10.0423 51.831ZM2.85747 30.3588C1.85127 32.4786 1.28909 34.8473 1.28909 37.3467C1.28909 43.1637 4.33992 48.2806 8.92692 51.1847L11.5982 46.5672C11.7307 46.3363 11.7307 46.0498 11.5982 45.8188L9.96714 42.9936C9.49268 42.1718 9.64487 41.1441 10.336 40.4942L12.8049 38.1721C13.0592 37.9339 13.1147 37.5562 12.9392 37.2536L11.0969 34.0649C10.9644 33.8339 10.7173 33.6925 10.4505 33.6925H5.96381C5.24228 33.6925 4.5673 33.304 4.20385 32.6791L2.85747 30.3588ZM30.9703 27.8468L27.923 33.1518C27.7923 33.381 27.7923 33.6656 27.923 33.8948L30.6391 38.6143C30.7716 38.8452 31.0186 38.9885 31.2854 38.9885H33.9334C33.9853 38.4478 34.014 37.9017 34.014 37.3467C34.0175 33.8071 32.8896 30.5271 30.9703 27.8468ZM17.6694 2.43395L18.4805 1.6229C18.7329 1.37045 18.7329 0.964029 18.4805 0.711583C18.228 0.459137 17.8216 0.459137 17.5692 0.711583L16.7581 1.52263L15.9471 0.713374C15.6946 0.460928 15.2882 0.460928 15.0358 0.713374C14.7833 0.96582 14.7833 1.37224 15.0358 1.62469L15.8468 2.43395L15.0375 3.245C14.7851 3.49744 14.7851 3.90386 15.0375 4.15631C15.1629 4.28163 15.3276 4.3443 15.4923 4.3443C15.657 4.3443 15.8217 4.28163 15.9471 4.15631L16.7581 3.34526L17.5692 4.15631C17.6945 4.28163 17.8592 4.3443 18.0239 4.3443C18.1886 4.3443 18.3534 4.28163 18.4787 4.15631C18.7311 3.90386 18.7311 3.49744 18.4787 3.245L17.6694 2.43395ZM3.34625 13.1763L4.1573 12.3653C4.40975 12.1128 4.40975 11.7064 4.1573 11.454C3.90486 11.2015 3.49844 11.2015 3.24599 11.454L2.43494 12.265L1.62389 11.4558C1.37144 11.2033 0.965024 11.2033 0.712578 11.4558C0.460132 11.7082 0.460132 12.1146 0.712578 12.3671L1.52363 13.1763L0.714368 13.9874C0.461922 14.2398 0.461922 14.6462 0.714368 14.8987C0.839696 15.024 1.00441 15.0867 1.16913 15.0867C1.33385 15.0867 1.49856 15.024 1.62389 14.8987L2.43494 14.0876L3.24599 14.8987C3.37132 15.024 3.53603 15.0867 3.70075 15.0867C3.86547 15.0867 4.03018 15.024 4.15551 14.8987C4.40796 14.6462 4.40796 14.2398 4.15551 13.9874L3.34625 13.1763Z" fill="url(#paint0_linear_2_15236)"/>
<defs>
<linearGradient id="paint0_linear_2_15236" x1="0.938427" y1="3.17104e-07" x2="31.3081" y2="0.514643" gradientUnits="userSpaceOnUse">
<stop offset="0.0336538" stop-color="#3800A0"/>
<stop offset="0.456731" stop-color="#720C7D"/>
<stop offset="1" stop-color="#E61F4A"/>
</linearGradient>
</defs>
</svg>
