<svg width="62" height="55" viewBox="0 0 62 55" fill="none" xmlns="http://www.w3.org/2000/svg">
<path d="M43.5183 55C40.4829 55 37.969 52.7319 37.5976 49.8123H24.4024C24.031 52.7319 21.5192 55 18.4838 55C15.1938 55 12.5172 52.3377 12.5172 49.0653C12.5172 47.1396 13.4435 45.4277 14.8747 44.3424L8.2739 32.973C7.56459 33.2677 6.78435 33.4337 5.96655 33.4337C2.6766 33.4337 0 30.7714 0 27.499C0 24.2266 2.6766 21.5642 5.96655 21.5642C6.78435 21.5642 7.56459 21.7282 8.2739 22.027L14.8747 10.6576C13.4414 9.57234 12.5172 7.85833 12.5172 5.93473C12.5172 2.66233 15.1938 0 18.4838 0C21.5192 0 24.0331 2.26599 24.4024 5.1877H37.5997C37.9711 2.26599 40.4829 0 43.5183 0C46.8082 0 49.4848 2.66233 49.4848 5.93473C49.4848 7.85833 48.5586 9.57234 47.1274 10.6576L53.724 22.027C54.4354 21.7282 55.2157 21.5642 56.0334 21.5642C59.3234 21.5642 62 24.2266 62 27.499C62 30.7714 59.3234 33.4337 56.0334 33.4337C55.2136 33.4337 54.4333 33.2677 53.724 32.9689L47.1253 44.3382C48.5586 45.4235 49.4848 47.1375 49.4848 49.0611C49.4848 52.3377 46.8082 55 43.5183 55ZM43.5183 44.6246C41.0566 44.6246 39.0538 46.6167 39.0538 49.0653C39.0538 51.5139 41.0566 53.5059 43.5183 53.5059C45.98 53.5059 47.9828 51.5139 47.9828 49.0653C47.9828 46.6167 45.98 44.6246 43.5183 44.6246ZM18.4838 44.6246C16.0221 44.6246 14.0193 46.6167 14.0193 49.0653C14.0193 51.5139 16.0221 53.5059 18.4838 53.5059C20.9455 53.5059 22.9483 51.5139 22.9483 49.0653C22.9483 46.6167 20.9455 44.6246 18.4838 44.6246ZM24.4024 48.3162H37.5976C37.8042 46.6997 38.6658 45.2824 39.9091 44.3403L34.7374 35.4341H27.2605L22.0908 44.3403C23.3363 45.2824 24.1979 46.6997 24.4024 48.3162ZM9.57361 32.2218L16.1744 43.5912C17.5951 42.9957 19.3704 42.9957 20.7932 43.5912L25.9629 34.685L22.2244 28.2439H11.8851C11.6807 29.8646 10.8191 31.2798 9.57361 32.2218ZM43.5183 43.1285C44.3382 43.1285 45.1184 43.2945 45.8277 43.5933L52.4264 32.2239C51.1809 31.2818 50.3193 29.8646 50.1149 28.246H39.7798L36.0413 34.687L41.2109 43.5933C41.9182 43.2945 42.6984 43.1285 43.5183 43.1285ZM27.2626 33.94H34.7395L38.478 27.499L34.7395 21.0579H27.2626L23.5241 27.499L27.2626 33.94ZM56.0355 23.0583C53.5738 23.0583 51.571 25.0504 51.571 27.499C51.571 29.9476 53.5738 31.9396 56.0355 31.9396C58.4973 31.9396 60.5 29.9476 60.5 27.499C60.5 25.0504 58.4973 23.0583 56.0355 23.0583ZM5.96655 23.0583C3.50483 23.0583 1.50207 25.0504 1.50207 27.499C1.50207 29.9476 3.50483 31.9396 5.96655 31.9396C8.42828 31.9396 10.431 29.9476 10.431 27.499C10.431 25.0504 8.42828 23.0583 5.96655 23.0583ZM39.7798 26.7519H50.1149C50.3214 25.1354 51.183 23.7182 52.4264 22.7761L45.8277 11.4067C44.4049 12.0023 42.6275 12.0023 41.2089 11.4067L36.0392 20.3109L39.7798 26.7519ZM11.8851 26.7519H22.2223L25.9608 20.3109L20.7911 11.4067C19.3683 12.0023 17.593 12.0023 16.1723 11.4067L9.57361 22.7761C10.8191 23.7182 11.6807 25.1354 11.8851 26.7519ZM27.2626 19.5639H34.7395L39.9112 10.6576C38.6658 9.71345 37.8042 8.29825 37.5997 6.67968H24.4045C24.2 8.29825 23.3384 9.71345 22.095 10.6576L27.2626 19.5639ZM43.5183 1.49406C41.0566 1.49406 39.0538 3.48613 39.0538 5.93473C39.0538 8.38332 41.0566 10.3754 43.5183 10.3754C45.98 10.3754 47.9828 8.38332 47.9828 5.93473C47.9828 3.48613 45.98 1.49406 43.5183 1.49406ZM18.4838 1.49406C16.0221 1.49406 14.0193 3.48613 14.0193 5.93473C14.0193 8.38332 16.0221 10.3754 18.4838 10.3754C20.9455 10.3754 22.9483 8.38332 22.9483 5.93473C22.9483 3.48613 20.9455 1.49406 18.4838 1.49406Z" fill="url(#paint0_linear_2_15907)"/>
<defs>
<linearGradient id="paint0_linear_2_15907" x1="1.05786" y1="3.17104e-07" x2="35.2901" y2="0.653928" gradientUnits="userSpaceOnUse">
<stop offset="0.0336538" stop-color="#3800A0"/>
<stop offset="0.456731" stop-color="#720C7D"/>
<stop offset="1" stop-color="#E61F4A"/>
</linearGradient>
</defs>
</svg>
