<svg width="55" height="55" viewBox="0 0 55 55" fill="none" xmlns="http://www.w3.org/2000/svg">
<path d="M49.8796 55C47.0562 55 44.7591 52.703 44.7591 49.8796C44.7591 47.0562 47.0562 44.7591 49.8796 44.7591C52.703 44.7591 55 47.0562 55 49.8796C55 52.703 52.703 55 49.8796 55ZM49.8796 46.0482C47.7669 46.0482 46.0482 47.7669 46.0482 49.8796C46.0482 51.9922 47.7669 53.7109 49.8796 53.7109C51.9922 53.7109 53.7109 51.9922 53.7109 49.8796C53.7109 47.7669 51.9922 46.0482 49.8796 46.0482ZM27.5 55C24.6766 55 22.3796 52.703 22.3796 49.8796C22.3796 47.0562 24.6766 44.7591 27.5 44.7591C30.3234 44.7591 32.6204 47.0562 32.6204 49.8796C32.6204 52.703 30.3234 55 27.5 55ZM27.5 46.0482C25.3874 46.0482 23.6686 47.7669 23.6686 49.8796C23.6686 51.9922 25.3874 53.7109 27.5 53.7109C29.6126 53.7109 31.3314 51.9922 31.3314 49.8796C31.3314 47.7669 29.6126 46.0482 27.5 46.0482ZM5.12044 55C2.29704 55 0 52.703 0 49.8796C0 47.0562 2.29704 44.7591 5.12044 44.7591C7.94385 44.7591 10.2409 47.0562 10.2409 49.8796C10.2409 52.703 7.94385 55 5.12044 55ZM5.12044 46.0482C3.00781 46.0482 1.28906 47.7669 1.28906 49.8796C1.28906 51.9922 3.00781 53.7109 5.12044 53.7109C7.23307 53.7109 8.95182 51.9922 8.95182 49.8796C8.95182 47.7669 7.23307 46.0482 5.12044 46.0482ZM38.2422 38.8867H16.7578C16.4015 38.8867 16.1133 38.5985 16.1133 38.2422V16.7578C16.1133 16.4015 16.4015 16.1133 16.7578 16.1133H38.2422C38.5985 16.1133 38.8867 16.4015 38.8867 16.7578V38.2422C38.8867 38.5985 38.5985 38.8867 38.2422 38.8867ZM17.4023 37.5977H37.5977V24.5638H17.4023V37.5977ZM17.4023 23.2747H37.5977V17.4023H17.4023V23.2747ZM49.8796 32.6204C47.0562 32.6204 44.7591 30.3234 44.7591 27.5C44.7591 24.6766 47.0562 22.3796 49.8796 22.3796C52.703 22.3796 55 24.6766 55 27.5C55 30.3234 52.703 32.6204 49.8796 32.6204ZM49.8796 23.6686C47.7669 23.6686 46.0482 25.3874 46.0482 27.5C46.0482 29.6126 47.7669 31.3314 49.8796 31.3314C51.9922 31.3314 53.7109 29.6126 53.7109 27.5C53.7109 25.3874 51.9922 23.6686 49.8796 23.6686ZM5.12044 32.6204C2.29704 32.6204 0 30.3234 0 27.5C0 24.6766 2.29704 22.3796 5.12044 22.3796C7.94385 22.3796 10.2409 24.6766 10.2409 27.5C10.2409 30.3234 7.94385 32.6204 5.12044 32.6204ZM5.12044 23.6686C3.00781 23.6686 1.28906 25.3874 1.28906 27.5C1.28906 29.6126 3.00781 31.3314 5.12044 31.3314C7.23307 31.3314 8.95182 29.6126 8.95182 27.5C8.95182 25.3874 7.23307 23.6686 5.12044 23.6686ZM34.6615 31.7253H20.3385V30.4362H34.6615V31.7253ZM49.8796 10.2409C47.0562 10.2409 44.7591 7.94385 44.7591 5.12044C44.7591 2.29704 47.0562 0 49.8796 0C52.703 0 55 2.29704 55 5.12044C55 7.94385 52.703 10.2409 49.8796 10.2409ZM49.8796 1.28906C47.7669 1.28906 46.0482 3.00781 46.0482 5.12044C46.0482 7.23307 47.7669 8.95182 49.8796 8.95182C51.9922 8.95182 53.7109 7.23307 53.7109 5.12044C53.7109 3.00781 51.9922 1.28906 49.8796 1.28906ZM27.5 10.2409C24.6766 10.2409 22.3796 7.94385 22.3796 5.12044C22.3796 2.29704 24.6766 0 27.5 0C30.3234 0 32.6204 2.29704 32.6204 5.12044C32.6204 7.94385 30.3234 10.2409 27.5 10.2409ZM27.5 1.28906C25.3874 1.28906 23.6686 3.00781 23.6686 5.12044C23.6686 7.23307 25.3874 8.95182 27.5 8.95182C29.6126 8.95182 31.3314 7.23307 31.3314 5.12044C31.3314 3.00781 29.6126 1.28906 27.5 1.28906ZM5.12044 10.2409C2.29704 10.2409 0 7.94385 0 5.12044C0 2.29704 2.29704 0 5.12044 0C7.94385 0 10.2409 2.29704 10.2409 5.12044C10.2409 7.94385 7.94385 10.2409 5.12044 10.2409ZM5.12044 1.28906C3.00781 1.28906 1.28906 3.00781 1.28906 5.12044C1.28906 7.23307 3.00781 8.95182 5.12044 8.95182C7.23307 8.95182 8.95182 7.23307 8.95182 5.12044C8.95182 3.00781 7.23307 1.28906 5.12044 1.28906ZM34.6615 19.4434C34.1673 19.4434 33.7663 19.8444 33.7663 20.3385C33.7663 20.8327 34.1673 21.2337 34.6615 21.2337C35.1556 21.2337 35.5566 20.8327 35.5566 20.3385C35.5566 19.8444 35.1556 19.4434 34.6615 19.4434Z" fill="url(#paint0_linear_2_15903)"/>
<defs>
<linearGradient id="paint0_linear_2_15903" x1="0.938427" y1="3.17104e-07" x2="31.3081" y2="0.514643" gradientUnits="userSpaceOnUse">
<stop offset="0.0336538" stop-color="#3800A0"/>
<stop offset="0.456731" stop-color="#720C7D"/>
<stop offset="1" stop-color="#E61F4A"/>
</linearGradient>
</defs>
</svg>
