<svg width="48" height="55" viewBox="0 0 48 55" fill="none" xmlns="http://www.w3.org/2000/svg">
<path d="M48 55H0V53.6844H12.2455L21.5003 19.5003C20.3778 18.7201 19.6431 17.4282 19.6431 15.9701C19.6431 13.5929 21.5982 11.6578 24 11.6578C26.4037 11.6578 28.3569 13.5929 28.3569 15.9701C28.3569 17.4282 27.6222 18.7201 26.4978 19.5003L35.7545 53.6844H48V55ZM13.6228 53.6844H34.3791L32.7563 47.6929H15.2455L13.6228 53.6844ZM15.6018 46.3754H32.4L30.2843 38.5566H17.7194L15.6018 46.3754ZM18.0757 37.2392H29.9262L27.8105 29.4204H20.1932L18.0757 37.2392ZM20.5477 28.103H27.4523L25.2831 20.0905C24.4726 20.339 23.5274 20.339 22.7169 20.0905L20.5477 28.103ZM24 12.9734C22.3311 12.9734 20.9723 14.3183 20.9723 15.9701C20.9723 17.6219 22.3311 18.9668 24 18.9668C25.6689 18.9668 27.0277 17.6219 27.0277 15.9701C27.0277 14.3183 25.6689 12.9734 24 12.9734ZM7.89415 31.9676C3.56492 27.6992 1.18154 22.0183 1.18154 15.9701C1.18154 9.93837 3.55569 4.26661 7.86462 0L8.80431 0.930067C4.74646 4.94817 2.51077 10.2892 2.51077 15.9701C2.51077 21.6656 4.75569 27.0158 8.832 31.0357L7.89415 31.9676ZM40.1354 31.9402L39.1938 31.0083C43.2535 26.992 45.4874 21.651 45.4874 15.9701C45.4874 10.2874 43.2535 4.94635 39.1938 0.930067L40.1354 0C44.4443 4.26478 46.8185 9.93654 46.8185 15.9701C46.8185 22.0037 44.4443 27.6736 40.1354 31.9402ZM11.7822 28.0628C8.51815 24.8341 6.72 20.5382 6.72 15.9701C6.72 11.402 8.51815 7.10615 11.7822 3.87741L12.7218 4.80748C9.70892 7.78771 8.04923 11.7528 8.04923 15.9701C8.04923 20.1874 9.70892 24.1525 12.7218 27.1327L11.7822 28.0628ZM36.2197 28.0628L35.2782 27.1327C38.2911 24.1507 39.9489 20.1855 39.9489 15.9701C39.9489 11.7547 38.2911 7.78953 35.2782 4.80748L36.2197 3.87741C39.4837 7.10797 41.28 11.402 41.28 15.9701C41.28 20.5382 39.4837 24.8322 36.2197 28.0628ZM32.3022 24.1872L31.3606 23.2571C33.3268 21.3093 34.4105 18.7219 34.4105 15.9701C34.4105 13.2183 33.3268 10.6309 31.3606 8.68306L32.3022 7.75299C34.5194 9.94751 35.7415 12.8656 35.7415 15.9701C35.7415 19.0746 34.5194 21.9927 32.3022 24.1872ZM15.6978 24.1872C13.4806 21.9927 12.2585 19.0746 12.2585 15.9701C12.2585 12.8656 13.4806 9.94751 15.6978 7.75299L16.6375 8.68306C14.6714 10.6291 13.5877 13.2183 13.5877 15.9701C13.5877 18.7219 14.6714 21.3111 16.6375 23.2571L15.6978 24.1872Z" fill="url(#paint0_linear_2_15270)"/>
<defs>
<linearGradient id="paint0_linear_2_15270" x1="0.818991" y1="3.17104e-07" x2="27.3253" y2="0.392006" gradientUnits="userSpaceOnUse">
<stop offset="0.0336538" stop-color="#3800A0"/>
<stop offset="0.456731" stop-color="#720C7D"/>
<stop offset="1" stop-color="#E61F4A"/>
</linearGradient>
</defs>
</svg>
