<svg width="54" height="55" viewBox="0 0 54 55" fill="none" xmlns="http://www.w3.org/2000/svg">
<path d="M5.91407 11.3867L13.5099 14.9689V23.3772C13.5099 23.8118 13.8626 24.1645 14.2972 24.1645H39.2386C39.6732 24.1645 40.0259 23.8118 40.0259 23.3772V14.9689L46.4975 11.9173V17.5512C45.5826 17.8772 44.9213 18.7432 44.9213 19.7698C44.9213 21.0736 45.981 22.1333 47.2848 22.1333C48.5885 22.1333 49.6482 21.0736 49.6482 19.7698C49.6482 18.7432 48.9869 17.8772 48.072 17.5512V10.675C48.072 10.5364 48.0264 10.4136 47.965 10.3002C47.9492 10.2703 47.9303 10.2467 47.9099 10.2199C47.8422 10.127 47.7603 10.0514 47.6595 9.99631C47.6469 9.98844 47.6406 9.9727 47.6264 9.9664L27.1096 0.0779424C26.8923 -0.0259808 26.6419 -0.0259808 26.4246 0.0779424L5.90778 9.9664C5.63537 10.0971 5.46059 10.3758 5.46217 10.6781C5.46532 10.982 5.6401 11.2576 5.91407 11.3867ZM38.4513 22.5899H15.0845V14.4697V11.5048L17.3818 11.1379C23.6093 10.1365 29.9249 10.1365 36.1524 11.1379L38.4498 11.5048V14.4697L38.4513 22.5899ZM47.2848 20.5587C46.8502 20.5587 46.4959 20.2044 46.4959 19.7698C46.4959 19.3352 46.8502 18.981 47.2848 18.981C47.7193 18.981 48.0736 19.3352 48.0736 19.7698C48.0736 20.2044 47.7193 20.5587 47.2848 20.5587ZM26.7679 1.66041L45.4551 10.6671L40.0259 13.2274V10.8324C40.0259 10.7301 40.0039 10.6325 39.9677 10.5411C39.9551 10.5096 39.933 10.4829 39.9157 10.4529C39.8858 10.3978 39.8543 10.3459 39.8118 10.3002C39.785 10.2719 39.7535 10.2514 39.722 10.2262C39.6779 10.19 39.6323 10.1569 39.5803 10.1317C39.5425 10.1128 39.5032 10.1034 39.4622 10.0908C39.4276 10.0798 39.3977 10.0609 39.3599 10.0546L36.4012 9.5822C30.0052 8.55399 23.5227 8.55399 17.1299 9.5822L14.1696 10.0546C14.1334 10.0609 14.1035 10.0798 14.0689 10.0908C14.0279 10.1034 13.9886 10.1128 13.9508 10.1317C13.8988 10.1569 13.8547 10.1916 13.8106 10.2262C13.7807 10.2514 13.7476 10.2719 13.7209 10.3002C13.6784 10.3459 13.6484 10.3994 13.6185 10.4529C13.6012 10.4829 13.5792 10.5081 13.5666 10.5411C13.5303 10.6325 13.5083 10.7285 13.5083 10.8324V13.2274L8.07913 10.6671L26.7679 1.66041Z" fill="url(#paint0_linear_2_15243)"/>
<path d="M0.787293 54.9999H18.1077H35.4282H52.7486C53.1832 54.9999 53.5359 54.6472 53.5359 54.2126V36.8921C53.5359 36.4575 53.1832 36.1048 52.7486 36.1048H36.2155V27.4445C36.2155 27.0099 35.8628 26.6572 35.4282 26.6572H18.1077C17.6732 26.6572 17.3204 27.0099 17.3204 27.4445V40.0413H0.787293C0.352707 40.0413 0 40.394 0 40.8286V54.2126C0 54.6472 0.352707 54.9999 0.787293 54.9999ZM51.9613 37.6794V53.4253H36.2155V37.6794H51.9613ZM18.895 28.2318H34.6409V36.8921V53.4253H18.895V40.8286V28.2318ZM1.57459 41.6159H17.3204V53.4253H1.57459V41.6159Z" fill="url(#paint1_linear_2_15243)"/>
<defs>
<linearGradient id="paint0_linear_2_15243" x1="6.21607" y1="1.39321e-07" x2="30.5981" y2="0.755515" gradientUnits="userSpaceOnUse">
<stop offset="0.0336538" stop-color="#3800A0"/>
<stop offset="0.456731" stop-color="#720C7D"/>
<stop offset="1" stop-color="#E61F4A"/>
</linearGradient>
<linearGradient id="paint1_linear_2_15243" x1="0.913447" y1="26.6572" x2="30.4529" y2="27.6028" gradientUnits="userSpaceOnUse">
<stop offset="0.0336538" stop-color="#3800A0"/>
<stop offset="0.456731" stop-color="#720C7D"/>
<stop offset="1" stop-color="#E61F4A"/>
</linearGradient>
</defs>
</svg>
