<svg width="1600" height="850" viewBox="0 0 1600 850" fill="none" xmlns="http://www.w3.org/2000/svg">
<mask id="mask0_811_1202" style="mask-type:alpha" maskUnits="userSpaceOnUse" x="0" y="0" width="1600" height="850">
<rect width="1600" height="850" fill="#D9D9D9"/>
</mask>
<g mask="url(#mask0_811_1202)">
<path d="M1604 0H2V850H1604V0Z" fill="url(#paint0_linear_811_1202)"/>
<path d="M557 851C597.501 757.798 810.107 297.363 1338.26 168.199C1410.82 150.454 1498.48 136.726 1601 135V851H557Z" fill="url(#paint1_linear_811_1202)"/>
<path d="M-16 281C66.0071 303.578 471.139 422.1 584.788 716.531C600.402 756.982 612.481 805.85 614 863H-16V281Z" fill="url(#paint2_radial_811_1202)"/>
<path d="M-32.9487 467.748C24.5426 481.475 308.892 554.099 400.927 754.391C413.571 781.908 424.18 815.302 427.909 854.637L-5.61023 868.666L-32.9487 467.748Z" fill="url(#paint3_linear_811_1202)"/>
<path d="M1137.99 -2.91564C1057.51 62.3889 651.335 376.234 215.486 135.989C155.605 102.983 87.6213 55.3587 16.2099 -14.7385L420.68 -734.439L1137.99 -2.91564Z" fill="url(#paint4_radial_811_1202)"/>
<path opacity="0.56" d="M835.065 1004.1C871.711 926.201 1063.05 541.154 1502.21 425.891C1562.54 410.055 1635.16 397.316 1719.56 394.299L1694.04 987.951L835.065 1004.1Z" fill="url(#paint5_linear_811_1202)"/>
<mask id="mask1_811_1202" style="mask-type:alpha" maskUnits="userSpaceOnUse" x="0" y="0" width="602" height="549">
<rect x="0.5" y="0.5" width="600.644" height="548" fill="#D9D9D9" stroke="#E8E8E8"/>
</mask>
<g mask="url(#mask1_811_1202)">
<path d="M549.043 349.554C506.211 403.889 455.252 435.743 398.693 461.522C332.071 492.62 257.69 518.465 162.719 533.89C65.9575 547.73 -51.3976 551.15 -245.305 500.816C-274.368 493.217 -310.798 481.42 -334.448 466.754C-351.746 456.046 -356.192 447.482 -359.448 439.726C-381.372 387.536 -388.933 335.936 -396.812 273.483C-399.359 253.974 -400.683 232.777 -386.677 216.577C-376.548 204.766 -360.127 196.672 -345.773 187.681C-225.747 110.39 -201.986 -42.6678 -146.852 -156.257C-93.3601 -271.3 -17.6871 -356.709 155.134 -360.387C225.42 -362.032 315.12 -347.498 424.946 -308.106C465.462 -293.746 510.803 -274.753 545.518 -253.96C579.717 -233.48 598.496 -214.648 615.605 -196.848C648.778 -162.399 679.227 -128.543 675.82 -103.271C673.702 -85.779 658.05 -72.0707 645.394 -54.309C632.403 -36.8435 622.407 -15.3236 623.887 10.9644C626.294 46.9439 650.342 83.9829 666.073 124.706C678.329 156.108 659.088 172.154 646.015 194.528C612.323 251.132 582.911 307.621 549.043 349.554Z" stroke="#E8E8E8" stroke-width="0.2444" stroke-miterlimit="10" stroke-linecap="round" stroke-linejoin="round" stroke-dasharray="0.04 14.23"/>
<path d="M-337.799 185.997C-223.876 106.286 -200.176 -44.0033 -145.981 -155.787C-93.3326 -268.977 -18.9522 -353.099 147.979 -359.495C215.854 -362.232 302.224 -349.587 407.999 -312.836C447.029 -299.442 490.705 -281.576 524.401 -261.522C557.609 -241.756 576.189 -223.134 593.141 -205.505C625.996 -171.419 656.295 -137.803 654.112 -111.905C652.823 -93.9954 638.47 -79.5869 626.948 -61.2932C615.109 -43.2796 606.101 -21.3818 608.149 5.00395C611.271 41.1149 635.188 77.8324 651.114 118.337C663.501 149.569 645.063 165.831 632.569 188.213C600.429 244.795 571.755 300.603 538.536 341.952C496.516 395.501 446.278 426.737 390.742 452.183C325.314 482.863 252.509 508.602 160.471 524.994C66.7311 539.879 -46.2411 545.419 -231.313 500.916C-259.064 494.183 -293.849 483.512 -316.773 469.379C-333.546 459.054 -338.153 450.408 -341.61 442.546C-364.9 389.678 -374.491 337.017 -384.243 273.813C-387.37 254.071 -389.35 232.612 -376.401 215.937C-367.024 203.775 -351.44 195.286 -337.799 185.997Z" stroke="#E8E8E8" stroke-width="0.4108" stroke-miterlimit="10" stroke-linecap="round" stroke-linejoin="round" stroke-dasharray="0.04 14.2"/>
<path d="M-330.029 184.131C-221.993 102.188 -198.369 -45.3406 -145.112 -155.319C-93.3061 -266.658 -20.2188 -349.492 140.967 -358.477C206.49 -362.254 289.62 -351.421 391.456 -317.211C429.035 -304.749 471.094 -287.97 503.791 -268.636C536.029 -249.568 554.403 -231.157 571.198 -213.704C603.724 -179.99 633.862 -146.628 632.843 -120.155C632.347 -101.859 619.242 -86.7956 608.812 -68.0072C598.078 -49.4879 590.018 -27.244 592.606 -0.788974C596.408 35.4213 620.183 71.8054 636.281 112.076C648.784 143.124 631.122 159.581 619.188 181.953C588.556 238.472 560.606 293.589 528.034 334.352C486.821 387.111 437.309 417.734 382.79 442.844C318.549 473.1 247.302 498.714 158.127 516.01C67.3358 531.876 -41.3802 539.423 -217.905 500.498C-244.387 494.595 -277.577 485 -299.797 471.385C-316.058 461.433 -320.812 452.714 -324.46 444.755C-349.029 391.287 -360.542 337.661 -372.066 273.794C-375.741 253.847 -378.343 232.156 -366.408 215.042C-357.758 202.556 -342.98 193.698 -330.029 184.131Z" stroke="#E8E8E8" stroke-width="0.5773" stroke-miterlimit="10" stroke-linecap="round" stroke-linejoin="round" stroke-dasharray="0.04 14.17"/>
<path d="M-322.457 182.092C-220.102 98.1009 -196.564 -46.6784 -144.241 -154.849C-93.282 -264.338 -21.4851 -345.882 134.099 -357.332C197.331 -362.096 277.309 -352.994 375.308 -321.234C411.478 -309.67 451.961 -293.938 483.683 -275.305C514.972 -256.913 533.138 -238.719 549.77 -221.445C581.953 -188.113 611.912 -155.02 612.007 -128.021C612.263 -109.373 600.358 -93.6971 590.975 -74.4533C581.303 -55.4647 574.155 -32.9111 577.252 -6.41113C581.704 29.8683 605.321 65.9091 621.569 105.923C634.171 136.773 617.264 153.406 605.877 175.755C576.703 232.169 549.467 286.585 517.536 326.755C477.125 378.719 428.343 408.733 374.836 433.501C311.776 463.329 242.064 488.803 155.685 506.943C67.77 523.724 -36.816 533.169 -205.072 499.573C-230.327 494.463 -261.975 485.897 -283.508 472.786C-299.27 463.196 -304.162 454.415 -307.988 446.368C-333.751 392.374 -347.079 337.877 -360.275 273.436C-364.469 253.311 -367.659 231.417 -356.699 213.901C-348.742 201.115 -334.745 191.914 -322.457 182.092Z" stroke="#E8E8E8" stroke-width="0.7438" stroke-miterlimit="10" stroke-linecap="round" stroke-linejoin="round" stroke-dasharray="0.04 14.15"/>
<path d="M-315.08 179.88C-218.201 94.0217 -194.764 -48.019 -143.372 -154.379C-93.257 -262.018 -22.7501 -342.27 127.371 -356.061C188.368 -361.761 265.279 -354.317 359.549 -324.915C394.348 -314.212 433.297 -299.492 464.063 -281.541C494.425 -263.81 512.378 -245.833 528.841 -228.746C560.675 -195.805 590.437 -162.995 591.59 -135.517C591.793 -99.1251 553.174 -66.4593 562.083 -11.8721C567.145 24.4469 590.594 60.1326 606.974 99.8734C619.661 130.513 603.485 147.299 592.624 169.608C564.865 225.877 538.327 279.58 507.036 319.156C467.423 370.32 419.374 399.731 366.876 424.152C304.992 453.547 236.802 478.865 153.147 497.786C68.0357 515.419 -32.5385 526.657 -192.803 498.146C-216.873 493.789 -247.032 486.212 -267.893 473.584C-283.167 464.345 -288.19 455.51 -292.178 447.387C-319.052 392.942 -334.092 337.666 -348.861 272.738C-353.54 252.461 -357.286 230.395 -347.261 212.513C-339.971 199.458 -326.725 189.937 -315.08 179.88Z" stroke="#E8E8E8" stroke-width="0.9103" stroke-miterlimit="10" stroke-linecap="round" stroke-linejoin="round" stroke-dasharray="0.04 14.12"/>
<path d="M-307.893 177.5C-216.287 89.9517 -192.964 -49.3614 -142.501 -153.909C-93.2318 -259.698 -24.0126 -338.659 120.786 -354.665C179.605 -361.251 253.533 -355.391 344.175 -328.253C377.64 -318.38 415.098 -304.634 444.932 -287.346C474.387 -270.255 492.123 -252.502 508.412 -235.602C539.887 -203.061 569.436 -170.55 571.593 -142.638C573.243 -105.595 537.362 -71.6723 547.098 -17.1664C552.74 19.1593 576.01 54.4826 592.497 93.9305C605.253 124.346 589.788 141.268 579.438 163.522C553.048 219.605 527.201 272.588 496.542 311.565C457.72 361.925 410.413 390.738 358.917 414.806C298.205 443.765 231.514 468.908 150.517 488.553C68.1413 506.977 -28.5398 519.901 -181.084 496.234C-204.007 492.598 -232.729 485.96 -252.935 473.807C-267.732 464.907 -272.873 456.027 -277.017 447.839C-304.921 393.015 -321.566 337.051 -337.815 271.72C-342.954 251.318 -347.221 229.11 -338.089 210.895C-331.44 197.588 -318.919 187.772 -307.893 177.5Z" stroke="#E8E8E8" stroke-width="1.0767" stroke-miterlimit="10" stroke-linecap="round" stroke-linejoin="round" stroke-dasharray="0.04 14.1"/>
<path d="M-300.894 174.952C-214.369 85.8881 -191.166 -50.7053 -141.631 -153.439C-93.2068 -257.379 -25.2746 -335.048 114.336 -353.15C171.033 -360.571 242.063 -356.22 329.178 -331.259C361.347 -322.185 397.356 -309.373 426.274 -292.731C454.843 -276.262 472.357 -258.737 488.468 -242.03C519.572 -209.898 548.894 -177.698 552.003 -149.4C555.026 -111.773 521.778 -76.6867 532.292 -22.304C538.48 14.001 561.557 48.9481 578.133 88.0872C590.944 118.264 576.165 135.302 566.31 157.489C541.243 213.347 516.074 265.597 486.045 303.972C448.009 353.525 401.449 381.745 350.949 405.456C291.399 433.969 226.272 459.023 147.889 479.366C68.2073 498.559 -24.7291 513.039 -169.917 493.84C-191.72 490.908 -219.068 485.146 -238.635 473.451C-252.971 464.88 -258.217 455.964 -262.503 447.721C-291.354 392.588 -309.507 336.028 -327.14 270.378C-332.709 249.875 -337.468 227.55 -329.19 209.04C-323.149 195.507 -311.324 185.418 -300.894 174.952Z" stroke="#E8E8E8" stroke-width="1.2432" stroke-miterlimit="10" stroke-linecap="round" stroke-linejoin="round" stroke-dasharray="0.04 14.07"/>
<path d="M-294.077 172.244C-212.436 81.8345 -189.37 -52.0532 -140.76 -152.969C-93.1819 -255.059 -26.5334 -331.433 108.021 -351.514C162.654 -359.724 230.863 -356.809 314.553 -333.935C345.464 -325.625 380.064 -313.713 408.088 -297.699C435.791 -281.836 453.079 -264.542 469.007 -248.032C499.728 -216.317 528.811 -184.44 532.82 -155.804C537.158 -117.643 506.603 -81.4784 517.668 -27.2833C524.476 8.97534 547.24 43.5312 563.889 82.3467C576.74 112.271 562.626 129.408 553.249 151.51C529.462 207.103 504.961 258.614 475.556 296.382C438.306 345.123 392.495 372.752 342.986 396.104C284.596 424.169 220.946 449.035 145.097 469.991C68.0182 489.86 -21.2607 505.82 -159.274 490.972C-180.008 488.694 -206.018 483.782 -224.963 472.532C-238.847 464.278 -244.193 455.335 -248.61 447.045C-278.329 391.676 -297.892 334.606 -316.816 268.717C-322.784 248.141 -328.004 225.727 -320.542 206.953C-315.088 193.221 -303.938 182.884 -294.077 172.244Z" stroke="#E8E8E8" stroke-width="1.4097" stroke-miterlimit="10" stroke-linecap="round" stroke-linejoin="round" stroke-dasharray="0.04 14.04"/>
<path d="M-287.441 169.375C-210.497 77.7899 -187.577 -53.402 -139.89 -152.501C-93.1589 -252.741 -27.7928 -327.819 101.841 -349.762C154.46 -358.71 219.935 -357.16 300.296 -336.288C329.982 -328.71 363.213 -317.664 390.365 -302.26C417.22 -286.984 434.278 -269.924 450.018 -253.617C480.352 -222.327 509.175 -190.788 514.035 -161.857C519.602 -123.236 491.493 -86.0922 503.216 -32.1066C510.519 4.07008 533.055 38.2349 549.754 76.705C562.629 106.367 549.161 123.581 540.247 145.586C517.694 200.876 493.849 251.635 465.066 288.794C428.595 336.72 383.54 363.763 335.017 386.749C277.783 414.363 215.596 439.025 142.214 460.54C67.6731 481.028 -18.0599 498.367 -149.156 487.644C-168.858 485.987 -193.579 481.882 -211.916 471.062C-225.362 463.117 -230.792 454.156 -235.333 445.829C-265.845 390.29 -286.714 332.797 -306.84 266.751C-313.182 246.124 -318.831 223.65 -312.147 204.646C-307.254 190.733 -296.748 180.172 -287.441 169.375Z" stroke="#E8E8E8" stroke-width="1.5761" stroke-miterlimit="10" stroke-linecap="round" stroke-linejoin="round" stroke-dasharray="0.04 14.02"/>
<path d="M-280.981 166.352C-208.548 73.7535 -185.786 -54.751 -139.02 -152.03C-93.1342 -250.422 -29.0501 -324.201 95.7893 -347.893C146.449 -357.533 209.266 -357.279 286.395 -338.321C314.894 -331.446 346.796 -321.227 373.092 -306.417C399.117 -291.713 415.946 -274.889 431.492 -258.787C461.427 -227.931 489.977 -196.746 495.638 -167.56C502.364 -128.547 476.602 -90.5109 488.938 -36.7759C496.7 -0.707767 519.001 33.0544 535.729 71.1634C548.615 100.549 535.771 117.822 527.303 139.715C505.943 194.665 482.746 244.664 454.579 281.209C418.881 328.315 374.587 354.777 327.047 377.394C270.962 404.55 210.219 428.995 139.244 451.012C67.1772 472.062 -15.1213 490.684 -139.552 483.862C-158.26 482.792 -181.738 479.452 -199.484 469.048C-212.502 461.4 -218.01 452.429 -222.662 444.076C-253.889 388.437 -275.972 330.603 -297.212 264.479C-303.896 243.827 -309.947 221.318 -304.004 202.117C-299.645 188.05 -289.761 177.284 -280.981 166.352Z" stroke="#E8E8E8" stroke-width="1.7426" stroke-miterlimit="10" stroke-linecap="round" stroke-linejoin="round" stroke-dasharray="0.04 13.99"/>
<path d="M-274.692 163.176C-206.587 69.7246 -183.996 -56.1036 -138.149 -151.561C-93.1098 -248.104 -30.3046 -320.584 89.8688 -345.91C138.624 -356.198 198.859 -357.167 272.851 -340.043C300.195 -333.839 330.811 -324.416 356.271 -310.182C381.487 -296.032 398.079 -279.449 413.428 -263.556C442.954 -233.144 471.217 -202.32 477.629 -172.927C485.444 -133.579 461.929 -94.739 474.834 -41.298C483.026 -5.36468 505.076 27.9837 521.818 65.7157C534.702 94.8113 522.418 112.097 514.422 133.895C494.106 188.393 471.654 237.699 444.097 273.624C409.168 319.906 365.639 345.792 319.078 368.035C264.137 394.731 204.822 418.944 136.195 441.41C66.5381 462.966 -12.4332 482.775 -130.443 479.638C-148.194 479.122 -170.477 476.506 -187.647 466.506C-200.246 459.146 -205.825 450.174 -210.577 441.803C-242.444 386.128 -265.65 328.038 -287.915 261.911C-294.918 241.256 -301.337 218.739 -296.101 199.373C-292.251 185.174 -282.963 174.226 -274.692 163.176Z" stroke="#E8E8E8" stroke-width="1.9091" stroke-miterlimit="10" stroke-linecap="round" stroke-linejoin="round" stroke-dasharray="0.03 13.96"/>
<path d="M-268.573 159.851C-204.62 65.706 -182.21 -57.4587 -137.279 -151.09C-93.0873 -245.786 -31.5619 -316.965 84.0735 -343.815C130.975 -354.703 188.706 -356.832 259.652 -341.457C285.877 -335.893 315.239 -327.231 339.883 -313.558C364.308 -299.946 380.661 -283.607 395.807 -267.929C424.917 -237.964 452.876 -207.519 459.993 -177.961C468.828 -138.339 447.463 -98.7828 460.89 -45.6733C469.481 -9.90453 491.274 23.0238 508.008 60.3603C520.873 89.1551 509.167 106.461 501.593 128.125C482.376 182.2 460.561 230.737 433.613 266.041C399.45 311.495 356.691 336.808 311.101 358.673C257.301 384.904 199.399 408.871 133.058 431.735C65.7496 453.741 -9.99821 474.644 -121.834 474.975C-138.663 474.984 -159.825 473.059 -176.402 463.443C-188.62 456.366 -194.235 447.395 -199.075 439.015C-231.509 383.369 -255.744 325.105 -278.951 259.05C-286.247 238.416 -293.005 215.917 -288.44 196.417C-285.072 182.108 -276.356 171 -268.573 159.851Z" stroke="#E8E8E8" stroke-width="2.0756" stroke-miterlimit="10" stroke-linecap="round" stroke-linejoin="round" stroke-dasharray="0.03 13.94"/>
<path d="M-262.621 156.379C-202.641 61.6921 -180.426 -58.8134 -136.409 -150.621C-93.0652 -243.467 -32.8139 -313.344 78.4009 -341.611C123.497 -353.053 178.801 -356.275 246.795 -342.568C271.931 -337.619 300.12 -329.694 323.925 -316.552C347.622 -303.472 363.687 -287.37 378.627 -271.908C407.311 -242.403 434.956 -212.346 442.727 -182.665C452.518 -142.828 433.205 -102.64 447.109 -49.9011C456.069 -14.3222 477.592 18.175 494.301 55.1006C507.137 83.583 495.99 100.891 488.821 122.405C470.66 176.024 449.473 223.78 423.129 258.46C389.727 303.083 347.742 327.826 303.121 349.311C250.457 375.072 193.951 398.779 129.839 421.987C64.8179 444.391 -7.81021 466.296 -113.707 469.887C-129.648 470.386 -149.707 469.11 -165.735 459.868C-177.56 453.063 -183.223 444.106 -188.142 435.725C-221.073 380.173 -246.246 321.811 -270.31 255.905C-277.873 235.315 -284.945 212.858 -281.015 193.255C-278.102 178.858 -269.933 167.61 -262.621 156.379Z" stroke="#E8E8E8" stroke-width="2.242" stroke-miterlimit="10" stroke-linecap="round" stroke-linejoin="round" stroke-dasharray="0.03 13.91"/>
<path d="M-256.826 152.765C-200.654 57.6898 -178.642 -60.1706 -135.54 -150.151C-93.0439 -241.15 -34.0665 -309.721 72.853 -339.296C116.193 -351.25 169.142 -355.499 234.274 -343.383C258.356 -339.014 285.371 -331.789 308.394 -319.173C331.336 -306.601 347.152 -290.747 361.883 -275.508C390.133 -246.466 417.448 -216.812 425.828 -187.048C436.507 -147.057 419.155 -106.318 433.493 -53.9884C442.794 -18.6242 464.106 13.4104 480.702 49.9311C493.545 78.0708 482.885 95.3807 476.107 116.735C458.967 169.86 438.395 216.828 412.65 250.88C380.006 294.667 338.8 318.847 295.142 339.946C243.607 365.234 188.484 388.666 126.544 412.17C63.7506 434.918 -5.85819 457.738 -106.047 464.383C-121.136 465.345 -140.13 464.677 -155.626 455.798C-167.067 449.254 -172.77 440.317 -177.761 431.945C-211.114 376.548 -237.142 318.169 -261.98 252.482C-269.785 231.959 -277.139 209.569 -273.813 189.893C-271.334 175.425 -263.691 164.061 -256.826 152.765Z" stroke="#E8E8E8" stroke-width="2.4085" stroke-miterlimit="10" stroke-linecap="round" stroke-linejoin="round" stroke-dasharray="0.03 13.88"/>
<path d="M-251.19 149.012C-198.456 53.8495 -176.862 -61.5308 -134.667 -149.681C-93.0204 -238.833 -35.3153 -306.099 67.4272 -336.876C109.062 -349.298 159.729 -354.509 222.082 -343.907C245.144 -340.092 271.02 -333.533 293.276 -321.426C315.484 -309.348 331.048 -293.743 345.563 -278.729C373.369 -250.16 400.342 -220.921 409.287 -191.113C420.788 -151.022 405.304 -109.817 420.034 -57.9337C429.644 -22.8143 450.672 8.77213 467.203 44.8514C479.992 72.6527 469.85 89.9339 463.447 111.113C447.288 163.711 427.32 209.882 402.173 243.302C370.28 286.251 329.856 309.869 287.16 330.579C236.752 355.391 182.996 378.538 123.173 402.286C62.5522 425.329 -4.1387 448.975 -98.8469 458.472C-113.117 459.864 -131.095 459.768 -146.067 451.239C-157.135 444.948 -162.87 436.039 -167.922 427.685C-201.633 372.505 -228.426 314.183 -253.959 248.786C-261.979 228.352 -269.594 206.053 -266.834 186.332C-264.766 171.819 -257.601 160.374 -251.19 149.012Z" stroke="#E8E8E8" stroke-width="2.575" stroke-miterlimit="10" stroke-linecap="round" stroke-linejoin="round" stroke-dasharray="0.03 13.86"/>
<path d="M-245.707 145.123C-196.436 49.8741 -175.083 -62.8924 -133.797 -149.212C-92.9979 -236.516 -36.5597 -302.474 62.1183 -334.351C102.095 -347.2 150.552 -353.31 210.216 -344.143C232.287 -340.854 257.058 -334.93 278.57 -323.316C300.058 -311.717 315.366 -296.365 329.662 -281.581C357.017 -253.493 383.633 -224.679 393.098 -194.867C405.36 -154.734 391.653 -113.14 406.733 -61.7413C416.622 -26.8895 437.356 4.23668 453.802 39.8611C466.526 67.3121 456.881 84.5476 450.841 105.54C435.62 157.578 416.255 202.942 391.699 235.728C360.555 277.833 320.919 300.894 279.177 321.212C229.893 345.542 177.487 368.389 119.726 392.335C61.217 415.622 -2.64811 440.009 -92.0989 452.162C-105.583 453.957 -122.58 454.397 -137.048 446.206C-147.75 440.159 -153.51 431.285 -158.613 422.957C-192.612 368.051 -220.087 309.863 -246.237 244.825C-254.45 224.499 -262.297 202.315 -260.074 182.579C-258.395 168.039 -251.708 156.516 -245.707 145.123Z" stroke="#E8E8E8" stroke-width="2.7415" stroke-miterlimit="10" stroke-linecap="round" stroke-linejoin="round" stroke-dasharray="0.03 13.83"/>
<path d="M-240.374 141.102C-194.409 45.9067 -173.303 -64.2549 -132.928 -148.741C-92.9767 -234.199 -37.8081 -298.847 56.9245 -331.721C95.2935 -344.953 141.606 -351.903 198.664 -344.098C219.778 -341.307 243.478 -335.987 264.26 -324.851C285.047 -313.714 300.096 -298.62 314.168 -284.067C341.062 -256.467 367.309 -228.089 377.251 -198.314C390.211 -158.192 378.194 -116.29 393.582 -65.4124C403.722 -30.8542 424.153 -0.195063 440.5 34.9583C453.144 62.0497 443.982 79.2216 438.286 100.014C423.973 151.459 405.191 196.009 381.225 228.157C350.825 269.416 311.981 291.924 271.192 311.846C223.024 335.692 171.96 358.226 116.206 382.323C59.7545 405.804 -1.38137 430.848 -85.7909 445.466C-98.5226 447.636 -114.582 448.573 -128.557 440.71C-138.905 434.898 -144.651 426.064 -149.824 417.773C-183.872 363.182 -212.131 305.208 -238.812 240.605C-247.195 220.41 -255.29 198.353 -253.528 178.641C-252.244 164.084 -245.981 152.51 -240.374 141.102Z" stroke="#E8E8E8" stroke-width="2.9079" stroke-miterlimit="10" stroke-linecap="round" stroke-linejoin="round" stroke-dasharray="0.03 13.8"/>
<path d="M-235.189 136.951C-192.371 41.9474 -171.528 -65.6168 -132.057 -148.27C-92.9545 -231.881 -39.0514 -295.217 51.8446 -328.992C88.649 -342.568 132.888 -350.296 187.424 -343.778C207.609 -341.459 230.272 -336.714 250.343 -326.041C270.443 -315.354 285.231 -300.517 299.077 -286.203C325.503 -259.097 351.368 -231.168 361.742 -201.466C375.339 -161.411 364.925 -119.275 380.581 -68.9533C390.945 -34.7145 411.062 -4.53097 427.295 30.1375C439.847 56.8568 431.144 73.9513 425.784 94.532C412.337 145.349 394.135 189.077 370.754 220.584C341.093 260.993 303.046 282.952 263.203 302.472C216.15 325.83 166.409 348.041 112.613 372.243C58.1682 395.87 -0.3319 421.491 -79.9119 438.384C-91.9226 440.9 -107.081 442.302 -120.578 434.754C-130.58 429.169 -136.334 420.387 -141.541 412.135C-175.745 357.929 -204.525 300.236 -231.673 236.128C-240.202 216.083 -248.476 194.185 -247.187 174.513C-246.25 159.971 -240.422 148.36 -235.189 136.951Z" stroke="#E8E8E8" stroke-width="3.0744" stroke-miterlimit="10" stroke-linecap="round" stroke-linejoin="round" stroke-dasharray="0.03 13.78"/>
<path d="M-230.145 132.674C-190.323 37.9953 -169.755 -66.9836 -131.187 -147.801C-92.9335 -229.565 -40.2926 -291.587 46.879 -326.165C82.1632 -340.044 124.397 -348.491 176.492 -343.188C195.779 -341.314 217.439 -337.114 236.812 -326.89C256.241 -316.639 270.719 -302.058 284.38 -287.987C310.246 -261.371 335.802 -233.913 346.568 -204.322C360.742 -164.386 351.844 -122.094 367.729 -72.3628C378.288 -38.4672 398.083 -8.76765 414.184 25.4016C426.632 51.7383 418.374 68.739 413.334 89.0955C400.718 139.253 383.083 182.151 360.286 213.013C331.361 252.57 294.114 273.982 255.216 293.1C209.274 315.967 160.843 337.841 108.954 362.104C56.4585 385.83 0.507295 411.946 -74.4509 430.933C-85.7707 433.767 -100.069 435.601 -113.097 428.355C-122.765 422.988 -128.517 414.263 -133.747 406.063C-168.044 352.296 -197.268 294.956 -224.809 231.406C-233.461 211.531 -241.895 189.815 -241.046 170.21C-240.434 155.697 -235.02 144.066 -230.145 132.674Z" stroke="#E8E8E8" stroke-width="3.2409" stroke-miterlimit="10" stroke-linecap="round" stroke-linejoin="round" stroke-dasharray="0.03 13.75"/>
<path d="M-225.242 128.272C-188.267 34.0528 -167.984 -68.3503 -130.319 -147.333C-92.9249 -227.26 -41.6511 -288.172 42.0207 -323.241C75.7912 -337.463 116.125 -346.49 165.854 -342.335C184.273 -340.88 204.961 -337.197 223.655 -327.408C242.43 -317.579 256.641 -303.258 270.065 -289.434C295.446 -263.323 320.598 -236.339 331.713 -206.895C346.406 -167.13 338.94 -124.753 355.016 -75.6484C365.747 -42.1198 385.21 -12.9123 401.161 20.7446C413.495 46.687 405.664 63.5786 400.93 83.7012C389.109 133.169 372.036 175.226 349.815 205.442C321.622 244.14 285.179 265.011 247.221 283.722C202.386 306.094 155.252 327.621 105.221 351.9C54.6279 375.683 1.13536 402.218 -69.4034 423.119C-80.0629 426.245 -93.5388 428.477 -106.113 421.524C-115.453 416.368 -121.195 407.704 -126.443 399.564C-160.771 346.29 -190.362 289.372 -218.224 226.441C-226.978 206.757 -235.544 185.244 -235.108 165.732C-234.8 151.269 -229.775 139.634 -225.242 128.272Z" stroke="#E8E8E8" stroke-width="3.4074" stroke-miterlimit="10" stroke-linecap="round" stroke-linejoin="round" stroke-dasharray="0.03 13.73"/>
<path d="M-220.473 123.754C-186.202 30.1177 -166.212 -69.7186 -129.447 -146.862C-92.9046 -224.943 -42.8966 -284.547 37.2719 -320.218C69.6088 -334.669 108.07 -344.296 155.514 -341.218C173.09 -340.157 192.84 -336.964 210.873 -327.594C229.009 -318.173 242.946 -304.118 256.133 -290.542C281.022 -264.942 305.755 -238.443 317.181 -209.181C332.336 -169.637 326.221 -127.248 342.449 -78.8045C353.322 -45.6661 372.444 -16.9575 388.231 16.1711C400.437 41.7112 393.016 58.4784 388.577 78.353C377.518 127.1 360.994 168.311 339.35 197.877C311.885 235.716 276.25 256.047 239.229 274.349C195.496 296.223 149.65 317.39 101.428 341.644C52.6844 365.437 1.56724 392.316 -64.7513 414.956C-74.7762 418.35 -87.4675 420.945 -99.5982 414.275C-108.621 409.321 -114.349 400.728 -119.6 392.653C-153.905 339.923 -183.788 283.492 -211.903 221.244C-220.736 201.768 -229.41 180.48 -229.36 161.085C-229.333 146.69 -224.681 135.067 -220.473 123.754Z" stroke="#E8E8E8" stroke-width="3.5738" stroke-miterlimit="10" stroke-linecap="round" stroke-linejoin="round" stroke-dasharray="0.03 13.7"/>
<path d="M-215.833 119.118C-184.127 26.1899 -164.441 -71.086 -128.576 -146.393C-92.8825 -222.628 -44.1383 -280.924 32.6296 -317.105C63.5751 -331.75 100.225 -341.919 145.464 -339.851C162.227 -339.16 181.069 -336.426 198.453 -327.462C215.963 -318.436 229.628 -304.648 242.573 -291.325C266.963 -266.243 291.265 -240.239 302.961 -211.195C318.522 -171.92 313.681 -129.593 330.023 -81.8382C341.014 -49.1123 359.788 -20.9114 375.395 11.6757C387.461 36.8014 380.434 53.4299 376.278 73.0469C365.944 121.043 349.964 161.4 328.889 190.311C302.152 227.287 267.329 247.081 231.24 264.972C188.607 286.345 144.032 307.142 97.5735 331.329C50.629 355.088 1.80087 382.236 -60.4862 406.447C-69.9101 410.081 -81.8504 413.009 -93.5517 406.609C-102.264 401.852 -107.969 393.336 -113.219 385.333C-147.438 333.199 -177.539 277.32 -205.839 215.814C-214.731 196.566 -223.491 175.521 -223.796 156.27C-224.035 141.96 -219.736 130.371 -215.833 119.118Z" stroke="#E8E8E8" stroke-width="3.7403" stroke-miterlimit="10" stroke-linecap="round" stroke-linejoin="round" stroke-dasharray="0.03 13.67"/>
<path d="M-211.323 114.369C-182.041 22.2712 -162.675 -72.458 -127.706 -145.921C-92.8633 -220.312 -45.3799 -277.297 28.0897 -313.898C57.6836 -328.698 92.5826 -339.357 135.69 -338.233C151.668 -337.887 169.63 -335.588 186.381 -327.018C203.282 -318.374 216.671 -304.855 229.369 -291.786C253.252 -267.228 277.114 -241.73 289.042 -212.937C304.955 -173.983 301.307 -131.783 317.729 -84.7542C328.811 -52.463 347.227 -24.7779 362.641 7.25613C374.556 31.9568 367.906 48.4328 364.018 67.7801C354.381 114.997 338.931 154.491 318.425 182.746C292.409 218.855 258.401 238.118 223.243 255.593C181.704 276.461 138.392 296.879 93.6487 320.958C48.4614 344.642 1.84304 371.989 -56.6007 397.603C-65.4507 401.453 -76.6738 404.683 -87.9558 398.545C-96.3676 393.975 -102.04 385.541 -107.283 377.62C-141.361 326.132 -171.607 270.867 -200.028 210.162C-208.96 191.159 -217.784 170.378 -218.416 151.295C-218.895 137.089 -214.935 125.548 -211.323 114.369Z" stroke="#E8E8E8" stroke-width="3.9068" stroke-miterlimit="10" stroke-linecap="round" stroke-linejoin="round" stroke-dasharray="0.03 13.65"/>
<path d="M-206.935 109.511C-179.95 18.3589 -160.907 -73.8289 -126.836 -145.453C-92.8434 -217.999 -46.6173 -273.67 23.6501 -310.603C51.9359 -325.522 85.147 -336.616 126.193 -336.372C141.412 -336.346 158.527 -334.455 174.66 -326.266C190.965 -317.992 204.074 -304.744 216.525 -291.933C239.893 -267.906 263.302 -242.924 275.425 -214.415C291.635 -175.828 289.104 -133.822 305.568 -87.5502C316.719 -55.7164 334.767 -28.5534 349.971 2.91221C361.725 27.18 355.438 43.4866 351.805 62.5557C342.831 108.963 327.905 147.588 307.966 175.184C282.665 210.422 249.478 229.156 215.247 246.214C174.801 266.575 132.739 286.604 89.6693 310.535C46.1891 334.105 1.70202 361.578 -53.0822 388.434C-61.384 392.477 -71.9234 395.979 -82.7991 390.092C-90.9162 385.704 -96.5507 377.359 -101.776 369.525C-135.659 318.731 -165.984 264.145 -194.457 204.296C-203.41 185.557 -212.274 165.059 -213.209 146.165C-213.918 132.077 -210.273 120.601 -206.935 109.511Z" stroke="#E8E8E8" stroke-width="4.0733" stroke-miterlimit="10" stroke-linecap="round" stroke-linejoin="round" stroke-dasharray="0.03 13.62"/>
<path d="M-202.668 104.546C-177.849 14.4555 -159.14 -75.2025 -125.965 -144.982C-92.825 -215.683 -47.8531 -270.04 19.3122 -307.218C46.3292 -322.224 77.9092 -333.701 116.964 -334.272C131.45 -334.547 147.748 -333.036 163.276 -325.216C178.999 -317.297 191.827 -304.323 204.023 -291.776C226.873 -268.286 249.816 -243.828 262.099 -215.636C278.554 -177.462 277.065 -135.717 293.537 -90.2326C304.73 -58.8758 322.406 -32.2438 337.387 -1.35831C348.97 22.467 343.026 38.5926 339.639 57.3708C331.294 102.942 316.885 140.69 297.506 167.623C272.919 201.989 240.555 220.196 207.248 236.834C167.891 256.685 127.068 276.313 85.6289 300.061C43.8111 323.474 1.37869 351.01 -49.9223 378.951C-57.7011 383.162 -67.597 386.909 -78.0738 381.262C-85.905 377.048 -91.4937 368.798 -96.6956 361.058C-130.328 311.006 -160.664 257.157 -189.132 198.22C-198.082 179.76 -206.968 159.566 -208.18 140.885C-209.092 126.93 -205.744 115.534 -202.668 104.546Z" stroke="#E8E8E8" stroke-width="4.2397" stroke-miterlimit="10" stroke-linecap="round" stroke-linejoin="round" stroke-dasharray="0.03 13.59"/>
<path d="M-198.518 99.4782C-175.737 10.5595 -157.377 -76.5755 -125.092 -144.511C-92.8037 -213.368 -49.085 -266.407 15.0724 -303.748C40.8592 -318.802 70.8647 -330.612 108.001 -331.939C121.781 -332.486 137.285 -331.335 152.225 -323.869C167.38 -316.295 179.924 -303.597 191.865 -291.314C214.187 -268.366 236.656 -244.444 249.059 -216.601C265.71 -178.884 265.19 -137.467 281.636 -92.8007C292.849 -61.942 310.141 -35.847 324.885 -5.55426C336.282 17.8175 330.671 33.7484 327.518 52.2267C319.771 96.9328 305.871 133.797 287.05 160.065C263.175 193.553 231.636 211.239 199.25 227.451C160.98 246.79 121.385 266.008 81.5334 289.535C41.3363 312.755 0.882577 340.282 -47.1061 369.158C-54.3872 373.515 -63.6659 377.474 -73.7585 372.062C-81.3117 368.015 -86.8492 359.866 -92.0182 352.227C-125.354 302.963 -155.632 249.909 -184.032 191.936C-192.963 173.773 -201.85 153.899 -203.312 135.454C-204.415 121.652 -201.349 110.35 -198.518 99.4782Z" stroke="#E8E8E8" stroke-width="4.4062" stroke-miterlimit="10" stroke-linecap="round" stroke-linejoin="round" stroke-dasharray="0.03 13.57"/>
<path d="M-194.482 94.3102C-173.619 6.67146 -155.613 -77.9518 -124.224 -144.042C-92.7874 -211.055 -50.3171 -262.771 10.9255 -300.194C35.5197 -315.265 64.0079 -327.36 99.2926 -329.378C112.39 -330.182 127.132 -329.362 141.498 -322.238C156.099 -314.998 168.354 -302.578 180.033 -290.564C201.823 -268.163 223.805 -244.785 236.296 -217.323C253.09 -180.107 253.47 -139.08 269.858 -95.2595C281.068 -64.9211 297.97 -39.3694 312.461 -9.68307C323.665 13.2283 318.368 28.9496 315.439 47.1185C308.26 90.9313 294.86 126.907 276.595 152.506C253.426 185.115 222.717 202.28 191.249 218.068C154.061 236.891 115.684 255.691 77.38 278.96C38.7607 301.948 0.216391 329.407 -44.631 359.067C-51.4426 363.55 -60.1355 367.696 -69.85 362.506C-77.1351 358.62 -82.6124 350.577 -87.7424 343.047C-120.726 294.614 -150.883 242.411 -179.156 185.457C-188.051 167.607 -196.918 148.07 -198.607 129.883C-199.881 116.246 -197.08 105.056 -194.482 94.3102Z" stroke="#E8E8E8" stroke-width="4.5727" stroke-miterlimit="10" stroke-linecap="round" stroke-linejoin="round" stroke-dasharray="0.03 13.54"/>
<path d="M-190.551 89.0465C-171.491 2.79069 -153.852 -79.3282 -123.351 -143.571C-92.7666 -208.74 -51.5426 -259.135 6.87302 -296.557C30.3101 -311.611 57.3389 -323.94 90.8371 -326.595C103.276 -327.63 117.281 -327.121 131.086 -320.327C145.144 -313.409 157.111 -301.27 168.527 -289.526C189.776 -267.679 211.264 -244.855 223.806 -217.803C240.699 -181.133 241.906 -140.554 258.203 -97.609C269.388 -67.81 285.89 -42.8089 300.117 -13.7397C311.119 8.70018 306.122 24.2014 303.402 42.0487C296.763 84.946 283.855 120.021 266.142 144.951C243.677 176.678 213.801 193.326 183.247 208.685C147.143 226.992 109.972 245.363 73.1777 268.34C36.0936 291.062 -0.612477 318.389 -42.4788 348.691C-48.844 353.276 -56.9817 357.582 -66.3298 352.606C-73.3502 348.873 -78.7642 340.944 -83.8476 333.527C-116.432 285.971 -146.405 234.673 -174.496 178.786C-183.337 161.263 -192.164 142.083 -194.056 124.173C-195.487 110.717 -192.933 99.6518 -190.551 89.0465Z" stroke="#E8E8E8" stroke-width="4.7392" stroke-miterlimit="10" stroke-linecap="round" stroke-linejoin="round" stroke-dasharray="0.03 13.51"/>
<path d="M-186.728 83.6888C-169.354 -1.0825 -152.09 -80.7064 -122.482 -143.103C-92.7476 -206.425 -52.7693 -255.497 2.91083 -292.84C25.2293 -307.847 50.8487 -320.363 82.6264 -323.598C94.4298 -324.844 107.726 -324.62 120.979 -318.145C134.509 -311.538 146.183 -299.681 157.333 -288.211C178.038 -266.922 199.016 -244.662 211.58 -218.049C228.52 -181.965 230.489 -141.896 246.664 -99.8562C257.802 -70.6139 273.899 -46.1719 287.846 -17.7315C298.635 4.22952 293.924 19.4962 291.406 37.0141C285.277 78.9679 272.854 113.139 255.69 137.394C233.924 168.237 204.886 184.37 175.244 199.3C103.519 233.393 35.7659 274.946 -40.6442 338.031C-46.586 342.7 -54.199 347.139 -63.1911 342.369C-69.9553 338.784 -75.2992 330.974 -80.328 323.676C-112.463 277.037 -142.198 226.7 -170.047 171.93C-178.816 154.75 -187.585 135.942 -189.657 118.331C-191.225 105.072 -188.906 94.1426 -186.728 83.6888Z" stroke="#E8E8E8" stroke-width="4.9056" stroke-miterlimit="10" stroke-linecap="round" stroke-linejoin="round" stroke-dasharray="0.03 13.49"/>
<path d="M-183.006 78.2423C-167.209 -4.9467 -150.333 -82.0842 -121.611 -142.632C-92.7312 -204.113 -53.992 -251.856 -0.962718 -289.045C20.2726 -303.971 44.5354 -316.63 74.6539 -320.387C85.8469 -321.824 98.4586 -321.863 111.175 -315.696C124.188 -309.388 135.57 -297.815 146.448 -286.624C166.601 -265.9 187.065 -244.21 199.615 -218.065C216.559 -182.607 219.223 -143.107 235.243 -101.999C246.309 -73.3344 261.992 -49.4574 275.65 -21.6562C286.214 -0.183125 281.777 14.8371 279.448 32.0154C273.802 73.0024 261.856 106.261 245.238 129.842C224.17 159.795 195.969 175.42 167.239 189.914C97.8179 223.102 32.1046 263.421 -39.118 327.103C-44.6596 331.833 -51.7749 336.381 -60.4204 331.808C-66.9342 328.368 -72.2028 320.679 -77.1704 313.508C-108.814 267.828 -138.247 218.5 -165.804 164.894C-174.486 148.072 -183.177 129.652 -185.408 112.359C-187.096 99.3089 -184.992 88.533 -183.006 78.2423Z" stroke="#E8E8E8" stroke-width="5.0721" stroke-miterlimit="10" stroke-linecap="round" stroke-linejoin="round" stroke-dasharray="0.03 13.46"/>
<path d="M-179.384 72.7085C-165.058 -8.80412 -148.574 -83.4637 -120.741 -142.161C-92.7144 -201.798 -55.2125 -248.211 -4.74773 -285.171C15.4376 -299.988 38.3943 -312.743 66.9159 -316.969C77.5189 -318.579 89.4723 -318.857 101.665 -312.989C114.173 -306.968 125.259 -295.683 135.863 -284.771C155.459 -264.617 175.399 -243.507 187.903 -217.859C204.803 -183.07 208.101 -144.192 223.936 -104.042C234.912 -75.9731 250.176 -52.6657 263.528 -25.5191C273.862 -4.54081 269.684 10.2217 267.532 27.051C262.34 67.0437 250.863 99.3848 234.791 122.288C214.415 151.35 187.06 166.467 159.237 180.527C92.1077 212.794 28.4381 251.884 -37.8826 315.912C-43.046 320.685 -49.6915 325.316 -57.9992 320.933C-64.2683 317.628 -69.4543 310.069 -74.3553 303.029C-105.46 258.347 -134.538 210.081 -161.751 157.683C-170.328 141.234 -178.926 123.219 -181.293 106.261C-183.09 93.4346 -181.192 82.824 -179.384 72.7085Z" stroke="#E8E8E8" stroke-width="5.2386" stroke-miterlimit="10" stroke-linecap="round" stroke-linejoin="round" stroke-dasharray="0.03 13.43"/>
<path d="M-175.855 67.0906C-162.894 -12.6547 -146.816 -84.8447 -119.87 -141.692C-92.6953 -199.486 -56.4298 -244.565 -8.45114 -281.224C10.7178 -295.902 32.4189 -308.708 59.4038 -313.352C69.4399 -315.112 80.7568 -315.611 92.4373 -310.029C104.453 -304.288 115.239 -293.291 125.568 -282.661C144.602 -263.081 164.004 -242.56 176.434 -217.435C193.249 -183.35 197.116 -145.153 212.738 -105.988C223.604 -78.5335 238.44 -55.8032 251.476 -29.3176C261.567 -8.84413 257.635 5.647 255.653 22.1208C250.89 61.0971 239.876 92.5161 224.343 114.737C204.659 142.906 178.148 157.516 151.23 171.139C86.3781 202.474 24.7577 240.34 -36.9354 304.47C-41.7401 309.267 -47.9441 313.959 -55.9217 309.758C-61.957 306.584 -67.0511 299.159 -71.8794 292.255C-102.402 248.61 -131.07 201.45 -157.89 150.308C-166.347 134.244 -174.833 116.647 -177.317 100.045C-179.206 87.4546 -177.495 77.0228 -175.855 67.0906Z" stroke="#E8E8E8" stroke-width="5.405" stroke-miterlimit="10" stroke-linecap="round" stroke-linejoin="round" stroke-dasharray="0.03 13.41"/>
<path d="M-172.416 61.3935C-160.723 -16.4957 -145.059 -86.2253 -119 -141.221C-92.6782 -197.173 -57.6462 -240.914 -12.0708 -277.204C6.11687 -291.71 26.6071 -304.529 52.1102 -309.539C61.6024 -311.434 72.3067 -312.129 83.4878 -306.822C95.0194 -301.35 105.508 -290.645 115.556 -280.299C134.02 -261.299 152.879 -241.372 165.204 -216.797C181.892 -183.456 186.265 -145.992 201.647 -107.837C212.384 -81.0135 226.782 -58.8672 239.492 -33.0547C249.331 -13.0929 245.632 1.11671 243.809 17.224C239.448 55.1632 228.89 85.6485 213.894 107.188C194.898 134.461 169.235 148.567 143.221 161.751C80.6323 192.142 21.0638 228.789 -36.2651 292.784C-40.7341 297.588 -46.5224 302.314 -54.1769 298.29C-59.9804 295.242 -64.9815 287.955 -69.7309 281.194C-99.6318 238.623 -127.837 192.617 -154.214 142.772C-162.537 127.106 -170.896 109.943 -173.476 93.7145C-175.437 81.372 -173.899 71.1308 -172.416 61.3935Z" stroke="#E8E8E8" stroke-width="5.5715" stroke-miterlimit="10" stroke-linecap="round" stroke-linejoin="round" stroke-dasharray="0.03 13.38"/>
<path d="M-169.063 55.62C-158.544 -20.3305 -143.304 -87.6064 -118.129 -140.751C-92.6631 -194.86 -58.8564 -237.263 -15.609 -273.111C1.62568 -287.422 20.9559 -300.209 45.0354 -305.534C54.0005 -307.544 64.1182 -308.417 74.8087 -303.377C85.8708 -298.164 96.055 -287.751 105.822 -277.693C123.714 -259.276 142.019 -239.954 154.21 -215.954C170.729 -183.392 175.553 -146.713 190.664 -109.592C201.25 -83.4169 215.208 -61.8599 227.577 -36.7321C237.159 -17.2894 233.678 -3.37441 232.006 12.36C228.024 49.2368 217.913 78.7873 203.453 99.6397C185.139 126.012 160.329 139.619 135.218 152.363C74.8802 181.798 17.371 217.231 -35.8528 280.865C-40.0038 285.657 -45.3982 290.398 -52.7415 286.542C-58.3189 283.614 -63.2214 276.471 -67.8848 269.859C-97.123 228.396 -124.815 183.588 -150.704 135.081C-158.877 119.826 -167.091 103.112 -169.749 87.2725C-171.781 75.1905 -170.404 65.152 -169.063 55.62Z" stroke="#E8E8E8" stroke-width="5.738" stroke-miterlimit="10" stroke-linecap="round" stroke-linejoin="round" stroke-dasharray="0.03 13.36"/>
<path d="M-165.793 49.7734C-156.357 -24.1566 -141.55 -88.9899 -117.257 -140.281C-92.6439 -192.549 -60.0639 -233.608 -19.0674 -268.951C-2.75335 -283.035 15.4598 -295.753 38.1687 -301.346C46.6293 -303.452 56.1778 -304.484 66.3922 -299.702C76.9946 -294.736 86.8743 -284.619 96.3563 -274.851C113.667 -257.022 131.412 -238.311 143.441 -214.911C159.753 -183.165 164.968 -147.32 179.781 -111.259C190.2 -85.7487 203.71 -64.7852 215.727 -40.3511C225.04 -21.436 221.77 -7.82364 220.237 7.52687C216.606 43.3215 206.937 71.9283 193.01 92.0943C175.377 117.564 151.424 130.673 127.208 142.974C69.1101 171.442 13.6642 205.665 -35.6994 268.72C-39.5524 273.484 -44.5793 278.219 -51.6158 274.523C-56.9751 271.712 -61.7714 264.717 -66.3456 258.257C-94.8818 217.938 -122.012 174.369 -147.368 127.24C-155.379 112.411 -163.434 96.1562 -166.149 80.724C-168.23 68.914 -167.001 59.0899 -165.793 49.7734Z" stroke="#E8E8E8" stroke-width="5.9045" stroke-miterlimit="10" stroke-linecap="round" stroke-linejoin="round" stroke-dasharray="0.03 13.33"/>
<path d="M-162.604 43.855C-154.163 -27.9762 -139.796 -90.3727 -116.386 -139.811C-92.6284 -190.235 -61.2698 -229.952 -22.4503 -264.721C-7.02681 -278.555 10.1131 -291.163 31.5063 -296.978C39.4806 -299.163 48.4842 -300.335 58.2305 -295.8C68.3829 -291.077 77.9549 -281.254 87.1482 -271.778C103.877 -254.545 121.052 -236.451 132.889 -213.677C148.952 -182.777 154.505 -147.817 168.997 -112.838C179.23 -88.008 192.284 -67.6469 203.939 -43.9161C212.976 -25.5359 209.902 -12.2383 208.5 2.72241C205.199 37.4134 195.964 65.0727 182.568 84.5469C165.615 109.113 142.516 121.727 119.201 133.583C63.3285 161.073 9.95133 194.093 -35.7869 256.36C-39.3621 261.078 -44.0433 265.788 -50.7815 262.247C-55.9266 259.544 -60.6132 252.703 -65.0899 246.4C-92.887 207.259 -119.41 164.972 -144.189 119.259C-152.024 104.864 -159.905 89.084 -162.661 74.073C-164.781 62.5489 -163.687 52.9492 -162.604 43.855Z" stroke="#E8E8E8" stroke-width="6.071" stroke-miterlimit="10" stroke-linecap="round" stroke-linejoin="round" stroke-dasharray="0.03 13.3"/>
<path d="M-159.489 37.872C-151.957 -31.7889 -138.043 -91.7572 -115.516 -139.34C-92.6129 -187.923 -62.4718 -226.291 -25.7615 -260.427C-11.198 -273.984 4.91048 -286.445 25.0372 -292.436C32.5463 -294.685 41.025 -295.978 50.3149 -291.68C60.0274 -287.187 69.29 -277.662 78.193 -268.483C94.3337 -251.846 110.93 -234.379 122.554 -212.252C138.332 -182.234 144.169 -148.206 158.312 -114.332C168.34 -90.1975 180.933 -70.4436 192.217 -47.4256C200.97 -29.5851 198.079 -16.6134 196.8 -2.05141C193.807 31.5163 185 58.2213 172.131 77.0043C155.854 100.664 133.615 112.783 111.193 124.194C57.5372 150.696 6.23531 182.515 -36.1068 243.794C-39.4199 248.451 -43.7787 253.116 -50.2253 249.722C-55.1624 247.127 -59.734 240.443 -64.1101 234.301C-91.1342 196.369 -117.001 155.404 -141.165 111.142C-148.811 97.1935 -156.505 81.8998 -159.284 67.3263C-161.429 56.097 -160.461 46.7312 -159.489 37.872Z" stroke="#E8E8E8" stroke-width="6.2374" stroke-miterlimit="10" stroke-linecap="round" stroke-linejoin="round" stroke-dasharray="0.03 13.28"/>
<path d="M-156.447 31.8233C-149.746 -35.5945 -136.291 -93.1419 -114.645 -138.871C-92.5975 -185.615 -63.6714 -222.629 -28.9986 -256.069C-15.269 -269.326 -0.148637 -281.603 18.7612 -287.726C25.819 -290.023 33.7944 -291.418 42.637 -287.351C51.9194 -283.081 60.8721 -273.857 69.4819 -264.974C85.029 -248.939 101.039 -232.103 112.422 -210.645C127.879 -181.542 133.946 -148.489 147.716 -115.744C157.524 -92.3201 169.649 -73.1787 180.549 -50.8835C189.01 -33.5923 186.294 -20.9544 185.129 -6.79905C182.42 25.6258 174.034 51.3707 161.69 69.4583C146.086 92.2078 124.708 103.837 103.183 114.801C51.7314 140.307 2.50967 170.928 -36.6547 231.026C-39.7203 235.609 -43.7782 240.208 -49.9419 236.957C-54.6759 234.464 -59.1254 227.941 -63.3941 221.967C-89.6099 185.273 -114.781 145.667 -138.287 102.892C-145.733 89.4018 -153.224 74.6065 -156.014 60.4837C-158.171 49.5619 -157.315 40.4432 -156.447 31.8233Z" stroke="#E8E8E8" stroke-width="6.4039" stroke-miterlimit="10" stroke-linecap="round" stroke-linejoin="round" stroke-dasharray="0.03 13.25"/>
<path d="M-153.472 25.7158C-147.525 -39.3927 -134.541 -94.5278 -113.776 -138.401C-92.5828 -183.303 -64.8675 -218.962 -32.1671 -251.648C-19.2447 -264.58 -5.07307 -276.637 12.669 -282.85C19.2963 -285.179 26.7864 -286.66 35.1902 -282.814C44.0519 -278.759 52.6903 -269.837 61.0046 -261.252C75.9536 -245.824 91.3725 -229.627 102.488 -208.862C117.588 -180.705 123.837 -148.671 137.213 -117.074C146.782 -94.3766 158.433 -75.8515 168.941 -54.2886C177.102 -37.5514 174.548 -25.2594 173.488 -11.515C171.042 19.7458 163.072 44.5253 151.251 61.9164C136.317 83.7551 115.805 94.895 95.1715 105.41C45.9146 129.912 -1.22254 159.343 -37.4142 218.075C-40.2509 222.57 -44.0262 227.084 -49.9138 223.971C-54.4478 221.575 -58.7743 215.219 -62.9314 209.414C-88.3053 173.988 -112.742 135.777 -135.553 94.5217C-142.787 81.4994 -150.063 67.2147 -152.842 53.557C-155.001 42.9511 -154.245 34.0854 -153.472 25.7158Z" stroke="#E8E8E8" stroke-width="6.5704" stroke-miterlimit="10" stroke-linecap="round" stroke-linejoin="round" stroke-dasharray="0.03 13.22"/>
<path d="M-150.56 19.5513C-145.296 -43.1834 -132.789 -95.9135 -112.904 -137.929C-92.566 -180.991 -66.058 -215.293 -35.2644 -247.166C-23.1222 -259.748 -9.86208 -271.553 6.75611 -277.816C12.9701 -280.162 19.9921 -281.711 27.9694 -278.077C36.4205 -274.23 44.7436 -265.61 52.7612 -257.328C67.1064 -242.511 81.9241 -226.958 92.7513 -206.905C107.464 -179.722 113.844 -148.753 126.799 -118.324C136.114 -96.3675 147.287 -78.4639 157.389 -57.6433C165.244 -41.467 162.843 -29.5289 161.882 -16.2044C159.678 13.8755 152.117 37.6853 140.816 54.3768C126.549 75.3009 106.905 85.9541 87.1613 96.0197C40.0916 119.507 -4.95652 147.753 -38.3748 204.944C-40.9998 209.336 -44.5123 213.75 -50.1276 210.767C-54.467 208.464 -58.663 202.278 -62.7039 196.649C-87.2052 162.52 -110.866 125.738 -132.946 86.0348C-139.955 73.4904 -147.005 59.7268 -149.762 46.5473C-151.914 36.2643 -151.252 27.6632 -150.56 19.5513Z" stroke="#E8E8E8" stroke-width="6.7368" stroke-miterlimit="10" stroke-linecap="round" stroke-linejoin="round" stroke-dasharray="0.03 13.2"/>
<path d="M-147.71 13.3323C-143.063 -46.9669 -131.04 -97.2993 -112.034 -137.46C-92.5525 -178.68 -67.2482 -211.623 -38.299 -242.628C-26.9096 -254.838 -14.5248 -266.359 1.01731 -272.63C6.83043 -274.979 13.4076 -276.581 20.9635 -273.154C29.011 -269.504 37.0185 -261.19 44.7348 -253.211C58.474 -239.007 72.6843 -224.105 83.1983 -204.787C97.4883 -178.607 103.956 -148.742 116.469 -119.504C125.515 -98.2992 136.203 -81.0245 145.893 -60.9516C153.433 -45.342 151.174 -33.7684 150.303 -20.8707C148.323 8.01095 141.163 30.8446 130.38 46.8365C116.78 66.8446 98.0031 77.012 79.1506 86.6273C34.2557 109.093 -8.69579 136.158 -39.5267 191.642C-41.9515 195.918 -45.2219 200.213 -50.5708 197.358C-54.7182 195.145 -58.7827 189.132 -62.7027 183.683C-86.3017 150.878 -109.149 115.555 -130.465 77.4347C-137.24 65.3767 -144.051 52.1442 -146.773 39.4557C-148.907 29.5087 -148.324 21.1795 -147.71 13.3323Z" stroke="#E8E8E8" stroke-width="6.9033" stroke-miterlimit="10" stroke-linecap="round" stroke-linejoin="round" stroke-dasharray="0.03 13.17"/>
<path d="M-144.918 7.06373C-140.82 -50.7433 -129.289 -98.6881 -111.163 -136.989C-92.5374 -176.368 -68.4345 -207.945 -41.2686 -238.033C-30.6082 -249.849 -19.0613 -261.052 -4.55628 -267.296C0.875015 -269.633 7.02113 -271.273 14.1669 -268.043C21.819 -264.584 29.5094 -256.576 36.9223 -248.903C50.0502 -235.317 63.6474 -221.072 73.8261 -202.506C87.6632 -177.357 94.1697 -148.634 106.22 -120.605C114.982 -100.167 125.179 -83.5227 134.448 -64.2096C141.668 -49.1715 139.541 -37.9723 138.752 -25.5072C136.977 2.16019 130.213 24.0105 119.946 39.2995C107.007 58.3894 89.1007 68.0738 71.1396 77.2387C28.4141 98.6736 -12.4386 124.563 -40.8624 178.182C-43.1025 182.33 -46.1463 186.493 -51.2358 183.759C-55.1974 181.63 -59.1234 175.799 -62.9197 170.53C-85.5864 139.075 -107.588 105.243 -128.105 68.7332C-134.637 57.1705 -141.199 44.4797 -143.869 32.2943C-145.973 22.6871 -145.462 14.6394 -144.918 7.06373Z" stroke="#E8E8E8" stroke-width="7.0698" stroke-miterlimit="10" stroke-linecap="round" stroke-linejoin="round" stroke-dasharray="0.03 13.14"/>
<path d="M-142.178 0.747951C-138.566 -54.5124 -127.541 -100.074 -110.292 -136.518C-92.524 -174.057 -69.6145 -204.266 -44.177 -233.382C-34.2233 -244.784 -23.4799 -255.64 -9.96856 -261.82C-4.90581 -264.133 0.827382 -265.795 7.56846 -262.756C14.836 -259.481 22.2046 -251.782 29.3128 -244.415C41.828 -231.452 54.8044 -217.868 64.627 -200.075C77.9803 -175.983 84.4852 -148.441 96.0519 -121.641C104.516 -101.981 114.217 -85.9734 123.054 -67.427C129.947 -52.9677 127.942 -42.1483 127.229 -30.1232C125.637 -3.68956 119.3 17.2275 109.514 31.7604C97.2725 49.9958 80.2031 59.1323 63.1294 67.8453C22.5629 88.245 -16.1857 112.961 -42.368 164.566C-44.4368 168.574 -47.2712 172.591 -52.104 169.973C-55.8851 167.929 -59.6678 162.275 -63.336 157.195C-85.0455 127.111 -106.166 94.8027 -125.856 59.9295C-132.134 48.8722 -138.435 36.73 -141.043 25.0588C-143.109 15.803 -142.663 8.04581 -142.178 0.747951Z" stroke="#E8E8E8" stroke-width="7.2363" stroke-miterlimit="10" stroke-linecap="round" stroke-linejoin="round" stroke-dasharray="0.03 13.12"/>
<path d="M-139.488 -5.61251C-136.307 -58.2771 -125.792 -101.463 -109.42 -136.049C-92.5096 -171.75 -70.7936 -200.586 -47.0246 -228.681C-37.7551 -239.648 -27.7798 -250.128 -15.2267 -256.209C-10.5156 -258.483 -5.18076 -260.154 1.16707 -257.299C8.05334 -254.201 15.1019 -246.812 21.9039 -239.755C33.7963 -227.417 46.1299 -214.483 55.5959 -197.496C68.412 -174.463 74.8992 -148.162 85.9633 -122.608C94.1154 -103.74 103.314 -88.3746 111.713 -70.6007C118.273 -56.7266 116.381 -46.2955 115.737 -34.7173C114.314 -9.53061 108.357 10.3982 99.0852 24.2214C87.5038 41.5344 71.3084 50.1915 55.1215 58.45C16.7077 77.8071 -19.9316 101.355 -44.0336 150.806C-45.9416 154.666 -48.5822 158.518 -53.1667 156.015C-56.7678 154.049 -60.4061 148.582 -63.94 143.69C-84.6676 115.003 -104.874 84.2413 -123.709 51.032C-129.724 40.4864 -135.753 28.9044 -138.287 17.758C-140.309 8.86313 -139.918 1.40063 -139.488 -5.61251Z" stroke="#E8E8E8" stroke-width="7.4027" stroke-miterlimit="10" stroke-linecap="round" stroke-linejoin="round" stroke-dasharray="0.03 13.09"/>
<path d="M-136.845 -12.012C-134.042 -62.0322 -124.044 -102.85 -108.551 -135.578C-92.4961 -169.44 -71.9679 -196.899 -49.8179 -223.929C-41.2082 -234.441 -31.9742 -244.515 -20.3361 -250.465C-15.9656 -252.689 -11.0123 -254.353 -5.0532 -251.676C1.4623 -248.751 8.18725 -241.67 14.6792 -234.925C25.9522 -223.216 37.6519 -210.952 46.7224 -194.773C59.0006 -172.846 65.403 -147.798 75.945 -123.508C83.7708 -105.44 92.4637 -90.7199 100.415 -73.7301C106.636 -60.4433 104.848 -50.4115 104.265 -39.2839C102.992 -15.3606 97.419 3.57269 88.6542 16.6883C77.7293 33.0788 62.4112 41.2555 47.1095 49.06C10.8413 67.3692 -23.6823 89.7537 -45.8533 136.917C-47.6151 140.617 -50.076 144.292 -54.4132 141.899C-57.8377 140.009 -61.3266 134.73 -64.7253 130.032C-84.4438 102.764 -103.68 73.5373 -121.662 42.0536C-127.395 32.0146 -133.157 21.0123 -135.602 10.4012C-137.571 1.86885 -137.226 -5.28837 -136.845 -12.012Z" stroke="#E8E8E8" stroke-width="7.5692" stroke-miterlimit="10" stroke-linecap="round" stroke-linejoin="round" stroke-dasharray="0.03 13.06"/>
<path d="M-134.241 -18.4488C-131.767 -65.7806 -122.296 -104.239 -107.679 -135.107C-92.4823 -167.13 -73.1392 -193.21 -52.5519 -219.124C-44.5821 -229.163 -36.0568 -238.806 -25.3021 -244.592C-21.2564 -246.756 -16.6712 -248.401 -11.0925 -245.896C-4.9402 -243.135 1.45977 -236.367 7.63992 -229.933C18.2866 -218.855 29.3492 -207.268 38.0051 -191.915C49.7162 -171.116 55.9976 -147.352 65.9989 -124.344C73.4864 -107.09 81.6681 -93.0203 89.1624 -76.8195C95.0361 -64.1258 93.3471 -54.4991 92.8177 -43.8289C91.6813 -21.1828 86.4818 -3.2493 78.2254 9.15554C67.953 24.6183 53.5132 32.3199 39.0984 39.6698C4.97092 56.9243 -27.4339 78.1523 -47.8111 122.906C-49.437 126.435 -51.7333 129.922 -55.8288 127.634C-59.0835 125.816 -62.4166 120.73 -65.6757 116.226C-84.3649 90.3976 -102.631 62.7668 -119.703 32.9936C-125.16 23.4816 -130.63 13.0538 -132.981 2.98658C-134.888 -5.17485 -134.583 -12.021 -134.241 -18.4488Z" stroke="#E8E8E8" stroke-width="7.7357" stroke-miterlimit="10" stroke-linecap="round" stroke-linejoin="round" stroke-dasharray="0.03 13.04"/>
<path d="M-131.678 -24.921C-129.486 -69.5248 -120.548 -105.629 -106.808 -134.637C-92.4697 -164.822 -74.3049 -189.518 -55.2348 -214.276C-47.8861 -223.823 -40.0396 -233.011 -30.1332 -238.602C-26.4007 -240.693 -22.169 -242.306 -16.9632 -239.967C-11.1683 -237.362 -5.09645 -230.911 0.77314 -224.792C10.7894 -214.35 21.2101 -203.443 29.435 -188.928C40.556 -169.281 46.6782 -146.833 56.1234 -125.122C63.2593 -108.69 70.9241 -95.2753 77.9569 -79.8713C83.4799 -67.777 81.8772 -58.563 81.3994 -48.3561C80.3816 -26.9992 75.5512 -10.0708 67.7998 1.62064C58.1791 16.1578 44.6216 23.3822 31.0906 30.2775C-0.900198 46.472 -31.1859 66.5462 -49.8974 108.773C-51.3975 112.123 -53.5416 115.411 -57.399 113.224C-60.4855 111.477 -63.6606 106.586 -66.7779 102.282C-84.416 77.9112 -101.687 51.8979 -117.828 23.8564C-122.999 14.8773 -128.171 5.03142 -130.418 -4.48304C-132.254 -12.2629 -131.983 -18.7948 -131.678 -24.921Z" stroke="#E8E8E8" stroke-width="7.9022" stroke-miterlimit="10" stroke-linecap="round" stroke-linejoin="round" stroke-dasharray="0.03 13.01"/>
<path d="M-129.148 -31.4223C-127.199 -73.2606 -118.801 -107.017 -105.937 -134.166C-92.4567 -162.511 -75.4677 -185.822 -57.8677 -209.381C-51.1178 -218.42 -43.9232 -227.128 -34.8321 -232.496C-31.4017 -234.503 -27.5103 -236.074 -22.6719 -233.893C-17.2292 -231.442 -11.4832 -225.305 -5.92986 -219.501C3.45288 -209.7 13.2268 -199.476 21.0017 -185.816C31.5087 -167.342 37.4359 -146.238 46.3071 -125.841C53.0844 -110.244 60.2266 -97.4859 66.7886 -82.886C71.9556 -71.3934 70.4329 -62.6031 69.9969 -52.862C69.0866 -32.8087 64.619 -16.888 57.3702 -5.91211C48.3998 7.69517 35.7241 14.4471 23.0778 20.8858C-6.78509 36.0191 -34.9432 54.9416 -52.1081 94.5372C-53.4912 97.6995 -55.4947 100.776 -59.1184 98.6905C-62.0404 97.0109 -65.0544 92.3172 -68.0254 88.2139C-84.5935 65.3191 -100.847 40.9424 -116.032 14.6531C-120.909 6.21271 -125.779 -3.04334 -127.909 -11.9986C-129.669 -19.3923 -129.423 -25.6019 -129.148 -31.4223Z" stroke="#E8E8E8" stroke-width="8.0686" stroke-miterlimit="10" stroke-linecap="round" stroke-linejoin="round" stroke-dasharray="0.03 12.98"/>
<path d="M-126.649 -37.9517C-124.902 -76.9917 -117.053 -108.406 -105.066 -133.695C-92.446 -160.204 -76.6265 -182.121 -60.4494 -204.443C-54.2818 -212.958 -47.7148 -221.161 -39.407 -226.278C-36.2668 -228.193 -32.7032 -229.708 -28.2254 -227.683C-23.1268 -225.38 -17.7124 -219.558 -12.4736 -214.074C-3.72437 -204.913 5.39577 -195.377 12.706 -182.587C22.5773 -165.303 28.2772 -145.574 36.5603 -126.505C42.9625 -111.748 49.5803 -99.6533 55.6635 -85.8646C60.4692 -74.9793 59.0199 -66.6153 58.6212 -57.3481C57.8047 -38.6099 53.6935 -23.7044 46.947 -13.443C38.623 -0.76714 26.8282 5.51074 15.0689 11.4949C-12.668 25.5603 -38.694 43.3353 -54.4256 80.2043C-55.702 83.1737 -57.5755 86.0262 -60.9699 84.038C-63.7265 82.4237 -66.5768 77.9328 -69.3994 74.0322C-84.88 52.631 -100.092 29.9116 -114.305 5.38984C-118.881 -2.50652 -123.441 -11.1664 -125.448 -19.5541C-127.125 -26.5599 -126.897 -32.4404 -126.649 -37.9517Z" stroke="#E8E8E8" stroke-width="8.2351" stroke-miterlimit="10" stroke-linecap="round" stroke-linejoin="round" stroke-dasharray="0.03 12.96"/>
<path d="M-124.178 -44.5049C-122.605 -80.7149 -115.307 -109.795 -104.194 -133.226C-92.4349 -157.897 -77.7828 -178.419 -62.9869 -199.466C-57.3807 -207.439 -51.4306 -215.146 -43.8638 -219.958C-41.0076 -221.781 -37.7546 -223.218 -33.6314 -221.344C-28.8726 -219.183 -23.7871 -213.68 -18.8689 -208.512C-10.7585 -199.996 -2.29537 -191.153 4.53561 -179.245C13.749 -163.173 19.1897 -144.842 26.8679 -127.117C32.8858 -113.212 38.9739 -101.782 44.5748 -88.8107C49.0135 -78.534 47.6309 -70.6062 47.2621 -61.8171C46.5273 -44.4063 42.7682 -30.5165 36.5213 -20.9742C28.8431 -9.23251 17.9342 -3.42548 7.05911 2.10306C-18.5552 15.0978 -42.4509 31.7296 -56.8437 65.7826C-58.0204 68.5501 -59.7759 71.1703 -62.9419 69.2776C-65.5366 67.7261 -68.2231 63.438 -70.8928 59.7444C-85.2687 39.8511 -99.4226 18.8042 -112.642 -3.93307C-116.913 -11.2801 -121.155 -19.3391 -123.03 -27.1518C-124.619 -33.7602 -124.405 -39.3069 -124.178 -44.5049Z" stroke="#E8E8E8" stroke-width="8.4016" stroke-miterlimit="10" stroke-linecap="round" stroke-linejoin="round" stroke-dasharray="0.03 12.93"/>
<path d="M-121.729 -51.0797C-120.297 -84.4364 -113.558 -111.185 -103.323 -132.756C-92.423 -155.589 -78.9316 -174.71 -65.4774 -194.447C-60.4207 -201.863 -55.0469 -209.026 -48.2081 -213.538C-45.6212 -215.248 -42.6708 -216.607 -38.8993 -214.882C-34.4735 -212.857 -29.7223 -207.674 -25.1213 -202.827C-17.6524 -194.958 -9.85106 -186.81 -3.51438 -175.796C5.02038 -160.953 10.1732 -144.045 17.2356 -127.678C22.8617 -114.632 28.4135 -103.871 33.5245 -91.7245C37.5904 -82.061 36.2683 -74.577 35.9257 -66.2686C35.2582 -50.1947 31.8484 -37.329 26.0976 -28.5049C19.064 -17.6978 9.04177 -12.3601 -0.950371 -7.2877C-24.4461 4.63486 -46.2071 20.124 -59.3509 51.2833C-60.4346 53.8426 -62.0813 56.223 -65.0211 54.4239C-67.4566 52.934 -69.9732 48.8523 -72.4891 45.3673C-85.7456 26.9988 -98.8186 7.63716 -111.029 -13.2997C-114.991 -20.0933 -118.907 -27.5466 -120.648 -34.7774C-122.144 -40.9878 -121.939 -46.1986 -121.729 -51.0797Z" stroke="#E8E8E8" stroke-width="8.568" stroke-miterlimit="10" stroke-linecap="round" stroke-linejoin="round" stroke-dasharray="0.03 12.91"/>
<path d="M-119.3 -57.671C-117.983 -88.1479 -111.812 -112.575 -102.452 -132.285C-92.4109 -153.281 -80.0793 -170.998 -67.9257 -189.39C-63.4013 -196.238 -58.5834 -202.835 -52.4447 -207.022C-50.1165 -208.611 -47.4619 -209.883 -44.0358 -208.301C-39.9387 -206.409 -35.5214 -201.547 -31.2398 -197.019C-24.4133 -189.802 -17.2781 -182.35 -11.4504 -172.244C-3.61204 -158.647 1.22366 -143.184 7.65623 -128.19C12.8812 -116.007 17.894 -105.918 22.5063 -94.6057C26.1972 -85.5576 24.9276 -78.5242 24.6083 -70.7002C23.9986 -55.9742 20.9302 -44.1358 15.675 -36.0325C9.28199 -26.1616 0.147732 -21.2927 -8.95972 -16.6769C-30.3386 -5.82974 -49.9663 8.51613 -61.9341 36.7157C-62.9341 39.0631 -64.4792 41.1911 -67.1954 39.4843C-69.4739 38.054 -71.8187 34.182 -74.1795 30.906C-86.3038 14.076 -98.2836 -3.58551 -109.468 -22.7099C-113.117 -28.9452 -116.7 -35.788 -118.3 -42.4338C-119.696 -48.24 -119.501 -53.1111 -119.3 -57.671Z" stroke="#E8E8E8" stroke-width="8.7345" stroke-miterlimit="10" stroke-linecap="round" stroke-linejoin="round" stroke-dasharray="0.03 12.88"/>
<path d="M-116.889 -64.2762C-115.667 -91.856 -110.067 -113.963 -101.58 -131.813C-92.3998 -150.972 -81.2205 -167.279 -70.3316 -184.296C-66.3235 -190.558 -62.0438 -196.573 -56.5804 -200.416C-54.5038 -201.879 -52.1311 -203.053 -49.046 -201.611C-45.2718 -199.846 -41.1896 -195.306 -37.23 -191.102C-31.0499 -184.539 -24.5823 -177.787 -19.2763 -168.598C-12.1516 -156.261 -7.66176 -142.263 -1.86886 -128.656C2.94344 -117.345 7.41286 -107.934 11.5251 -97.4596C14.8343 -89.0295 13.6147 -82.4515 13.3096 -75.1203C12.7499 -61.7492 10.014 -50.9429 5.25483 -43.5615C-0.499354 -34.63 -8.74202 -30.2271 -16.9665 -26.0675C-36.2326 -16.2973 -53.7268 -3.09466 -64.5869 22.086C-65.5081 24.2145 -66.9595 26.0869 -69.4541 24.4694C-71.5756 23.0948 -73.7473 19.4367 -75.9482 16.3731C-86.9265 1.09324 -97.797 -14.8582 -107.947 -32.1584C-111.276 -37.8333 -114.527 -44.0609 -115.978 -50.1153C-117.273 -55.514 -117.077 -60.0391 -116.889 -64.2762Z" stroke="#E8E8E8" stroke-width="8.901" stroke-miterlimit="10" stroke-linecap="round" stroke-linejoin="round" stroke-dasharray="0.03 12.85"/>
<path d="M-114.488 -70.8924C-113.346 -95.5613 -108.32 -115.353 -100.709 -131.343C-92.3897 -148.665 -82.359 -163.558 -72.7017 -179.169C-69.1961 -184.834 -65.4325 -190.253 -60.6231 -193.727C-58.7888 -195.053 -56.6895 -196.124 -53.9419 -194.819C-50.4861 -193.177 -46.7422 -188.963 -43.1056 -185.081C-37.5749 -179.175 -31.7784 -173.125 -27.0025 -164.864C-20.6101 -153.806 -16.4895 -141.287 -11.3474 -129.081C-6.953 -118.645 -3.03196 -109.914 0.572648 -100.285C3.4963 -92.4748 2.31984 -86.3621 2.02565 -79.5228C1.50739 -67.516 -0.899095 -57.7455 -5.16574 -51.0886C-10.2824 -43.097 -17.6348 -39.1608 -24.9737 -35.4563C-42.1279 -26.7646 -57.4941 -14.7073 -67.2988 7.40518C-68.1459 9.31177 -69.5121 10.919 -71.7844 9.39335C-73.7529 8.07309 -75.7458 4.62993 -77.7888 1.78009C-87.6136 -11.938 -97.3614 -26.1713 -106.462 -41.6378C-109.469 -46.7476 -112.379 -52.3568 -113.679 -57.8162C-114.866 -62.8037 -114.671 -66.9818 -114.488 -70.8924Z" stroke="#E8E8E8" stroke-width="9.0675" stroke-miterlimit="10" stroke-linecap="round" stroke-linejoin="round" stroke-dasharray="0.03 12.83"/>
<path d="M-112.098 -77.5175C-111.021 -99.2612 -106.572 -116.743 -99.8396 -130.872C-92.3793 -146.359 -83.4942 -159.831 -75.0343 -174.01C-72.0179 -179.066 -68.7527 -183.871 -64.5782 -186.961C-62.9797 -188.147 -61.1452 -189.1 -58.7289 -187.929C-55.5881 -186.408 -52.1811 -182.519 -48.8696 -178.961C-43.9889 -173.715 -38.8684 -168.367 -34.6365 -161.045C-28.9892 -151.275 -25.2668 -140.255 -20.7823 -129.464C-16.8151 -119.91 -13.4462 -111.86 -10.3524 -103.085C-7.81658 -95.8963 -8.95612 -90.2527 -9.24264 -83.9126C-9.72386 -73.2744 -11.8106 -64.5497 -15.5856 -58.6151C-20.0657 -51.565 -26.5265 -48.0949 -32.9816 -44.845C-48.0234 -37.2329 -61.2712 -26.331 -70.0568 -7.31838C-70.836 -5.63379 -72.1189 -4.30223 -74.1747 -5.73707C-75.9911 -7.00466 -77.8056 -10.2281 -79.6856 -12.8657C-88.3475 -25.0108 -96.9609 -37.5166 -105.005 -51.1426C-107.686 -55.6851 -110.255 -60.6738 -111.398 -65.5348C-112.476 -70.1071 -112.275 -73.9334 -112.098 -77.5175Z" stroke="#E8E8E8" stroke-width="9.2339" stroke-miterlimit="10" stroke-linecap="round" stroke-linejoin="round" stroke-dasharray="0.03 12.8"/>
</g>
</g>
<defs>
<linearGradient id="paint0_linear_811_1202" x1="802.999" y1="430.253" x2="802.999" y2="1308.35" gradientUnits="userSpaceOnUse">
<stop stop-color="white"/>
<stop offset="0.8628" stop-color="#D1D3D4"/>
</linearGradient>
<linearGradient id="paint1_linear_811_1202" x1="1482" y1="791" x2="1042" y2="246.5" gradientUnits="userSpaceOnUse">
<stop stop-color="white"/>
<stop offset="0.609708" stop-color="white" stop-opacity="0.75"/>
<stop offset="1" stop-color="#E6E6E6" stop-opacity="0.07"/>
</linearGradient>
<radialGradient id="paint2_radial_811_1202" cx="0" cy="0" r="1" gradientUnits="userSpaceOnUse" gradientTransform="translate(6.49995 832.5) rotate(-30.0468) scale(600.15 577.579)">
<stop offset="0.471931" stop-color="white"/>
<stop offset="0.716721" stop-color="white" stop-opacity="0.6673"/>
<stop offset="1" stop-color="#E6E6E6" stop-opacity="0.05"/>
</radialGradient>
<linearGradient id="paint3_linear_811_1202" x1="-4.49987" y1="882" x2="234.438" y2="552.248" gradientUnits="userSpaceOnUse">
<stop stop-color="white"/>
<stop offset="0.533553" stop-color="white" stop-opacity="0.6673"/>
<stop offset="0.96066" stop-color="#E6E6E6" stop-opacity="0.25"/>
</linearGradient>
<radialGradient id="paint4_radial_811_1202" cx="0" cy="0" r="1" gradientUnits="userSpaceOnUse" gradientTransform="translate(641.5 -171) rotate(72.7197) scale(486.457 746.995)">
<stop stop-color="white" stop-opacity="0"/>
<stop offset="0.5757" stop-color="white" stop-opacity="0.6673"/>
<stop offset="0.8628" stop-color="#E6E6E6" stop-opacity="0.07"/>
</radialGradient>
<linearGradient id="paint5_linear_811_1202" x1="1466.52" y1="784.28" x2="1251.86" y2="543.862" gradientUnits="userSpaceOnUse">
<stop stop-color="white"/>
<stop offset="0.480769" stop-color="white" stop-opacity="0.6673"/>
<stop offset="0.8628" stop-color="#E6E6E6" stop-opacity="0.46"/>
</linearGradient>
</defs>
</svg>
