<svg width="145" height="145" viewBox="0 0 145 145" fill="none" xmlns="http://www.w3.org/2000/svg">
<rect x="1" y="144" width="143" height="143" rx="40" transform="rotate(-90 1 144)" fill="#FDFEFF"/>
<rect x="0.5" y="144.5" width="144" height="144" rx="40.5" transform="rotate(-90 0.5 144.5)" stroke="url(#paint0_linear_1195_12)" stroke-opacity="0.35"/>
<g filter="url(#filter0_d_1195_12)">
<mask id="path-3-outside-1_1195_12" maskUnits="userSpaceOnUse" x="11" y="11" width="124" height="124" fill="black">
<rect fill="white" x="11" y="11" width="124" height="124"/>
<path d="M41 134C24.4315 134 11 120.569 11 104L11 41C11 24.4315 24.4315 11 41 11H104C120.569 11 134 24.4315 134 41V104C134 120.569 120.569 134 104 134H41Z"/>
</mask>
<path d="M41 134C24.4315 134 11 120.569 11 104L11 41C11 24.4315 24.4315 11 41 11H104C120.569 11 134 24.4315 134 41V104C134 120.569 120.569 134 104 134H41Z" fill="url(#paint1_linear_1195_12)" fill-opacity="0.05" shape-rendering="crispEdges"/>
<path d="M11 134L11 11L11 134ZM104 11C121.121 11 135 24.8792 135 42V104C135 121.121 121.121 135 104 135V133C120.016 133 133 120.016 133 104V41C133 24.4315 120.016 11 104 11ZM135 104C135 121.121 121.121 135 104 135H42C24.8792 135 11 121.121 11 104C11 120.016 24.4315 133 41 133H104C120.016 133 133 120.016 133 104H135ZM11 11L134 11L11 11Z" fill="url(#paint2_linear_1195_12)" fill-opacity="0.75" mask="url(#path-3-outside-1_1195_12)"/>
</g>
<defs>
<filter id="filter0_d_1195_12" x="10" y="10" width="132" height="132" filterUnits="userSpaceOnUse" color-interpolation-filters="sRGB">
<feFlood flood-opacity="0" result="BackgroundImageFix"/>
<feColorMatrix in="SourceAlpha" type="matrix" values="0 0 0 0 0 0 0 0 0 0 0 0 0 0 0 0 0 0 127 0" result="hardAlpha"/>
<feOffset dx="3" dy="3"/>
<feGaussianBlur stdDeviation="2"/>
<feComposite in2="hardAlpha" operator="out"/>
<feColorMatrix type="matrix" values="0 0 0 0 0 0 0 0 0 0 0 0 0 0 0 0 0 0 0.15 0"/>
<feBlend mode="normal" in2="BackgroundImageFix" result="effect1_dropShadow_1195_12"/>
<feBlend mode="normal" in="SourceGraphic" in2="effect1_dropShadow_1195_12" result="shape"/>
</filter>
<linearGradient id="paint0_linear_1195_12" x1="132" y1="149" x2="8" y2="282" gradientUnits="userSpaceOnUse">
<stop stop-color="#3800A0"/>
<stop offset="0.466346" stop-color="#750C7B"/>
<stop offset="1" stop-color="#E61F4A"/>
</linearGradient>
<linearGradient id="paint1_linear_1195_12" x1="103" y1="117" x2="28.4342" y2="92.9983" gradientUnits="userSpaceOnUse">
<stop offset="0.0336538" stop-color="white"/>
<stop offset="0.456731" stop-color="#720C7D"/>
<stop offset="1" stop-color="#E61F4A"/>
</linearGradient>
<linearGradient id="paint2_linear_1195_12" x1="72.5" y1="11" x2="72.5" y2="134" gradientUnits="userSpaceOnUse">
<stop stop-color="#3800A0"/>
<stop offset="0.466346" stop-color="#750D7C"/>
<stop offset="1" stop-color="#E61F4A"/>
</linearGradient>
</defs>
</svg>
