<svg width="21" height="21" viewBox="0 0 21 21" fill="none" xmlns="http://www.w3.org/2000/svg">
<path fill-rule="evenodd" clip-rule="evenodd" d="M21 10.5C21 16.2989 16.2989 21 10.5 21C4.70101 21 0 16.2989 0 10.5C0 4.70101 4.70101 0 10.5 0C16.2989 0 21 4.70101 21 10.5ZM15.3011 7.75425C15.5704 7.91962 15.7453 8.2173 15.7453 8.5575L15.75 13.2825C15.75 13.8022 15.3248 14.2275 14.805 14.2275H7.245C6.72525 14.2275 6.3 13.8022 6.3 13.2825V8.5575C6.3 8.2173 6.47955 7.91962 6.74887 7.75425L11.025 5.25L15.3011 7.75425ZM14.8003 8.56223V8.5575L11.025 6.34621L7.24499 8.5575L11.025 10.92L14.8003 8.56223ZM7.24499 13.2825V9.66315L11.025 12.0351L14.8003 9.67733L14.805 13.2825H7.24499Z" fill="#F24E1E"/>
</svg>
