<svg width="23" height="21" viewBox="0 0 23 21" fill="none" xmlns="http://www.w3.org/2000/svg">
<path d="M19.6781 6.83212C20.9822 6.83212 22.0395 5.77494 22.0395 4.47083C22.0395 3.16673 20.9822 2.10954 19.6781 2.10954C18.3739 2.10954 17.3168 3.16673 17.3168 4.47083C17.3168 5.77494 18.3739 6.83212 19.6781 6.83212Z" fill="#A259FF"/>
<path d="M18.5855 17.3887C18.5092 17.6092 18.6493 17.8516 18.8826 17.8516H18.8999C20.9237 17.8516 22.5642 16.2111 22.5642 14.1874V8.87866C22.5642 8.32811 22.1179 7.88171 21.5672 7.88171H19.7858C19.3049 7.88171 18.9774 8.42059 18.9696 8.90145V14.9331C18.9881 15.7931 18.8515 16.6205 18.5855 17.3887Z" fill="#A259FF"/>
<path d="M16.7136 14.971C16.7352 15.8986 15.6355 16.1249 15.3702 15.2357C15.2711 14.9035 15.2178 14.5515 15.2178 14.187V9.75666C15.2178 9.3437 15.5525 9.00894 15.9655 9.00894C16.3784 9.00894 16.7132 9.3437 16.7132 9.75666V14.9579L16.7136 14.971Z" fill="#A259FF"/>
<path d="M12.6725 5.6946C12.6725 6.2891 13.1986 6.76382 13.7399 6.51808C14.921 5.98192 15.7424 4.79226 15.7424 3.41077C15.7424 1.52705 14.2152 0 12.3314 0C10.4477 0 8.92053 1.52705 8.92053 3.41077C8.92053 3.51954 9.01111 3.6046 9.11988 3.6046H10.5824C11.7368 3.6046 12.6725 4.54034 12.6725 5.6946Z" fill="#A259FF"/>
<path d="M10.2196 6.08951C10.3009 6.15363 10.416 6.09344 10.416 5.98995C10.416 5.91876 10.3574 5.86104 10.2862 5.86104C10.1678 5.86104 10.1103 6.00216 10.2028 6.07615C10.2084 6.08062 10.214 6.08508 10.2196 6.08951Z" fill="#A259FF"/>
<path d="M6.49927 15.1493C6.38645 15.1493 6.2943 15.0584 6.29692 14.9456V14.0039C6.29692 13.8566 6.41636 13.7371 6.56369 13.7371C6.71103 13.7371 6.83047 13.6177 6.83047 13.4704V9.64754C6.83047 9.10233 7.27245 8.66036 7.81765 8.66036H8.41551C8.63053 8.66036 8.80483 8.48605 8.80483 8.27103C8.80483 8.05602 8.97914 7.88171 9.19416 7.88171H9.61043C10.0553 7.88171 10.416 8.24239 10.416 8.68731V13.0782C10.416 14.2221 9.48879 15.1493 8.34499 15.1493H6.49927Z" fill="#A259FF"/>
<path d="M9.25569 20.2107C7.69173 19.3065 8.77596 17.4056 10.5825 17.4056C11.7368 17.4056 12.6726 16.4699 12.6726 15.3157V12.0888C12.6726 9.76529 14.5562 7.88171 16.8797 7.88171C17.4237 7.89517 17.8541 8.34672 17.8415 8.89073V14.9456C17.9175 18.2107 15.3342 20.9201 12.0693 21C11.0437 20.9749 10.0854 20.6904 9.25569 20.2107Z" fill="#A259FF"/>
<path fill-rule="evenodd" clip-rule="evenodd" d="M10.5826 4.73244H0.961853C0.430648 4.73244 0 5.16307 0 5.69427V15.3148C0 15.8459 0.430637 16.2765 0.961853 16.2765H10.5826C11.1138 16.2765 11.5444 15.8459 11.5444 15.3148V5.69427C11.5444 5.16307 11.1138 4.73244 10.5826 4.73244ZM3.16386 8.09534C3.16386 8.40688 3.41641 8.65943 3.72794 8.65943H4.15104C4.69624 8.65943 5.13822 9.10141 5.13822 9.64661V13.1721C5.13822 13.4837 5.39078 13.7362 5.70232 13.7362C6.01387 13.7362 6.26643 13.4837 6.26643 13.1721V9.64661C6.26643 9.10141 6.7084 8.65943 7.25361 8.65943H7.6767C7.98824 8.65943 8.24079 8.40688 8.24079 8.09534C8.24079 7.78381 7.98824 7.53126 7.6767 7.53126H3.72794C3.41641 7.53126 3.16386 7.78381 3.16386 8.09534Z" fill="#A259FF"/>
</svg>
