<svg width="21" height="21" viewBox="0 0 21 21" fill="none" xmlns="http://www.w3.org/2000/svg">
<path fill-rule="evenodd" clip-rule="evenodd" d="M16.6121 14.8271C16.359 15.5435 15.3531 16.136 14.5509 16.3093C14.0018 16.4259 13.2856 16.5182 10.8727 15.5183C8.16269 14.3955 4.3995 10.396 4.3995 7.73452C4.3995 6.37961 5.1807 4.8019 6.54675 4.8019C7.20405 4.8019 7.34895 4.81472 7.56525 5.33357C7.8183 5.94486 8.4357 7.45093 8.5092 7.60532C8.81265 8.23866 8.20049 8.60942 7.75634 9.16084C7.61459 9.32678 7.45395 9.50625 7.6335 9.81504C7.812 10.1175 8.4294 11.1238 9.3366 11.9314C10.5084 12.9755 11.4586 13.3088 11.7988 13.4506C12.0519 13.5556 12.3543 13.5311 12.5391 13.3337C12.7733 13.0805 13.0641 12.6606 13.3602 12.2468C13.5691 11.9506 13.8348 11.9136 14.1131 12.0186C14.301 12.0837 16.6897 13.1931 16.7905 13.3706C16.8651 13.4998 16.8651 14.1108 16.6121 14.8271ZM10.5021 0H10.4968C4.70819 0 0 4.70962 0 10.5C0 12.4909 0.556623 14.3572 1.5254 15.9445C1.80428 16.4014 1.8981 16.9554 1.72791 17.4629C1.29751 18.7465 2.50837 19.9747 3.79792 19.5626L3.93757 19.518C4.43607 19.3587 4.97579 19.4417 5.43359 19.6953C6.93768 20.5284 8.66299 21 10.5021 21C16.2907 21 21 16.2904 21 10.5C21 4.70962 16.2907 0 10.5021 0Z" fill="#00EB4E"/>
</svg>
