<svg width="1600" height="1055" viewBox="0 0 1600 1055" fill="none" xmlns="http://www.w3.org/2000/svg">
<g clip-path="url(#clip0_11_1646)">
<path d="M1600 0H0V1054H1600V0Z" fill="black"/>
<mask id="mask0_11_1646" style="mask-type:alpha" maskUnits="userSpaceOnUse" x="0" y="0" width="1600" height="1055">
<path d="M1600 1055H0V0H1600V1055Z" fill="#12151F"/>
</mask>
<g mask="url(#mask0_11_1646)">
<g filter="url(#filter0_f_11_1646)">
<path d="M1410.04 -342C1677.92 -342 1895.08 -125.872 1895.08 140.737C1895.08 407.345 1677.92 623.473 1410.04 623.473C1142.16 623.473 925 407.345 925 140.737C925 -125.872 1142.16 -342 1410.04 -342Z" fill="url(#paint0_linear_11_1646)"/>
</g>
<g filter="url(#filter1_f_11_1646)">
<path d="M69.3544 278.229C267.268 278.229 427.709 437.938 427.709 634.948C427.709 831.958 267.268 991.667 69.3544 991.667C-128.559 991.667 -289 831.958 -289 634.948C-289 437.938 -128.559 278.229 69.3544 278.229Z" fill="url(#paint1_linear_11_1646)" fill-opacity="0.45"/>
</g>
<g filter="url(#filter2_f_11_1646)">
<path d="M991.734 706C1157.82 706 1292.47 839.002 1292.47 1003.07C1292.47 1167.14 1157.82 1300.14 991.734 1300.14C825.643 1300.14 691 1167.14 691 1003.07C691 839.002 825.643 706 991.734 706Z" fill="url(#paint2_linear_11_1646)"/>
</g>
<g filter="url(#filter3_f_11_1646)">
<path d="M1333 453C1556.12 453 1737 605.895 1737 794.5C1737 983.105 1556.12 1136 1333 1136C1109.88 1136 929 983.105 929 794.5C929 605.895 1109.88 453 1333 453Z" fill="url(#paint3_radial_11_1646)" fill-opacity="0.45"/>
</g>
</g>
</g>
<defs>
<filter id="filter0_f_11_1646" x="675" y="-592" width="1470.08" height="1465.47" filterUnits="userSpaceOnUse" color-interpolation-filters="sRGB">
<feFlood flood-opacity="0" result="BackgroundImageFix"/>
<feBlend mode="normal" in="SourceGraphic" in2="BackgroundImageFix" result="shape"/>
<feGaussianBlur stdDeviation="125" result="effect1_foregroundBlur_11_1646"/>
</filter>
<filter id="filter1_f_11_1646" x="-539" y="28.229" width="1216.71" height="1213.44" filterUnits="userSpaceOnUse" color-interpolation-filters="sRGB">
<feFlood flood-opacity="0" result="BackgroundImageFix"/>
<feBlend mode="normal" in="SourceGraphic" in2="BackgroundImageFix" result="shape"/>
<feGaussianBlur stdDeviation="125" result="effect1_foregroundBlur_11_1646"/>
</filter>
<filter id="filter2_f_11_1646" x="441" y="456" width="1101.47" height="1094.14" filterUnits="userSpaceOnUse" color-interpolation-filters="sRGB">
<feFlood flood-opacity="0" result="BackgroundImageFix"/>
<feBlend mode="normal" in="SourceGraphic" in2="BackgroundImageFix" result="shape"/>
<feGaussianBlur stdDeviation="125" result="effect1_foregroundBlur_11_1646"/>
</filter>
<filter id="filter3_f_11_1646" x="679" y="203" width="1308" height="1183" filterUnits="userSpaceOnUse" color-interpolation-filters="sRGB">
<feFlood flood-opacity="0" result="BackgroundImageFix"/>
<feBlend mode="normal" in="SourceGraphic" in2="BackgroundImageFix" result="shape"/>
<feGaussianBlur stdDeviation="125" result="effect1_foregroundBlur_11_1646"/>
</filter>
<linearGradient id="paint0_linear_11_1646" x1="1223.72" y1="344.75" x2="1722.58" y2="-219.931" gradientUnits="userSpaceOnUse">
<stop offset="0.0677083" stop-color="#5C3DB3"/>
<stop offset="0.574972" stop-color="#0040C0"/>
<stop offset="0.875" stop-color="#D9D9D9" stop-opacity="0"/>
</linearGradient>
<linearGradient id="paint1_linear_11_1646" x1="-68.3042" y1="785.704" x2="300.339" y2="368.499" gradientUnits="userSpaceOnUse">
<stop offset="0.0677083" stop-color="#5C3DB3"/>
<stop offset="0.574972" stop-color="#0040C0"/>
<stop offset="0.875" stop-color="#D9D9D9" stop-opacity="0"/>
</linearGradient>
<linearGradient id="paint2_linear_11_1646" x1="876.21" y1="1128.62" x2="1182.91" y2="778.836" gradientUnits="userSpaceOnUse">
<stop offset="0.0677083" stop-color="#5C3DB3"/>
<stop offset="0.574972" stop-color="#0040C0"/>
<stop offset="0.875" stop-color="#D9D9D9" stop-opacity="0"/>
</linearGradient>
<radialGradient id="paint3_radial_11_1646" cx="0" cy="0" r="1" gradientUnits="userSpaceOnUse" gradientTransform="translate(1288.93 805.841) rotate(-38.0702) scale(461.858 465.392)">
<stop offset="0.0677083" stop-color="#FF00DD" stop-opacity="0.75"/>
<stop offset="1" stop-color="#15171B"/>
</radialGradient>
<clipPath id="clip0_11_1646">
<rect width="1600" height="1055" fill="white"/>
</clipPath>
</defs>
</svg>
